<?xml version="1.0" encoding="utf-8"?>
<!-- Generator: Adobe Illustrator 16.0.4, SVG Export Plug-In . SVG Version: 6.00 Build 0)  -->
<!DOCTYPE svg PUBLIC "-//W3C//DTD SVG 1.1//EN" "http://www.w3.org/Graphics/SVG/1.1/DTD/svg11.dtd">
<svg version="1.1" id="Layer_1" xmlns="http://www.w3.org/2000/svg" xmlns:xlink="http://www.w3.org/1999/xlink" x="0px" y="0px"
	 width="500px" height="500px" viewBox="0 0 500 500" enable-background="new 0 0 500 500" xml:space="preserve">
<g>
	<path d="M162.5,354.619c-1.792,0-3.583-0.684-4.95-2.05l-97.619-97.62c-1.313-1.313-2.05-3.094-2.05-4.95s0.737-3.637,2.05-4.95
		l97.619-97.618c2.734-2.733,7.167-2.733,9.899,0c2.734,2.734,2.734,7.166,0,9.899L81.78,242.999h353.339c3.866,0,7,3.134,7,7
		s-3.134,7-7,7H81.78l85.669,85.671c2.734,2.733,2.734,7.165,0,9.899C166.083,353.936,164.291,354.619,162.5,354.619z"/>
</g>
</svg>
