<?xml version="1.0" encoding="utf-8"?>
<!-- Generator: Adobe Illustrator 16.0.4, SVG Export Plug-In . SVG Version: 6.00 Build 0)  -->
<!DOCTYPE svg PUBLIC "-//W3C//DTD SVG 1.1//EN" "http://www.w3.org/Graphics/SVG/1.1/DTD/svg11.dtd">
<svg version="1.1" id="Layer_1" xmlns="http://www.w3.org/2000/svg" xmlns:xlink="http://www.w3.org/1999/xlink" x="0px" y="0px"
	 width="500px" height="500px" viewBox="0 0 500 500" enable-background="new 0 0 500 500" xml:space="preserve">
<g>
	<path d="M337.501,354.619c-1.791,0-3.583-0.684-4.95-2.05c-2.733-2.734-2.733-7.166,0-9.899l85.669-85.671H64.881
		c-3.866,0-7-3.134-7-7s3.134-7,7-7H418.22l-85.669-85.668c-2.733-2.733-2.733-7.166,0-9.899c2.734-2.733,7.166-2.733,9.9,0
		l97.618,97.618c2.733,2.733,2.733,7.166,0,9.9l-97.618,97.619C341.084,353.936,339.292,354.619,337.501,354.619z"/>
</g>
</svg>
