<?xml version="1.0" encoding="utf-8"?>
<!-- Generator: Adobe Illustrator 16.0.4, SVG Export Plug-In . SVG Version: 6.00 Build 0)  -->
<!DOCTYPE svg PUBLIC "-//W3C//DTD SVG 1.1//EN" "http://www.w3.org/Graphics/SVG/1.1/DTD/svg11.dtd">
<svg version="1.1" id="Layer_1" xmlns="http://www.w3.org/2000/svg" xmlns:xlink="http://www.w3.org/1999/xlink" x="0px" y="0px"
	 width="500px" height="500px" viewBox="0 0 500 500" style="enable-background:new 0 0 500 500;" xml:space="preserve">
<path d="M100.208,414.334c-3.719,0-7.439-1.419-10.278-4.259c-5.679-5.68-5.679-14.878,0-20.557L389.514,89.924
	c5.679-5.678,14.878-5.678,20.557,0c5.678,5.679,5.678,14.878,0,20.557L110.486,410.075
	C107.646,412.915,103.927,414.334,100.208,414.334z"/>
<path d="M399.792,414.33c-3.728,0-7.439-1.42-10.277-4.26L89.929,110.486c-5.679-5.679-5.679-14.877,0-20.557
	c5.679-5.679,14.878-5.679,20.557,0l299.585,299.585c5.678,5.678,5.678,14.877,0,20.556
	C407.231,412.91,403.521,414.33,399.792,414.33z"/>
</svg>
