<?xml version="1.0" encoding="utf-8"?>
<!-- Generator: Adobe Illustrator 16.0.4, SVG Export Plug-In . SVG Version: 6.00 Build 0)  -->
<!DOCTYPE svg PUBLIC "-//W3C//DTD SVG 1.1//EN" "http://www.w3.org/Graphics/SVG/1.1/DTD/svg11.dtd">
<svg version="1.1" id="Layer_1" xmlns="http://www.w3.org/2000/svg" xmlns:xlink="http://www.w3.org/1999/xlink" x="0px" y="0px"
	 width="500px" height="500px" viewBox="0 0 500 500" style="enable-background:new 0 0 500 500;" xml:space="preserve">
<path d="M249.996,372.276c-88.936,0-172.711-43.503-224.081-116.368c-2.507-3.547-2.507-8.269,0-11.803
	c51.357-72.867,135.131-116.381,224.081-116.381c88.963,0,172.74,43.514,224.096,116.381c2.492,3.534,2.492,8.256,0,11.803
	C422.722,328.773,338.946,372.276,249.996,372.276z M46.945,250c47.836,63.878,123.197,101.793,203.051,101.793
	c79.868,0,155.242-37.915,203.065-101.793c-47.823-63.865-123.184-101.792-203.065-101.792
	C170.127,148.208,94.767,186.134,46.945,250z"/>
<path d="M249.996,333.521c-46.048,0-83.508-37.474-83.508-83.522c0-46.062,37.46-83.536,83.508-83.536
	c46.062,0,83.536,37.474,83.536,83.536C333.532,296.048,296.058,333.521,249.996,333.521z M249.996,186.948
	c-34.752,0-63.024,28.286-63.024,63.051c0,34.754,28.272,63.039,63.024,63.039c34.767,0,63.053-28.284,63.053-63.039
	C313.048,215.234,284.762,186.948,249.996,186.948z"/>
</svg>
