<?xml version="1.0" encoding="utf-8"?>
<!-- Generator: Adobe Illustrator 16.0.4, SVG Export Plug-In . SVG Version: 6.00 Build 0)  -->
<!DOCTYPE svg PUBLIC "-//W3C//DTD SVG 1.1//EN" "http://www.w3.org/Graphics/SVG/1.1/DTD/svg11.dtd">
<svg version="1.1" id="Layer_1" xmlns="http://www.w3.org/2000/svg" xmlns:xlink="http://www.w3.org/1999/xlink" x="0px" y="0px"
	 width="500px" height="500px" viewBox="6 6 500 500" enable-background="new 6 6 500 500" xml:space="preserve">
<title></title>
<g id="icomoon-ignore">
</g>
<path d="M399.406,79.5H112.594C94.392,79.5,79.5,94.392,79.5,112.594v286.812c0,18.202,14.892,33.094,33.094,33.094h286.812
	c18.202,0,33.094-14.892,33.094-33.094V112.594C432.5,94.392,417.608,79.5,399.406,79.5z M322.188,134.656
	c0-6.067,4.964-11.031,11.031-11.031h44.125c6.067,0,11.031,4.964,11.031,11.031v44.125c0,6.067-4.964,11.031-11.031,11.031h-44.125
	c-6.067,0-11.031-4.964-11.031-11.031V134.656z M256,189.812c36.541,0,66.188,29.646,66.188,66.188S292.541,322.188,256,322.188
	S189.812,292.541,189.812,256S219.459,189.812,256,189.812z M388.375,377.344L388.375,377.344c0,6.067-4.964,11.031-11.031,11.031
	H134.656c-6.067,0-11.031-4.964-11.031-11.031l0,0V233.938h24.269c-1.448,7.101-2.207,14.479-2.207,22.062
	c0,60.948,49.365,110.312,110.312,110.312c60.948,0,110.312-49.364,110.312-110.312c0-7.584-0.758-14.961-2.206-22.062h24.269
	V377.344z"/>
</svg>
