<?xml version="1.0" encoding="utf-8"?>
<!-- Generator: Adobe Illustrator 16.0.4, SVG Export Plug-In . SVG Version: 6.00 Build 0)  -->
<!DOCTYPE svg PUBLIC "-//W3C//DTD SVG 1.1//EN" "http://www.w3.org/Graphics/SVG/1.1/DTD/svg11.dtd">
<svg version="1.1" id="Layer_1" xmlns="http://www.w3.org/2000/svg" xmlns:xlink="http://www.w3.org/1999/xlink" x="0px" y="0px"
	 width="500px" height="500px" viewBox="0 0 500 500" style="enable-background:new 0 0 500 500;" xml:space="preserve">
<path d="M396.605,236.936L117.403,87.423c-4.593-2.461-10.152-2.336-14.614,0.349c-4.468,2.684-7.208,7.51-7.208,12.721v299.015
	c0,5.213,2.74,10.042,7.208,12.725c2.337,1.398,4.974,2.104,7.617,2.104c2.404,0,4.809-0.579,6.997-1.756l279.202-149.503
	c4.803-2.577,7.813-7.606,7.813-13.07C404.419,244.543,401.408,239.514,396.605,236.936z M125.231,374.75V125.253l232.955,124.753
	L125.231,374.75z"/>
</svg>
