<?xml version="1.0" encoding="utf-8"?>
<!-- Generator: Adobe Illustrator 16.0.4, SVG Export Plug-In . SVG Version: 6.00 Build 0)  -->
<!DOCTYPE svg PUBLIC "-//W3C//DTD SVG 1.1//EN" "http://www.w3.org/Graphics/SVG/1.1/DTD/svg11.dtd">
<svg version="1.1" id="Layer_1" xmlns="http://www.w3.org/2000/svg" xmlns:xlink="http://www.w3.org/1999/xlink" x="0px" y="0px"
	 width="500px" height="500px" viewBox="0 0 500 500" style="enable-background:new 0 0 500 500;" xml:space="preserve">
<g>
	<path d="M241.144,427.868c-0.012,0-0.06,0-0.06,0c-8.995-0.018-17.44-3.537-23.782-9.915c-6.341-6.372-9.826-14.829-9.808-23.817
		c0.03-18.522,15.139-33.596,33.674-33.596c18.624,0.048,33.686,15.182,33.65,33.738C274.781,412.8,259.673,427.868,241.144,427.868
		z M241.191,378.9c-8.451,0-15.325,6.85-15.336,15.271c-0.006,4.087,1.578,7.931,4.459,10.835c2.887,2.894,6.718,4.495,10.794,4.501
		l0.036,9.181v-9.181c8.428,0,15.302-6.85,15.313-15.266C256.47,385.803,249.619,378.924,241.191,378.9z"/>
	<path d="M301.893,97.152c-15.814-15.892-36.818-24.747-59.208-24.996c-0.314-0.023-0.633-0.03-0.955-0.018
		c-25.916,0-50.08,11.612-66.325,31.875c-3.168,3.956-2.534,9.736,1.422,12.909c1.698,1.357,3.724,2.015,5.738,2.015
		c2.689,0,5.355-1.178,7.171-3.437c12.737-15.893,31.678-25.002,51.993-25.002c0.013,0.002,0.029,0.001,0.045,0.001
		c0.033,0,0.065,0.005,0.099,0.005c17.776,0.043,34.475,6.999,47.002,19.599c12.54,12.6,19.412,29.328,19.377,47.109
		c-0.036,17.77-6.993,34.457-19.593,46.996c-12.562,12.497-29.226,19.377-46.942,19.377c-0.048,0-0.108,0-0.155,0
		c-2.307,0.12-4.776,0.956-6.503,2.672c-1.722,1.722-2.696,4.053-2.702,6.49l-0.191,85.948c-0.006,5.08,4.183,9.812,9.18,9.198
		c5.056,0,9.169-4.095,9.182-9.162l0.167-77.252c19.21-2.008,37.032-10.441,50.91-24.26c16.077-16,24.959-37.295,25.007-59.966
		C326.66,134.573,317.887,113.229,301.893,97.152z"/>
</g>
</svg>
