<?xml version="1.0" encoding="utf-8"?>
<!-- Generator: Adobe Illustrator 21.0.2, SVG Export Plug-In . SVG Version: 6.00 Build 0)  -->
<svg version="1.1" id="Layer_1" xmlns="http://www.w3.org/2000/svg" xmlns:xlink="http://www.w3.org/1999/xlink" x="0px" y="0px"
	 viewBox="0 0 500 500" style="enable-background:new 0 0 500 500;" xml:space="preserve">
<g>
	<path d="M180.7,207.1c0.5,0.3,1.1,0.4,1.7,0.4c1.4,0,2.8-0.8,3.5-2.2c7.8-16,17.3-31.4,28.1-46c3.1-4.1,6.2-8,10.4-10.6
		c4.3-2.7,9.7-3.5,13.6-2.1c3.5,1.3,6.3,4.2,8.7,7.2c13.3,15.7,24,28.4,31.8,45.8c-0.9,0.3-1.9,0.6-3,0.9c-3.8,1.1-8,2.4-11.3,4.7
		c-2.3,1.6-3.3,4.4-2.6,6.8c0.5,1.6,1.6,2.7,2.2,3.2c5.7,5.2,12.3,11.2,19.5,16c1.6,1.1,3.5,2.2,5.8,2.7c0.7,0.1,1.4,0.2,2.1,0.2
		c2.4,0,4.7-0.9,6.2-2.4c1.3-1.3,1.9-2.8,2.2-3.8c2.9-7.8,6.3-16.6,6.2-25.7c0-1.1,0-4.2-2.4-6.2c-3-2.7-7.2-1.6-8.8-1.2
		c0,0,0,0,0,0c-3,0.8-6,1.6-8.9,2.5c-8.3-18.9-20-32.7-33.3-48.5c-3-3.6-6.7-7.6-12-9.5c-6.2-2.2-13.9-1.2-20.3,2.7
		c-5.4,3.3-9.1,8-12.5,12.5c-11.2,14.9-20.9,30.8-28.9,47.2C177.9,203.9,178.7,206.2,180.7,207.1z M296.8,202.4
		c0.7-0.2,1.1-0.3,1.5-0.3c0,0.1,0,0.2,0,0.3c0.1,7.7-2.9,15.4-5.7,22.9c-0.1,0.4-0.4,1-0.5,1.1c-0.1,0.1-0.6,0.2-1.2,0.1
		c-1-0.2-2-0.9-3.1-1.6c-6.3-4.3-12-9.3-17.5-14.3c2.1-1.1,4.9-1.9,7.5-2.6c1.1-0.3,2.2-0.7,3.2-1
		C286.2,205.3,291.5,203.8,296.8,202.4z"/>
	<path d="M188.2,343.1c-4.8-0.3-13.4-0.5-21.8-0.7c-8.2-0.2-16.8-0.4-21.4-0.7c-4-0.3-8.3-0.8-10.2-2.9c-1.3-1.4-1.4-3.9-0.4-7.8
		c3-11.4,19.9-58.5,27.1-72.2c0.8-1.4,1.1-1.7,1.2-1.7c0.1,0,0.7-0.1,2.9,0.4c3.3,0.7,6.5,1.4,9.8,2.2c2.1,0.5,4.3,1,6.4,1.4
		c0.7,0.1,1.7,0.4,2.8,0.4c1.1,0,2.3-0.2,3.5-0.9c1.8-1.1,4.4-3.8,1.6-9.8c-1.9-3.9-2.3-8.3-2.8-13c-0.4-4-0.9-8.1-2.2-12.1
		c-1.2-3.5-3.1-5.7-5.7-6.6c-4.3-1.4-8.5,1.6-11.8,4c-0.7,0.5-1.4,1-2,1.4l-22.1,14.4c-1.8,1.2-5.5,3.6-5.4,7.8
		c0,0.8,0.2,1.5,0.7,2.2c2.2,3.1,6.1,4,8.5,4.6l7.9,1.8c0,0,0,0,0,0c0,0,0,0,0,0c-7.6,14.3-24.6,61.9-27.8,73.9
		c-0.7,2.7-2.6,9.8,2.1,15c3.8,4.2,10,5,15.4,5.4c4.8,0.3,13.4,0.5,21.8,0.7c8.2,0.2,16.8,0.4,21.4,0.7c0.1,0,0.2,0,0.3,0
		c2,0,3.7-1.6,3.8-3.6C191.9,345.1,190.3,343.3,188.2,343.1z M148.5,245.8c-0.5-0.1-1-0.2-1.4-0.4c0.1,0,0.1-0.1,0.2-0.1l22.1-14.4
		c0.7-0.5,1.5-1,2.3-1.6c1.2-0.9,3.8-2.7,4.8-2.9c0.1,0.2,0.4,0.6,0.8,1.6c1.1,3.3,1.5,6.8,1.9,10.6c0.5,4.8,1.1,9.8,3.2,14.7
		c-1.8-0.4-3.5-0.8-5.3-1.2c-3.3-0.7-6.6-1.5-9.8-2.2c-1.6-0.3-3-0.5-4.2-0.5c0,0-0.1,0-0.1,0c-0.5-0.4-1-0.7-1.6-0.8L148.5,245.8z"
		/>
	<path d="M308.1,246.7c-0.3-2.1-2.2-3.6-4.3-3.4c-2.1,0.3-3.6,2.2-3.4,4.3c0.3,2.4,6.5,29.1,18.5,79.5c1,4.2,0.1,8.6-2.5,12
		c-2.6,3.5-6.5,5.6-10.8,5.8c-4.6,0.3-30.7,1.4-46.8,2.1c-0.2,0-0.4-0.1-0.6,0c-0.4,0-1.4,0-2.4-0.1c-2.4-0.1-4.3-0.1-5.9-0.1
		l-0.6-13c-0.1-2.5-0.4-9.1-6-10.6c-3.7-1-7.1,1.5-9.4,3.2c-0.5,0.4-1,0.7-1.3,0.9c-4.9,2.9-10,5.7-14.9,8.5
		c-2.5,1.4-5.1,2.8-7.6,4.3c-1.4,0.8-3.2,1.8-4.4,3.8c-1.6,2.7-1.2,6.3,1,9.1c1.5,1.9,3.5,3.2,5.3,4.3l23.8,14.9
		c1.1,0.7,3.4,2.1,6,2.1c0.7,0,1.5-0.1,2.2-0.4c1.3-0.4,2.4-1.2,3.4-2.4c3.4-3.9,3.1-8.9,3-12.2c0-0.6-0.1-1.3-0.2-2.1
		c-0.1-0.5-0.2-1.4-0.2-2.1c12.5-0.5,50.5-2.1,56.1-2.5c6.6-0.4,12.6-3.7,16.5-8.9c3.9-5.3,5.3-12,3.8-18.4
		C310.3,257.8,308.2,247.9,308.1,246.7z M241.7,366.6C241.7,366.6,241.7,366.6,241.7,366.6c-0.3,0-0.8-0.2-1.8-0.9l-23.8-14.9
		c-1.3-0.8-2.6-1.6-3.3-2.5c-0.1-0.2-0.2-0.4-0.3-0.5c0.3-0.3,1-0.7,1.4-0.9c2.5-1.4,5-2.8,7.6-4.3c5-2.8,10.1-5.6,15.1-8.5
		c0.6-0.4,1.3-0.8,2-1.3c0.7-0.5,2-1.4,2.8-1.8c0.2,0.6,0.4,1.7,0.4,3.3l0.8,17.3c0,0.1,0,0.2,0,0.4c-0.4,2-0.1,4.3,0.2,6.3
		c0.1,0.6,0.2,1.1,0.2,1.5C242.9,362.7,242.9,365.1,241.7,366.6z"/>
	<path d="M169.7,175.3c0.6,0.3,1.1,0.4,1.7,0.4c1.4,0,2.8-0.8,3.4-2.1c5.3-10.6,12-20.6,19.9-29.5c1.4-1.6,1.2-4-0.4-5.4
		c-1.6-1.4-4-1.2-5.4,0.4c-8.3,9.4-15.4,19.9-21,31.2C167.1,172.1,167.8,174.4,169.7,175.3z"/>
	<path d="M171.7,139.5c0.6,0.4,1.3,0.6,2,0.6c1.3,0,2.6-0.7,3.3-1.9c5.1-8.4,14-14.6,23.7-16.4c2.1-0.4,3.5-2.4,3.1-4.5
		c-0.4-2.1-2.4-3.5-4.5-3.1c-11.8,2.2-22.6,9.7-28.8,20C169.3,136.1,169.9,138.4,171.7,139.5z"/>
	<path d="M355,314c-0.5-2.1-2.6-3.3-4.7-2.8c-2.1,0.5-3.3,2.6-2.8,4.7c4.6,18-1.3,38.7-14.8,51.5c-1.5,1.5-1.6,3.9-0.1,5.5
		c0.8,0.8,1.8,1.2,2.8,1.2c1,0,1.9-0.4,2.7-1.1C353.7,358.2,360.3,335,355,314z"/>
	<path d="M371.9,356.7c-1.9-0.9-4.2-0.1-5.1,1.8c-3.9,8.1-9.9,15.2-17.3,20.3c-1.7,1.2-2.2,3.6-1,5.4c0.7,1.1,1.9,1.7,3.2,1.7
		c0.8,0,1.5-0.2,2.2-0.7c8.5-5.9,15.4-14,19.8-23.3C374.6,359.9,373.8,357.6,371.9,356.7z"/>
	<path d="M291.3,321.6c-0.8,0.4-2,0.5-3.3,0.7l-9.8,0.9c-2.1,0.2-3.7,2.1-3.5,4.2c0.2,2,1.9,3.5,3.8,3.5c0.1,0,0.2,0,0.4,0l9.8-0.9
		c1.8-0.2,4.1-0.4,6.3-1.6c3-1.7,5.1-4.9,5.7-8.8c0.4-2.9,0-5.7-0.4-8.5c-1.9-11.1-4.7-22.2-8.3-33c-0.7-2-2.8-3.1-4.9-2.5
		c-2,0.7-3.1,2.8-2.5,4.9c3.4,10.4,6.1,21.1,8,31.9c0.4,2.2,0.7,4.2,0.4,6C292.9,319.9,292.2,321.1,291.3,321.6z"/>
</g>
</svg>
