<?xml version="1.0" encoding="utf-8"?>
<!-- Generator: Adobe Illustrator 21.0.2, SVG Export Plug-In . SVG Version: 6.00 Build 0)  -->
<svg version="1.1" id="Layer_1" xmlns="http://www.w3.org/2000/svg" xmlns:xlink="http://www.w3.org/1999/xlink" x="0px" y="0px"
	 viewBox="0 0 500 500" style="enable-background:new 0 0 500 500;" xml:space="preserve">
<path d="M459.6,312.5c-1.5-1-3.5-0.6-4.4,0.9c-39.5,60.1-106.4,89.9-166.5,74.2c-11.8-3.1-18.7-8.2-21.8-15.9
	c15.9,5,33.4,7.2,47.6,7.2c7.5,0,14.1-0.6,19.1-1.8c1.7-0.4,2.8-2.1,2.4-3.9c-0.4-1.7-2.1-2.8-3.9-2.4c-14.7,3.5-56.1,1.9-82.8-13.6
	c-4.3-2.5-9.1-5.6-12.6-10.4c-3.1-4.2-4.9-9.4-4.9-14.3c1.5,0.7,3.1,1.4,4.8,2c29.8,11.3,54.5,17.4,77.6,19.2c0.1,0,0.2,0,0.2,0
	c1.7,0,3.1-1.3,3.2-3c0.1-1.8-1.2-3.3-3-3.4c-22.5-1.7-46.6-7.6-75.8-18.8c-14.1-5.3-17-11.3-17-16c0,0,0-0.1,0-0.1
	c0-1.1,0.2-2.1,0.4-3c1.1-4.6,4-8.3,17.8-5.1c7.3,1.7,14.1,3.8,20.7,5.9c21.1,6.7,41,13,72.7,2c0,0,0,0,0,0c0.2-0.1,0.4-0.1,0.5-0.2
	c0.1,0,0.1-0.1,0.2-0.1c0.1-0.1,0.2-0.1,0.3-0.2c0.1-0.1,0.1-0.1,0.2-0.2c0.1-0.1,0.2-0.2,0.2-0.3c0-0.1,0.1-0.1,0.1-0.2
	c0.1-0.1,0.1-0.2,0.2-0.3c0-0.1,0.1-0.1,0.1-0.2c0.1-0.1,0.1-0.2,0.1-0.3c0-0.1,0.1-0.1,0.1-0.2c0,0,0,0,0-0.1c0-0.1,0-0.1,0-0.2
	c0-0.1,0-0.2,0-0.4c0-0.1,0-0.2,0-0.3c0-0.1,0-0.2,0-0.3c0-0.1-0.1-0.2-0.1-0.4c0-0.1,0-0.1,0-0.2c0,0,0,0,0,0
	c0-0.1-0.1-0.2-0.2-0.3c0-0.1-0.1-0.2-0.1-0.2c-0.1-0.1-0.1-0.2-0.2-0.3c-0.1-0.1-0.1-0.1-0.2-0.2c-0.1-0.1-0.2-0.2-0.3-0.2
	c-0.1-0.1-0.1-0.1-0.2-0.2c-0.1-0.1-0.2-0.1-0.3-0.2c-0.1,0-0.1-0.1-0.2-0.1c-0.1,0-0.2-0.1-0.3-0.1c-0.1,0-0.2-0.1-0.3-0.1
	c0,0,0,0-0.1,0c-0.3-0.1-33.6-7.8-49-14.4c-3.7-1.6-7.5-3.4-10.4-6.5c-3-3.3-4.6-8-4.1-12c1.1-8.9,10.6-10.9,15.5-10.8
	c13.6,0.5,32.7,5.7,48,9.8c3.4,0.9,6.6,1.8,9.6,2.6l2.7,0.7c19.7,5.2,49.6,13.2,77.5-22.8c1.1-1.4,0.8-3.4-0.6-4.5
	c-1.4-1.1-3.4-0.8-4.5,0.6c-25.3,32.7-51.6,25.7-70.7,20.6l-2.8-0.7c-3-0.8-6.2-1.6-9.5-2.6c-11.8-3.2-25.8-7-38.1-8.9
	c0.2-0.3,0.3-0.7,0.4-1c0.3-1.7-0.8-3.4-2.5-3.7c-0.5-0.3-1.3-1.8-1.8-2.8c-1.3-2.4-2.9-5.4-6.2-6c-1.5-0.3-2.9,0.1-3.8,0.4
	c-0.3,0.1-0.5,0.2-0.8,0.2c-1.4,0.3-3.3-0.7-5.3-1.7c-3.2-1.6-7.2-3.7-11.4-1.3c-1.1,0.6-2.1,1.5-2.9,2.3c-0.5,0.5-1.3,1.2-1.6,1.3
	c-0.3,0-1.2-0.6-1.7-1c-0.9-0.6-2-1.3-3.3-1.8c0.3-14,0.4-28.6,0.3-43.5c2.4-1.2,4.8-2.5,7.2-3.8c0.1,0.2,0.2,0.4,0.3,0.6
	c2.3,3.8,5.8,6.8,10,8.3c0.4,0.1,0.8,0.2,1.1,0.2c1.3,0,2.5-0.8,3-2.1c0.6-1.7-0.2-3.5-1.9-4.1c-2.8-1-5.2-3.1-6.7-5.6
	c-0.1-0.1-0.2-0.2-0.2-0.3c2.1-1.2,4.3-2.4,6.4-3.6c0,1,0.5,2,1.4,2.6l7.7,5.1c0.5,0.4,1.2,0.5,1.8,0.5c1,0,2.1-0.5,2.7-1.4
	c1-1.5,0.6-3.5-0.9-4.4l-7.7-5.1c0,0-0.1,0-0.1-0.1c2-1.2,4-2.4,5.9-3.6c0.2,0.2,0.4,0.5,0.6,0.7c3.6,2.8,7.5,5,11.8,6.7
	c0.4,0.1,0.8,0.2,1.2,0.2c1.3,0,2.5-0.8,3-2c0.6-1.7-0.2-3.5-1.8-4.2c-3.2-1.3-6.2-2.9-9-4.9c2.4-1.6,4.8-3.1,7.2-4.7
	c0.4,0.5,0.8,0.8,1.4,1c3.6,1.3,7,3.1,10,5.3c0.6,0.4,1.2,0.6,1.9,0.6c1,0,2-0.5,2.6-1.3c1-1.4,0.7-3.4-0.7-4.5
	c-2.9-2.1-6-3.8-9.3-5.2c4.9-3.4,9.8-6.9,14.6-10.5c1.4-1.1,1.7-3.1,0.6-4.5c-1.1-1.4-3.1-1.7-4.5-0.6c-2.8,2.1-5.7,4.2-8.5,6.2
	l-0.1-15.4c0-1.8-1.4-3.2-3.2-3.2c0,0,0,0,0,0c-1.8,0-3.2,1.5-3.2,3.2l0.2,18.5c0,0.4,0.1,0.8,0.2,1.2c-3.2,2.2-6.4,4.4-9.7,6.5
	c0-0.1,0-0.1,0-0.2c-0.2-5.2-0.2-10.4,0.2-15.6c0.1-1.8-1.2-3.3-3-3.4c-1.8-0.1-3.3,1.2-3.4,3c-0.4,5.4-0.5,10.9-0.2,16.4
	c0.1,1.2,0.8,2.3,1.9,2.8c-3.4,2.1-6.8,4.2-10.2,6.3c0-0.3,0-0.6,0-0.9c-0.9-4.2-0.9-8.6-0.1-12.8c0.3-1.7-0.8-3.4-2.5-3.8
	c-1.7-0.3-3.4,0.8-3.8,2.5c-1,5-0.9,10.3,0.1,15.3c0.2,1,0.9,1.8,1.8,2.2c-5.3,3-10.6,6-15.9,8.8c-0.1-9.7-0.2-19.4-0.4-29.1
	l8.9-7.6c1.3-1.2,1.5-3.2,0.3-4.5c-1.2-1.3-3.2-1.5-4.5-0.3l-4.6,4c0.7-1.2,0.5-2.7-0.4-3.8c0-1.3-0.1-2.5-0.1-3.8
	c4-3,8.4-5.6,13-7.6c1.6-0.7,2.3-2.6,1.6-4.2c-0.7-1.6-2.6-2.3-4.2-1.6c-3.7,1.6-7.2,3.6-10.6,5.8c-0.1-3.4-0.2-6.7-0.3-10.1
	l9.6-6.8c1.4-1,1.8-3,0.8-4.5c-1-1.4-3-1.8-4.5-0.8l-6.2,4.4c-0.1-3.2-0.3-6.4-0.4-9.5l10-9c1.3-1.2,1.4-3.2,0.2-4.5
	c-1.2-1.3-3.2-1.4-4.5-0.2l-6.1,5.5c-0.1-2.3-0.2-4.5-0.3-6.7l7.9-8.8c1.2-1.3,1.1-3.4-0.3-4.5c-1.3-1.2-3.3-1.1-4.5,0.3l-3.6,4.1
	c-0.2-3.4-0.4-6.7-0.6-9.9c-0.1-1.8-1.7-3.1-3.4-3c-1.8,0.1-3.1,1.6-3,3.4c0.3,3.9,0.5,7.8,0.7,11.9l-8.8-7.5
	c-1.4-1.1-3.4-1-4.5,0.4c-1.1,1.4-1,3.4,0.4,4.5l13.4,11.4c0.2,2.9,0.3,5.7,0.4,8.7l-11.8-9.5c-1.4-1.1-3.4-0.9-4.5,0.5
	c-1.1,1.4-0.9,3.4,0.5,4.5l13,10.5c0.6,0.5,1.3,0.7,2,0.7c0.4,0,0.7-0.1,1.1-0.2c0.2,4.5,0.4,9.1,0.6,13.8l-12.9-11.5
	c-1.3-1.2-3.4-1.1-4.5,0.3c-1.2,1.3-1.1,3.4,0.3,4.5l16.6,14.7c0.3,0.2,0.6,0.4,0.9,0.6c0.1,3.1,0.2,6.3,0.3,9.5
	c-4.6-3-9.4-6-14.1-8.7c-1.5-0.9-3.5-0.4-4.4,1.2c-0.9,1.5-0.4,3.5,1.2,4.4c6,3.5,11.8,7.2,17.6,11c0.2,7.1,0.3,14.2,0.4,21.3
	l-13-6.4c0-0.3,0-0.7-0.1-1.1c-1.1-3.2-1.4-6.7-0.9-10.1c0.2-1.8-1-3.4-2.8-3.6c-1.8-0.2-3.4,1-3.6,2.8c-0.4,2.7-0.3,5.6,0.1,8.3
	l-5.3-2.6c0.3-0.6,0.4-1.2,0.3-1.9c-0.5-3.4-0.7-6.8-0.6-10.2c0.1-1.8-1.3-3.3-3.1-3.3c-1.8-0.1-3.3,1.3-3.3,3.1
	c-0.1,3.1,0,6.2,0.4,9.2l-5.7-2.8c0.2-0.6,0.3-1.3,0.1-2c-1-3.8-1.4-7.8-1.2-11.7c0.1-1.8-1.2-3.3-3-3.4c-1.8-0.1-3.3,1.2-3.4,3
	c-0.2,3.6,0,7.3,0.7,10.8l-2.5-1.3c-1.6-0.8-3.5-0.1-4.3,1.4c-0.8,1.6-0.1,3.5,1.4,4.3l3.4,1.7c-3.5,1.7-6.8,4.1-9.4,7
	c-1.2,1.3-1.1,3.3,0.2,4.5c0.6,0.6,1.4,0.8,2.2,0.8c0.9,0,1.7-0.4,2.4-1c3.2-3.5,7.4-6,12-7.2c0.2-0.1,0.4-0.1,0.6-0.2l3.2,1.6
	c-3.4,1.8-6.4,4.5-8.6,7.8c-1,1.5-0.5,3.5,1,4.4c0.5,0.3,1.1,0.5,1.7,0.5c1.1,0,2.1-0.5,2.7-1.5c2.3-3.6,6-6.2,10.1-7.1
	c0.3-0.1,0.6-0.2,0.8-0.3l4.9,2.4c-3.3,1.8-6.4,4-9.2,6.7c-1.3,1.2-1.4,3.2-0.1,4.5c0.6,0.7,1.5,1,2.3,1c0.8,0,1.6-0.3,2.2-0.9
	c3.5-3.2,7.4-5.8,11.8-7.6c0.1,0,0.2-0.1,0.3-0.1l3.9,1.9c-3.1,2.2-5.8,4.9-8.1,7.9c-1,1.4-0.7,3.4,0.7,4.5c0.6,0.4,1.2,0.6,1.9,0.6
	c1,0,2-0.5,2.6-1.3c2.3-3.2,5.3-5.9,8.7-7.9c0.3-0.2,0.5-0.4,0.7-0.6l3.8,1.9c0.4,0.2,0.9,0.3,1.3,0.3c0.2,20.9,0.2,41.7-0.2,61.1
	c-0.1,0-0.1,0.1-0.2,0.1c-0.6,0.2-1.2,0.4-1.7,0.5c-1.3,0.3-3,0-4.8-0.4c-3.5-0.7-7.8-1.5-11.4,2c-0.2,0.2-0.4,0.4-0.5,0.6
	c-3.7,0.1-7.2,0.5-10,1.3c-5.1-0.2-7.2,2.3-10.7,7c-0.7,0.9-1.4,1.9-2.2,2.9c-13.4,1.5-29.8,5.9-43.3,9.6c-3.4,0.9-6.6,1.8-9.5,2.6
	l-2.8,0.7c-19.2,5.1-45.4,12.1-70.7-20.6c-1.1-1.4-3.1-1.7-4.5-0.6c-1.4,1.1-1.7,3.1-0.6,4.5c27.9,36,57.7,28.1,77.5,22.8l2.7-0.7
	c3-0.8,6.2-1.7,9.6-2.6c15.3-4.2,34.4-9.3,48-9.8c4.9-0.1,14.3,1.9,15.5,10.8c0.5,4-1.1,8.7-4.1,12c-2.9,3.2-6.7,5-10.4,6.5
	c-15.4,6.6-48.7,14.3-49,14.4c0,0,0,0-0.1,0c-0.1,0-0.2,0.1-0.3,0.1c-0.1,0-0.2,0.1-0.3,0.1c-0.1,0-0.2,0.1-0.3,0.2
	c-0.1,0.1-0.2,0.1-0.3,0.2c-0.1,0.1-0.2,0.1-0.2,0.2c-0.1,0.1-0.2,0.1-0.2,0.2c-0.1,0.1-0.1,0.2-0.2,0.2c-0.1,0.1-0.1,0.2-0.2,0.3
	c0,0.1-0.1,0.2-0.1,0.2c-0.1,0.1-0.1,0.2-0.2,0.3c0,0,0,0,0,0c0,0.1,0,0.1,0,0.2c0,0.1-0.1,0.2-0.1,0.4c0,0.1,0,0.2,0,0.3
	c0,0.1,0,0.2,0,0.3c0,0.1,0,0.3,0,0.4c0,0.1,0,0.1,0,0.2c0,0,0,0,0,0.1c0,0.1,0,0.2,0.1,0.2c0,0.1,0.1,0.2,0.1,0.3
	c0,0.1,0.1,0.1,0.1,0.2c0.1,0.1,0.1,0.2,0.2,0.3c0,0.1,0.1,0.1,0.1,0.2c0.1,0.1,0.2,0.2,0.2,0.3c0.1,0.1,0.1,0.1,0.2,0.2
	c0.1,0.1,0.2,0.1,0.3,0.2c0.1,0,0.1,0.1,0.2,0.1c0.2,0.1,0.3,0.2,0.5,0.2c0,0,0,0,0,0c11.6,4,22,5.9,32.5,5.9
	c5.8,0,11.6-0.6,17.6-1.8c1.1,4.8,4.4,9,9.7,12.6c0,0.1-0.1,0.2-0.1,0.3c-0.4,3.4-0.1,7,0.8,10.4c-14.8,4-28.5,6.5-41.7,7.5
	c-1.8,0.1-3.1,1.7-3,3.4c0.1,1.7,1.5,3,3.2,3c0.1,0,0.2,0,0.2,0c13.8-1,28-3.6,43.5-7.9c0.8,1.7,1.8,3.3,2.9,4.8
	c4,5.4,9.1,8.9,13.7,11.7c-27,13.8-64.4,11.8-77.9,8.6c-1.7-0.4-3.5,0.7-3.9,2.4c-0.4,1.7,0.7,3.5,2.4,3.9
	c6.5,1.5,15.6,2.5,25.7,2.5c12.5,0,26.6-1.5,39.7-5.2c-3.5,6.2-10.1,10.5-20.5,13.2c-60.1,15.7-127-14.1-166.5-74.2
	c-1-1.5-3-1.9-4.4-0.9c-1.5,1-1.9,3-0.9,4.4c33.7,51.3,86.7,81.2,139.3,81.2c11.5,0,22.9-1.4,34.2-4.4c8.8-2.3,21.1-6.9,26.1-19.8
	c0.3-0.6,0.3-1.3,0.1-1.9c4.6-1.7,9.1-3.7,13.1-6c0.1,0,0.1-0.1,0.2-0.1c3.3,1.6,6.7,3,10.2,4.3c-1.3,0.8-1.8,2.4-1.3,3.9
	c5.1,13,17.4,17.5,26.1,19.8c11.2,2.9,22.7,4.4,34.2,4.4c52.6,0,105.6-30,139.3-81.2C461.5,315.5,461.1,313.5,459.6,312.5z
	 M195.6,311.7c-4.9-0.2-10.3-0.9-16.2-2.2c4.6-1.2,10.2-2.6,15.8-4.3C194.7,308.1,194.9,310.2,195.6,311.7z M279.8,309.1
	c1.9-3.3,3.9-6.6,5.7-9.9c10.2,3.9,24.5,7.8,34.5,10.3C304.3,313.1,291.9,312,279.8,309.1z"/>
</svg>
