<?xml version="1.0" encoding="utf-8"?>
<!-- Generator: Adobe Illustrator 21.0.2, SVG Export Plug-In . SVG Version: 6.00 Build 0)  -->
<svg version="1.1" id="Layer_1" xmlns="http://www.w3.org/2000/svg" xmlns:xlink="http://www.w3.org/1999/xlink" x="0px" y="0px"
	 viewBox="0 0 500 500" style="enable-background:new 0 0 500 500;" xml:space="preserve">
<g>
	<path d="M206,352.5c-0.2-1.8-0.5-3.6-1.3-5.3c-0.7-1.4-1.7-2.5-3.3-2.9c-1.4-0.4-2.8-0.5-4.2-0.3c-4.3,0.6-8.5,1.2-12.8,1.8
		c-0.3,0-0.7,0.1-1.1,0.1c0-0.1,0-0.2,0-0.3c0-3.1-0.1-6.1-0.1-9.2c0-3.6-0.1-7.2,0-10.8c0-3.2,0.1-6.5,0.2-9.7
		c0.1-3.7,0.2-7.4,0.3-11.2c0.1-3.7,0.3-7.3,0.3-11c0-4.2-0.1-8.3-0.1-12.5c0-1.6,0.8-2.4,2.4-2.2c2.5,0.3,5,0.6,7.6,0.9
		c1.5,0.1,2.9,0.2,4.4,0.2c1.4,0,2.6-0.6,3.2-2c0.3-0.6,0.4-1.3,0.5-2c0.2-2.1,0.3-4.2,0.4-6.3c0.1-3,0.3-6.1,0.3-9.1
		c0-3.8,0-7.5-0.1-11.3c-0.1-4-0.3-8-0.4-12.1c-0.1-3.5-0.3-6.9-0.4-10.4c-0.1-2-1.2-3.2-3.1-3.5c-1.9-0.3-3.5,0.6-4.1,2.5
		c-0.4,1.3-0.4,2.7-0.3,4.1c0.3,2.4,0.6,4.9,0.9,7.3c0.4,4.6,0.6,9.2,0.5,13.8c0,3.3-0.1,6.6-0.1,9.9c0,2.7-0.1,5.5-0.1,8.2
		c0,2.3-1.2,3.5-3.4,3.3c-1-0.1-1.9-0.3-2.9-0.5c-4-0.6-8-1.3-12-1.9c-2.5-0.3-5-0.3-7.5,0.2c-2,0.3-4,0.7-6,0.6
		c-1.8-0.1-3.6-0.1-5.4-0.2c-0.7,0-1.3,0-2-0.1c0-0.1-0.1-0.1-0.1-0.1c0.1-2.7,0.1-5.4,0.2-8.1c0.1-3.4,0.2-6.8,0.4-10.1
		c0.1-1.8,0.3-3.6,0.6-5.4c0.6-3.4,1.1-6.7,1.3-10.2c0.1-2,0.2-4,0.2-6c0-2,0-4.1-0.1-6.1c0-0.9-1.1-2-1.9-2.1
		c-1.4-0.2-2.8,0.6-3.4,1.9c-0.3,0.6-0.5,1.1-0.6,1.7c-0.3,1.9-0.7,3.9-0.9,5.8c-0.3,3-0.6,6.1-0.9,9.1c-0.2,2.3-0.4,4.6-0.6,6.9
		c-0.2,3-0.4,6.1-0.7,9.1c-0.2,2.7-0.4,5.3-0.6,8c-0.2,2.9-0.4,5.8-0.7,8.7c-0.1,1.7,0.4,2.6,2,3.1c1.4,0.5,2.3,1.5,2.4,3
		c0.1,0.8,0,1.7,0,2.5c0,2.1-0.1,4.3-0.2,6.4c-0.1,2.1-0.1,4.3-0.2,6.4c-0.1,2.1-0.1,4.2-0.2,6.3c-0.1,2.4-0.1,4.7-0.2,7.1
		c-0.1,2.1-0.1,4.2-0.2,6.3c-0.1,2.4-0.1,4.7-0.2,7.1c-0.1,2.1-0.1,4.3-0.2,6.4c-0.1,2.1-0.2,4.2-0.3,6.3c-0.1,1.9-0.2,3.9-0.3,5.8
		c-0.1,1.1-0.1,2.3-0.3,3.4c-0.2,1.1-0.9,1.9-1.9,2.2c-0.6,0.2-1.2,0.3-1.9,0.3c-2.7,0.1-5.4,0.3-8.1,1c-3.6,1-7,2.4-10.3,3.9
		c-1.3,0.6-2.2,2.2-2,3.7c0.3,2.6,1.6,4.7,3.4,6.6c0.8,0.9,1.8,1.4,3,1.6c0.4,0,0.8,0.2,1.2,0.2c3,0.6,5.9,0.9,9,0.8
		c4.9-0.2,9.8-1.1,14.6-2c1.9-0.3,3.4-1.3,3.9-3.2c0.3-1,0.4-2,0.5-3c0.1-2.3-0.5-4.5-1.8-6.4c-1.2-1.8-1.3-3.9-1.3-5.9
		c0-1.9,0.1-3.7,0.1-5.6c0-2.2,0.1-4.4,0.1-6.7c0-2.3,0.1-4.6,0.1-6.9c0-2.3,0.1-4.5,0.1-6.8c0-2.3,0.1-4.5,0.1-6.8
		c0-2.2,0.1-4.5,0.1-6.7c0-2.2,0.1-4.5,0.1-6.7c0-2.4,0.1-4.7,0.1-7.1c0-2.5,0.1-4.9,0.1-7.4c0-1,0-2.1,0.3-3
		c0.2-1.1,0.8-1.7,2.1-1.8c3.3-0.2,6.6-0.6,9.9-0.9c1.2-0.1,2.3-0.2,3.5-0.3c0,0.4,0,0.7,0.1,1c0.2,3.1,0.3,6.3,0.2,9.4
		c-0.1,2.2-0.1,4.4-0.1,6.6c0,2.3-0.1,4.5-0.1,6.8c0,2.3-0.1,4.5-0.1,6.8c0,2.2-0.1,4.5-0.1,6.7c0,2.3-0.1,4.6-0.1,6.9
		c0,2.3-0.1,4.5-0.1,6.8c0,2.3-0.1,4.5-0.1,6.8c0,2.3-0.1,4.5-0.1,6.8c0,2.5-0.1,4.9-0.1,7.4c0,2-0.1,4-0.2,6
		c-0.1,1.3-0.2,2.6-0.2,3.8c0,2.1,1,3.4,3,4.2c1.6,0.6,3.3,0.7,5,0.8c2,0.2,4,0.4,6,0.7c2.5,0.4,5,0.9,7.6,0.9
		c3.7-0.1,6.9-1.4,9.5-4c0.8-0.8,1-1.8,0.9-2.8C206.4,356.4,206.2,354.5,206,352.5z M154.1,354.4c0,0.1-0.2,0.3-0.3,0.3
		c-4,1-7.9,2.3-12,2.9c-1.4,0.2-2.6-0.1-3.9-0.5c-0.8-0.2-1.7-0.5-2.5-0.8c-0.2-0.8,0.1-1.2,0.8-1.6c2.3-1.3,4.7-1.8,7.3-2.2
		c2.5-0.3,4.9-0.3,7.4-0.3c0.7,0,1.4,0,2,0.1C153.8,352.6,154.3,353.5,154.1,354.4z M199,355.9c-0.1,1.3-0.8,2-2.1,2.2
		c-1.2,0.2-2.4,0.2-3.6,0.3c-0.2,0-0.4,0-0.7,0c0-0.2,0-0.4,0-0.6c-1-0.1-2.1-0.1-3.1-0.2c-1.6-0.2-3.3-0.3-4.9-0.7
		c-1.3-0.3-2.1-1.3-2.4-2.7c-0.1-0.6,0.1-1,0.7-1.2c0.3-0.1,0.6-0.2,1-0.3c4.2-0.6,8.4-1.2,12.6-1.7c0.2,0,0.3,0,0.5,0
		c1.2-0.1,1.9,0.4,2,1.6C199,353.7,199.1,354.8,199,355.9z"/>
	<path d="M188.3,152.6c1.3-0.2,2.1-1.1,2.3-2.4c0-0.1,0-0.3,0-0.6c-0.2-1.6-1.6-2.6-3.3-2.3c-5.7,0.9-11.5,1.6-17.3,1.9
		c-2.2,0.1-4.4,0.1-6.6,0.2c-1.5,0.1-2.6,1.4-2.5,2.9c0.1,1.4,1.3,2.6,2.7,2.6c4.4-0.2,8.8-0.3,13.2-0.7
		C180.6,153.7,184.4,153.1,188.3,152.6z"/>
	<path d="M350.7,227.9c0-4-0.4-7.9-1.4-11.8c-1.6-6.3-4.6-11.8-9.2-16.4c-5.4-5.2-12.1-7.5-19.4-8.3c-0.6-0.1-1.3-0.1-2-0.2
		c0.2-0.4,0.4-0.8,0.6-1.2c0.4-1,1-1.6,1.9-2.1c3.8-2.3,7-5.2,9.4-8.9c2-3.1,3.3-6.5,3.9-10.2c0.2-1.4,0.3-2.8,0.4-4.3
		c0.1-0.8,0-1.6,0-2.4c0.7-0.2,1.5-0.3,2.2-0.5c1.9-0.5,3.3-1.6,4.1-3.4c0.3-0.8,0.3-1.7,0.3-2.5c0.1-2.5,0.2-4.9,0.1-7.4
		c0-2.4-1.2-3.6-3.5-4c-1.4-0.2-2.9-0.4-4.3-0.7c-0.2,0-0.4-0.2-0.6-0.4c-0.4-0.6-0.8-1.3-1.3-1.9c-4.1-5.5-9.3-9.6-15.9-12
		c-2.9-1.1-6-1.6-9.1-1.5c-6.5,0.3-12,2.8-16.4,7.5c-3.1,3.2-5.3,7-6.8,11.2c-0.1,0.3-0.3,0.5-0.6,0.7c-1.1,0.4-2.2,0.8-3.3,1.2
		c-1,0.4-1.8,1.1-2.1,2.1c-0.1,0.2-0.2,0.5-0.2,0.7c-0.1,0.7-0.2,1.4-0.3,2c0,0.4-0.1,0.7,0,1.1c0,2.7,0,5.3,0.1,8
		c0.1,1.9,1.6,3.4,3.6,3.4c1.4,0.1,2.8,0.2,4.3,0.3c0,0.1,0,0.3,0.1,0.4c0.2,1.1,0.2,2.3,0.5,3.4c1.9,7.5,6.2,13.4,12.7,17.6
		c1.2,0.7,1.9,1.7,2.3,2.9c0.5,1.6,0.5,1.9-1,2.6c-0.9,0.5-1.9,0.7-2.8,1c-2.1,0.6-4.3,1.1-6.5,1.2c-2.6,0.1-5.1,0.8-7.3,2.2
		c-1.9,1.2-3.6,2.6-5.1,4.3c0.1-3.3,0.2-6.6,0.2-9.8c0-3.3-0.4-6.7-1.2-9.9c-1.3-5.3-3.8-10-7.8-13.8c-4.6-4.4-10.2-6.4-16.4-7
		c-0.5-0.1-1.1-0.1-1.6-0.2c0.2-0.4,0.4-0.7,0.5-1c0.3-0.8,0.9-1.3,1.6-1.8c3.2-1.9,5.9-4.4,7.9-7.5c1.7-2.6,2.8-5.5,3.3-8.6
		c0.2-1.2,0.3-2.4,0.3-3.6c0-0.7,0-1.4,0-2c0.6-0.1,1.3-0.2,1.9-0.4c1.6-0.4,2.8-1.3,3.4-2.9c0.3-0.7,0.3-1.4,0.3-2.1
		c0.1-2.1,0.1-4.2,0.1-6.2c0-2-1-3-3-3.4c-1.2-0.2-2.4-0.4-3.6-0.6c-0.2,0-0.4-0.2-0.5-0.3c-0.4-0.5-0.7-1.1-1.1-1.6
		c-3.5-4.7-7.9-8.1-13.4-10.1c-2.5-0.9-5-1.4-7.7-1.2c-5.5,0.3-10.1,2.4-13.9,6.3c-2.6,2.7-4.5,5.9-5.8,9.4
		c-0.1,0.3-0.2,0.5-0.5,0.6c-0.9,0.3-1.9,0.7-2.8,1c-0.9,0.3-1.5,0.9-1.8,1.8c-0.1,0.2-0.1,0.4-0.2,0.6l-0.3,1.7c0,0.3,0,0.6,0,0.9
		c0,2.2,0,4.5,0.1,6.7c0.1,1.6,1.4,2.8,3,2.9c1.2,0.1,2.4,0.2,3.6,0.2c0,0.1,0,0.2,0.1,0.4c0.1,1,0.2,1.9,0.4,2.9
		c1.6,6.3,5.2,11.3,10.7,14.8c1,0.6,1.6,1.4,2,2.5c0.5,1.3,0.4,1.6-0.8,2.2c-0.7,0.4-1.6,0.6-2.4,0.8c-1.8,0.5-3.6,0.9-5.5,1
		c-2.2,0.1-4.3,0.6-6.2,1.8c-3,1.9-5.4,4.5-7.3,7.5c-2,3.3-3,6.9-3.9,10.5c-0.5,1.8-0.9,3.7-1.2,5.6c-0.4,2.1-0.7,4.3-0.9,6.4
		c0,0.4-0.1,0.8-0.1,1.2c-5.2-4.6-11.5-6.6-18.4-7.4c-0.6-0.1-1.3-0.1-2-0.2c0.2-0.4,0.4-0.8,0.6-1.2c0.4-1,1-1.6,1.9-2.1
		c3.8-2.3,7-5.2,9.4-8.9c2-3.1,3.3-6.5,3.9-10.2c0.2-1.4,0.3-2.8,0.4-4.3c0.1-0.8,0-1.6,0-2.4c0.7-0.2,1.5-0.3,2.2-0.5
		c1.9-0.5,3.3-1.6,4.1-3.4c0.3-0.8,0.3-1.7,0.3-2.5c0.1-2.5,0.2-4.9,0.1-7.4c0-2.4-1.2-3.6-3.5-4c-1.4-0.2-2.9-0.4-4.3-0.7
		c-0.2,0-0.4-0.2-0.6-0.4c-0.4-0.6-0.8-1.3-1.3-1.9c-4.1-5.5-9.3-9.6-15.9-12c-2.9-1.1-6-1.6-9.1-1.5c-6.5,0.3-12,2.8-16.4,7.5
		c-3.1,3.2-5.3,7-6.8,11.2c-0.1,0.3-0.3,0.5-0.6,0.7c-1.1,0.4-2.2,0.8-3.3,1.2c-1,0.4-1.8,1.1-2.1,2.1c-0.1,0.2-0.2,0.5-0.2,0.7
		c-0.1,0.7-0.2,1.4-0.3,2c0,0.4-0.1,0.7,0,1.1c0,2.7,0,5.3,0.1,8c0.1,1.9,1.6,3.4,3.6,3.4c1.4,0.1,2.8,0.2,4.3,0.3
		c0,0.1,0,0.3,0.1,0.4c0.2,1.1,0.2,2.3,0.5,3.4c1.9,7.5,6.2,13.4,12.7,17.6c1.2,0.7,1.9,1.7,2.3,2.9c0.5,1.6,0.5,1.9-1,2.6
		c-0.9,0.5-1.9,0.7-2.8,1c-2.1,0.6-4.3,1.1-6.5,1.2c-2.6,0.1-5.1,0.8-7.3,2.2c-3.6,2.3-6.5,5.3-8.6,8.9c-2.3,3.9-3.5,8.2-4.6,12.5
		c-0.6,2.2-1,4.4-1.4,6.6c-0.4,2.5-0.8,5.1-1,7.6c-0.3,2.8-0.4,5.6-0.6,8.4c-0.1,2.5-0.2,5.1-0.2,7.6c0,4.4,0.2,8.7,0.3,13.1
		c0.1,1.9,0.7,3.5,2.5,4.3c1.9,0.9,2.5,0.6,3.6-0.7c0.5-0.6,1-1.3,1.5-2c0.2-0.2,0.3-0.5,0.3-0.8c0.1-1.3,0.1-2.6,0.1-3.9
		c0-2.9,0-5.8,0-8.7c0-3.2,0.1-6.4,0.2-9.6c0.1-2.5,0.3-5.1,0.6-7.6c0.4-2.8,0.9-5.6,1.4-8.4c0.1-0.8,0.3-1.7,0.7-2.4
		c0.3-0.5,0.4-1.1,0.3-1.7c-0.3-2.1,0-4.1,0.8-6c1.3-3.1,3.1-6,5.2-8.6c2.2-2.7,5.1-4.2,8.6-4.4c1.2-0.1,2.5,0,3.7-0.3
		c3.3-0.7,6.6-1.2,9.9-1.4c2.2-0.1,4.3,0,6.4,0.5c0.4,0.1,0.8,0.2,1.2,0.2c1.2,0.1,2.3-0.2,3.4-0.6c0.7-0.3,1.5-0.6,2.3-0.8
		c4-0.8,7.8-0.2,11.5,1.6c2,1,3.8,2.3,5,4.2c0.8,1.4,1.6,2.8,2.3,4.2c3.3,6.4,4.8,13.1,4.2,20.3c-0.2,1.9-0.2,3.9-0.2,5.8
		c-0.1,2.2-0.1,4.3-0.2,6.5c-0.1,2.2-0.1,4.4-0.2,6.6c-0.1,2.1-0.2,4.1-0.2,6.2c-0.1,1.9-0.2,3.8-0.2,5.6c0,1.4,0.3,2.8,1.6,3.7
		c0.9,0.7,2,1.1,3,1.7c0.1,0,0.3,0,0.4,0c1.2-0.7,2.3-1.6,2.9-2.8c0.8-1.5,0.9-3.1,0.9-4.7c0-2.2-0.2-4.4-0.2-6.6
		c0-4,0.2-8,0.3-11.9c0-1.6,0.1-3.3,0.1-4.9c0.1,0.1,0.2,0.1,0.4,0.2c1.2,0.4,1.9,1.3,2,2.5c0.1,0.7,0,1.4,0,2.1
		c0,1.8-0.1,3.6-0.1,5.4c0,1.8-0.1,3.6-0.1,5.4c0,1.8-0.1,3.5-0.1,5.3c0,2-0.1,4-0.1,6c0,1.8-0.1,3.5-0.1,5.3c0,2-0.1,4-0.1,6
		c0,1.8-0.1,3.6-0.2,5.4c-0.1,1.8-0.1,3.6-0.2,5.3c-0.1,1.6-0.1,3.3-0.2,4.9c-0.1,1-0.1,1.9-0.3,2.9c-0.1,0.9-0.7,1.6-1.6,1.8
		c-0.5,0.2-1,0.2-1.6,0.3c-2.3,0.1-4.6,0.2-6.8,0.8c-3,0.8-5.9,2-8.7,3.3c-1.1,0.5-1.8,1.9-1.7,3.1c0.3,2.2,1.3,4,2.8,5.6
		c0.7,0.7,1.5,1.2,2.6,1.3c0.3,0,0.7,0.1,1,0.2c2.5,0.5,5,0.8,7.6,0.7c4.2-0.2,8.3-0.9,12.4-1.7c1.6-0.3,2.8-1.1,3.3-2.7
		c0.2-0.8,0.4-1.7,0.4-2.5c0-2-0.4-3.8-1.5-5.4c-1-1.5-1.1-3.3-1.1-5c0-1.6,0.1-3.1,0.1-4.7c0-1.9,0.1-3.8,0.1-5.6
		c0-1.9,0.1-3.9,0.1-5.8c0-1.9,0.1-3.8,0.1-5.7c0-1.9,0.1-3.8,0.1-5.7c0-1.9,0.1-3.8,0.1-5.7c0-1.9,0.1-3.8,0.1-5.7c0-2,0-4,0.1-6
		c0-2.1,0-4.1,0.1-6.2c0-0.9,0-1.7,0.2-2.6c0.2-0.9,0.7-1.5,1.8-1.5c2.8-0.2,5.6-0.5,8.4-0.7c1-0.1,2-0.2,3-0.2c0,0.3,0,0.6,0,0.9
		c0.2,2.7,0.2,5.3,0.1,8c-0.1,1.8-0.1,3.7-0.1,5.6c0,1.9-0.1,3.8-0.1,5.8c0,1.9-0.1,3.8-0.1,5.7c0,1.9-0.1,3.8-0.1,5.7
		c0,1.9-0.1,3.9-0.1,5.8c0,1.9-0.1,3.8-0.1,5.7c0,1.9-0.1,3.8-0.1,5.7c0,1.9-0.1,3.8-0.1,5.8c0,2.1-0.1,4.1-0.1,6.2
		c0,1.7-0.1,3.4-0.2,5.1c0,1.1-0.2,2.2-0.2,3.2c0,1.8,0.8,2.9,2.6,3.5c1.4,0.5,2.8,0.5,4.3,0.7c1.7,0.2,3.4,0.3,5,0.6
		c2.1,0.4,4.2,0.8,6.4,0.8c3.1-0.1,5.8-1.1,8-3.4c0.7-0.7,0.9-1.5,0.8-2.4c-0.1-1.7-0.3-3.4-0.5-5c-0.2-1.5-0.4-3.1-1.1-4.5
		c-0.6-1.2-1.5-2.1-2.8-2.5c-1.2-0.4-2.4-0.4-3.6-0.2c-3.6,0.5-7.2,1-10.8,1.5c-0.3,0-0.6,0.1-0.9,0.1c0-0.1,0-0.2,0-0.2
		c0-2.6,0-5.2-0.1-7.8c0-3-0.1-6.1,0-9.1c0-2.7,0.1-5.5,0.2-8.2c0.1-3.1,0.2-6.3,0.3-9.4c0.1-3.1,0.2-6.2,0.3-9.3
		c0-3.5-0.1-7-0.1-10.6c0-1.3,0.7-2,2-1.8c2.1,0.2,4.3,0.5,6.4,0.7c1.2,0.1,2.5,0.2,3.7,0.2c1.2,0,2.2-0.5,2.7-1.7
		c0.2-0.5,0.4-1.1,0.4-1.7c0.2-1.8,0.3-3.6,0.4-5.3c0.1-2.6,0.2-5.1,0.2-7.7c0-3.2,0-6.4-0.1-9.5c-0.1-3.4-0.2-6.8-0.4-10.2
		c-0.1-2.9-0.2-5.9-0.4-8.8c-0.1-1.7-1-2.7-2.6-3c-1.6-0.2-2.9,0.5-3.5,2.1c-0.4,1.1-0.3,2.3-0.2,3.5c0.2,2.1,0.5,4.1,0.7,6.2
		c0.4,3.9,0.5,7.7,0.4,11.6c0,2.8-0.1,5.6-0.1,8.3c0,2.3-0.1,4.6-0.1,6.9c0,1.9-1,2.9-2.9,2.8c-0.8,0-1.6-0.3-2.4-0.4
		c-3.4-0.5-6.7-1.1-10.1-1.6c-2.1-0.3-4.2-0.2-6.3,0.1c-1.7,0.3-3.4,0.6-5.1,0.5c-1.5,0-3-0.1-4.5-0.2c-0.6,0-1.1,0-1.6,0
		c0-0.1,0-0.1,0-0.1c0-2.3,0.1-4.6,0.1-6.9c0.1-2.9,0.2-5.7,0.3-8.6c0.1-1.5,0.3-3,0.5-4.5c0.5-2.8,0.9-5.7,1.1-8.6
		c0.1-1.7,0.1-3.4,0.1-5.1c0-1.7,0-3.4-0.1-5.1c0-0.8-0.9-1.7-1.6-1.8c-1.2-0.2-2.4,0.5-2.9,1.6c-0.2,0.5-0.4,1-0.5,1.5
		c-0.3,1.6-0.6,3.3-0.8,4.9c-0.3,2.6-0.5,5.1-0.7,7.7c-0.2,1.9-0.3,3.9-0.5,5.8c-0.2,2.6-0.4,5.1-0.6,7.7c-0.1,0.9-0.1,1.7-0.2,2.6
		c-0.2-1.7-0.5-3.4-1-5.1c-0.8-3.3-2-6.3-3.7-9.2c0-0.9,0-1.9,0.1-2.8c0.1-2.2,0.3-4.3,0.5-6.4c0.3-2.4,0.8-4.7,1.2-7.1
		c0.1-0.7,0.3-1.4,0.6-2c0.2-0.4,0.3-0.9,0.2-1.4c-0.3-1.7,0-3.4,0.6-5c1.1-2.6,2.6-5,4.4-7.2c1.9-2.3,4.3-3.5,7.2-3.7
		c1-0.1,2.1,0,3.1-0.2c2.8-0.6,5.5-1,8.4-1.2c1.8-0.1,3.6,0,5.4,0.5c0.3,0.1,0.7,0.2,1,0.2c1,0.1,2-0.2,2.9-0.5
		c0.6-0.2,1.3-0.5,1.9-0.7c3.4-0.7,6.6-0.1,9.7,1.3c1.7,0.8,3.2,1.9,4.2,3.6c0.7,1.2,1.3,2.3,1.9,3.5c2.8,5.4,4,11.1,3.5,17.1
		c-0.1,1.6-0.1,3.3-0.2,4.9c-0.1,1.8-0.1,3.7-0.2,5.5c-0.1,1.9-0.1,3.7-0.2,5.6c-0.1,1.7-0.1,3.5-0.2,5.2c0,0.3,0,0.7,0,1
		c-0.3,1-0.5,1.9-0.8,2.9c-0.6,2.2-1,4.4-1.4,6.6c-0.4,2.5-0.8,5.1-1,7.6c-0.3,2.8-0.4,5.6-0.6,8.4c-0.1,2.5-0.2,5.1-0.2,7.6
		c0,4.4,0.2,8.7,0.3,13.1c0.1,1.9,0.7,3.5,2.5,4.3c1.9,0.9,2.5,0.6,3.6-0.7c0.5-0.6,1-1.3,1.5-2c0.2-0.2,0.3-0.5,0.3-0.8
		c0.1-1.3,0.1-2.6,0.1-3.9c0-2.9,0-5.8,0-8.7c0-3.2,0.1-6.4,0.2-9.6c0.1-2.5,0.3-5.1,0.6-7.6c0.4-2.8,2.4-16.5,3.1-18.5
		c1.3-3.1,3.1-6,5.2-8.6c2.2-2.7,5.1-4.2,8.6-4.4c1.2-0.1,2.5,0,3.7-0.3c3.3-0.7,6.6-1.2,9.9-1.4c2.2-0.1,4.3,0,6.4,0.5
		c0.4,0.1,0.8,0.2,1.2,0.2c1.2,0.1,2.3-0.2,3.4-0.6c0.7-0.3,1.5-0.6,2.3-0.8c4-0.8,7.8-0.2,11.5,1.6c2,1,3.8,2.3,5,4.2
		c0.8,1.4,1.6,2.8,2.3,4.2c3.3,6.4,4.8,13.1,4.2,20.3c-0.2,1.9-0.2,3.9-0.2,5.8c-0.1,2.2-0.1,4.3-0.2,6.5c-0.1,2.2-0.1,4.4-0.2,6.6
		c-0.1,2.1-0.2,4.1-0.2,6.2c-0.1,1.9-0.2,3.8-0.2,5.6c0,1.4,0.3,2.8,1.6,3.7c0.9,0.7,2,1.1,3,1.7c0.1,0,0.3,0,0.4,0
		c1.2-0.7,2.3-1.6,2.9-2.8c0.8-1.5,0.9-3.1,0.9-4.7c0-2.2-0.2-4.4-0.2-6.6c0-4,0.2-8,0.3-11.9C350.6,236,350.7,231.9,350.7,227.9z
		 M153.2,157.9c0-1.2,0.1-2.3,0-3.4c0-0.7,0.3-1,0.9-1.2c0.8-0.3,1.5-0.6,2.2-1c1.6-0.8,2.5-2.2,3-4c0.5-1.9,2.1-4.8,3-5.9
		c0.2,0.2,0.3,0.4,0.5,0.6c1.3,1.4,3.5,1.6,5,0.4c1.5-1.2,1.8-3.4,0.6-5c-0.3-0.4-0.6-0.9-0.9-1.3c1.5-1,3-1.7,4.6-2.1
		c0.1,1.5,0.2,3,0.3,4.5c0.1,1.8,1.4,3.2,3.1,3.5c1.7,0.3,3.4-0.7,4-2.5c0.2-0.6,0.2-1.4,0.1-2.1c0-1.2-0.2-2.4-0.3-3.6
		c0-0.1,0-0.2,0.1-0.4c1.5,0.5,2.9,0.9,4.3,1.3c-0.2,0.6-0.3,1.1-0.4,1.5c-0.5,1.9,0.3,3.7,2.1,4.4c1.7,0.7,3.6,0.1,4.6-1.6
		c0-0.1,0.1-0.1,0.1-0.2c0.2,0.1,0.3,0.2,0.4,0.3c2.3,2.1,4.3,4.5,5.8,7.3c0.6,1.2,1.6,1.8,2.9,2c1.2,0.2,2.4,0.4,3.7,0.6
		c0,0.8,0,1.7-0.1,2.5c-0.1,1.2-0.1,1.2-1.2,1.3c-6.9,0.9-13.8,1.9-20.8,2.8c-5.6,0.7-11.3,1.2-17,1.3c-2.6,0-5.3-0.1-7.9-0.1
		C155.2,158,154.3,157.9,153.2,157.9z M185.5,180.1c-3.8,1.7-7.8,2.1-11.9,1c-5.2-1.4-8.6-4.7-10.3-9.7c-0.1-0.2-0.2-0.4-0.3-0.6
		c-0.8-1.6-1.2-3.3-1.4-5c0-0.1,0-0.2,0-0.3c11.6,0,23-1.7,34.5-3.3c0.2,1,0.3,1.9,0.2,2.9c-0.1,2-0.7,3.9-1.7,5.7
		c-0.3,0.6-0.5,1.3-0.8,1.9C192,176.1,189.1,178.5,185.5,180.1z M247.3,298.7c0.3-0.1,0.5-0.2,0.8-0.2c3.6-0.5,7.1-1,10.7-1.5
		c0.1,0,0.3,0,0.4,0c1,0,1.6,0.4,1.7,1.4c0.1,0.9,0.1,1.8,0,2.7c-0.1,1.1-0.7,1.7-1.8,1.9c-1,0.2-2,0.2-3,0.3c-0.2,0-0.4,0-0.6,0
		c0-0.2,0-0.3,0-0.5c-0.9-0.1-1.7-0.1-2.6-0.2c-1.4-0.1-2.8-0.2-4.1-0.6c-1.1-0.3-1.8-1.1-2-2.3
		C246.6,299.2,246.8,298.9,247.3,298.7z M223,299.8c0,0.1-0.2,0.2-0.3,0.3c-3.4,0.9-6.7,1.9-10.2,2.5c-1.1,0.2-2.2-0.1-3.3-0.4
		c-0.7-0.2-1.4-0.4-2.1-0.7c-0.2-0.7,0.1-1,0.7-1.3c1.9-1.1,4-1.5,6.1-1.8c2.1-0.3,4.1-0.3,6.2-0.3c0.6,0,1.2,0,1.7,0.1
		C222.7,298.3,223.2,299,223,299.8z M222.2,133.8c0-1,0.1-1.9,0-2.9c0-0.6,0.2-0.8,0.8-1c0.6-0.2,1.3-0.5,1.9-0.8
		c1.4-0.7,2.1-1.9,2.6-3.4c0.5-1.6,1.8-4.1,2.6-5c0.1,0.2,0.3,0.4,0.4,0.5c1.1,1.2,3,1.4,4.2,0.3c1.3-1.1,1.5-2.9,0.5-4.2
		c-0.3-0.4-0.5-0.7-0.7-1.1c1.2-0.8,2.5-1.4,3.9-1.8c0.1,1.3,0.2,2.6,0.3,3.8c0.1,1.5,1.2,2.7,2.6,3c1.5,0.2,2.9-0.6,3.4-2.1
		c0.2-0.5,0.1-1.2,0.1-1.7c0-1-0.1-2-0.2-3c0-0.1,0-0.1,0-0.3c1.2,0.4,2.4,0.8,3.7,1.1c-0.1,0.5-0.2,0.9-0.3,1.3
		c-0.4,1.6,0.3,3.1,1.8,3.7c1.4,0.6,3,0,3.9-1.3c0-0.1,0.1-0.1,0.1-0.2c0.1,0.1,0.3,0.2,0.4,0.3c2,1.8,3.6,3.8,4.9,6.1
		c0.5,1,1.3,1.5,2.4,1.7c1,0.2,2,0.3,3.1,0.5c0,0.7,0,1.4,0,2.1c-0.1,1-0.1,1-1.1,1.1c-5.8,0.8-11.7,1.6-17.5,2.4
		c-4.8,0.6-9.5,1-14.3,1.1c-2.2,0-4.4,0-6.7-0.1C223.9,133.9,223.1,133.9,222.2,133.8z M249.5,152.5c-3.2,1.4-6.6,1.8-10.1,0.9
		c-4.4-1.2-7.3-3.9-8.7-8.2c-0.1-0.2-0.1-0.4-0.2-0.5c-0.7-1.3-1-2.8-1.2-4.3c0-0.1,0-0.1,0-0.2c9.8,0,19.4-1.4,29.1-2.8
		c0.2,0.8,0.2,1.6,0.2,2.4c-0.1,1.7-0.6,3.3-1.5,4.8c-0.3,0.5-0.4,1.1-0.7,1.6C255,149.2,252.5,151.2,249.5,152.5z M284.5,159
		c0-1.2,0.1-2.3,0-3.4c0-0.7,0.3-1,0.9-1.2c0.8-0.3,1.5-0.6,2.2-1c1.6-0.8,2.5-2.2,3-4c0.5-1.9,2.1-4.8,3-5.9
		c0.2,0.2,0.3,0.4,0.5,0.6c1.3,1.4,3.5,1.6,5,0.4c1.5-1.2,1.8-3.4,0.6-5c-0.3-0.4-0.6-0.9-0.9-1.3c1.5-1,3-1.7,4.6-2.1
		c0.1,1.5,0.2,3,0.3,4.5c0.1,1.8,1.4,3.2,3.1,3.5c1.7,0.3,3.4-0.7,4-2.5c0.2-0.6,0.2-1.4,0.1-2.1c0-1.2-0.2-2.4-0.3-3.6
		c0-0.1,0-0.2,0.1-0.4c1.5,0.5,2.9,0.9,4.3,1.3c-0.2,0.6-0.3,1.1-0.4,1.5c-0.5,1.9,0.3,3.7,2.1,4.4c1.7,0.7,3.6,0.1,4.6-1.6
		c0-0.1,0.1-0.1,0.1-0.2c0.2,0.1,0.3,0.2,0.4,0.3c2.3,2.1,4.3,4.5,5.8,7.3c0.6,1.2,1.6,1.8,2.9,2c1.2,0.2,2.4,0.4,3.7,0.6
		c0,0.8,0,1.7-0.1,2.5c-0.1,1.2-0.1,1.2-1.2,1.3c-6.9,0.9-13.8,1.9-20.8,2.8c-5.6,0.7-11.3,1.2-17,1.3c-2.6,0-5.3-0.1-7.9-0.1
		C286.5,159.1,285.5,159,284.5,159z M316.8,181.1c-3.8,1.7-7.8,2.1-11.9,1c-5.2-1.4-8.6-4.7-10.3-9.7c-0.1-0.2-0.2-0.4-0.3-0.6
		c-0.8-1.6-1.2-3.3-1.4-5c0-0.1,0-0.2,0-0.3c11.6,0,23-1.7,34.5-3.3c0.2,1,0.3,1.9,0.2,2.9c-0.1,2-0.7,3.9-1.7,5.7
		c-0.3,0.6-0.5,1.3-0.8,1.9C323.2,177.1,320.4,179.6,316.8,181.1z"/>
	<path d="M337.2,353.6c-0.2-1.8-0.5-3.6-1.3-5.3c-0.7-1.4-1.7-2.5-3.3-2.9c-1.4-0.4-2.8-0.5-4.2-0.3c-4.3,0.6-8.5,1.2-12.8,1.8
		c-0.3,0-0.7,0.1-1.1,0.1c0-0.1,0-0.2,0-0.3c0-3.1-0.1-6.1-0.1-9.2c0-3.6-0.1-7.2,0-10.8c0-3.2,0.1-6.5,0.2-9.7
		c0.1-3.7,0.2-7.4,0.3-11.2c0.1-3.7,0.3-7.3,0.3-11c0-4.2-0.1-8.3-0.1-12.5c0-1.6,0.8-2.4,2.4-2.2c2.5,0.3,5,0.6,7.6,0.9
		c1.5,0.1,2.9,0.2,4.4,0.2c1.4,0,2.6-0.6,3.2-2c0.3-0.6,0.4-1.3,0.5-2c0.2-2.1,0.3-4.2,0.4-6.3c0.1-3,0.3-6.1,0.3-9.1
		c0-3.8,0-7.5-0.1-11.3c-0.1-4-0.3-8-0.4-12.1c-0.1-3.5-0.3-6.9-0.4-10.4c-0.1-2-1.2-3.2-3.1-3.5c-1.9-0.3-3.5,0.6-4.1,2.5
		c-0.4,1.3-0.4,2.7-0.3,4.1c0.3,2.4,0.6,4.9,0.9,7.3c0.4,4.6,0.6,9.2,0.5,13.8c0,3.3-0.1,6.6-0.1,9.9c0,2.7-0.1,5.5-0.1,8.2
		c0,2.3-1.2,3.5-3.4,3.3c-1-0.1-1.9-0.3-2.9-0.5c-4-0.6-8-1.3-12-1.9c-2.5-0.3-5-0.3-7.5,0.2c-2,0.3-4,0.7-6,0.6
		c-1.8-0.1-3.6-0.1-5.4-0.2c-0.7,0-1.3,0-2-0.1c0-0.1-0.1-0.1-0.1-0.1c0.1-2.7,0.1-5.4,0.2-8.1c0.1-3.4,0.2-6.8,0.4-10.1
		c0.1-1.8,0.3-3.6,0.6-5.4c0.6-3.4,1.1-6.7,1.3-10.2c0.1-2,0.2-4,0.2-6c0-2,0-4.1-0.1-6.1c0-0.9-1.1-2-1.9-2.1
		c-1.4-0.2-2.8,0.6-3.4,1.9c-0.3,0.6-0.5,1.1-0.6,1.7c-0.3,1.9-0.7,3.9-0.9,5.8c-0.3,3-0.6,6.1-0.9,9.1c-0.2,2.3-0.4,4.6-0.6,6.9
		c-0.2,3-0.4,6.1-0.7,9.1c-0.2,2.7-0.4,5.3-0.6,8c-0.2,2.9-0.4,5.8-0.7,8.7c-0.1,1.7,0.4,2.6,2,3.1c1.4,0.5,2.3,1.5,2.4,3
		c0.1,0.8,0,1.7,0,2.5c0,2.1-0.1,4.3-0.2,6.4c-0.1,2.1-0.1,4.3-0.2,6.4c-0.1,2.1-0.1,4.2-0.2,6.3c-0.1,2.4-0.1,4.7-0.2,7.1
		c-0.1,2.1-0.1,4.2-0.2,6.3c-0.1,2.4-0.1,4.7-0.2,7.1c-0.1,2.1-0.1,4.3-0.2,6.4c-0.1,2.1-0.2,4.2-0.3,6.3c-0.1,1.9-0.2,3.9-0.3,5.8
		c-0.1,1.1-0.1,2.3-0.3,3.4c-0.2,1.1-0.9,1.9-1.9,2.2c-0.6,0.2-1.2,0.3-1.9,0.3c-2.7,0.1-5.4,0.3-8.1,1c-3.6,1-7,2.4-10.3,3.9
		c-1.3,0.6-2.2,2.2-2,3.7c0.3,2.6,1.6,4.7,3.4,6.6c0.8,0.9,1.8,1.4,3,1.6c0.4,0,0.8,0.2,1.2,0.2c3,0.6,5.9,0.9,9,0.8
		c4.9-0.2,9.8-1.1,14.6-2c1.9-0.3,3.4-1.3,3.9-3.2c0.3-1,0.4-2,0.5-3c0.1-2.3-0.5-4.5-1.8-6.4c-1.2-1.8-1.3-3.9-1.3-5.9
		c0-1.9,0.1-3.7,0.1-5.6c0-2.2,0.1-4.4,0.1-6.7c0-2.3,0.1-4.6,0.1-6.9c0-2.3,0.1-4.5,0.1-6.8c0-2.3,0.1-4.5,0.1-6.8
		c0-2.2,0.1-4.5,0.1-6.7c0-2.2,0.1-4.5,0.1-6.7c0-2.4,0.1-4.7,0.1-7.1c0-2.5,0.1-4.9,0.1-7.4c0-1,0-2.1,0.3-3
		c0.2-1.1,0.8-1.7,2.1-1.8c3.3-0.2,6.6-0.6,9.9-0.9c1.2-0.1,2.3-0.2,3.5-0.3c0,0.4,0,0.7,0.1,1c0.2,3.1,0.3,6.3,0.2,9.4
		c-0.1,2.2-0.1,4.4-0.1,6.6c0,2.3-0.1,4.5-0.1,6.8c0,2.3-0.1,4.5-0.1,6.8c0,2.2-0.1,4.5-0.1,6.7c0,2.3-0.1,4.6-0.1,6.9
		c0,2.3-0.1,4.5-0.1,6.8c0,2.3-0.1,4.5-0.1,6.8c0,2.3-0.1,4.5-0.1,6.8c0,2.5-0.1,4.9-0.1,7.4c0,2-0.1,4-0.2,6
		c-0.1,1.3-0.2,2.6-0.2,3.8c0,2.1,1,3.4,3,4.2c1.6,0.6,3.3,0.7,5,0.8c2,0.2,4,0.4,6,0.7c2.5,0.4,5,0.9,7.6,0.9
		c3.7-0.1,6.9-1.4,9.5-4c0.8-0.8,1-1.8,0.9-2.8C337.7,357.5,337.4,355.6,337.2,353.6z M285.4,355.5c0,0.1-0.2,0.3-0.3,0.3
		c-4,1-7.9,2.3-12,2.9c-1.4,0.2-2.6-0.1-3.9-0.5c-0.8-0.2-1.7-0.5-2.5-0.8c-0.2-0.8,0.1-1.2,0.8-1.6c2.3-1.3,4.7-1.8,7.3-2.2
		c2.5-0.3,4.9-0.3,7.4-0.3c0.7,0,1.4,0,2,0.1C285.1,353.7,285.6,354.6,285.4,355.5z M330.2,357c-0.1,1.3-0.8,2-2.1,2.2
		c-1.2,0.2-2.4,0.2-3.6,0.3c-0.2,0-0.4,0-0.7,0c0-0.2,0-0.4,0-0.6c-1-0.1-2.1-0.1-3.1-0.2c-1.6-0.2-3.3-0.3-4.9-0.7
		c-1.3-0.3-2.1-1.3-2.4-2.7c-0.1-0.6,0.1-1,0.7-1.2c0.3-0.1,0.6-0.2,1-0.3c4.2-0.6,8.4-1.2,12.6-1.7c0.2,0,0.3,0,0.5,0
		c1.2-0.1,1.9,0.4,2,1.6C330.3,354.8,330.3,355.9,330.2,357z"/>
	<path d="M319.5,153.7c1.3-0.2,2.1-1.1,2.3-2.4c0-0.1,0-0.3,0-0.6c-0.2-1.6-1.6-2.6-3.3-2.3c-5.7,0.9-11.5,1.6-17.3,1.9
		c-2.2,0.1-4.4,0.1-6.6,0.2c-1.5,0.1-2.6,1.4-2.5,2.9c0.1,1.4,1.3,2.6,2.7,2.6c4.4-0.2,8.8-0.3,13.2-0.7
		C311.9,154.8,315.7,154.2,319.5,153.7z"/>
	<path d="M251.8,129.3c1.1-0.1,1.8-0.9,2-2c0-0.1,0-0.3,0-0.5c-0.2-1.4-1.4-2.2-2.8-2c-4.9,0.8-9.7,1.3-14.6,1.6
		c-1.9,0.1-3.7,0.1-5.6,0.2c-1.2,0.1-2.2,1.1-2.1,2.4c0,1.2,1.1,2.2,2.3,2.2c3.7-0.2,7.4-0.3,11.1-0.6
		C245.3,130.3,248.6,129.8,251.8,129.3z"/>
</g>
</svg>
