<?xml version="1.0" encoding="utf-8"?>
<!-- Generator: Adobe Illustrator 16.0.4, SVG Export Plug-In . SVG Version: 6.00 Build 0)  -->
<!DOCTYPE svg PUBLIC "-//W3C//DTD SVG 1.1//EN" "http://www.w3.org/Graphics/SVG/1.1/DTD/svg11.dtd">
<svg version="1.1" id="Layer_1" xmlns="http://www.w3.org/2000/svg" xmlns:xlink="http://www.w3.org/1999/xlink" x="0px" y="0px"
	 width="101.888px" height="69.833px" viewBox="0 0 101.888 69.833" enable-background="new 0 0 101.888 69.833"
	 xml:space="preserve">
<g>
	<defs>
		<rect id="SVGID_1_" y="0" width="101.888" height="69.833"/>
	</defs>
	<clipPath id="SVGID_2_">
		<use xlink:href="#SVGID_1_"  overflow="visible"/>
	</clipPath>
	<path clip-path="url(#SVGID_2_)" fill="#FFFFFF" d="M24.333,21.883h0.432c0.383,0,0.647,0.276,0.455,0.744
		c-0.683,1.619-1.847,2.398-3.454,2.398c-2.219,0-3.658-1.919-3.658-4.449c0-2.639,1.475-4.462,3.754-4.462
		c1.583,0,2.867,1.08,3.25,2.555c0.072,0.288-0.06,0.588-0.36,0.672l-0.347,0.095c-0.324,0.084-0.66-0.035-0.744-0.371
		c-0.216-0.888-0.851-1.499-1.799-1.512c-1.379-0.011-2.243,1.188-2.243,3.011c0,1.727,0.828,2.986,2.159,2.986
		c0.96,0,1.607-0.444,1.931-1.259C23.816,22.015,24.057,21.883,24.333,21.883"/>
	<path clip-path="url(#SVGID_2_)" fill="#FFFFFF" d="M26.795,20.576c0-2.591,1.451-4.461,3.61-4.461c2.159,0,3.61,1.87,3.61,4.461
		c0,2.59-1.427,4.449-3.61,4.449C28.224,25.025,26.795,23.166,26.795,20.576 M28.307,20.576c0,1.727,0.78,2.998,2.099,2.998
		c1.319,0,2.099-1.271,2.099-2.998c0-1.703-0.803-3.046-2.099-3.046C29.11,17.53,28.307,18.873,28.307,20.576"/>
	<path clip-path="url(#SVGID_2_)" fill="#FFFFFF" d="M36.575,24.929c-0.408,0-0.576-0.276-0.576-0.576v-7.555
		c0-0.3,0.192-0.588,0.576-0.588h0.348c0.384,0,0.576,0.288,0.576,0.588v6.656h3.454c0.3,0,0.576,0.18,0.576,0.576v0.323
		c0,0.396-0.276,0.576-0.576,0.576H36.575z"/>
	<path clip-path="url(#SVGID_2_)" fill="#FFFFFF" d="M43.427,24.929c-0.408,0-0.576-0.276-0.576-0.576v-7.555
		c0-0.3,0.192-0.588,0.576-0.588h0.348c0.384,0,0.576,0.288,0.576,0.588v6.656h3.454c0.3,0,0.576,0.18,0.576,0.576v0.323
		c0,0.396-0.276,0.576-0.576,0.576H43.427z"/>
	<path clip-path="url(#SVGID_2_)" fill="#FFFFFF" d="M51.214,17.673v2.015h2.699c0.335,0,0.599,0.215,0.599,0.588v0.287
		c0,0.372-0.264,0.588-0.599,0.588h-2.699v2.314h3.73c0.36,0,0.6,0.265,0.6,0.576v0.312c0,0.324-0.239,0.576-0.6,0.576h-4.653
		c-0.408,0-0.588-0.264-0.588-0.576v-7.555c0-0.312,0.18-0.588,0.588-0.588h4.438c0.312,0,0.576,0.215,0.576,0.588v0.287
		c0,0.36-0.265,0.588-0.576,0.588H51.214z"/>
	<path clip-path="url(#SVGID_2_)" fill="#FFFFFF" d="M63.031,21.883h0.433c0.384,0,0.647,0.276,0.456,0.744
		c-0.685,1.619-1.848,2.398-3.454,2.398c-2.219,0-3.658-1.919-3.658-4.449c0-2.639,1.475-4.462,3.754-4.462
		c1.583,0,2.866,1.08,3.25,2.555c0.072,0.288-0.06,0.588-0.36,0.672l-0.348,0.095c-0.323,0.084-0.659-0.035-0.743-0.371
		c-0.216-0.888-0.852-1.499-1.799-1.512c-1.38-0.011-2.243,1.188-2.243,3.011c0,1.727,0.827,2.986,2.159,2.986
		c0.959,0,1.607-0.444,1.93-1.259C62.516,22.015,62.757,21.883,63.031,21.883"/>
	<path clip-path="url(#SVGID_2_)" fill="#FFFFFF" d="M65.471,17.673c-0.335,0-0.575-0.228-0.575-0.588v-0.287
		c0-0.36,0.24-0.588,0.575-0.588h5.625c0.336,0,0.576,0.228,0.576,0.588v0.287c0,0.36-0.24,0.588-0.576,0.588h-2.062v6.68
		c0,0.312-0.217,0.576-0.588,0.576H68.11c-0.372,0-0.576-0.264-0.576-0.576v-6.68H65.471z"/>
	<path clip-path="url(#SVGID_2_)" fill="#FFFFFF" d="M73.415,16.786c0-0.324,0.191-0.576,0.576-0.576h0.336
		c0.383,0,0.587,0.252,0.587,0.576v7.58c0,0.312-0.192,0.564-0.587,0.564h-0.324c-0.384,0-0.588-0.252-0.588-0.564V16.786z"/>
	<path clip-path="url(#SVGID_2_)" fill="#FFFFFF" d="M79.186,24.354c0,0.3-0.204,0.576-0.587,0.576h-0.336
		c-0.384,0-0.588-0.276-0.588-0.576v-7.556c0-0.312,0.204-0.588,0.588-0.588h4.558c0.371,0,0.6,0.205,0.6,0.588v0.288
		c0,0.384-0.24,0.588-0.6,0.588h-3.635v2.014h2.436c0.348,0,0.587,0.192,0.587,0.588v0.288c0,0.384-0.263,0.588-0.587,0.588h-2.436
		V24.354z"/>
	<path clip-path="url(#SVGID_2_)" fill="#FFFFFF" d="M3.49,30.61c1.811,0,2.914,1.115,2.914,2.77c0,1.655-0.995,2.747-2.926,2.747
		H1.523v2.613c0,0.301-0.192,0.589-0.576,0.589h-0.36C0.215,39.33,0,39.042,0,38.741v-7.532c0-0.336,0.239-0.599,0.599-0.599H3.49z
		 M1.523,32.073v2.626h1.955c0.875,0,1.403-0.467,1.403-1.283c0-0.827-0.528-1.343-1.403-1.343H1.523z"/>
	<path clip-path="url(#SVGID_2_)" fill="#FFFFFF" d="M7.548,34.976c0-2.591,1.451-4.461,3.61-4.461c2.159,0,3.61,1.87,3.61,4.461
		c0,2.59-1.427,4.45-3.61,4.45C8.977,39.425,7.548,37.566,7.548,34.976 M9.06,34.976c0,1.727,0.78,2.998,2.099,2.998
		c1.319,0,2.099-1.271,2.099-2.998c0-1.703-0.803-3.046-2.099-3.046C9.863,31.93,9.06,33.272,9.06,34.976"/>
	<path clip-path="url(#SVGID_2_)" fill="#FFFFFF" d="M16.752,36.355v-5.157c0-0.3,0.18-0.588,0.588-0.588h0.348
		c0.407,0,0.587,0.288,0.587,0.588v5.182c0,1.019,0.672,1.606,1.655,1.606c0.996,0,1.643-0.588,1.643-1.606v-5.182
		c0-0.3,0.18-0.588,0.588-0.588h0.336c0.408,0,0.588,0.288,0.588,0.588v5.157c0,1.895-1.212,3.07-3.155,3.07
		C17.963,39.425,16.752,38.262,16.752,36.355"/>
	<path clip-path="url(#SVGID_2_)" fill="#FFFFFF" d="M31.869,38.538c0.263,0.384,0.011,0.792-0.444,0.792h-0.492
		c-0.228,0-0.468-0.133-0.599-0.324l-1.956-3.046h-1.355v2.794c0,0.3-0.18,0.576-0.587,0.576h-0.349
		c-0.407,0-0.599-0.276-0.599-0.576v-7.555c0-0.3,0.192-0.588,0.599-0.588h2.807c1.703,0,2.842,1.115,2.842,2.686
		c0,1.272-0.791,2.171-1.762,2.471L31.869,38.538z M27.023,32.073v2.458h1.787c0.888,0,1.356-0.479,1.356-1.187
		c0-0.755-0.48-1.271-1.284-1.271H27.023z"/>
	<path clip-path="url(#SVGID_2_)" fill="#FFFFFF" d="M36.732,36.355v-5.157c0-0.3,0.18-0.588,0.588-0.588h0.348
		c0.407,0,0.587,0.288,0.587,0.588v5.182c0,1.019,0.672,1.606,1.655,1.606c0.996,0,1.643-0.588,1.643-1.606v-5.182
		c0-0.3,0.18-0.588,0.588-0.588h0.336c0.408,0,0.588,0.288,0.588,0.588v5.157c0,1.895-1.212,3.07-3.155,3.07
		C37.943,39.425,36.732,38.262,36.732,36.355"/>
	<path clip-path="url(#SVGID_2_)" fill="#FFFFFF" d="M45.468,31.198c0-0.3,0.192-0.588,0.6-0.588h0.575
		c0.241,0,0.456,0.168,0.564,0.36l3.131,5.565l-0.014-5.337c0-0.324,0.205-0.588,0.564-0.588h0.36c0.384,0,0.574,0.264,0.574,0.588
		v7.543c0,0.312-0.202,0.588-0.587,0.588h-0.516c-0.24,0-0.432-0.155-0.527-0.323l-3.239-5.756l0.024,5.504
		c0,0.3-0.156,0.575-0.563,0.575h-0.372c-0.408,0-0.576-0.275-0.576-0.575V31.198z"/>
	<path clip-path="url(#SVGID_2_)" fill="#FFFFFF" d="M55.738,32.073v2.015h2.699c0.335,0,0.599,0.215,0.599,0.588v0.287
		c0,0.372-0.264,0.588-0.599,0.588h-2.699v2.313h3.73c0.359,0,0.6,0.266,0.6,0.576v0.312c0,0.324-0.24,0.576-0.6,0.576h-4.653
		c-0.408,0-0.588-0.265-0.588-0.576v-7.555c0-0.312,0.18-0.588,0.588-0.588h4.438c0.312,0,0.575,0.215,0.575,0.588v0.287
		c0,0.36-0.264,0.588-0.575,0.588H55.738z"/>
	<path clip-path="url(#SVGID_2_)" fill="#FFFFFF" d="M66.215,38.753c0,0.3-0.204,0.576-0.587,0.576h-0.336
		c-0.385,0-0.588-0.276-0.588-0.576v-7.556c0-0.312,0.203-0.588,0.588-0.588h4.557c0.372,0,0.6,0.205,0.6,0.588v0.288
		c0,0.384-0.239,0.588-0.6,0.588h-3.634v2.014h2.435c0.349,0,0.587,0.192,0.587,0.588v0.288c0,0.384-0.264,0.588-0.587,0.588h-2.435
		V38.753z"/>
	<path clip-path="url(#SVGID_2_)" fill="#FFFFFF" d="M70.872,34.976c0-2.591,1.45-4.461,3.609-4.461s3.61,1.87,3.61,4.461
		c0,2.59-1.427,4.45-3.61,4.45C72.3,39.425,70.872,37.566,70.872,34.976 M72.383,34.976c0,1.727,0.78,2.998,2.099,2.998
		c1.319,0,2.1-1.271,2.1-2.998c0-1.703-0.804-3.046-2.1-3.046C73.187,31.93,72.383,33.272,72.383,34.976"/>
	<path clip-path="url(#SVGID_2_)" fill="#FFFFFF" d="M86.455,38.538c0.264,0.384,0.012,0.792-0.443,0.792h-0.491
		c-0.229,0-0.469-0.133-0.601-0.324l-1.955-3.046H81.61v2.794c0,0.3-0.18,0.576-0.587,0.576h-0.35c-0.406,0-0.599-0.276-0.599-0.576
		v-7.555c0-0.3,0.192-0.588,0.599-0.588h2.808c1.703,0,2.842,1.115,2.842,2.686c0,1.272-0.791,2.171-1.762,2.471L86.455,38.538z
		 M81.61,32.073v2.458h1.787c0.888,0,1.355-0.479,1.355-1.187c0-0.755-0.479-1.271-1.284-1.271H81.61z"/>
	<path clip-path="url(#SVGID_2_)" fill="#FFFFFF" d="M89.999,32.073v2.015h2.698c0.335,0,0.6,0.216,0.6,0.588v0.287
		c0,0.372-0.265,0.588-0.6,0.588h-2.698v2.314h3.729c0.36,0,0.599,0.265,0.599,0.575v0.312c0,0.323-0.238,0.575-0.599,0.575h-4.654
		c-0.406,0-0.587-0.264-0.587-0.575v-7.555c0-0.312,0.181-0.588,0.587-0.588h4.438c0.312,0,0.576,0.216,0.576,0.588v0.287
		c0,0.36-0.265,0.588-0.576,0.588H89.999z M91.594,28.559c0.252,0,0.42,0.132,0.516,0.252l0.803,0.947
		c0.156,0.18,0.036,0.444-0.215,0.444h-0.504c-0.252,0-0.408-0.144-0.516-0.264l-0.433-0.504l-0.432,0.504
		c-0.107,0.132-0.263,0.264-0.515,0.264h-0.504c-0.252,0-0.372-0.264-0.217-0.444l0.805-0.947c0.096-0.12,0.263-0.252,0.515-0.252
		H91.594z"/>
	<path clip-path="url(#SVGID_2_)" fill="#FFFFFF" d="M95.688,32.073c-0.335,0-0.576-0.228-0.576-0.588v-0.287
		c0-0.36,0.241-0.588,0.576-0.588h5.625c0.336,0,0.576,0.228,0.576,0.588v0.287c0,0.36-0.24,0.588-0.576,0.588h-2.063v6.68
		c0,0.312-0.216,0.576-0.587,0.576h-0.336c-0.372,0-0.576-0.265-0.576-0.576v-6.68H95.688z"/>
	<path clip-path="url(#SVGID_2_)" fill="#FFFFFF" d="M23.771,53.624c-0.396,0-0.564-0.276-0.564-0.576v-7.555
		c0-0.3,0.18-0.588,0.564-0.588h2.051c2.542,0,4.233,1.727,4.233,4.377c0,2.579-1.786,4.342-4.209,4.342H23.771z M25.883,52.172
		c1.631,0,2.687-1.211,2.687-2.891c0-1.738-1.02-2.927-2.699-2.927h-1.175v5.817H25.883z"/>
	<path clip-path="url(#SVGID_2_)" fill="#FFFFFF" d="M32.04,50.649v-5.156c0-0.3,0.18-0.588,0.588-0.588h0.348
		c0.407,0,0.587,0.288,0.587,0.588v5.181c0,1.02,0.672,1.607,1.655,1.607c0.996,0,1.643-0.588,1.643-1.607v-5.181
		c0-0.3,0.18-0.588,0.588-0.588h0.336c0.408,0,0.588,0.288,0.588,0.588v5.156c0,1.896-1.212,3.07-3.155,3.07
		C33.251,53.719,32.04,52.556,32.04,50.649"/>
	<path clip-path="url(#SVGID_2_)" fill="#FFFFFF" d="M47.157,52.832c0.263,0.384,0.011,0.792-0.444,0.792h-0.492
		c-0.228,0-0.468-0.132-0.599-0.324l-1.956-3.046h-1.355v2.794c0,0.301-0.18,0.576-0.587,0.576h-0.349
		c-0.407,0-0.599-0.275-0.599-0.576v-7.555c0-0.3,0.192-0.588,0.599-0.588h2.807c1.703,0,2.842,1.115,2.842,2.686
		c0,1.272-0.791,2.171-1.762,2.472L47.157,52.832z M42.311,46.368v2.458h1.787c0.888,0,1.356-0.479,1.356-1.187
		c0-0.756-0.48-1.271-1.284-1.271H42.311z"/>
	<path clip-path="url(#SVGID_2_)" fill="#FFFFFF" d="M50.567,51.38l-0.708,1.799c-0.108,0.288-0.348,0.444-0.6,0.444h-0.492
		c-0.347,0-0.575-0.276-0.431-0.647l2.866-7.567c0.119-0.312,0.3-0.504,0.683-0.504h0.372c0.384,0,0.54,0.191,0.66,0.504l2.89,7.579
		c0.133,0.336-0.035,0.636-0.431,0.636h-0.528c-0.264,0-0.492-0.144-0.6-0.432l-0.671-1.812H50.567z M51.07,49.917h1.968
		l-0.972-2.878L51.07,49.917z"/>
	<path clip-path="url(#SVGID_2_)" fill="#FFFFFF" d="M58.067,53.624c-0.408,0-0.588-0.276-0.588-0.576v-7.555
		c0-0.3,0.18-0.588,0.588-0.588h2.471c1.57,0,2.626,1.007,2.626,2.471c0,0.491-0.275,1.019-0.611,1.331
		c0.876,0.324,1.511,1.295,1.511,2.302c0,1.584-1.091,2.615-2.674,2.615H58.067z M59.002,48.43h1.907
		c0.372-0.107,0.721-0.527,0.732-0.983c0.012-0.623-0.444-1.079-1.092-1.079h-1.548V48.43z M61.354,52.172
		c0.684,0,1.175-0.479,1.175-1.175c0-0.708-0.539-1.188-1.235-1.188h-2.291v2.363H61.354z"/>
	<path clip-path="url(#SVGID_2_)" fill="#FFFFFF" d="M66.563,53.624c-0.408,0-0.576-0.276-0.576-0.576v-7.555
		c0-0.3,0.192-0.588,0.576-0.588h0.348c0.384,0,0.576,0.288,0.576,0.588v6.656h3.454c0.3,0,0.576,0.18,0.576,0.575v0.323
		c0,0.396-0.276,0.576-0.576,0.576H66.563z"/>
	<path clip-path="url(#SVGID_2_)" fill="#FFFFFF" d="M74.351,46.368v2.015h2.699c0.335,0,0.6,0.216,0.6,0.588v0.287
		c0,0.372-0.265,0.588-0.6,0.588h-2.699v2.314h3.73c0.36,0,0.6,0.265,0.6,0.576v0.312c0,0.324-0.239,0.576-0.6,0.576h-4.653
		c-0.408,0-0.588-0.264-0.588-0.576v-7.555c0-0.312,0.18-0.588,0.588-0.588h4.438c0.312,0,0.576,0.215,0.576,0.588v0.287
		c0,0.36-0.265,0.588-0.576,0.588H74.351z"/>
	<path clip-path="url(#SVGID_2_)" fill="#FFFFFF" d="M69.313,7.827c-0.151,0-0.303-0.045-0.436-0.139
		C63.195,3.64,56.501,1.5,49.521,1.5c-6.771,0-13.298,2.023-18.875,5.85c-0.342,0.235-0.808,0.148-1.043-0.194
		c-0.234-0.342-0.148-0.809,0.194-1.043C35.625,2.114,42.444,0,49.521,0c7.294,0,14.29,2.236,20.229,6.466
		c0.337,0.24,0.416,0.709,0.176,1.046C69.778,7.718,69.548,7.827,69.313,7.827"/>
	<path clip-path="url(#SVGID_2_)" fill="#FFFFFF" d="M49.52,69.833c-7.076,0-13.896-2.114-19.724-6.112
		c-0.341-0.234-0.428-0.702-0.194-1.043c0.235-0.342,0.702-0.428,1.043-0.194c5.577,3.827,12.104,5.85,18.875,5.85
		c6.981,0,13.675-2.14,19.359-6.187c0.336-0.242,0.805-0.162,1.046,0.175c0.24,0.338,0.161,0.806-0.176,1.046
		C63.81,67.597,56.814,69.833,49.52,69.833"/>
</g>
</svg>
