<?xml version="1.0" encoding="utf-8"?>
<!-- Generator: Adobe Illustrator 16.0.4, SVG Export Plug-In . SVG Version: 6.00 Build 0)  -->
<!DOCTYPE svg PUBLIC "-//W3C//DTD SVG 1.1//EN" "http://www.w3.org/Graphics/SVG/1.1/DTD/svg11.dtd">
<svg version="1.1" id="Layer_1" xmlns="http://www.w3.org/2000/svg" xmlns:xlink="http://www.w3.org/1999/xlink" x="0px" y="0px"
	 width="224.661px" height="33.391px" viewBox="0 0 224.661 33.391" style="enable-background:new 0 0 224.661 33.391;"
	 xml:space="preserve">
<g>
	<defs>
		<rect id="SVGID_1_" width="224.661" height="33.391"/>
	</defs>
	<clipPath id="SVGID_2_">
		<use xlink:href="#SVGID_1_"  style="overflow:visible;"/>
	</clipPath>
	<path style="clip-path:url(#SVGID_2_);fill:#FFFFFF;" d="M189.631,25.732c0.202-2.097,0.464-4.066,0.314-6.063
		c-0.021-0.272,0.01-0.55,0.012-0.825c0.012-2.031,0.137-4.069-0.009-6.089c-0.094-1.291,0.131-2.54,0.104-3.809
		c-0.014-0.596-0.071-1.192-0.114-1.788c-0.008-0.118-0.081-0.241-0.06-0.35c0.353-1.797-0.046-3.583-0.063-5.373
		c-0.012-1.241,0.275-1.516,1.479-1.414c0.628,0.053,1.256,0.183,1.866,0.345c1.549,0.41,2.314,1.57,2.784,2.999
		c0.146,0.444,0.376,0.865,0.48,1.316c0.462,2.004-0.023,3.868-0.914,5.658c-0.298,0.598-0.635,1.178-0.934,1.729
		c0.894,0.59,1.737,1.096,2.524,1.677c1.399,1.032,2.275,2.432,2.65,4.124c0.146,0.658,0.172,1.343,0.264,2.013
		c0.377,2.755-0.952,4.768-2.893,6.463c-1.982,1.733-4.31,2.147-6.825,1.496c-1.118-0.289-2.25-0.59-3.301-1.055
		c-0.898-0.396-1.719-0.994-2.517-1.581c-0.543-0.399-0.576-0.864-0.244-1.222c0.397-0.43,0.974-0.41,1.435,0.121
		C186.687,25.273,187.998,25.685,189.631,25.732 M191.709,13.683c-0.416,0.344-0.305,0.753-0.256,1.142
		c0.043,0.355,0.158,0.708,0.155,1.06c-0.031,2.948-0.074,5.895-0.132,8.842c-0.012,0.559-0.054,1.106,0.286,1.539
		c2.541,0.791,6.428-1.947,6.632-5.253c0.104-1.675-0.167-3.278-1.104-4.681C195.989,14.385,194.044,13.661,191.709,13.683
		 M191.592,11.816c0.975-0.457,1.585-0.895,2.027-1.506c1.344-1.857,1.725-3.888,0.957-6.082c-0.45-1.289-1.121-2.369-2.642-2.571
		c-0.47-0.062-0.707,0.109-0.671,0.567c0.034,0.436,0.166,0.865,0.18,1.3c0.04,1.267,0.045,2.535,0.058,3.802
		c0.004,0.434-0.019,0.868-0.009,1.302C191.516,9.602,191.553,10.577,191.592,11.816"/>
	<path style="clip-path:url(#SVGID_2_);fill:#FFFFFF;" d="M165.421,19.592c0.064,1.148,0.89,1.853,1.5,2.668
		c0.451,0.603,1.107,1.064,1.495,1.698c0.549,0.897,0.964,1.883,1.375,2.855c0.149,0.351-0.017,0.784-0.403,0.878
		c-0.249,0.062-0.669-0.073-0.838-0.269c-0.646-0.754-1.228-1.565-1.826-2.36c-0.981-1.304-1.957-2.612-2.899-3.87
		c-0.323,0-0.54-0.055-0.714,0.008c-1.218,0.447-2.493,0.434-3.754,0.479c-0.631,0.022-1.266-0.126-1.9-0.17
		c-0.556-0.039-1.117-0.026-1.674-0.062c-0.562-0.036-0.89,0.224-1.108,0.723c-0.449,1.021-0.91,2.038-1.399,3.04
		c-0.368,0.75-0.788,1.475-1.189,2.209c-0.076,0.138-0.146,0.315-0.269,0.385c-0.19,0.107-0.474,0.245-0.626,0.174
		c-0.159-0.075-0.304-0.385-0.291-0.583c0.02-0.35,0.131-0.705,0.262-1.036c0.337-0.851,0.686-1.699,1.063-2.532
		c0.842-1.85,1.761-3.667,2.54-5.543c0.811-1.948,1.493-3.949,2.233-5.927c0.383-1.022-0.093-1.865-0.557-2.713
		c-0.688-1.257-1.53-2.46-1.998-3.794c-0.326-0.929-0.307-2.07-0.128-3.061c0.198-1.1,1.835-1.722,2.962-1.294
		c0.608,0.231,1.124,0.625,1.443,1.204c0.625,1.135,1.075,2.338,0.958,3.656c-0.099,1.109-0.258,2.217-0.462,3.311
		c-0.115,0.614-0.094,1.116,0.211,1.707c1.086,2.098,2.487,3.988,3.771,5.956c0.107,0.166,0.27,0.304,0.353,0.48
		C163.94,18.638,164.534,19.254,165.421,19.592 M162.486,19.379c-0.783-1.075-1.558-1.988-2.155-3.004
		c-0.594-1.008-1.035-2.103-2.133-2.981c-0.518,2.23-1.759,4.055-2.118,6.249C158.229,20.111,160.28,20.507,162.486,19.379
		 M157.706,8.346c0.194-0.481,0.338-0.687,0.351-0.9c0.044-0.747,0.055-1.497,0.054-2.246c0-0.75-0.325-1.387-0.794-1.94
		c-0.249-0.294-0.556-0.616-1.018-0.409c-0.434,0.195-0.478,0.573-0.426,1.001C156.06,5.42,156.782,6.759,157.706,8.346"/>
	<path style="clip-path:url(#SVGID_2_);fill:#FFFFFF;" d="M205.04,25.202c0.081,2.352-0.396,4.589-0.052,6.847
		c0.087,0.572-0.184,0.983-0.675,1.071c-0.504,0.09-0.941-0.201-1-0.762c-0.079-0.752-0.104-1.511-0.104-2.269
		c0.001-0.836,0.051-1.673,0.092-2.509c0.039-0.795,0.112-1.589,0.136-2.384c0.033-1.114,0.028-2.229,0.05-3.344
		c0.032-1.553,0.086-3.105,0.108-4.658c0.027-1.872,0.033-3.745,0.046-5.617c0.005-0.753,0-1.506,0-2.25
		c1.289-0.852,2.415-0.362,3.373,0.358c0.745,0.56,1.288,1.394,1.901,2.123c0.119,0.142,0.177,0.355,0.212,0.545
		c0.331,1.785,0.309,3.554-0.039,5.349c-0.343,1.768-1.283,3.151-2.442,4.437c-0.638,0.706-0.599,0.665-0.146,1.513
		c0.796,1.488,2.055,2.619,2.98,3.997c0.953,1.419,1.805,2.907,2.664,4.387c0.117,0.201,0.09,0.551,0.008,0.792
		c-0.202,0.593-0.796,0.758-1.21,0.3c-0.422-0.465-0.79-1.003-1.081-1.562c-1.185-2.281-2.745-4.294-4.387-6.252
		C205.436,25.267,205.331,25.274,205.04,25.202 M205.298,21.291c0.681-0.787,1.229-1.443,1.608-2.229
		c0.615-1.281,0.874-2.668,0.882-4.059c0.007-1.135-0.085-2.325-0.85-3.291c-0.463-0.585-1.086-0.922-1.801-1.122
		c-0.035,1.83-0.259,3.59-0.048,5.296C205.304,17.623,204.565,19.353,205.298,21.291"/>
	<path style="clip-path:url(#SVGID_2_);fill:#FFFFFF;" d="M222.845,15.215c-0.108,0.34-0.213,0.671-0.346,1.088
		c-0.867,0.11-1.726,0.238-2.588,0.323c-0.716,0.071-1.438,0.07-2.153,0.138c-0.7,0.067-0.831,0.194-0.883,0.882
		c-0.046,0.596-0.026,1.197-0.032,1.797c-0.012,1.157-0.026,2.313-0.026,3.472c0,0.192,0.066,0.383,0.103,0.575
		c1.048,0.682,2.184,0.334,3.259,0.369c1.063,0.035,2.135-0.109,3.203-0.126c0.296-0.005,0.643,0.092,0.883,0.261
		c0.605,0.426,0.502,1.117-0.192,1.36c-0.331,0.114-0.7,0.181-1.05,0.175c-1.354-0.026-2.707-0.097-4.061-0.136
		c-0.478-0.015-0.957-0.004-1.435,0.019c-0.237,0.011-0.472,0.09-0.709,0.108c-1.379,0.103-1.61-0.089-1.605-1.503
		c0.006-1.555,0.074-3.109,0.107-4.663c0.007-0.316-0.012-0.634-0.032-0.949c-0.111-1.636-0.088-3.262,0.179-4.888
		c0.088-0.539,0.033-1.115-0.04-1.662c-0.191-1.415-0.416-2.825-0.414-4.258c0.001-1.069,0.166-1.293,1.165-1.418
		c2.008-0.251,4.018-0.488,6.029-0.694c0.385-0.04,0.796,0.049,1.179,0.145c0.85,0.213,0.846,0.23,0.826,1.296
		c-0.551,0.517-1.252,0.42-1.916,0.38c-1.642-0.099-3.269,0.047-4.895,0.234c-0.193,0.023-0.383,0.088-0.709,0.166
		c-0.015,0.379-0.104,0.774-0.033,1.136c0.349,1.731,0.575,3.46,0.314,5.227c-0.039,0.264,0.053,0.546,0.082,0.807
		c0.62,0.429,1.282,0.262,1.897,0.224c0.742-0.046,1.483-0.197,2.213-0.355C221.807,14.606,222.336,14.743,222.845,15.215"/>
	<path style="clip-path:url(#SVGID_2_);fill:#FFFFFF;" d="M172.277,12.199c1.237,0.373,1.216,0.372,1.172,1.329
		c-0.036,0.796-0.028,1.594-0.009,2.391c0.005,0.21,0.126,0.418,0.258,0.824c0.197-0.386,0.286-0.589,0.399-0.778
		c0.614-1.023,1.086-2.182,1.885-3.034c1.425-1.518,3.966-2.218,5.742-0.458c0.692,0.686,0.726,0.719,0.198,1.721
		c-0.497,0.163-0.888,0.009-1.294-0.335c-1.157-0.979-2.681-0.743-3.652,0.414c-0.688,0.822-1.074,1.756-1.391,2.747
		c-0.387,1.214-0.882,2.403-1.155,3.641c-0.193,0.877-0.084,1.818-0.132,2.73c-0.041,0.792-0.032,1.6-0.198,2.369
		c-0.096,0.443-0.491,0.824-0.75,1.23c-0.954-0.314-0.959-0.323-0.989-1.175c-0.105-2.989-0.152-5.98-0.352-8.963
		c-0.074-1.121-0.064-2.226-0.008-3.336C172.023,13.101,172.17,12.692,172.277,12.199"/>
	<path style="clip-path:url(#SVGID_2_);fill:#FFFFFF;" d="M5.493,25.236c0.469,0.28,0.485,0.31,0.393,0.689
		c-0.229,0.937-1.197,1.456-2.114,1.129c-0.855-0.308-1.395-0.929-1.691-1.765c-0.092-0.262-0.135-0.544-0.171-0.82
		c-0.142-1.107-0.271-2.218-0.409-3.324c-0.01-0.089-0.047-0.175-0.077-0.282c-0.408,0.01-0.533,0.442-0.872,0.517
		c-0.244-0.068-0.368-0.225-0.267-0.469c0.095-0.232,0.224-0.453,0.354-0.669c0.154-0.257,0.334-0.498,0.487-0.755
		c0.308-0.513,0.368-1.068,0.334-1.671c-0.08-1.418-0.1-2.838-0.144-4.257c-0.016-0.511,0.003-1.025-0.057-1.531
		c-0.111-0.935-0.01-1.858,0.047-2.784C1.353,8.476,1.44,7.72,1.899,7.062c0.322-0.459,0.632-0.65,1.274-0.167
		c0.366,0.276,0.634,0.627,0.799,1.052c0.244,0.631,0.436,1.272,0.495,1.951c0.091,1.048,0.173,2.103-0.047,3.126
		c-0.262,1.215-0.314,2.486-0.897,3.625c-0.368,0.717-0.654,1.476-0.969,2.22c-0.062,0.147-0.125,0.308-0.129,0.463
		c-0.02,0.939-0.198,1.876,0.136,2.817c0.137,0.385,0.101,0.827,0.161,1.241c0.097,0.67,0.205,1.338,0.539,1.945
		c0.226,0.41,0.513,0.721,1.035,0.717c0.276-0.004,0.496-0.07,0.678-0.279C5.139,25.583,5.323,25.411,5.493,25.236 M2.66,7.687
		C2.368,8.375,2.204,8.993,2.181,9.642c-0.028,0.831-0.1,1.653,0.016,2.497c0.119,0.867,0.052,1.756,0.085,2.634
		c0.021,0.566,0.076,1.13,0.125,1.823c0.315-0.319,0.448-0.567,0.518-0.86c0.191-0.809,0.397-1.615,0.579-2.426
		c0.34-1.512,0.388-3.023-0.067-4.543C3.31,8.341,3.083,8.022,2.66,7.687"/>
	<path style="clip-path:url(#SVGID_2_);fill:none;stroke:#FFFFFF;stroke-width:0.5;stroke-miterlimit:10;" d="M5.493,25.236
		c0.469,0.28,0.485,0.31,0.393,0.689c-0.229,0.937-1.197,1.456-2.114,1.129c-0.855-0.308-1.395-0.929-1.691-1.765
		c-0.092-0.262-0.135-0.544-0.171-0.82c-0.142-1.107-0.271-2.218-0.409-3.324c-0.01-0.089-0.047-0.175-0.077-0.282
		c-0.408,0.01-0.533,0.442-0.872,0.517c-0.244-0.068-0.368-0.225-0.267-0.469c0.095-0.232,0.224-0.453,0.354-0.669
		c0.154-0.257,0.334-0.498,0.487-0.755c0.308-0.513,0.368-1.068,0.334-1.671c-0.08-1.418-0.1-2.838-0.144-4.257
		c-0.016-0.511,0.003-1.025-0.057-1.531c-0.111-0.935-0.01-1.858,0.047-2.784C1.353,8.476,1.44,7.72,1.899,7.062
		c0.322-0.459,0.632-0.65,1.274-0.167c0.366,0.276,0.634,0.627,0.799,1.052c0.244,0.631,0.436,1.272,0.495,1.951
		c0.091,1.048,0.173,2.103-0.047,3.126c-0.262,1.215-0.314,2.486-0.897,3.625c-0.368,0.717-0.654,1.476-0.969,2.22
		c-0.062,0.147-0.125,0.308-0.129,0.463c-0.02,0.939-0.198,1.876,0.136,2.817c0.137,0.385,0.101,0.827,0.161,1.241
		c0.097,0.67,0.205,1.338,0.539,1.945c0.226,0.41,0.513,0.721,1.035,0.717c0.276-0.004,0.496-0.07,0.678-0.279
		C5.139,25.583,5.323,25.411,5.493,25.236z M2.66,7.687C2.368,8.375,2.204,8.993,2.181,9.642c-0.028,0.831-0.1,1.653,0.016,2.497
		c0.119,0.867,0.052,1.756,0.085,2.634c0.021,0.566,0.076,1.13,0.125,1.823c0.315-0.319,0.448-0.567,0.518-0.86
		c0.191-0.809,0.397-1.615,0.579-2.426c0.34-1.512,0.388-3.023-0.067-4.543C3.31,8.341,3.083,8.022,2.66,7.687z"/>
	<path style="clip-path:url(#SVGID_2_);fill:#FFFFFF;" d="M141.562,25.082c0.507,0.343,0.523,0.377,0.396,0.796
		c-0.313,1.036-1.43,1.56-2.436,1.136c-0.94-0.396-1.508-1.124-1.787-2.08c-0.088-0.299-0.119-0.618-0.142-0.93
		c-0.092-1.25-0.169-2.5-0.255-3.75c-0.007-0.1-0.042-0.199-0.069-0.321c-0.457-0.013-0.624,0.463-1.01,0.527
		c-0.268-0.093-0.397-0.275-0.271-0.542c0.122-0.255,0.279-0.495,0.438-0.729c0.188-0.277,0.403-0.536,0.593-0.814
		c0.376-0.557,0.478-1.174,0.476-1.853c-0.004-1.593,0.062-3.186,0.1-4.778c0.013-0.573,0.065-1.148,0.028-1.719
		c-0.066-1.054,0.104-2.082,0.225-3.116c0.099-0.858,0.243-1.7,0.798-2.408c0.388-0.495,0.748-0.691,1.438-0.11
		c0.394,0.332,0.672,0.742,0.83,1.228c0.235,0.722,0.411,1.451,0.437,2.216c0.037,1.179,0.064,2.368-0.244,3.499
		c-0.368,1.347-0.504,2.767-1.229,4.008c-0.454,0.78-0.821,1.614-1.221,2.427c-0.078,0.161-0.159,0.336-0.173,0.512
		c-0.08,1.051-0.337,2.091-0.02,3.165c0.13,0.439,0.062,0.933,0.104,1.399c0.067,0.756,0.147,1.512,0.485,2.214
		c0.227,0.475,0.529,0.838,1.114,0.865c0.311,0.014,0.562-0.047,0.777-0.271C141.143,25.45,141.359,25.267,141.562,25.082
		 M139.46,5.246c-0.368,0.753-0.591,1.435-0.655,2.162c-0.083,0.928-0.214,1.845-0.136,2.798c0.081,0.979-0.05,1.97-0.065,2.957
		c-0.011,0.635,0.016,1.271,0.028,2.05c0.371-0.339,0.536-0.608,0.633-0.931c0.264-0.896,0.544-1.786,0.798-2.684
		c0.473-1.673,0.62-3.364,0.203-5.094C140.148,6.018,139.914,5.646,139.46,5.246"/>
	<path style="clip-path:url(#SVGID_2_);fill:none;stroke:#FFFFFF;stroke-width:0.5;stroke-miterlimit:10;" d="M141.562,25.082
		c0.507,0.343,0.523,0.377,0.396,0.796c-0.313,1.036-1.43,1.56-2.436,1.136c-0.94-0.396-1.508-1.124-1.787-2.08
		c-0.088-0.299-0.119-0.618-0.142-0.93c-0.092-1.25-0.169-2.5-0.255-3.75c-0.007-0.1-0.042-0.199-0.069-0.321
		c-0.457-0.013-0.624,0.463-1.01,0.527c-0.268-0.093-0.397-0.275-0.271-0.542c0.122-0.255,0.279-0.495,0.438-0.729
		c0.188-0.277,0.403-0.536,0.593-0.814c0.376-0.557,0.478-1.174,0.476-1.853c-0.004-1.593,0.062-3.186,0.1-4.778
		c0.013-0.573,0.065-1.148,0.028-1.719c-0.066-1.054,0.104-2.082,0.225-3.116c0.099-0.858,0.243-1.7,0.798-2.408
		c0.388-0.495,0.748-0.691,1.438-0.11c0.394,0.332,0.672,0.742,0.83,1.228c0.235,0.722,0.411,1.451,0.437,2.216
		c0.037,1.179,0.064,2.368-0.244,3.499c-0.368,1.347-0.504,2.767-1.229,4.008c-0.454,0.78-0.821,1.614-1.221,2.427
		c-0.078,0.161-0.159,0.336-0.173,0.512c-0.08,1.051-0.337,2.091-0.02,3.165c0.13,0.439,0.062,0.933,0.104,1.399
		c0.067,0.756,0.147,1.512,0.485,2.214c0.227,0.475,0.529,0.838,1.114,0.865c0.311,0.014,0.562-0.047,0.777-0.271
		C141.143,25.45,141.359,25.267,141.562,25.082z M139.46,5.246c-0.368,0.753-0.591,1.435-0.655,2.162
		c-0.083,0.928-0.214,1.845-0.136,2.798c0.081,0.979-0.05,1.97-0.065,2.957c-0.011,0.635,0.016,1.271,0.028,2.05
		c0.371-0.339,0.536-0.608,0.633-0.931c0.264-0.896,0.544-1.786,0.798-2.684c0.473-1.673,0.62-3.364,0.203-5.094
		C140.148,6.018,139.914,5.646,139.46,5.246z"/>
	<path style="clip-path:url(#SVGID_2_);fill:#FFFFFF;" d="M113.665,10.34c-0.34-0.089-0.687-0.169-1.027-0.272
		c-0.245-0.074-0.499-0.149-0.719-0.276c-0.208-0.12-0.2-0.414,0.014-0.507c0.254-0.11,0.563-0.257,0.809-0.2
		c1.579,0.364,3.147,0.776,4.104,2.292c0.576,0.913,1.015,1.875,1.155,2.952c0.07,0.538,0.114,1.083,0.232,1.613
		c0.278,1.244-0.031,2.41-0.328,3.588c-0.353,1.407-1.295,2.342-2.382,3.202c-0.789,0.625-1.691,0.933-2.67,1.167
		c-0.065-0.058-0.153-0.116-0.218-0.193c-0.385-0.462-0.31-0.787,0.23-0.989c0.096-0.035,0.198-0.06,0.3-0.065
		c0.898-0.049,1.619-0.56,2.255-1.063c0.551-0.438,1.058-1.021,1.31-1.761c0.804-2.354,0.546-4.664-0.279-6.986
		c-0.286-0.802-0.745-1.415-1.415-1.903c-0.061-0.044-0.139-0.064-0.21-0.091c-0.021-0.008-0.05,0.002-0.171,0.011
		c-0.032,0.157-0.109,0.343-0.1,0.526c0.11,2.196,0.245,4.392,0.352,6.588c0.048,0.975,0.048,1.952,0.065,2.929
		c0.002,0.101-0.021,0.204-0.049,0.3c-0.081,0.264-0.223,0.47-0.535,0.469c-0.259-0.001-0.533-0.245-0.55-0.561
		c-0.029-0.542-0.016-1.087-0.014-1.63c0.007-1.449,0.02-2.897,0.023-4.345c0.002-0.54-0.004-1.081-0.026-1.621
		C113.78,12.507,113.724,11.501,113.665,10.34"/>
	<path style="clip-path:url(#SVGID_2_);fill:none;stroke:#FFFFFF;stroke-width:0.5;stroke-miterlimit:10;" d="M113.665,10.34
		c-0.34-0.089-0.687-0.169-1.027-0.272c-0.245-0.074-0.499-0.149-0.719-0.276c-0.208-0.12-0.2-0.414,0.014-0.507
		c0.254-0.11,0.563-0.257,0.809-0.2c1.579,0.364,3.147,0.776,4.104,2.292c0.576,0.913,1.015,1.875,1.155,2.952
		c0.07,0.538,0.114,1.083,0.232,1.613c0.278,1.244-0.031,2.41-0.328,3.588c-0.353,1.407-1.295,2.342-2.382,3.202
		c-0.789,0.625-1.691,0.933-2.67,1.167c-0.065-0.058-0.153-0.116-0.218-0.193c-0.385-0.462-0.31-0.787,0.23-0.989
		c0.096-0.035,0.198-0.06,0.3-0.065c0.898-0.049,1.619-0.56,2.255-1.063c0.551-0.438,1.058-1.021,1.31-1.761
		c0.804-2.354,0.546-4.664-0.279-6.986c-0.286-0.802-0.745-1.415-1.415-1.903c-0.061-0.044-0.139-0.064-0.21-0.091
		c-0.021-0.008-0.05,0.002-0.171,0.011c-0.032,0.157-0.109,0.343-0.1,0.526c0.11,2.196,0.245,4.392,0.352,6.588
		c0.048,0.975,0.048,1.952,0.065,2.929c0.002,0.101-0.021,0.204-0.049,0.3c-0.081,0.264-0.223,0.47-0.535,0.469
		c-0.259-0.001-0.533-0.245-0.55-0.561c-0.029-0.542-0.016-1.087-0.014-1.63c0.007-1.449,0.02-2.897,0.023-4.345
		c0.002-0.54-0.004-1.081-0.026-1.621C113.78,12.507,113.724,11.501,113.665,10.34z"/>
	<path style="clip-path:url(#SVGID_2_);fill:#FFFFFF;" d="M7.772,20.688c-0.297,0.017-0.5,0.029-0.702,0.035
		c-0.115,0.004-0.258,0.036-0.34-0.018c-0.127-0.084-0.283-0.226-0.295-0.352c-0.012-0.12,0.117-0.319,0.234-0.365
		c0.297-0.118,0.623-0.171,0.994-0.264c0.191-0.317,0.093-0.705,0.051-1.096c-0.091-0.833-0.178-1.668-0.23-2.503
		c-0.028-0.453,0.047-0.53,0.482-0.604c0.526-0.09,1.056-0.163,1.588-0.206c0.718-0.058,1.438-0.08,2.21-0.12
		c0.12,0.246,0.238,0.486,0.337,0.685c-0.171,0.306-0.403,0.232-0.602,0.245c-0.745,0.045-1.49,0.078-2.233,0.136
		c-0.295,0.024-0.585,0.103-0.918,0.164c-0.002,0.275-0.03,0.505-0.001,0.73c0.086,0.669,0.191,1.336,0.296,2.002
		c0.061,0.389,0.171,0.48,0.558,0.449c0.463-0.035,0.925-0.09,1.387-0.136c0.621-0.062,0.674-0.031,1.007,0.61
		c-0.115,0.295-0.391,0.268-0.638,0.296c-0.71,0.081-1.419,0.161-2.154,0.244c-0.13,0.471-0.065,0.93-0.043,1.385
		c0.009,0.182,0.05,0.364,0.058,0.547c0.021,0.485,0.161,0.625,0.652,0.562c0.802-0.103,1.602-0.23,2.402-0.349
		c0.069-0.01,0.136-0.034,0.205-0.045c0.411-0.064,0.441-0.049,0.624,0.363c0.037,0.082,0.059,0.171,0.096,0.282
		c-0.421,0.356-0.938,0.408-1.43,0.479c-0.711,0.1-1.43,0.145-2.147,0.207c-0.115,0.01-0.233,0.005-0.349-0.003
		c-0.818-0.056-0.893-0.126-0.957-0.954c-0.038-0.483-0.049-0.97-0.076-1.454C7.822,21.367,7.8,21.091,7.772,20.688"/>
	<path style="clip-path:url(#SVGID_2_);fill:none;stroke:#FFFFFF;stroke-width:0.5;stroke-miterlimit:10;" d="M7.772,20.688
		c-0.297,0.017-0.5,0.029-0.702,0.035c-0.115,0.004-0.258,0.036-0.34-0.018c-0.127-0.084-0.283-0.226-0.295-0.352
		c-0.012-0.12,0.117-0.319,0.234-0.365c0.297-0.118,0.623-0.171,0.994-0.264c0.191-0.317,0.093-0.705,0.051-1.096
		c-0.091-0.833-0.178-1.668-0.23-2.503c-0.028-0.453,0.047-0.53,0.482-0.604c0.526-0.09,1.056-0.163,1.588-0.206
		c0.718-0.058,1.438-0.08,2.21-0.12c0.12,0.246,0.238,0.486,0.337,0.685c-0.171,0.306-0.403,0.232-0.602,0.245
		c-0.745,0.045-1.49,0.078-2.233,0.136c-0.295,0.024-0.585,0.103-0.918,0.164c-0.002,0.275-0.03,0.505-0.001,0.73
		c0.086,0.669,0.191,1.336,0.296,2.002c0.061,0.389,0.171,0.48,0.558,0.449c0.463-0.035,0.925-0.09,1.387-0.136
		c0.621-0.062,0.674-0.031,1.007,0.61c-0.115,0.295-0.391,0.268-0.638,0.296c-0.71,0.081-1.419,0.161-2.154,0.244
		c-0.13,0.471-0.065,0.93-0.043,1.385c0.009,0.182,0.05,0.364,0.058,0.547c0.021,0.485,0.161,0.625,0.652,0.562
		c0.802-0.103,1.602-0.23,2.402-0.349c0.069-0.01,0.136-0.034,0.205-0.045c0.411-0.064,0.441-0.049,0.624,0.363
		c0.037,0.082,0.059,0.171,0.096,0.282c-0.421,0.356-0.938,0.408-1.43,0.479c-0.711,0.1-1.43,0.145-2.147,0.207
		c-0.115,0.01-0.233,0.005-0.349-0.003c-0.818-0.056-0.893-0.126-0.957-0.954c-0.038-0.483-0.049-0.97-0.076-1.454
		C7.822,21.367,7.8,21.091,7.772,20.688z"/>
	<path style="clip-path:url(#SVGID_2_);fill:#FFFFFF;" d="M121.314,18.145c-0.333-0.001-0.561,0.002-0.788-0.003
		c-0.13-0.004-0.291,0.023-0.381-0.042c-0.137-0.102-0.302-0.269-0.309-0.412c-0.006-0.134,0.152-0.351,0.285-0.395
		c0.341-0.114,0.708-0.152,1.13-0.233c0.233-0.346,0.148-0.786,0.124-1.225c-0.052-0.94-0.098-1.88-0.104-2.819
		c-0.004-0.509,0.085-0.591,0.577-0.648c0.595-0.068,1.193-0.118,1.792-0.133c0.808-0.021,1.616-0.001,2.483,0.001
		c0.12,0.283,0.238,0.559,0.336,0.788c-0.21,0.332-0.465,0.235-0.69,0.237c-0.837,0.006-1.674-0.004-2.51,0.017
		c-0.332,0.008-0.662,0.079-1.039,0.127c-0.019,0.307-0.063,0.564-0.046,0.817c0.056,0.755,0.132,1.509,0.209,2.262
		c0.045,0.44,0.163,0.549,0.598,0.539c0.521-0.012,1.042-0.045,1.563-0.068c0.699-0.032,0.757,0.007,1.091,0.745
		c-0.146,0.324-0.455,0.276-0.733,0.292c-0.8,0.048-1.6,0.093-2.428,0.143c-0.175,0.52-0.13,1.037-0.134,1.55
		c-0.001,0.205,0.034,0.411,0.032,0.614c-0.006,0.547,0.142,0.712,0.696,0.672c0.905-0.066,1.809-0.16,2.713-0.243
		c0.078-0.008,0.153-0.03,0.231-0.038c0.465-0.048,0.497-0.028,0.677,0.445c0.037,0.094,0.057,0.194,0.092,0.32
		c-0.494,0.374-1.076,0.402-1.634,0.449c-0.802,0.068-1.61,0.074-2.417,0.101c-0.13,0.006-0.262-0.009-0.391-0.024
		c-0.913-0.113-0.994-0.195-1.014-1.127c-0.013-0.545,0.004-1.09,0.004-1.635C121.33,18.908,121.322,18.598,121.314,18.145"/>
	<path style="clip-path:url(#SVGID_2_);fill:none;stroke:#FFFFFF;stroke-width:0.5;stroke-miterlimit:10;" d="M121.314,18.145
		c-0.333-0.001-0.561,0.002-0.788-0.003c-0.13-0.004-0.291,0.023-0.381-0.042c-0.137-0.102-0.302-0.269-0.309-0.412
		c-0.006-0.134,0.152-0.351,0.285-0.395c0.341-0.114,0.708-0.152,1.13-0.233c0.233-0.346,0.148-0.786,0.124-1.225
		c-0.052-0.94-0.098-1.88-0.104-2.819c-0.004-0.509,0.085-0.591,0.577-0.648c0.595-0.068,1.193-0.118,1.792-0.133
		c0.808-0.021,1.616-0.001,2.483,0.001c0.12,0.283,0.238,0.559,0.336,0.788c-0.21,0.332-0.465,0.235-0.69,0.237
		c-0.837,0.006-1.674-0.004-2.51,0.017c-0.332,0.008-0.662,0.079-1.039,0.127c-0.019,0.307-0.063,0.564-0.046,0.817
		c0.056,0.755,0.132,1.509,0.209,2.262c0.045,0.44,0.163,0.549,0.598,0.539c0.521-0.012,1.042-0.045,1.563-0.068
		c0.699-0.032,0.757,0.007,1.091,0.745c-0.146,0.324-0.455,0.276-0.733,0.292c-0.8,0.048-1.6,0.093-2.428,0.143
		c-0.175,0.52-0.13,1.037-0.134,1.55c-0.001,0.205,0.034,0.411,0.032,0.614c-0.006,0.547,0.142,0.712,0.696,0.672
		c0.905-0.066,1.809-0.16,2.713-0.243c0.078-0.008,0.153-0.03,0.231-0.038c0.465-0.048,0.497-0.028,0.677,0.445
		c0.037,0.094,0.057,0.194,0.092,0.32c-0.494,0.374-1.076,0.402-1.634,0.449c-0.802,0.068-1.61,0.074-2.417,0.101
		c-0.13,0.006-0.262-0.009-0.391-0.024c-0.913-0.113-0.994-0.195-1.014-1.127c-0.013-0.545,0.004-1.09,0.004-1.635
		C121.33,18.908,121.322,18.598,121.314,18.145z"/>
	<path style="clip-path:url(#SVGID_2_);fill:#FFFFFF;" d="M146.54,10.505c-0.169,0.136-0.355,0.287-0.546,0.441
		c-0.631-0.35-0.618-0.358-0.461-0.985c0.141-0.565,0.225-1.146,0.348-1.717c0.043-0.198,0.123-0.389,0.196-0.579
		c0.085-0.223,0.245-0.32,0.484-0.249c0.248,0.072,0.298,0.244,0.27,0.48C146.728,8.759,146.637,9.625,146.54,10.505"/>
	<path style="clip-path:url(#SVGID_2_);fill:none;stroke:#FFFFFF;stroke-miterlimit:10;" d="M146.54,10.505
		c-0.169,0.136-0.355,0.287-0.546,0.441c-0.631-0.35-0.618-0.358-0.461-0.985c0.141-0.565,0.225-1.146,0.348-1.717
		c0.043-0.198,0.123-0.389,0.196-0.579c0.085-0.223,0.245-0.32,0.484-0.249c0.248,0.072,0.298,0.244,0.27,0.48
		C146.728,8.759,146.637,9.625,146.54,10.505z"/>
	<path style="clip-path:url(#SVGID_2_);fill:#FFFFFF;" d="M46.055,8.384c0.251,0.086,0.505,0.211,0.718-0.068
		c0.019-0.025,0.082-0.041,0.109-0.029c0.421,0.202,0.824-0.061,1.239-0.041c0.371,0.018,0.745,0.023,1.116,0.011
		c0.165-0.005,0.328-0.067,0.531-0.112c0.24,0.098,0.542,0.203,0.827,0.343c0.129,0.063,0.217,0.203,0.338,0.289
		c0.076,0.053,0.176,0.078,0.269,0.103c0.085,0.023,0.187,0.006,0.259,0.047c0.524,0.297,1.053,0.587,1.557,0.916
		c0.227,0.149,0.397,0.383,0.599,0.571c0.106,0.099,0.226,0.182,0.295,0.236c0.16,0.317,0.252,0.654,0.462,0.877
		c0.284,0.3,0.324,0.662,0.41,1.015c0.093,0.381,0.165,0.772,0.198,1.162c0.027,0.318-0.011,0.642-0.032,0.962
		c-0.014,0.202-0.044,0.401-0.077,0.6c-0.009,0.053-0.057,0.099-0.08,0.151c-0.051,0.112-0.149,0.231-0.137,0.337
		c0.045,0.37-0.222,0.606-0.341,0.904c-0.342,0.856-0.971,1.512-1.538,2.208c-0.195,0.239-0.479,0.402-0.702,0.621
		c-0.23,0.226-0.45,0.465-0.641,0.724c-0.061,0.081-0.036,0.239-0.021,0.359c0.038,0.306,0.095,0.608,0.139,0.912
		c0.023,0.159,0.02,0.322,0.052,0.479c0.069,0.344,0.16,0.683,0.229,1.027c0.082,0.404,0.362,0.702,0.595,1.004
		c0.244,0.318,0.481,0.7,0.948,0.774c0.081,0.013,0.149,0.095,0.23,0.119c0.117,0.033,0.277,0.1,0.353,0.051
		c0.22-0.14,0.414-0.325,0.607-0.505c0.316-0.293,0.532-0.656,0.705-1.048c0.02-0.045,0.087-0.091,0.137-0.099
		c0.282-0.04,0.509-0.146,0.613-0.435c0.01-0.029,0.058-0.055,0.092-0.062c0.413-0.09,0.885,0.407,0.775,0.81
		c-0.136,0.496-0.257,0.997-0.404,1.489c-0.042,0.141-0.154,0.261-0.235,0.39c-0.251,0.404-0.591,0.745-0.993,0.967
		c-0.277,0.152-0.653,0.178-0.981,0.169c-0.397-0.012-0.799-0.094-1.184-0.199c-0.267-0.072-0.529-0.211-0.758-0.369
		c-0.325-0.229-0.615-0.508-0.927-0.755c-0.118-0.094-0.297-0.133-0.38-0.245c-0.207-0.283-0.383-0.591-0.556-0.896
		c-0.097-0.17-0.172-0.354-0.238-0.54c-0.322-0.895-0.454-1.824-0.491-2.772c-0.017-0.438-0.094-0.474-0.513-0.372
		c-0.175,0.042-0.357,0.055-0.533,0.096c-0.107,0.024-0.27,0.051-0.299,0.122c-0.07,0.167-0.108,0.363-0.1,0.544
		c0.024,0.5,0.19,0.976,0.182,1.495c-0.014,0.996,0.052,1.996,0.152,2.987c0.031,0.312,0.106,0.621,0.111,0.944
		c0.005,0.409-0.407,0.8-0.798,0.876c-0.306,0.061-0.524-0.064-0.739-0.178c-0.117-0.062-0.186-0.294-0.2-0.456
		c-0.041-0.499-0.035-1.001-0.066-1.502c-0.021-0.35-0.083-0.697-0.103-1.047c-0.013-0.233,0.031-0.469,0.023-0.702
		c-0.028-0.833-0.067-1.665-0.103-2.497c-0.012-0.283-0.016-0.568-0.04-0.851c-0.034-0.4-0.103-0.799-0.121-1.199
		c-0.027-0.585-0.022-1.172-0.03-1.759c0-0.028,0.023-0.065,0.013-0.085c-0.184-0.346-0.117-0.724-0.147-1.091
		c-0.019-0.242-0.105-0.484-0.091-0.722c0.04-0.66-0.047-1.303-0.148-1.952c-0.079-0.51-0.059-1.035-0.102-1.551
		c-0.036-0.44-0.086-0.88-0.155-1.315c-0.043-0.264-0.18-0.314-0.43-0.197c-0.523,0.244-1.042,0.497-1.569,0.733
		c-0.305,0.137-0.577-0.062-0.86-0.126c-0.118-0.026-0.226-0.1-0.344-0.119c-0.204-0.033-0.317-0.114-0.311-0.343
		c0.013-0.478,0.377-1.004,0.932-1.013c0.101-0.001,0.213-0.054,0.299-0.114c0.588-0.412,1.275-0.609,1.927-0.878
		c0.15-0.062,0.324-0.065,0.487-0.095C46.061,8.441,46.059,8.412,46.055,8.384 M53.248,14.139c-0.005-0.673-0.134-1.321-0.424-1.925
		c-0.108-0.225-0.293-0.413-0.447-0.615c-0.069-0.091-0.135-0.191-0.224-0.259c-0.426-0.321-0.86-0.632-1.29-0.947
		c-0.341-0.248-0.645-0.607-1.143-0.359c-0.027,0.013-0.073-0.018-0.11-0.019c-0.416-0.011-0.833-0.034-1.248-0.023
		c-0.232,0.006-0.463,0.062-0.691,0.111c-0.063,0.015-0.159,0.085-0.163,0.136c-0.017,0.249-0.031,0.502-0.007,0.75
		c0.088,0.883,0.167,1.769,0.301,2.645c0.077,0.51,0,1.026,0.121,1.533c0.067,0.277,0.024,0.579,0.074,0.863
		c0.124,0.713,0.171,1.432,0.128,2.151c-0.034,0.574,0.353,0.924,0.928,0.784c0.399-0.098,0.789-0.228,1.18-0.353
		c0.158-0.051,0.319-0.107,0.457-0.195c0.333-0.212,0.655-0.44,0.977-0.666c0.08-0.057,0.161-0.121,0.213-0.2
		c0.22-0.333,0.429-0.672,0.639-1.011c0.036-0.057,0.059-0.122,0.083-0.185c0.091-0.248,0.146-0.517,0.278-0.74
		C53.153,15.154,53.271,14.667,53.248,14.139"/>
	<path style="clip-path:url(#SVGID_2_);fill:#FFFFFF;" d="M28.216,23.938c0,0.408-0.004,0.867,0.001,1.326
		c0.005,0.523,0.008,1.048,0.035,1.571c0.01,0.188,0.117,0.371,0.125,0.56c0.019,0.463,0.006,0.926,0.006,1.394
		c-0.564,0.18-1.053,0.262-1.513-0.074c-0.08-0.059-0.159-0.176-0.163-0.269c-0.016-0.345-0.105-0.69,0.097-1.033
		c0.083-0.139,0.085-0.385,0.021-0.541c-0.213-0.518-0.092-1.038-0.093-1.562c0-0.459-0.062-0.917-0.093-1.376
		c-0.016-0.231-0.018-0.463-0.037-0.694c-0.007-0.095-0.054-0.186-0.066-0.28c-0.011-0.092-0.003-0.185,0.003-0.276
		c0.002-0.037,0.037-0.075,0.031-0.108c-0.113-0.636-0.25-1.27-0.335-1.909c-0.044-0.331,0.005-0.675,0.012-1.013
		c0-0.01,0.003-0.02,0.002-0.029c-0.04-0.562-0.08-1.125-0.12-1.687c-0.011-0.147-0.03-0.294-0.034-0.442
		c-0.011-0.438-0.012-0.877-0.028-1.316c-0.006-0.183-0.051-0.364-0.062-0.547c-0.024-0.426-0.041-0.853-0.053-1.279
		c-0.007-0.256,0.014-0.512-0.001-0.766c-0.016-0.278-0.061-0.553-0.089-0.83c-0.018-0.181-0.01-0.367-0.049-0.543
		c-0.032-0.146-0.114-0.281-0.184-0.444c0.023-0.094,0.055-0.224,0.092-0.377c-0.345,0-0.671-0.046-0.977,0.013
		c-0.317,0.06-0.512-0.125-0.756-0.23c-0.384-0.166-0.409-0.511-0.459-0.847c-0.006-0.04,0.024-0.087,0.044-0.129
		c0.05-0.107,0.105-0.214,0.14-0.286c0.435-0.102,0.877-0.217,1.324-0.307c0.238-0.048,0.464-0.145,0.733-0.012
		c0.167,0.083,0.413,0.005,0.623-0.002c0.468-0.015,0.939-0.068,1.404-0.036c0.404,0.029,0.8,0.162,1.202,0.233
		c0.82,0.143,1.529,0.586,2.306,0.848c0.291,0.098,0.534,0.353,0.782,0.557c0.291,0.241,0.566,0.504,0.844,0.761
		c0.049,0.045,0.079,0.109,0.12,0.163c0.243,0.329,0.493,0.653,0.727,0.989c0.08,0.114,0.123,0.254,0.179,0.384
		c0.015,0.036,0.001,0.099,0.024,0.113c0.278,0.178,0.204,0.499,0.317,0.728c0.131,0.268,0.076,0.534,0.153,0.795
		c0.146,0.496,0.033,1.014-0.044,1.52c-0.007,0.049-0.022,0.106-0.005,0.147c0.188,0.45,0.009,0.859-0.132,1.273
		c-0.012,0.037-0.018,0.077-0.018,0.116c-0.003,0.538-0.267,0.993-0.469,1.468c-0.08,0.188-0.138,0.388-0.23,0.57
		c-0.204,0.402-0.505,0.752-0.638,1.194c-0.024,0.08-0.137,0.136-0.211,0.198c-0.171,0.146-0.351,0.237-0.419,0.517
		c-0.043,0.181-0.388,0.293-0.603,0.426c-0.367,0.228-0.735,0.454-1.108,0.67c-0.157,0.092-0.325,0.165-0.493,0.235
		c-0.31,0.129-0.623,0.251-0.938,0.368c-0.055,0.021-0.124,0.006-0.187,0.009c-0.083,0.005-0.167,0.006-0.249,0.018
		C28.55,23.879,28.393,23.908,28.216,23.938 M27.283,11.219c-0.012,0.019-0.024,0.039-0.036,0.058
		c0.04,0.06,0.098,0.116,0.119,0.183c0.07,0.238,0.246,0.465,0.073,0.738c-0.044,0.069-0.014,0.189-0.007,0.286
		c0.046,0.577,0.101,1.153,0.139,1.731c0.007,0.12-0.073,0.246-0.064,0.365c0.023,0.322,0.09,0.641,0.108,0.963
		c0.026,0.459,0.026,0.919,0.031,1.378c0.006,0.529,0.009,1.058,0.007,1.587c-0.001,0.228-0.048,0.459-0.019,0.682
		c0.052,0.401,0.165,0.795,0.214,1.196c0.047,0.389,0.038,0.784,0.069,1.176c0.026,0.31,0.159,0.379,0.456,0.296
		c0.093-0.026,0.205,0.028,0.308,0.03c0.089,0.001,0.179-0.016,0.266-0.036c0.081-0.021,0.156-0.069,0.238-0.084
		c0.163-0.029,0.361,0.006,0.488-0.075c0.541-0.349,1.146-0.653,1.567-1.119c0.421-0.467,0.669-1.097,0.959-1.673
		c0.154-0.307,0.248-0.646,0.345-0.979c0.064-0.221,0.055-0.463,0.13-0.678c0.195-0.557,0.134-1.128,0.101-1.692
		c-0.014-0.229-0.212-0.447-0.228-0.678c-0.044-0.601-0.411-1.042-0.722-1.494c-0.259-0.376-0.644-0.665-0.969-0.997
		c-0.382-0.389-0.785-0.734-1.367-0.763c-0.058-0.003-0.124-0.011-0.17-0.041c-0.38-0.248-0.786-0.283-1.223-0.2
		c-0.134,0.025-0.287-0.032-0.429-0.061C27.538,11.292,27.411,11.253,27.283,11.219"/>
	<path style="clip-path:url(#SVGID_2_);fill:#FFFFFF;" d="M85.516,22.944c-0.518-0.028-0.538-0.047-0.602-0.568
		c-0.069-0.56,0.045-1.108,0.073-1.662c0.027-0.555,0.136-1.106,0.015-1.677c-0.083-0.395,0.007-0.824,0.018-1.238
		c0.004-0.197,0.002-0.396,0.003-0.592c0.002-0.476-0.001-0.951,0.006-1.426c0.01-0.625,0.022-1.25,0.046-1.874
		c0.008-0.192,0.067-0.382,0.088-0.573c0.016-0.155,0.06-0.335,0.002-0.463c-0.189-0.417-0.094-0.836-0.078-1.259
		c0.006-0.182-0.007-0.379-0.071-0.547c-0.152-0.406-0.062-0.775,0.146-1.116c0.068-0.11,0.248-0.189,0.387-0.209
		c0.289-0.043,0.585-0.023,0.876-0.052c0.58-0.059,1.156-0.144,1.736-0.196c0.491-0.043,0.987-0.039,1.478-0.084
		c0.598-0.053,1.064,0.346,1.614,0.44c0.454,0.077,0.737,0.416,1.096,0.639c0.065,0.041,0.136,0.076,0.192,0.127
		c0.151,0.136,0.383,0.158,0.453,0.419c0.041,0.153,0.236,0.265,0.36,0.397c0.191,0.202,0.222,0.452,0.237,0.718
		c0.024,0.422,0.174,0.828,0.05,1.267c-0.12,0.423-0.111,0.887-0.258,1.298c-0.119,0.33-0.38,0.611-0.588,0.907
		c-0.1,0.142-0.206,0.289-0.34,0.395c-0.302,0.239-0.622,0.455-0.936,0.678c-0.079,0.056-0.165,0.102-0.248,0.153
		c-0.141,0.088-0.272,0.207-0.426,0.256c-0.432,0.136-0.48,0.246-0.281,0.65c0.159,0.323,0.373,0.649,0.413,0.994
		c0.062,0.517,0.386,0.885,0.589,1.318c0.216,0.464,0.502,0.896,0.717,1.361c0.143,0.307,0.16,0.666,0.405,0.94
		c0.066,0.072,0.04,0.245,0.025,0.368c-0.02,0.172-0.07,0.338-0.11,0.506c-0.006,0.026-0.023,0.054-0.039,0.077
		c-0.152,0.231-0.827,0.335-1.011,0.137c-0.182-0.199-0.372-0.411-0.478-0.653c-0.143-0.329-0.209-0.692-0.311-1.039
		c-0.022-0.074-0.051-0.146-0.087-0.216c-0.167-0.328-0.359-0.646-0.503-0.984c-0.29-0.679-0.59-1.355-0.813-2.058
		c-0.129-0.404-0.384-0.499-0.733-0.619c-0.482-0.165-0.926-0.09-1.389,0.01c-0.102,0.022-0.214,0.005-0.321-0.005
		c-0.277-0.029-0.493,0.146-0.494,0.418c-0.001,0.194,0.023,0.389,0.032,0.582c0.01,0.238,0.035,0.479,0.021,0.715
		c-0.025,0.41-0.1,0.819-0.108,1.229c-0.008,0.473,0.012,0.95,0.06,1.42c0.027,0.259-0.35,0.72-0.647,0.712
		C85.694,22.963,85.605,22.953,85.516,22.944 M89.57,16.126c0,0.011,0,0.022,0.001,0.034c0.102-0.071,0.201-0.144,0.305-0.212
		c0.129-0.084,0.267-0.155,0.391-0.247c0.255-0.189,0.518-0.37,0.751-0.585c0.251-0.231,0.563-0.459,0.681-0.754
		c0.183-0.458,0.248-0.968,0.318-1.463c0.048-0.338-0.143-0.588-0.448-0.716c-0.044-0.019-0.117-0.049-0.119-0.078
		c-0.022-0.335-0.321-0.44-0.531-0.578c-0.293-0.193-0.51-0.537-0.912-0.54c-0.455-0.003-0.909,0.013-1.363,0.008
		c-0.24-0.002-0.53-0.123-0.707-0.026c-0.312,0.171-0.629,0.094-0.935,0.16c-0.077,0.017-0.157,0.017-0.235,0.021
		c-0.246,0.017-0.374,0.133-0.367,0.393c0.009,0.387,0.012,0.775,0.004,1.162c-0.003,0.129-0.095,0.268-0.068,0.385
		c0.114,0.507,0.309,1.008-0.039,1.503c-0.019,0.027-0.015,0.077-0.008,0.115c0.028,0.166,0.072,0.329,0.091,0.495
		c0.038,0.345,0.066,0.691,0.096,1.037c0.019,0.225,0.169,0.307,0.363,0.302c0.353-0.008,0.699,0.201,1.064,0.009
		c0.106-0.056,0.27,0.005,0.406-0.006c0.117-0.009,0.236-0.031,0.346-0.071C88.963,16.364,89.265,16.243,89.57,16.126"/>
	<path style="clip-path:url(#SVGID_2_);fill:#FFFFFF;" d="M43.062,26.093c-0.069,0.094-0.125,0.2-0.208,0.28
		s-0.186,0.143-0.289,0.195c-0.074,0.037-0.193,0.021-0.239,0.073c-0.186,0.208-0.312,0.029-0.449-0.052
		c-0.111-0.067-0.202-0.165-0.314-0.23c-0.298-0.172-0.38-0.457-0.42-0.765c-0.011-0.088,0.007-0.181-0.008-0.266
		c-0.064-0.358-0.157-0.413-0.525-0.342c-0.125,0.024-0.254,0.027-0.382,0.032c-0.521,0.019-1.042,0.04-1.563,0.05
		c-0.551,0.01-1.103,0.019-1.654,0.005c-0.439-0.012-0.542,0.123-0.593,0.562c-0.049,0.421-0.167,0.846-0.331,1.236
		c-0.098,0.233-0.329,0.341-0.657,0.324c-0.277-0.013-0.437-0.11-0.52-0.301c-0.087-0.203-0.135-0.455-0.105-0.672
		c0.044-0.32,0.157-0.636,0.271-0.941c0.12-0.316-0.029-0.643-0.351-0.763c-0.44-0.163-0.877-0.339-1.301-0.538
		c-0.1-0.047-0.192-0.202-0.207-0.317c-0.027-0.208,0.006-0.423,0.018-0.635c0.002-0.038,0.008-0.081,0.027-0.113
		c0.07-0.109,0.699-0.244,0.825-0.191c0.097,0.042,0.209,0.05,0.306,0.094c0.136,0.062,0.261,0.146,0.396,0.21
		c0.153,0.073,0.308,0.168,0.47,0.189c0.198,0.024,0.204-0.179,0.231-0.311c0.061-0.297,0.09-0.6,0.155-0.896
		c0.063-0.284,0.157-0.561,0.232-0.84c0.037-0.14,0.057-0.283,0.097-0.422c0.061-0.212,0.144-0.418,0.197-0.631
		c0.16-0.655,0.274-1.319,0.568-1.942c0.204-0.433,0.3-0.916,0.448-1.375c0.027-0.083,0.067-0.162,0.099-0.244
		c0.114-0.283,0.229-0.554,0.131-0.881c-0.086-0.288,0.305-0.819,0.541-1.013c0.286-0.235,0.537-0.189,0.802-0.05
		c0.243,0.128,0.465,0.299,0.694,0.454c0.095,0.064,0.184,0.135,0.24,0.177c0.09,0.341,0.179,0.651,0.251,0.965
		c0.041,0.181,0.045,0.37,0.084,0.551c0.023,0.11,0.094,0.21,0.123,0.32c0.107,0.408,0.196,0.821,0.312,1.227
		c0.037,0.131,0.149,0.24,0.201,0.369c0.151,0.372,0.291,0.747,0.43,1.124c0.2,0.546,0.483,1.08,0.57,1.644
		c0.088,0.578,0.447,0.982,0.649,1.522c0.4-0.219,0.763-0.403,1.113-0.611c0.409-0.243,0.804-0.245,1.191,0.028
		c0.174,0.123,0.325,0.28,0.499,0.405c0.162,0.117,0.099,0.206,0.017,0.341c-0.255,0.415-0.635,0.707-0.981,1.03
		c-0.097,0.09-0.237,0.136-0.359,0.196c-0.297,0.148-0.6,0.282-0.886,0.447c-0.064,0.037-0.108,0.189-0.089,0.272
		c0.043,0.185,0.14,0.354,0.201,0.535c0.052,0.154,0.084,0.315,0.124,0.473C43.117,26.088,43.089,26.09,43.062,26.093
		 M38.576,17.581c-0.134,0.226-0.251,0.418-0.366,0.614c-0.014,0.024-0.026,0.06-0.019,0.083c0.126,0.434-0.172,0.775-0.271,1.156
		c-0.168,0.648-0.416,1.277-0.626,1.917c-0.078,0.238-0.159,0.477-0.208,0.721c-0.08,0.398-0.118,0.805-0.206,1.201
		c-0.04,0.179,0.008,0.253,0.167,0.254c0.506,0.005,1.011,0.004,1.517-0.009c0.401-0.011,0.802-0.048,1.202-0.063
		c0.176-0.008,0.356,0.032,0.529,0.011c0.187-0.023,0.339-0.12,0.306-0.353c-0.02-0.141-0.025-0.29-0.076-0.42
		c-0.201-0.506-0.416-1.006-0.629-1.506c-0.053-0.126-0.138-0.241-0.177-0.371c-0.148-0.483-0.227-0.995-0.439-1.447
		c-0.245-0.524-0.416-1.063-0.566-1.617C38.695,17.683,38.616,17.629,38.576,17.581"/>
	<path style="clip-path:url(#SVGID_2_);fill:#FFFFFF;" d="M74.651,14.04c-0.021-0.708-0.056-1.411-0.054-2.114
		c0.001-0.287,0.023-0.602,0.143-0.852c0.113-0.233,0.339-0.499,0.569-0.566c0.332-0.097,0.732,0.249,0.744,0.584
		c0.013,0.384-0.054,0.769-0.06,1.155c-0.006,0.339-0.064,0.662,0.058,1.022c0.142,0.419,0.098,0.903,0.124,1.359
		c0.033,0.575,0.059,1.15,0.082,1.725c0.016,0.382,0.024,0.765,0.028,1.147c0.002,0.218-0.094,0.48-0.002,0.643
		c0.171,0.305-0.049,0.603,0.078,0.896c0.059,0.137-0.011,0.324,0.007,0.483c0.025,0.228,0.085,0.451,0.118,0.678
		c0.034,0.231,0.056,0.465,0.08,0.696c0.045,0.455,0.19,0.856,0.577,1.139c0.034,0.025,0.072,0.084,0.066,0.12
		c-0.032,0.193-0.035,0.347,0.218,0.398c0.166,0.034,0.311,0.176,0.497,0.044c0.049-0.036,0.134-0.022,0.202-0.028
		c0.314-0.026,0.412-0.165,0.423-0.481c0.006-0.197,0.071-0.4,0.145-0.586c0.307-0.763,0.469-1.544,0.431-2.376
		c-0.024-0.515,0.084-1.036,0.067-1.553c-0.02-0.635-0.089-1.271-0.176-1.899c-0.057-0.41-0.078-0.806,0.002-1.216
		c0.042-0.215-0.01-0.447-0.013-0.672c-0.004-0.495,0.004-0.992-0.011-1.487c-0.006-0.169-0.079-0.334-0.097-0.503
		c-0.045-0.422-0.076-0.846-0.111-1.256c0.406-0.057,0.758-0.104,1.046-0.145c0.166,0.089,0.302,0.154,0.43,0.233
		c0.07,0.044,0.171,0.105,0.179,0.169c0.062,0.453,0.12,0.909,0.145,1.365c0.03,0.537,0.025,1.075,0.035,1.612
		c0.008,0.399,0.004,0.798,0.026,1.196c0.032,0.569,0.088,1.135,0.126,1.704c0.01,0.165-0.009,0.332-0.01,0.499
		c-0.001,0.127-0.024,0.264,0.015,0.38c0.063,0.186,0.076,0.338-0.003,0.533c-0.063,0.156-0.03,0.361-0.008,0.54
		c0.079,0.631,0.011,1.252-0.082,1.873c-0.054,0.364-0.09,0.729-0.152,1.091c-0.024,0.146-0.117,0.279-0.141,0.424
		c-0.043,0.268-0.058,0.539-0.083,0.81c-0.003,0.028,0.014,0.075,0.002,0.084c-0.212,0.141-0.252,0.395-0.385,0.576
		c-0.142,0.193-0.413,0.288-0.615,0.443c-0.296,0.226-0.647,0.213-0.986,0.254c-0.068,0.008-0.143-0.018-0.205,0.002
		c-0.479,0.152-0.939,0.055-1.364-0.155c-0.283-0.14-0.573-0.329-0.768-0.571c-0.321-0.398-0.574-0.854-0.841-1.293
		c-0.052-0.085-0.037-0.21-0.057-0.316c-0.121-0.664-0.29-1.323-0.354-1.993c-0.078-0.814-0.08-1.64-0.093-2.461
		c-0.009-0.579,0.04-1.159,0.022-1.737c-0.011-0.385-0.113-0.767-0.136-1.154C74.521,14.34,74.613,14.174,74.651,14.04"/>
	<path style="clip-path:url(#SVGID_2_);fill:#FFFFFF;" d="M99.92,21.546c0.046-0.174,0.138-0.351,0.13-0.521
		c-0.016-0.358-0.054-0.722-0.139-1.069c-0.067-0.278-0.206-0.54-0.333-0.802c-0.168-0.349-0.354-0.689-0.536-1.031
		c-0.022-0.041-0.059-0.092-0.1-0.104c-0.273-0.088-0.273-0.359-0.374-0.558c-0.166-0.327-0.304-0.666-0.456-0.999
		c-0.266-0.584-0.533-1.166-0.798-1.75c-0.08-0.176-0.181-0.349-0.223-0.534c-0.059-0.259-0.089-0.529-0.101-0.797
		c-0.022-0.502-0.054-1.008-0.023-1.509c0.032-0.5,0.086-1.01,0.219-1.491c0.188-0.681,0.509-1.326,0.677-2.011
		c0.154-0.631,0.629-1.03,0.92-1.555c0.193-0.347,0.442-0.618,0.753-0.853c0.08-0.061,0.101-0.201,0.149-0.305
		c-0.012-0.033-0.024-0.066-0.036-0.1c0.435,0,0.871,0.022,1.304-0.008c0.265-0.017,0.403,0.153,0.532,0.303
		c0.297,0.345,0.158,0.834-0.269,0.969c-0.385,0.123-0.647,0.385-0.873,0.697c-0.213,0.295-0.444,0.579-0.621,0.894
		c-0.161,0.287-0.241,0.618-0.39,0.913c-0.143,0.282-0.053,0.652-0.342,0.877c-0.04,0.031-0.058,0.103-0.07,0.159
		c-0.173,0.831-0.318,1.663-0.25,2.519c0.054,0.679,0.223,1.32,0.529,1.93c0.127,0.252,0.184,0.541,0.328,0.78
		c0.174,0.288,0.271,0.613,0.526,0.868c0.204,0.204,0.315,0.511,0.431,0.787c0.149,0.349,0.23,0.724,0.524,1.003
		c0.086,0.081,0.083,0.253,0.125,0.382c0.051,0.157,0.082,0.327,0.166,0.464c0.142,0.233,0.271,0.452,0.16,0.739
		c-0.023,0.058-0.007,0.138,0.008,0.204c0.079,0.336,0.189,0.667,0.236,1.008c0.028,0.191-0.051,0.397-0.069,0.6
		c-0.036,0.401-0.05,0.806-0.101,1.204c-0.02,0.151-0.118,0.291-0.179,0.437c-0.019,0.045-0.065,0.104-0.051,0.133
		c0.215,0.404-0.311,0.644-0.223,1.017c-0.388,0.323-0.402,0.872-0.708,1.222c-0.484,0.555-1.04,1.046-1.574,1.556
		c-0.194,0.186-0.38,0.396-0.677,0.424c-0.018,0.002-0.048,0.014-0.052,0.026c-0.09,0.374-0.356,0.262-0.616,0.257
		c-0.178-0.003-0.355,0.126-0.538,0.18c-0.33,0.097-0.891-0.069-0.988-0.281c-0.212-0.467-0.024-0.96,0.328-1.281
		c0.251-0.229,0.496-0.162,0.754-0.209c0.24-0.043,0.488-0.057,0.67-0.312c0.158-0.22,0.445-0.343,0.649-0.537
		c0.688-0.651,1.158-1.437,1.394-2.359c0.103-0.399,0.238-0.791,0.31-1.195c0.022-0.117-0.121-0.263-0.189-0.397
		C99.87,21.535,99.896,21.541,99.92,21.546"/>
	<path style="clip-path:url(#SVGID_2_);fill:#FFFFFF;" d="M62.927,25.123c0.225,0.264,0.428,0.551,0.682,0.782
		c0.144,0.131,0.21,0.243,0.181,0.425c-0.032,0.206-0.024,0.428-0.104,0.613c-0.178,0.413-0.577,0.24-0.861,0.215
		c-0.398-0.037-0.788-0.161-1.116-0.458c-0.521-0.473-0.959-1.006-1.383-1.562c-0.473-0.62-0.801-1.318-1.089-2.024
		c-0.238-0.583-0.318-1.229-0.475-1.846c-0.076-0.301-0.185-0.594-0.244-0.896c-0.033-0.175,0.034-0.37,0-0.544
		c-0.118-0.593-0.075-1.202-0.164-1.785c-0.09-0.582,0.03-1.138,0.001-1.707c-0.021-0.398,0.13-0.802,0.187-1.206
		c0.058-0.421,0.077-0.848,0.149-1.266c0.049-0.286,0.159-0.563,0.242-0.843c0.047-0.158,0.089-0.318,0.145-0.472
		c0.118-0.322,0.244-0.641,0.369-0.96c0.013-0.036,0.057-0.067,0.057-0.099c-0.011-0.375,0.321-0.632,0.367-0.949
		c0.067-0.459,0.355-0.737,0.587-1.073c0.065-0.095,0.09-0.218,0.138-0.325c0.084-0.183,0.081-0.42,0.374-0.46
		c0.08-0.011,0.119-0.221,0.206-0.311c0.206-0.214,0.399-0.515,0.653-0.586c0.272-0.077,0.653-0.007,0.9,0.142
		c0.259,0.155,0.444,0.458,0.329,0.842c-0.051,0.173-0.102,0.279-0.269,0.378c-0.202,0.12-0.366,0.315-0.524,0.498
		c-0.177,0.204-0.34,0.422-0.487,0.648c-0.141,0.216-0.257,0.448-0.377,0.676c-0.154,0.29-0.322,0.575-0.444,0.878
		c-0.097,0.242-0.104,0.522-0.207,0.761c-0.325,0.751-0.407,1.547-0.492,2.346c-0.071,0.667-0.164,1.332-0.227,2
		c-0.019,0.201,0.028,0.409,0.05,0.614c0.017,0.163,0.083,0.301-0.031,0.49c-0.082,0.139,0.025,0.391,0.047,0.591
		c0.059,0.544,0.118,1.087,0.178,1.63c0.004,0.039,0.002,0.088,0.024,0.114c0.312,0.388,0.154,0.9,0.365,1.321
		c0.325,0.651,0.523,1.363,0.951,1.966c0.133,0.188,0.213,0.41,0.333,0.606c0.118,0.192,0.223,0.416,0.394,0.547
		c0.175,0.135,0.424,0.174,0.64,0.255C62.964,25.1,62.945,25.112,62.927,25.123"/>
	<path style="clip-path:url(#SVGID_2_);fill:#FFFFFF;" d="M67.216,13.173c0.168,0.035,0.315,0.108,0.443,0.084
		c0.725-0.135,1.448-0.266,2.185-0.11c0.125,0.026,0.236,0.115,0.354,0.175c0.146,0.075,0.322,0.12,0.433,0.229
		c0.259,0.257,0.491,0.543,0.726,0.823c0.087,0.103,0.168,0.216,0.228,0.336c0.121,0.246,0.229,0.498,0.337,0.75
		c0.049,0.113,0.075,0.236,0.125,0.35c0.259,0.591,0.49,1.184,0.489,1.85c-0.001,0.667-0.058,1.333-0.287,1.949
		c-0.182,0.489-0.506,0.932-0.792,1.379c-0.146,0.227-0.368,0.404-0.521,0.628c-0.291,0.428-0.751,0.504-1.194,0.648
		c-0.46,0.151-0.927,0.175-1.398,0.163c-0.464-0.009-0.939,0.012-1.317-0.353c-0.243-0.233-0.504-0.449-0.766-0.662
		c-0.14-0.114-0.298-0.208-0.45-0.306c-0.752-0.486-1.043-1.272-1.303-2.062c-0.093-0.283-0.008-0.623-0.092-0.913
		c-0.118-0.409-0.004-0.781,0.09-1.153c0.154-0.608,0.283-1.232,0.697-1.741c0.045-0.056,0.043-0.149,0.078-0.217
		c0.091-0.179,0.152-0.394,0.292-0.522c0.309-0.283,0.655-0.525,0.994-0.775c0.08-0.059,0.185-0.091,0.283-0.123
		C67.054,13.535,67.287,13.502,67.216,13.173 M68.205,14.613c-0.234,0.11-0.426,0.185-0.601,0.287
		c-0.222,0.13-0.465,0.251-0.634,0.435c-0.175,0.19-0.289,0.443-0.395,0.684c-0.175,0.398-0.37,0.798-0.469,1.218
		c-0.127,0.543-0.229,1.099,0.076,1.647c0.083,0.15,0.121,0.306,0.285,0.393c0.033,0.018,0.047,0.076,0.066,0.117
		c0.053,0.112,0.088,0.239,0.162,0.336c0.121,0.153,0.275,0.28,0.402,0.43c0.381,0.446,0.896,0.569,1.445,0.629
		c0.278,0.031,0.482-0.116,0.722-0.199c0.465-0.161,0.824-0.381,1.029-0.829c0.085-0.186,0.133-0.394,0.242-0.562
		c0.311-0.481,0.389-1.027,0.423-1.571c0.017-0.261-0.096-0.539-0.187-0.797c-0.264-0.749-0.493-1.504-1.174-2.035
		c-0.427-0.333-0.893-0.353-1.392-0.44V14.613z"/>
</g>
</svg>
