<?xml version="1.0" encoding="utf-8"?>
<!-- Generator: Adobe Illustrator 16.0.4, SVG Export Plug-In . SVG Version: 6.00 Build 0)  -->
<!DOCTYPE svg PUBLIC "-//W3C//DTD SVG 1.1//EN" "http://www.w3.org/Graphics/SVG/1.1/DTD/svg11.dtd">
<svg version="1.1" id="Layer_1" xmlns="http://www.w3.org/2000/svg" xmlns:xlink="http://www.w3.org/1999/xlink" x="0px" y="0px"
	 width="349.893px" height="37.9px" viewBox="25.83 180.326 349.893 37.9" enable-background="new 25.83 180.326 349.893 37.9"
	 xml:space="preserve">
<path fill="#FFFFFF" d="M176.866,184.027c0.885,0,1.529,0,2.253,0c1.529,0.081,3.058,0.241,4.586,0.402
	c1.207,0.161,2.414,0.241,3.541,0.483c1.046,0.241,2.092,0.402,3.058,1.046c0.322,0.242,0.724,0.402,1.046,0.563
	c1.046,0.402,1.771,1.207,2.575,1.851c0.724,0.644,1.448,1.207,2.012,1.851c0.563,0.644,1.288,1.207,1.529,2.092
	c0,0.081,0.161,0.161,0.241,0.241c0.161,0.161,0.322,0.322,0.483,0.563c0.402,0.805,0.805,1.69,1.126,2.495
	c0.242,0.644,0.644,1.368,0.563,2.092c-0.081,1.288-0.402,2.495-0.483,3.782c-0.241,1.852-1.288,3.299-2.253,4.748
	c-0.242,0.322-0.644,0.482-0.885,0.805c-0.563,0.805-1.288,1.367-2.173,1.851c-1.448,0.644-2.896,1.207-4.506,1.528
	c-1.529,0.322-2.978,0.322-4.426,0.162c-2.092-0.242-4.023-0.886-5.874-1.852c-0.402-0.241-0.644-0.16-0.966,0.08
	c-0.563,0.483-1.368,0.805-1.77,1.449c-0.483,0.644-1.288,0.965-1.771,1.689c-0.482,0.645-1.207,0.966-1.931,1.287
	c-0.402,0.161-0.805-0.321-0.805-0.885c0.161-1.287,0.242-2.494,0.402-3.781c0.081-0.725,0.161-1.369,0.322-2.012
	c0.161-0.645,0-1.127-0.563-1.609c-0.885-0.725-1.77-1.529-2.575-2.334c-0.644-0.644-1.127-1.448-1.609-2.253
	c-0.725-1.046-1.207-2.173-1.288-3.541c-0.081-0.483-0.161-1.046-0.322-1.529c-0.242-1.287-0.161-2.494,0.402-3.701
	c0.402-0.885,0.724-1.851,1.287-2.575c0.563-0.724,1.046-1.448,1.932-1.851c0.563-0.241,0.965-0.724,1.529-1.046
	c0.885-0.483,1.851-0.885,2.816-1.288C175.337,184.51,176.142,184.269,176.866,184.027z M173.808,210.582
	c0.081,0,0.161,0,0.241,0.08c0.483-0.402,1.046-0.725,1.449-1.207c0.885-0.805,1.77-1.689,2.655-2.575
	c0.322-0.321,0.805-0.402,1.207-0.161c0.161,0.08,0.322,0.08,0.483,0.161c0.08,0,0.241,0.081,0.241,0.161
	c0.161,0.402,0.563,0.482,0.885,0.562c0.161,0.081,0.322,0.081,0.483,0.162c0.805,0.482,1.689,0.805,2.655,1.045
	c1.609,0.322,3.299,0.564,4.989,0.242c0.563-0.08,1.046-0.161,1.609-0.242c0.483-0.16,0.966-0.402,1.529-0.562
	c1.046-0.242,1.931-0.805,2.736-1.529c0.724-0.562,1.288-1.287,1.771-2.092c0.483-0.725,0.965-1.449,1.288-2.253
	c0.644-1.69,0.804-3.38,0.482-5.07c-0.161-0.644-0.482-1.287-0.724-1.931c-0.563-1.287-1.448-2.414-2.333-3.46
	c-0.402-0.563-1.046-0.885-1.529-1.368c-0.966-0.965-2.012-1.77-3.219-2.414c-0.563-0.322-1.126-0.724-1.77-0.885
	c-0.885-0.322-1.851-0.402-2.816-0.644c-0.966-0.161-2.012-0.483-2.978-0.563c-1.287-0.161-2.575-0.081-3.943-0.161
	c-1.287-0.08-2.494,0.081-3.701,0.483c-1.046,0.402-2.253,0.644-3.138,1.368c-0.644,0.482-1.449,0.805-1.931,1.368
	c-0.644,0.724-1.127,1.529-1.609,2.333c-0.483,0.885-0.805,1.851-0.805,2.897c0.081,0.724,0.161,1.448,0.322,2.172
	c0.161,0.805,0.322,1.609,0.644,2.253c0.402,0.885,0.966,1.689,1.609,2.414c0.563,0.644,1.207,1.207,1.851,1.851
	c0.563,0.562,1.126,1.127,1.689,1.689c0.242,0.242,0.483,0.563,0.161,0.966c-0.161,0.241-0.161,0.563-0.161,0.805
	c-0.081,0.805-0.081,1.528-0.161,2.333C173.889,209.375,173.889,209.938,173.808,210.582z"/>
<path fill="#FFFFFF" d="M303.359,216.938c-0.241,0.161-0.482,0.321-0.644,0.482s-0.161,0.402-0.483,0.322
	c-0.321-0.081-0.482-0.241-0.562-0.563c-0.08-0.805-0.08-1.529-0.08-2.334c0-0.724-0.162-0.885-0.805-1.046
	c-1.207-0.321-2.254-0.885-3.139-1.608c-0.805-0.725-1.529-1.609-2.012-2.576c-0.482-0.885-0.645-1.931-0.885-2.896
	c-0.242-0.805-0.402-1.689-0.402-2.494c-0.081-0.725,0.08-1.448,0.08-2.253c0-0.241,0-0.483,0-0.725
	c-0.08-1.046,0.08-2.092,0.402-3.138c0.241-0.885,0.562-1.77,0.965-2.575c0.322-0.724,0.645-1.368,1.127-2.012
	s1.047-1.207,1.609-1.771c0.322-0.241,0.805-0.322,1.287-0.322c0.645-0.081,1.288-0.161,1.932-0.081
	c0.563,0.081,1.207,0.242,1.689,0.483c0.805,0.402,1.609,0.805,2.334,1.288c0.725,0.563,1.448,1.288,1.689,2.253
	c0.242,1.126,0.563,2.173,0.725,3.299c0.08,0.644,0.08,1.288,0.161,1.931c0.08,0.644,0.241,1.368,0.241,2.012
	c0,0.482-0.08,1.046-0.161,1.529c-0.08,0.562-0.08,1.126-0.161,1.689c-0.16,2.092-0.805,4.023-2.092,5.633
	c-0.241,0.322-0.482,0.725-0.885,1.046c-0.483,0.402-1.127,0.724-1.689,0.966c-0.402,0.16-0.564,0.402-0.483,0.805
	c0.081,0.724,0.161,1.448,0.241,2.253C303.359,216.697,303.359,216.857,303.359,216.938z M301.268,212.11c0-0.805,0-1.609,0-2.333
	c0-0.322,0-0.564,0.402-0.564s0.725,0.322,0.805,0.725c0.08,0.645,0.16,1.207,0.241,1.852c0.081,0.321,0.241,0.402,0.483,0.24
	c0.321-0.16,0.562-0.402,0.805-0.562c1.126-0.885,1.931-2.012,2.252-3.38c0.242-0.966,0.402-1.931,0.563-2.978
	c0.081-0.644,0.241-1.287,0.241-1.932c0-1.126-0.08-2.252-0.241-3.379c-0.161-1.288-0.402-2.575-0.724-3.862
	c-0.161-0.483-0.483-0.966-0.886-1.368c-0.482-0.482-1.046-0.805-1.608-1.126c-0.483-0.241-0.967-0.402-1.449-0.644
	c-0.241-0.081-0.562-0.242-0.805-0.161c-0.562,0.081-1.127,0.322-1.689,0.483c-0.08,0-0.242,0.081-0.322,0.081
	c-0.241,0.081-0.562,0.081-0.644,0.241c-0.402,0.563-0.805,1.126-1.126,1.69c-0.645,1.126-1.207,2.253-1.369,3.541
	c-0.08,0.483-0.24,1.046-0.24,1.529c-0.081,0.644,0,1.368,0,2.012c0,0.482-0.081,0.965-0.081,1.448
	c0.081,0.805,0.081,1.528,0.241,2.333c0.161,0.725,0.322,1.449,0.563,2.174c0.321,0.885,0.563,1.77,1.368,2.333
	c0.241,0.161,0.482,0.402,0.725,0.563C299.497,211.627,300.302,211.949,301.268,212.11z"/>
<path fill="#FFFFFF" d="M32.75,189.982c0.081-0.724-0.161-1.207-0.402-1.771c-0.161-0.322-0.161-0.644-0.241-0.965
	c-0.563-0.885-1.771-1.046-2.656-0.563c-1.529,0.885-1.77,2.414-2.092,3.862c-0.161,0.563-0.081,1.127-0.081,1.69
	c-0.081,0.885-0.242,1.771-0.322,2.656c0,0.885,0,1.77,0.08,2.655c0,0.08,0,0.241,0,0.322c0,0.965-0.08,1.931,0,2.897
	c0.081,1.528,0.081,3.058,0.161,4.506c0.081,1.046,0.081,2.093,0.322,3.138c0.161,0.886,0.563,1.771,0.724,2.736
	c0.081,0.725,0.563,1.127,0.966,1.609c0.241,0.322,0.563,0.563,0.805,0.885c0.402,0.402,0.885,0.322,1.288,0.322
	c0.563,0,0.805-0.482,1.046-0.805c0.563-0.965,0.885-2.092,0.885-3.219c0-0.965-0.081-2.012-0.081-2.977
	c0-0.725,0.161-1.449,0.161-2.174c0-0.562-0.08-1.045-0.08-1.609c0-0.724-0.081-1.447-0.081-2.172c0-1.046-0.241-1.368-1.207-1.609
	c-0.563-0.161-1.046-0.402-1.368-0.805c-0.322-0.322-0.482-0.724-0.644-1.126c-0.081-0.081,0.081-0.402,0.241-0.483
	c0.081-0.081,0.322-0.081,0.483,0c0.483,0.322,0.966,0.724,1.529,0.966c0.242,0.161,0.563,0.322,0.885,0.241
	c0.483-0.081,0.805,0.161,1.288,0.241c0.483,0.081,0.805-0.08,1.046-0.402c0.322-0.402,0.644-0.804,1.046-1.126
	c0.161-0.161,0.483-0.241,0.563-0.161c0.241,0.161,0.483,0.322,0.402,0.805c-0.161,0.965-0.724,1.529-1.529,1.931
	c-0.322,0.161-0.724,0.322-1.126,0.563c-0.081,0.081-0.161,0.242-0.161,0.402c0,0.966,0.081,2.012,0.081,2.978
	c0,1.932,0,3.781-0.081,5.713c0,1.047-0.081,2.092-0.322,3.059c-0.322,1.447-1.126,2.574-2.575,3.138
	c-0.402,0.161-0.966,0.08-1.368-0.161c-0.805-0.402-1.69-0.725-2.253-1.529c-0.242-0.321-0.402-0.724-0.563-1.126
	c-0.241-0.483-0.402-0.966-0.644-1.448c-0.644-1.449-0.724-3.059-0.805-4.587c-0.081-1.368-0.161-2.735-0.242-4.104
	c0-0.966,0.081-1.932,0.081-2.897c0-1.69,0-3.38,0-5.069c0-0.322,0.081-0.644,0.161-0.966c0.081-0.402,0.081-0.724,0.081-1.126
	c0-1.771,0.241-3.46,1.126-4.989c0.724-1.368,1.931-2.173,3.541-2.333c0.724-0.081,1.288,0.322,1.77,0.724
	c0.724,0.563,0.966,1.368,1.288,2.172s0.483,1.609,0.483,2.414c0,0.563,0,1.126-0.161,1.609c-0.081,0.241-0.322,0.483-0.563,0.563
	c-0.402,0.08-0.402-0.242-0.402-0.563C32.831,191.43,32.831,190.706,32.75,189.982z"/>
<path fill="#FFFFFF" d="M63.408,208.892c0-0.483,0-0.886,0.081-1.368c0-0.241,0-0.402,0-0.644c0-0.805-0.161-1.609,0-2.414
	c0.161-0.644-0.081-1.368-0.081-2.012c0-0.402,0.081-0.805,0.242-1.126c0.08-0.081,0.322-0.161,0.563-0.242
	c0.081,0.161,0.161,0.322,0.241,0.483c0.081-0.081,0.161-0.081,0.242-0.161c0,0.08,0.081,0.08,0.081,0.08c0,1.771,0,3.621,0,5.392
	c0,0.805-0.081,1.528-0.081,2.333c0,0.725,0.081,1.369,0.161,2.093c0,0.081,0.081,0.241,0.161,0.321
	c0.402,0.725,0.966,1.449,1.288,2.173c0.402,0.966,0.965,1.851,0.805,2.978c-0.161,0.966-1.046,1.689-2.092,1.127
	c-0.563-0.242-1.046-0.645-1.126-1.368c0,0,0,0,0-0.081c-0.724-1.046-0.402-2.172-0.483-3.299c-0.081-0.965-0.161-1.851-0.885-2.655
	c-0.885-1.046-1.529-2.253-2.333-3.38c-0.644-0.965-1.368-1.851-2.012-2.816c0,0.161-0.08,0.322-0.08,0.563
	c0,0.563,0.08,1.207,0.161,1.771c0.081,1.77,0.242,3.46,0.161,5.23c-0.081,0.885,0.241,1.77,0.241,2.655
	c0,1.046,0.322,2.092-0.081,3.138c-0.08,0.242-0.322,0.402-0.402,0.563c-0.161-0.241-0.402-0.402-0.402-0.644
	c-0.161-1.368-0.241-2.816-0.322-4.185c-0.081-1.771-0.161-3.54-0.241-5.311c-0.081-0.966-0.242-1.851-0.242-2.816
	c0-1.126,0.081-2.253,0.161-3.38c0-0.16,0.241-0.321,0.402-0.402c0.161,0,0.402,0.081,0.563,0.161
	c1.046,0.725,1.448,1.931,2.092,2.978c0.644,1.046,1.449,2.012,2.253,3.058c0.322,0.402,0.563,0.805,0.885,1.207
	C63.247,208.973,63.327,208.973,63.408,208.892z M65.661,216.697c0.081-0.805-0.322-1.449-0.563-2.173
	C64.695,215.409,64.937,216.295,65.661,216.697z"/>
<path fill="#FFFFFF" d="M360.974,194.971c0,0.805,0,1.609,0,2.414c0,0.161,0,0.322,0,0.483c0,1.126,0,2.253,0,3.379
	c0,0.241,0,0.483,0,0.725c0,1.046-0.08,2.092-0.08,3.138c0,0.482,0,0.966,0,1.449c0,0.24-0.402,0.805-0.645,0.724
	c-0.16-0.081-0.402-0.241-0.482-0.483c-0.402-0.724-0.08-1.528-0.161-2.333c0-0.644,0.081-1.207,0.081-1.851
	c0-1.287-0.081-2.655,0-3.943c0.08-1.851,0.16-3.702,0.321-5.633c0-0.402,0.322-0.805,0.483-1.207
	c0.241-0.402,0.644-0.322,0.965-0.081c0.725,0.563,0.805,1.529,1.127,2.334c0.805,1.77,1.368,3.541,2.092,5.311
	c0.402,1.046,0.886,2.012,1.368,3.058c0-0.08,0.08-0.08,0.08-0.161c-0.08-1.287-0.241-2.494-0.321-3.782
	c-0.081-0.885-0.241-1.77-0.322-2.655c-0.08-0.644-0.08-1.368,0-2.012c0-0.402,0.161-0.885,0.161-1.288s-0.161-0.805-0.161-1.287
	c0-0.242,0-0.483,0.081-0.644c0.161-0.563,0.321-0.644,0.885-0.322c0.322,0.161,0.563,0.322,0.885,0.483
	c-0.644,0.805-0.16,1.69-0.321,2.414c0,0.081,0,0.161,0,0.241c-0.322,1.207,0.08,2.414,0.161,3.621
	c0.08,1.288,0.161,2.575,0.241,3.863c0.161,1.609,0.321,3.219,0.482,4.747c0.081,0.724-0.08,0.886-0.644,1.046
	c-0.482,0.161-0.724,0-1.046-0.644c-0.725-1.609-1.368-3.219-2.012-4.908c-0.563-1.368-1.127-2.736-1.689-4.023
	c-0.242-0.644-0.563-1.368-0.805-2.012c-0.081-0.161-0.161-0.241-0.161-0.402C361.135,194.971,361.054,194.971,360.974,194.971z"/>
<path fill="#FFFFFF" d="M251.459,202.776c0,0.724,0,1.448,0,2.173c0,0.643-0.162,1.367-0.242,2.012c0,0.805,0,1.609,0.08,2.414
	c0,0.562,0.081,1.207,0.081,1.77c0,0.08,0,0.242,0,0.322c0.081,0.402-0.081,0.725-0.483,0.725c-0.482,0.08-0.724-0.162-0.724-0.645
	c-0.081-0.644-0.081-1.287-0.081-1.932c0-0.724-0.08-1.447-0.08-2.252c0-1.932-0.08-3.943,0.08-5.875
	c0-0.805,0.322-1.609,0.645-2.333c0.241-0.483,1.046-0.644,1.77-0.402c0.805,0.322,1.207,0.965,1.449,1.771
	c0.16,0.644,0.08,1.287,0.08,1.931c0,1.288,0.08,2.575,0.08,3.862c0,0.725,0,1.529,0.081,2.254c0.081,0.724,0.161,1.367,0.402,2.012
	c0.081,0.16,0.402,0.402,0.644,0.402c0.242,0,0.645-0.242,0.645-0.402c0.16-0.483,0.24-1.047,0.321-1.609
	c0.081-1.369,0.161-2.656,0.081-4.023c0-1.207-0.242-2.414-0.322-3.541c-0.08-0.805-0.08-1.609-0.161-2.333
	c0-0.563,0.402-0.805,0.886-0.644c0.724,0.242,0.724,0.402,0.643,1.207c-0.08,0.563,0,1.207,0.081,1.851
	c0.081,0.805,0.241,1.609,0.241,2.414c0,1.047,0,2.092,0,3.059c0,1.528-0.08,2.977-0.644,4.426c-0.081,0.24-0.321,0.402-0.483,0.562
	c-0.805,0.805-1.287,0.645-2.333,0.08c-0.886-0.482-1.288-1.207-1.288-2.172c0-0.482-0.08-0.885-0.16-1.368s-0.08-1.046-0.08-1.528
	c-0.081-1.852-0.081-3.783,0.08-5.633c0-0.322-0.161-0.645-0.242-1.046c0-0.081-0.16-0.161-0.24-0.322
	c-0.081,0.08-0.242,0.161-0.242,0.322c-0.16,0.563-0.241,1.126-0.402,1.69C251.459,202.374,251.459,202.535,251.459,202.776
	L251.459,202.776z"/>
<path fill="#FFFFFF" d="M116.436,213.639c-0.081-1.367-0.161-2.735-0.161-4.104c0-1.529,0.081-3.058,0.081-4.586
	c0-0.725-0.161-1.449-0.161-2.173c-0.081-1.046-0.081-2.012-0.081-3.058c0-0.563-0.08-1.126-0.08-1.609c0-0.644,0-1.287,0-1.931
	c-0.081-1.207-0.161-2.494-0.322-3.701c0-0.161-0.08-0.322-0.08-0.483c-0.081-0.724,0.322-1.046,0.965-0.885
	c0.402,0.081,0.724,0.241,1.046,0.483c0.644,0.483,1.288,0.965,1.851,1.609c0.483,0.563,0.965,1.207,1.207,1.851
	c0.644,1.529,0.885,3.138,0.563,4.748c-0.161,0.725-0.081,1.529-0.241,2.253c-0.081,0.644-0.322,1.288-0.563,1.931
	c-0.241,0.805-0.563,1.69-0.885,2.495c-0.322,0.805-0.966,1.368-1.609,1.931c-0.161,0.081-0.322,0.322-0.322,0.483
	c0,1.368,0.081,2.735,0.081,4.104c0,0.08,0.081,0.24,0.081,0.321c0.161,0.563-0.081,1.287-0.644,1.609
	c-0.402,0.241-0.885-0.081-0.885-0.644C116.355,214.041,116.355,213.8,116.436,213.639z M117.723,206.478
	c0.081,0,0.161,0.081,0.161,0.081c0.161-0.322,0.241-0.564,0.402-0.886c0.322-0.805,0.724-1.69,0.965-2.495
	c0.242-0.885,0.242-1.85,0.483-2.815c0.242-1.127,0.242-2.253,0-3.38c-0.161-0.805-0.483-1.609-0.805-2.333
	c-0.161-0.322-0.483-0.644-0.805-0.885c-0.322-0.322-0.724-0.563-1.046-0.805c-0.081,0-0.081,0.081-0.161,0.081
	c0.161,2.253,0.483,4.426,0.483,6.759C117.401,201.972,117.642,204.225,117.723,206.478z"/>
<path fill="#FFFFFF" d="M104.285,189.418c-0.563,0.081-1.126,0-1.689,0.161c-0.966,0.322-1.931,0.161-2.897,0.161
	c-0.805,0-1.69,0.08-2.495,0.161c-0.08,0-0.322,0.161-0.322,0.241c0,0.725,0.081,1.449,0.161,2.173c0,0.322,0,0.563,0,0.885
	c0.161,1.046,0.322,2.172,0.402,3.219c0.081,1.046,0.081,2.092,0.081,3.138c0.08,0.966,0.08,2.012,0.161,2.978
	c0,0.402,0.483,0.402,0.724,0.321c1.126-0.161,2.333-0.321,3.46-0.482c0.322,0,0.724,0,0.965,0.161
	c0.161,0.08,0.161,0.562,0.081,0.805c-0.081,0.24-0.242,0.402-0.644,0.402c-0.965,0.08-2.011,0.24-2.977,0.321
	c-0.322,0-0.724,0.081-1.046,0.081c-0.402,0-0.563,0.16-0.563,0.562c0,0.725,0,1.368-0.081,2.092c0,0.402-0.08,0.805-0.08,1.207
	c-0.081,0.322,0.08,0.564,0.402,0.645c0.724,0.241,1.448,0.241,2.253,0.16c0.965-0.16,2.012-0.24,2.977-0.402
	c0.322,0,0.563-0.321,0.966-0.16c0.402,0.16,0.805,0.241,0.644,0.805c0,0.08,0.081,0.16,0.081,0.241
	c-0.322,0.644-0.885,0.483-1.448,0.483c-0.483,0-1.046,0.08-1.529,0.16c-0.644,0.08-1.207,0.242-1.851,0.242
	c-0.724,0-1.448-0.081-2.172-0.162c-0.402-0.08-0.805-0.16-1.207-0.321s-0.644-0.644-0.563-1.126
	c0.081-0.564,0.081-1.207,0.081-1.771c0-0.885,0.081-1.77,0.081-2.735c0-1.207,0-2.494,0-3.701c0-1.046,0-2.173,0-3.219
	c0-0.242,0-0.402-0.081-0.644c-0.322-1.046-0.322-2.092-0.402-3.138c-0.081-1.207-0.081-2.494-0.161-3.701
	c0-0.322,0-0.483,0.322-0.644c0.885-0.563,1.851-0.482,2.816-0.482c0.966,0,1.851,0,2.816,0c0.402,0,0.805-0.161,1.207-0.242
	c0.322-0.081,0.724-0.161,1.046-0.081c0.241,0.081,0.644,0.161,0.482,0.644C104.205,189.097,104.285,189.258,104.285,189.418z"/>
<path fill="#FFFFFF" d="M220.801,191.833c-1.287-0.241-2.334,0.724-3.38,1.771c-0.483,0.483-1.046,0.885-1.368,1.609
	c-0.644,1.448-1.207,2.977-1.367,4.748c-0.081,1.126-0.242,2.253,0,3.38c0.241,1.045,0.482,2.092,0.724,3.057
	c0.081,0.322,0.161,0.725,0.241,1.047c0.563,1.367,1.368,2.334,2.414,2.736c0.322,0.16,0.725,0.321,1.047,0.402
	c0.16,0.08,0.321,0.08,0.402,0.08c0.724-0.161,1.528-0.322,2.172-0.645c0.563-0.24,0.966-0.885,1.047-1.77
	c0.08-0.402,0.16-0.725,0.24-1.127c0.162-1.609,0.725-3.058,0.402-4.747c-0.08-0.322-0.08-0.725-0.08-1.127
	c0-0.241,0-0.644-0.08-0.724c-0.242-0.161-0.563-0.322-0.805-0.322c-0.563,0-1.207,0.081-1.771,0c-0.161,0-0.321-0.402-0.402-0.724
	c-0.081-0.402,0.321-0.966,0.644-0.966c0.725-0.081,1.529-0.322,2.254-0.402c0.482-0.081,0.965,0,1.447,0.161
	c0.322,0.081,0.483,0.965,0.402,1.368c-0.08,0.483-0.08,1.046-0.08,1.529c0,0.724,0.08,1.448,0.08,2.173
	c0,1.287,0.081,2.494-0.321,3.701c-0.241,0.644-0.322,1.448-0.483,2.172c-0.482,1.852-1.528,2.816-2.816,3.219
	c-0.805,0.242-1.609,0.242-2.414,0.322c-0.16,0-0.24,0-0.402-0.08c-0.643-0.322-1.367-0.563-1.931-1.047
	c-0.563-0.402-1.046-1.045-1.528-1.609c-0.645-0.805-1.047-1.85-1.288-3.057c-0.081-0.402-0.241-0.725-0.321-1.127
	c-0.402-1.449-0.483-2.978-0.402-4.506c0.08-1.368,0.24-2.656,0.482-4.024c0.08-0.644,0.402-1.126,0.644-1.689
	c0.241-0.563,0.563-1.207,0.886-1.69c0.321-0.563,0.724-1.046,1.126-1.448c0.483-0.402,0.805-1.046,1.448-1.046
	c0.322,0,0.563-0.483,0.885-0.644c1.047-0.402,2.093-0.644,3.139-0.322c0,0,0,0,0.08,0c0.242,0,0.564-0.161,0.564,0.402
	c0,0.402-0.483,0.805-0.725,0.805c-0.161,0-0.322,0-0.402,0C221.283,191.833,221.123,191.833,220.801,191.833z"/>
<path fill="#FFFFFF" d="M247.596,206.316c-0.241,0.322-0.402,0.563-0.562,0.725c-0.805-0.161-0.966-0.805-0.966-1.449
	c0-0.643-0.241-0.643-0.886-0.643c-0.321,0-0.562,0-0.885,0c-0.725,0-1.368-0.081-2.092-0.081c-0.161,0-0.242,0-0.402,0
	c-0.725-0.081-0.725-0.081-0.725,0.644c0,0.563-0.08,1.127-0.16,1.689c0,0.242-0.162,0.483-0.322,0.564
	c-0.161,0.08-0.402,0.16-0.645,0.08c-0.08,0-0.24-0.322-0.24-0.482c-0.081-1.288,0-2.576,0.402-3.863
	c0.24-0.644,0.16-1.367,0.24-2.012c0.162-0.885,0.322-1.77,0.483-2.735c0.081-0.644,0.241-1.207,0.321-1.851
	c0.081-0.482,0.242-0.965,0.322-1.368c0-0.241,0-0.483,0.08-0.644c0.081-0.563,0.081-1.046,0.242-1.609
	c0.16-0.885,0.402-1.851,0.644-2.736c0.081-0.161,0.161-0.482,0.321-0.482c0.161-0.081,0.402,0.081,0.645,0.161
	c0.241,0.161,0.402,0.322,0.644,0.483c0.402,0.241,0.563,0.644,0.644,1.126c0.08,0.563,0.322,1.126,0.482,1.771
	c0.161,0.805,0.322,1.69,0.483,2.494c0.241,1.207,0.482,2.495,0.724,3.702c0.242,1.127,0.482,2.253,0.805,3.46c0,0,0,0,0,0.081
	c0.805,0.805,0.08,1.931,0.645,2.816C247.998,206.236,247.838,206.316,247.596,206.316z M243.653,192.718c-0.081,0-0.081,0-0.161,0
	c-0.08,0.161-0.161,0.322-0.241,0.483c-0.321,1.77-0.644,3.46-1.046,5.23c-0.242,1.288-0.482,2.575-0.725,3.862
	c-0.08,0.322-0.08,0.563-0.16,0.885c-0.081,0.402,0.08,0.564,0.482,0.483c1.127-0.081,2.253-0.161,3.379-0.321
	c0.242,0,0.322-0.162,0.242-0.402c-0.161-0.966-0.322-1.932-0.563-2.897c-0.241-1.046-0.402-2.092-0.644-3.218
	c-0.081-0.322,0-0.725-0.161-1.046c-0.241-0.483-0.161-0.965-0.241-1.448C243.814,193.925,243.733,193.281,243.653,192.718z"/>
<path fill="#FFFFFF" d="M236.09,200.282c0.08,0.885,0.08,1.69,0.08,2.575c0,0.724-0.161,1.448-0.08,2.253
	c0.08,1.852,0.24,3.701,0.321,5.553c0,0.08,0,0.16,0,0.241c-0.241,0.644,0.081,1.207,0.402,1.69
	c-0.241,0.321-0.402,0.724-0.724,0.885c-0.162,0.08-0.564-0.081-0.805-0.161c-0.162-0.081-0.242-0.241-0.402-0.402
	c0-0.563,0-1.207,0-1.851c0-0.725-0.081-1.529-0.081-2.254c0-0.482-0.081-0.965-0.081-1.447c0-1.127,0.081-2.334,0.081-3.461
	c0-0.805-0.081-1.689-0.081-2.494c0-0.322-0.24-0.402-0.482-0.402c-0.562,0.08-1.127,0.161-1.609,0.241
	c-0.08,0-0.241,0.161-0.241,0.241c-0.241,1.368-0.402,2.816-0.644,4.185c-0.161,0.805-0.482,1.528-0.644,2.333
	c-0.081,0.162,0,0.402-0.081,0.645c-0.402,0.965-0.805,1.932-1.528,2.736c-0.241,0.24-0.483,0.482-0.644,0.724
	c-0.242,0.321-0.482,0.321-0.725,0.081c-0.08-0.162-0.16-0.483-0.08-0.645c0.402-0.725,0.965-1.367,1.287-2.092
	c0.563-1.287,1.207-2.494,1.287-3.943c0-0.885,0.322-1.77,0.483-2.655c0.08-0.482,0.08-1.046,0.08-1.609
	c0-0.08-0.161-0.161-0.241-0.241c-0.644-0.241-1.287-0.322-1.851-0.724c-0.402-0.242-0.805-0.644-0.805-1.207
	c0-0.322-0.161-0.724-0.161-1.046c0.08-0.322,0.161-0.724,0.482-0.965c0.645-0.483,1.69-0.563,2.334,0.161
	c0.241,0.241,0.482,0.482,0.725,0.724c0.08,0.08,0.16,0.161,0.16,0.241c0.161,0.402,0.242,0.724,0.402,1.126
	c0,0.081,0.161,0.161,0.242,0.161c0.644,0,1.287,0,1.85-0.081c0.242,0,0.402-0.161,0.645-0.241c0.482-0.081,0.562,0,0.725,0.482
	c0,0.161,0.321,0.322,0.402,0.483C236.009,200.282,236.09,200.282,236.09,200.282z M230.617,199.638
	c0.081-0.644-0.482-1.529-0.965-1.689c-0.081,0-0.161,0-0.242,0.08c-0.08,0.161,0.081,1.046,0.242,1.127
	C229.974,199.316,230.296,199.477,230.617,199.638z"/>
<path fill="#FFFFFF" d="M76.282,202.776c-0.241,1.126-0.563,2.173-0.724,3.299c-0.161,1.207-0.965,2.093-1.368,3.138
	c-0.161,0.242-0.402,0.483-0.644,0.725c-0.805,0.725-1.689,1.287-2.736,1.529c-0.402,0.08-0.885,0.08-1.046-0.242
	c-0.161-0.24,0-0.643,0.081-1.045c0-0.564,0.081-1.207,0-1.771c-0.242-1.207-0.242-2.414-0.161-3.701
	c0.081-0.885,0-1.851-0.081-2.735c-0.08-1.448-0.161-2.978-0.161-4.426c0-0.161,0.081-0.322,0.081-0.483
	c0.08-0.322,0-0.563-0.322-0.644c-0.241-0.081-0.482-0.322-0.563-0.483c-0.081-0.402,0.322-0.563,0.644-0.563
	c0.644,0,1.288,0,1.851,0.242c0.644,0.161,1.207,0.563,1.77,0.885c1.851,1.127,2.977,2.736,3.219,4.989
	c0.081,0.402,0.081,0.805,0.081,1.207C76.202,202.776,76.282,202.776,76.282,202.776z M70.811,197.063
	c-0.241,0.885,0.483,11.99,0.805,12.552c0.402-0.321,0.805-0.562,1.126-0.885c0.161-0.16,0.161-0.482,0.322-0.644
	c0.644-0.644,1.126-1.288,1.126-2.333c0-0.483,0.241-1.047,0.402-1.609c0.241-1.207,0.241-2.334-0.081-3.541
	c-0.322-1.046-0.966-1.771-1.609-2.575C72.259,197.546,71.535,197.304,70.811,197.063z"/>
<path fill="#FFFFFF" d="M350.271,191.511c0.482,0,0.966,0,1.368,0c1.287,0.081,2.333,0.805,3.219,1.771
	c0.966,1.046,1.689,2.172,1.931,3.621c0.161,1.449,0.322,2.897-0.16,4.265c-0.322,0.885-0.725,1.851-1.529,2.413
	c-1.207,0.886-2.494,1.529-4.104,1.047c-1.529-0.482-2.736-1.368-3.702-2.736c-0.562-0.885-0.644-1.77-0.805-2.735
	c-0.16-0.805-0.16-1.609,0.081-2.333c0.321-1.046,0.482-2.092,0.885-3.058c0.241-0.563,0.483-1.287,1.127-1.609
	c0.241-0.08,0.482-0.241,0.644-0.241C349.869,192.235,350.11,191.913,350.271,191.511z M347.777,198.833h0.08
	c0,0.081,0,0.081,0,0.161c0.322,1.368,0.725,2.655,2.092,3.46c0.805,0.483,1.529,0.966,2.575,0.724
	c0.966-0.24,1.851-0.643,2.334-1.608c0.563-1.127,0.644-2.334,0.563-3.541c0-0.161,0-0.402,0-0.563c0-0.241,0.08-0.483,0-0.644
	c-0.161-0.402-0.402-0.725-0.563-1.127c-0.161-0.241-0.161-0.644-0.402-0.885c-0.322-0.402-0.725-0.724-1.127-1.126
	c-0.724-0.644-1.528-1.127-2.575-0.885c-0.16,0.081-0.321,0.161-0.482,0.161c-0.885,0-1.126,0.563-1.368,1.207
	c-0.16,0.563-0.321,1.207-0.482,1.771C348.18,196.982,347.938,197.868,347.777,198.833z"/>
<path fill="#FFFFFF" d="M339.489,193.442c0.08,0.322,0.08,0.483,0.08,0.724c0.081,0.402-0.241,0.725-0.563,0.563
	c-0.885-0.322-1.77,0-2.574,0.081c-0.081,0-0.242,0.241-0.242,0.402c-0.08,1.126-0.08,2.253-0.08,3.46
	c0,0.402-0.08,0.805-0.08,1.207c0,0.885,0.08,1.69,0.16,2.495c0,0.402,0,0.804,0,1.126c0,1.449,0,2.978,0.402,4.426
	c0.242,0.966,1.449,1.529,2.334,1.207c0.241-0.08,0.402-0.402,0.563-0.644c0.402-0.724,0.724-1.448,1.126-2.173
	c0.081-0.16,0.322-0.322,0.483-0.322c0.241,0.081,0.482,0.242,0.563,0.483c0.16,0.644,0.08,1.207-0.402,1.771
	c-0.483,0.562-0.805,1.207-1.368,1.77c-0.241,0.242-0.725,0.483-1.127,0.483c-0.644,0-1.207-0.081-1.851-0.241
	c-0.161,0-0.241-0.08-0.402-0.161c-0.966-0.886-1.689-1.931-1.609-3.38c0.08-1.77-0.08-3.621-0.161-5.391
	c-0.08-1.771-0.08-3.541-0.08-5.311c0-0.242,0.08-0.483,0.08-0.725c0.081-0.322-0.08-0.402-0.402-0.402
	c-0.402,0-0.805,0.08-1.126,0.08c-0.241,0-0.483-0.161-0.644-0.402c-0.161-0.241,0.08-0.482,0.321-0.563
	c0.483-0.242,0.886-0.483,1.448-0.402c0.241,0,0.402-0.081,0.402-0.402c0-1.126,0.081-2.333,0.081-3.46
	c0-0.242,0.16-0.644,0.321-0.725c0.241-0.08,0.563,0.081,0.886,0.242c0.08,0.081,0.16,0.241,0.16,0.402c0,1.126,0,2.253,0,3.379
	c0,0.081,0.242,0.322,0.322,0.322c0.482,0,0.885-0.08,1.368-0.161C338.201,193.04,339.087,193.201,339.489,193.442z"/>
<path fill="#FFFFFF" d="M54.798,201.811c-0.483,0.241-0.966,0.402-1.448,0.644c-0.161,0.081-0.402,0.081-0.483,0.161
	c-0.161,0.161-0.402,0.402-0.322,0.562c0.161,0.564,0.322,1.127,0.563,1.69c0.322,0.886,0.644,1.851,0.966,2.735
	c0,0.081,0.081,0.162,0.081,0.242c0.402,0.482,0.402,0.885,0.08,1.448c-0.241,0.321-0.482,0.402-0.885,0.161
	c-0.402-0.322-0.725-0.725-0.483-1.368c0-0.081,0-0.161,0-0.161c-0.805-1.046-0.966-2.414-1.368-3.621
	c-0.08-0.241-0.161-0.482-0.241-0.644c-0.081-0.483-0.241-0.724-0.805-0.483c-0.402,0.162-0.805,0.081-1.207,0.081
	c-0.081,0-0.241,0.161-0.241,0.241c-0.161,0.482-0.322,0.966-0.402,1.449c-0.081,0.321,0,0.724-0.081,1.045
	c-0.161,1.047-0.242,2.093-0.402,3.139c0,0.242-0.161,0.482-0.241,0.645c-0.161,0.16-0.402,0.24-0.563,0.24
	c-0.241-0.08-0.483-0.16-0.483-0.562c0.081-0.563,0.161-1.047,0.242-1.529c0.161-0.725,0.161-1.529,0.241-2.334
	c0.081-0.402,0.081-0.805,0.161-1.207c0.08-0.402,0.161-0.805,0.241-1.126s0-0.402-0.322-0.563c-0.644-0.16-1.207-0.402-1.771-0.724
	c-0.161-0.081-0.161-0.563-0.161-0.805c0-0.081,0.402-0.161,0.563-0.161c0.402,0.08,0.885,0.241,1.288,0.402
	c0.161,0.08,0.241,0.08,0.402,0.08c0.322,0.081,0.402-0.08,0.483-0.321c0.241-1.288,0.482-2.656,0.724-3.943
	c0.081-0.402,0.081-0.885,0.161-1.368c0.081-0.322,0.161-0.724,0.563-0.724s0.805,0.161,0.966,0.644
	c0.241,0.724,0.482,1.448,0.644,2.173c0.322,1.046,0.563,2.012,0.805,3.058c0.081,0.322,0.241,0.402,0.483,0.241
	c0.402-0.161,0.805-0.161,1.207-0.482c0.241-0.161,0.724-0.081,1.046,0c0.081,0,0.081,0.402,0.081,0.644
	C54.878,201.569,54.798,201.73,54.798,201.811z M50.694,201.649c-0.322-0.966-0.08-1.931-0.885-2.736
	c-0.242,0.805-0.402,1.61-0.563,2.333c-0.081,0.402,0.241,0.483,0.563,0.483C50.05,201.811,50.372,201.73,50.694,201.649z"/>
<path fill="#FFFFFF" d="M324.12,196.982c-0.081-0.081-0.241-0.161-0.322-0.161c-0.805,0.08-1.609,0.08-2.414,0.161
	c-0.321,0-0.482,0.242-0.402,0.563c0.081,0.805,0.241,1.609,0.241,2.494c0,0.402,0,0.886,0,1.288
	c0.081,1.046,0.161,2.092,0.242,3.138c0.08,1.448,0.16,2.897,0.241,4.426c0.563-0.081,1.126-0.161,1.609-0.321
	c0.482-0.081,0.885-0.322,1.287-0.483c0.483-0.161,0.966-0.081,1.127,0.321c0.161,0.483,0.08,0.886-0.483,1.047
	c-0.965,0.322-1.851,0.805-2.896,0.805c-0.322,0-0.725,0.16-1.046,0.16c-0.241,0-0.483,0-0.725-0.08
	c-0.402-0.08-0.563-0.322-0.482-0.725c0.08-1.287,0.161-2.654,0.08-3.942c0-1.368-0.241-2.655-0.321-4.023
	c-0.081-1.368-0.081-2.736-0.161-4.104c0-1.207-0.081-2.414-0.081-3.621c0-0.805,0.161-1.609,0.322-2.414
	c0-0.081,0.161-0.241,0.241-0.241c0.805-0.161,1.609-0.483,2.495-0.402c0.562,0,1.126-0.161,1.689-0.242
	c0.08,0.081,0.322,0.242,0.402,0.402c0.08,0.242,0.161,0.563,0.161,0.885c0,0.081-0.322,0.241-0.483,0.241
	c-0.885,0-1.77,0.081-2.574,0.081c-0.483,0-0.886,0.322-0.886,0.805c0,0.885,0.081,1.771,0.081,2.736
	c0.644,0,1.207-0.081,1.77-0.081c0.483-0.08,0.966-0.08,1.529-0.161c0.08,0,0.241,0.081,0.241,0.161
	c0.081,0.242,0.161,0.563,0.081,0.805C324.603,196.5,324.361,196.741,324.12,196.982z"/>
<path fill="#FFFFFF" d="M43.613,202.938c0.081,0.402,0.161,0.805,0.242,1.126c0.241,0.805,0.081,1.69,0,2.495
	c-0.081,0.562-0.242,1.126-0.563,1.609c-0.241,0.402-0.563,0.805-0.885,1.207c-0.161,0.24-0.241,0.321,0,0.562
	c0.885,0.966,1.771,1.932,2.656,2.978c0.482,0.563,0.805,1.126,1.126,1.689c-0.161,0.241-0.322,0.402-0.483,0.563
	c-0.161,0.241-0.483,0.322-0.644,0.161c-0.322-0.241-0.563-0.563-0.805-0.886c-0.322-0.402-0.644-0.885-0.966-1.287
	c-0.402-0.482-0.805-0.965-1.207-1.367c-0.402-0.483-0.885-0.886-1.288-1.288c-0.08,0-0.08,0.081-0.161,0.081
	c0,0.724-0.081,1.528-0.081,2.252c0,0.805-0.081,1.609-0.081,2.334c0,0.322-0.402,0.725-0.724,0.725
	c-0.483,0-0.724-0.242-0.724-0.725c0.081-1.368,0.161-2.655,0.161-4.023c0-0.644-0.081-1.207-0.081-1.851
	c0-1.046-0.081-2.093-0.081-3.058c0-1.287-0.081-2.575-0.081-3.782c0-1.046,0.242-1.287,1.288-1.207c0.161,0,0.241-0.08,0.402-0.08
	c1.207-0.081,1.931,0.482,2.575,1.448c0.161,0.161,0.322,0.322,0.483,0.482C43.613,202.938,43.613,202.938,43.613,202.938z
	 M40.395,208.892c0.08,0,0.161,0,0.241,0c0.322-0.241,0.805-0.402,1.046-0.724c0.563-0.645,0.966-1.369,1.046-2.254
	c0.161-1.127,0.161-2.092-0.563-3.058c-0.483-0.644-0.885-0.885-1.609-0.724c-0.161,0.08-0.322,0.321-0.322,0.482
	c0,1.287,0.081,2.574,0.161,3.781C40.475,207.282,40.395,208.087,40.395,208.892z"/>
<path fill="#FFFFFF" d="M260.793,206.396c0-0.24,0.08-0.562,0.08-0.885c0-1.207-0.08-2.494-0.08-3.701c0-1.287,0-2.575,0-3.862
	c0-0.322-0.081-0.724-0.081-1.046c0-0.805,0-1.609,0.081-2.414c0-0.563,0.644-0.966,1.207-0.885
	c0.724,0.081,1.367,0.402,1.931,0.805c0.402,0.241,0.886,0.322,1.288,0.563c0.965,0.644,1.367,1.609,1.85,2.575
	c0.564,1.126,0.805,2.333,0.645,3.54c-0.161,1.288-0.563,2.494-1.207,3.701c-0.322,0.645-0.645,1.288-1.287,1.771
	c-0.402,0.24-0.805,0.562-1.369,0.402c-0.24-0.081-0.562,0.16-0.885,0.24c-0.241,0.081-0.482,0.081-0.805,0.162
	c-0.16,0-0.321,0-0.402,0C261.034,207.363,260.873,207.201,260.793,206.396z M262.402,205.592c1.287,0.322,2.092-0.16,2.654-1.045
	c0.322-0.483,0.564-0.967,0.725-1.529c0.563-1.609,0.725-3.219,0.08-4.828c-0.321-0.885-0.643-1.69-1.447-2.253
	c-0.564-0.402-1.127-0.805-1.771-0.966c-0.402-0.08-0.563,0-0.483,0.402c0,0.563,0.081,1.207,0.081,1.771
	c0,1.046-0.081,2.092,0.08,3.138s0.081,2.172,0.081,3.298C262.402,204.225,262.402,204.949,262.402,205.592z"/>
<path fill="#FFFFFF" d="M280.507,209.375c-0.483,0.08-0.724-0.162-0.805-0.564c-0.081-0.321,0.241-0.805,0.644-0.885
	c1.207-0.08,1.529-0.965,1.852-1.932c0.24-0.805,0.24-1.609,0-2.333c-0.162-0.724-0.242-1.528-0.564-2.253
	c-0.482-1.207-1.126-2.333-1.689-3.46c-0.644-1.207-1.046-2.495-1.046-3.862c0-0.885,0-1.851,0-2.736
	c0-0.322,0.161-0.644,0.241-1.046c0.08-0.322,0.08-0.644,0.161-0.965c0.081-0.242,0.161-0.483,0.321-0.644
	c0.402-0.483,0.645-1.207,1.449-1.287c0.241,0,0.482-0.081,0.725,0c0.16,0,0.321,0.161,0.321,0.322c0,0.161-0.081,0.322-0.161,0.482
	c-0.402,0.483-0.805,0.885-1.207,1.288c-0.08,0.081-0.08,0.081-0.08,0.161c0.08,0.965-0.482,1.77-0.402,2.736
	c0,0.965,0.241,1.931,0.402,2.896c0.322,1.449,0.965,2.736,1.77,4.023c0.886,1.368,1.127,3.058,1.449,4.667
	c0.16,0.967-0.08,1.852-0.482,2.736c-0.162,0.322-0.242,0.725-0.402,1.047C282.438,208.65,281.633,209.294,280.507,209.375z"/>
<path fill="#FFFFFF" d="M275.115,198.592c-0.241-0.322-0.562-0.402-0.885-0.241c-0.161,0.08-0.322,0-0.482,0.08
	c-0.482,0-0.966,0.081-1.449,0.161c-0.08,0-0.16,0.161-0.16,0.241c0,0.885,0.08,1.69,0.08,2.575c0,0.402,0,0.725,0,1.127
	c0,0.321,0.08,0.402,0.402,0.321c0.645-0.08,1.207-0.161,1.851-0.161c0.322,0,0.644,0.081,0.966,0.161
	c0.08,0,0.241,0.241,0.241,0.321c0,0.242-0.08,0.483-0.08,0.805c0,0-0.081,0.081-0.161,0.081c-0.563-0.081-1.046,0-1.609,0
	c-0.402,0-0.725,0.081-1.046,0.161c-0.241,0.08-0.483,0.241-0.402,0.562c0,0.886,0,1.771,0,2.736c0,0.242-0.081,0.563-0.081,0.805
	c0,0.645,0.081,1.207,0.162,1.852c0,0.08,0.24,0.24,0.321,0.24c0.724-0.16,1.368-0.321,2.092-0.482
	c0.725-0.241,1.288,0.161,1.127,0.885c-0.081,0.322-0.563,0.645-1.046,0.645c-0.563,0.08-1.127,0.16-1.771,0.241
	c-0.483,0.081-1.046,0.241-1.528,0.241c-0.564,0.08-0.805-0.241-0.886-0.725c0-0.321,0.081-0.643,0-0.965
	c0-0.966,0-2.012-0.081-2.978c0-0.402,0-0.805,0-1.207c0-1.448,0-2.816,0-4.265c0-0.725,0.081-1.529,0.081-2.253
	c0-0.402,0-0.805-0.081-1.207c0-0.322,0-0.483,0.322-0.644c0.645-0.322,1.368-0.402,2.092-0.482
	c0.483-0.081,0.886-0.322,1.368-0.322c0.322,0,0.805,0.081,0.966,0.322c0.322,0.402,0.161,0.885-0.161,1.126
	C275.276,198.431,275.196,198.511,275.115,198.592z"/>
<path fill="#FFFFFF" d="M154.255,191.108c0.161,0.081,0.322,0.161,0.482,0.241c0.322,0.081,0.402,0.242,0.402,0.483
	c0,0.242-0.08,0.402-0.402,0.483c-0.322,0.081-0.724,0.322-0.965,0.563c-0.242,0.241-0.402,0.644-0.563,1.046
	c-0.081,0.081-0.161,0.161-0.241,0.241c-0.081,0.081-0.161,0.081-0.161,0.161c-0.241,1.046-0.483,2.172-0.563,3.219
	c-0.081,1.126,0.161,2.333,0.885,3.299c0.242,0.402,0.402,0.805,0.644,1.207c0.322,0.563,0.805,1.046,0.965,1.609
	c0.322,0.724,0.563,1.448,0.483,2.333c0,0.081,0,0.242,0.081,0.402c0.483,0.645,0.161,1.288,0,1.932
	c-0.081,0.482-0.161,0.966-0.402,1.368c-0.322,0.563-0.644,1.126-1.046,1.609c-0.402,0.402-0.966,0.563-1.449,0.805
	c-0.081,0.081-0.402-0.081-0.482-0.161c-0.081-0.16-0.161-0.482-0.081-0.644c0.081-0.241,0.322-0.483,0.563-0.644
	c0.966-0.645,1.449-1.609,1.529-2.816c0.161-1.529-0.322-2.978-1.126-4.266c-0.483-0.804-1.046-1.608-1.529-2.413
	c-0.483-0.885-0.644-1.851-0.644-2.897c0-0.885-0.081-1.771,0.161-2.655c0.322-0.966,0.563-1.931,1.288-2.736
	c0.322-0.322,0.402-0.805,0.724-1.046c0.402-0.402,0.966-0.644,1.449-0.965C154.255,191.028,154.255,191.028,154.255,191.108z"/>
<path fill="#FFFFFF" d="M123.275,208.811c0-0.08-0.081-0.08-0.081-0.08c-0.563-0.322-0.322-0.885-0.241-1.367
	c0.161-0.886,0.402-1.771,0.563-2.656c0.161-0.562,0.322-1.127,0.482-1.689c0.242-1.046,0.563-2.092,0.805-3.058
	c0.081-0.402,0.242-0.725,0.402-1.046c0.402-0.805,0.966-1.046,1.851-0.805c0.08,0,0.241,0.081,0.241,0.161
	c0.483,0.805,1.368,1.368,1.448,2.495c0,0.161,0.161,0.402,0.242,0.563c0.322,0.805,0.563,1.609,0.885,2.414
	c0.081,0.16,0.242,0.402,0.402,0.482c0.483,0.16,0.402,0.562,0.402,0.885s0,0.645,0.081,0.885c0.081,0.322,0.242,0.725,0.402,1.047
	c0.242,0.402,0.161,0.805-0.161,1.207c-0.242,0.322-0.725,0.402-0.966,0c-0.161-0.322-0.322-0.645-0.402-0.885
	c-0.161-0.402-0.241-0.805-0.402-1.207c-0.081-0.162-0.402-0.322-0.563-0.322c-0.885-0.08-1.771-0.08-2.656-0.08
	c-0.402,0-0.885,0.08-1.287,0.16c-0.081,0-0.242,0.08-0.242,0.161c-0.161,0.563-0.402,1.126-0.402,1.69
	C123.999,208.57,124.08,208.57,123.275,208.811z M128.666,204.305c-0.08-0.16-0.08-0.322-0.161-0.482
	c-0.402-1.207-0.885-2.414-1.288-3.621c-0.081-0.322-0.402-0.563-0.563-0.805c-0.161,0.322-0.483,0.563-0.563,0.885
	c-0.161,0.483-0.322,1.046-0.483,1.529c-0.241,0.885-0.402,1.77-0.644,2.736C126.172,204.466,127.379,204.385,128.666,204.305z"/>
<path fill="#FFFFFF" d="M138,213.076c-1.046-0.482-1.851-1.127-2.414-2.092c-0.402-0.725-0.966-1.369-1.288-2.174
	c-0.322-0.724-0.402-1.528-0.563-2.333c-0.161-0.886-0.322-1.851-0.483-2.816c-0.242-1.609-0.242-3.299,0.081-4.908
	c0.161-0.885,0.241-1.771,0.482-2.656c0.402-1.287,0.644-2.655,1.449-3.701c0.241-0.402,0.805-0.563,1.287-0.805
	c0.161-0.081,0.322,0.081,0.563,0.081c-0.081,0.161-0.081,0.402-0.161,0.563c-0.161,0.242-0.402,0.483-0.563,0.805
	c-0.402,0.885-0.805,1.771-1.046,2.655c-0.322,1.046-0.402,2.092-0.563,3.138c-0.322,1.609-0.322,3.219,0,4.828
	c0.241,1.207,0.402,2.495,0.724,3.702c0.242,0.885,0.563,1.77,1.046,2.574c0.402,0.645,1.046,1.047,1.609,1.609
	c0.725,0.645,0.725,0.645,0,1.287C138.161,212.915,138.081,212.996,138,213.076z"/>
<path fill="#FFFFFF" d="M79.26,217.019c0.081-0.482,0.402-0.805,0.965-0.885c0.322,0,0.725-0.081,1.046-0.161
	c0.081,0,0.161-0.08,0.241-0.08c0.724-1.207,1.207-2.414,0.966-3.782c-0.081-0.483-0.322-0.886-0.644-1.288
	c-0.563-0.724-1.207-1.447-1.851-2.172c-0.483-0.563-0.805-1.287-0.966-2.012c-0.08-0.322-0.241-0.645-0.322-0.966
	c0-0.081,0-0.161,0-0.241c0.242-0.645,0.483-1.368,0.805-2.012c0.724-1.287,1.69-1.771,3.299-1.529c0.241,0,0.483,0.242,0.563,0.483
	c0.081,0.321-0.241,0.482-0.563,0.563c-0.242,0-0.483-0.081-0.724,0c-0.242,0.08-0.644,0.08-0.805,0.24
	c-0.724,0.886-1.126,1.932-0.805,3.139c0.322,1.047,0.965,1.689,1.609,2.494c0.482,0.645,1.126,1.207,1.448,1.932
	c0.322,0.645,0.483,1.449,0.402,2.173c-0.081,0.885-0.161,1.771-0.563,2.655c-0.482,1.046-1.368,1.609-2.414,1.851
	c-0.081,0-0.242,0-0.322,0.081C80.145,217.743,79.662,217.662,79.26,217.019z"/>
<path fill="#FFFFFF" d="M141.943,202.374c0.241,1.046,1.126,2.092,2.253,2.173c0.402,0,0.805,0.08,0.885-0.242
	c0.402-0.16,0.805-0.241,1.046-0.402c0.322-0.16,0.563-0.16,0.724,0.242c0.161,0.24,0.322,0.402,0.563,0.724
	c-0.402,0.241-0.724,0.483-1.126,0.644c-0.724,0.322-1.529,0.645-2.414,0.563c-0.805-0.081-1.448-0.402-1.931-1.046
	c-0.402-0.563-0.885-1.047-1.288-1.609c-0.563-0.644-0.563-1.448-0.402-2.253c0.081-0.322,0.081-0.644,0.161-0.885
	c0.161-0.563,0.241-1.126,0.482-1.609c0.161-0.402,0.563-0.724,0.885-1.046c0.885-0.644,1.851-0.483,2.897-0.402
	c0.402,0,1.046,0.804,1.046,1.287c-0.081,0.563-0.081,1.207-0.241,1.771c-0.242,0.804-0.966,1.207-1.69,1.529
	C143.15,201.972,142.587,202.213,141.943,202.374z M141.943,201.006c0.322-0.08,0.563-0.08,0.805-0.161
	c0.402-0.161,0.805-0.402,1.207-0.644c0.08,0,0.08-0.081,0.08-0.081c0.081-0.241,0.161-0.402,0.242-0.644
	c0-0.402,0.161-0.885,0-1.207c-0.161-0.402-0.644-0.081-0.966,0c-0.08,0-0.161,0-0.161,0c-0.242,0.161-0.483,0.241-0.724,0.483
	C141.943,199.396,142.104,200.201,141.943,201.006z"/>
<path fill="#FFFFFF" d="M311.567,199.477c0.08,0.483,0.161,1.046,0.241,1.609c0,0.483-0.161,0.966,0,1.368
	c0.321,0.886,0.08,1.851,0.402,2.735c0.241,0.645,0.966,1.047,1.689,0.805c0.886-0.321,1.288-0.885,1.368-1.85
	c0-0.725,0.161-1.368,0.161-2.093c0-0.402,0-0.885,0-1.287c0-0.483-0.081-1.046,0-1.529c0-0.161,0.241-0.402,0.402-0.482
	c0.08-0.081,0.321,0,0.482,0.08c0.644,0.242,0.563,0.725,0.563,1.288c0,0.885,0,1.77-0.08,2.656
	c-0.081,0.885-0.081,1.851-0.402,2.655c-0.242,0.805-0.645,1.689-1.69,2.012c-0.966,0.241-1.931,0.322-2.816-0.242
	c-0.644-0.402-0.885-1.126-1.126-1.85c-0.563-1.771-0.322-3.621-0.402-5.392c0-0.322,0.161-0.483,0.482-0.483
	C311.084,199.396,311.326,199.477,311.567,199.477z"/>
<path fill="#FFFFFF" d="M112.01,195.534c-0.161,0.805-0.322,0.965-1.046,0.724c-0.644-0.161-1.287,0.161-1.77,0.402
	c-0.724,0.483-0.563,1.609,0.161,1.931c0.482,0.241,0.885,0.563,1.287,0.885c0.483,0.402,0.966,0.724,1.368,1.126
	c0.724,0.725,1.126,1.689,0.885,2.736c-0.161,0.562-0.483,1.207-0.805,1.689c-0.081,0.16-0.483,0.322-0.725,0.322
	c-0.805,0-1.689,0-2.494-0.081c-0.242,0-0.402-0.241-0.563-0.402c-0.322-0.402-0.161-0.805,0.322-0.805c0.402,0,0.805,0,1.207,0.081
	c1.207,0.321,1.529-0.242,1.609-1.288c0.081-0.966-0.563-1.609-1.288-2.092c-0.402-0.322-0.885-0.644-1.287-0.885
	c-0.242-0.161-0.402-0.242-0.644-0.402c-0.805-0.483-0.965-1.288-0.885-2.173c0.08-1.207,0.965-1.609,1.931-1.931
	C110.159,195.292,110.963,195.212,112.01,195.534z"/>
<path fill="#FFFFFF" d="M372.642,193.684c0.644,0,1.207,0.161,1.689,0.724c0.08,0.161,0.08,0.402,0.161,0.563
	c-0.241,0-0.482,0.081-0.725,0.081c-0.321-0.081-0.644-0.241-1.046-0.241c-0.321,0-0.724,0.081-0.805,0.563
	c0,0.081-0.08,0.081-0.08,0.161c-0.322,0.724-0.241,0.805,0.563,0.965c0.724,0.161,1.528,0.322,2.012,1.046
	c0.321,0.402,0.724,0.805,1.046,1.207c0.402,0.402,0.321,1.529-0.081,1.931c-1.046,1.207-2.414,1.368-3.942,1.127
	c-0.241-0.08-0.483-0.161-0.725-0.322c-0.241-0.16-0.482-0.402-0.241-0.805c0.161-0.321,0.644-0.563,0.885-0.402
	c0.805,0.402,1.609,0.402,2.495,0c0.563-0.242,0.724-0.966,0.241-1.449c-0.644-0.644-1.287-1.207-2.334-1.126
	c-0.402,0-0.885-0.161-1.207-0.402c-0.805-0.563-0.885-1.851-0.241-2.575c0.241-0.322,0.483-0.563,0.805-0.805
	C371.756,193.684,371.917,193.603,372.642,193.684z"/>
<path fill="#FFFFFF" d="M329.913,205.994c-0.402-0.08-0.965-0.24-1.609-0.402c-0.402-0.08-0.402-0.402-0.241-0.724
	c0.081-0.321,0.322-0.483,0.725-0.402c0.482,0.081,0.966,0.161,1.448,0.241c0.241,0,0.644-0.08,0.644-0.16
	c0-0.322,0-0.725-0.161-0.967c-0.241-0.482-0.724-0.724-1.287-0.885c-0.644-0.241-1.368-0.562-1.932-0.965
	c-0.482-0.322-0.644-0.886-0.482-1.368c0.161-0.966,0.482-1.851,1.448-2.253c0.644-0.322,1.448-0.644,2.173,0
	c0.08,0.081,0.161,0.081,0.241,0.081c0.241,0.081,0.563,0.081,0.483,0.483c-0.081,0.322-0.483,0.563-0.805,0.483
	c-0.081,0-0.242-0.081-0.322-0.081c-0.482-0.161-0.966,0-1.287,0.402c-0.322,0.483-0.402,1.288-0.081,1.609
	c0.241,0.242,0.644,0.322,0.966,0.563c0.644,0.322,1.368,0.644,1.932,0.966c0.724,0.402,0.885,2.092,0.321,2.736
	C331.362,205.834,331.12,205.994,329.913,205.994z"/>
<path fill="#FFFFFF" d="M199.879,207.766c-0.322-0.645-0.322-0.967,0-1.449c0.644-0.965,1.288-1.851,1.77-2.896
	c0.241-0.563,0.321-1.207,0.402-1.851c0.081-0.563,0.081-1.127,0.161-1.69c0.08-0.644,0.482-0.966,1.046-1.126
	c0.402,0.563,0.241,1.046,0.161,1.609c-0.08,0.644-0.08,1.207-0.161,1.851c-0.161,0.644-0.321,1.287-0.563,1.851
	c-0.16,0.321-0.322,0.724-0.482,1.046c-0.482,0.563-0.966,1.127-1.448,1.689C200.442,207.121,200.201,207.363,199.879,207.766z"/>
<path fill="#FFFFFF" d="M168.497,180.326c0.081,0.081,0.322,0.161,0.322,0.322c0,0.161,0,0.322-0.161,0.402
	c-0.402,0.322-0.805,0.563-1.126,0.885c-0.563,0.563-1.046,1.207-1.448,1.851c-0.563,0.885-1.046,1.77-1.288,2.736
	c-0.081,0.161-0.081,0.402-0.161,0.483c-0.161,0.161-0.402,0.402-0.563,0.402c-0.322,0-0.322-0.242-0.322-0.563
	c0-1.368,0.885-2.414,1.368-3.541c0.322-0.724,0.966-1.288,1.448-1.851c0.402-0.402,0.966-0.725,1.529-1.046
	C168.175,180.406,168.336,180.406,168.497,180.326z"/>
<path fill="#FFFFFF" d="M167.692,185.073c0.563,0.885,0.483,0.885-0.322,1.529c-0.241,0.161-0.402,0.482-0.563,0.724
	c-0.081,0.081-0.081,0.161-0.161,0.161c-0.805,0.805-0.885,1.931-1.126,2.978c-0.081,0.482-0.563,0.965-0.966,0.965
	c-0.08,0-0.241-0.161-0.241-0.241c0-1.609,0.402-3.058,1.207-4.426c0.402-0.644,0.966-1.126,1.609-1.529
	C167.371,185.234,167.532,185.154,167.692,185.073z"/>
<path fill="#FFFFFF" d="M341.742,201.006c0.08-0.482,0.08-0.805,0.161-1.207c0-0.724,0.08-1.529,0-2.253
	c0-0.402,0.241-0.563,0.482-0.563s0.644,0.242,0.644,0.483c0.241,1.207,0.322,2.414,0.483,3.541c0,0.322-0.322,0.725-0.725,0.805
	c-0.321,0.08-0.805-0.161-0.885-0.482C341.903,201.247,341.822,201.086,341.742,201.006z"/>
<path fill="#FFFFFF" d="M203.178,207.201c-0.08,0.162-0.16,0.322-0.321,0.483c-0.563,0.563-1.126,1.126-1.771,1.69
	c-0.16,0.16-0.562,0.16-0.804,0.08c-0.242-0.161-0.081-0.402,0.081-0.563c0.241-0.241,0.482-0.483,0.805-0.724
	c0.321-0.322,0.563-0.564,0.885-0.886c0.161-0.161,0.322-0.321,0.483-0.402c0.16-0.081,0.321-0.161,0.402-0.081
	C203.098,206.799,203.098,207.041,203.178,207.201z"/>
<path fill="#FFFFFF" d="M342.547,192.718c0.402,0.241,0.724,0.563,1.126,0.805c-0.402,0.322-0.724,0.805-1.206,0.966
	c-0.322,0.08-0.886-0.242-0.725-0.805C341.742,193.361,341.822,192.798,342.547,192.718z"/>
<path fill="#FFFFFF" d="M182.418,199.316c-0.241,0.161-0.402,0.242-0.563,0.322c-0.242,0.081-0.563,0.161-0.644,0.081
	c-0.241-0.161-0.483-0.483-0.483-0.805c0-0.644,0-1.368,0.161-2.012c0.081-0.402,0.402-0.885,0.724-1.207
	c0.402-0.322,0.966-0.402,1.368-0.563c0.402-0.161,0.724-0.402,1.046-0.644c0.322-0.242,0.644-0.483,0.885-0.725
	c0.805-0.644,0.805-1.207,0.161-1.931c-0.482-0.563-1.126-0.965-1.931-0.885c-0.805,0.081-1.689,0.242-2.333,0.966
	c-0.241,0.241-0.322,0.563-0.724,0.483c-0.483,0-0.805-0.322-0.644-0.885c0.161-0.644,0.724-0.966,1.126-1.368
	c0.805-0.724,1.77-0.804,2.736-0.644c0.081,0,0.081,0,0.161,0c0.885-0.081,1.609,0.081,2.173,0.805
	c0.483,0.644,1.126,1.126,1.288,1.931c0.161,0.644-0.161,1.207-0.402,1.69c-0.563,1.046-1.529,1.69-2.575,2.333
	c-0.322,0.161-0.563,0.322-0.885,0.402c-0.563,0.161-0.644,0.644-0.644,1.126C182.499,198.351,182.418,198.833,182.418,199.316z"/>
<path fill="#FFFFFF" d="M180.728,201.891c0.081,0,0.242,0,0.322-0.08c0.482-0.322,0.805-0.161,1.046,0.241
	c0.241,0.241,0.483,0.563,0.161,0.886c-0.563,0.482-0.966,0.482-1.368,0.08c-0.081-0.08-0.161-0.241-0.322-0.322
	C180.728,202.454,180.728,202.213,180.728,201.891z"/>
</svg>
