<?xml version="1.0" encoding="utf-8"?>
<!-- Generator: Adobe Illustrator 16.0.4, SVG Export Plug-In . SVG Version: 6.00 Build 0)  -->
<!DOCTYPE svg PUBLIC "-//W3C//DTD SVG 1.1//EN" "http://www.w3.org/Graphics/SVG/1.1/DTD/svg11.dtd">
<svg version="1.1" id="Siganture_xA0_Image" xmlns="http://www.w3.org/2000/svg" xmlns:xlink="http://www.w3.org/1999/xlink"
	 x="0px" y="0px" width="389.5px" height="160px" viewBox="55 169.5 389.5 160" enable-background="new 55 169.5 389.5 160"
	 xml:space="preserve">
<g>
	<g>
		<path fill="#FFFFFF" d="M332.607,204.214c1.016,0.08,1.826,0.469,2.588,1c0.111,0.08,0.223,0.159,0.333,0.222
			c0.921,0.5,1.636,1.239,2.303,2.041c0.659,0.794,1.08,1.723,1.413,2.699c0.421,1.23,0.738,2.493,0.929,3.787
			c0.144,0.992,0.199,2,0.111,3.009c-0.119,1.326-0.325,2.628-0.571,3.93c-0.31,1.644-1.017,3.065-2.072,4.311
			c-0.524,0.619-1.08,1.215-1.636,1.802c-0.571,0.587-1.246,1.016-1.977,1.374c-0.905,0.445-1.85,0.746-2.826,0.96
			c-0.715,0.159-1.43,0.294-2.199,0.31c-0.016,0.143-0.056,0.27-0.048,0.396c0.071,1.064-0.056,2.112-0.317,3.128
			c-0.246,0.953-0.723,1.818-1.334,2.588c-0.81,1.016-1.786,1.834-2.922,2.445c-1.223,0.659-2.532,0.921-3.89,1.04
			c-1.278,0.111-2.453-0.207-3.597-0.754c-0.198-0.095-0.381-0.214-0.563-0.317c-0.056,0.032-0.119,0.04-0.127,0.071
			c-0.19,0.516-0.548,0.881-0.945,1.215c-0.944,0.802-1.953,1.493-3.088,1.985c-0.278,0.119-0.477,0.302-0.651,0.556
			c-0.563,0.826-1.159,1.612-1.778,2.39c-0.635,0.794-1.207,1.636-1.786,2.477c-0.437,0.635-0.85,1.286-1.255,1.937
			c-0.325,0.516-0.611,1.056-0.929,1.58c-0.27,0.445-0.523,0.906-0.833,1.318c-0.5,0.667-0.754,1.381-0.684,2.23
			c0.088,1.12,0.326,7.225,0.342,9.354c0.008,0.865,0.031,1.738,0.104,2.604c0.079,0.929,0.429,13.544,0.492,17.275
			c0.016,1.008,0.119,2.009,0.166,3.018c0.024,0.547,0.032,1.095,0.049,1.643c0.047,1.557,0.095,3.104,0.246,4.66
			c0.062,0.611,0.087,1.23,0.135,1.85c0.127,1.461,0.254,2.914,0.381,4.375c0.048,0.596,0.104,1.184,0.119,1.778
			c0.023,1.056,0.254,2.088,0.365,3.128c0.079,0.746,0.143,1.5,0.222,2.255c0.096,0.841,0.175,1.683,0.382,2.501
			c0.071,0.285,0.11,0.588,0.11,0.881c0.009,0.811,0.191,1.58,0.397,2.35c0.079,0.287,0.079,0.588,0.119,0.897
			c0.127,0.048,0.246,0.104,0.365,0.151c0.27,0.104,0.556,0.174,0.802,0.325c0.825,0.492,1.73,0.802,2.62,1.144
			c0.452,0.174,0.937,0.246,1.405,0.373c0.19,0.047,0.381,0.111,0.571,0.174c0.715,0.238,1.397,0.588,2.159,0.611
			c0.556,0.278,1.048,0.072,1.572-0.166c0.604-0.27,1.254-0.429,1.882-0.643c0.595-0.207,1.183-0.151,1.754,0.087
			c1.04,0.429,2.136,0.556,3.224,0.754c0.738,0.136,1.484,0.255,2.223,0.357c0.326,0.048,0.659,0.048,0.993,0.063
			c1.04,0.039,2.08,0.08,3.12,0.111c0.364,0.008,0.698,0.087,0.992,0.325c0.381,0.31,0.373,0.755-0.056,1.009
			c-0.207,0.127-0.444,0.19-0.675,0.254c-0.144,0.039-0.31,0.031-0.461,0.023c-0.881-0.063-1.763-0.135-2.644-0.198
			c-0.063-0.008-0.135-0.024-0.198-0.024c-1.318,0.024-2.588-0.309-3.866-0.562c-0.992-0.199-1.985-0.422-2.93-0.826
			c-0.611-0.262-1.255-0.15-1.945,0.039c0.088,0.151,0.135,0.271,0.206,0.365c0.294,0.405,0.119,0.905-0.373,0.945
			c-0.389,0.031-0.802,0.008-1.183-0.08c-0.627-0.143-1.238-0.349-1.85-0.531c-0.262-0.08-0.508-0.119-0.786-0.071
			c-0.421,0.079-0.834,0.016-1.246-0.111c-0.738-0.23-1.509-0.373-2.231-0.659c-1.048-0.412-2.136-0.746-3.096-1.373
			c-0.072-0.048-0.159-0.08-0.238-0.119c-0.159-0.08-0.31-0.056-0.429,0.063c-0.857,0.778-1.882,1.278-2.866,1.834
			s-2.049,0.96-3.08,1.421c-0.159,0.071-0.35,0.096-0.517,0.071c-0.508-0.063-0.69-0.548-0.365-0.952
			c0.246-0.303,0.563-0.517,0.905-0.684c0.119-0.055,0.246-0.103,0.357-0.174c0.039-0.024,0.055-0.111,0.096-0.215
			c-0.676-0.127-1.318-0.238-1.93-0.484c-0.619-0.238-1.246-0.452-1.93-0.698c-0.111,0.048-0.277,0.11-0.437,0.198
			c-1.198,0.635-2.437,1.191-3.708,1.651c-0.516,0.19-1.016,0.46-1.556,0.571c-0.627,0.127-1.238,0.311-1.882,0.373
			c-0.571,0.057-1.135,0.184-1.699,0.311c-1,0.222-2.198,0.229-3.135-0.271c-1.009,0.54-2.104,0.89-3.176,1.286
			c-0.271,0.104-0.549,0.199-0.842,0.143c-0.159-0.031-0.302-0.087-0.334-0.277c-0.031-0.175,0.024-0.318,0.159-0.421
			c0.087-0.063,0.183-0.127,0.286-0.175c0.619-0.302,1.238-0.611,1.857-0.904c0.421-0.199,0.85-0.382,1.278-0.572
			c0.143-0.063,0.278-0.135,0.429-0.19c0.325-0.127,0.65-0.127,0.961,0.048c0.666,0.365,1.381,0.27,2.072,0.15
			c0.69-0.119,1.373-0.302,2.072-0.412c0.754-0.127,1.531-0.207,2.198-0.691c0.198-0.143,0.437-0.215,0.659-0.317
			c0.238-0.119,0.477-0.238,0.715-0.365c0.174-0.095,0.341-0.206,0.523-0.294c0.842-0.404,1.691-0.785,2.533-1.199
			c0.42-0.206,0.833-0.412,1.342-0.389c0.047-0.143,0.095-0.262,0.119-0.396c0.047-0.246,0.087-0.492,0.127-0.738
			c0.047-0.342,0.119-0.684,0.119-1.017c0-0.571,0.016-1.144,0.087-1.715c0.048-0.413,0.032-0.817-0.048-1.23
			c-0.119-0.611-0.063-1.23,0-1.842c0.056-0.501,0.096-1.001,0.096-1.501c0.008-2.127,0.008-4.255-0.016-6.383
			c-0.008-0.826-0.064-1.644-0.096-2.469c-0.016-0.461-0.008-0.913-0.031-1.373c-0.032-0.866-0.08-1.739-0.119-2.604
			c-0.024-0.501-0.064-1.009-0.057-1.509c0.024-1.238,0.072-2.469,0.104-3.707c0.023-1.096,0.056-2.199,0.04-3.295
			c-0.017-1.326-0.397-15.49-0.429-16.791c-0.031-1.461-0.063-2.93-0.104-4.391c-0.039-1.326-0.913-12.575-0.953-14.449
			c-0.023-1.032-0.016-2.056-0.023-3.088c0-0.04-0.023-0.087-0.055-0.174c-0.088,0.008-0.191-0.008-0.295,0.016
			c-1.19,0.238-2.334,0.048-3.43-0.468c-0.404-0.19-0.809-0.365-1.198-0.587c-1.032-0.596-1.937-1.358-2.755-2.239
			c-0.071-0.08-0.158-0.151-0.223-0.207c-1.65,0.246-3.255,0.222-4.811-0.333c-1.445-0.516-2.724-1.294-3.771-2.469
			c-0.667-0.746-1.27-1.524-1.659-2.461c-0.373-0.897-0.548-1.834-0.579-2.803c-0.024-0.595-0.008-1.191-0.024-1.786
			c-0.016-0.826-0.008-1.651,0.159-2.461c0.016-0.087,0.016-0.175,0.023-0.302c-0.135-0.032-0.262-0.072-0.381-0.08
			c-0.834-0.047-1.611-0.246-2.326-0.707c-0.548-0.349-1.104-0.667-1.588-1.12c-0.389-0.365-0.65-0.794-0.715-1.35
			c-0.039-0.365-0.119-0.722-0.214-1.072c-0.128-0.468-0.151-0.945-0.167-1.429c-0.008-0.484,0.039-0.961,0.23-1.414
			c0.039-0.103,0.063-0.214,0.104-0.349c-0.088-0.103-0.168-0.214-0.263-0.294c-0.341-0.27-0.611-0.603-0.833-0.968
			c-0.532-0.874-1.057-1.747-1.549-2.636c-0.666-1.199-1.023-2.525-1.389-3.843c-0.199-0.723-0.373-1.461-0.532-2.191
			c-0.144-0.667-0.246-1.35-0.373-2.025c-0.214-1.175-0.23-2.366-0.198-3.557c0.031-1.135,0.27-2.215,0.73-3.247
			c0.523-1.159,1.016-2.342,1.802-3.35c0.882-1.12,1.826-2.175,3.064-2.898c1.548-0.905,3.144-1.667,4.866-2.144
			c0.778-0.214,1.564-0.326,2.366-0.207c0.175,0.024,0.35,0.04,0.532,0.032c0.707-0.016,1.413,0,2.119,0.151
			c0.064,0.016,0.127-0.008,0.238-0.016c0.008-0.104,0.04-0.214,0.024-0.318c-0.079-0.627,0.048-1.23,0.167-1.834
			c0.023-0.135,0.079-0.27,0.087-0.397c0.024-0.841,0.365-1.596,0.659-2.358c0.182-0.468,0.484-0.873,0.825-1.238
			c0.611-0.659,1.342-1.096,2.159-1.437c1.247-0.516,2.533-0.611,3.852-0.492c0.389,0.032,0.762,0.222,1.143,0.341
			c0.143,0.048,0.277,0.111,0.429,0.167c0.214-0.73,0.437-1.421,0.619-2.127c0.333-1.271,0.865-2.438,1.612-3.509
			c0.476-0.69,0.96-1.374,1.531-1.985c0.167-0.183,0.326-0.381,0.509-0.54c1.46-1.302,2.913-2.596,4.612-3.565
			c0.588-0.333,1.207-0.571,1.857-0.722c0.342-0.08,0.691-0.167,1.033-0.262c1.65-0.429,3.278-0.405,4.897,0.19
			c1.469,0.548,2.851,1.247,4.05,2.294c0.444,0.389,0.833,0.818,1.15,1.318c0.429,0.667,0.842,1.342,1.271,2.017
			c0.333,0.524,0.532,1.104,0.723,1.691c0.111,0.341,0.246,0.69,0.413,1.008c0.356,0.699,0.563,1.437,0.675,2.215
			c0.063,0.453,0.103,0.905,0.166,1.397c0.144-0.008,0.271,0,0.397-0.023c0.54-0.104,1.056-0.087,1.556,0.167
			c0.119,0.056,0.246,0.095,0.373,0.135c1.128,0.333,2.017,1.032,2.724,1.977c0.373,0.508,0.706,1.048,1.04,1.588
			c0.277,0.445,0.444,0.945,0.532,1.469c0.023,0.151,0.079,0.294,0.127,0.492c0.158-0.04,0.285-0.071,0.404-0.111
			c0.524-0.174,1.04-0.143,1.572-0.016c1.517,0.373,2.778,1.175,3.787,2.39c0.444,0.54,0.857,1.104,1.278,1.667
			c0.492,0.675,0.73,1.461,0.889,2.271c0.215,1.08,0.326,2.167,0.294,3.271c-0.04,1.04-0.215,2.048-0.651,2.993
			C332.933,203.619,332.782,203.865,332.607,204.214z M305.249,249.61c0.063-0.119,0.063-0.174,0.118-0.349
			c-0.11,0.08-0.15,0.175-0.246,0.286c-0.062,0.135-0.087,0.183-0.127,0.246c-0.039,0.063-0.11,0.143-0.15,0.199
			c-0.198,0.302-0.381,0.611-0.563,0.92c-0.032,0.056-0.017,0.144-0.024,0.325c0.357-0.5,0.73-1.253,0.826-1.365
			C305.17,249.77,305.186,249.722,305.249,249.61z M285.354,193.56c0.539,0.207,0.937,0.54,1.277,0.929
			c0.127,0.151,0.246,0.333,0.303,0.524c0.127,0.46-0.23,0.826-0.684,0.714c-0.127-0.032-0.246-0.095-0.357-0.175
			c-0.15-0.095-0.293-0.207-0.42-0.333c-0.199-0.19-0.438-0.293-0.691-0.389c-0.698-0.262-1.412-0.357-2.15-0.365
			c-0.422-0.008-0.842,0-1.264-0.056c-0.689-0.095-1.365-0.016-2.031,0.167c-1.525,0.421-2.97,1.04-4.352,1.826
			c-0.508,0.286-1,0.595-1.404,1.024c-0.651,0.683-1.303,1.366-1.834,2.167c-0.414,0.627-0.691,1.326-1.033,1.993
			c-0.666,1.286-0.92,2.652-0.912,4.097c0.008,0.993,0.119,1.961,0.277,2.93c0.104,0.604,0.23,1.207,0.357,1.81
			c0.096,0.445,0.215,0.889,0.31,1.334c0.254,1.191,0.587,2.35,1.071,3.453c0.501,1.144,1.104,2.239,1.668,3.351
			c0.135,0.262,0.31,0.5,0.477,0.738c0.071,0.103,0.182,0.167,0.277,0.254c0.08-0.071,0.119-0.127,0.175-0.167
			c0.271-0.238,0.556-0.286,0.771-0.111c0.262,0.214,0.35,0.532,0.23,0.794c-0.08,0.167-0.168,0.318-0.255,0.484
			c-0.103,0.198-0.222,0.397-0.31,0.604c-0.246,0.619-0.198,1.254-0.079,1.889c0.079,0.429,0.183,0.85,0.246,1.278
			c0.048,0.286,0.151,0.508,0.365,0.707c0.571,0.524,1.238,0.874,1.929,1.191c0.143,0.063,0.294,0.104,0.445,0.119
			c0.508,0.048,1.016,0.135,1.516,0.119c0.517-0.016,0.977,0.429,0.922,1.008c-0.04,0.389-0.072,0.778-0.096,1.159
			c-0.039,0.5-0.096,1-0.104,1.5c-0.008,0.754,0,1.508,0.04,2.263c0.056,1.159,0.317,2.263,1.009,3.215
			c0.262,0.365,0.555,0.707,0.857,1.04c1.19,1.318,2.659,2.096,4.382,2.358c0.698,0.103,1.405,0.143,2.112,0.214
			c0.039,0,0.079-0.04,0.143-0.072c-0.016-0.071-0.008-0.167-0.048-0.238c-0.23-0.429-0.357-0.889-0.421-1.366
			c-0.079-0.611-0.15-1.223-0.183-1.842c-0.016-0.294,0.048-0.596,0.111-0.881c0.071-0.302,0.357-0.508,0.636-0.5
			c0.254,0.008,0.508,0.198,0.603,0.468c0.032,0.087,0.04,0.175,0.048,0.27c0.048,0.572,0.104,1.135,0.135,1.707
			c0.048,0.826,0.35,1.548,0.794,2.223c0.437,0.675,1.04,1.175,1.636,1.691c0.81,0.698,1.723,1.199,2.699,1.587
			c0.754,0.302,1.524,0.453,2.342,0.23c0.23-0.063,0.484-0.032,0.723-0.032c0.15,0,0.31,0.024,0.461,0.008
			c0.896-0.079,1.738-0.341,2.5-0.833c0.397-0.246,0.763-0.556,1.184-0.738c0.325-0.143,0.571-0.318,0.754-0.627
			c0.056-0.095,0.135-0.19,0.223-0.246c0.437-0.31,0.706-0.746,0.952-1.214c0.063-0.119,0.128-0.247,0.198-0.357
			c0.199-0.286,0.5-0.389,0.746-0.27s0.39,0.421,0.303,0.762c-0.072,0.262-0.191,0.508-0.311,0.754
			c-0.095,0.198-0.229,0.381-0.341,0.563c0.119,0.222,0.278,0.326,0.468,0.413c0.492,0.222,1.001,0.381,1.533,0.389
			c0.484,0.008,0.977,0,1.461,0.008c0.428,0.008,0.833-0.055,1.238-0.206c0.143-0.056,0.302-0.119,0.444-0.111
			c0.596,0.024,1.127-0.198,1.675-0.389c0.413-0.143,0.834-0.317,1.215-0.532c0.429-0.238,0.842-0.508,1.238-0.802
			c0.357-0.262,0.691-0.564,1.024-0.874c0.215-0.198,0.39-0.437,0.484-0.746c-0.071-0.087-0.127-0.183-0.214-0.254
			c-0.382-0.342-0.588-0.794-0.794-1.254c-0.063-0.143-0.088-0.31-0.096-0.469c-0.008-0.198,0.088-0.357,0.278-0.429
			c0.183-0.063,0.356-0.032,0.476,0.127c0.111,0.143,0.199,0.302,0.286,0.461c0.215,0.413,0.524,0.738,0.921,0.96
			c0.405,0.23,0.81,0.468,1.23,0.675c1.096,0.548,2.247,0.81,3.47,0.635c0.31-0.04,0.619-0.063,0.921-0.127
			c0.738-0.151,1.469-0.357,2.128-0.739c0.81-0.468,1.571-1.008,2.199-1.747c0.841-0.984,1.437-2.08,1.58-3.406
			c0.031-0.27,0.087-0.54,0.118-0.818c0.04-0.341,0.072-0.683,0.08-1.024c0.016-0.381-0.017-0.381-0.381-0.524
			c-0.271-0.104-0.54-0.214-0.771-0.373c-0.278-0.191-0.35-0.524-0.246-0.786c0.111-0.278,0.437-0.484,0.754-0.453
			c0.127,0.016,0.262,0.056,0.39,0.087c0.635,0.167,1.262,0.167,1.913,0.087c0.77-0.095,1.524-0.262,2.278-0.468
			c0.778-0.215,1.501-0.556,2.191-0.969c0.381-0.23,0.746-0.5,1.063-0.81c0.532-0.516,1.032-1.072,1.517-1.635
			c0.825-0.953,1.445-2.032,1.691-3.295c0.238-1.183,0.468-2.374,0.627-3.572c0.135-0.977,0.127-1.969,0.008-2.946
			c-0.175-1.405-0.477-2.794-0.944-4.136c-0.183-0.532-0.397-1.063-0.707-1.548c-0.834-1.318-2.04-2.207-3.303-3.017
			c-0.04-0.024-0.079-0.04-0.119-0.056c-0.246-0.095-0.5-0.183-0.746-0.293c-0.254-0.111-0.5-0.246-0.762-0.373
			c-0.175,0.238-0.326,0.46-0.501,0.675c-0.198,0.246-0.421,0.468-0.714,0.603c-0.254,0.111-0.477,0.08-0.684-0.095
			c-0.293-0.23-0.373-0.635-0.19-0.984c0.072-0.135,0.19-0.254,0.278-0.381c0.294-0.429,0.611-0.842,0.873-1.294
			c0.524-0.897,0.842-1.866,0.89-2.914c0.048-1.199-0.08-2.374-0.357-3.541c-0.135-0.54-0.35-1.04-0.667-1.484
			c-0.35-0.5-0.723-0.984-1.096-1.469c-0.754-0.977-1.723-1.636-2.866-2.009c-0.302-0.095-0.604-0.167-0.913-0.095
			c-0.706,0.159-1.452,0.183-2.127,0.508c-0.119,0.056-0.254,0.087-0.382,0.103c-0.158,0.024-0.31-0.032-0.396-0.183
			c-0.096-0.159-0.104-0.365,0.023-0.508c0.119-0.135,0.254-0.246,0.405-0.349c0.143-0.103,0.294-0.175,0.46-0.278
			c-0.11-0.683-0.198-1.334-0.563-1.905c-0.277-0.437-0.54-0.889-0.833-1.318c-0.501-0.73-1.159-1.254-1.978-1.548
			c-0.143-0.056-0.293-0.103-0.429-0.175c-0.412-0.206-0.857-0.222-1.302-0.183c-0.277,0.024-0.373,0.104-0.365,0.374
			c0,0.397-0.063,0.778-0.175,1.151c-0.056,0.199-0.135,0.389-0.238,0.556c-0.158,0.254-0.421,0.35-0.69,0.278
			c-0.238-0.064-0.452-0.318-0.477-0.596c-0.008-0.135,0.017-0.27,0.032-0.405c0.031-0.413,0.087-0.818,0.095-1.23
			c0.024-0.667-0.031-1.326-0.119-1.985c-0.103-0.754-0.293-1.469-0.619-2.16c-0.19-0.413-0.349-0.841-0.492-1.27
			c-0.183-0.54-0.412-1.064-0.714-1.541c-0.263-0.42-0.524-0.849-0.778-1.278c-0.373-0.635-0.834-1.175-1.397-1.636
			c-0.913-0.746-1.945-1.247-3.017-1.707c-1.517-0.651-3.049-0.707-4.613-0.238c-0.214,0.063-0.428,0.111-0.65,0.151
			c-0.73,0.111-1.397,0.405-2.041,0.786c-0.865,0.516-1.715,1.048-2.469,1.731c-0.23,0.206-0.477,0.405-0.738,0.587
			c-0.556,0.389-1.032,0.857-1.5,1.35c-0.803,0.865-1.453,1.842-2.064,2.85c-0.167,0.27-0.31,0.556-0.421,0.85
			c-0.382,1.024-0.746,2.048-1.12,3.081c-0.023,0.055,0,0.135,0,0.23c0.111,0.063,0.23,0.111,0.334,0.19
			c0.238,0.167,0.484,0.318,0.691,0.524c0.254,0.246,0.262,0.571,0.087,0.81c-0.19,0.262-0.517,0.326-0.834,0.151
			c-0.095-0.056-0.175-0.135-0.27-0.199c-0.151-0.095-0.294-0.198-0.461-0.27c-0.548-0.238-1.104-0.477-1.659-0.699
			c-0.206-0.08-0.429-0.135-0.643-0.151c-1.263-0.104-2.469,0.095-3.621,0.643c-0.762,0.365-1.412,0.873-1.81,1.651
			c-0.302,0.603-0.619,1.214-0.659,1.921c-0.016,0.293-0.096,0.587-0.174,0.873C285.321,192.139,285.361,192.822,285.354,193.56z
			 M304.415,247.078c0.095-0.072,0.198-0.111,0.263-0.191c0.293-0.365,0.571-0.754,0.873-1.119c0.437-0.548,0.889-1.072,1.317-1.627
			c0.39-0.5,0.746-1.017,1.12-1.524c0.055-0.08,0.079-0.183,0.127-0.318c-1.278,0.056-2.478-0.016-3.613-0.675
			c-0.023,0.127-0.047,0.214-0.047,0.294c0.008,0.365,0.031,0.73,0.031,1.096c0.008,0.619-0.008,1.23,0.008,1.85
			c0.016,0.683,0.057,1.366-0.111,2.041C304.375,246.943,304.399,246.991,304.415,247.078z M302.795,273.11
			c0.263-0.111,0.199-0.318,0.191-0.492c-0.04-0.803-0.088-1.596-0.119-2.398c-0.023-0.523-0.023-1.056-0.04-1.58
			c-0.04-1.969-0.229-3.93-0.198-5.898c0-0.254-0.016-0.508-0.135-0.73c-0.127-0.23-0.135-0.477-0.135-0.73s0-0.5,0-0.754
			c-0.032-1.922-0.064-0.984-0.104-2.906c-0.008-0.229-0.262-3.557-0.318-3.961c-0.008-0.072-0.07-0.143-0.174-0.326
			c-0.031,0.23-0.056,0.334-0.056,0.438c-0.008,0.571,0.317,4.255,0.317,4.572c-0.008,1.303-0.079,2.604,0.08,3.906
			c0.07,0.611,0.087,1.23,0.11,1.85c0.04,1.032,0.024,2.064,0.087,3.089c0.096,1.46,0.223,2.921,0.191,4.39
			C302.471,272.126,302.7,272.594,302.795,273.11z M302.391,249.88c0.056-0.079,0.096-0.111,0.096-0.151
			c0.055-2.509,0.104-5.018,0.15-7.526c0-0.023-0.016-0.047-0.023-0.063c-0.008-0.016-0.032-0.024-0.048-0.04
			c-0.46,0.175-0.484,0.198-0.484,0.659c0,1.508,0.024,3.017-0.008,4.517c-0.017,0.802,0.143,1.588,0.183,2.382
			C302.264,249.738,302.344,249.801,302.391,249.88z M303.479,291.116c0.056-0.072,0.111-0.119,0.119-0.175
			c0.039-0.271,0.111-0.54,0.104-0.81c-0.024-0.818-0.08-1.636-0.127-2.461c-0.049-0.914-0.096-1.818-0.144-2.731
			c-0.008-0.104,0.017-0.23-0.151-0.278c-0.031,0.048-0.087,0.096-0.087,0.151c-0.04,1.206-0.087,2.413,0.071,3.62
			c0.056,0.429,0.111,0.857,0.08,1.294C303.312,290.187,303.359,290.64,303.479,291.116z M304.153,298.968
			c0.079-0.071,0.167-0.111,0.167-0.15c0.016-0.223,0.023-0.453,0.008-0.676c-0.032-0.381-0.072-0.77-0.127-1.15
			c-0.08-0.588-0.159-1.168-0.246-1.755c-0.016-0.111-0.064-0.222-0.238-0.198c-0.159,0.342-0.032,0.69,0.008,1.04
			c0.031,0.246,0.079,0.492,0.096,0.738c0.031,0.476-0.017,0.952,0.206,1.405c0.056,0.111,0.023,0.27,0.04,0.404
			C304.082,298.729,304.113,298.825,304.153,298.968z M308.162,244.506c0.302-0.333,0.611-0.643,0.945-0.945
			c0.46-0.413,0.786-0.953,1.119-1.532c-0.357-0.056-0.588-0.008-0.738,0.341c-0.104,0.246-0.286,0.453-0.444,0.659
			c-0.405,0.508-0.818,1.008-1.223,1.517l-1.271,1.429c-0.611,0.69-1.215,1.374-1.818,2.072c-0.135,0.151-0.254,0.31-0.35,0.492
			c-0.039,0.08-0.008,0.199-0.008,0.342c0.104-0.064,0.176-0.087,0.207-0.135c0.246-0.373,0.437-0.786,0.881-0.968
			c0.056-0.024,0.088-0.104,0.127-0.151c0.429-0.58,0.857-1.151,1.286-1.731L308.162,244.506z M300.08,260.336
			c-0.087,0.468-0.119,2.659-0.062,3.208c0,0.016,0.055,0.031,0.086,0.047c0.017-0.023,0.041-0.039,0.041-0.056
			c0.062-0.833,0.127-1.675,0.189-2.509C300.351,260.788,300.295,260.582,300.08,260.336z M304.559,302.255
			c-0.088,0.119-0.159,0.174-0.151,0.223c0.048,0.42,0.103,0.841,0.167,1.254c0.008,0.055,0.063,0.111,0.15,0.238
			C305.003,303.351,304.82,302.851,304.559,302.255z"/>
		<path fill="#FFFFFF" d="M280.828,213.114c-0.651,0.548-1.318,0.969-1.723,1.675c-0.056,0.095-0.135,0.183-0.215,0.254
			c-0.174,0.159-0.373,0.175-0.548,0.071c-0.222-0.127-0.341-0.333-0.286-0.563c0.049-0.19,0.136-0.389,0.246-0.556
			c0.469-0.715,1.128-1.215,1.826-1.659c0.151-0.096,0.303-0.175,0.453-0.27c0.031-0.365-0.023-0.707-0.063-1.04
			c-0.183-1.31-0.079-2.596,0.302-3.858c0.301-1.008,0.675-1.977,1.23-2.866c0.604-0.969,1.35-1.802,2.23-2.509
			c0.119-0.095,0.254-0.183,0.397-0.246c0.278-0.127,0.532-0.04,0.698,0.207c0.159,0.23,0.143,0.524-0.063,0.746
			c-0.071,0.08-0.167,0.143-0.254,0.222c-0.325,0.31-0.651,0.62-0.969,0.929c-0.913,0.905-1.517,2.017-1.913,3.247
			c-0.143,0.429-0.302,0.857-0.404,1.302c-0.238,1.08-0.215,2.184-0.072,3.271c0.143,1.135,0.357,2.255,0.707,3.342
			c0.079,0.254,0.111,0.532,0.135,0.81c0.023,0.317-0.127,0.516-0.373,0.556c-0.238,0.04-0.469-0.095-0.548-0.389
			c-0.214-0.817-0.571-1.588-0.69-2.429C280.939,213.312,280.899,213.257,280.828,213.114z"/>
		<path fill="#FFFFFF" d="M306.845,209.47c0.286,0.143,0.556,0.254,0.794,0.405c0.167,0.103,0.333,0.23,0.444,0.389
			c0.223,0.325,0.032,0.786-0.35,0.841c-0.183,0.024-0.389-0.023-0.579-0.079c-0.167-0.048-0.317-0.159-0.477-0.246
			c-0.746-0.413-1.532-0.564-2.373-0.389c-0.517,0.103-1.041,0.207-1.557,0.317c-0.484,0.111-0.913,0.326-1.262,0.707
			c-0.287,0.317-0.588,0.619-0.874,0.937c-0.429,0.477-0.746,1.008-0.929,1.636c-0.143,0.5-0.318,0.992-0.492,1.484
			c-0.048,0.127-0.104,0.254-0.175,0.365c-0.183,0.254-0.484,0.23-0.659-0.04c-0.104-0.167-0.127-0.341-0.087-0.524
			c0.183-0.874,0.381-1.747,0.778-2.541c0.293-0.579,0.69-1.119,1.127-1.604c1.056-1.167,1.215-1.318,2.779-1.707
			c0.857-0.214,1.723-0.429,2.619-0.341c0.167,0.016,0.302-0.047,0.405-0.19c0.111-0.143,0.214-0.294,0.341-0.421
			c1.128-1.183,2.525-1.635,4.089-1.596c0.35,0.008,0.698,0.095,1.009,0.286c0.262,0.159,0.381,0.405,0.325,0.611
			c-0.071,0.246-0.31,0.413-0.619,0.413c-0.088,0-0.175-0.008-0.263-0.032c-0.523-0.143-1.071-0.151-1.579-0.048
			c-0.874,0.167-1.699,0.5-2.358,1.159C306.893,209.303,306.884,209.351,306.845,209.47z"/>
		<path fill="#FFFFFF" d="M305.805,190.805c-0.199,0.008-0.396,0.032-0.596,0.032c-0.135,0-0.262-0.047-0.317-0.198
			c-0.063-0.175-0.017-0.381,0.135-0.492c0.127-0.087,0.271-0.167,0.413-0.214c0.619-0.183,1.246-0.294,1.897-0.167
			c0.548,0.111,1.08,0.246,1.596,0.445c1.017,0.397,1.874,1.016,2.564,1.881c1.032,1.294,1.984,2.636,2.644,4.176
			c0.175,0.397,0.286,0.817,0.357,1.246c0.063,0.35,0.008,0.683-0.071,1.016c-0.024,0.111-0.08,0.215-0.144,0.31
			c-0.158,0.246-0.389,0.357-0.619,0.301c-0.222-0.055-0.404-0.262-0.404-0.556c-0.008-1.072-0.429-1.993-0.921-2.897
			c-0.548-1.024-1.191-1.977-1.922-2.874c-0.746-0.905-1.699-1.453-2.786-1.763c-0.365-0.103-0.73-0.175-1.104-0.23
			c-0.238-0.032-0.484-0.008-0.73-0.008C305.805,190.813,305.805,190.805,305.805,190.805z"/>
		<path fill="#FFFFFF" d="M327.375,216.306c0,0.381,0.016,0.651-0.008,0.929c-0.023,0.301-0.183,0.508-0.469,0.595
			c-0.27,0.08-0.563-0.056-0.706-0.373c-0.135-0.31-0.223-0.643-0.286-0.977c-0.071-0.381-0.103-0.77-0.135-1.159
			c-0.048-0.556-0.23-1.064-0.516-1.54c-0.54-0.905-1.223-1.675-2.097-2.247c-0.548-0.357-1.127-0.5-1.771-0.389
			c-0.15,0.023-0.31,0.023-0.452-0.008c-0.183-0.04-0.31-0.174-0.342-0.373c-0.039-0.198,0.032-0.373,0.191-0.476
			c0.183-0.119,0.389-0.23,0.595-0.286c0.683-0.198,1.366-0.167,2.009,0.151c1.636,0.81,2.858,2.048,3.589,3.779
			c0.222,0.532,0.277,1.104,0.349,1.667C327.359,215.861,327.367,216.139,327.375,216.306z"/>
		<path fill="#FFFFFF" d="M312.395,224.952c-0.056,0.357-0.096,0.722-0.167,1.08c-0.159,0.762-0.405,1.493-0.723,2.207
			c-0.135,0.318-0.31,0.604-0.563,0.842c-0.175,0.159-0.381,0.222-0.611,0.214c-0.445-0.024-0.659-0.421-0.421-0.754
			c0.286-0.389,0.452-0.842,0.604-1.294c0.198-0.604,0.389-1.215,0.516-1.842c0.183-0.857-0.039-1.683-0.35-2.477
			c-0.087-0.223-0.293-0.397-0.452-0.588c-0.127-0.159-0.277-0.302-0.381-0.468c-0.104-0.159-0.056-0.365,0.071-0.508
			c0.127-0.143,0.278-0.23,0.469-0.167c0.127,0.04,0.246,0.103,0.356,0.175c0.644,0.413,1.096,0.984,1.303,1.747
			C312.22,223.721,312.378,224.316,312.395,224.952z"/>
		<path fill="#FFFFFF" d="M289.093,223.657c0-0.135-0.024-0.286,0.008-0.413c0.048-0.167,0.111-0.357,0.214-0.484
			c0.238-0.278,0.699-0.151,0.795,0.214c0.016,0.063,0.023,0.135,0.016,0.207c-0.135,1.262,0.46,2.136,1.396,2.826
			c0.072,0.056,0.151,0.095,0.223,0.151c0.072,0.056,0.143,0.111,0.207,0.175c0.222,0.238,0.27,0.516,0.127,0.746
			c-0.151,0.23-0.413,0.326-0.707,0.23c-0.079-0.024-0.166-0.072-0.238-0.119c-0.953-0.651-1.707-1.453-1.953-2.66
			c-0.055-0.286-0.079-0.587-0.127-0.874C289.068,223.657,289.084,223.657,289.093,223.657z"/>
	</g>
	<g>
		<path fill="#FFFFFF" d="M70.139,237.241c0,3.565-2.866,6.462-6.431,6.462c-3.533,0-6.399-2.897-6.399-6.462V221.18
			c0-0.698,0.532-1.063,1.064-1.063c0.531,0,1.104,0.365,1.104,1.063v16.061c0,2.398,1.897,4.303,4.231,4.303
			s4.263-1.938,4.263-4.303V221.18c0-0.698,0.532-1.063,1.064-1.063c0.531,0,1.104,0.365,1.104,1.063V237.241z"/>
		<path fill="#FFFFFF" d="M80.737,226.674c3.032,0,5.065,2.469,5.065,5.335v10.369c0,0.73-0.532,1.064-1.064,1.064
			c-0.531,0-1.063-0.333-1.063-1.064v-10.369c0-1.866-1.271-3.167-2.93-3.167c-1.834,0-3.43,1.469-3.43,3.167v10.369
			c0,0.73-0.563,1.064-1.104,1.064c-0.532,0-1.063-0.333-1.063-1.064v-14.402c0-0.698,0.531-1.063,1.063-1.063
			c0.5,0,1,0.302,1.063,0.937C78.269,227.111,79.467,226.674,80.737,226.674z"/>
		<path fill="#FFFFFF" d="M95.631,243.704c-3.469,0-6.097-3.667-6.097-8.534c0-4.2,2.167-8.503,5.764-8.503
			c4.033,0,5.533,4.501,5.731,8.034c0,0.564-0.396,1.032-1.031,1.032h-8.297c0.198,3.97,2.303,5.795,3.93,5.795
			c1.596,0,2.564-0.563,3.001-1.762c0.198-0.5,0.563-0.73,0.969-0.73c0.667,0,1.334,0.635,1.032,1.469
			C99.799,242.807,97.83,243.704,95.631,243.704z M95.298,228.842c-1.366,0-3.064,1.699-3.501,4.731h7.065
			C98.434,230.477,96.869,228.842,95.298,228.842z"/>
		<path fill="#FFFFFF" d="M113.827,229.08h-2.135c-0.73,0-1.064-0.532-1.064-1.064c0-0.532,0.334-1.104,1.064-1.104h2.135v-2.302
			c0-2.564,2.033-4.732,4.637-4.732c2.604,0,4.637,2.167,4.637,4.732c0,0.73-0.532,1.063-1.063,1.063
			c-0.532,0-1.064-0.333-1.064-1.063c0-1.469-1.135-2.564-2.501-2.564c-1.365,0-2.501,1.104-2.501,2.564v2.302h3.137
			c0.698,0,1.063,0.563,1.063,1.104c0,0.532-0.365,1.064-1.063,1.064h-3.137v13.298c0,0.73-0.531,1.064-1.063,1.064
			s-1.063-0.333-1.063-1.064V229.08H113.827z"/>
		<path fill="#FFFFFF" d="M133.532,235.209c0,4.2-2.199,8.503-5.764,8.503s-5.764-4.303-5.764-8.503
			c0-4.231,2.199-8.535,5.764-8.535S133.532,230.978,133.532,235.209z M124.164,235.209c0,4.001,2.001,6.335,3.597,6.335
			s3.597-2.334,3.597-6.335c0-4.033-2.001-6.367-3.597-6.367S124.164,231.176,124.164,235.209z"/>
		<path fill="#FFFFFF" d="M143.227,226.674c1.334,0,2.897,0.468,3.564,2.064c0.063,0.167,0.104,0.333,0.104,0.469
			c0,0.603-0.532,1.064-1.104,1.064c-0.365,0-0.771-0.199-0.969-0.667c-0.198-0.469-0.699-0.77-1.596-0.77
			c-1.167,0-2.699,0.897-3.835,1.866v11.663c0,0.73-0.532,1.063-1.063,1.063c-0.532,0-1.064-0.333-1.064-1.063v-14.434
			c0-0.699,0.532-1.064,1.064-1.064c0.531,0,1.063,0.365,1.063,1.064v0.23C140.495,227.58,141.893,226.674,143.227,226.674z"/>
		<path fill="#FFFFFF" d="M154.929,243.704c-3.47,0-6.098-3.667-6.098-8.534c0-4.2,2.168-8.503,5.764-8.503
			c4.033,0,5.534,4.501,5.732,8.034c0,0.564-0.396,1.032-1.032,1.032h-8.296c0.198,3.97,2.302,5.795,3.93,5.795
			c1.604,0,2.564-0.563,3.001-1.762c0.198-0.5,0.563-0.73,0.969-0.73c0.667,0,1.334,0.635,1.032,1.469
			C159.097,242.807,157.128,243.704,154.929,243.704z M152.793,224.277c-0.198,0.167-0.437,0.27-0.698,0.27
			c-0.302,0-0.604-0.135-0.803-0.365c-0.166-0.199-0.27-0.469-0.27-0.699c0-0.302,0.135-0.604,0.365-0.834l2.564-2.23
			c0.198-0.167,0.469-0.27,0.698-0.27c0.271,0,0.501,0.103,0.699,0.27l2.596,2.23c0.23,0.23,0.365,0.532,0.365,0.834
			c0,0.23-0.104,0.5-0.27,0.699c-0.23,0.23-0.5,0.365-0.802,0.365c-0.271,0-0.532-0.103-0.73-0.27l-1.866-1.636L152.793,224.277z
			 M154.595,228.842c-1.365,0-3.064,1.699-3.501,4.731h7.066C157.724,230.477,156.159,228.842,154.595,228.842z"/>
		<path fill="#FFFFFF" d="M168.695,241.274c0.896,0,1.604-0.699,1.604-1.564c0-0.699,0.532-1.064,1.063-1.064
			c0.532,0,1.104,0.365,1.104,1.064c0,2.064-1.698,3.731-3.763,3.731c-2.032,0-3.731-1.667-3.731-3.731v-9.535h-1.802
			c-0.73,0-1.064-0.532-1.064-1.063c0-0.532,0.334-1.104,1.064-1.104h1.802v-5.264c0-0.699,0.532-1.064,1.063-1.064
			c0.532,0,1.104,0.365,1.104,1.064v5.264h3.43c0.699,0,1.032,0.563,1.032,1.104c0,0.532-0.333,1.063-1.032,1.063h-3.43v9.535
			C167.123,240.576,167.822,241.274,168.695,241.274z"/>
		<path fill="#FFFFFF" d="M194.188,242.378c0,0.73-0.563,1.064-1.104,1.064c-0.396,0-0.802-0.199-0.969-0.635
			c-0.77,0.564-1.635,0.897-2.636,0.897c-3.532,0-5.962-4.231-5.962-8.502c0-4.303,2.43-8.535,5.962-8.535
			c0.969,0,1.803,0.333,2.564,0.865v-6.367c0-0.699,0.532-1.064,1.064-1.064c0.531,0,1.063,0.365,1.063,1.064v21.213H194.188z
			 M192.052,230.739c-0.77-1.334-1.698-1.897-2.564-1.897c-1.635,0-3.803,2.397-3.803,6.367c0,3.93,2.168,6.335,3.803,6.335
			c0.866,0,1.803-0.564,2.564-1.897V230.739z"/>
		<path fill="#FFFFFF" d="M203.317,243.704c-3.469,0-6.097-3.667-6.097-8.534c0-4.2,2.167-8.503,5.764-8.503
			c4.033,0,5.533,4.501,5.732,8.034c0,0.564-0.397,1.032-1.032,1.032h-8.297c0.198,3.97,2.303,5.795,3.93,5.795
			c1.596,0,2.564-0.563,3.001-1.762c0.199-0.5,0.564-0.73,0.969-0.73c0.667,0,1.334,0.635,1.032,1.469
			C207.485,242.807,205.517,243.704,203.317,243.704z M202.984,228.842c-1.365,0-3.064,1.699-3.501,4.731h7.065
			C206.12,230.477,204.557,228.842,202.984,228.842z"/>
	</g>
	<g>
		<path fill="#FFFFFF" d="M57.396,264.131c0-1.953,1.492-2.978,2.977-2.978c1.215,0,2.326,0.651,2.795,1.866
			c2.144-1.58,4.564-2.517,7.359-2.517c9.876,0,16.672,11.829,16.672,23.754c0,11.924-6.796,23.849-16.672,23.849
			c-2.699,0-5.033-0.929-7.082-2.421v17.696c0,2.048-1.579,2.978-3.072,2.978c-1.492,0-2.977-0.93-2.977-2.978V264.131z
			 M63.454,296.634c2.048,3.723,4.66,5.398,7.081,5.398c4.565,0,10.71-6.796,10.71-17.791c0-11.084-6.145-17.697-10.71-17.697
			c-2.421,0-5.033,1.58-7.081,5.217V296.634z"/>
		<path fill="#FFFFFF" d="M126.324,284.344c0,11.734-6.146,23.754-16.117,23.754c-9.963,0-16.116-12.012-16.116-23.754
			c0-11.829,6.145-23.849,16.116-23.849S126.324,272.515,126.324,284.344z M100.148,284.344c0,11.179,5.589,17.696,10.059,17.696
			s10.06-6.518,10.06-17.696c0-11.273-5.59-17.792-10.06-17.792S100.148,273.07,100.148,284.344z"/>
		<path fill="#FFFFFF" d="M150.729,308.09c-6.796,0-14.441-5.216-15.274-12.854c-0.183-2.144,1.492-3.263,3.072-3.263
			c1.397,0,2.795,0.842,2.978,2.699c0.373,3.914,4.747,7.359,9.225,7.359c4.843,0,8.757-3.818,8.757-7.828
			c0-12.48-23.937-3.723-23.937-20.769c0-7.638,6.336-12.948,14.347-12.948c8.105,0,12.671,5.398,13.973,11.178
			c0.556,2.326-1.215,3.724-2.978,3.724c-1.215,0-2.421-0.747-2.794-2.326c-0.842-3.636-3.446-6.519-8.193-6.519
			c-5.312,0-8.384,3.264-8.384,6.892c0,5.216,5.685,5.867,9.591,6.892c7.542,1.865,14.346,4.564,14.346,13.781
			C165.448,302.04,158.462,308.09,150.729,308.09z"/>
		<path fill="#FFFFFF" d="M192.084,308.09c-6.796,0-14.441-5.216-15.275-12.854c-0.183-2.144,1.493-3.263,3.073-3.263
			c1.396,0,2.794,0.842,2.977,2.699c0.373,3.914,4.748,7.359,9.226,7.359c4.843,0,8.757-3.818,8.757-7.828
			c0-12.48-23.937-3.723-23.937-20.769c0-7.638,6.335-12.948,14.346-12.948c8.106,0,12.671,5.398,13.974,11.178
			c0.556,2.326-1.215,3.724-2.978,3.724c-1.215,0-2.422-0.747-2.795-2.326c-0.842-3.636-3.445-6.519-8.193-6.519
			c-5.311,0-8.384,3.264-8.384,6.892c0,5.216,5.685,5.867,9.591,6.892c7.542,1.865,14.346,4.564,14.346,13.781
			C206.803,302.04,199.816,308.09,192.084,308.09z"/>
		<path fill="#FFFFFF" d="M225.523,253.198c0,2.049-1.58,2.978-3.072,2.978s-2.978-0.929-2.978-2.978v-4.286
			c0-1.953,1.493-2.978,2.978-2.978s3.072,1.024,3.072,2.978V253.198z M225.523,304.366c0,2.049-1.58,2.978-3.072,2.978
			s-2.978-0.929-2.978-2.978v-40.235c0-1.953,1.493-2.978,2.978-2.978s3.072,1.024,3.072,2.978V304.366z"/>
		<path fill="#FFFFFF" d="M245.546,262.916c2.049-1.493,4.375-2.421,7.082-2.421c9.876,0,16.673,11.829,16.673,23.849
			c0,11.925-6.797,23.754-16.673,23.754c-2.795,0-5.216-0.929-7.359-2.517c-0.469,1.215-1.58,1.771-2.699,1.771
			c-1.493,0-3.073-0.929-3.073-2.978v-59.241c0-1.953,1.493-2.977,2.978-2.977s3.072,1.024,3.072,2.977V262.916z M245.546,296.729
			c2.049,3.723,4.66,5.311,7.082,5.311c4.565,0,10.71-6.709,10.71-17.696c0-11.083-6.145-17.792-10.71-17.792
			c-2.422,0-5.033,1.58-7.082,5.312V296.729z"/>
		<path fill="#FFFFFF" d="M285.79,253.198c0,2.049-1.58,2.978-3.073,2.978c-1.492,0-2.977-0.929-2.977-2.978v-4.286
			c0-1.953,1.492-2.978,2.977-2.978c1.493,0,3.073,1.024,3.073,2.978V253.198z M285.79,304.366c0,2.049-1.58,2.978-3.073,2.978
			c-1.492,0-2.977-0.929-2.977-2.978v-40.235c0-1.953,1.492-2.978,2.977-2.978c1.493,0,3.073,1.024,3.073,2.978V304.366z"/>
		<path fill="#FFFFFF" d="M325.843,253.198c0,2.049-1.58,2.978-3.072,2.978s-2.978-0.929-2.978-2.978v-4.286
			c0-1.953,1.493-2.978,2.978-2.978c1.492,0,3.072,1.024,3.072,2.978V253.198z M325.843,304.366c0,2.049-1.58,2.978-3.072,2.978
			s-2.978-0.929-2.978-2.978v-40.235c0-1.953,1.493-2.978,2.978-2.978c1.492,0,3.072,1.024,3.072,2.978V304.366z"/>
		<path fill="#FFFFFF" d="M352.757,301.294c2.517,0,4.47-1.953,4.47-4.375c0-1.953,1.492-2.977,2.977-2.977
			c1.493,0,3.073,1.023,3.073,2.977c0,5.772-4.748,10.433-10.527,10.433c-5.685,0-10.433-4.66-10.433-10.433v-26.635h-5.033
			c-2.048,0-2.978-1.493-2.978-2.978c0-1.493,0.93-3.073,2.978-3.073h5.033v-14.726c0-1.953,1.493-2.977,2.978-2.977
			c1.492,0,3.072,1.024,3.072,2.977v14.718h9.591c1.953,0,2.89,1.58,2.89,3.072c0,1.493-0.929,2.979-2.89,2.979h-9.591v26.635
			C348.382,299.341,350.335,301.294,352.757,301.294z"/>
		<path fill="#FFFFFF" d="M387.967,308.09c-9.686,0-17.045-10.249-17.045-23.849c0-11.734,6.058-23.754,16.116-23.754
			c11.273,0,15.466,12.575,16.021,22.451c0,1.58-1.12,2.891-2.891,2.891h-23.189c0.556,11.082,6.431,16.203,10.987,16.203
			c4.47,0,7.169-1.58,8.384-4.938c0.556-1.398,1.58-2.049,2.699-2.049c1.866,0,3.724,1.771,2.89,4.097
			C399.613,305.581,394.12,308.09,387.967,308.09z M387.038,266.552c-3.819,0-8.566,4.748-9.781,13.227h19.745
			C395.795,271.117,391.412,266.552,387.038,266.552z M383.688,254.532c-0.842,0-1.675-0.373-2.326-1.023
			c-0.468-0.557-0.746-1.303-0.746-1.953c0-0.842,0.373-1.675,1.024-2.326l7.359-6.335c0.556-0.468,1.302-0.746,1.953-0.746
			c0.842,0,1.675,0.373,2.238,1.024c0.469,0.556,0.747,1.302,0.747,1.953c0,0.841-0.373,1.675-1.024,2.326l-7.359,6.335
			C384.989,254.255,384.339,254.532,383.688,254.532z"/>
		<path fill="#FFFFFF" d="M427.464,308.09c-6.796,0-14.441-5.216-15.274-12.854c-0.183-2.144,1.492-3.263,3.072-3.263
			c1.397,0,2.795,0.842,2.978,2.699c0.373,3.914,4.747,7.359,9.225,7.359c4.843,0,8.757-3.818,8.757-7.828
			c0-12.48-23.937-3.723-23.937-20.769c0-7.638,6.336-12.948,14.347-12.948c8.105,0,12.671,5.398,13.973,11.178
			c0.556,2.326-1.215,3.724-2.978,3.724c-1.214,0-2.421-0.747-2.794-2.326c-0.842-3.636-3.446-6.519-8.193-6.519
			c-5.312,0-8.384,3.264-8.384,6.892c0,5.216,5.685,5.867,9.591,6.892c7.542,1.865,14.346,4.564,14.346,13.781
			C442.176,302.04,435.188,308.09,427.464,308.09z"/>
	</g>
</g>
</svg>
