<?xml version="1.0" encoding="utf-8"?>
<!-- Generator: Adobe Illustrator 16.0.4, SVG Export Plug-In . SVG Version: 6.00 Build 0)  -->
<!DOCTYPE svg PUBLIC "-//W3C//DTD SVG 1.1//EN" "http://www.w3.org/Graphics/SVG/1.1/DTD/svg11.dtd">
<svg version="1.1" id="Layer_1" xmlns="http://www.w3.org/2000/svg" xmlns:xlink="http://www.w3.org/1999/xlink" x="0px" y="0px"
	 width="466.149px" height="320.813px" viewBox="22.864 98.708 466.149 320.813"
	 enable-background="new 22.864 98.708 466.149 320.813" xml:space="preserve">
<path fill="#FFFFFF" d="M202.625,377.093c-28.349,0-56.507-4.376-83.143-13.317c-24.353-8.182-43.759-18.646-59.361-31.964
	c-18.455-15.792-31.012-36.149-35.388-57.078c-8.751-42.237,15.221-81.05,30.441-100.266
	c38.433-49.277,119.673-69.444,152.778-75.723c0.952-0.19,1.712,0.381,1.903,1.332s-0.38,1.712-1.332,1.902
	c-32.724,6.279-113.014,26.256-150.875,74.582c-14.84,18.835-38.242,56.697-29.68,97.603c4.186,20.167,16.362,39.764,34.247,55.175
	c15.221,13.128,34.247,23.402,58.219,31.393c82.192,27.588,179.414,10.845,247.717-42.428c28.92-22.641,46.804-47.184,52.702-73.25
	c8.371-36.53-7.991-78.577-40.525-104.833c-28.349-22.831-68.112-34.437-111.872-32.725c-42.237,1.712-82.192,15.221-115.868,27.968
	c-0.761,0.38-1.712-0.19-2.093-0.952c-0.38-0.761,0.19-1.712,0.951-2.093c33.866-12.938,74.011-26.446,116.819-28.349
	c44.521-1.902,84.855,9.894,113.965,33.486c33.486,27.017,50.229,70.396,41.477,108.067c-6.088,26.636-24.163,51.94-53.843,75.152
	C323.06,357.496,262.557,377.093,202.625,377.093z"/>
<path fill="#FFFFFF" d="M428.653,419.521c-49.658,0-105.594-20.357-153.159-89.041l-1.331-1.902
	c-0.571-0.761-0.381-1.712,0.38-2.283c0.762-0.571,1.713-0.381,2.283,0.38l1.332,1.903
	c53.844,77.435,124.049,104.071,208.714,78.767c0.951-0.19,1.712,0.19,2.093,1.142c0.19,0.951-0.19,1.713-1.142,2.093
	C469.939,415.716,449.962,419.521,428.653,419.521z"/>
<g>
	<path fill="#FFFFFF" d="M175.799,297.184c0.38-0.57,0-1.141-0.381-1.712c-0.19-0.38-0.571-0.761-0.571-1.142
		c-0.19-0.761-0.38-1.332-0.951-1.902s-0.761-1.332-0.951-1.902c-0.571-1.332-1.142-2.854-1.712-4.186
		c-0.19-0.381-0.19-0.571-0.19-0.951c-0.19-0.571-0.38-0.951-0.571-1.332c-0.19-1.142-0.19-2.094-0.38-3.045
		c0-0.57,0-0.951-0.19-1.521c-0.571-1.713-0.19-3.615-0.571-5.327c-0.19-0.571,0-1.142,0-1.522c0-1.712,0-3.424,0-5.137
		c0-1.332,0-2.474,0.19-3.805c0-0.951,0-1.903,0.19-2.854c0.19-1.522,0.19-3.044,0.38-4.566s0.761-2.854,1.142-4.186
		c0.38-1.331,0.761-2.664,1.332-3.995c0.381-0.761,0.761-1.522,1.142-2.283c0.381-0.761,0.761-1.712,1.332-2.474
		c0.571-1.142,0.951-2.473,1.902-3.424c1.332-1.332,1.712-3.234,3.425-4.186c1.142-0.571,1.903-1.712,2.854-2.283
		c1.142-0.761,2.473-1.522,3.805-2.093c1.142-0.38,2.283,0,3.615,0c0-0.19,0.19-0.38,0.571-0.571c0.19-0.19,0.571-0.19,0.571,0
		c0.38,0.571,0.761,0.381,1.332,0.381c1.332-0.19,2.473,0.19,3.424,1.142c0.381,0.38,0.952,0.38,1.522,0.38
		c1.142,0.19,1.902,0.951,2.473,1.902c0,0.19,0.19,0.381,0.38,0.381c1.332,0.761,1.712,2.283,2.474,3.424
		c0.19,0.381,0.571,0.571,0.761,0.952c0.952,1.712,2.093,3.424,3.044,5.327c0.571,1.142,1.142,2.473,1.712,3.615
		c0.38,0.951,0.761,1.712,1.142,2.664c0.19,0.57,0.38,0.951,0.57,1.522c0.571,1.712,1.332,3.234,1.712,4.946
		c0.19,0.381,0,0.951,0,1.332c0.19,0.762,0.381,1.521,0.571,2.283c0.19,0.381,0.19,0.951,0.19,1.332c0,0.57,0.19,0.951,0.19,1.521
		c0,0.381,0.19,0.57,0.19,0.951c0,0.19,0,0.571,0.19,0.571c0.951,0.761,0.571,1.712,0.571,2.663s0.38,1.713,0.571,2.664
		c0.19,0.57,0.38,1.142,0.38,1.713c0.19,1.331,0.38,2.663,0.19,3.805c-0.19,1.902,0.38,3.805-0.19,5.898
		c-0.571,1.521-0.571,3.234-0.761,4.946c-0.19,1.331,0,2.663,0,3.995c0,0.57-0.19,1.142-0.381,1.713
		c-0.19,1.141-0.571,2.092-0.761,3.234c-0.19,0.57,0.19,1.141,0.951,1.141c0.951,0.191,1.712,0.381,2.664,0.571
		c0.19,0,0.38,0.19,0.571,0.19c1.332,0.951,2.664,1.142,4.376,0.57c1.332-0.38,2.664-0.951,3.996-0.57
		c0.571,0.19,1.141-0.19,1.712-0.381c0.761-0.381,1.522-0.761,2.283-1.141c0.761-0.381,2.283,0.189,2.664,1.141
		c0.381,0.571-0.38,2.283-0.951,2.664c-0.951,0.381-1.902,0.951-2.854,1.332c-0.571,0.189-1.332,0.189-1.902,0.38
		c-1.142,0.19-2.093,0.571-3.044,0.761c-0.19,0-0.571,0-0.761,0c-0.761,0-1.712,0.191-2.474,0.381h-0.19
		c-1.522-0.189-3.044-0.381-4.376-0.951c-0.761-0.381-1.712-0.57-2.474-0.761c-1.142-0.19-1.522,0-1.522,1.142
		c0,0.57-0.38,0.761-0.761,0.951c-0.571,0.381-0.951,0.951-1.141,1.521c-0.381,0.571-0.761,0.951-1.142,1.332
		c-1.142,1.332-2.854,1.902-4.566,2.664c-1.332,0.57-2.664,0.951-3.805,1.332c-0.38,0.189-0.951,0.189-1.332,0.189
		c-2.664,0.381-5.518,0.381-8.181-0.189c-0.381,0-0.571-0.191-0.952-0.381c-0.761-0.381-1.712-0.762-2.473-1.332
		c-1.522-1.142-3.234-1.902-4.376-3.615c-0.19-0.38-0.571-0.57-0.951-0.761c-1.142-0.951-2.093-2.283-2.854-3.425
		c-0.761-0.951-1.142-1.902-1.712-2.854C176.37,297.564,176.18,297.375,175.799,297.184z M208.523,292.998
		c0.381-1.712,0.761-3.424,0.952-5.137c0.38-2.093,0.38-4.376,0.571-6.469c0-0.951,0.38-1.902,0.19-2.664
		c-0.38-1.902,0.38-3.994-0.38-5.897c-0.19-0.38,0.19-0.951,0-1.522c-0.19-1.141-0.19-2.283-0.761-3.234s-0.761-1.902-0.571-3.044
		c0-0.19,0-0.19-0.19-0.38c-0.381-1.143-0.761-2.474-1.142-3.615c-0.19-1.142-0.38-2.474-0.571-3.615
		c-0.19-0.951-0.38-1.902-0.761-2.854c-0.38-0.762-0.951-1.142-0.761-2.093c0-0.381-0.19-0.761-0.381-1.142
		c-0.19-0.381-0.38-0.57-0.38-0.952c-0.19-0.761-0.38-1.712-0.761-2.283c-0.761-1.712-1.712-3.615-2.664-5.328
		c-0.571-0.951-1.522-1.522-1.902-2.473c-0.571-1.142-1.332-2.093-2.283-2.854c-0.38-0.38-0.38-0.761-0.761-0.951
		c-1.332-0.761-2.473-1.903-4.186-1.332c-0.19,0-0.38,0-0.38-0.19c-1.142-0.571-2.283-0.381-3.425-0.571
		c-1.332-0.19-1.902,1.142-2.854,1.522c-0.571,0.19-1.141,0.951-1.712,1.332c-0.571,0.57-1.522,0.951-1.903,1.712
		c-0.38,0.761-0.951,1.332-1.522,2.093c-0.38,0.761-1.142,1.332-1.142,2.093c-0.19,0.571,0,1.142-0.38,1.522
		c-0.381,0.19-0.761,0.571-0.761,0.951c-0.761,1.522-1.522,3.044-2.093,4.566c-0.38,0.951-0.571,2.093-0.951,3.044
		c-0.19,0.951-0.761,1.902-0.761,3.044c0,0.952-0.571,1.903,0.19,3.044c0,0.191,0,0.381,0,0.571c-0.19,0.951-0.19,2.093-0.381,3.044
		c-0.19,2.093-0.19,4.186-0.38,6.469c0,1.332,0,2.664,0.19,3.996c0.19,1.902,0.571,3.805,0.761,5.707
		c0.19,1.142,0,2.474,0.761,3.615c0.38,0.761,0.38,1.902,0.761,2.664c0.19,0.57,0.571,1.331,0.761,1.902
		c0.571,1.332,1.142,2.473,1.712,3.805c0.38,0.951,0.951,1.713,1.332,2.664c0.571,1.332,1.141,2.664,1.902,3.805
		c0.761,0.951,1.142,2.283,2.474,3.045c0,0,0,0,0.19,0.189c0.761,0.762,1.522,1.713,2.474,2.474
		c0.951,0.761,1.522,1.712,2.854,2.093c0.952,0.19,1.903,0.951,3.044,1.142c2.473,0.571,4.947,0.19,7.42-0.19
		c0.761-0.189,1.522-0.189,2.093-0.57c0.952-0.57,1.903-1.332,2.854-1.902c0.38-0.381,0.761-0.762,1.142-1.143
		c0.19-0.189,0-0.57,0.19-0.761c0.38-0.951,0.571-1.902,1.141-2.854c0.381-0.951,0-1.332-0.761-1.712
		c-1.903-0.951-3.615-2.283-4.376-4.377c0-0.189-0.38-0.38-0.38-0.38c-0.19-0.19-0.571-0.381-0.571-0.761
		c-0.381-1.332-1.903-1.902-2.093-3.426l0,0c-0.761-0.76-0.952-1.712-1.142-2.663c0-0.19,0-0.571,0.19-0.951
		c0.571-0.951,1.903-1.522,3.044-0.951c0.19,0,0.571,0.19,0.571,0.38c0.19,1.143,0.571,2.094,1.332,2.854
		c0.19,0.19,0.19,0.38,0.19,0.571c0.19,0.189,0.19,0.38,0.38,0.57c0.951,1.142,1.712,2.093,2.664,3.234
		C206.431,292.237,207.001,293.189,208.523,292.998z"/>
	<path fill="#FFFFFF" d="M274.924,289.574c0.951-0.381,2.093-0.762,3.045-1.143c1.331-0.57,2.473-1.331,3.805-2.092
		c0.189,0,0.381,0,0.57-0.19c0.571-0.19,0.951-0.381,1.522-0.571c1.331-0.57,2.474-1.332,3.995-1.712
		c2.283-0.571,4.757-0.951,7.04-1.712c3.614-0.951,7.42-1.143,11.034-1.143c1.143,0,2.094,0.191,3.235,0.381
		c0.38,0,0.951,0.19,1.331,0.19c1.713,0,3.234,0.761,4.757,1.331c1.142,0.381,2.283,1.143,3.615,1.332
		c0.761,0,1.712,1.143,2.473,1.713c0.19,0.19,0,0.57,0,0.951c0,0.19-0.189,0.381-0.189,0.381c-0.19,0.57-0.381,1.521-0.762,1.521
		c-1.331,0-2.663,0.571-3.614-0.57c-0.19-0.19-0.571-0.381-0.951-0.57c-0.381-0.191-0.571-0.191-0.952-0.381
		c-0.38-0.19-0.951-0.571-1.331-0.571c-1.522,0-2.854-0.57-4.187-1.142c-1.712-0.57-3.425-0.761-5.137-0.381c-0.19,0-0.19,0-0.38,0
		c-2.854-0.57-5.708,0.191-8.562,0.762c-1.521,0.19-3.044,0.57-4.375,0.951c-1.903,0.57-3.615,1.521-5.518,2.093
		c-2.474,0.761-4.566,2.283-6.85,3.234c-0.951,0.381-1.902,0.761-2.854,1.332s-1.713,1.331-2.475,2.093
		c-0.57,0.381-1.141,0.762-1.711,1.142c-0.191,0.19-0.381,0.19-0.571,0.38c-0.761,1.332-2.093,2.094-3.425,2.854
		c-0.381,0.19-0.951,0.571-1.142,0.571c-0.571-0.381-1.332-0.762-1.712-1.332c-0.381-0.381-0.381-0.951,0.189-1.522
		c0.19-0.19,0.571-0.571,0.571-0.761c0.571-1.332,1.142-2.474,2.283-3.615c0.38-0.381,0.571-1.142,0.951-1.902
		c0.19-0.381,0.38-0.762,0.571-1.142c0.76-0.761,1.331-1.522,1.902-2.474c0.761-1.713,1.902-3.234,2.663-4.947
		c0.381-0.76,0.952-1.712,1.332-2.473c0.19-0.381,0.38-0.57,0.571-0.762c0.57-0.38,1.141-0.76,0.951-1.712c0,0,0-0.19,0.189-0.19
		c0.762-1.141,1.713-2.473,2.474-3.614c0.761-1.332,1.332-2.854,1.903-4.187c0.189-0.57,0.57-1.141,0.951-1.712
		c1.712-2.093,2.663-4.376,3.805-6.659c0.381-0.57,0.762-1.141,1.142-1.902c0.19-0.381,0.571-0.951,0.571-1.332
		c0-1.141,1.141-1.712,1.521-2.664c0.19-0.76,0.57-1.521,0.951-2.282c0.762-1.522,1.713-2.854,2.664-4.376
		c0.761-1.142,1.332-2.474,1.902-3.615c0.381-0.761,0.951-1.712,1.332-2.473c0.761-1.142,1.712-2.093,2.473-3.044
		c0.762-1.332,1.522-2.664,2.283-3.995c0.381-0.761,0.762-1.332,1.332-2.283c-0.57,0.19-0.951,0.19-1.142,0.38
		c-1.712,0.761-3.425,0.761-5.327,0.952c-0.951,0-1.902,0.19-2.664,0.38c-0.189,0-0.57,0-0.761,0.19
		c-0.951,0.19-1.902,0.19-3.044,0.381c-0.57,0-0.951,0-1.521-0.19c-0.381,0-0.951-0.19-1.332-0.19c-1.522,0-3.234-0.19-4.757-0.19
		h-0.19c-0.57-0.951-1.521-0.951-2.283-1.142c-0.951-0.38-1.712-0.761-2.663-1.142c-0.381-0.19-0.571-0.19-0.952-0.19
		c-1.331-0.19-1.712-0.38-1.902-1.902c0-0.38-0.189-0.761-0.189-1.142c1.521-0.571,3.044-0.951,4.566-0.38
		c1.521,0.571,2.854,1.142,4.375,1.522c0.762,0.19,1.522,0.19,2.474,0.38c1.712,0.19,3.614,0.381,5.327,0.19
		c2.283-0.19,4.566-0.761,6.85-0.951c2.283-0.19,3.995-1.332,6.088-1.903c1.142-0.38,2.283-0.951,3.425-1.522
		c0.761-0.38,1.332-0.951,1.902-1.522c1.142-0.952,2.093-0.952,3.234,0c0.381,0.19,0.571,0.761,0.762,1.332
		c0.19,0.761,0.38,1.712-0.571,2.283c-0.761,0.571-1.521,1.142-2.283,1.712c-1.142,0.761-1.521,1.902-2.093,2.854
		c-1.142,1.522-2.282,3.044-3.234,4.566c-0.761,1.142-1.331,2.283-2.093,3.234c-0.57,0.952-1.142,1.903-1.902,2.664
		c-0.951,1.142-1.332,2.474-1.902,3.805c-0.571,1.142-1.332,2.283-2.094,3.424c-0.57,0.951-1.141,1.903-1.712,2.854
		c-1.142,1.902-2.093,3.806-3.234,5.897c-0.19,0.191,0,0.571-0.19,0.762c-0.189,0.381-0.381,0.761-0.57,1.142
		c-0.381,0.761-0.951,1.522-1.332,2.282c-0.762,1.522-1.713,2.854-2.474,4.377c-0.951,1.712-2.093,3.424-2.854,5.327
		c-1.142,2.282-2.283,4.376-3.806,6.469c-1.141,1.331-1.902,2.854-2.663,4.376c-0.761,1.141-1.522,2.473-2.093,3.805
		c-0.19,0.19-0.19,0.571-0.19,0.762C274.924,289.384,274.924,289.384,274.924,289.574z"/>
	<path fill="#FFFFFF" d="M242.009,274.163c0.19-1.903,0.19-3.615,0.19-5.518c0-1.522-0.19-3.234-0.19-4.757c0-0.761,0-1.712,0-2.473
		c0-0.191,0-0.381,0-0.571c-0.19-1.522-0.381-3.234-0.571-4.757c0-0.57,0-1.332,0-1.902c-0.19-1.521-0.381-3.044-0.761-4.566
		c-0.19-0.761-0.38-1.522-0.571-2.093c-0.19-0.952-0.19-1.903-0.19-2.854c0-0.571,0-1.142-0.19-1.712c0-0.38-0.19-0.571-0.19-0.951
		c0-1.332,0.19-2.664,0.381-3.996c0.19-0.951,1.522-1.522,2.283-1.142c0.571,0.381,1.522,0.571,1.712,1.522
		c1.142,0.571,0.761,1.522,0.571,2.283c0,0.19,0,0.19,0,0.38c0.19,1.522,0.38,3.044,0.571,4.566s0.19,3.044,0.38,4.376
		c0,0.57,0.19,1.332,0.381,1.902c0.38,0.951-0.19,1.902,0.571,2.664c0.19,0.381-0.19,0.951-0.19,1.521
		c0,1.522-0.19,3.426,0.38,4.757c0.381,1.332,0.571,2.283,0.381,3.614c-0.19,1.143,0,2.475-0.19,3.806
		c-0.38,1.142,0,2.283,0.19,3.425c0,0.19,0,0.57,0,0.762c-0.19,1.521-0.571,2.854-0.952,4.375c-0.571,2.283-1.522,4.377-2.854,6.469
		c-0.571,0.951-1.332,1.713-1.903,2.474c-0.19,0.19-0.571,0.19-0.761,0.381c-1.141,0.57-2.283,1.142-3.615,1.331
		c-1.142,0.191-2.473,0.191-3.615,0.191c-0.761,0-1.522-0.191-2.283-0.191c-0.19,0-0.38-0.189-0.571-0.189s-0.19-0.381-0.38-0.381
		c-1.522-0.381-2.474-1.713-3.615-2.473c-0.761-0.571-1.522-1.143-2.093-1.903c-0.571-0.571-0.951-1.331-1.142-2.093
		c-0.19-1.521-0.19-3.044-0.761-4.566c-0.19-0.761-0.381-1.712-0.571-2.473c-0.19-0.951-0.381-1.713-0.381-2.664
		c0-1.332,0.19-2.854,0.19-4.186c0-0.57,0-1.142,0.19-1.902c0-0.381,0.19-0.762,0.19-1.143c0-0.189,0-0.57,0-0.76
		c-0.19-1.143-0.19-2.283-0.38-3.426c0-0.761-0.19-1.332-0.19-2.092c-0.19-1.522-0.19-2.854-0.38-4.377c0-1.712,0-3.615,0-5.327
		c0-1.522,0.571-2.283,1.903-2.283c0.761,0,2.473,1.712,2.283,2.283c-0.38,1.141,0,2.093,0,3.043c0,1.522,0.381,3.045,0.381,4.566
		c-0.19,2.094,0.761,4.186,0.571,6.279c0,0.951,0.38,1.712,0.571,2.663c0,0.19,0,0.38,0,0.571c-0.571,1.332-0.19,2.854-0.381,4.186
		c0,0.381-0.19,0.951-0.19,1.332c0,1.141,0.19,2.283,0.38,3.234c0.38,2.092,0.951,4.186,1.522,6.469c0,0.38,0.571,0.57,0.761,0.951
		c1.332,1.521,2.854,2.473,4.756,2.854c1.712,0.381,3.425,0.19,4.947-0.951c1.522-1.332,2.283-3.045,2.854-4.756
		c0.19-0.381,0.38-0.762,0.38-1.143c0.19-0.761,0.38-1.712,0.571-2.473C242.009,274.163,242.009,274.163,242.009,274.163z"/>
	<path fill="#FFFFFF" d="M260.465,246.004c0.189,1.903,0.189,3.425,0.38,4.947c0.19,1.522,0.38,3.045,0.38,4.757
		c0,0.57-0.189,1.142,0,1.902c0,0.951,0.191,2.093,0.381,3.044c0,0.762,0,1.713,0,2.474c0.19,1.522,0.19,3.044,0.381,4.566
		c0,0.951,0,1.902,0,2.854c0,0.761,0.19,1.712,0.19,2.474c0,0.761-0.19,1.332-0.19,2.093c0,0.38,0,0.761-0.19,0.951
		c0,0.19,0,0.571-0.19,0.571c-0.189,0-0.381,0-0.57,0c-0.381,0-0.57,0-0.951,0c-0.951,0.38-1.713,0-2.283-0.951
		c-0.762-1.332-0.951-2.664-0.57-4.187c0.189-0.951,0-2.093,0-3.044s0.189-1.713,0.189-2.664s-0.381-1.902-0.381-2.663
		c0-1.712,0-3.234,0-4.946c0-0.762,0-1.522,0-2.283c0-0.571-0.189-1.143-0.38-1.902c-0.19-1.522-0.381-3.045-0.571-4.567
		c0-1.712,0-3.234,0-4.947c0-0.951,0.762-1.142,1.522-1.522c0.38-0.19,0.951,0,1.522,0.19
		C261.035,244.102,260.273,245.624,260.465,246.004z"/>
	<path fill="#FFFFFF" d="M147.451,255.708c-0.381,0-0.761,0-0.952,0c-0.19,0-0.38,0-0.38,0c-1.142-1.142-2.664-1.332-3.995-1.903
		c-1.332-0.57-2.854-0.761-4.186-1.141c-0.19,0-0.38-0.19-0.571-0.19c-1.712-0.761-3.615-1.712-5.518-2.474
		c-1.141-0.38-1.902-0.951-2.854-1.332c-1.142-0.57-2.093-0.951-3.044-1.522c-1.522-0.951-3.044-1.522-4.756-2.093
		c-1.142-0.38-2.283-0.951-3.425-1.332c-0.951-0.19-1.902-0.381-2.854-0.381c-1.142,0-0.952-0.951-1.522-1.332
		c0,0,0-0.571,0.19-0.951c0.19-0.19,0.571-0.19,0.761-0.19c0.761,0.19,1.712,0.38,2.473,0.571c0.951,0.19,2.093,0.38,3.044,0.571
		c0.761,0.19,1.522,0.19,2.283,0.38c2.093,0.38,3.996,1.142,5.898,2.283c0.381,0.19,0.952,0.19,1.332,0.38
		c1.522,0.761,3.234,1.332,4.756,2.093c0.761,0.381,1.522,0.381,2.283,0.761c1.142,0.38,2.093,0.951,3.234,1.332
		c1.332,0.57,2.854,0.951,4.186,1.331c1.903,0.571,3.615,1.332,5.137,2.094c0.761,0.38,0.951,0.951,0.951,1.712
		c-0.19,0.761-0.571,1.142-1.332,1.142C148.211,255.708,147.831,255.708,147.451,255.708L147.451,255.708z"/>
	<path fill="#FFFFFF" d="M117.58,274.163c1.332,0,2.473,0,3.805,0c1.522,0,2.854-0.19,4.376-0.19c0.951,0,2.093,0.19,3.044,0.19
		c1.142,0,2.283-0.19,3.615-0.381c0.19,0,0.381-0.19,0.571,0c1.522,0.381,3.044,0.381,4.566,0.19c1.142,0,2.473,0.19,3.615,0.19
		c0.761,0,1.522,0.19,2.283,0c0.951-0.19,1.903-0.19,2.664,0.19c0.951,0.38,1.142,0.951,0.951,1.902
		c-0.19,1.142-0.761,1.142-1.712,1.332c-3.805,0.381-7.801,0-11.606,0.189c-1.522,0-3.044-0.38-4.756,0.191c-0.19,0-0.571,0-0.952,0
		c-2.283,0-4.566,0-7.04,0c-1.522,0-3.044,0.189-4.756,0.189c-1.142,0-1.902-0.189-2.664-0.951c-0.571-0.762-0.571-1.902,0.38-2.093
		C115.297,274.354,116.438,274.163,117.58,274.163C117.58,273.973,117.58,273.973,117.58,274.163z"/>
	<path fill="#FFFFFF" d="M127.283,313.736c-0.19-0.57-0.761-1.141-0.761-1.712s0.19-1.522,0.571-1.712
		c1.522-1.143,3.234-2.094,4.947-3.045c0.951-0.57,2.093-0.951,3.044-1.521c0.571-0.19,0.952-0.571,1.332-0.762
		c1.522-0.951,2.854-1.902,4.376-2.663s3.044-1.522,4.566-2.283c0.38-0.19,0.951-0.38,1.332-0.571
		c0.571-0.189,1.142-0.38,1.712-0.57c0.19,0,0.38,0,0.571-0.19c0.761-0.761,2.093-0.19,2.664,0.571c0.38,0.381,0.38,0.951,0,1.332
		c-1.142,0.761-2.473,1.521-3.805,2.283c-1.332,0.76-2.854,1.331-4.186,2.092c-1.903,1.143-3.805,2.664-5.898,3.996
		c-0.952,0.57-2.093,0.951-3.044,1.521c-1.332,0.571-2.473,1.143-3.805,1.902c-0.571,0.381-1.142,0.952-1.712,1.143
		C128.805,313.356,128.044,313.547,127.283,313.736z"/>
	<path fill="#FFFFFF" d="M151.636,316.971c-0.38-0.189-1.142-0.189-1.522-0.38c-0.381-0.19-0.381-0.761-0.571-1.142
		c-0.38-0.57-0.38-0.762,0.19-1.142c0.952-0.951,1.903-1.903,2.854-2.854c0.571-0.57,1.332-1.141,2.093-1.712
		c1.142-0.761,2.093-1.712,3.234-2.474c0.571-0.381,1.522-0.57,1.903-0.189c0.571,0.38,1.142,0.951,1.142,1.902
		c-0.19,1.521-1.142,2.093-2.283,2.854c-1.902,1.332-3.615,2.854-4.947,4.566C153.158,316.781,152.587,317.161,151.636,316.971z"/>
	<path fill="#FFFFFF" d="M128.805,260.654c0.38-0.57,0.761-0.951,0.951-1.332c0.571-0.761,1.142-0.761,1.903-0.189
		c0.571,0.57,1.522,0.761,2.093,1.141c0.571,0.191,1.142,0.381,1.712,0.571c1.902,0.38,3.995,0.951,5.898,1.332
		c1.142,0.19,1.902,1.331,1.902,2.474c0,0.57-1.142,1.332-1.712,1.332c-0.571,0-1.332-0.191-1.903-0.381
		c-2.093-0.571-4.376-1.142-6.278-2.283c-0.761-0.381-1.522-0.762-2.283-1.332c-0.19,0-0.19-0.19-0.38-0.19
		C129.756,261.986,129.376,261.225,128.805,260.654z"/>
	<path fill="#FFFFFF" d="M134.703,290.335c0-0.19,0.19-0.38,0.38-0.571c0.571-0.38,0.952-0.761,1.712-0.951
		c2.283-0.57,4.566-1.141,6.659-1.712c0.761-0.19,1.332-0.381,2.093-0.571c0.761-0.189,1.332,0,1.522,0.762
		c0.381,0.57,0.761,1.141,0,1.712c-0.951,0.761-2.093,1.142-3.234,1.522c-1.902,0.57-3.615,1.141-5.327,1.902
		C136.416,293.379,134.703,292.428,134.703,290.335z"/>
	<path fill="#FFFFFF" d="M257.61,233.257c-1.332,0-2.283-0.951-2.854-1.903c-0.57-0.951-0.38-2.854,0.381-3.615
		c1.902-2.093,4.376-1.903,6.088,0.19c0.952,1.141,0.762,2.093,0.571,3.424c0,0,0,0.19-0.19,0.19
		C260.465,232.306,259.133,233.257,257.61,233.257z"/>
	<path fill="#FFFFFF" d="M222.032,197.108c-0.19-0.38-0.57-0.761-0.761-1.332c-0.38-0.951-0.571-1.903-0.951-2.854
		c-0.381-0.761-0.761-1.522-0.952-2.473c-0.19-0.571-0.38-1.332-0.761-1.712c-0.571-0.761-0.761-1.712-1.142-2.664
		c-0.38-0.952-0.761-2.093-1.332-2.854s-0.571-1.522-1.142-2.283s-0.761-1.522-1.522-2.093c-0.38-0.19-0.19-0.951-0.38-1.332
		c-0.19-0.571-0.38-0.951-0.761-1.332c0,0.951,0,1.902,0.19,2.854c0,1.902,0,3.615,0.19,5.517c0,1.332,0,2.664,0,4.186
		c0,1.142,0.38,2.283,0.38,3.424c0,0.381,0,0.761,0,1.332c0,1.902,0,3.615,0,5.518c0,0.951,0.38,1.902,0.38,2.854
		c0,0.951,0,2.093,0,3.044s-0.19,1.903,0,3.044c0.19,0.952,0,1.903,0.19,2.664c0.19,1.142-0.38,2.283,0.38,3.425
		c0.19,0.19,0,0.571,0,0.761c0,0.951-0.19,2.093,0,3.044c0,1.142,0.19,2.093,0.571,3.234c0.38,1.712-0.951,3.234-2.664,2.854
		c-0.19,0-0.38-0.38-0.571-0.571c-1.142-1.142-0.571-2.664-0.951-3.996c-0.19-1.142-0.19-2.473-0.38-3.805
		c-0.19-1.141-0.19-2.093-0.19-3.234c0-0.951,0-1.712-0.19-2.664c0-0.38,0-0.761,0-1.332c0-1.903,0-3.805,0-5.518
		c0-1.142-0.19-2.093-0.19-3.234c0-1.522,0-3.044,0-4.566c0-1.142-0.381-2.283-0.381-3.615c0-0.761-0.19-1.712,0-2.474
		c0.19-1.522,0-3.044,0-4.566c-0.19-1.712,0-3.425-0.19-5.137c0-0.38,0-0.761-0.19-1.332c0.38-0.381,0.19-3.425-0.38-4.376
		c0.19-0.761,0.38-1.332,0.38-1.903c-0.19-1.522-0.38-2.854-0.571-4.186c0-1.712,0-3.425,0.19-5.137c0-0.38,0.951-0.951,1.332-1.332
		c0.19-0.19,0.571-0.381,0.951-0.571c1.142,0.38,1.712,1.332,1.903,2.664c0.19,1.142,0.951,2.283,1.332,3.425
		c0.19,0.761,0.381,1.522,0.761,2.093c0.38,0.761,0.761,1.522,0.951,2.283c0.19,0.38,0.19,0.951,0.381,1.522c0.19,0,0.38,0,0.571,0
		v0.19c0,0.761,0.19,1.142,0.571,1.712c0.761,0.761,1.141,1.903,1.522,2.664c0.571,1.142,1.142,2.093,1.712,3.234
		c0.571,0.952,1.142,1.903,1.522,3.044c0.761,1.522,1.712,3.234,2.473,4.947c0,0.19,0.19,0.38,0.19,0.571
		c0.571,1.522,1.142,2.854,1.712,4.376h0.19c0.19-0.571,0.571-1.332,0.761-1.903c0.38-1.332,0.571-2.664,0.951-3.995
		c0.19-0.952,0.571-1.903,0.761-2.854v-0.19c0-1.142,0-2.283-0.19-3.425c0-1.141,0-2.283,0-3.615c0-1.142-0.19-2.473-0.19-3.615
		c0.19-1.712-0.571-3.234-0.761-4.947c-0.19-1.522-0.571-3.044-0.951-4.566c-0.19-0.571-0.381-1.142-0.571-1.522
		c0-0.19-0.381-0.19-0.571-0.38c-0.19-0.761-0.571-1.712-0.761-2.474c-0.19-0.951,0.19-2.093,1.142-2.473
		c0.19-0.19,0.38-0.19,0.571-0.38c0.38-0.19,0.951-0.761,1.142,0.38c0,0,0.19,0.19,0.38,0.19c0.571,0.381,0.952,0.571,1.142,1.332
		c0.19,0.761,0.761,1.522,1.142,2.283c0.38,0.951,0.571,1.902,0.761,2.854c0,0.38,0.19,0.571,0.19,0.951s0.19,0.571,0.19,0.951
		c0,0.571,0,1.142,0.19,1.712c0.571,1.332,0.951,2.854,0.571,4.376c0,0.19,0,0.19,0,0.38c0.571,0.761,0.571,1.522,0.571,2.474
		c-0.19,1.332,0,2.664,0,3.995c0,0.381-0.19,0.761-0.19,1.142s0.19,0.951,0.38,1.332c0,0.38-0.571,0.38-0.38,1.142
		c0.19,0.571-0.19,1.522-0.38,2.283c-0.19,1.332-0.381,2.664-0.761,3.996c-0.38,1.522-0.951,3.044-1.522,4.566
		c0,0.19-0.19,0.38-0.19,0.38c0.38,1.142-0.38,1.712-0.761,2.664c-0.571,1.522-1.142,3.234-0.761,4.947
		c0.38,1.332,1.142,2.473,1.712,3.805c0.19,0.38,0.38,0.571,0.38,0.951c0.19,0.761,0.19,1.712,0.571,2.474
		c0.19,0.571,0.761,0.951,1.142,1.522c0.19,0.19,0.38,0.19,0.38,0.38c0.19,1.142,0.19,2.093,0.381,3.234
		c0.19,0.952,0.38,1.903,0.57,2.854c0,0.19,0,0.571,0,0.761c-0.19,0.761-0.38,1.712-0.38,2.473c0,0.571-0.571,0.761-0.571,1.142
		c-0.19,0.761-0.951,1.142-1.332,1.522c-0.381,0.571-0.952,0.571-1.522,0.761c-0.951,0.19-1.902,0.38-2.854,0
		c-1.332-0.381-2.283-1.522-2.854-2.664c-0.38-0.571-0.571-1.142-0.571-1.712c-0.19-0.951-0.761-2.093-0.951-3.044
		c-0.19-1.141-0.381-2.473-0.19-3.615c0.19-2.664,0.571-5.327,0.951-7.991c0-0.571,0.19-1.332,0.381-1.903
		c0.571-1.142-0.19-1.902-0.571-2.854C222.603,198.44,222.413,197.869,222.032,197.108z M226.789,208.143h-0.19
		c0,0.761-0.19,1.522-0.19,2.283c0,1.142-0.19,2.473-0.19,3.615c0,0.571,0.38,1.332,0.761,1.903c0,0.19,0.19,0.19,0.19,0.38
		c-0.19,0.951,0.38,1.712,0.761,2.283c0.19,0.19,0.38,0.38,0.571,0.38c0.19-0.19,0.38-0.38,0.38-0.761c0-0.951,0.38-1.902,0-2.854
		c-0.38-1.522-0.571-3.044-0.951-4.566C227.549,210.046,227.169,209.094,226.789,208.143z"/>
	<path fill="#FFFFFF" d="M169.33,168.569c0.381-0.38,0.571-0.571,0.952-0.951c0.571-0.381,0.951-0.952,1.712-0.571
		c0,0,0.19-0.19,0.38-0.19c0.38,0.38,0.761,0.761,1.332,1.142s1.142,0.571,0.952,1.522c0,0.38,0,0.951,0.761,0.951
		c0.19,0,0.19,0.381,0.19,0.761c0.38,1.522,0.571,2.854,0.951,4.376c0,0.19,0,0.38,0,0.571c-0.19,1.142,0.761,1.902,0.38,3.044
		c0.952,1.712,0.761,3.615,1.332,5.327c0.38,1.522,0.951,3.234,1.142,4.757c0.38,1.902,0.951,3.805,0.951,5.708
		c0,0.571,0.38,1.332,0.571,1.903c0.38,0.951,0.761,2.093,0.761,3.044c0,1.332,0.761,2.474,1.142,3.615
		c0.19,0.57,0.19,0.951,0.38,1.522c0.38,1.332,0.951,2.664,1.522,3.995c0.19,0.381,0.571,0.571,0.571,0.761
		c0.19,0.19,0.38,0.571,0.761,0.761c0.19,0.19,0.38,0.381,0.38,0.381c0.19,1.332,1.332,1.712,2.473,1.902
		c1.142,0.381,2.474,0.571,3.615,0.952c0.761,0.19,0.571,0.761,0.761,1.332c0,0.19,0,0.38,0.19,0.761
		c-0.571,0.571-1.142,1.142-1.712,1.902c0,0,0-0.19-0.19-0.19c-0.381,0-0.761,0-1.142,0.19c-0.571,0.19-1.142,0.38-1.712,0
		c-0.381-0.19-0.952-0.19-1.332-0.38c-0.571-0.19-1.332-0.38-1.902-0.761c-1.903-0.951-2.854-2.854-4.186-4.376
		c-0.761-0.951-0.951-2.093-1.332-3.044c-0.571-1.332-0.951-2.664-1.332-3.996c-0.19-0.571-0.19-1.142-0.38-1.712
		c-0.571-2.474-1.332-4.947-2.093-7.23c-0.38-1.522-0.571-3.234-0.761-4.947c-0.19-0.951-0.571-1.903-0.761-3.044
		c-0.381-1.903-1.142-3.806-1.142-5.898c0-1.332-0.761-2.854-1.142-4.186c-0.19-0.761-0.38-1.522-0.761-2.093c-0.19,0-0.19,0-0.38,0
		c-0.38,1.142-0.951,2.283-1.332,3.615c-0.38,1.332-0.761,2.854-1.332,3.996c-0.571,1.332-1.712,2.283-3.234,2.473
		c-0.761,0.19-1.712-0.38-2.474-0.951c-0.951-0.38-1.522-1.142-2.473-1.522c-1.332-0.761-2.473-1.332-3.996-2.093
		c0.19,0.761,0,1.332,0.19,1.902c0.951,2.474,1.142,5.327,1.712,7.801c0.38,1.142,0.761,2.473,0.951,3.615
		c0.38,1.522,0.38,3.234,0.761,4.756c0.38,1.712,0,3.615,0.19,5.328c0,1.142,0.19,2.473,0.381,3.615c0,0.571-0.381,1.332,0.38,1.712
		v0.19c-0.19,1.332-0.38,2.473-0.571,3.805c-0.19,1.902-0.761,3.805-1.712,5.517c-0.19,0.381-0.38,0.571-0.38,0.952
		c-0.19,1.332-1.332,1.712-2.093,2.473c-0.571,0.761-1.332,1.332-2.093,1.903c-0.381,0.19-0.952,0.38-1.332,0.571
		c-0.38,0.19-0.761,0.19-1.142,0.19c-0.19,0-0.38,0-0.38,0c-0.381-0.571-0.571-1.142-0.761-1.712c-0.19-0.571,0-0.951,0.571-1.141
		c0.38-0.19,0.761-0.571,0.951-0.952c0.571-0.761,1.332-1.522,1.903-2.093c1.142-1.142,1.522-2.664,1.902-4.186
		c0.19-0.571,0.381-1.332,0.571-1.903c0.19-1.142,0.19-2.093,0.19-3.234s0-2.283-0.38-3.424c-0.19-0.952,0-1.903,0-2.854
		c-0.19-1.903-0.381-3.805-0.571-5.708c-0.19-0.951-0.19-1.712-0.381-2.664c-0.38-1.332-0.761-2.473-1.141-3.805
		c0-0.19,0-0.761,0-1.142c-0.19-1.142-0.19-2.283-0.38-3.425c-0.19-0.951-0.571-1.712-0.761-2.664
		c-0.381-1.332-0.571-2.854-0.761-4.186c0-0.19-0.19-0.571-0.19-0.761c-0.571-0.57-1.142-1.712-0.571-2.473
		c0.19-0.38,0.952-0.571,1.332-0.761c0.571-0.19,0.951-0.38,1.522-0.38c0.761-0.19,1.142,0,1.712,0.38
		c0.571,0.381,1.332,0.381,2.093,0.761c1.142,0.571,2.283,1.142,3.615,1.903c0.952,0.57,2.093,0.951,2.854,1.902
		c0,0,0.571-0.19,0.761-0.38c0.38-0.761,0.571-1.712,0.951-2.474c0.38-1.332,0.761-2.854,1.332-4.186c0-0.38,0.19-0.571,0.38-0.761
		c0.38-0.761,0.951-1.332,0.38-2.283c0,0,0.38-0.571,0.571-0.571c0.571,0,0.571-0.381,0.571-0.761s0-0.951,0-1.332
		C169.14,168.569,169.33,168.569,169.33,168.569z"/>
	<path fill="#FFFFFF" d="M250,181.507c0,1.522,0,2.854,0,4.376c0,1.142,0,2.093,0,3.234c0,0.571,0.19,1.142,0.19,1.712
		c0,0.761,0,1.332,0,2.093c0,0.571,0.19,1.142,0,1.522c-0.381,0.761-0.19,1.522,0,2.283c0,1.522,0.38,3.044,0.38,4.756
		c0,1.142,0.762,2.474-0.38,3.425l0,0c0,1.332-1.142,0.951-1.712,1.332c-0.19,0-0.571,0-0.571-0.19
		c-0.19-0.761-0.761-0.571-1.142-0.571c-0.571,0-0.571-0.38-0.571-0.761c0-0.38,0-0.761,0-0.951c0-0.571,0-1.142,0-1.902
		c0-1.142-0.19-2.093-0.19-3.234c0-0.19,0-0.381,0-0.381c0-0.761,0-1.522,0-2.283c0-0.571,0-0.952,0.19-1.522
		c0-1.142,0-2.283,0-3.615c0-0.951-0.19-1.712-0.38-2.664c0-0.571,0.19-1.332,0.19-1.903c0-1.712,0-3.615,0-5.327
		c0-0.571,0.381-0.951,0.571-1.522c0.19-0.38,0.571-0.571,1.332-0.38c0.571,0.19,1.332,0,1.712,0.38
		C249.81,179.794,250,180.556,250,181.507z"/>
	<path fill="#FFFFFF" d="M195.396,189.878c-0.19,0.38-0.57,0.761-0.38,0.951c0.571,0.951,0.19,2.473,1.332,2.854
		c0,0.571,0,1.142,0,1.712c0,0.571-0.381,1.142-1.142,1.332c-0.571,0.19-1.142,0.38-1.712,0.571c-0.38-0.19-0.571-0.571-0.761-0.761
		c-0.571-0.19-1.141-0.38-0.951-1.332c0-0.19-0.38-0.571-0.38-0.951c0-0.571,0-1.332,0-2.093c-0.19-1.141-0.38-2.093-0.571-3.234
		c-0.19-0.951-0.19-1.902-0.19-3.044c0-0.761-0.19-1.332-0.38-1.902c-0.19-0.761-0.38-1.522-0.38-2.093c0-1.902,0-3.805-0.571-5.517
		c0-0.19,0.38-0.761,0.761-0.952c0.761-0.571,1.712-0.38,2.664,0c0.19,0,0.19,0.381,0.19,0.761c0.38,1.522,0.571,3.044,0.951,4.566
		c0,0.19,0.19,0.57,0.19,0.761c0.38,0.951,0.19,1.712,0.19,2.664c0.19,1.712,0.571,3.234,0.951,4.756
		C194.825,189.498,195.206,189.878,195.396,189.878z"/>
	<path fill="#FFFFFF" d="M245.244,162.671c-0.19-0.19-0.381-0.19-0.571-0.19c0.951-0.951,1.712-2.093,2.854-2.664
		c1.902-1.142,3.615-0.571,4.756,1.332c0.189,0.38,0.189,0.761,0.189,1.141c0,0.381,0,0.952,0,1.332c0,0.19,0,0.19,0,0.38
		c-0.38,0.761-0.76,1.712-1.331,2.283c-0.761,0.761-1.712,1.522-3.044,1.142c-0.381-0.19-0.761-0.19-1.332-0.38
		c-1.142-0.19-0.951-1.522-1.712-2.093c-0.19-0.19,0-0.761,0-1.141C244.863,163.242,245.053,163.052,245.244,162.671z"/>
	<path fill="#FFFFFF" d="M187.215,162.291c-0.19-0.571-0.381-1.332-0.761-2.093c-0.38-1.142,0.19-2.283,0.951-3.044
		c0.571-0.571,1.712-0.761,2.664-0.571c0.19,0,0.571,0.19,0.571,0.38c0.381,0.952,1.142,1.903,0.952,3.044
		c0,0.38,0.19,0.761,0,0.951c-0.381,0.761-1.522,1.332-2.474,1.142C188.546,162.101,187.785,162.291,187.215,162.291z"/>
</g>
</svg>
