<?xml version="1.0" encoding="utf-8"?>
<!-- Generator: Adobe Illustrator 16.0.4, SVG Export Plug-In . SVG Version: 6.00 Build 0)  -->
<!DOCTYPE svg PUBLIC "-//W3C//DTD SVG 1.1//EN" "http://www.w3.org/Graphics/SVG/1.1/DTD/svg11.dtd">
<svg version="1.1" id="Layer_1" xmlns="http://www.w3.org/2000/svg" xmlns:xlink="http://www.w3.org/1999/xlink" x="0px" y="0px"
	 width="1230.86px" height="949.19px" viewBox="0 0 1230.86 949.19" enable-background="new 0 0 1230.86 949.19"
	 xml:space="preserve">
<g>
	<defs>
		<rect id="SVGID_1_" width="1230.859" height="949.19"/>
	</defs>
	<clipPath id="SVGID_2_">
		<use xlink:href="#SVGID_1_"  overflow="visible"/>
	</clipPath>
	<path clip-path="url(#SVGID_2_)" fill="#FFFFFF" d="M369.527,831.463c2.193-3.688,0.022-6.695-1.9-9.833
		c-1.375-2.245-2.902-4.532-3.618-7.015c-1.246-4.323-2.541-8.224-5.819-11.79c-2.86-3.113-4.164-7.734-5.872-11.809
		c-3.508-8.373-6.859-16.811-10.195-25.253c-0.722-1.829-0.973-3.842-1.678-5.678c-1.112-2.899-2.425-5.721-3.36-7.894
		c-0.664-6.411-1.239-12.428-1.93-18.431c-0.337-2.917-0.454-5.968-1.43-8.684c-3.69-10.261-1.402-21.202-3.889-31.605
		c-0.711-2.973-0.015-6.274-0.005-9.426c0.033-10.175-0.029-20.35,0.096-30.523c0.09-7.387,0.402-14.771,0.646-22.154
		c0.185-5.575,0.293-11.156,0.658-16.72c0.601-9.164,0.706-18.437,2.284-27.441c1.494-8.515,4.536-16.769,7.041-25.094
		c2.417-8.034,4.789-16.097,7.625-23.985c1.727-4.803,4.225-9.338,6.506-13.929c2.398-4.827,4.933-9.585,7.44-14.357
		c3.515-6.688,5.743-14.718,10.9-19.724c7.701-7.478,10.337-18.735,20.364-24.407c6.32-3.575,11.071-9.835,17.213-13.837
		c7.208-4.696,14.798-9.427,22.906-11.919c6.227-1.913,13.513-0.381,20.96-0.381c0.515-0.635,1.454-2.33,2.877-3.349
		c0.936-0.67,3.509-0.861,3.745-0.417c1.788,3.374,4.599,2.594,7.36,2.263c7.815-0.94,14.567,0.845,20.553,6.425
		c2.01,1.874,5.786,1.905,8.786,2.653c6.539,1.633,11.182,5.57,14.31,11.451c0.528,0.993,1.012,2.269,1.886,2.779
		c7.779,4.543,9.925,13.285,14.995,19.831c1.412,1.823,3.14,3.451,4.288,5.422c5.981,10.266,12.1,20.466,17.614,30.98
		c3.679,7.015,6.447,14.509,9.587,21.805c2.258,5.246,4.543,10.483,6.647,15.79c1.181,2.978,1.94,6.122,3.028,9.141
		c3.562,9.878,7.332,19.687,10.684,29.635c0.816,2.419-0.015,5.349,0.529,7.912c0.949,4.474,2.502,8.814,3.56,13.269
		c0.631,2.653,0.763,5.421,1.189,8.127c0.484,3.079,1.037,6.146,1.574,9.217c0.308,1.764,0.672,3.52,0.957,5.287
		c0.208,1.288-0.167,3.164,0.565,3.795c5.106,4.396,3.205,10.157,3.739,15.593c0.524,5.335,2.435,10.529,3.691,15.796
		c0.836,3.512,1.965,7.005,2.306,10.568c0.723,7.553,2.224,15.314,1.207,22.688c-1.589,11.528,2.16,22.995-1.447,34.623
		c-2.866,9.238-3.667,19.229-4.462,28.962c-0.626,7.666,0.386,15.452,0.212,23.176c-0.081,3.553-1.117,7.116-1.972,10.613
		c-1.553,6.354-3.538,12.612-4.869,19.011c-0.808,3.884,1.554,6.268,5.332,7.035c5.15,1.047,10.334,1.921,15.485,2.964
		c1.102,0.223,2.224,0.698,3.165,1.317c8.066,5.321,16.253,6.559,25.888,3.648c7.545-2.278,15.217-5.591,23.817-3.688
		c3.101,0.687,6.994-1.226,10.274-2.564c4.576-1.868,8.824-4.536,13.386-6.446c4.991-2.09,13.572,1.511,15.992,6.34
		c1.887,3.765-1.862,13.462-6.052,15.533c-5.687,2.812-11.258,5.938-17.151,8.227c-3.568,1.386-7.684,1.307-11.5,2.134
		c-6.196,1.341-12.337,2.941-18.529,4.302c-1.411,0.31-2.953-0.033-4.412,0.125c-4.934,0.535-9.857,1.158-14.783,1.757
		c-0.48,0.059-0.982,0.336-1.426,0.254c-8.625-1.588-17.774-1.957-25.67-5.29c-5.006-2.112-9.771-3.367-14.936-4.141
		c-6.446-0.963-8.46,0.057-9.536,6.321c-0.505,2.936-1.71,4.218-4.102,5.923c-3.078,2.193-5.679,5.657-7.303,9.127
		c-1.727,3.691-4.883,5.551-7.299,8.303c-7.208,8.212-17.173,11.257-26.532,15.369c-7.464,3.28-15.267,5.819-23.013,8.404
		c-2.634,0.879-5.565,0.845-8.345,1.315c-16.114,2.728-32.178,1.961-48.182-0.833c-1.869-0.326-3.561-1.654-5.337-2.515
		c-4.973-2.409-10.311-4.275-14.843-7.337c-9.164-6.192-19.037-11.625-25.534-21.147c-1.242-1.82-3.426-2.991-5.145-4.497
		c-6.743-5.902-11.87-13.122-17.303-20.188c-4.006-5.211-6.798-10.838-9.834-16.483C373.306,834.26,371.396,833.188,369.527,831.463
		 M562.888,807.248c1.988-9.794,4.554-19.753,5.929-29.873c1.747-12.854,2.541-25.838,3.721-38.769
		c0.491-5.38,2.031-10.96,1.142-16.111c-1.999-11.587,1.85-23.517-2.646-34.94c-0.989-2.514,0.614-5.931,0.182-8.806
		c-0.958-6.359-1.239-13.255-4.051-18.786c-3.085-6.069-4.521-11.729-3.553-18.259c0.086-0.583-0.412-1.245-0.602-1.88
		c-2.157-7.209-4.663-14.337-6.357-21.652c-1.623-7.01-2.158-14.267-3.632-21.318c-1.163-5.56-2.569-11.161-4.727-16.39
		c-1.732-4.196-5.878-7.211-4.746-12.79c0.404-1.996-1.674-4.52-2.686-6.771c-0.858-1.908-2.009-3.705-2.685-5.671
		c-1.594-4.626-2.457-9.575-4.557-13.941c-5.049-10.505-10.316-20.938-16.144-31.024c-3.017-5.222-8.657-9.137-10.879-14.558
		c-2.92-7.122-7.857-11.997-12.993-17.098c-1.83-1.817-2.644-4.963-4.703-6.188c-7.564-4.498-14.563-11.293-24.741-7.792
		c-0.755,0.26-1.968-0.309-2.782-0.799c-6.19-3.729-13.102-2.474-19.75-3.352c-8.168-1.079-10.925,6.312-16.788,8.679
		c-3.921,1.582-7.109,5.249-10.287,8.333c-3.678,3.569-8.949,5.104-11.24,10.636c-1.873,4.524-5.766,8.182-8.544,12.37
		c-2.66,4.009-6.225,7.966-7.128,12.407c-0.622,3.058,0.276,6.259-2.582,8.738c-1.816,1.577-3.989,3.128-4.996,5.185
		c-4.302,8.786-8.551,17.626-12.178,26.703c-2.313,5.791-3.516,12.025-5.191,18.069c-1.628,5.873-4.151,11.691-4.564,17.653
		c-0.395,5.703-2.849,11.782,0.7,17.475c0.438,0.704,0.053,1.96-0.046,2.952c-0.606,6.088-1.43,12.161-1.826,18.262
		c-0.817,12.579-1.652,25.166-2.007,37.764c-0.227,8.035-0.046,16.136,0.736,24.131c1.109,11.324,2.912,22.582,4.475,33.86
		c1.004,7.236,0.172,14.594,4.175,21.573c2.665,4.646,2.666,10.764,4.249,16.105c1.167,3.936,2.853,7.732,4.506,11.505
		c3.231,7.374,6.495,14.738,9.948,22.009c2.46,5.182,5.321,10.171,7.88,15.308c3.801,7.629,6.364,16.219,11.567,22.705
		c4.707,5.866,7.066,13.907,14.483,17.55c0.267,0.131,0.385,0.539,0.617,0.774c4.816,4.911,9.096,10.576,14.612,14.51
		c5.569,3.972,9.259,10.298,16.593,12.212c6.186,1.613,11.814,5.549,18.025,6.851c14.662,3.073,29.392,1.255,43.957-1.502
		c4.112-0.778,8.45-1.58,12.059-3.528c6.081-3.285,11.771-7.344,17.408-11.382c2.534-1.815,4.776-4.188,6.682-6.668
		c0.858-1.116,0.319-3.203,0.841-4.7c1.96-5.616,3.723-11.35,6.27-16.702c2.717-5.706-0.501-7.632-4.702-9.896
		c-11.132-5.997-21.272-13.118-26.391-25.442c-0.458-1.103-1.739-1.856-2.614-2.796c-1.341-1.439-3.406-2.695-3.864-4.383
		c-2.18-8.037-11.119-11.767-12.555-20.169c-0.025-0.146-0.173-0.29-0.297-0.396c-4.966-4.198-5.998-10.065-6.531-16.022
		c-0.15-1.682,0.335-3.716,1.234-5.147c3.818-6.072,11.453-8.534,18.303-6.001c1.247,0.463,3,1.576,3.167,2.607
		c1.069,6.64,3.391,12.552,8.218,17.409c0.724,0.728,0.608,2.229,1.08,3.285c0.603,1.352,1.243,2.745,2.155,3.893
		c5.092,6.412,10.542,12.56,15.337,19.182C550.514,801.882,553.888,807.619,562.888,807.248"/>
	<path clip-path="url(#SVGID_2_)" fill="#FFFFFF" d="M956.163,786.445c5.937-2.249,12.065-4.1,17.765-6.845
		c7.706-3.71,15.062-8.143,22.622-12.164c0.963-0.512,2.318-0.229,3.381-0.618c3.034-1.107,6.027-2.335,9.009-3.583
		c7.722-3.233,15.191-7.352,23.191-9.57c13.673-3.794,27.777-6.015,41.513-9.607c21.601-5.651,43.606-6.745,65.716-6.657
		c6.403,0.025,12.804,1.648,19.199,2.585c2.629,0.385,5.229,1.196,7.861,1.291c10.121,0.367,19.118,4.55,28.557,7.49
		c7.101,2.212,12.986,6.996,21.136,7.589c5.016,0.365,9.777,6.508,14.231,10.525c0.978,0.88,0.298,3.759,0.115,5.692
		c-0.089,0.935-0.818,1.803-1.224,2.715c-1.389,3.124-2.605,8.846-4.169,8.94c-7.342,0.445-15.312,2.939-21.897-3.17
		c-1.581-1.467-3.913-2.131-5.916-3.133c-1.739-0.87-3.513-1.671-5.25-2.545c-2.697-1.356-5.32-3.788-8.072-3.934
		c-8.896-0.471-17.01-3.05-25.247-6.269c-9.866-3.856-20.376-4.091-30.83-1.875c-0.634,0.135-1.321,0.434-1.911,0.309
		c-17.345-3.666-34.039,0.9-50.818,4.074c-8.726,1.65-17.565,3.128-25.995,5.806c-11.025,3.504-21.513,8.721-32.566,12.105
		c-14.676,4.494-27.294,12.975-40.909,19.499c-5.523,2.646-11.331,4.881-16.415,8.211c-5.2,3.408-9.587,8.033-14.491,11.922
		c-3.085,2.445-6.478,4.502-9.71,6.764c-1.06,0.741-2.447,1.365-3.008,2.407c-4.444,8.252-12.691,12.134-19.766,17.323
		c-1.986,1.458-5.31,3.564-6.737,2.841c-3.88-1.965-7.581-4.86-10.373-8.205c-2.142-2.563-1.975-6.143,1.091-8.92
		c1.524-1.382,2.873-3.172,3.736-5.039c3.536-7.653,7.033-15.184,13.02-21.479c2.635-2.771,3.515-7.186,5.281-10.811
		c1.108-2.274,1.88-5.063,3.679-6.586c4.941-4.182,8.32-9.179,11.214-14.96c4.95-9.887,10.748-19.349,16.218-28.975
		c2.77-4.873,5.546-9.743,8.43-14.547c1.021-1.701,2.128-3.496,3.619-4.741c3.081-2.572,6.25-4.902,5.507-9.622
		c-0.063-0.401,0.345-0.92,0.621-1.325c4.94-7.26,10.383-14.231,14.711-21.839c4.456-7.831,7.736-16.324,11.723-24.433
		c1.647-3.353,3.444-6.74,5.772-9.627c9.624-11.936,15.782-25.774,22.374-39.41c1.845-3.816,4.611-7.174,6.705-10.883
		c1.5-2.658,3.678-5.563,3.644-8.334c-0.087-7.188,6.866-9.786,8.946-15.448c1.684-4.584,3.585-9.161,6.014-13.381
		c4.999-8.69,10.568-17.052,15.613-25.717c4.027-6.916,7.597-14.098,11.426-21.13c2.684-4.93,5.102-10.058,8.287-14.646
		c4.419-6.367,9.906-12.016,14.091-18.516c4.903-7.615,8.881-15.825,13.293-23.761c2.292-4.122,4.655-8.205,7.649-13.474
		c-3.3,0.777-5.507,0.882-7.308,1.791c-9.819,4.956-20.41,5.038-31.02,5.506c-5.415,0.238-10.792,1.349-16.186,2.077
		c-1.633,0.22-3.257,0.514-4.892,0.715c-5.886,0.725-11.761,1.645-17.669,2.041c-3.028,0.203-6.136-0.452-9.179-0.9
		c-2.759-0.406-5.464-1.387-8.224-1.541c-9.536-0.531-19.086-0.809-28.63-1.199c-0.489-0.02-1.243-0.026-1.417-0.314
		c-3.16-5.245-8.787-5.193-13.767-6.811c-5.278-1.715-10.224-4.432-15.386-6.536c-1.821-0.742-3.834-1.211-5.796-1.382
		c-8.024-0.699-10.188-2.786-11.272-11.14c-0.277-2.131-0.713-4.242-1.171-6.919c8.869-3.751,17.862-5.199,27.192-1.922
		c8.807,3.093,17.433,6.739,26.335,9.508c4.481,1.394,9.396,1.43,14.123,1.993c10.471,1.248,20.974,2.455,31.508,1.147
		c13.592-1.687,27.098-4.497,40.729-5.293c13.119-0.766,23.831-7.758,35.771-11.457c6.888-2.133,13.467-5.574,19.775-9.148
		c4.169-2.362,7.543-6.094,11.397-9.051c6.911-5.305,11.929-5.632,18.68-0.326c2.137,1.679,3.665,5.059,4.033,7.851
		c0.596,4.523,1.741,9.577-2.996,13.122c-4.46,3.337-8.556,7.239-13.276,10.131c-6.437,3.943-8.551,10.824-12.517,16.451
		c-6.366,9.029-12.978,17.89-19.15,27.048c-4.297,6.377-7.908,13.213-12.062,19.691c-3.434,5.355-6.801,10.843-10.936,15.634
		c-5.718,6.624-8.041,14.736-11.631,22.358c-3.408,7.233-8.258,13.783-12.377,20.69c-3.38,5.67-6.664,11.399-9.906,17.149
		c-6.457,11.452-12.892,22.917-19.226,34.437c-0.677,1.23-0.433,2.936-0.955,4.29c-0.846,2.196-1.865,4.345-3.005,6.405
		c-2.544,4.598-5.215,9.125-7.821,13.688c-4.828,8.454-9.688,16.889-14.457,25.376c-5.808,10.337-12.052,20.471-17.166,31.144
		c-6.41,13.381-12.992,26.436-22.482,38.082c-6.307,7.738-10.958,16.845-16.171,25.448c-4.426,7.301-8.631,14.737-12.841,22.167
		c-0.754,1.329-1.058,2.915-1.568,4.382L956.163,786.445z"/>
	<path clip-path="url(#SVGID_2_)" fill="#FFFFFF" d="M760.485,694.956c0.566-10.88,1.539-21.758,1.576-32.64
		c0.033-9.546-1.098-19.09-1.488-28.645c-0.203-5.011,0.07-10.04,0.151-15.062c0.02-1.153,0.303-2.322,0.176-3.452
		c-1.054-9.358-2.32-18.698-3.206-28.071c-0.353-3.739,0.543-7.609,0.086-11.323c-1.104-8.984-2.51-17.939-4.115-26.85
		c-0.785-4.354-2.685-8.519-3.366-12.88c-0.881-5.638-1.045-11.387-1.527-17.088c-0.286-3.384-0.512-6.775-0.919-10.146
		c-0.217-1.792-1.188-3.57-1.087-5.311c0.458-7.755,0.974-15.517,1.88-23.229c0.629-5.364,8.541-9.312,13.409-6.706
		c3.892,2.082,9.06,3.092,9.57,8.916c7.297,3.27,4.746,8.597,2.931,13.811c-0.204,0.586-0.049,1.327,0.041,1.982
		c1.241,9.073,2.67,18.125,3.704,27.222c0.993,8.734,1.468,17.525,2.397,26.268c0.416,3.904,0.929,7.912,2.224,11.583
		c1.794,5.087-0.584,10.789,3.303,15.779c1.364,1.751-1.151,6.166-1.08,9.347c0.213,9.521-1.162,19.739,1.892,28.333
		c2.63,7.4,3.18,13.556,1.938,20.952c-1.218,7.255,0.521,15.111-1.272,22.132c-1.862,7.285-0.378,13.692,0.928,20.463
		c0.304,1.576,0.459,3.301,0.157,4.854c-1.657,8.543-3.273,17.104-5.288,25.567c-3.271,13.731-9.474,26.252-17.029,38.06
		c-3.335,5.212-7.393,9.992-11.436,14.698c-0.962,1.119-3.219,1.066-4.819,1.705c-7.132,2.847-14.03,6.675-21.42,8.361
		c-6.911,1.576-14.335,1.153-21.532,1.127c-4.371-0.018-8.746-0.902-13.104-1.509c-1.039-0.145-2.116-0.584-2.993-1.166
		c-0.787-0.521-1.227-1.935-1.983-2.076c-9.493-1.788-14.11-10.489-21.572-15.182c-4.716-2.965-9.069-6.896-12.625-11.191
		c-2.918-3.525-5.948-8.123-6.231-12.425c-0.608-9.226-1.495-18.245-4.153-27.136c-1.408-4.712-2.184-9.635-2.963-14.508
		c-0.844-5.281-1.895-10.615-1.896-15.926c-0.002-8.3,0.812-16.6,1.262-24.9c0.195-3.62,0.203-7.258,0.565-10.858
		c0.242-2.397,1.069-4.729,1.432-7.12c0.217-1.441,0.162-2.953,0.026-4.414c-0.635-6.865-1.285-13.729-2.039-20.581
		c-0.463-4.208-1.3-8.38-1.657-12.595c-0.726-8.555-1.456-17.119-1.785-25.695c-0.405-10.592-0.533-21.199-0.538-31.8
		c-0.005-9.103,3.705-13.338,11.446-13.669c4.821-0.207,15.151,9.782,13.366,14.011c-2.741,6.497,0.407,12.289,0.369,18.377
		c-0.056,8.883,2.445,17.861,1.78,26.642c-0.967,12.778,4.16,24.837,2.871,37.617c-0.519,5.122,1.907,10.53,2.894,15.825
		c0.203,1.092,0.293,2.4-0.113,3.379c-3.353,8.058-1.31,16.561-2.215,24.81c-0.304,2.774-1.331,5.568-1.117,8.282
		c0.513,6.527,1.191,13.088,2.479,19.499c2.54,12.649,5.37,25.247,8.502,37.761c0.551,2.201,3.132,3.911,4.818,5.811
		c7.501,8.449,16.898,14.23,27.681,16.854c10.219,2.487,20.282,0.938,28.822-6.121c9.018-7.452,13.44-17.596,16.763-28.424
		c0.672-2.193,2.104-4.158,2.742-6.357c1.408-4.86,2.533-9.803,3.773-14.71C761.406,695.131,760.946,695.042,760.485,694.956"/>
	<path clip-path="url(#SVGID_2_)" fill="#FFFFFF" d="M870.479,529.322c0.901,11.619,1.504,20.209,2.249,28.788
		c0.802,9.231,1.887,18.441,2.539,27.684c0.255,3.613-0.701,7.312-0.45,10.925c0.432,6.188,1.554,12.324,2.053,18.51
		c0.391,4.859,0.098,9.771,0.434,14.639c0.61,8.869,1.615,17.711,2.155,26.583c0.342,5.601-0.062,11.247,0.242,16.853
		c0.266,4.936,1.373,9.832,1.504,14.764c0.107,4.037-0.677,8.098-1.062,12.148c-0.195,2.058-0.277,4.132-0.616,6.165
		c-0.226,1.364-0.466,3.042-1.357,3.867c-0.585,0.541-2.341-0.264-3.581-0.334c-1.718-0.096-3.604-0.533-5.138-0.008
		c-5.741,1.97-9.852,0.005-13.06-5.106c-4.882-7.78-5.104-15.846-3.897-24.566c0.809-5.851,0.122-11.896,0.275-17.852
		c0.133-5.122,0.895-10.254,0.674-15.351c-0.23-5.386-1.796-10.728-1.883-16.104c-0.159-9.709,0.406-19.429,0.555-29.146
		c0.068-4.574,0.09-9.169-0.273-13.722c-0.288-3.605-1.337-7.143-1.799-10.741c-1.179-9.17-2.666-18.331-3.191-27.544
		c-0.554-9.709-0.085-19.476-0.164-29.215c-0.047-5.745,4.995-6.72,8.51-8.526c2.627-1.35,5.563-0.396,8.957,1.24
		C873.363,517.709,868.836,526.11,870.479,529.322"/>
	<path clip-path="url(#SVGID_2_)" fill="#FFFFFF" d="M202.251,586.088c-1.988,0.131-3.975,0.283-5.965,0.382
		c-0.795,0.04-1.932,0.299-2.341-0.111c-6.666-6.68-16.061-7.661-24.156-11.152c-7.867-3.396-16.751-4.427-25.176-6.545
		c-1.112-0.28-2.165-0.823-3.22-1.301c-10.66-4.813-21-10.666-32.092-14.066c-6.346-1.946-11.393-5.541-17.132-8.151
		c-6.256-2.845-12.799-5.314-18.516-9.025c-8.607-5.589-17.97-8.906-27.6-12.006c-6.867-2.21-13.27-5.882-20.154-8.02
		c-5.225-1.623-10.931-2.77-16.333-2.473c-6.449,0.352-6.172-5.665-9.41-8.204c-0.554-0.435,0.47-3.71,1.528-5.089
		c0.734-0.956,2.855-1.428,4.219-1.219c4.857,0.745,9.643,1.942,14.479,2.843c6.011,1.116,12.038,2.155,18.072,3.141
		c4.661,0.761,9.37,1.242,14.011,2.099c12.408,2.292,23.795,7.067,34.349,14.021c2.175,1.433,5.216,1.477,7.705,2.521
		c9.565,4.019,19.02,8.297,28.615,12.238c4.225,1.735,8.758,2.706,13.024,4.355c6.545,2.528,12.889,5.593,19.484,7.974
		c8.141,2.94,16.371,5.701,24.708,8.017c10.77,2.991,20.824,7.482,30.525,12.938c4.093,2.301,6.012,5.407,5.218,10.177
		c-0.801,4.817-3.924,6.646-8.353,6.926c-1.82,0.114-3.652,0.02-5.479,0.02L202.251,586.088z"/>
	<path clip-path="url(#SVGID_2_)" fill="#FFFFFF" d="M24.771,695.05c7.416,0,14.84,0.222,22.245-0.059
		c8.619-0.326,17.215-1.418,25.831-1.559c6.099-0.099,12.227,1.322,18.32,1.165c6.981-0.179,13.937-1.351,20.903-2.091
		c1.306-0.14,2.732-0.689,3.9-0.353c8.785,2.544,17.641,2.054,26.645,1.624c7.023-0.334,14.117,1.131,21.195,1.524
		c4.586,0.255,9.298,0.606,13.775-0.147c5.584-0.94,10.801-0.924,16.124,1.114c5.321,2.038,6.304,5.521,5.749,11.08
		c-0.701,7.007-4.078,6.903-9.853,7.451c-22.812,2.164-45.589,0.166-68.36,0.676c-9.197,0.206-18.531-2.313-27.673,1.021
		c-1.53,0.558-3.564-0.418-5.369-0.441c-13.725-0.173-27.455-0.53-41.176-0.33c-9.225,0.136-18.435,1.127-27.656,1.658
		c-6.25,0.361-11.727-1.195-16.056-6.167c-3.85-4.423-3.235-10.875,2.118-12.67c6.213-2.082,12.8-3.047,19.225-4.497
		C24.696,694.383,24.732,694.717,24.771,695.05"/>
	<path clip-path="url(#SVGID_2_)" fill="#FFFFFF" d="M82.816,929.327c-1.559-3.459-4.088-6.67-4.195-9.96
		c-0.113-3.496,0.99-8.586,3.445-10.332c9.361-6.66,19.398-12.396,29.352-18.186c5.743-3.34,11.835-6.075,17.722-9.175
		c2.835-1.492,5.599-3.132,8.329-4.812c8.787-5.411,17.354-11.213,26.367-16.213c8.625-4.785,17.68-8.801,26.592-13.057
		c2.674-1.277,5.458-2.365,8.27-3.301c3.231-1.073,6.555-1.862,9.826-2.813c1.236-0.36,2.748-0.503,3.604-1.307
		c4.888-4.595,12.385-1.546,16.232,2.993c2.314,2.731,2.581,5.945-0.357,7.88c-7.111,4.685-14.423,9.122-21.951,13.096
		c-8.24,4.351-17.24,7.375-25.145,12.225c-11.767,7.217-22.676,15.822-34.33,23.243c-5.531,3.521-11.975,5.589-17.937,8.459
		c-7.376,3.551-14.761,7.099-21.982,10.949c-3.68,1.963-6.767,5.153-10.559,6.755C91.778,927.595,86.971,928.266,82.816,929.327"/>
	<path clip-path="url(#SVGID_2_)" fill="#FFFFFF" d="M226.321,949.178c-2.633-0.583-6.552-0.646-9.482-2.379
		c-1.967-1.164-2.336-4.817-3.774-7.139c-1.76-2.84-1.752-4.539,1.108-7.091c6.015-5.369,11.238-11.612,17.024-17.255
		c3.72-3.627,7.777-6.926,11.835-10.184c6.227-5,12.255-10.379,19.032-14.506c3.148-1.916,8.69-2.872,11.642-1.35
		c3.344,1.726,6.737,5.552,6.195,10.971c-0.847,8.469-7.179,12.273-12.985,16.607c-10.715,7.999-20.893,16.588-29.022,27.286
		C235.078,947.844,231.657,949.339,226.321,949.178"/>
	<path clip-path="url(#SVGID_2_)" fill="#FFFFFF" d="M91.287,615.224c2.288-3.185,4.065-5.736,5.923-8.229
		c3.507-4.706,6.39-4.502,10.893-1.129c3.783,2.833,8.465,4.534,12.879,6.436c3.154,1.359,6.462,2.489,9.808,3.251
		c11.755,2.677,23.564,5.113,35.337,7.714c6.822,1.508,11.693,8.146,10.918,14.684c-0.345,2.911-7.134,8.249-10.546,7.925
		c-3.651-0.347-7.358-0.812-10.868-1.825c-12.502-3.61-25.335-6.308-36.606-13.389c-4.426-2.781-9.198-5.01-13.82-7.479
		c-0.706-0.377-1.548-1.105-2.16-0.963C96.632,623.725,94.557,618.543,91.287,615.224"/>
	<path clip-path="url(#SVGID_2_)" fill="#FFFFFF" d="M125.939,791.651c0.431-0.677,0.988-2.428,2.184-3.255
		c3.053-2.11,6.18-4.579,9.654-5.536c13.208-3.638,26.573-6.705,39.863-10.051c3.987-1.004,7.878-2.42,11.891-3.288
		c3.968-0.857,7.498,0.034,9.511,4.045c1.725,3.438,4.268,6.202-0.408,10.24c-5.853,5.055-12.444,7.255-19.528,9.406
		c-10.817,3.284-21.578,6.938-31.988,11.324C136.377,809.063,126.301,803.776,125.939,791.651"/>
	<path clip-path="url(#SVGID_2_)" fill="#FFFFFF" d="M853.094,453.917c-8.205-0.098-13.093-5.25-17.229-11.466
		c-3.485-5.241-2.304-16.878,2.125-21.726c11.086-12.134,25.445-11.099,36.485,1.377c5.676,6.414,4.939,12.758,3.701,19.799
		c-0.082,0.465-0.295,1.107-0.647,1.296C869.673,447.421,862.818,453.946,853.094,453.917"/>
	<path clip-path="url(#SVGID_2_)" fill="#FFFFFF" d="M643.396,239.504c-1.539-2.516-3.564-5.008-4.699-7.856
		c-2.222-5.577-3.794-11.412-5.928-17.028c-1.815-4.775-4.044-9.393-6.089-14.082c-1.502-3.442-2.396-7.36-4.641-10.22
		c-3.7-4.713-4.729-10.222-6.661-15.562c-2.09-5.78-4.347-12.087-8.406-16.398c-3.798-4.034-3.901-9.282-7.22-13.315
		c-3.313-4.026-4.864-9.285-9.533-12.64c-1.777-1.277-1.583-5.128-2.59-7.687c-1.152-2.926-2.641-5.72-5.013-8.086
		c0.211,5.47,0.489,10.938,0.617,16.41c0.258,10.949,0.522,21.9,0.615,32.852c0.069,8.087-0.504,16.196-0.092,24.26
		c0.353,6.917,1.833,13.771,2.531,20.681c0.242,2.399-0.542,4.883-0.555,7.331c-0.056,10.927-0.239,21.862,0.108,32.78
		c0.183,5.775,1.693,11.502,1.995,17.283c0.308,5.891-0.015,11.826-0.275,17.732c-0.263,5.946-1.4,11.701,0.183,17.847
		c1.321,5.128,0.035,10.867,0.585,16.267c0.674,6.625-2.126,13.697,2.568,19.918c0.685,0.908-0.478,3.086-0.512,4.682
		c-0.131,6.106-0.581,12.249-0.093,18.313c0.504,6.26,1.628,12.522,3.078,18.641c2.464,10.399-5.323,19.076-15.748,16.949
		c-1.414-0.288-2.694-1.723-3.823-2.842c-6.825-6.764-3.924-15.885-5.473-23.892c-1.411-7.296-0.872-14.966-2.258-22.269
		c-1.202-6.337-0.615-12.543-0.742-18.815c-0.105-5.204-0.523-10.402-0.712-15.606c-0.089-2.446,0.076-4.901,0.055-7.352
		c-0.092-11.065-0.09-22.133-0.362-33.193c-0.159-6.436-0.929-12.856-1.137-19.292c-0.287-8.876-0.022-17.776-0.523-26.636
		c-0.396-7-1.763-13.941-2.374-20.937c-0.439-5.038-1.016-10.214-0.344-15.167c1.231-9.072,0.526-17.873-0.558-26.911
		c-1.192-9.934-0.547-20.084-0.792-30.137c-0.056-2.294-0.483-4.579-0.813-7.533c2.473-2.242,1.457-20.476-1.726-26.227
		c0.835-4.361,2.275-7.883,2.008-11.271c-0.664-8.467-2.666-16.845-3.085-25.31c-0.492-9.965-0.491-20.054,0.639-29.935
		c0.322-2.813,5.223-5.217,8.214-7.565c1.672-1.312,3.735-2.124,6.045-3.395c7.059,2.151,9.919,7.801,11.517,15.448
		c1.458,6.979,5.087,13.489,7.557,20.278c1.507,4.143,2.414,8.507,3.988,12.621c1.725,4.506,4.059,8.776,5.831,13.266
		c1.067,2.702,1.568,5.627,2.456,8.948c0.651-0.089,1.798-0.244,3.033-0.41c0.124,0.552,0.359,1.03,0.314,1.48
		c-0.414,4.083,0.676,6.89,3.866,10.242c4.185,4.399,6.304,10.766,9.306,16.289c3.443,6.338,6.9,12.668,10.318,19.02
		c3.149,5.852,6.342,11.683,9.356,17.604c4.867,9.555,9.611,19.172,14.383,28.774c0.505,1.016,0.866,2.105,1.267,3.171
		c3.217,8.564,6.426,17.132,9.638,25.699c0.455,0.029,0.91,0.057,1.366,0.086c1.603-3.775,3.659-7.429,4.716-11.352
		c2.122-7.888,3.571-15.955,5.544-23.887c1.406-5.652,3.222-11.203,4.832-16.806c0.135-0.471,0.154-0.993,0.139-1.489
		c-0.203-6.686-0.535-13.371-0.604-20.059c-0.073-6.968,0.24-13.941,0.132-20.907c-0.116-7.307-1.235-14.667-0.651-21.901
		c0.829-10.282-3.898-19.439-4.69-29.396c-0.721-9.045-3.076-17.986-5.073-26.891c-0.736-3.286-2.314-6.445-3.915-9.443
		c-0.538-1.008-2.337-1.342-3.294-1.845c-1.468-4.873-3.189-9.849-4.439-14.939c-1.26-5.134,1.411-12.039,7.039-14.416
		c1.348-0.569,2.544-1.627,3.93-1.944c2.549-0.584,6.118-4.081,6.945,1.985c0.074,0.548,1.652,0.846,2.481,1.346
		c3.122,1.879,5.758,3.831,7.022,7.801c1.447,4.543,4.661,8.502,6.33,13.002c2.079,5.605,3.353,11.507,4.997,17.274
		c0.502,1.762,1.19,3.476,1.595,5.257c0.409,1.795,0.658,3.638,0.823,5.475c0.304,3.366-0.248,7.013,0.871,10.061
		c3.093,8.428,6.032,16.728,3.776,25.888c-0.146,0.591-0.173,1.459,0.153,1.883c3.498,4.551,3.656,9.478,3.173,15.093
		c-0.66,7.659,0.207,15.443,0.275,23.175c0.021,2.414-0.742,4.854-0.576,7.242c0.195,2.784,1.017,5.525,2.163,8.176
		c-0.131,2.322-3.938,2.724-2.332,7.312c1.334,3.814-1.093,8.956-1.891,13.502c-1.356,7.738-2.235,15.604-4.247,23.169
		c-2.383,8.966-5.756,17.668-8.691,26.488c-0.257,0.771-0.839,1.702-0.614,2.322c2.246,6.215-2.351,10.594-4.047,15.751
		c-3.13,9.507-7.143,19.246-4.604,29.227c1.959,7.704,6.427,14.767,9.763,22.123c0.79,1.743,1.775,3.453,2.219,5.287
		c1.185,4.912,1.551,10.107,3.358,14.755c1.261,3.243,4.361,5.772,6.646,8.617c0.675,0.841,1.868,1.611,1.971,2.512
		c0.74,6.42,0.954,12.912,1.94,19.288c0.857,5.557,2.565,10.979,3.77,16.489c0.347,1.588,0.551,3.32,0.302,4.905
		c-0.794,5.057-2.615,10.09-2.518,15.103c0.074,3.763-3.375,4.343-3.88,6.41c-1.167,4.776-5.54,6.248-7.802,9.476
		c-2.622,3.742-5.838,3.577-9.253,4.433c-5.867,1.472-11.603,1.707-17.419-0.216c-8.183-2.707-12.97-8.782-17.221-15.879
		c-1.894-3.163-2.903-6.238-3.738-9.717c-1.481-6.175-4.306-12.073-5.368-18.292c-1.18-6.902-1.861-14.108-1.268-21.053
		c1.336-15.65,3.538-31.229,5.511-46.819c0.49-3.868,0.823-7.945,2.325-11.456c2.9-6.78-1.609-11.635-3.447-17.219
		C645.931,247.795,644.752,243.849,643.396,239.504 M670.836,305.125l-1.677,0.475c-0.29,4.562-0.618,9.123-0.861,13.688
		c-0.388,7.31-1.247,14.65-0.857,21.922c0.203,3.808,2.61,7.508,4.092,11.229c0.319,0.799,1.484,1.61,1.34,2.188
		c-1.414,5.701,1.883,9.735,4.82,13.825c0.838,1.167,2.424,1.798,3.667,2.674c0.753-1.367,2.18-2.751,2.143-4.096
		c-0.156-5.637,2.109-11.01,0.313-16.95c-2.688-8.885-3.699-18.265-6.134-27.241C676.032,316.763,673.16,311.019,670.836,305.125"/>
	<path clip-path="url(#SVGID_2_)" fill="#FFFFFF" d="M331.446,71.259c1.938-1.885,3.749-3.928,5.847-5.615
		c2.909-2.34,5.436-5.921,10.154-3.827c0.466,0.207,1.524-0.919,1.895-1.159c2.572,2.242,4.836,4.71,7.562,6.461
		c3.265,2.097,6.285,3.687,6.055,8.53c-0.108,2.268,0.419,5.572,4.273,6.169c0.77,0.118,1.368,2.662,1.688,4.164
		c1.85,8.706,3.599,17.433,5.362,26.156c0.196,0.972,0.455,1.988,0.359,2.95c-0.623,6.273,4.813,11.738,2.396,18.229
		c5.509,9.754,5.028,20.92,7.436,31.405c2.19,9.539,5.224,18.923,6.798,28.554c1.852,11.332,6.049,22.22,5.847,33.995
		c-0.065,3.796,2.714,7.588,3.907,11.469c1.849,6.014,4.527,12.039,4.892,18.175c0.473,7.969,4.614,14.481,6.414,21.835
		c0.716,2.923,1.263,5.908,2.239,8.744c2.762,8.032,5.557,16.06,8.692,23.951c0.693,1.744,2.839,2.91,3.809,4.786
		c1.345,1.612,2.667,3.244,4.043,4.829c0.832,0.958,2.347,1.74,2.526,2.779c1.383,8.024,7.883,9.753,14.136,11.476
		c7.131,1.965,14.397,3.453,21.62,5.077c4.522,1.017,3.561,4.958,4.361,7.951c0.346,1.293,0.493,2.639,0.759,4.123
		c-3.085,3.375-6.581,7.199-10.077,11.022c-0.197-0.436-0.393-0.873-0.589-1.31c-2.377,0.154-4.941-0.206-7.089,0.576
		c-3.697,1.345-6.776,2.166-10.47-0.533c-2.028-1.481-5.387-1.011-8.023-1.818c-3.642-1.116-7.368-2.233-10.71-4.005
		c-10.981-5.823-17.141-16.513-24.398-25.835c-4.035-5.184-5.83-12.189-8.271-18.514c-3.009-7.799-5.784-15.698-8.364-23.649
		c-1.058-3.261-1.116-6.835-2.018-10.161c-3.918-14.446-8.357-28.762-11.855-43.306c-2.298-9.553-3.143-19.448-4.962-29.128
		c-1.121-5.963-3.23-11.747-4.23-17.723c-1.938-11.568-6.354-22.518-7.154-34.459c-0.556-8.313-3.968-16.452-6.269-24.623
		c-1.207-4.291-2.767-8.482-4.168-12.719c-0.715,0.031-1.43,0.062-2.144,0.093c-2.61,6.964-5.367,13.875-7.789,20.904
		c-2.768,8.034-4.513,16.505-8.037,24.172c-3.586,7.802-10.278,13.968-18.795,15.154c-4.698,0.654-10.275-2.659-14.986-5.092
		c-5.077-2.622-9.421-6.634-14.419-9.448c-7.395-4.163-15.085-7.805-23.743-12.227c0.594,4.527,0.346,8.31,1.632,11.468
		c6.058,14.878,6.585,30.972,10.658,46.261c1.938,7.272,4.717,14.356,6.167,21.712c1.858,9.43,2.103,19.2,4.252,28.546
		c2.42,10.523,0.441,20.986,1.213,31.432c0.522,7.056,1.217,14.119,2.312,21.104c0.508,3.239-2.248,7.344,2.184,9.733
		c0.106,0.057-0.057,0.624-0.105,0.952c-1.081,7.403-2.34,14.787-3.206,22.215c-1.347,11.543-4.263,22.496-10.617,32.398
		c-1.111,1.731-1.869,3.903-2.096,5.949c-0.847,7.616-7.854,10.106-12.151,14.768c-3.75,4.069-8.168,7.596-12.634,10.9
		c-2.273,1.682-5.243,2.526-8.005,3.414c-2.27,0.73-4.687,1.039-7.061,1.386c-0.902,0.132-2.45,0.169-2.706-0.297
		c-1.85-3.382-3.742-6.797-5.028-10.412c-1.073-3.017,0.37-5.126,3.431-6.633c2.312-1.138,4.257-3.185,6.097-5.087
		c3.89-4.02,7.345-8.491,11.446-12.269c7.261-6.688,9.051-15.607,11.087-24.566c0.874-3.845,2.797-7.492,3.36-11.358
		c0.912-6.269,1.553-12.65,1.465-18.971c-0.097-6.913-0.291-14.041-2.046-20.651c-1.583-5.966,0.057-11.564-0.424-17.265
		c-0.945-11.194-2.327-22.352-3.625-33.514c-0.609-5.238-0.975-10.57-2.284-15.645c-1.947-7.549-4.723-14.88-6.953-22.362
		c-0.815-2.735-1.228-5.618-1.56-8.463c-0.765-6.573-1.011-13.228-2.15-19.73c-0.938-5.356-3.137-10.479-4.274-15.813
		c-1.736-8.14-2.999-16.38-4.563-24.557c-0.284-1.486-0.659-3.288-1.66-4.243c-3.676-3.504-6.353-10.54-3.905-14.448
		c1.488-2.377,5.1-3.618,7.973-4.879c2.839-1.246,5.953-1.856,8.937-2.777c4.041-1.246,7.006-0.482,10.548,2.541
		c3.154,2.69,8.399,2.766,12.417,4.645c7.104,3.322,13.941,7.209,20.958,10.725c5.982,2.998,12.201,5.546,16.831,10.739
		c0.333,0.373,3.554-0.715,3.991-1.739c2.071-4.859,3.762-9.893,5.366-14.936c2.601-8.177,4.984-16.423,7.566-24.606
		c0.537-1.703,1.454-3.308,2.348-4.871c2.457-4.295,6.161-8.31,2.145-13.746c-0.251-0.34,1.918-3.571,3.009-3.6
		c3.513-0.09,3.712-1.836,3.501-4.544c-0.203-2.6-0.044-5.228-0.044-7.844C330.318,71.019,330.882,71.139,331.446,71.259"/>
	<path clip-path="url(#SVGID_2_)" fill="#FFFFFF" d="M808.652,147.703c0,8.691-0.027,17.381,0.01,26.072
		c0.025,6.249,0.035,12.502,0.253,18.746c0.114,3.296,0.856,6.572,0.955,9.868c0.122,4.091-0.221,8.194-0.185,12.291
		c0.029,3.149,1.465,6.84,0.271,9.327c-2.216,4.612-0.679,8.968-0.466,13.271c0.461,9.3,2.173,18.531,2.806,27.83
		c0.479,7.031,3.942,14.65-2.744,20.805c-0.117,0.109-0.264,0.283-0.255,0.418c0.521,8.139-6.379,6.086-10.596,7.53
		c-0.941,0.321-3.25-0.548-3.422-1.241c-1.035-4.199-4.44-3.518-7.166-3.544c-3.333-0.033-3.731-1.892-3.689-4.401
		c0.036-2.056,0.14-4.111,0.179-6.166c0.067-3.572,0.332-7.158,0.109-10.713c-0.395-6.279-1.085-12.54-1.672-18.806
		c-0.086-0.92-0.399-1.83-0.401-2.745c-0.009-4.552-0.024-9.107,0.111-13.656c0.091-3.096,0.543-6.182,0.624-9.278
		c0.183-6.99,0.509-13.994,0.252-20.973c-0.192-5.233-1.503-10.422-1.746-15.656c-0.174-3.743,0.871-7.527,0.894-11.295
		c0.064-10.407-0.373-20.823-0.047-31.217c0.09-2.876,1.904-5.83,3.384-8.494c1.562-2.813,3.909-3.906,7.423-2.721
		c3.244,1.093,7.35,0.395,10.068,2.096C807.4,137.427,808.443,142.164,808.652,147.703"/>
	<path clip-path="url(#SVGID_2_)" fill="#FFFFFF" d="M485.317,197.456c-1.065,2.102-2.94,4.206-2.474,5.141
		c2.909,5.827,0.706,14.168,7.516,17.426c-0.197,3.415-0.551,6.662-0.528,9.905c0.026,3.844-2.667,6.736-6.489,7.68
		c-3.698,0.913-7.203,2.61-10.278,3.768c-1.896-1.684-3.112-3.462-4.766-4.09c-3.638-1.382-6.663-2.561-5.828-7.555
		c0.259-1.546-2.007-3.374-2.16-5.156c-0.339-3.934,0.4-7.989-0.157-11.872c-0.907-6.331-2.769-12.521-3.722-18.85
		c-0.872-5.788-0.879-11.703-1.637-17.514c-0.516-3.951-1.242-7.983-2.652-11.681c-1.61-4.223-2.639-8.442-2.451-12.897
		c0.469-11.091-0.128-22.007-3.108-32.825c-0.428-1.551,2.6-4.873,4.755-6.151c4.979-2.955,10.439-2.483,15.459,0.231
		c0.929,0.501,1.069,2.656,1.37,4.09c1.911,9.117,3.738,18.251,5.665,27.364c0.335,1.583,1.018,3.091,1.529,4.638
		c1.697,5.136,0.799,10.539,1.572,15.739c1.427,9.597,3.217,19.149,5.184,28.651C482.452,195.116,484.421,196.396,485.317,197.456"
		/>
	<path clip-path="url(#SVGID_2_)" fill="#FFFFFF" d="M779.62,35.906c-1.578-0.571-2.515-0.911-3.925-1.421
		c5.79-5.719,10.44-12.242,16.728-16.099c11.14-6.835,21.004-3.386,27.576,8.2c0.975,1.718,0.668,4.206,0.806,6.347
		c0.181,2.786,0.217,5.581,0.304,8.372c0.019,0.641,0.22,1.418-0.06,1.903c-2.565,4.456-4.343,9.912-8.066,13.02
		c-4.881,4.072-10.48,8.769-18.096,6.226c-2.404-0.803-4.88-1.493-7.378-1.904c-7.136-1.175-6.102-9.048-10.372-12.697
		c-1.027-0.879-0.067-4.372,0.369-6.585C777.848,39.538,778.796,37.927,779.62,35.906"/>
	<path clip-path="url(#SVGID_2_)" fill="#FFFFFF" d="M436.74,33.399c-1.149-3.227-2.688-7.631-4.284-12.015
		c-2.57-7.055,0.563-13.206,5.066-17.466c3.865-3.659,9.967-5.026,15.779-2.936c1.189,0.428,2.876,1.068,3.214,2.011
		c2.132,5.947,7.266,10.927,5.759,18.1c-0.399,1.901,0.778,4.283,0.063,5.941c-2.11,4.901-8.914,7.333-14.554,6.402
		C444.376,32.875,440.794,33.374,436.74,33.399"/>
</g>
</svg>
