<?xml version="1.0" encoding="utf-8"?>
<!-- Generator: Adobe Illustrator 16.0.4, SVG Export Plug-In . SVG Version: 6.00 Build 0)  -->
<!DOCTYPE svg PUBLIC "-//W3C//DTD SVG 1.1//EN" "http://www.w3.org/Graphics/SVG/1.1/DTD/svg11.dtd">
<svg version="1.1" id="Layer_1" xmlns="http://www.w3.org/2000/svg" xmlns:xlink="http://www.w3.org/1999/xlink" x="0px" y="0px"
	 width="977.862px" height="1128.5px" viewBox="0 0 977.862 1128.5" enable-background="new 0 0 977.862 1128.5"
	 xml:space="preserve">
<g>
	<defs>
		<rect id="SVGID_1_" y="-0.003" width="977.862" height="1128.503"/>
	</defs>
	<clipPath id="SVGID_2_">
		<use xlink:href="#SVGID_1_"  overflow="visible"/>
	</clipPath>
	<path clip-path="url(#SVGID_2_)" fill="#FFFFFF" d="M973.004,1101.329c-3.582-0.521-7.302-0.193-10.955-0.088
		c-15.283,0.44-30.562,1.198-45.849,1.358c-23.958,0.251-48.057-1.508-71.846,0.528c-33.623,2.878-67.163,0.465-100.721,1.389
		c-1.896,0.052-3.388-0.123-4.587-0.578c-13.712,3.389-27.408,3.844-41.622,2.054c-17.613,1.025-77.096,3.629-80.736,3.9
		c-17.866,1.338-35.601,3.98-53.674,2.776c-11.906-0.793-23.938,0.488-35.913,0.531c-20.284,0.071-40.572,0.066-60.853-0.242
		c-10.295-0.156-20.574-1.188-30.869-1.57c-14.634-0.545-29.332-0.201-43.9-1.448c-15.59-1.334-31.092-2.701-46.775-1.886
		c-7.272,0.378-14.641-0.226-21.917-0.91c-24.542-2.304-49.056-1.145-73.61-0.243c-13.531,0.496-59.384-1.174-64.097-0.764
		c-10.258,0.89-20.541,1.75-30.828,1.991c-20.273,0.475-40.577,0.001-60.828,0.868c-28.565,1.222-56.917,6.099-85.623,5.229
		c-3.524-0.105-6.588,0.61-7.801,5.34c8.095,6.89,17.727,7.896,27.848,7.202c11.62-0.795,23.252-1.446,34.859-2.387
		c19.869-1.612,39.7-3.892,59.693-1.899c2.944,0.293,5.973-0.364,8.967-0.468c6.285-0.218,12.575-0.328,18.862-0.542
		c6.614-0.225,13.229-0.451,19.838-0.802c9.265-0.492,18.519-1.41,27.787-1.547c5.609-0.082,11.229,1.371,16.851,1.432
		c14.924,0.161,29.852-0.111,44.778-0.11c14.941,0.001,29.885-0.048,44.822,0.258c9.267,0.189,18.517,1.251,27.785,1.471
		c16.568,0.394,33.219-0.47,49.701,0.859c24.9,2.007,49.733,4.161,74.738,2.756c1.955-0.109,3.943,0.456,5.922,0.62
		c9.249,0.765,18.504,2.143,27.75,2.092c13.267-0.073,26.604-2.417,39.77-1.582c19.612,1.244,39.03,1.536,58.636-0.341
		c21.764-2.083,43.658-2.847,65.503-4.028c19.862-1.074,39.73-2.066,59.605-2.83c6.945-0.267,13.93,0.518,20.885,0.351
		c12.871-0.31,25.73-1.284,38.601-1.386c10.945-0.086,21.916,1.288,32.839,0.92c21.875-0.736,43.713-2.577,65.588-3.259
		c11.904-0.371,23.856,1.116,35.781,1.021c18.924-0.152,37.841-1.045,56.767-1.365c5.115-0.087,9.113-1.907,12.14-5.752
		C979.338,1106.403,977.773,1102.021,973.004,1101.329"/>
	<path clip-path="url(#SVGID_2_)" fill="#FFFFFF" d="M177.249,1075.761c2.009-1.106,3.671-3.218,5.769-3.726
		c15.124-3.667,25.008-15.576,37.179-23.76c10.19-6.852,18.976-15.794,28.678-24.061c1.088,1.366,1.794,2.45,2.688,3.346
		c6.522,6.542,7.67,6.612,16.28,2.182c2.173-1.119,4.659-1.629,8.045-2.769c0.087,6.068,1.035,11.164,0.078,15.872
		c-4.616,22.695-10.113,45.214-14.48,67.953c-0.076,0.399-0.163,0.782-0.254,1.155c5.304-1.159,10.613-2.306,15.929-3.413
		c0.32-1.083,0.691-2.148,0.945-3.235c3.853-16.452,8.148-32.861,10.768-49.524c2.036-12.943,1.83-26.239,2.679-40.335
		c13.319-6.704,26.398-9.396,38.255-1.376c2.721,18.308,4.998,35.358,7.921,52.298c0.948,5.493,3.607,10.689,5.445,16.034
		c1.461,4.248,4.404,27.896,5.926,32.369c4.277-0.734,8.554-1.474,12.834-2.191c1.24-0.208,2.482-0.417,3.724-0.626
		c-1.02-2.944-3.541-25.274-4.556-28.22c-3.212-9.327-7.329-18.461-9.378-28.037c-2.249-10.508-2.589-21.424-3.933-33.74
		c3.32,2.03,5.679,3.582,8.136,4.958c4.921,2.756,9.757,5.726,14.884,8.04c6.331,2.857,12.919,5.144,19.399,7.667
		c11.974,4.662,23.888,9.49,35.96,13.883c4.351,1.583,9.127,2.411,13.004-1.586c1.112-7.129-0.086-13.19-4.597-19.286
		c-6.655-8.993-12.151-18.858-17.952-28.465c-3.509-5.813-7.251-11.687-5.493-19.884c4.069,0.384,7.634,0.747,11.205,1.046
		c2.646,0.221,5.337,0.728,7.94,0.455c6.743-0.706,9.028-3.906,6.295-10.152c-2.495-5.698-5.703-11.33-9.683-16.081
		c-7.673-9.157-11.389-20.136-15.132-30.987c-3.98-11.54-6.268-23.653-9.971-35.303c-2.513-7.908-6.356-15.384-9.276-23.176
		c-1.293-3.452-1.774-7.209-3.126-12.965c7.456,2.633,12.723,4.36,17.887,6.354c5.151,1.987,10.132,3.702,14.586-2.102
		c-1.853-7.174-3.748-14.508-5.63-21.79c10.615-6.079,11.332-12.464,1.772-19.6c-4.218-3.148-6.995-6.642-8.723-11.633
		c-1.725-4.98-4.168-9.864-7.107-14.246c-7.884-11.762-12.728-24.532-14.366-38.566c-0.149-1.274-0.511-2.553-0.963-3.758
		c-5.066-13.54-10.182-27.062-15.257-40.6c-1.222-3.262-2.338-6.566-3.85-10.836c4.1,0.821,6.949,1.557,9.844,1.931
		c4.478,0.579,9.756,3.024,12.934-1.778c3.09-4.668,0.937-9.542-1.913-13.946c-1.803-2.787-3.414-5.705-5.009-8.619
		c-4.134-7.552-8.299-15.088-12.29-22.715c-5.352-10.23-10.162-20.768-15.955-30.735c-3.97-6.831-8.38-13.02-10.884-20.937
		c-5.865-18.539-14.103-36.336-15.238-56.171c-0.21-3.66-1.038-7.781-5.414-8.59c-4.506-0.833-8.854,0.611-11.109,4.91
		c-2.606,4.966-4.766,10.193-6.774,15.438c-3.973,10.385-2.987,23.283-15.17,29.457c-0.54,0.273-0.915,0.972-1.248,1.541
		c-4.344,7.44-8.76,14.842-12.978,22.354c-11.856,21.109-23.448,42.36-37.574,62.111c-6.307,8.819-11.957,18.107-17.775,26.985
		c6.575,9.217,8.239,9.719,17.327,5.102c5.415-2.751,10.72-5.718,16.782-8.968c-7.669,15.563-14.927,30.382-22.269,45.159
		c-3.539,7.123-7.263,14.153-10.853,21.251c-4.481,8.856-8.765,17.816-13.401,26.592c-5.371,10.167-11.031,20.182-16.655,30.426
		c9.869,6.403,17.823-1.716,27.315-1.567c-1.505,3.244-2.514,5.596-3.665,7.873c-5.214,10.312-10.787,20.456-15.591,30.954
		c-3.049,6.665-0.579,9.998,6.74,10.611c1.625,0.136,3.952-0.754,4.805,0.05c5.461,5.143,12.207,5.324,20.454,4.68
		c-1.987,4.22-3.214,7.203-4.749,10.02c-7.602,13.933-15.206,27.866-22.969,41.71c-5.836,10.408-12.096,20.58-17.84,31.037
		c-7.012,12.763-13.809,25.648-20.404,38.632c-1.569,3.09-3.922,7.463-0.106,10.003c3.001,1.997,7.373,2.676,11.104,2.586
		c2.738-0.065,5.396-2.389,8.14-3.588c2.576-1.127,5.22-2.1,10.146-4.061c-2.578,5.587-3.972,8.875-5.581,12.054
		c-8.379,16.569-16.85,33.091-25.197,49.676c-1.754,3.484-2.225,7.011,1.378,9.901
		C169.603,1077.528,173.353,1077.909,177.249,1075.761 M196.014,1029.064c4.897-9.426,10.479-18.496,15.762-27.721
		c0.33-0.576,0.824-1.145,0.907-1.76c0.73-5.399,4.881-11.493-0.1-16.02c-4.712-4.283-9.991-0.075-14.766,1.944
		c-3.264,1.38-6.44,2.969-11.686,5.409c4-8.684,6.706-15.601,10.253-22.057c9.415-17.134,19.232-34.048,28.817-51.09
		c9.256-16.459,18.432-32.963,27.606-49.467c0.474-0.851,0.851-1.902,0.832-2.851c-0.05-2.471,0.543-6.263-0.734-7.116
		c-2.401-1.607-6.025-2.27-8.977-1.924c-3.043,0.354-5.892,2.378-8.642,3.589c-0.525-4.812,0.323-9.801-1.779-12.463
		c-1.841-2.332-6.992-2.053-11.149-3.037c1.39-8.271,8.273-13.841,11.882-21.162c2.771-5.622,6.493-10.772,9.353-16.357
		c2.954-5.767,0.049-10.095-6.32-9.435c-2.864,0.298-5.699,1.587-8.373,2.808c-2.956,1.352-5.713,3.141-10.811,6.003
		c3.401-7.254,5.656-12.464,8.242-17.505c6.496-12.666,13.21-25.221,19.704-37.888c5.755-11.223,11.906-22.295,16.835-33.878
		c5.683-13.353,13.385-26.085,14.379-41.143c0.143-2.153,1.405-4.234,2.205-6.511c-5.216-4.391-8.46-1.527-12.2,1.771
		c-3.108,2.739-7.035,4.551-12.617,8.031c1.74-3.649,2.267-5.359,3.257-6.738c15.323-21.344,31.287-42.338,42.37-66.3
		c4.358-9.424,10.99-16.717,17.639-24.992c10.08,36.495,31.46,67.279,46.18,101.852c-1.821,0.424-3.589,0.844-5.361,1.246
		c-8.194,1.857-10.192,5.275-7.34,13.454c4.577,13.119,9.597,26.086,14.008,39.259c2.74,8.184,5.246,16.521,6.903,24.976
		c3.586,18.294,11.159,35.113,21.299,50.228c7.659,11.416,7.627,23.429,9.605,36.994c-6.787-1.48-12.178-3.04-17.68-3.761
		c-7.177-0.941-10.398,2.405-10.194,9.649c0.36,12.906,5.79,24.51,9.524,36.522c4.818,15.501,10.381,30.771,15.196,46.273
		c3.144,10.121,6.381,20.047,13.618,28.157c1.516,1.697,2.548,3.826,4.738,7.195c-3.296-0.267-5.489,0.069-7.166-0.708
		c-2.04-0.945-3.867-2.631-5.389-4.35c-2.629-2.969-6.238-3.762-8.961-1.883c-2.334,1.61-4.265,5.108-4.606,7.981
		c-0.456,3.841,0.634,7.914,1.362,11.832c0.667,3.592,1.719,7.114,2.624,10.663c2.71,10.619,5.085,21.275,14.094,29.006
		c3.053,2.619,4.835,6.717,8.455,11.96c-9.163-0.49-14.578-4.434-20.461-6.902c-5.768-2.421-11.635-4.632-17.282-7.307
		c-5.039-2.386-9.817-5.321-14.75-7.939c-6.439-3.417-12.877-6.84-19.402-10.091c-2.358-1.175-5.111-1.577-7.432-2.808
		c-21.427-11.364-41.58-6.521-61.263,4.646c-1.732,0.983-3.297,2.262-5.009,3.286c-4.157,2.486-7.765,2.256-11.752-1.078
		c-6.425-5.375-10.041-5.531-16.633-0.518c-8.443,6.421-17.325,12.631-24.392,20.409c-9.637,10.604-21.749,16.951-35.038,23.172
		C188.906,1044.754,192.048,1036.695,196.014,1029.064"/>
	<path clip-path="url(#SVGID_2_)" fill="#FFFFFF" d="M282.153,959.521c-4.067,3.934-7.229,7.355-10.789,10.296
		c-2.243,1.855-4.924,3.508-7.684,4.352c-9.496,2.902-14.79-0.777-15.462-10.735c-0.379-5.633-0.117-11.308-0.157-16.965
		c-0.051-7.13,1.081-8.183,9.613-8.854c5.748,5.768,4.62,13.447,5.636,22.466c5.481-4.662,10.06-8.568,14.653-12.457
		c2.012-1.705,3.833-3.829,6.134-4.957c3.546-1.739,6.819-1.668,9.364,2.498c2.192,3.588,5.317,6.607,8.308,10.214
		c4.455-2.182,8.153-4.417,12.15-5.75c1.718-0.573,5.224,0.113,5.856,1.313c1.016,1.93,1.38,5.782,0.169,7.035
		c-5.756,5.962-11.815,11.227-21.319,11.007C291.264,968.813,287.522,963.781,282.153,959.521"/>
	<path clip-path="url(#SVGID_2_)" fill="#FFFFFF" d="M302.723,782.789c5.826-3.474,10.579-6.404,15.426-9.17
		c4.951-2.824,7.238-0.395,8.521,4.665c-4.54,4.819-8.667,10.055-13.679,14.226c-3.385,2.815-7.834,4.873-12.137,5.933
		c-5.652,1.393-10.444-0.565-12.724-6.694c-0.801-2.149-2.2-4.079-3.297-6.056c-4.838,0.861-9.522,2.021-14.273,2.441
		c-4.087,0.359-6.319-2.149-5.638-6.235c0.982-5.883,1.984-11.824,3.756-17.497c1.721-5.506,6.483-6.965,10.829-3.068
		c2.776,2.488,4.949,3.366,8.642,3.054c7.73-0.657,8.553,0.25,11.319,8.026c0.556,1.563,1.12,3.126,1.622,4.708
		C301.577,778.656,301.987,780.217,302.723,782.789"/>
	<path clip-path="url(#SVGID_2_)" fill="#FFFFFF" d="M332.158,882.384c-1.09,4.797-2.029,8.937-2.971,13.078
		c-8.67,3.564-10.124,3.762-15.363-2.843c-5.526-6.966-10.298-14.581-14.886-22.22c-2.335-3.888-0.374-8.058,4.099-9.532
		c2.671-0.88,5.682-0.728,8.449-1.028c2.378,5.771,4.351,10.562,6.565,15.937c3.424-3.238,5.728-6.822,8.93-8.034
		c2.999-1.134,6.948,0.245,11.739,0.615c0.491-0.426,1.775-2.217,3.487-2.844c1.848-0.678,4.847-1.102,5.958-0.1
		c1.101,0.994,1.186,4.192,0.482,5.921C345.846,878.206,339.459,880.457,332.158,882.384"/>
	<path clip-path="url(#SVGID_2_)" fill="#FFFFFF" d="M301.312,666.401c4.01,4.344,6.896,4.008,10.1,0.777
		c3.946-3.979,8.254-7.631,12.652-11.113c2.116-1.678,4.796-2.644,7.094-3.865c4.873,4.778,4.641,8.683,1.082,12.888
		c-7.248,8.562-14.656,16.854-24.695,22.405c-3.02,1.671-5.398,2.001-8.181,0.04c-3.063-2.156-4.427-4.934-3.108-8.559
		C297.603,675.274,299.183,671.659,301.312,666.401"/>
	<path clip-path="url(#SVGID_2_)" fill="#FFFFFF" d="M565.728,1075.761c2.009-1.106,3.671-3.218,5.77-3.726
		c15.124-3.667,25.008-15.576,37.179-23.76c10.189-6.852,18.976-15.794,28.678-24.061c1.088,1.366,1.794,2.45,2.688,3.346
		c6.521,6.542,7.67,6.612,16.279,2.182c2.174-1.119,4.659-1.629,8.046-2.769c0.087,6.068,1.034,11.164,0.077,15.872
		c-4.615,22.695-10.112,45.214-14.479,67.953c-0.077,0.399-0.163,0.782-0.254,1.155c5.304-1.159,10.612-2.306,15.929-3.413
		c0.32-1.083,0.691-2.148,0.945-3.235c3.853-16.452,8.147-32.861,10.768-49.524c2.035-12.943,1.83-26.239,2.679-40.335
		c13.319-6.704,26.398-9.396,38.256-1.376c2.721,18.308,4.998,35.358,7.921,52.298c0.947,5.493,3.606,10.689,5.444,16.034
		c1.461,4.248,4.404,27.896,5.927,32.369c4.276-0.734,8.554-1.474,12.834-2.191c1.239-0.208,2.481-0.417,3.724-0.626
		c-1.02-2.944-3.541-25.274-4.556-28.22c-3.212-9.327-7.329-18.461-9.378-28.037c-2.249-10.508-2.59-21.424-3.934-33.74
		c3.32,2.03,5.679,3.582,8.136,4.958c4.921,2.756,9.758,5.726,14.885,8.04c6.331,2.857,12.919,5.144,19.398,7.667
		c11.975,4.662,23.888,9.49,35.96,13.883c4.352,1.583,9.127,2.411,13.004-1.586c1.112-7.129-0.086-13.19-4.597-19.286
		c-6.655-8.993-12.151-18.858-17.952-28.465c-3.509-5.813-7.251-11.687-5.493-19.884c4.068,0.384,7.635,0.747,11.205,1.046
		c2.646,0.221,5.337,0.728,7.94,0.455c6.743-0.706,9.027-3.906,6.295-10.152c-2.495-5.698-5.703-11.33-9.684-16.081
		c-7.673-9.157-11.389-20.136-15.132-30.987c-3.98-11.54-6.268-23.653-9.971-35.303c-2.513-7.908-6.356-15.384-9.276-23.176
		c-1.293-3.452-1.773-7.209-3.126-12.965c7.456,2.633,12.724,4.36,17.888,6.354c5.15,1.987,10.132,3.702,14.586-2.102
		c-1.854-7.174-3.748-14.508-5.63-21.79c10.614-6.079,11.332-12.464,1.771-19.6c-4.218-3.148-6.995-6.642-8.723-11.633
		c-1.727-4.98-4.168-9.864-7.107-14.246c-7.885-11.762-12.728-24.532-14.366-38.566c-0.148-1.274-0.512-2.553-0.963-3.758
		c-5.065-13.54-10.182-27.062-15.257-40.6c-1.222-3.262-2.338-6.566-3.85-10.836c4.1,0.821,6.949,1.557,9.844,1.931
		c4.478,0.579,9.756,3.024,12.934-1.778c3.091-4.668,0.938-9.542-1.913-13.946c-1.803-2.787-3.413-5.705-5.009-8.619
		c-4.134-7.552-8.299-15.088-12.29-22.715c-5.352-10.23-10.162-20.768-15.955-30.735c-3.97-6.831-8.38-13.02-10.884-20.937
		c-5.865-18.539-14.103-36.336-15.237-56.171c-0.211-3.66-1.038-7.781-5.414-8.59c-4.507-0.833-8.854,0.611-11.109,4.91
		c-2.606,4.966-4.766,10.193-6.774,15.438c-3.974,10.385-2.986,23.283-15.17,29.457c-0.54,0.273-0.915,0.972-1.248,1.541
		c-4.344,7.44-8.76,14.842-12.978,22.354c-11.856,21.109-23.448,42.36-37.574,62.111c-6.307,8.819-11.957,18.107-17.775,26.985
		c6.575,9.217,8.239,9.719,17.327,5.102c5.415-2.751,10.721-5.718,16.782-8.968c-7.669,15.563-14.927,30.382-22.269,45.159
		c-3.539,7.123-7.264,14.153-10.854,21.251c-4.48,8.856-8.765,17.816-13.4,26.592c-5.371,10.167-11.031,20.182-16.655,30.426
		c9.869,6.403,17.823-1.716,27.314-1.567c-1.505,3.244-2.514,5.596-3.665,7.873c-5.214,10.312-10.786,20.456-15.591,30.954
		c-3.049,6.665-0.579,9.998,6.739,10.611c1.625,0.136,3.953-0.754,4.806,0.05c5.461,5.143,12.207,5.324,20.454,4.68
		c-1.987,4.22-3.214,7.203-4.749,10.02c-7.602,13.933-15.206,27.866-22.969,41.71c-5.836,10.408-12.096,20.58-17.84,31.037
		c-7.012,12.763-13.81,25.648-20.404,38.632c-1.568,3.09-3.923,7.463-0.105,10.003c3.001,1.997,7.373,2.676,11.104,2.586
		c2.738-0.065,5.396-2.389,8.14-3.588c2.576-1.127,5.221-2.1,10.146-4.061c-2.578,5.587-3.972,8.875-5.581,12.054
		c-8.379,16.569-16.85,33.091-25.197,49.676c-1.754,3.484-2.225,7.011,1.378,9.901
		C558.082,1077.528,561.832,1077.909,565.728,1075.761 M584.492,1029.064c4.897-9.426,10.479-18.496,15.763-27.721
		c0.33-0.576,0.824-1.145,0.907-1.76c0.729-5.399,4.881-11.493-0.101-16.02c-4.712-4.283-9.991-0.075-14.767,1.944
		c-3.264,1.38-6.439,2.969-11.686,5.409c3.999-8.684,6.706-15.601,10.253-22.057c9.415-17.134,19.232-34.048,28.816-51.09
		c9.257-16.459,18.433-32.963,27.606-49.467c0.475-0.851,0.852-1.902,0.832-2.851c-0.05-2.471,0.543-6.263-0.733-7.116
		c-2.401-1.607-6.025-2.27-8.978-1.924c-3.044,0.354-5.892,2.378-8.642,3.589c-0.525-4.812,0.323-9.801-1.779-12.463
		c-1.841-2.332-6.991-2.053-11.148-3.037c1.39-8.271,8.272-13.841,11.882-21.162c2.771-5.622,6.493-10.772,9.353-16.357
		c2.954-5.767,0.05-10.095-6.319-9.435c-2.864,0.298-5.699,1.587-8.373,2.808c-2.956,1.352-5.713,3.141-10.812,6.003
		c3.401-7.254,5.656-12.464,8.241-17.505c6.497-12.666,13.211-25.221,19.705-37.888c5.755-11.223,11.906-22.295,16.835-33.878
		c5.683-13.353,13.385-26.085,14.379-41.143c0.144-2.153,1.405-4.234,2.205-6.511c-5.216-4.391-8.46-1.527-12.2,1.771
		c-3.107,2.739-7.035,4.551-12.617,8.031c1.74-3.649,2.268-5.359,3.258-6.738c15.322-21.344,31.287-42.338,42.369-66.3
		c4.358-9.424,10.99-16.717,17.64-24.992c10.08,36.495,31.46,67.279,46.18,101.852c-1.821,0.424-3.589,0.844-5.36,1.246
		c-8.194,1.857-10.192,5.275-7.341,13.454c4.577,13.119,9.598,26.086,14.009,39.259c2.739,8.184,5.245,16.521,6.902,24.976
		c3.586,18.294,11.159,35.113,21.299,50.228c7.659,11.416,7.627,23.429,9.605,36.994c-6.787-1.48-12.178-3.04-17.68-3.761
		c-7.178-0.941-10.398,2.405-10.194,9.649c0.36,12.906,5.79,24.51,9.524,36.522c4.817,15.501,10.381,30.771,15.195,46.273
		c3.145,10.121,6.381,20.047,13.618,28.157c1.516,1.697,2.548,3.826,4.738,7.195c-3.296-0.267-5.49,0.069-7.166-0.708
		c-2.04-0.945-3.867-2.631-5.39-4.35c-2.629-2.969-6.237-3.762-8.961-1.883c-2.334,1.61-4.266,5.108-4.605,7.981
		c-0.456,3.841,0.634,7.914,1.361,11.832c0.668,3.592,1.72,7.114,2.625,10.663c2.709,10.619,5.084,21.275,14.094,29.006
		c3.052,2.619,4.835,6.717,8.455,11.96c-9.163-0.49-14.578-4.434-20.461-6.902c-5.769-2.421-11.636-4.632-17.282-7.307
		c-5.039-2.386-9.817-5.321-14.75-7.939c-6.439-3.417-12.877-6.84-19.402-10.091c-2.357-1.175-5.11-1.577-7.432-2.808
		c-21.427-11.364-41.58-6.521-61.263,4.646c-1.732,0.983-3.298,2.262-5.01,3.286c-4.156,2.486-7.765,2.256-11.752-1.078
		c-6.425-5.375-10.041-5.531-16.633-0.518c-8.443,6.421-17.325,12.631-24.392,20.409c-9.638,10.604-21.749,16.951-35.038,23.172
		C577.385,1044.754,580.526,1036.695,584.492,1029.064"/>
	<path clip-path="url(#SVGID_2_)" fill="#FFFFFF" d="M670.631,959.521c-4.066,3.934-7.229,7.355-10.789,10.296
		c-2.242,1.855-4.924,3.508-7.684,4.352c-9.496,2.902-14.79-0.777-15.462-10.735c-0.379-5.633-0.117-11.308-0.157-16.965
		c-0.051-7.13,1.081-8.183,9.613-8.854c5.748,5.768,4.62,13.447,5.636,22.466c5.481-4.662,10.061-8.568,14.653-12.457
		c2.012-1.705,3.833-3.829,6.134-4.957c3.546-1.739,6.819-1.668,9.364,2.498c2.191,3.588,5.316,6.607,8.308,10.214
		c4.455-2.182,8.153-4.417,12.15-5.75c1.718-0.573,5.224,0.113,5.855,1.313c1.017,1.93,1.38,5.782,0.169,7.035
		c-5.756,5.962-11.814,11.227-21.318,11.007C679.742,968.813,676,963.781,670.631,959.521"/>
	<path clip-path="url(#SVGID_2_)" fill="#FFFFFF" d="M691.202,782.789c5.825-3.474,10.577-6.404,15.426-9.17
		c4.951-2.824,7.237-0.395,8.521,4.665c-4.54,4.819-8.667,10.055-13.679,14.226c-3.385,2.815-7.835,4.873-12.137,5.933
		c-5.652,1.393-10.444-0.565-12.725-6.694c-0.801-2.149-2.2-4.079-3.297-6.056c-4.838,0.861-9.521,2.021-14.272,2.441
		c-4.087,0.359-6.319-2.149-5.639-6.235c0.982-5.883,1.984-11.824,3.756-17.497c1.722-5.506,6.483-6.965,10.829-3.068
		c2.776,2.488,4.949,3.366,8.643,3.054c7.729-0.657,8.553,0.25,11.318,8.026c0.557,1.563,1.12,3.126,1.622,4.708
		C690.056,778.656,690.466,780.217,691.202,782.789"/>
	<path clip-path="url(#SVGID_2_)" fill="#FFFFFF" d="M720.637,882.384c-1.091,4.797-2.029,8.937-2.972,13.078
		c-8.67,3.564-10.124,3.762-15.363-2.843c-5.525-6.966-10.298-14.581-14.886-22.22c-2.335-3.888-0.374-8.058,4.1-9.532
		c2.671-0.88,5.682-0.728,8.448-1.028c2.378,5.771,4.352,10.562,6.565,15.937c3.424-3.238,5.728-6.822,8.93-8.034
		c2.999-1.134,6.948,0.245,11.739,0.615c0.491-0.426,1.775-2.217,3.487-2.844c1.848-0.678,4.847-1.102,5.958-0.1
		c1.101,0.994,1.186,4.192,0.481,5.921C734.324,878.206,727.938,880.457,720.637,882.384"/>
	<path clip-path="url(#SVGID_2_)" fill="#FFFFFF" d="M689.791,666.401c4.01,4.344,6.896,4.008,10.1,0.777
		c3.946-3.979,8.254-7.631,12.652-11.113c2.115-1.678,4.796-2.644,7.094-3.865c4.873,4.778,4.641,8.683,1.082,12.888
		c-7.248,8.562-14.656,16.854-24.695,22.405c-3.02,1.671-5.398,2.001-8.181,0.04c-3.063-2.156-4.427-4.934-3.108-8.559
		C686.08,675.274,687.661,671.659,689.791,666.401"/>
	<path clip-path="url(#SVGID_2_)" fill="#FFFFFF" d="M606.506,1039.296c-2.457,3.752-5.108,7.388-7.981,10.795
		c0.142,0.214,0.272,0.418,0.423,0.636c-0.314-0.017-0.615-0.047-0.92-0.073c-1.689,1.972-3.441,3.874-5.29,5.658
		c-1.871,1.806-4.014,3.063-6.272,3.826c6.32,2.481,12.647,4.942,19.025,7.263c3.87,1.408,8.118,2.145,11.565-1.41
		c0.988-6.341-0.076-11.729-4.089-17.15C610.686,1045.755,608.558,1042.554,606.506,1039.296"/>
	<path clip-path="url(#SVGID_2_)" fill="#FFFFFF" d="M579.07,1002.478c-1.043,0-2.051-0.108-3.025-0.292
		c0.174,0.881,0.355,1.758,0.518,2.627c0.592,3.196,1.528,6.328,2.333,9.483c0.414,1.624,0.821,3.247,1.249,4.859
		c2.972-4.735,5.69-9.632,8.119-14.663c0.628-1.304,1.217-2.621,1.823-3.936c0.012-0.029,0.02-0.048,0.033-0.076
		c0.312-0.778,0.616-1.562,0.911-2.349c0.181-0.485,0.349-0.975,0.52-1.463C588.407,1000.191,583.799,1002.478,579.07,1002.478"/>
	<path clip-path="url(#SVGID_2_)" fill="#FFFFFF" d="M584.147,836.725c-7.013-10.459-11.318-21.815-12.774-34.297
		c-0.133-1.134-0.454-2.27-0.857-3.342c-4.506-12.041-9.055-24.064-13.566-36.104c-1.087-2.902-2.079-5.84-3.426-9.636
		c3.646,0.729,6.181,1.385,8.756,1.717c3.98,0.515,8.676,2.688,11.502-1.582c2.746-4.152,0.833-8.486-1.701-12.402
		c-1.604-2.479-3.036-5.073-4.454-7.665c-3.676-6.715-7.38-13.417-10.929-20.2c-4.762-9.096-9.037-18.467-14.189-27.331
		c-3.53-6.074-7.452-11.577-9.679-18.618c-5.215-16.486-12.541-32.312-13.552-49.951c-0.187-3.254-0.923-6.92-4.814-7.64
		c-4.005-0.739-7.873,0.544-9.878,4.367c-2.318,4.415-4.239,9.063-6.024,13.729c-3.533,9.233-2.655,20.704-13.49,26.194
		c-0.481,0.243-0.814,0.863-1.11,1.37c-3.863,6.617-7.791,13.199-11.542,19.879c-10.542,18.771-20.85,37.669-33.413,55.233
		c-5.609,7.842-10.632,16.102-15.806,23.996c5.847,8.197,7.327,8.643,15.408,4.538c4.815-2.446,9.533-5.085,14.924-7.976
		c-6.821,13.842-13.275,27.019-19.803,40.158c-3.148,6.334-6.459,12.587-9.652,18.899c-3.985,7.876-7.794,15.844-11.916,23.646
		c-0.148,0.278-0.299,0.555-0.448,0.832c0.445,0.761,0.825,1.557,1.104,2.412c1.033,1.966,1.506,4.085,1.421,6.357
		c0.085,2.271-0.388,4.391-1.421,6.356c-0.666,2.046-1.803,3.816-3.412,5.311c-0.223,0.223-0.444,0.444-0.667,0.667
		c-0.062,0.062-0.124,0.124-0.187,0.186c-2.058,2.045-4.485,3.46-7.28,4.244c-1.274,0.171-2.549,0.342-3.823,0.513
		c-0.033,0.061-0.066,0.119-0.099,0.18c8.777,5.693,15.85-1.526,24.291-1.395c-1.338,2.886-2.235,4.977-3.26,7.001
		c-4.635,9.17-9.592,18.192-13.864,27.527c-2.711,5.927-0.515,8.891,5.992,9.436c1.447,0.121,3.516-0.671,4.275,0.044
		c4.856,4.573,10.855,4.735,18.189,4.161c-1.767,3.753-2.857,6.407-4.223,8.911c-5.948,10.899-11.911,21.79-17.955,32.635
		c2.798,5.315,3.904,11.357,3.307,17.282c4.23-7.443,8.477-14.879,12.674-22.341c8.231-14.636,16.392-29.312,24.55-43.99
		c0.421-0.756,0.756-1.69,0.739-2.535c-0.044-2.195,0.483-5.567-0.652-6.327c-2.135-1.43-5.359-2.018-7.983-1.712
		c-2.707,0.316-5.24,2.114-7.685,3.192c-0.467-4.278,0.287-8.715-1.581-11.083c-1.638-2.074-6.219-1.825-9.916-2.7
		c1.237-7.354,7.357-12.31,10.566-18.818c2.465-5,5.774-9.58,8.318-14.546c2.627-5.13,0.043-8.979-5.621-8.391
		c-2.547,0.265-5.068,1.411-7.445,2.497c-2.629,1.201-5.081,2.792-9.614,5.338c3.024-6.451,5.03-11.084,7.329-15.566
		c5.777-11.265,11.748-22.429,17.523-33.692c5.117-9.981,10.586-19.826,14.971-30.127c5.053-11.873,11.902-23.196,12.787-36.587
		c0.126-1.915,1.248-3.765,1.961-5.79c-4.641-3.904-7.523-1.357-10.85,1.575c-2.764,2.436-6.256,4.047-11.22,7.142
		c1.548-3.246,2.016-4.767,2.896-5.993c13.626-18.979,27.822-37.648,37.68-58.958c3.876-8.38,9.771-14.864,15.685-22.225
		c8.964,32.454,27.976,59.83,41.068,90.574c-1.62,0.377-3.193,0.751-4.769,1.106c-7.287,1.652-9.063,4.692-6.527,11.965
		c4.069,11.666,8.534,23.198,12.457,34.912c2.437,7.277,4.665,14.691,6.14,22.21c3.188,16.268,25.722,65.501,27.48,77.564
		c-6.034-1.317-10.829-2.703-15.722-3.345c-6.382-0.838-9.247,2.139-9.066,8.581c0.32,11.478,5.148,21.797,8.471,32.478
		c3.721,11.971,7.939,23.788,11.791,35.719c2.07-4.25,5.068-7.981,8.943-10.827c-1.869-6.927-3.5-13.937-5.672-20.769
		c-2.234-7.032-5.651-13.68-8.249-20.61c-1.148-3.069-1.577-6.41-2.78-11.528c6.632,2.341,11.314,3.878,15.907,5.649
		c4.581,1.769,9.011,3.292,12.972-1.869C600.007,890.164,586.761,840.621,584.147,836.725"/>
	<path clip-path="url(#SVGID_2_)" fill="#FFFFFF" d="M556.262,1048.236c3.325,1.501,6.731,2.822,10.149,4.117
		c-2.188-4.265,0.874-8.585,2.66-13.058c-0.162-0.076-3.526-1.129-3.688-1.205c-4.48-2.122-8.729-4.732-13.115-7.061
		c-5.728-3.039-11.452-6.083-17.255-8.973c-2.098-1.046-4.546-1.404-6.608-2.498c-19.055-10.104-36.978-5.799-54.479,4.132
		c-1.542,0.874-2.933,2.011-4.455,2.922c-3.697,2.21-6.906,2.006-10.45-0.959c-5.714-4.778-8.93-4.918-14.791-0.46
		c-7.295,5.547-14.945,10.928-21.138,17.571c-1.203,3.496-3.541,6.546-7.027,8.793c-1.678,1.082-3.584,1.739-5.563,2.036
		c-5.883,3.953-12.328,7.174-19.123,10.354c2.042-4.581,7.965-14.399,10.025-18.971c-0.461-0.366-0.908-0.75-1.318-1.167
		c-2.215-2.257-8.205,0.489-9.929-2.171c-0.071-0.109-0.131-0.22-0.198-0.329c-5.668,11.154-11.349,22.3-16.974,33.476
		c-1.559,3.099-1.979,6.235,1.225,8.806c3.123,2.505,6.458,2.843,9.923,0.933c1.786-0.983,3.265-2.861,5.13-3.313
		c13.449-3.262,22.238-13.851,33.062-21.128c9.062-6.094,16.875-14.045,25.503-21.396c0.967,1.215,1.595,2.178,2.39,2.975
		c5.8,5.818,6.821,5.881,14.478,1.939c1.931-0.994,4.142-1.447,7.154-2.461c0.077,5.395,0.92,9.928,0.068,14.115
		c-4.104,20.181-8.993,40.207-12.876,60.428c-0.068,0.356-0.145,0.695-0.226,1.027c4.717-1.031,9.438-2.05,14.166-3.035
		c0.284-0.963,0.614-1.91,0.841-2.876c3.425-14.631,7.245-29.224,9.575-44.041c1.809-11.511,1.628-23.335,2.382-35.869
		c11.844-5.962,23.474-8.356,34.019-1.223c2.42,16.278,4.445,31.441,7.044,46.506c0.844,4.886,3.208,9.506,4.844,14.259
		c1.299,3.778,3.916,24.806,5.268,28.785c3.804-0.654,7.607-1.312,11.413-1.949c1.104-0.185,2.208-0.371,3.312-0.557
		c-0.907-2.618-3.148-22.476-4.052-25.095c-2.855-8.294-6.517-16.417-8.34-24.933c-2-9.344-2.301-19.051-3.497-30.005
		c2.951,1.807,5.05,3.185,7.235,4.409C547.403,1043.539,551.702,1046.179,556.262,1048.236"/>
	<path clip-path="url(#SVGID_2_)" fill="#FFFFFF" d="M477.421,981.156c-3.618,3.497-6.43,6.541-9.595,9.156
		c-1.995,1.648-4.379,3.118-6.833,3.868c-8.444,2.581-13.152-0.69-13.75-9.546c-0.338-5.01-0.103-10.057-0.139-15.087
		c-0.045-6.34,0.961-7.276,8.547-7.873c5.113,5.128,4.109,11.957,5.013,19.978c4.873-4.146,8.945-7.619,13.029-11.079
		c1.791-1.516,3.41-3.403,5.457-4.407c3.153-1.546,6.063-1.484,8.327,2.221c1.949,3.192,4.728,5.877,7.387,9.084
		c3.962-1.939,7.25-3.928,10.805-5.113c1.528-0.511,4.646,0.101,5.207,1.169c0.904,1.715,1.229,5.141,0.151,6.256
		c-5.119,5.301-10.507,9.981-18.959,9.789C485.523,989.42,482.194,984.945,477.421,981.156"/>
	<path clip-path="url(#SVGID_2_)" fill="#FFFFFF" d="M495.714,823.993c5.182-3.089,9.406-5.695,13.718-8.153
		c4.402-2.512,6.436-0.353,7.578,4.147c-4.037,4.286-7.708,8.942-12.165,12.65c-3.011,2.504-6.968,4.334-10.793,5.275
		c-5.025,1.239-9.287-0.502-11.316-5.952c-0.711-1.912-1.956-3.628-2.931-5.386c-4.302,0.766-8.468,1.797-12.693,2.17
		c-3.634,0.321-5.62-1.911-5.013-5.544c0.873-5.231,1.763-10.515,3.34-15.56c1.53-4.896,5.764-6.193,9.629-2.729
		c2.468,2.212,4.402,2.994,7.685,2.716c6.875-0.584,7.607,0.222,10.066,7.138c0.495,1.391,0.997,2.78,1.443,4.186
		C494.693,820.318,495.059,821.705,495.714,823.993"/>
	<path clip-path="url(#SVGID_2_)" fill="#FFFFFF" d="M521.89,912.56c-0.971,4.267-1.807,7.947-2.643,11.63
		c-7.711,3.17-9.004,3.347-13.663-2.526c-4.914-6.195-9.157-12.966-13.236-19.761c-2.076-3.457-0.332-7.166,3.645-8.476
		c2.375-0.783,5.053-0.647,7.513-0.916c2.114,5.133,3.87,9.394,5.838,14.173c3.047-2.879,5.096-6.066,7.942-7.144
		c2.667-1.009,6.178,0.217,10.439,0.546c0.436-0.378,1.577-1.971,3.101-2.529c1.644-0.603,4.31-0.979,5.298-0.088
		c0.98,0.884,1.055,3.729,0.429,5.264C534.062,908.846,528.382,910.847,521.89,912.56"/>
	<path clip-path="url(#SVGID_2_)" fill="#FFFFFF" d="M494.459,720.493c3.565,3.862,6.132,3.563,8.98,0.691
		c3.509-3.538,7.34-6.786,11.251-9.883c1.882-1.492,4.265-2.351,6.309-3.437c4.333,4.249,4.128,7.722,0.963,11.461
		c-6.445,7.611-13.032,14.985-21.96,19.924c-2.687,1.485-4.801,1.779-7.275,0.035c-2.724-1.917-3.938-4.388-2.764-7.611
		C491.159,728.384,492.565,725.169,494.459,720.493"/>
	
		<path clip-path="url(#SVGID_2_)" fill="none" stroke="#FFFFFF" stroke-width="13" stroke-linecap="round" stroke-linejoin="round" stroke-miterlimit="10" d="
		M19.693,273.224c6.021-11.962,23.983-16.909,33.764-7.76c-3.589-18.371-6.848-38.766,2.976-54.7
		c8.357-13.554,25.95-20.666,41.379-16.729c15.429,3.939,27.46,18.614,28.297,34.515c7.916-14.406,22.817-25.624,39.25-26.035
		c16.433-0.412,33.119,12.027,34.647,28.394c5.03-12.009,22.249-14.799,33.491-8.231c11.241,6.568,17.318,19.345,20.802,31.889
		c2.059,7.409,3.442,15.306,1.5,22.747c-4.53,17.363-24.486,25.279-42.13,28.546c-22.331,4.134-45.121,4.999-67.815,5.855
		c-17.326,0.653-34.653,1.306-51.979,1.96C71.526,314.518-2.59,317.497,19.693,273.224z"/>
	
		<path clip-path="url(#SVGID_2_)" fill="none" stroke="#FFFFFF" stroke-width="13" stroke-linecap="round" stroke-linejoin="round" stroke-miterlimit="10" d="
		M573.494,127.221c6.021-11.962,23.983-16.909,33.765-7.76c-3.589-18.371-6.847-38.766,2.977-54.7
		c8.357-13.554,25.95-20.666,41.379-16.728c15.429,3.939,27.46,18.614,28.298,34.515c7.914-14.406,22.816-25.624,39.25-26.035
		c16.433-0.412,33.118,12.027,34.646,28.394c5.03-12.009,22.249-14.799,33.491-8.231c11.24,6.568,17.316,19.345,20.802,31.889
		c2.059,7.409,3.441,15.306,1.499,22.747c-4.529,17.363-24.485,25.28-42.13,28.546c-22.33,4.134-45.12,5-67.814,5.855
		c-17.325,0.653-34.652,1.306-51.979,1.96C625.328,168.515,551.212,171.494,573.494,127.221z"/>
	
		<path clip-path="url(#SVGID_2_)" fill="none" stroke="#FFFFFF" stroke-width="13" stroke-linecap="round" stroke-linejoin="round" stroke-miterlimit="10" d="
		M627.053,50.356c-5.802-14.034-14.468-26.923-27.439-34.431c-53.255-30.819-105.417,19.236-94.807,73.353
		c2.973,15.165,8.592,30.406,19.644,41.207c11.84,11.57,28.624,16.35,45.308,15.453"/>
</g>
</svg>
