<?xml version="1.0" encoding="utf-8"?>
<!-- Generator: Adobe Illustrator 16.0.4, SVG Export Plug-In . SVG Version: 6.00 Build 0)  -->
<!DOCTYPE svg PUBLIC "-//W3C//DTD SVG 1.1//EN" "http://www.w3.org/Graphics/SVG/1.1/DTD/svg11.dtd">
<svg version="1.1" id="Layer_1" xmlns="http://www.w3.org/2000/svg" xmlns:xlink="http://www.w3.org/1999/xlink" x="0px" y="0px"
	 width="2444.189px" height="347.637px" viewBox="0 0 2444.189 347.637" enable-background="new 0 0 2444.189 347.637"
	 xml:space="preserve">
<g>
	<defs>
		<rect id="SVGID_1_" width="2444.191" height="347.637"/>
	</defs>
	<clipPath id="SVGID_2_">
		<use xlink:href="#SVGID_1_"  overflow="visible"/>
	</clipPath>
	<path clip-path="url(#SVGID_2_)" fill="#FFFFFF" d="M285.31,170.629c-2.428,3.504-3.243,6.35-2.308,10.75
		c1.949,9.163,2.526,18.677,2.946,28.078c0.208,4.644,1.695,9.484-1.442,14.235c-1.056,1.602,1.314,5.241,1.606,8.002
		c0.588,5.568,0.824,11.172,1.208,16.762c0.033,0.488,0.292,1.092,0.095,1.448c-4.452,8.098,0.074,15.827,0.854,23.721
		c0.511,5.177,0.324,10.424,0.838,15.601c0.828,8.352,2.313,16.504,8.314,23.087c2.661,2.919,4.917,6.208,7.325,9.354
		c2.602,3.4,5.914,3.027,7.981,0.197c3.382-4.627,7.707-9.669,8.324-14.923c0.722-6.152,3.32-11.634,4.016-17.647
		c1.116-9.648,2.908-19.237,3.625-28.91c0.57-7.699-0.345-15.497-0.055-23.232c0.441-11.709,1.598-23.395,1.941-35.105
		c0.128-4.377-0.454-9.103-2.137-13.062c-0.797-1.873-4.874-2.609-7.604-3.344c-6.036-1.626-12.212-2.739-18.233-4.411
		c-5.304-1.473-5.299-6.574-5.595-10.599c-0.128-1.748,2.565-4.697,4.558-5.365c2.712-0.908,6.719-1.288,8.865,0.109
		c5.533,3.602,11.224,1.787,16.864,2.006c2.944,0.114,5.901,0.291,8.836,0.134c4.048-0.218,8.174-0.32,12.095-1.219
		c3.977-0.911,7.656-3.104,11.63-4.049c3.874-0.922,8.057-1.755,11.922-1.247c8.33,1.093,12.432,10.462,8.1,17.628
		c-0.626,1.033-1.933,1.989-3.106,2.305c-7.671,2.056-15.4,3.891-23.09,5.88c-2.01,0.52-5.392,0.985-5.643,2.059
		c-0.721,3.097-0.265,6.494-0.088,9.766c0.2,3.696,0.99,7.396,0.841,11.069c-0.491,12.127-1.939,24.256-1.658,36.354
		c0.116,5.01,0.915,9.769-0.372,14.85c-0.783,3.091,0.774,6.699,0.526,10.019c-0.341,4.572-1.349,9.099-2.173,13.628
		c-0.228,1.251-0.97,2.406-1.214,3.656c-0.928,4.765-1.74,9.551-2.612,14.325c-0.864,4.737-1.792,9.462-2.612,14.203
		c-2.098,12.135-8.912,20.861-20.448,24.567c-11.566,3.716-21.26,3.908-30.804-8.894c-3.958-5.309-7.995-10.56-11.82-15.963
		c-0.9-1.268-0.785-3.237-1.648-4.551c-4.944-7.534-2.909-16.21-4.092-24.338c-1.281-8.786-2.205-17.636-2.902-26.489
		c-0.464-5.902-0.247-11.858-0.354-17.792c-0.191-10.48-0.375-20.963-0.604-31.443c-0.12-5.561-0.222-11.122-0.523-16.674
		c-0.379-6.965-1.135-13.91-1.396-20.877c-0.329-8.814-0.262-17.642-0.499-26.461c-0.069-2.617-0.76-5.216-0.86-7.835
		c-0.344-9.065-0.584-18.136-0.787-27.207c-0.047-2.092,0.278-4.19,0.309-6.288c0.222-15.162,0.343-30.327,0.685-45.487
		c0.055-2.42,1.322-4.794,1.563-7.234c0.365-3.693,0.317-7.426,0.451-11.142c0.029-0.818-0.129-1.721,0.157-2.443
		c3.462-8.737,6.373-17.769,10.706-26.057c3.217-6.156,8.664-10.147,16.385-11.342c6.686-1.036,12.957-0.253,18.879,1.828
		c4.164,1.463,8.251,4.628,11.082,8.089c5.435,6.645,10.175,13.899,14.782,21.167c3.592,5.667,7.04,11.535,9.59,17.711
		c1.438,3.485,0.809,7.791,1.325,11.698c0.904,6.852,2.104,13.665,2.912,20.527c0.35,2.964-0.149,6.019,0.057,9.01
		c0.316,4.602,0.598,9.243,1.452,13.762c1.447,7.662-0.137,15.057-1.392,22.485c-1.065,6.312-3.481,7.383-9.368,4.516
		c-6.982-3.401-6.685-3.326-4.821-10.705c0.859-3.401,0.679-7.202,0.303-10.752c-1.062-10.017-2.473-19.999-3.741-29.995
		c-0.956-7.536-1.13-15.28-3.083-22.548c-1.763-6.563-5.01-12.871-8.449-18.8c-3.196-5.511-7.242-10.607-11.436-15.431
		c-2.332-2.682-5.495-5-8.751-6.362c-1.55-0.647-4.36,1.039-6.305,2.173c-2.983,1.738-4.776,4.251-6.631,7.518
		c-4.526,7.97-4.606,16.469-5.717,24.928c-1.428,10.872-3.447,21.743-3.698,32.65c-0.086,3.719,2.42,7.683,1.983,12.237
		c-0.938,9.78-1.378,19.65-1.251,29.473c0.086,6.68,1.611,13.332,2.217,20.021c0.217,2.39-0.15,4.899-0.639,7.274
		C280.299,161.087,279.02,166.831,285.31,170.629"/>
	<path clip-path="url(#SVGID_2_)" fill="#FFFFFF" d="M1308.439,243.218c4.824-4.931,9.699-8.1,16.308-6
		c8.201,2.604,3.499,10.957,6.428,14.676c-3.161,5.078-6.047,9.618-8.837,14.215c-4.885,8.051-13.651,11.893-22.831,9.742
		c-11.042-2.588-19.99-8.144-27.397-17.075c-4.616-5.566-6.738-11.2-6.812-18.081c-0.011-1.104-0.64-2.213-1.036-3.301
		c-4.003-11.017-5.432-22.37-4.385-34.028c0.453-5.024-2.384-7.674-7.364-7.312c-4.617,0.335-9.28-0.035-13.915,0.15
		c-3.586,0.146-7.154,0.689-10.735,1.011c-0.893,0.078-1.923,0.259-2.681-0.078c-7.263-3.228-8.311-2.777-9.881,4.491
		c1.042,0.369,2.086,0.739,3.075,1.09c-0.017,0.566,0.079,1.117-0.051,1.179c-2.71,1.265-3.122,3.356-2.604,6.095
		c1.44,7.587,3.027,15.169,3.948,22.828c0.616,5.11,0.181,10.346,0.231,15.527c0.037,3.891,0.231,7.786,0.113,11.672
		c-0.145,4.734-0.438,9.473-0.871,14.19c-0.32,3.488-2.121,5.514-5.969,4.901c-0.819-0.131-1.659-0.138-2.489-0.199
		c-9.364-0.681-12.579-4.39-11.77-13.403c0.489-5.46,1.333-10.95,1.142-16.396c-0.528-15.116-1.757-30.207-2.201-45.324
		c-0.178-6.055,0.636-12.202,1.578-18.215c2.724-17.381,0.961-34.714,0.064-52.083c-0.474-9.185-0.092-18.413-0.49-27.603
		c-0.299-6.905-1.042-13.806-1.933-20.664c-0.593-4.562,2.313-10.186,6.871-11.05c12.019-2.278,24.061-5.513,36.173-5.894
		c9.875-0.312,20.265,0.804,29.456,6.284c4.492,2.678,9.518,5.33,14.567,5.999c6.819,0.903,11.515,5.035,16.646,8.427
		c9.369,6.19,15.705,15.262,20.968,24.996c1.275,2.356,1.605,5.369,1.828,8.124c0.789,9.731,1.584,19.477,1.811,29.23
		c0.057,2.361-2.042,4.782-3.181,7.16c-2.639,5.508-4.627,11.482-8.106,16.396c-5.07,7.16-12.557,11.565-20.942,14.268
		c-4.025,1.297-8.457,1.949-11.915,4.14c-1.85,1.173-3.178,5.223-2.711,7.568c0.955,4.8,1.15,9.562,1.675,14.324
		c1.146,10.385,4.32,20.564,6.967,30.749c0.393,1.503,2.29,2.784,3.749,3.798c2.026,1.412,4.237,2.598,6.479,3.649
		c2.081,0.976,5.229,2.967,6.294,2.218c3.389-2.389,6.352-5.695,4.944-10.652C1308.469,244.332,1308.488,243.652,1308.439,243.218
		 M1218.601,176.053c5.284,0.383,9.808,0.604,14.305,1.069c3.584,0.372,7.174,1.68,10.694,1.466
		c11.396-0.693,22.863-1.278,34.091-3.17c5.479-0.921,11.656-3.514,15.404-7.392c4.41-4.564,7.852-10.331,9.619-17.243
		c3.43-13.408,2.669-25.708-6.431-36.284c-5.979-6.948-12.56-13.396-22.382-15.664c-7.105-1.64-13.991-4.729-20.588-7.966
		c-9.67-4.746-19.574-4.217-29.57-2.389c-7.826,1.431-7.784,1.723-7.985,10.079c-0.071,2.995-0.234,6.001-0.069,8.987
		c1.067,19.363,2.263,38.721,3.288,58.086C1219.16,169.068,1218.744,172.533,1218.601,176.053"/>
	<path clip-path="url(#SVGID_2_)" fill="#FFFFFF" d="M617.417,320.345c-5.402,3.45-11.253,3.293-15.603-0.41
		c-2.936-2.5-4.12-7.375-5.385-11.409c-0.796-2.538-0.307-5.483-0.371-8.248c-0.037-1.606-0.509-3.413,0.049-4.791
		c2.125-5.243,0.04-10.17-0.539-15.253c-0.568-4.984-0.751-10.042-0.713-15.063c0.051-6.608,0.833-13.223,0.665-19.817
		c-0.224-8.861-1.302-17.701-1.52-26.561c-0.106-4.287,1.056-8.591,1.391-12.905c0.496-6.362,0.79-12.739,1.11-19.113
		c0.074-1.49,0.253-3.109-0.213-4.465c-1.808-5.271-0.845-10.34-0.172-15.696c0.582-4.63-1.298-9.538-1.868-14.349
		c-1.021-8.599-1.94-17.21-2.779-25.829c-0.929-9.535-1.578-19.098-2.613-28.619c-1.258-11.568-3.085-23.08-4.064-34.666
		c-0.405-4.794,0.496-9.766,1.353-14.558c0.25-1.398,2.344-2.524,3.692-3.656c6.217-5.23,12.239-4.187,19.334-0.902
		c10.575,4.897,20,11.69,27.022,20.24c4.501,5.479,11.19,10.626,11.954,19.173c0.38,4.251,2.921,8.263,3.916,12.515
		c2.394,10.226,5.5,20.439,6.386,30.823c1.164,13.653-0.594,27.247-3.241,40.879c-1.782,9.177-7.135,16.755-8.455,26.048
		c-1.104,7.757-4.187,15.448-7.598,22.595c-2.882,6.035-7.493,11.244-11.663,17.289c5.665,6.029,11.303,13.564,18.438,19.209
		c7.829,6.189,10.992,15.124,16.478,22.646c4.051,5.556,6.149,12.68,11.974,16.72c1.237,2.087,2.635,4.1,3.658,6.287
		c0.723,1.546,1.208,3.312,1.317,5.011c0.157,2.43-0.125,4.888-0.24,7.836c-2.365,0.537-5.25,1.44-8.203,1.818
		c-10.305,1.315-10.35-2.695-14.278-9.504c-4.954-8.584-9.294-17.62-15.109-25.577c-6.36-8.703-14.036-16.456-21.307-24.471
		c-1.201-1.321-3.265-1.859-4.93-2.76c-0.443,1.666-1.335,3.354-1.255,4.995c0.643,13.287,0.696,26.674,2.556,39.8
		c0.962,6.793,1.994,13.098-0.079,19.745C616.082,316.727,617.053,318.54,617.417,320.345 M613.783,215.004
		c0.94,0.16,1.881,0.32,2.82,0.481c2.452-5.208,4.98-10.382,7.314-15.643c0.799-1.803,0.905-3.909,1.68-5.728
		c5.245-12.285,9.758-24.783,11.707-38.082c0.711-4.859,2.256-9.719,2.142-14.55c-0.191-8.073-0.896-16.216-2.339-24.157
		c-1.484-8.17-4.379-16.073-6.144-24.204c-1.295-5.968-3.907-10.668-9.261-13.747c-0.497-0.285-0.82-1.021-1.039-1.616
		c-2.99-8.134-10.457-10.974-17.559-15.962c0.14,6.435-0.168,11.59,0.444,16.633c1.463,12.064,3.739,24.04,4.929,36.127
		c0.659,6.677-0.739,13.545-0.249,20.257c0.523,7.159,1.305,14.524,3.539,21.282c3.555,10.751,1.636,21.261,1.081,31.996
		C612.388,197.024,613.415,206.03,613.783,215.004"/>
	<path clip-path="url(#SVGID_2_)" fill="#FFFFFF" d="M2132.683,204.78c2.204,7.632,4.475,15.247,6.594,22.903
		c2.771,10.006,5.362,20.059,8.147,30.061c1.755,6.309,2.38,13.516,5.979,18.558c3.4,4.762,1.739,8.935,2.171,13.33
		c0.565,5.749-3.567,9.901-10.7,11.474c-2.674,0.589-8.55-3.13-9.617-6.7c-2.162-7.226-3.871-14.586-5.869-21.864
		c-1.166-4.25-2.656-8.413-3.762-12.677c-1.203-4.643-1.867-9.437-3.253-14.017c-1.332-4.404-3.51-8.549-4.907-12.938
		c-1.59-4.983-2.975-10.064-3.955-15.199c-0.513-2.673-1.056-4.299-4.176-4.317c-9.556-0.061-19.11-0.302-29.884-0.494
		c0.503,5.263,1.327,9.599,1.22,13.912c-0.121,4.845-1.082,9.669-1.686,14.501c-0.119,0.962-0.407,1.922-0.385,2.878
		c0.115,4.832,0.213,9.669,0.509,14.492c0.135,2.198,0.759,4.361,1.069,6.556c0.176,1.251,0.321,2.542,0.217,3.793
		c-0.62,7.412,1.59,15.588-6.257,20.976c-4.562,3.132-11.2,1.568-13.603-3.575c-2.854-6.114-3.639-11.934-2.703-19.116
		c1.805-13.861,1.649-28.087,1.084-42.114c-0.535-13.301-0.992-26.432,1.43-39.638c1.144-6.24,0.804-12.774,0.901-19.177
		c0.117-7.767-0.209-15.542,0.007-23.303c0.369-13.292,0.939-26.579,1.577-39.861c0.228-4.745,1.328-9.037,4.148-13.343
		c3.891-5.941,9.969-5.054,15.161-6.605c10.445-3.122,21.253-4.905,32.173-4.246c4.785,0.288,9.93,1.458,14.101,3.72
		c9.527,5.17,19.444,10.233,27.558,17.242c9.814,8.479,17.85,19.072,17.475,33.272c-0.125,4.743-1.319,9.504-2.425,14.163
		c-2.046,8.634-4.335,17.211-6.653,25.777c-0.375,1.383-1.187,2.821-2.198,3.831c-6.935,6.934-14.006,13.729-20.967,20.637
		c-2.322,2.306-4.449,4.808-6.665,7.22C2133.92,204.852,2133.301,204.816,2132.683,204.78 M2137.365,175.426
		c4.516-4.357,7.719-9.26,8.84-15.623c1.444-8.2,3.766-16.256,5.006-24.481c1.025-6.802-4.017-11.13-7.806-16.01
		c-6.228-8.02-15.021-12.741-23.548-16.966c-9.096-4.507-19.725-3.701-29.668-1.358c-7.954,1.875-10.409,4.806-10.38,10.373
		c0.021,3.867,0.127,7.734,0.223,11.6c0.28,11.358,1.093,22.733,0.711,34.068c-0.34,10.099,1.96,20.221-0.547,30.326
		c-0.651,2.626,0.487,5.09,4.312,5.208c7.039,0.216,14.075,1.367,21.09,1.197c4.724-0.114,10.178-0.646,13.94-3.088
		C2126.039,186.45,2131.479,180.596,2137.365,175.426"/>
	<path clip-path="url(#SVGID_2_)" fill="#FFFFFF" d="M27.084,260.482c0.364,6.038,0.705,10.732,0.912,15.434
		c0.159,3.604,0.048,7.22,0.238,10.82c0.35,6.584-0.484,13.098,1.768,19.749c1.961,5.795,2.46,12.392,2.031,18.525
		c-0.154,2.203-4.663,5.16-7.618,5.813c-2.965,0.655-6.736-0.6-9.64-2.048c-1.754-0.876-3.087-3.57-3.632-5.698
		c-1.176-4.587-1.722-9.337-2.621-14.584c5.446-2.017,1.361-7.454,1.417-11.136c0.172-11.241-1.268-22.5-1.849-33.764
		c-0.433-8.358-0.449-16.737-0.755-25.104c-0.227-6.193-0.543-12.385-0.959-18.568c-0.585-8.68-1.409-17.345-1.909-26.029
		c-0.213-3.711,0.571-7.506,0.142-11.175c-1.319-11.285-3.204-22.504-4.45-33.796c-0.484-4.393,0.295-8.913,0.241-13.372
		c-0.072-5.899-0.974-11.712,0.494-17.683c1.538-6.255,6.772-9.539,13.094-8.373c6.266,1.158,12.749,1.245,19.15,1.466
		c1.167,0.041,2.39-1.518,3.791-2.478c2.927,3.432,6.338,4.505,10.877,3.097c1.794-0.556,4.259,0.855,6.366,1.536
		c8.221,2.654,17.61,3.685,24.362,8.445c11.684,8.236,23.677,17.263,26.592,33.013c0.03,0.164,0.009,0.369,0.101,0.485
		c7.739,9.811,0.039,20.452,1.742,30.412c1.017,5.951-3.335,8.779-4.343,13.074c-2.934,12.512-12.808,19.062-21.063,27.081
		c-2.359,2.291-4.749,4.768-7.587,6.305c-6.606,3.576-13.518,6.584-20.254,9.927c-2.847,1.412-5.565,3.085-9.46,5.267
		c9.11,8.946,17.413,16.936,25.523,25.115c6.363,6.417,12.486,13.074,18.721,19.619c5.76,6.046,11.075,12.626,17.441,17.948
		c4.722,3.946,3.9,8.392,2.64,12.51c-0.877,2.865-4.094,5.173-6.618,7.311c-1.374,1.165-3.467,1.918-5.273,1.997
		c-1.376,0.061-3.068-0.964-4.144-2.002c-0.974-0.938-0.945-3.106-1.976-3.767c-6.69-4.279-9.349-11.984-14.741-17.133
		c-5.664-5.408-10.248-11.564-15.369-17.337c-7.488-8.441-16.038-15.95-24.258-23.728C33.764,265.343,30.909,263.462,27.084,260.482
		 M65.335,213.307c1.58-1.361,4.615-4.186,7.866-6.731c5.737-4.497,10.615-9.374,11.307-17.255c0.304-3.46,0.804-7.172,2.336-10.202
		c3.905-7.719,1.131-15.412-1.336-21.99c-4.102-10.935-14.314-17.699-24.384-22.029c-11.889-5.112-25.196-6.272-38.389-5.892
		c-3.274,0.095-4.032,1.659-3.962,4.31c0.158,5.861,0.218,11.732,0.626,17.578c0.379,5.416,0.124,11.192,1.979,16.122
		c3.707,9.854,3.298,20.055,3.017,29.969c-0.283,9.943-0.219,19.719,1.672,29.414c0.537,2.746,2.93,5.319,6.384,3.296
		c3.36-1.968,8.463-1.162,10.013-6.178c0.142-0.461,1.472-0.799,2.242-0.782C52.351,223.09,57.992,218.711,65.335,213.307"/>
	<path clip-path="url(#SVGID_2_)" fill="#FFFFFF" d="M444.622,274.09c-0.857,6.065-0.247,11.901-2.607,16.046
		c-3.48,6.11-2.101,12.167-2.719,18.272c-0.811,8.021-6.639,12.159-14.344,10.377c-5.355-1.239-9.042-6.535-6.615-11.248
		c3.219-6.247,2.444-13.062,4.323-19.428c1.396-4.728,2.46-9.56,3.519-14.38c0.913-4.153,0.002-6.664-4.982-7.804
		c-5.245-1.2-10.302-3.661-15.103-6.207c-4.29-2.277-6.682-6.666-5.379-11.276c0.61-2.158,4.404-4.598,6.906-4.773
		c3.948-0.277,8.055,1.107,12.033,2.054c2.957,0.704,5.815,1.825,9.679,3.07c1.91-12.76,3.665-24.485,5.413-36.212
		c0.097-0.654,0.049-1.336,0.191-1.979c3.156-14.331,6.606-28.604,9.38-43.008c1.361-7.069,1.114-14.436,2.268-21.559
		c0.88-5.426,3.266-10.606,4.155-16.031c0.756-4.622,0.662-9.46,0.338-14.161c-0.308-4.486-1.399-8.916-2.148-13.386
		c2.329-1.227,5.404-2.956,8.574-4.489c4.013-1.942,12.039,1.511,14.632,6.668c2.79,5.548,5.156,11.319,7.538,17.063
		c3.151,7.602,6.605,15.125,9.042,22.958c1.896,6.092,2.454,12.604,3.563,18.936c0.254,1.449,0.061,3.02,0.527,4.38
		c4.086,11.933,8.781,23.682,12.289,35.777c3.505,12.089,5.939,24.495,8.66,36.802c1.028,4.648,2.614,6.123,7.19,4.469
		c6.739-2.435,13.279-5.423,20.212-8.303c2.01,1.703,4.678,3.485,6.741,5.806c4.38,4.931,1.721,14.261-4.462,16.892
		c-5.383,2.289-10.761,4.631-15.918,7.37c-1.026,0.546-1.835,3.279-1.393,4.525c3.157,8.904,7.396,17.488,9.808,26.568
		c1.677,6.312,5.996,12.846,1.849,19.875c-2.93,4.965-9.164,6.741-13.587,2.9c-4.59-3.986-8.74-7.708-9.391-15.506
		c-0.83-9.939-5.256-19.725-9.038-29.217c-2.026-5.084-7.225-1.998-10.09-0.767c-7.552,3.242-14.843,2.979-22.51,1.156
		c-2.459-0.586-5.214,0.189-7.757-0.179c-3.672-0.528-7.243-1.839-10.919-2.241C451.277,273.552,447.976,273.995,444.622,274.09
		 M466.431,144.408c-0.431,0.038-0.861,0.075-1.292,0.113c-0.885,5.325-1.845,10.639-2.636,15.978
		c-1.053,7.115-1.822,14.274-2.994,21.37c-1.581,9.565-3.421,19.091-5.166,28.63c-0.785,4.296-1.667,8.575-2.403,12.88
		c-1.419,8.289-3.071,16.559-3.901,24.91c-0.178,1.795,2.402,4.333,4.302,5.714c1.45,1.054,3.823,0.988,5.808,1.134
		c11.942,0.884,23.844,4.25,35.844-0.403c3.63-1.406,4.198-3.342,3.36-6.317c-1.95-6.934-4.064-13.821-6.198-20.7
		c-0.965-3.109-2.265-6.115-3.192-9.233c-1.845-6.203-3.452-12.479-5.327-18.675c-0.899-2.972-2.508-5.748-3.241-8.749
		c-3.36-13.749-6.45-27.564-9.838-41.305C469.083,147.833,467.5,146.183,466.431,144.408"/>
	<path clip-path="url(#SVGID_2_)" fill="#FFFFFF" d="M1953.226,63.147c-3.621,1.688-7.125,4.444-10.862,4.813
		c-6.297,0.623-12.754-0.624-19.125-0.452c-12.17,0.329-24.322,1.292-36.491,1.629c-8.692,0.24-17.402-0.136-26.104-0.183
		c-2.793-0.015-5.587,0.2-8.381,0.213c-5.896,0.026-11.797,0.076-17.69-0.06c-2.74-0.064-3.8,0.889-3.934,3.724
		c-0.457,9.697-1.345,19.376-1.728,29.076c-0.337,8.515-0.122,17.053-0.337,25.576c-0.134,5.257-0.601,10.505-0.949,15.756
		c-0.594,8.949-1.666,17.894-1.724,26.846c-0.099,15.125,0.502,30.253,0.654,45.381c0.03,3.042,1.086,3.492,3.934,3.259
		c7.055-0.578,14.17-0.45,21.221-1.056c6.6-0.564,13.187-2.564,19.709-2.285c4.14,0.178,8.826,2.612,12,5.45
		c2.43,2.172-2.314,11.414-5.421,13.875c-4.565,3.618-9.492,1.225-14.203,1.658c-9.848,0.908-19.76,1.146-29.603,2.102
		c-3.142,0.306-6.189,1.905-9.183,3.146c-0.721,0.299-1.438,1.5-1.505,2.337c-0.373,4.74,0.168,9.673-0.954,14.205
		c-1.771,7.161,1.034,15.398-5.293,21.556c-2.849,2.775-5.989,4.019-9.384,2.567c-3.854-1.648-7.889-3.503-7.832-9.082
		c0.058-5.614-0.996-11.259-0.715-16.848c0.216-4.333,1.423-8.7,2.742-12.879c3.966-12.573,2.744-25.647,3.668-38.47
		c0.884-12.291-0.073-24.713-0.201-37.079c-0.015-1.325,0.057-2.654,0.166-3.975c0.759-9.267,1.862-18.52,2.208-27.801
		c0.258-6.972-0.791-13.988-0.615-20.969c0.137-5.383,1.489-10.722,1.917-16.112c0.782-9.81,1.355-19.638,1.754-29.469
		c0.033-0.827-1.802-2.285-2.953-2.508c-4.379-0.849-8.84-1.262-13.257-1.929c-7.808-1.18-10.352-4.377-9.572-11.893
		c0.5-4.822,5.718-8.324,11.964-7.766c12.615,1.125,25.207,2.536,37.833,3.495c3.553,0.27,7.195-0.966,10.788-0.916
		c14.22,0.198,28.441,1.045,42.648,0.804c7.191-0.121,14.318-2.389,21.533-3.079c10.046-0.961,20.234-2.746,29.951,2.055
		c0.939,0.464,2.303,0.413,3.383,0.189c6.675-1.378,11.108,2.812,9.854,9.198C1952.769,59.124,1953.174,61.153,1953.226,63.147"/>
	<path clip-path="url(#SVGID_2_)" fill="#FFFFFF" d="M848.699,176.835c-4.635,2.412-0.768,7.39-1.036,11.203
		c-0.419,5.921,0.04,11.302-4.328,16.427c-2.518,2.954-2.31,8.071-4.283,11.694c-2.207,4.052-5.494,7.516-8.311,11.237
		c-1.033,1.363-2.086,2.714-3.096,4.096c-0.564,0.772-0.944,1.713-1.606,2.379c-1.86,1.868-4.373,3.312-5.649,5.497
		c-5.003,8.57-14.026,9.721-22.136,12.607c-6.448,2.294-12.822,4.856-19.389,6.735c-8.32,2.382-16.719,4.72-25.241,6.102
		c-8.295,1.344-16.782,1.641-25.201,1.989c-2.332,0.098-4.795-1.08-7.066-1.999c-1.816-0.734-3.407-2.01-5.141-2.968
		c-3.319-1.832-5.396-3.927-5.673-8.362c-0.2-3.18-3.088-6.19-5.091-9.851c5.828-2.794,5.204-8.746,4.584-13.668
		c-1.154-9.16,1.105-17.921,1.521-26.87c0.443-9.502,1.303-19.014,1.148-28.508c-0.126-7.714-1.8-15.391-2.196-23.115
		c-0.341-6.65-0.326-13.406,0.528-19.985c0.312-2.407,3.638-4.337,5.318-6.678c1.881-2.621,3.632-3.412,7.316-3.14
		c8.459,0.624,17.029-0.498,25.547-0.373c9.841,0.144,19.731,0.375,29.499,1.467c11.268,1.261,22.342,3.749,32.623,8.958
		c2.476,1.255,5.743,1.298,7.805,2.949c4.673,3.737,8.298,8.982,13.303,12.065c8.443,5.198,8.329,14.231,11.641,21.763
		C845.336,171.328,847.084,173.947,848.699,176.835 M727.242,142.23c0.768,6.834,2.157,13.368,2.104,19.891
		c-0.132,16.841,2.464,33.629,0.048,50.554c-1.248,8.74-0.61,17.797-0.228,26.686c0.091,2.127,2.167,5.368,4.018,5.966
		c3.659,1.179,7.949,1.7,11.708,1.015c9.369-1.705,18.642-4.029,27.847-6.502c7.526-2.021,14.96-4.438,22.306-7.045
		c2.784-0.988,5.365-2.783,7.764-4.576c8.418-6.289,14.859-14.293,18.735-24.036c2.218-5.573,3.679-11.501,4.892-17.391
		c0.374-1.812-1.778-4.026-1.787-6.059c-0.05-11.844-6.126-20.022-15.489-26.26c-1.77-1.179-3.892-1.817-5.814-2.779
		c-12.727-6.367-26.051-10.348-40.419-10.173c-8.821,0.108-17.641,0.225-26.46,0.37C733.706,141.937,730.948,142.091,727.242,142.23
		"/>
	<path clip-path="url(#SVGID_2_)" fill="#FFFFFF" d="M2431.974,31.579c-2.429,1.118-4.78,2.47-7.301,3.312
		c-8.453,2.822-16.933,5.575-25.476,8.108c-2.803,0.83-5.903,0.649-8.707,1.472c-1.053,0.307-2.34,2.149-2.35,3.301
		c-0.079,8.929,0.126,17.86,0.252,26.789c0.012,0.828-0.146,1.755,0.165,2.464c3.062,6.971,0.627,14.117,0.79,21.176
		c0.118,5.098,0.647,10.195,0.555,15.284c-0.057,3.016-1.182,5.997-1.439,9.027c-0.51,6.003-1.004,12.027-1.035,18.045
		c-0.028,5.539,0.972,11.097,0.752,16.617c-0.193,4.848-1.972,9.637-2.137,14.484c-0.469,13.804,0.475,27.725-0.977,41.405
		c-1.041,9.813-0.141,19.39,1.098,28.791c0.804,6.104-1.078,13.329,4.158,18.641c0.469,0.476,0.713,1.764,0.41,2.316
		c-2.412,4.407-4.092,9.923-7.796,12.684c-2.816,2.099-8.558,1.611-12.438,0.435c-2.283-0.693-4.609-4.85-4.942-7.68
		c-0.978-8.326-0.885-16.773-1.376-25.163c-0.469-8.026-1.316-16.031-1.657-24.062c-0.171-4.036,0.474-8.102,0.65-12.16
		c0.532-12.22,1.071-24.439,1.505-36.664c0.454-12.8,0.262-25.558,2.472-38.34c1.464-8.463,0.038-17.404,0.158-26.128
		c0.071-5.234,0.728-10.458,0.918-15.693c0.075-2.08-0.681-4.196-0.565-6.269c0.41-7.427,2.441-14.755,0.035-22.314
		c-0.759-2.387,0.649-5.429,0.925-8.186c0.569-5.714-0.742-6.957-6.324-7.568c-11.121-1.218-21.164-5.937-31.177-10.471
		c-4.899-2.217-10.477-4.474-13.781-8.377c-8.563-10.117-12.838-11.686-0.264-26.855c3.215,2.407,6.691,4.617,9.703,7.342
		c7.605,6.879,16.894,10.698,26.086,14.654c1.973,0.849,4.504,0.352,6.765,0.593c1.093,0.116,2.485,0.161,3.182,0.825
		c4.755,4.528,10.272,3.692,15.879,2.56c6.785-1.373,13.931-1.84,20.267-4.347c8.34-3.3,16.849-6.853,23.179-13.813
		c4.05-4.453,14.927-5.341,19.828-1.836c3.681,2.632,1.837,6.168,1.213,9.122c-1.193,5.645-3.356,10.961-8.336,14.61
		c-0.836,0.613-1.173,1.906-1.74,2.885C2432.724,32.257,2432.349,31.918,2431.974,31.579"/>
	<path clip-path="url(#SVGID_2_)" fill="#FFFFFF" d="M1055.696,222.631c0.805,6.968,1.814,13.92,2.357,20.907
		c0.546,7.028,0.023,14.184,1.086,21.111c1.045,6.815-0.822,13.026-1.872,19.469c-0.319,1.958-0.283,3.979-0.363,5.972
		c-0.033,0.812,0.423,1.923,0.039,2.402c-6.01,7.519-4.215,17.353-7.693,25.559c-1.936,4.565-4.542,8.859-7.008,13.184
		c-2.061,3.615-4.063,7.332-6.656,10.544c-1.572,1.947-4.256,2.974-6.381,4.497c-4.34,3.11-14.376,0.556-16.603-4.265
		c-1.164-2.521,2.795-10.69,5.85-13.388c2.077-1.833,3.475-4.442,5.137-6.734c2.409-3.327,4.82-6.655,7.15-10.038
		c0.891-1.293,1.932-2.655,2.268-4.129c1.955-8.564,4.412-17.095,5.359-25.782c0.976-8.951,1.182-18.139,0.344-27.093
		c-1.09-11.641-2.809-23.339-5.698-34.646c-1.613-6.314-6.295-11.809-9.32-17.811c-3.445-6.835-6.263-14.001-9.945-20.698
		c-4.211-7.659-9.71-14.652-13.485-22.496c-4.239-8.81-7.366-18.181-10.607-27.438c-1.911-5.46-3.191-11.149-4.576-16.78
		c-0.473-1.924-0.404-3.981-0.576-5.978c-0.069-0.798,0.123-1.724-0.217-2.377c-5.509-10.608-2.337-21.514-1.485-32.427
		c0.411-5.243,0.511-10.358,2.191-15.469c2.614-7.955,4.334-16.203,6.94-24.161c2.65-8.087,6.887-15.39,11.906-22.337
		c4.949-6.853,14.439-7.567,18.49-0.78c0.585,0.981,0.955,2.659,0.516,3.582c-1.912,4.035-2.425,8.906-6.941,11.498
		c-1.031,0.592-1.439,2.438-1.926,3.782c-3.771,10.413-8.944,20.589-10.842,31.339c-2.119,12.003-4.288,24.475-0.837,36.867
		c0.784,2.817,0.202,6.017,0.996,8.83c0.988,3.504,2.823,6.761,4.161,10.175c1.635,4.172,2.833,8.541,4.75,12.572
		c4.094,8.614,8.472,17.096,12.838,25.578c7.032,13.665,14.393,27.168,21.128,40.977c3.625,7.432,6.265,15.347,9.261,23.079
		c0.333,0.86,0.084,1.946,0.105,2.926C1055.59,222.648,1055.643,222.639,1055.696,222.631"/>
	<path clip-path="url(#SVGID_2_)" fill="#FFFFFF" d="M1483.802,272.693c6.682-1.096,12.639-2.051,18.587-3.056
		c3.708-0.627,7.391-1.421,11.107-1.977c5.419-0.812,10.138-2.919,14.13-6.748c0.702-0.674,2.426-1.239,3.09-0.85
		c6.674,3.913,15.117,5.683,18.1,14.817c-5.335,6.845-13.528,9.048-21.496,11.105c-7.521,1.939-15.326,2.788-23.011,4.094
		c-10.604,1.801-21.192,3.724-31.832,5.298c-4.07,0.601-9.939-6.402-9.873-10.748c0.101-6.688-0.327-13.388-0.163-20.074
		c0.193-7.95,0.855-15.89,1.169-23.84c0.306-7.794,0.412-15.597,0.649-23.395c0.04-1.316,0.3-2.627,0.476-3.939
		c1.008-7.553,2.386-15.082,2.924-22.668c0.479-6.756-0.228-13.589,0.052-20.369c0.351-8.473,1.87-16.947,1.635-25.385
		c-0.417-14.976,2.5-29.668,2.833-44.554c0.12-5.408,0.945-10.826,0.723-16.209c-0.233-5.574-1.842-11.104-1.942-16.668
		c-0.11-6.156,0.807-12.33,1.278-18.496c0.324-4.25,0.652-8.5,0.962-12.527c2.043-1.263,4.077-2.52,6.356-3.931
		c12.611,5.056,10.792,8.973,10.31,20.93c-0.213,5.266,0.291,10.56,0.131,15.832c-0.297,9.778-0.98,19.545-1.23,29.324
		c-0.146,5.725,0.479,11.471,0.324,17.196c-0.257,9.489-1.112,18.966-1.253,28.455c-0.137,9.223,0.771,18.473,0.386,27.676
		c-0.48,11.506-1.827,22.976-2.768,34.463c-0.545,6.665-1.116,13.329-1.506,20.003c-0.478,8.162-1.023,16.332-1.078,24.502
		C1482.823,257.863,1483.436,264.774,1483.802,272.693"/>
	<path clip-path="url(#SVGID_2_)" fill="#FFFFFF" d="M1621.706,231.036c-2.855-2.89-5.698-5.792-8.568-8.667
		c-2.003-2.006-2.94-3.796-0.364-6.316c0.948-0.931,1.121-3.249,0.8-4.755c-0.584-2.733-1.476-5.525-2.877-7.92
		c-0.88-1.504-2.772-2.881-4.476-3.348c-4.928-1.354-9.978-2.281-15.001-3.261c-5.843-1.142-7.262,1.243-9.927,6.643
		c-4.199,8.511-5.186,19.618-16.279,23.521c-3.627,1.275-7.385,3.472-10.566-0.179c-3.122-3.58-3.912-8.078-2.176-12.595
		c1.111-2.889,3.031-5.458,4.237-8.32c4.99-11.84,9.869-23.727,14.745-35.615c3.733-9.103,4.997-18.892,9.232-28.03
		c5.441-11.743,8.508-24.605,12.361-37.058c1.512-4.883,6.52-7.564,11.268-5.533c1.211,0.518,2.577,0.669,3.806,1.153
		c3.146,1.237,5.743,2.668,6.382,6.727c0.612,3.884,2.604,7.528,3.59,11.379c2.912,11.363,5.482,22.815,8.475,34.157
		c1.801,6.833,4.443,13.448,6.158,20.299c2.233,8.925,4.117,17.951,5.71,27.011c0.393,2.241-1.459,4.815-1.312,7.175
		c0.176,2.821,1.397,5.574,2.155,8.36c1.14,4.181,2.57,8.312,3.327,12.562c0.89,5.001-3.435,5.968-6.736,7.469
		c-1.758,0.8-3.68,1.23-5.508,1.887C1626.176,239.208,1623.835,237.625,1621.706,231.036 M1595.638,175.639
		c5.373,0.808,10.17,1.527,15.923,2.393c-2.998-10.293-5.604-19.234-8.207-28.174c-0.809,0.052-1.616,0.104-2.427,0.157
		C1599.213,158.32,1597.498,166.624,1595.638,175.639"/>
	<path clip-path="url(#SVGID_2_)" fill="#FFFFFF" d="M2293.594,207.434c-2.578,4.456-4.37,9.71-7.906,13.193
		c-6.455,6.362-14.806,4.679-22.94,3.439c-5.007-0.762-10.188-0.467-15.289-0.403c-0.772,0.01-1.938,1.215-2.228,2.096
		c-2.654,8.084-0.09,15.872,1.959,23.565c0.258,0.97,3.768,1.602,5.727,1.503c7.395-0.379,14.775-1.07,22.152-1.748
		c7.972-0.731,15.922-1.752,23.907-2.236c1.625-0.098,4.158,1.209,4.908,2.603c3.288,6.112-2.576,16.42-9.252,18.53
		c-10.117,3.197-20.126-0.443-30.154,0.522c-5.897,0.569-11.821,0.951-17.743,1.14c-4.232,0.135-8.556,0.264-12.703-0.423
		c-5.895-0.973-9.008-6.712-8.996-13.713c0.02-12.163-0.443-24.325-0.635-36.488c-0.144-8.979-0.214-17.959-0.248-26.939
		c-0.029-7.578-0.16-15.163,0.125-22.732c0.254-6.744,0.989-13.472,1.58-20.201c0.069-0.786,0.354-1.966,0.9-2.236
		c6.16-3.049,6.339-10.541,10.891-14.493c1.646-1.429,5.354-0.836,8.069-0.588c2.937,0.269,5.792,1.307,8.715,1.828
		c1.591,0.283,3.273,0.034,4.873,0.29c9.22,1.474,18.403,3.181,27.646,4.489c4.583,0.648,9.3,0.338,13.89,0.954
		c4.745,0.637,9.174,5.253,8.823,8.849c-0.662,6.799-4.057,10.348-10.967,11.253c-8.73,1.142-17.2-1.32-25.746-2.83
		c-5.621-0.994-11.426-0.995-17.156-1.298c-3.318-0.176-6.65-0.068-10.45-0.089c-0.17,3.386-0.418,7.556-0.581,11.728
		c-0.329,8.43-0.272,16.893-1.025,25.282c-0.584,6.485,1.193,9.735,7.595,10.303c13.562,1.204,27.145,2.177,40.719,3.246
		C2292.566,206.365,2293.08,206.9,2293.594,207.434"/>
	<path clip-path="url(#SVGID_2_)" fill="#FFFFFF" d="M1998.086,162.354c3.798,6.316,6.764,11.273,9.753,16.217
		c2.702,4.47,6.346,8.638,7.869,13.476c1.34,4.258,0.854,9.33,0.24,13.917c-1.615,12.018-4.75,23.716-11.475,33.944
		c-2.993,4.554-6.88,8.873-11.253,12.087c-6.265,4.604-13.77,5.937-21.667,5.205c-7.62-0.707-15.282-1.016-22.935-1.309
		c-10.456-0.4-20.734-8.384-24.651-20.537c-3.44-10.682-4.86-21.836-1.482-32.824c2.956-9.614,7.044-18.724,13.722-26.609
		c3.708-4.379,7.927-7.382,13.188-9.265c0.679-0.243,1.142-1.062,1.729-1.584c2.07-1.836,4.149-3.659,6.227-5.486
		c1.535-1.348,2.982-2.822,4.644-3.995c1.166-0.823,2.582-1.602,3.959-1.756c3.565-0.397,7.17-0.521,10.763-0.598
		c4.105-0.089,8.047-0.024,11.617,2.889C1991.637,158.824,1995.551,160.771,1998.086,162.354 M1967.89,177.438
		c-2.219,0.191-4.884-0.389-6.206,0.687c-4.346,3.531-8.374,7.505-12.181,11.626c-1.927,2.088-3.906,4.688-4.481,7.354
		c-1.435,6.653-2.193,13.465-3.006,20.239c-0.602,5.022,4.06,16.37,7.501,17.254c9.512,2.443,18.936,6.192,28.987,1.239
		c6.516-3.211,10.17-8.497,12.658-14.74c1.641-4.116,2.628-8.572,3.302-12.971c0.456-2.974,0.855-6.645-0.45-9.077
		c-4.318-8.049-9.487-15.639-14.201-23.482c-2.97-4.943-6.391-1.875-9.621-0.65C1969.25,175.273,1968.661,176.556,1967.89,177.438"
		/>
	<path clip-path="url(#SVGID_2_)" fill="#FFFFFF" d="M171.118,263.672c5.735-1.844,10.462-3.405,15.224-4.852
		c0.888-0.269,1.922-0.118,2.886-0.075c6.937,0.306,13.871,0.67,20.81,0.911c1.098,0.039,2.669-0.068,3.239-0.757
		c2.046-2.474,3.858-1.736,6.07-0.327c2.642,1.685,6.14,2.507,8.03,4.747c1.842,2.185,2.121,5.687,3.375,9.481
		c-0.864,0.533-2.187,1.787-3.74,2.228c-5.802,1.649-11.621,3.422-17.557,4.323c-2.419,0.366-5.112-1.701-7.764-2.083
		c-3.237-0.466-6.578-0.565-9.845-0.366c-2.604,0.159-5.191,0.907-7.739,1.573c-2.305,0.603-5.561-1.122-6.739,2.633
		c-0.063,0.2-1.854,0.048-2.747-0.237c-3.939-1.259-7.411-1.104-10.774,1.871c-0.79,0.7-4.252,0.03-4.83-0.968
		c-2.361-4.083-5.294-8.408-5.768-12.882c-0.818-7.706,0.176-15.59,0.14-23.399c-0.019-4.443-0.571-8.886-1.621-13.301
		c2.265-2.855,0.584-5.63,0.004-9.102c-1.858-11.129-2.342-22.484-3.468-33.741c-0.373-3.718-0.968-7.424-1.671-11.095
		c-0.979-5.11-2.161-10.184-3.239-15.274c-0.102-0.483-0.278-1.102-0.078-1.472c2.626-4.844,5.137-9.768,8.11-14.393
		c0.745-1.158,3.004-1.797,4.607-1.879c12.373-0.634,24.759-1.018,37.135-1.599c5.44-0.255,10.868-1.063,16.301-1.057
		c2.12,0.003,4.549,1.162,6.262,2.521c1.499,1.189,3.416,4.579,3.045,4.963c-2.634,2.72,0.683,7.914-5.159,9.636
		c-8.133,2.399-16.056,1.431-24.129,1.228c-4.9-0.123-9.813,0.199-14.72,0.373c-2.612,0.094-5.221,0.425-7.832,0.423
		c-3.873-0.003-6.07,2.069-5.576,5.827c1.333,10.129,2.732,20.25,4.227,30.355c0.437,2.962,1.988,4.875,5.46,4.246
		c8.269-1.498,16.638-2.562,24.8-4.505c6.726-1.603,16.923,3.464,16.83,10.187c-0.043,3.057-3.911,7.446-7.062,8.729
		c-4.101,1.669-9.249,0.586-13.887,1.163c-6.191,0.771-12.352,1.874-18.463,3.139c-1.218,0.253-3.084,1.893-3.075,2.875
		C170.317,236.504,170.731,249.263,171.118,263.672"/>
	<path clip-path="url(#SVGID_2_)" fill="#FFFFFF" d="M1137.863,169.856c0.623-6.224,1.267-12.445,1.855-18.673
		c0.156-1.639,0.382-3.327,0.154-4.933c-0.5-3.51,0.183-8.065-5.912-7.366c-0.58,0.067-2.378-2.884-2.024-3.466
		c3.108-5.093,6.295-10.197,10.061-14.804c1.803-2.207,4.555-4.378,8.089-1.701c3.008,2.278,6.346,4.122,9.539,6.158
		c-0.55,0.435-1.099,0.871-1.648,1.307c0.299,1.997,0.61,3.991,0.888,5.99c0.108,0.774,0.41,1.658,0.165,2.324
		c-1.978,5.385-0.588,10.458,1.212,15.529c0.202,0.57,0.298,1.37,0.054,1.874c-3.906,8.051-3.629,16.379-3.299,25.17
		c0.385,10.239-1.415,20.62-2.884,30.852c-1.037,7.225-3.904,13.846-8.932,19.489c-8.867,9.953-20.169,13.395-32.99,12.812
		c-2.39-0.108-4.949-1.047-7.043-2.267c-8.14-4.741-16.764-9.317-20.399-18.679c-1.542-3.97-3.619-8.106-2.24-13.097
		c0.736-2.659-1.241-5.974-1.575-9.039c-1.259-11.553-2.429-23.118-3.463-34.694c-0.464-5.215,0.561-10.835-1.057-15.605
		c-1.952-5.758-0.625-10.542,1.096-15.634c1.01-2.986,7.653-6.223,11.122-5.517c4.389,0.894,5.692,3.647,5.918,8.822
		c0.56,12.787,0.593,25.734,2.796,38.272c1.861,10.59,4.751,20.869,4.285,31.825c-0.142,3.329,0.948,7.392,5.627,8.898
		c2.554,0.822,3.787,3.748,7.065,4.74c6.521,1.975,11.139,2.01,15.38-3.255c4.833-5.998,7.581-12.791,6.551-20.908
		c-0.41-3.219,0.848-6.633,1.211-9.972c0.403-3.715,0.815-7.441,0.867-11.169c0.015-1.116-1.161-2.25-1.792-3.376
		C1136.979,169.794,1137.422,169.826,1137.863,169.856"/>
	<path clip-path="url(#SVGID_2_)" fill="#FFFFFF" d="M2330.545,76.047c-4.166,3.702-7.969,7.235-11.969,10.528
		c-1.016,0.837-2.862,1.571-3.984,1.229c-6.333-1.93-13.57-1.575-18.502-7.243c-1.279-1.471-3.17-2.403-4.749-3.62
		c-6.348-4.894-12.683-9.803-19.614-15.166c-1.882,1.679-4.598,3.82-6.979,6.283c-9.181,9.489-20.46,15.531-32.707,19.881
		c-2.719,0.965-5.937,1.337-8.778,0.94c-3.669-0.515-8.748-0.277-8.896-5.867c-0.212-8.021,2.204-10.697,8.897-11.733
		c8.235-1.272,14.229-6.658,20.268-11.749c5.017-4.229,9.768-8.78,14.548-13.283c2.736-2.576,6.072-4.929,7.758-8.112
		c2.733-5.165,7.52-6.237,12.159-7.443c1.995-0.52,5.769,0.276,6.552,1.685c2.048,3.69,5.777,6.363,5.986,11.441
		c0.113,2.739,3.229,5.496,5.301,7.986c6.002,7.219,13.865,11.609,22.753,14.248c3.163,0.939,5.654,2.16,6.943,5.672
		C2326.141,73.388,2328.537,74.397,2330.545,76.047"/>
</g>
</svg>
