<?xml version="1.0" encoding="utf-8"?>
<!-- Generator: Adobe Illustrator 16.0.4, SVG Export Plug-In . SVG Version: 6.00 Build 0)  -->
<!DOCTYPE svg PUBLIC "-//W3C//DTD SVG 1.1//EN" "http://www.w3.org/Graphics/SVG/1.1/DTD/svg11.dtd">
<svg version="1.1" id="Layer_1" xmlns="http://www.w3.org/2000/svg" xmlns:xlink="http://www.w3.org/1999/xlink" x="0px" y="0px"
	 width="117.086px" height="94.339px" viewBox="0 0 117.086 94.339" enable-background="new 0 0 117.086 94.339"
	 xml:space="preserve">
<g>
	<defs>
		<rect id="SVGID_1_" width="117.086" height="94.339"/>
	</defs>
	<clipPath id="SVGID_2_">
		<use xlink:href="#SVGID_1_"  overflow="visible"/>
	</clipPath>
	
		<path clip-path="url(#SVGID_2_)" fill="none" stroke="#FFFFFF" stroke-linecap="round" stroke-linejoin="round" stroke-miterlimit="10" d="
		M47.082,0.502C34.436,0.377,21.799,4.971,12.185,13.186C5.749,18.685,0.46,26.361,0.5,34.825
		c0.025,5.326,2.192,10.508,5.461,14.713s7.591,7.497,12.204,10.16c18.075,10.436,41.4,11.153,60.083,1.847
		c6.605-3.291,12.874-8.036,15.916-14.76c3.928-8.682,1.562-19.407-4.521-26.741C83.561,12.708,74.308,8.505,64.896,7.007
		c-9.41-1.499-19.041-0.517-28.44,1.058"/>
	
		<path clip-path="url(#SVGID_2_)" fill="none" stroke="#FFFFFF" stroke-linecap="round" stroke-linejoin="round" stroke-miterlimit="10" d="
		M58.235,56.425c3.101,7.123,16.413,40.875,58.351,37.125"/>
	
		<path clip-path="url(#SVGID_2_)" fill="none" stroke="#FFFFFF" stroke-linecap="round" stroke-linejoin="round" stroke-miterlimit="10" d="
		M15.572,21.51c1.412,8.16,3.278,17.62,4.689,25.78"/>
	
		<path clip-path="url(#SVGID_2_)" fill="none" stroke="#FFFFFF" stroke-linecap="round" stroke-linejoin="round" stroke-miterlimit="10" d="
		M12.802,24.674c1.267-1.714,2.64-3.511,4.626-4.282c1.987-0.77,4.823-0.298,5.255,2.083c0.807,4.445-4.604,5.858-5.591,6.496
		c2.59-1.368,12.013-4.833,17.618,2.683c2.032,2.727,2.694,6.605,1.142,9.631c-0.937,1.827-2.601,3.209-4.446,4.111
		c-1.846,0.901-7.013,1.894-11.145,1.894"/>
	
		<path clip-path="url(#SVGID_2_)" fill="none" stroke="#FFFFFF" stroke-linecap="round" stroke-linejoin="round" stroke-miterlimit="10" d="
		M39.41,33.804c-0.285-2.959-0.57-5.918-0.854-8.877c1.061-0.581,2.021-0.822,3.23-0.785c0.988,0.03,2.075,0.354,2.563,1.214
		c0.577,1.015,0.037,2.369-0.885,3.084c-0.923,0.715-3.119,0.949-4.266,1.161"/>
	
		<path clip-path="url(#SVGID_2_)" fill="none" stroke="#FFFFFF" stroke-linecap="round" stroke-linejoin="round" stroke-miterlimit="10" d="
		M42.578,29.179c1.208,1.833,2.417,3.667,3.625,5.5"/>
	
		<path clip-path="url(#SVGID_2_)" fill="none" stroke="#FFFFFF" stroke-linecap="round" stroke-linejoin="round" stroke-miterlimit="10" d="
		M48.85,41.339c1.036-7.09,2.288-14.148,3.754-21.162c1.877,7.153,3.754,14.305,5.631,21.458"/>
	
		<path clip-path="url(#SVGID_2_)" fill="none" stroke="#FFFFFF" stroke-linecap="round" stroke-linejoin="round" stroke-miterlimit="10" d="
		M45.31,37.241c5.104,1.998,11.129,1.464,15.802-1.399"/>
	
		<path clip-path="url(#SVGID_2_)" fill="none" stroke="#FFFFFF" stroke-linecap="round" stroke-linejoin="round" stroke-miterlimit="10" d="
		M63.389,26.269c0.96,5.709,1.921,11.418,2.882,17.127c1.294-5.419,2.309-10.904,3.042-16.427c0.066-0.508,0.131-1.036-0.026-1.524
		c-0.155-0.488-0.596-0.925-1.107-0.903c-0.698,0.029-1.106,0.932-0.841,1.578c0.267,0.646,0.974,1.01,1.663,1.117
		c1.362,0.213,2.75-0.377,3.804-1.265c1.053-0.889,1.827-2.055,2.588-3.204"/>
	
		<path clip-path="url(#SVGID_2_)" fill="none" stroke="#FFFFFF" stroke-linecap="round" stroke-linejoin="round" stroke-miterlimit="10" d="
		M74.832,33.591c-0.576,1.833,0.251,4.023,1.923,4.969c1.671,0.947,4.014,0.503,5.181-1.022c0.608-0.795,0.893-1.805,0.923-2.805
		c0.034-1.133-0.27-2.314-1.032-3.154C79.683,29.216,75.693,30.847,74.832,33.591z"/>
</g>
</svg>
