<?xml version="1.0" encoding="utf-8"?>
<!-- Generator: Adobe Illustrator 16.0.4, SVG Export Plug-In . SVG Version: 6.00 Build 0)  -->
<!DOCTYPE svg PUBLIC "-//W3C//DTD SVG 1.1//EN" "http://www.w3.org/Graphics/SVG/1.1/DTD/svg11.dtd">
<svg version="1.1" id="Layer_1" xmlns="http://www.w3.org/2000/svg" xmlns:xlink="http://www.w3.org/1999/xlink" x="0px" y="0px"
	 width="117.086px" height="94.339px" viewBox="0 0 117.086 94.339" enable-background="new 0 0 117.086 94.339"
	 xml:space="preserve">
<g>
	<defs>
		<rect id="SVGID_1_" width="117.086" height="94.339"/>
	</defs>
	<clipPath id="SVGID_2_">
		<use xlink:href="#SVGID_1_"  overflow="visible"/>
	</clipPath>
	
		<path clip-path="url(#SVGID_2_)" fill="none" stroke="#FFFFFF" stroke-linecap="round" stroke-linejoin="round" stroke-miterlimit="10" d="
		M47.082,0.502C34.436,0.377,21.799,4.971,12.185,13.186C5.749,18.685,0.46,26.361,0.5,34.825
		c0.025,5.326,2.192,10.508,5.461,14.713s7.591,7.497,12.204,10.16c18.075,10.436,41.4,11.153,60.083,1.847
		c6.605-3.291,12.874-8.036,15.916-14.76c3.928-8.682,1.562-19.407-4.521-26.741C83.561,12.708,74.308,8.505,64.896,7.007
		c-9.41-1.499-19.041-0.517-28.44,1.058"/>
	
		<path clip-path="url(#SVGID_2_)" fill="none" stroke="#FFFFFF" stroke-linecap="round" stroke-linejoin="round" stroke-miterlimit="10" d="
		M58.235,56.425c3.101,7.123,16.413,40.875,58.351,37.125"/>
	
		<path clip-path="url(#SVGID_2_)" fill="none" stroke="#FFFFFF" stroke-linecap="round" stroke-linejoin="round" stroke-miterlimit="10" d="
		M10.827,28.796c-0.656,1.59-0.667,3.389-0.331,5.076c0.23,1.15,0.626,2.286,1.319,3.233c0.692,0.947,1.706,1.692,2.86,1.901
		c1.442,0.261,2.956-0.355,3.989-1.394c1.033-1.039,1.624-2.453,1.895-3.892c0.351-1.865,0.176-3.877-0.776-5.519
		C17.508,24.282,12.548,24.625,10.827,28.796z"/>
	
		<path clip-path="url(#SVGID_2_)" fill="none" stroke="#FFFFFF" stroke-linecap="round" stroke-linejoin="round" stroke-miterlimit="10" d="
		M23.668,37.905l0.376-14.41c1.411,4.462,2.626,8.985,3.64,13.553c-0.703-4.851-0.939-9.77-0.703-14.666"/>
	
		<path clip-path="url(#SVGID_2_)" fill="none" stroke="#FFFFFF" stroke-linecap="round" stroke-linejoin="round" stroke-miterlimit="10" d="
		M35.459,24.073c-0.111,3.723-0.223,7.445-0.333,11.167c1.512-0.128,3.025-0.257,4.539-0.386"/>
	
		<path clip-path="url(#SVGID_2_)" fill="none" stroke="#FFFFFF" stroke-linecap="round" stroke-linejoin="round" stroke-miterlimit="10" d="
		M41.623,40.669c1.469-5.393,2.618-10.873,3.44-16.401c0.552,5.355,1.497,10.671,2.825,15.889"/>
	
		<path clip-path="url(#SVGID_2_)" fill="none" stroke="#FFFFFF" stroke-linecap="round" stroke-linejoin="round" stroke-miterlimit="10" d="
		M39.68,30.423c2.692,1.283,5.847,1.569,8.725,0.789"/>
	
		<path clip-path="url(#SVGID_2_)" fill="none" stroke="#FFFFFF" stroke-linecap="round" stroke-linejoin="round" stroke-miterlimit="10" d="
		M52.688,25.945c-1.605,1.102-2.616,3.021-2.616,4.967c0,1.947,1.01,3.866,2.615,4.968"/>
	
		<path clip-path="url(#SVGID_2_)" fill="none" stroke="#FFFFFF" stroke-linecap="round" stroke-linejoin="round" stroke-miterlimit="10" d="
		M55.054,21.269c0.08,6.303,0.16,12.607,0.239,18.91"/>
	
		<path clip-path="url(#SVGID_2_)" fill="none" stroke="#FFFFFF" stroke-linecap="round" stroke-linejoin="round" stroke-miterlimit="10" d="
		M59.912,20.531c0.207,6.549,0.414,13.098,0.621,19.647"/>
	
		<path clip-path="url(#SVGID_2_)" fill="none" stroke="#FFFFFF" stroke-linecap="round" stroke-linejoin="round" stroke-miterlimit="10" d="
		M65.383,33.531c-0.633,0.193-1.265,0.386-1.896,0.579c-0.206-2.508-0.412-5.015-0.617-7.522c0.887-0.394,1.479-0.938,2.365-1.332"
		/>
	
		<path clip-path="url(#SVGID_2_)" fill="none" stroke="#FFFFFF" stroke-linecap="round" stroke-linejoin="round" stroke-miterlimit="10" d="
		M54.898,27.491c1.722-0.499,3.443-0.998,5.165-1.496"/>
	
		<path clip-path="url(#SVGID_2_)" fill="none" stroke="#FFFFFF" stroke-linecap="round" stroke-linejoin="round" stroke-miterlimit="10" d="
		M63.314,29.985c0.492-0.148,0.985-0.295,1.477-0.443"/>
	
		<path clip-path="url(#SVGID_2_)" fill="none" stroke="#FFFFFF" stroke-linecap="round" stroke-linejoin="round" stroke-miterlimit="10" d="
		M71.908,41.979c-0.154-6.106-0.083-12.218,0.214-18.319c1.183-0.891,2.97-0.575,4.069,0.415c1.102,0.99,1.562,2.551,1.495,4.03
		c-0.062,1.412-0.586,2.828-1.583,3.83c-0.998,1.001-2.492,1.534-3.873,1.231"/>
	
		<path clip-path="url(#SVGID_2_)" fill="none" stroke="#FFFFFF" stroke-linecap="round" stroke-linejoin="round" stroke-miterlimit="10" d="
		M76.265,40.618c0.916-2.34,1.832-4.679,2.747-7.019c0.421,2.39,1.005,4.75,1.746,7.061"/>
	
		<path clip-path="url(#SVGID_2_)" fill="none" stroke="#FFFFFF" stroke-linecap="round" stroke-linejoin="round" stroke-miterlimit="10" d="
		M84.645,29.158c-1.232,0.184-2.006,1.548-1.959,2.792c0.047,1.246,0.701,2.377,1.369,3.429c0.668,1.051,1.384,2.124,1.584,3.354
		c0.318,1.96-0.922,4.059-2.792,4.727"/>
	
		<line clip-path="url(#SVGID_2_)" fill="none" stroke="#FFFFFF" stroke-linecap="round" stroke-linejoin="round" stroke-miterlimit="10" x1="77.239" y1="38.397" x2="79.603" y2="38.701"/>
	
		<path clip-path="url(#SVGID_2_)" fill="none" stroke="#FFFFFF" stroke-linecap="round" stroke-linejoin="round" stroke-miterlimit="10" d="
		M43.086,19.465c0.403-1.046,0.806-2.093,1.208-3.14c0.633,0.849,1.127,1.801,1.459,2.807"/>
</g>
</svg>
