<?xml version="1.0" encoding="utf-8"?>
<!-- Generator: Adobe Illustrator 16.0.4, SVG Export Plug-In . SVG Version: 6.00 Build 0)  -->
<!DOCTYPE svg PUBLIC "-//W3C//DTD SVG 1.1//EN" "http://www.w3.org/Graphics/SVG/1.1/DTD/svg11.dtd">
<svg version="1.1" id="Layer_1" xmlns="http://www.w3.org/2000/svg" xmlns:xlink="http://www.w3.org/1999/xlink" x="0px" y="0px"
	 width="500px" height="280.357px" viewBox="0 109.821 500 280.357" enable-background="new 0 109.821 500 280.357"
	 xml:space="preserve">
<path opacity="0.7" enable-background="new    " d="M0,109.821v280.357h500V109.821H0z M250,356.607
	c-55.607,0-100.714-45.107-100.714-100.715c0-55.607,45.107-100.714,100.714-100.714c55.607,0,100.714,45.107,100.714,100.714
	C350.714,311.5,305.607,356.607,250,356.607z"/>
<path fill="#FFFFFF" d="M250,359.821h-0.071v-0.356H250c0.214,0,0.429,0,0.643,0v0.356C250.429,359.821,250.214,359.821,250,359.821
	z M248.143,359.821c-0.25,0-0.464,0-0.714,0v-0.356c0.25,0,0.464,0,0.714,0V359.821z M252.429,359.785v-0.356
	c0.25,0,0.464,0,0.714-0.036v0.357C252.929,359.785,252.679,359.785,252.429,359.785z M245.643,359.75
	c-0.25,0-0.464-0.035-0.714-0.035v-0.357c0.25,0,0.464,0.035,0.714,0.035V359.75z M254.965,359.715v-0.357
	c0.25,0,0.464-0.036,0.714-0.036l0.036,0.357C255.429,359.679,255.179,359.679,254.965,359.715z M243.143,359.607
	c-0.25,0-0.464-0.036-0.714-0.036l0.036-0.356c0.25,0,0.464,0.035,0.714,0.035L243.143,359.607z M257.465,359.571l-0.036-0.356
	c0.25,0,0.464-0.036,0.714-0.036l0.036,0.356C257.929,359.535,257.679,359.535,257.465,359.571z M240.643,359.393
	c-0.25-0.035-0.464-0.035-0.714-0.071l0.036-0.356c0.25,0.035,0.464,0.035,0.714,0.07L240.643,359.393z M259.965,359.357
	L259.929,359c0.25-0.035,0.464-0.035,0.714-0.071l0.036,0.356C260.429,359.321,260.179,359.321,259.965,359.357z M238.143,359.143
	c-0.25-0.035-0.464-0.071-0.714-0.071l0.036-0.356c0.25,0.035,0.464,0.07,0.714,0.07L238.143,359.143z M262.429,359.071
	l-0.036-0.356c0.25-0.036,0.465-0.072,0.715-0.072l0.035,0.357C262.929,359.035,262.679,359.071,262.429,359.071z M235.679,358.857
	c-0.25-0.036-0.464-0.072-0.714-0.107l0.036-0.357c0.25,0.036,0.464,0.072,0.714,0.107L235.679,358.857z M264.929,358.75
	l-0.036-0.357c0.25-0.035,0.465-0.071,0.715-0.107l0.035,0.357C265.393,358.679,265.143,358.715,264.929,358.75z M233.179,358.465
	c-0.25-0.036-0.464-0.072-0.714-0.107l0.071-0.357c0.25,0.035,0.464,0.071,0.714,0.107L233.179,358.465z M267.393,358.357
	L267.321,358c0.25-0.035,0.464-0.071,0.714-0.107l0.072,0.357C267.857,358.285,267.643,358.321,267.393,358.357z M230.714,358.035
	c-0.25-0.035-0.464-0.07-0.714-0.143l0.071-0.357c0.25,0.036,0.464,0.107,0.714,0.144L230.714,358.035z M269.857,357.929
	l-0.072-0.357c0.25-0.036,0.465-0.106,0.715-0.143l0.071,0.356C270.321,357.821,270.107,357.893,269.857,357.929z M228.25,357.535
	c-0.25-0.035-0.464-0.106-0.714-0.143l0.071-0.357c0.25,0.036,0.464,0.107,0.714,0.144L228.25,357.535z M272.321,357.429
	l-0.071-0.357c0.25-0.036,0.465-0.106,0.715-0.143l0.07,0.356C272.785,357.321,272.535,357.357,272.321,357.429z M225.821,357
	c-0.25-0.071-0.464-0.107-0.714-0.179l0.072-0.356c0.214,0.07,0.464,0.106,0.678,0.178L225.821,357z M274.75,356.857l-0.071-0.357
	c0.214-0.071,0.464-0.107,0.679-0.179l0.071,0.357C275.215,356.75,275,356.785,274.75,356.857z M223.393,356.393
	c-0.214-0.071-0.464-0.107-0.679-0.178l0.107-0.357c0.214,0.071,0.464,0.107,0.679,0.178L223.393,356.393z M277.179,356.25
	l-0.107-0.357c0.214-0.071,0.464-0.107,0.679-0.178l0.107,0.356C277.643,356.107,277.429,356.179,277.179,356.25z M220.964,355.715
	c-0.214-0.072-0.464-0.144-0.679-0.215l0.107-0.357c0.214,0.072,0.464,0.143,0.678,0.215L220.964,355.715z M279.607,355.535
	l-0.107-0.356c0.215-0.071,0.465-0.144,0.679-0.214l0.106,0.356C280.071,355.429,279.821,355.5,279.607,355.535z M218.571,355
	c-0.214-0.071-0.464-0.143-0.678-0.215l0.107-0.356c0.214,0.071,0.464,0.143,0.679,0.214L218.571,355z M282,354.821l-0.107-0.356
	c0.215-0.072,0.465-0.144,0.679-0.215l0.107,0.321C282.465,354.679,282.215,354.75,282,354.821z M216.179,354.215
	c-0.214-0.072-0.464-0.144-0.679-0.25l0.107-0.322c0.214,0.072,0.464,0.143,0.679,0.25L216.179,354.215z M284.357,354l-0.107-0.321
	c0.215-0.071,0.465-0.144,0.679-0.25l0.106,0.321C284.821,353.857,284.607,353.929,284.357,354z M213.821,353.357
	c-0.214-0.072-0.464-0.179-0.678-0.25l0.143-0.322c0.214,0.072,0.464,0.18,0.679,0.25L213.821,353.357z M286.715,353.143
	l-0.144-0.321c0.214-0.071,0.429-0.179,0.679-0.25l0.143,0.321C287.179,353,286.965,353.071,286.715,353.143z M211.464,352.465
	c-0.214-0.072-0.429-0.18-0.679-0.286l0.143-0.321c0.214,0.107,0.428,0.178,0.678,0.25L211.464,352.465z M289.071,352.25
	l-0.143-0.321c0.214-0.071,0.429-0.179,0.643-0.286l0.144,0.322C289.5,352.071,289.285,352.143,289.071,352.25z M209.143,351.5
	c-0.214-0.107-0.429-0.179-0.643-0.285l0.143-0.322c0.214,0.107,0.428,0.179,0.643,0.286L209.143,351.5z M291.357,351.285
	l-0.143-0.32c0.214-0.107,0.428-0.18,0.643-0.286L292,351C291.785,351.107,291.571,351.179,291.357,351.285z M206.857,350.5
	c-0.214-0.107-0.428-0.215-0.643-0.285l0.143-0.322c0.214,0.107,0.429,0.215,0.643,0.286L206.857,350.5z M293.643,350.25
	l-0.143-0.321c0.215-0.107,0.429-0.214,0.643-0.286l0.143,0.322C294.071,350.071,293.857,350.143,293.643,350.25z M204.571,349.429
	c-0.214-0.107-0.428-0.214-0.643-0.321l0.143-0.322c0.214,0.107,0.429,0.215,0.643,0.322L204.571,349.429z M295.893,349.179
	l-0.143-0.321c0.215-0.107,0.429-0.215,0.643-0.322l0.143,0.322C296.321,348.965,296.107,349.071,295.893,349.179z M202.321,348.285
	c-0.214-0.106-0.428-0.214-0.643-0.32l0.178-0.322c0.214,0.107,0.429,0.215,0.643,0.322L202.321,348.285z M298.107,348.071
	l-0.179-0.321c0.214-0.107,0.429-0.215,0.643-0.321l0.179,0.321C298.535,347.821,298.321,347.929,298.107,348.071z M200.107,347.107
	c-0.214-0.107-0.428-0.215-0.643-0.357l0.179-0.321c0.214,0.106,0.428,0.214,0.643,0.356L200.107,347.107z M300.321,346.857
	l-0.179-0.322c0.215-0.106,0.429-0.214,0.607-0.356l0.179,0.321C300.75,346.643,300.535,346.75,300.321,346.857z M197.929,345.893
	c-0.214-0.107-0.429-0.25-0.607-0.357l0.179-0.32c0.214,0.106,0.429,0.25,0.607,0.356L197.929,345.893z M302.5,345.643l-0.179-0.321
	c0.214-0.106,0.394-0.25,0.607-0.356l0.179,0.32C302.893,345.393,302.715,345.5,302.5,345.643z M195.75,344.607
	c-0.214-0.107-0.393-0.25-0.607-0.393l0.178-0.286c0.214,0.143,0.393,0.25,0.607,0.356L195.75,344.607z M304.643,344.357
	l-0.178-0.322c0.214-0.106,0.393-0.25,0.606-0.393l0.179,0.286C305.035,344.107,304.857,344.215,304.643,344.357z M193.643,343.25
	c-0.214-0.143-0.393-0.25-0.607-0.393l0.179-0.286c0.214,0.144,0.393,0.25,0.607,0.394L193.643,343.25z M306.75,343l-0.179-0.285
	c0.215-0.144,0.393-0.25,0.607-0.394l0.214,0.286C307.143,342.75,306.964,342.893,306.75,343z M191.536,341.857
	c-0.214-0.143-0.393-0.286-0.607-0.393l0.214-0.286c0.178,0.143,0.393,0.286,0.607,0.393L191.536,341.857z M308.821,341.607
	l-0.214-0.286c0.179-0.143,0.393-0.286,0.571-0.393l0.214,0.286C309.214,341.357,309.036,341.5,308.821,341.607z M189.5,340.429
	c-0.179-0.144-0.393-0.286-0.571-0.429l0.214-0.285c0.178,0.143,0.393,0.285,0.571,0.428L189.5,340.429z M310.893,340.179
	l-0.214-0.286c0.179-0.143,0.393-0.285,0.571-0.428l0.214,0.285C311.25,339.893,311.071,340.035,310.893,340.179z M187.464,338.965
	c-0.179-0.144-0.393-0.286-0.571-0.43l0.214-0.285c0.179,0.143,0.393,0.285,0.572,0.429L187.464,338.965z M312.893,338.679
	l-0.214-0.286c0.179-0.143,0.393-0.285,0.571-0.428l0.214,0.285C313.25,338.393,313.071,338.535,312.893,338.679z M185.464,337.429
	c-0.179-0.144-0.357-0.286-0.571-0.429l0.214-0.285c0.179,0.143,0.357,0.285,0.572,0.428L185.464,337.429z M314.857,337.143
	l-0.215-0.285c0.179-0.143,0.357-0.286,0.571-0.429l0.215,0.286C315.25,336.857,315.036,337,314.857,337.143z M183.536,335.857
	c-0.179-0.143-0.357-0.322-0.536-0.465l0.214-0.285c0.179,0.143,0.357,0.321,0.536,0.464L183.536,335.857z M316.786,335.571
	l-0.215-0.286c0.179-0.143,0.357-0.32,0.536-0.464l0.214,0.286C317.179,335.25,317,335.429,316.786,335.571z M181.607,334.215
	c-0.178-0.144-0.357-0.322-0.536-0.465l0.25-0.285c0.179,0.143,0.357,0.32,0.536,0.464L181.607,334.215z M318.714,333.929
	l-0.25-0.286c0.179-0.143,0.357-0.321,0.536-0.464l0.25,0.25C319.071,333.607,318.893,333.785,318.714,333.929z M179.75,332.535
	c-0.179-0.178-0.357-0.32-0.536-0.5l0.25-0.25c0.179,0.18,0.357,0.322,0.536,0.5L179.75,332.535z M320.571,332.25l-0.25-0.25
	c0.179-0.179,0.357-0.321,0.536-0.5l0.25,0.25C320.929,331.929,320.75,332.107,320.571,332.25z M177.929,330.821
	c-0.179-0.179-0.357-0.321-0.5-0.5l0.25-0.25c0.178,0.179,0.357,0.321,0.5,0.5L177.929,330.821z M322.393,330.535l-0.25-0.25
	c0.179-0.178,0.357-0.32,0.5-0.5l0.25,0.25C322.714,330.215,322.571,330.393,322.393,330.535z M176.143,329.071
	c-0.179-0.179-0.322-0.356-0.5-0.5l0.25-0.25c0.178,0.179,0.321,0.321,0.5,0.5L176.143,329.071z M324.179,328.785l-0.25-0.25
	c0.179-0.178,0.321-0.356,0.5-0.5l0.25,0.25C324.5,328.429,324.321,328.607,324.179,328.785z M174.393,327.285
	c-0.179-0.178-0.322-0.356-0.5-0.535l0.25-0.25c0.178,0.179,0.321,0.357,0.5,0.535L174.393,327.285z M325.893,326.965l-0.25-0.25
	c0.179-0.18,0.321-0.357,0.5-0.536l0.25,0.25C326.214,326.607,326.071,326.785,325.893,326.965z M172.679,325.429
	c-0.143-0.179-0.322-0.357-0.464-0.536l0.25-0.25c0.143,0.179,0.321,0.357,0.464,0.536L172.679,325.429z M327.607,325.143
	l-0.25-0.25c0.143-0.178,0.321-0.357,0.464-0.535l0.286,0.25C327.929,324.785,327.75,324.965,327.607,325.143z M171.036,323.571
	c-0.143-0.179-0.321-0.356-0.464-0.536l0.286-0.214c0.143,0.179,0.322,0.357,0.464,0.536L171.036,323.571z M329.25,323.25
	l-0.286-0.215c0.144-0.178,0.322-0.356,0.465-0.535l0.285,0.215C329.536,322.857,329.393,323.071,329.25,323.25z M169.429,321.643
	c-0.143-0.178-0.286-0.357-0.464-0.571l0.286-0.214c0.143,0.178,0.286,0.357,0.464,0.535L169.429,321.643z M330.857,321.321
	l-0.286-0.214c0.143-0.179,0.286-0.357,0.465-0.572l0.285,0.215C331.143,320.929,331,321.143,330.857,321.321z M167.857,319.679
	c-0.143-0.179-0.286-0.394-0.428-0.571l0.286-0.215c0.143,0.179,0.286,0.393,0.429,0.572L167.857,319.679z M332.393,319.357
	l-0.285-0.215c0.143-0.178,0.285-0.393,0.429-0.571l0.285,0.214C332.679,318.965,332.536,319.143,332.393,319.357z M166.357,317.715
	c-0.143-0.18-0.286-0.394-0.428-0.572l0.286-0.214c0.143,0.179,0.286,0.393,0.429,0.571L166.357,317.715z M333.929,317.357
	l-0.286-0.215c0.144-0.178,0.286-0.393,0.429-0.571l0.286,0.214C334.214,316.965,334.071,317.143,333.929,317.357z M164.893,315.679
	c-0.143-0.179-0.286-0.394-0.393-0.571l0.286-0.215c0.143,0.179,0.286,0.393,0.393,0.572L164.893,315.679z M335.393,315.321
	l-0.285-0.214c0.143-0.179,0.285-0.393,0.393-0.572l0.286,0.215C335.643,314.929,335.5,315.107,335.393,315.321z M163.464,313.607
	c-0.143-0.215-0.25-0.393-0.393-0.607l0.286-0.215c0.143,0.215,0.25,0.394,0.393,0.607L163.464,313.607z M336.786,313.215L336.5,313
	c0.143-0.215,0.25-0.393,0.393-0.607l0.286,0.179C337.036,312.821,336.929,313.035,336.786,313.215z M162.107,311.535
	c-0.143-0.214-0.25-0.393-0.393-0.606L162,310.75c0.143,0.215,0.25,0.393,0.393,0.607L162.107,311.535z M338.143,311.107
	l-0.285-0.179c0.143-0.214,0.25-0.394,0.393-0.607l0.286,0.179C338.393,310.715,338.286,310.929,338.143,311.107z M160.786,309.393
	c-0.107-0.214-0.25-0.393-0.357-0.607l0.321-0.178c0.107,0.214,0.25,0.393,0.357,0.607L160.786,309.393z M339.464,309l-0.321-0.179
	c0.107-0.214,0.25-0.393,0.357-0.606l0.321,0.178C339.714,308.571,339.571,308.785,339.464,309z M159.5,307.25
	c-0.107-0.215-0.25-0.429-0.357-0.607l0.321-0.178c0.107,0.214,0.25,0.428,0.357,0.606L159.5,307.25z M340.714,306.821l-0.321-0.179
	c0.107-0.214,0.25-0.428,0.357-0.607l0.321,0.18C340.964,306.393,340.857,306.607,340.714,306.821z M158.286,305.035
	c-0.107-0.214-0.214-0.428-0.321-0.643l0.321-0.178c0.107,0.214,0.214,0.428,0.321,0.643L158.286,305.035z M341.929,304.607
	l-0.321-0.179c0.106-0.214,0.214-0.429,0.321-0.644l0.321,0.18C342.143,304.179,342.036,304.393,341.929,304.607z M157.143,302.821
	c-0.107-0.214-0.214-0.429-0.322-0.643l0.322-0.144c0.107,0.215,0.214,0.43,0.321,0.644L157.143,302.821z M343.071,302.393
	l-0.321-0.143c0.107-0.215,0.214-0.429,0.321-0.643l0.321,0.143C343.286,301.965,343.179,302.179,343.071,302.393z M156.036,300.607
	c-0.107-0.215-0.214-0.429-0.321-0.643l0.321-0.144c0.107,0.214,0.214,0.429,0.321,0.644L156.036,300.607z M344.179,300.107
	l-0.321-0.143c0.106-0.215,0.214-0.43,0.285-0.644l0.321,0.144C344.393,299.679,344.286,299.893,344.179,300.107z M155,298.321
	c-0.107-0.214-0.179-0.429-0.286-0.643l0.321-0.144c0.107,0.215,0.179,0.43,0.286,0.644L155,298.321z M345.25,297.821l-0.321-0.143
	c0.107-0.214,0.179-0.429,0.285-0.644l0.322,0.144C345.429,297.393,345.321,297.607,345.25,297.821z M154,296.035
	c-0.107-0.214-0.179-0.428-0.286-0.643l0.321-0.143c0.107,0.215,0.179,0.429,0.286,0.643L154,296.035z M346.214,295.535
	l-0.321-0.143c0.107-0.214,0.179-0.428,0.286-0.678l0.321,0.143C346.393,295.071,346.321,295.321,346.214,295.535z M153.036,293.715
	c-0.071-0.215-0.179-0.43-0.25-0.68l0.321-0.143c0.072,0.215,0.179,0.429,0.25,0.679L153.036,293.715z M347.143,293.179
	l-0.321-0.144c0.071-0.214,0.179-0.428,0.25-0.678l0.321,0.143C347.321,292.75,347.25,292.965,347.143,293.179z M152.179,291.393
	c-0.072-0.214-0.179-0.464-0.25-0.678l0.321-0.107c0.071,0.214,0.179,0.464,0.25,0.678L152.179,291.393z M348.036,290.821
	l-0.322-0.106c0.072-0.215,0.144-0.465,0.25-0.68l0.322,0.107C348.179,290.393,348.107,290.607,348.036,290.821z M151.321,289
	c-0.071-0.215-0.143-0.465-0.214-0.679l0.322-0.106c0.071,0.214,0.143,0.464,0.214,0.678L151.321,289z M348.857,288.465
	l-0.321-0.107c0.071-0.215,0.143-0.465,0.214-0.679l0.357,0.106C349,288,348.929,288.215,348.857,288.465z M150.571,286.643
	c-0.071-0.214-0.143-0.464-0.214-0.678l0.357-0.107c0.071,0.214,0.143,0.464,0.214,0.678L150.571,286.643z M349.607,286.071
	l-0.357-0.106c0.071-0.215,0.143-0.465,0.214-0.68l0.357,0.107C349.75,285.607,349.679,285.821,349.607,286.071z M149.857,284.215
	c-0.071-0.215-0.143-0.465-0.178-0.68l0.357-0.106c0.071,0.214,0.143,0.464,0.179,0.679L149.857,284.215z M350.321,283.643
	l-0.357-0.107c0.072-0.214,0.144-0.464,0.179-0.678l0.357,0.107C350.429,283.179,350.393,283.429,350.321,283.643z M149.179,281.821
	c-0.072-0.214-0.107-0.464-0.179-0.679l0.357-0.071c0.072,0.214,0.107,0.464,0.179,0.679L149.179,281.821z M350.964,281.215
	l-0.356-0.072c0.071-0.214,0.106-0.464,0.179-0.678l0.356,0.07C351.071,280.75,351,281,350.964,281.215z M148.607,279.393
	c-0.071-0.25-0.107-0.464-0.143-0.714l0.357-0.071c0.036,0.25,0.107,0.464,0.143,0.678L148.607,279.393z M351.536,278.785
	l-0.357-0.07c0.035-0.215,0.107-0.465,0.143-0.68l0.357,0.072C351.643,278.321,351.607,278.571,351.536,278.785z M148.071,276.929
	c-0.036-0.25-0.107-0.464-0.143-0.714l0.357-0.072c0.036,0.25,0.107,0.465,0.143,0.715L148.071,276.929z M352.071,276.357
	l-0.357-0.072c0.036-0.25,0.107-0.464,0.144-0.714l0.356,0.071C352.143,275.893,352.107,276.107,352.071,276.357z M147.571,274.465
	c-0.036-0.25-0.071-0.465-0.143-0.715l0.357-0.071c0.036,0.25,0.071,0.464,0.143,0.714L147.571,274.465z M352.536,273.893
	l-0.357-0.071c0.035-0.25,0.071-0.464,0.107-0.714l0.356,0.071C352.607,273.393,352.571,273.643,352.536,273.893z M147.143,272
	c-0.036-0.25-0.072-0.465-0.107-0.715l0.357-0.035c0.036,0.25,0.071,0.465,0.107,0.715L147.143,272z M352.929,271.393l-0.357-0.071
	c0.036-0.25,0.071-0.464,0.107-0.714l0.357,0.035C353,270.929,352.964,271.179,352.929,271.393z M146.786,269.535
	c-0.036-0.25-0.071-0.464-0.107-0.714l0.357-0.036c0.036,0.25,0.071,0.465,0.107,0.715L146.786,269.535z M353.286,268.929
	l-0.357-0.036c0.035-0.25,0.071-0.464,0.071-0.714l0.357,0.036C353.321,268.465,353.321,268.679,353.286,268.929z M146.5,267.035
	c-0.036-0.25-0.036-0.464-0.071-0.714l0.357-0.036c0.036,0.25,0.036,0.465,0.071,0.715L146.5,267.035z M353.571,266.429
	l-0.357-0.036c0.036-0.25,0.036-0.464,0.072-0.714l0.356,0.036C353.607,265.965,353.571,266.215,353.571,266.429z M146.25,264.535
	c-0.036-0.25-0.036-0.464-0.071-0.714l0.357-0.036c0.036,0.25,0.036,0.465,0.071,0.715L146.25,264.535z M353.786,263.929
	l-0.357-0.036c0.035-0.25,0.035-0.464,0.035-0.714l0.357,0.036C353.821,263.465,353.821,263.715,353.786,263.929z M146.071,262.035
	c0-0.25-0.036-0.464-0.036-0.714l0.357-0.036c0,0.25,0.036,0.465,0.036,0.715L146.071,262.035z M353.964,261.429l-0.356-0.036
	c0-0.25,0.035-0.464,0.035-0.714H354C353.964,260.965,353.964,261.215,353.964,261.429z M145.964,259.535
	c0-0.25,0-0.464-0.036-0.714h0.357c0,0.25,0,0.464,0.036,0.714H145.964z M354.071,258.929h-0.357c0-0.25,0-0.464,0.036-0.714h0.357
	C354.071,258.465,354.071,258.715,354.071,258.929z M145.893,257.035c0-0.25,0-0.464,0-0.714h0.357c0,0.25,0,0.464,0,0.714H145.893z
	 M354.107,256.429h-0.357c0-0.25,0-0.464,0-0.714v-0.144h0.357v0.144C354.107,255.965,354.107,256.179,354.107,256.429z
	 M146.25,254.535h-0.357c0-0.25,0-0.464,0-0.714h0.357C146.25,254.071,146.25,254.285,146.25,254.535z M353.75,253.785
	c0-0.25,0-0.464,0-0.714h0.357c0,0.25,0,0.464,0,0.714H353.75z M146.321,252.035h-0.357c0-0.25,0-0.464,0.036-0.714h0.357
	C146.321,251.571,146.321,251.785,146.321,252.035z M353.643,251.285c0-0.25-0.035-0.464-0.035-0.714h0.356
	c0,0.25,0.036,0.464,0.036,0.714H353.643z M146.429,249.536l-0.357-0.036c0-0.25,0.036-0.464,0.036-0.714l0.357,0.036
	C146.464,249.071,146.429,249.286,146.429,249.536z M353.536,248.821c0-0.25-0.036-0.464-0.036-0.714l0.357-0.036
	c0,0.25,0.035,0.464,0.035,0.714L353.536,248.821z M146.607,247.036L146.25,247c0.036-0.25,0.036-0.464,0.071-0.714l0.357,0.036
	C146.643,246.571,146.643,246.821,146.607,247.036z M353.321,246.321c-0.035-0.25-0.035-0.464-0.071-0.714l0.357-0.036
	c0.035,0.25,0.035,0.464,0.071,0.714L353.321,246.321z M146.857,244.571l-0.357-0.036c0.036-0.25,0.036-0.464,0.071-0.714
	l0.357,0.036C146.893,244.107,146.857,244.321,146.857,244.571z M353.071,243.821c-0.035-0.25-0.071-0.464-0.071-0.714l0.357-0.036
	c0.035,0.25,0.071,0.464,0.071,0.714L353.071,243.821z M147.143,242.071l-0.357-0.036c0.036-0.25,0.071-0.464,0.107-0.714
	l0.357,0.036C147.214,241.607,147.179,241.857,147.143,242.071z M352.75,241.357c-0.036-0.25-0.071-0.464-0.107-0.714l0.357-0.036
	c0.036,0.25,0.071,0.464,0.107,0.714L352.75,241.357z M147.5,239.607l-0.357-0.071c0.036-0.25,0.071-0.464,0.107-0.714l0.357,0.071
	C147.571,239.143,147.536,239.393,147.5,239.607z M352.393,238.893c-0.035-0.25-0.071-0.464-0.106-0.714l0.356-0.072
	c0.036,0.25,0.071,0.464,0.107,0.714L352.393,238.893z M147.893,237.143l-0.357-0.072c0.036-0.25,0.071-0.464,0.143-0.714
	l0.357,0.072C148,236.679,147.964,236.929,147.893,237.143z M351.964,236.429c-0.035-0.25-0.071-0.464-0.143-0.714l0.357-0.072
	c0.035,0.25,0.107,0.464,0.143,0.714L351.964,236.429z M148.393,234.714l-0.357-0.071c0.036-0.25,0.107-0.464,0.143-0.714
	l0.357,0.071C148.464,234.214,148.429,234.464,148.393,234.714z M351.464,233.964c-0.035-0.25-0.106-0.464-0.143-0.714l0.357-0.071
	c0.035,0.25,0.107,0.464,0.143,0.714L351.464,233.964z M148.929,232.25l-0.357-0.071c0.072-0.25,0.107-0.464,0.179-0.714
	l0.357,0.071C149.036,231.786,148.964,232.036,148.929,232.25z M350.929,231.536c-0.071-0.214-0.107-0.464-0.179-0.679l0.357-0.071
	c0.071,0.214,0.106,0.464,0.179,0.679L350.929,231.536z M149.5,229.821l-0.357-0.071c0.071-0.214,0.107-0.464,0.178-0.679
	l0.357,0.107C149.607,229.357,149.571,229.607,149.5,229.821z M350.321,229.107c-0.071-0.214-0.107-0.464-0.179-0.678l0.357-0.107
	c0.071,0.214,0.107,0.464,0.179,0.679L350.321,229.107z M150.143,227.429l-0.357-0.107c0.071-0.214,0.143-0.464,0.214-0.678
	l0.357,0.107C150.286,226.964,150.214,227.179,150.143,227.429z M349.643,226.714c-0.071-0.214-0.143-0.464-0.214-0.679l0.357-0.107
	c0.071,0.214,0.143,0.464,0.214,0.678L349.643,226.714z M150.857,225.036l-0.357-0.107c0.071-0.214,0.143-0.464,0.214-0.679
	l0.357,0.107C151,224.571,150.929,224.786,150.857,225.036z M348.929,224.321c-0.071-0.214-0.143-0.464-0.215-0.678l0.357-0.107
	c0.071,0.214,0.143,0.464,0.215,0.679L348.929,224.321z M151.643,222.643l-0.322-0.107c0.072-0.214,0.143-0.464,0.214-0.679
	l0.321,0.107C151.786,222.179,151.714,222.429,151.643,222.643z M348.143,221.964c-0.071-0.214-0.143-0.464-0.25-0.679l0.321-0.107
	c0.072,0.214,0.144,0.464,0.25,0.678L348.143,221.964z M152.464,220.286l-0.321-0.107c0.071-0.214,0.178-0.464,0.25-0.679
	l0.321,0.107C152.643,219.821,152.536,220.036,152.464,220.286z M347.286,219.607c-0.072-0.214-0.179-0.428-0.25-0.678l0.321-0.143
	c0.071,0.214,0.179,0.429,0.25,0.679L347.286,219.607z M153.357,217.929l-0.321-0.143c0.071-0.214,0.179-0.429,0.25-0.679
	l0.321,0.143C153.536,217.5,153.429,217.714,153.357,217.929z M346.393,217.286c-0.071-0.214-0.179-0.429-0.25-0.679l0.321-0.143
	c0.107,0.214,0.179,0.429,0.286,0.679L346.393,217.286z M154.286,215.607l-0.321-0.143c0.107-0.214,0.179-0.429,0.286-0.679
	l0.321,0.143C154.464,215.179,154.393,215.393,154.286,215.607z M345.429,214.964c-0.107-0.214-0.179-0.429-0.286-0.643l0.321-0.143
	c0.107,0.214,0.179,0.428,0.286,0.643L345.429,214.964z M155.286,213.321l-0.321-0.143c0.107-0.214,0.214-0.429,0.286-0.643
	l0.321,0.143C155.464,212.857,155.393,213.107,155.286,213.321z M344.429,212.679c-0.107-0.214-0.215-0.429-0.286-0.643l0.321-0.143
	c0.107,0.214,0.215,0.428,0.286,0.643L344.429,212.679z M156.321,211.036L156,210.893c0.107-0.214,0.214-0.429,0.321-0.643
	l0.322,0.143C156.536,210.607,156.429,210.821,156.321,211.036z M343.393,210.429c-0.106-0.214-0.214-0.429-0.321-0.643l0.321-0.143
	c0.107,0.214,0.215,0.428,0.321,0.643L343.393,210.429z M157.429,208.786l-0.322-0.179c0.107-0.214,0.214-0.428,0.322-0.643
	l0.321,0.179C157.643,208.357,157.536,208.571,157.429,208.786z M342.25,208.214c-0.107-0.214-0.214-0.429-0.321-0.643l0.321-0.178
	c0.107,0.214,0.214,0.428,0.321,0.643L342.25,208.214z M158.607,206.571l-0.321-0.179c0.107-0.214,0.214-0.428,0.357-0.643
	l0.321,0.179C158.821,206.143,158.714,206.357,158.607,206.571z M341.107,206c-0.107-0.214-0.215-0.429-0.357-0.607l0.321-0.178
	c0.107,0.214,0.215,0.428,0.357,0.643L341.107,206z M159.821,204.393l-0.321-0.178c0.107-0.214,0.25-0.429,0.357-0.607l0.322,0.179
	C160.071,203.964,159.929,204.179,159.821,204.393z M339.857,203.857c-0.107-0.214-0.25-0.393-0.357-0.607l0.321-0.179
	c0.107,0.214,0.25,0.429,0.357,0.607L339.857,203.857z M161.071,202.214l-0.321-0.179c0.107-0.214,0.25-0.393,0.357-0.607
	l0.322,0.178C161.321,201.821,161.214,202.036,161.071,202.214z M338.607,201.714c-0.107-0.214-0.25-0.393-0.357-0.607l0.286-0.178
	c0.143,0.214,0.25,0.393,0.356,0.607L338.607,201.714z M162.393,200.107l-0.286-0.178c0.143-0.214,0.25-0.393,0.393-0.607
	l0.286,0.179C162.643,199.714,162.536,199.893,162.393,200.107z M337.286,199.607c-0.144-0.214-0.25-0.393-0.394-0.607l0.286-0.179
	c0.143,0.214,0.25,0.393,0.393,0.607L337.286,199.607z M163.75,198l-0.286-0.214c0.143-0.214,0.25-0.393,0.393-0.607l0.286,0.214
	C164.036,197.607,163.893,197.821,163.75,198z M335.893,197.5c-0.143-0.179-0.25-0.393-0.393-0.571l0.286-0.214
	c0.143,0.178,0.285,0.393,0.393,0.607L335.893,197.5z M165.179,195.929l-0.286-0.214c0.143-0.179,0.286-0.393,0.428-0.572
	l0.286,0.214C165.464,195.571,165.321,195.75,165.179,195.929z M334.464,195.464c-0.143-0.179-0.285-0.393-0.428-0.572l0.285-0.214
	c0.143,0.178,0.286,0.393,0.429,0.571L334.464,195.464z M166.643,193.929l-0.286-0.214c0.143-0.179,0.286-0.393,0.429-0.572
	l0.286,0.214C166.929,193.536,166.786,193.714,166.643,193.929z M333,193.464c-0.143-0.179-0.286-0.393-0.429-0.572l0.286-0.214
	c0.143,0.178,0.285,0.393,0.429,0.571L333,193.464z M168.179,191.929l-0.286-0.214c0.143-0.179,0.286-0.393,0.428-0.572l0.286,0.214
	C168.464,191.571,168.321,191.75,168.179,191.929z M331.464,191.464c-0.143-0.179-0.285-0.357-0.428-0.571l0.285-0.214
	c0.143,0.178,0.286,0.357,0.429,0.571L331.464,191.464z M169.714,189.964l-0.286-0.214c0.143-0.179,0.286-0.357,0.464-0.536
	l0.286,0.214C170.036,189.607,169.893,189.786,169.714,189.964z M329.929,189.536c-0.143-0.179-0.321-0.357-0.465-0.536l0.286-0.214
	c0.143,0.179,0.321,0.357,0.464,0.536L329.929,189.536z M171.321,188.071l-0.286-0.25c0.143-0.178,0.321-0.357,0.464-0.536
	l0.286,0.25C171.643,187.714,171.5,187.893,171.321,188.071z M328.286,187.643c-0.144-0.178-0.322-0.357-0.465-0.536l0.286-0.25
	c0.143,0.179,0.321,0.357,0.464,0.536L328.286,187.643z M173,186.179l-0.25-0.25c0.143-0.179,0.321-0.357,0.464-0.536l0.25,0.25
	C173.321,185.857,173.143,186.036,173,186.179z M326.643,185.786c-0.143-0.179-0.321-0.357-0.5-0.536l0.25-0.25
	c0.179,0.179,0.321,0.357,0.5,0.536L326.643,185.786z M174.679,184.357l-0.25-0.25c0.178-0.178,0.321-0.357,0.5-0.536l0.25,0.25
	C175,184,174.857,184.179,174.679,184.357z M324.929,183.964c-0.179-0.179-0.321-0.357-0.5-0.5l0.25-0.25
	c0.179,0.179,0.321,0.357,0.5,0.5L324.929,183.964z M176.429,182.571l-0.25-0.25c0.178-0.178,0.321-0.321,0.5-0.5l0.25,0.25
	C176.75,182.25,176.571,182.393,176.429,182.571z M323.179,182.179c-0.179-0.179-0.321-0.322-0.5-0.5l0.25-0.25
	c0.179,0.178,0.357,0.321,0.5,0.5L323.179,182.179z M178.214,180.821l-0.25-0.25c0.179-0.178,0.357-0.321,0.536-0.5l0.25,0.25
	C178.536,180.5,178.357,180.643,178.214,180.821z M321.393,180.429c-0.179-0.179-0.356-0.322-0.535-0.5l0.25-0.25
	c0.179,0.178,0.356,0.321,0.535,0.5L321.393,180.429z M180.036,179.107l-0.25-0.25c0.179-0.178,0.357-0.321,0.536-0.464l0.25,0.25
	C180.393,178.786,180.214,178.964,180.036,179.107z M319.571,178.75c-0.179-0.143-0.357-0.321-0.535-0.464l0.25-0.25
	c0.178,0.143,0.356,0.321,0.535,0.464L319.571,178.75z M181.893,177.464l-0.25-0.286c0.178-0.143,0.357-0.322,0.536-0.464
	l0.25,0.286C182.25,177.143,182.071,177.286,181.893,177.464z M317.679,177.071c-0.179-0.143-0.357-0.321-0.536-0.464l0.215-0.286
	c0.179,0.143,0.356,0.321,0.535,0.464L317.679,177.071z M183.786,175.821l-0.214-0.286c0.179-0.143,0.357-0.321,0.536-0.464
	l0.214,0.286C184.143,175.536,183.964,175.679,183.786,175.821z M315.786,175.464c-0.179-0.143-0.357-0.286-0.536-0.464l0.214-0.286
	c0.179,0.143,0.357,0.286,0.572,0.464L315.786,175.464z M185.714,174.25l-0.214-0.286c0.179-0.143,0.357-0.286,0.571-0.429
	l0.214,0.286C186.107,173.964,185.929,174.107,185.714,174.25z M313.821,173.929c-0.179-0.143-0.393-0.286-0.571-0.429l0.214-0.286
	c0.179,0.143,0.394,0.286,0.572,0.429L313.821,173.929z M187.714,172.75l-0.214-0.286c0.179-0.143,0.393-0.286,0.571-0.429
	l0.214,0.286C188.071,172.464,187.893,172.607,187.714,172.75z M311.821,172.393c-0.179-0.143-0.393-0.286-0.571-0.429l0.214-0.286
	c0.179,0.143,0.394,0.286,0.572,0.428L311.821,172.393z M189.714,171.286L189.5,171c0.179-0.143,0.393-0.286,0.571-0.429
	l0.214,0.286C190.107,171,189.893,171.143,189.714,171.286z M309.821,170.929c-0.179-0.143-0.393-0.286-0.571-0.393l0.214-0.286
	c0.179,0.143,0.394,0.286,0.572,0.429L309.821,170.929z M191.75,169.857l-0.214-0.286c0.214-0.143,0.393-0.25,0.607-0.393
	l0.214,0.286C192.143,169.571,191.964,169.714,191.75,169.857z M307.75,169.5c-0.214-0.143-0.393-0.25-0.607-0.393l0.215-0.286
	c0.214,0.143,0.393,0.25,0.606,0.393L307.75,169.5z M193.821,168.464l-0.178-0.286c0.214-0.143,0.393-0.25,0.607-0.393l0.179,0.286
	C194.25,168.214,194.036,168.321,193.821,168.464z M305.643,168.143c-0.214-0.143-0.393-0.25-0.607-0.393l0.18-0.286
	c0.214,0.143,0.393,0.25,0.606,0.393L305.643,168.143z M195.929,167.143l-0.179-0.322c0.214-0.107,0.393-0.25,0.607-0.357
	l0.179,0.321C196.357,166.893,196.143,167,195.929,167.143z M303.535,166.821c-0.214-0.107-0.393-0.25-0.606-0.357l0.179-0.321
	c0.214,0.107,0.393,0.25,0.607,0.357L303.535,166.821z M198.071,165.857l-0.178-0.321c0.214-0.107,0.428-0.25,0.607-0.357
	l0.179,0.321C198.5,165.643,198.286,165.75,198.071,165.857z M301.393,165.571c-0.214-0.107-0.428-0.25-0.607-0.357l0.18-0.321
	c0.214,0.107,0.428,0.25,0.606,0.357L301.393,165.571z M200.25,164.643l-0.179-0.322c0.214-0.107,0.429-0.214,0.643-0.357
	l0.179,0.321C200.679,164.429,200.464,164.536,200.25,164.643z M299.179,164.357c-0.214-0.107-0.429-0.214-0.644-0.321l0.18-0.321
	c0.214,0.107,0.428,0.214,0.643,0.321L299.179,164.357z M202.464,163.464l-0.179-0.321c0.214-0.107,0.429-0.214,0.643-0.322
	l0.178,0.322C202.893,163.25,202.679,163.357,202.464,163.464z M296.965,163.179c-0.215-0.107-0.43-0.214-0.644-0.322l0.144-0.321
	c0.214,0.107,0.428,0.214,0.643,0.321L296.965,163.179z M204.679,162.357l-0.143-0.321c0.214-0.107,0.429-0.214,0.643-0.321
	l0.143,0.321C205.107,162.143,204.893,162.25,204.679,162.357z M294.715,162.071c-0.215-0.107-0.43-0.214-0.644-0.321l0.144-0.321
	c0.214,0.107,0.428,0.214,0.643,0.321L294.715,162.071z M206.929,161.286l-0.143-0.321c0.214-0.107,0.429-0.214,0.643-0.286
	l0.143,0.321C207.357,161.107,207.143,161.214,206.929,161.286z M292.465,161.036c-0.215-0.107-0.43-0.179-0.644-0.286l0.144-0.321
	c0.214,0.107,0.428,0.178,0.643,0.286L292.465,161.036z M209.214,160.286l-0.143-0.321c0.214-0.107,0.429-0.179,0.643-0.286
	l0.143,0.321C209.643,160.107,209.429,160.214,209.214,160.286z M290.143,160.036c-0.214-0.107-0.428-0.179-0.678-0.286l0.143-0.321
	c0.214,0.107,0.428,0.178,0.678,0.286L290.143,160.036z M211.5,159.357l-0.143-0.321c0.214-0.071,0.429-0.179,0.679-0.25
	l0.143,0.321C211.929,159.179,211.714,159.25,211.5,159.357z M287.821,159.071c-0.214-0.071-0.429-0.179-0.679-0.25l0.143-0.321
	c0.215,0.071,0.465,0.179,0.68,0.25L287.821,159.071z M213.821,158.429l-0.107-0.322c0.214-0.071,0.464-0.178,0.679-0.25
	l0.107,0.322C214.286,158.286,214.071,158.357,213.821,158.429z M285.5,158.179c-0.215-0.072-0.465-0.179-0.679-0.25l0.107-0.322
	c0.214,0.072,0.464,0.179,0.679,0.25L285.5,158.179z M216.179,157.607l-0.107-0.321c0.214-0.071,0.464-0.143,0.679-0.214
	l0.107,0.322C216.643,157.429,216.393,157.536,216.179,157.607z M283.107,157.357c-0.215-0.071-0.465-0.143-0.679-0.214l0.106-0.357
	c0.215,0.071,0.465,0.143,0.68,0.214L283.107,157.357z M218.571,156.821l-0.107-0.357c0.214-0.071,0.464-0.143,0.679-0.214
	l0.107,0.357C219,156.679,218.786,156.75,218.571,156.821z M280.75,156.607c-0.215-0.071-0.465-0.143-0.679-0.214l0.107-0.357
	c0.214,0.071,0.464,0.143,0.679,0.214L280.75,156.607z M220.929,156.071l-0.107-0.357c0.214-0.071,0.464-0.143,0.679-0.214
	l0.107,0.357C221.393,155.964,221.179,156.036,220.929,156.071z M278.357,155.893c-0.215-0.072-0.465-0.143-0.679-0.179l0.106-0.357
	c0.215,0.072,0.465,0.143,0.68,0.179L278.357,155.893z M223.357,155.429l-0.107-0.357c0.214-0.071,0.464-0.107,0.679-0.178
	L224,155.25C223.821,155.286,223.571,155.357,223.357,155.429z M275.929,155.214c-0.214-0.071-0.464-0.107-0.679-0.179l0.071-0.357
	c0.214,0.071,0.464,0.107,0.679,0.178L275.929,155.214z M225.786,154.821l-0.071-0.357c0.214-0.071,0.464-0.107,0.714-0.179
	l0.071,0.357C226.25,154.714,226,154.75,225.786,154.821z M273.5,154.643c-0.215-0.072-0.465-0.107-0.679-0.143l0.071-0.357
	c0.25,0.036,0.465,0.107,0.715,0.143L273.5,154.643z M228.214,154.25l-0.071-0.357c0.25-0.036,0.464-0.107,0.714-0.143l0.072,0.357
	C228.679,154.143,228.429,154.214,228.214,154.25z M271.071,154.107c-0.25-0.036-0.464-0.107-0.714-0.143l0.071-0.357
	c0.25,0.036,0.464,0.107,0.714,0.143L271.071,154.107z M230.643,153.75l-0.072-0.357c0.25-0.036,0.464-0.072,0.714-0.143
	l0.071,0.357C231.107,153.679,230.893,153.714,230.643,153.75z M268.607,153.643c-0.25-0.036-0.465-0.072-0.715-0.107l0.072-0.357
	c0.25,0.036,0.464,0.071,0.714,0.143L268.607,153.643z M233.107,153.321l-0.071-0.357c0.25-0.036,0.464-0.071,0.714-0.107
	l0.071,0.357C233.571,153.25,233.357,153.286,233.107,153.321z M266.143,153.214c-0.25-0.036-0.464-0.071-0.714-0.107l0.036-0.357
	c0.25,0.036,0.464,0.071,0.714,0.107L266.143,153.214z M235.571,152.964l-0.036-0.357c0.25-0.036,0.464-0.071,0.714-0.107
	l0.036,0.357C236.071,152.893,235.821,152.929,235.571,152.964z M263.679,152.857c-0.25-0.036-0.464-0.071-0.714-0.107l0.035-0.357
	c0.25,0.036,0.465,0.071,0.715,0.107L263.679,152.857z M238.071,152.643l-0.036-0.357c0.25-0.036,0.464-0.036,0.714-0.071
	l0.036,0.357C238.536,152.607,238.286,152.607,238.071,152.643z M261.215,152.571c-0.25-0.036-0.465-0.036-0.715-0.071l0.035-0.357
	c0.25,0.036,0.465,0.036,0.715,0.071L261.215,152.571z M240.536,152.393l-0.036-0.357c0.25-0.036,0.464-0.036,0.714-0.071
	l0.036,0.357C241.036,152.357,240.786,152.357,240.536,152.393z M258.715,152.321c-0.25-0.036-0.465-0.036-0.715-0.071l0.035-0.357
	c0.25,0.036,0.465,0.036,0.715,0.071L258.715,152.321z M243.036,152.179L243,151.821c0.25,0,0.464-0.036,0.714-0.036l0.036,0.357
	C243.5,152.179,243.286,152.179,243.036,152.179z M256.215,152.143c-0.25,0-0.465-0.036-0.715-0.036l0.035-0.357
	c0.25,0,0.465,0.036,0.715,0.036L256.215,152.143z M245.536,152.071v-0.357c0.25,0,0.464-0.036,0.714-0.036v0.357
	C246,152.036,245.75,152.036,245.536,152.071z M253.715,152.036c-0.25,0-0.465,0-0.715-0.036v-0.357c0.25,0,0.465,0,0.715,0.036
	V152.036z M248.036,152v-0.357c0.25,0,0.464,0,0.714,0V152C248.5,151.964,248.25,151.964,248.036,152z M251.215,151.964
	c-0.25,0-0.465,0-0.715,0v-0.357c0.25,0,0.465,0,0.715,0V151.964z"/>
</svg>
