<?xml version="1.0" encoding="utf-8"?>
<!-- Generator: Adobe Illustrator 16.0.4, SVG Export Plug-In . SVG Version: 6.00 Build 0)  -->
<!DOCTYPE svg PUBLIC "-//W3C//DTD SVG 1.1//EN" "http://www.w3.org/Graphics/SVG/1.1/DTD/svg11.dtd">
<svg version="1.1" id="Layer_1" xmlns="http://www.w3.org/2000/svg" xmlns:xlink="http://www.w3.org/1999/xlink" x="0px" y="0px"
	 width="1246.86px" height="770.278px" viewBox="0 0 1246.86 770.278" enable-background="new 0 0 1246.86 770.278"
	 xml:space="preserve">
<g>
	<defs>
		<rect id="SVGID_1_" width="1246.855" height="770.278"/>
	</defs>
	<clipPath id="SVGID_2_">
		<use xlink:href="#SVGID_1_"  overflow="visible"/>
	</clipPath>
	<path clip-path="url(#SVGID_2_)" fill="#FFFFFF" d="M488.943,245.968c1.405,21.833,5.729,99.529,6.546,114.314
		c0.694,12.575,1.198,25.173,1.302,37.764c0.087,10.628-1.688,21.388-0.554,31.863c1.838,16.976,0.438,33.977,1.869,50.892
		c0.926,10.962,2.751,21.849,3.65,32.812c0.732,8.922,0.552,17.915,1.027,26.862c0.403,7.604,1.023,15.202,1.795,22.778
		c1.527,15,3.284,29.977,4.833,44.974c1.215,11.763,2.584,23.492,6.435,34.749c3.182,9.3,5.998,18.78,9.975,27.737
		c3.612,8.138,10.272,13.239,19.249,15.596c5.77,1.515,11.011,4.967,16.744,6.728c7.704,2.366,15.714,5.682,23.479,5.407
		c9.607-0.34,19.833-2.661,27.758-8.611c7.398-5.555,14.312-12.02,17.626-21.521c2.82-8.083,7.25-15.591,10.403-23.576
		c2.066-5.232,3.128-10.861,4.633-16.312c1.446-5.235,2.94-10.459,4.282-15.721c0.318-1.242,0.04-2.623,0.17-3.927
		c0.243-2.428,0.631-4.841,0.873-7.269c0.339-3.403,0.675-6.81,0.884-10.223c0.999-16.365,2.415-32.72,2.796-49.1
		c0.376-16.188-0.517-32.401-0.462-48.602c0.042-12.368,0.782-24.733,1.019-37.104c0.056-2.959-0.767-5.926-0.989-8.903
		c-0.286-3.801-0.468-7.616-0.53-11.427c-0.231-14.27-0.39-28.54-0.59-42.81c-0.129-9.206-0.122-18.417-0.474-27.613
		c-0.263-6.79-1.11-13.555-1.513-20.342c-0.717-12.09-5.336-93.871-4.98-103.479c0.165-4.468,2.155-7.809,7.609-8.1
		c3.212-0.171,6.344-1.624,9.54-2.375c1.765-0.414,3.858-1.277,5.34-0.715c6.354,2.414,11.401-0.427,16.607-3.3
		c4.76-2.626,10.763-1.34,12.698,2.551c0.36,0.725,0.961,1.644,0.778,2.278c-2.858,9.839,11.353,82.512,12.173,94.642
		c0.484,7.182,0.894,14.378,0.993,21.572c0.138,10.024-0.303,20.059,0.015,30.074c0.156,4.982,1.53,9.918,2.176,14.897
		c0.253,1.949-0.17,3.981,0.039,5.941c1.94,18.159,1.604,36.292,0.706,54.527c-0.788,16.014,0.178,32.117,0.455,48.18
		c0.219,12.794,0.915,25.588,0.735,38.374c-0.123,8.744-1.552,17.461-2.101,26.208c-0.621,9.9-0.519,19.857-1.455,29.722
		c-0.998,10.527-1.738,21.279-4.538,31.395c-6.265,22.647-12.984,45.234-21.025,67.297c-4.198,11.518-11.045,22.218-17.723,32.629
		c-4.164,6.495-9.841,12.195-15.545,17.491c-12.55,11.652-26.397,20.895-44.388,21.959c-12.071,0.715-24.082,2.688-36.153,3.097
		c-9.267,0.313-18.334-1.928-26.963-5.713c-6.151-2.699-12.624-4.673-18.751-7.421c-4.861-2.18-9.827-4.509-14.012-7.726
		c-6.478-4.979-12.738-10.386-18.333-16.325c-5.541-5.884-10.138-12.656-15.163-19.028c-0.615-0.779-1.559-1.39-1.927-2.258
		c-3.123-7.373-6.414-14.691-9.128-22.216c-2.697-7.476-4.711-15.193-7.153-22.764c-3.903-12.104-5.437-24.586-6.334-37.203
		c-0.607-8.543-1.558-17.06-2.255-25.597c-1.207-14.78-2.417-29.561-3.465-44.354c-0.627-8.852-0.864-17.729-1.43-26.585
		c-0.595-9.291-1.642-18.561-2.011-27.857c-0.502-12.661-0.204-25.357-0.892-38.005c-0.619-11.365-2.174-22.678-3.193-34.024
		c-1.081-12.04-1.883-24.106-3.069-36.135c-0.648-6.57-2.037-13.068-2.687-19.639c-0.229-2.324,1.214-4.791,1.094-7.151
		c-0.968-18.983-2.149-37.954-3.203-56.932c-0.165-2.976,0.062-5.972-0.025-8.955c-0.276-9.435-3.202-19.161-3.414-28.962
		c-0.155-7.094-0.066-14.194-0.33-21.283c-0.317-8.469,7.47-16.351,15.67-16.879c8.291-0.534,16.486-2.422,24.761-3.395
		c4.269-0.501,8.673-0.768,12.918-0.282c3.831,0.439,6.878,2.515,6.183,7.355c-0.234,1.629-0.012,3.324,0.002,4.989
		C489.665,245.926,489.304,245.947,488.943,245.968 M472.39,249.812c-8.503,0.933-16.259,1.758-24.007,2.642
		c-4.001,0.456-5.452,2.095-4.802,6.668c1.252,8.797,6.508,54.775,6.968,61.231c0.574,8.071,1.769,16.1,2.29,24.173
		c0.481,7.449,0.196,14.948,0.666,22.398c0.583,9.236,1.709,18.436,2.37,27.667c0.247,3.449-0.537,6.981-0.198,10.412
		c2.091,21.124,5.682,42.093,5.382,63.456c-0.13,9.228,1.334,18.468,1.858,27.715c1.527,26.908,2.871,53.826,4.458,80.731
		c0.387,6.568,2.237,13.127,2.01,19.641c-0.541,15.511,1.484,30.68,4.285,45.834c3.091,16.722,7.403,33.045,15.181,48.284
		c2.25,4.409,4.268,8.975,6.922,13.129c2.244,3.513,5.925,6.188,7.803,9.835c6.043,11.736,16.375,18.67,26.931,25.515
		c9.742,6.316,20.447,10.262,31.733,12.466c6.05,1.181,12.311,1.837,18.467,1.772c5.733-0.059,11.434-1.809,17.182-2.066
		c11.573-0.521,22.132-3.235,31.819-10.099c10.603-7.51,19.703-16.488,27.982-26.286c7.455-8.821,12.433-19.156,15.999-30.191
		c1.763-5.454,4.383-10.629,6.21-16.066c1.301-3.87,1.846-7.987,2.87-11.958c1.132-4.388,2.2-8.812,3.698-13.078
		c2.295-6.536,5.935-12.764,7.194-19.462c1.903-10.11,2.422-20.5,3.205-30.796c0.728-9.6,1-19.232,1.541-28.846
		c0.249-4.426,0.993-8.846,0.933-13.261c-0.19-14.071-0.651-28.139-1.015-42.207c-0.009-0.329-0.121-0.655-0.128-0.983
		c-0.176-7.1-0.448-14.199-0.485-21.3c-0.034-6.868-0.067-13.753,0.333-20.604c0.599-10.197-3.647-20.582,1.173-30.629
		c0.311-0.645-0.088-1.614-0.113-2.435c-0.253-7.938-0.384-15.881-0.775-23.812c-0.463-9.381-1.1-18.754-1.759-28.125
		c-0.372-5.279-1.32-10.544-1.338-15.817c-0.031-9.176,1.232-18.413,0.541-27.518c-1.026-13.49-3.398-26.874-4.986-40.327
		c-1.418-12.004-2.706-24.027-3.767-36.066c-1.193-13.525-4.494-2.497-5.983-8.928c-0.271-1.171-1.9-2.493-3.159-2.858
		c-1.826-0.528-3.885-0.275-5.846-0.307c-4.916-0.082-9.104,2.427-8.984,5.749c0.312,8.644,3.393,48.514,4.132,60.316
		c0.372,5.937-0.278,11.933-0.018,17.881c0.168,3.828,2.104,7.768,1.541,11.391c-0.74,4.743-0.002,9.043,0.979,13.488
		c0.181,0.811,0.29,1.646,0.329,2.475c0.499,10.522,1.003,21.046,1.446,31.571c0.124,2.934,0.227,5.888,0.033,8.812
		c-0.354,5.336-1.348,10.659-1.326,15.985c0.036,8.095,0.789,16.184,1.084,24.281c0.198,5.423,0.156,10.856,0.174,16.285
		c0.026,7.597-0.065,15.194,0.026,22.79c0.128,10.566,0.567,21.132,0.517,31.697c-0.041,8.632-0.736,17.262-0.895,25.896
		c-0.157,8.464,0.597,16.983-0.111,25.39c-1.367,16.232-3.043,32.468-5.431,48.576c-1.758,11.858-4.682,23.559-7.436,35.246
		c-1.093,4.636-2.967,9.116-4.786,13.545c-2.237,5.448-4.221,11.13-7.343,16.059c-4.549,7.184-9.707,14.045-15.202,20.541
		c-3.496,4.131-7.561,8.316-12.26,10.792c-13.33,7.023-27.807,8.957-42.534,5.728c-9.757-2.141-19.18-5.764-28.869-8.27
		c-10.822-2.8-20.918-6.779-29.011-14.811c-1.263-1.254-2.936-2.297-3.72-3.802c-7.646-14.691-13.999-29.902-16.524-46.387
		c-2.26-14.755-4.097-29.576-6.075-44.374c-1.206-9.024-2.327-18.061-3.485-27.091c-0.583-4.561-1.462-9.106-1.688-13.685
		c-0.589-11.995-0.645-24.019-1.371-36.003c-0.96-15.833-2.467-31.633-3.523-47.461c-0.614-9.205-1.015-18.436-1.136-27.66
		c-0.161-12.377,0.036-24.758,0.089-37.138c0.029-6.622,0.453-13.269,0.016-19.859c-0.457-6.882-2.068-13.684-2.584-20.565
		c-1.1-14.71-1.919-29.444-2.652-44.178c-0.336-6.766-0.418-46.773-1.003-54.197C473.956,262.309,473.117,256.276,472.39,249.812"/>
	<path clip-path="url(#SVGID_2_)" fill="#FFFFFF" d="M1062.014,297.49c-8.462-0.339-16.174-0.714-23.89-0.942
		c-15.345-0.455-30.693-0.803-46.037-1.246c-7.717-0.224-15.445-0.352-23.141-0.898c-9.072-0.643-18.134-1.546-27.167-2.603
		c-12.161-1.424-24.28-3.201-36.44-4.65c-18.432-2.195-36.861-4.456-55.334-6.252c-9.036-0.878-18.182-0.554-27.251-1.184
		c-6.322-0.439-10.947-6.033-11.114-12.343c-0.132-4.968-0.884-9.952-0.625-14.891c0.578-11.03,1.353-22.069,2.69-33.026
		c0.265-2.172,3.138-5.153,5.308-5.672c2.532-0.604,6.148-0.667,7.808,3.403c0.696,1.71,3.435,3.417,5.409,3.635
		c9.156,1.009,18.495,0.778,27.526,2.365c9.208,1.62,18.381,0.649,27.503,1.431c16.521,1.416,32.964,3.685,49.46,5.402
		c7.059,0.734,14.168,0.946,21.251,1.451c10.741,0.765,21.486,1.48,32.213,2.398c10.99,0.941,21.941,2.459,32.946,3.059
		c10.264,0.558,20.579,0.143,30.868,0.351c4.948,0.1,10.049-0.524,14.562,2.658c0.987,0.696,2.894,0.017,4.366,0.11
		c6.345,0.397,12.688,0.845,19.031,1.279c0.996,0.069,2.009,0.337,2.981,0.226c10.319-1.179,20.18,1.077,30.1,3.541
		c7.035,1.747,14.286,2.627,22.082,4.007c-0.202,5.053,0.571,9.494-0.699,13.24c-4.854,14.304-9.815,28.662-21.457,39.36
		c-1.866,1.714-3.156,4.108-4.519,6.307c-3.632,5.853-7.41,11.638-10.657,17.702c-3.61,6.742-6.617,13.803-10.064,20.636
		c-0.941,1.868-2.842,3.263-3.734,5.144c-1.517,3.19-1.656,8.162-4.037,9.564c-4.343,2.558-4.251,6.627-6.026,10.082
		c-1.842,3.586-4.03,6.993-5.921,10.556c-5.253,9.901-12.711,18.534-16.142,29.523c-2.03,6.504-4.951,12.795-8.079,18.87
		c-2.439,4.736-6.048,8.858-8.709,13.498c-2.694,4.695-4.661,9.805-7.321,14.521c-2.374,4.208-5.413,8.039-7.835,12.223
		c-0.903,1.561-0.524,3.838-1.357,5.468c-4.739,9.271-9.639,18.464-14.546,27.65c-3.822,7.157-7.406,14.473-11.697,21.342
		c-4.734,7.577-10.235,14.67-15.234,22.087c-1.986,2.944-3.377,6.283-5.292,9.281c-3.079,4.817-6.448,9.449-9.538,14.261
		c-1.836,2.857-3.334,5.932-5.061,8.863c-1.79,3.039-3.722,5.993-5.486,9.046c-0.581,1.004-0.838,2.194-1.243,3.3
		c1.05,0.104,2.147,0.46,3.146,0.278c10.598-1.936,21.284-3.529,31.732-6.091c8.249-2.021,16.119-5.553,24.317-7.841
		c4.062-1.134,8.507-1.475,12.743-1.31c11.358,0.44,22.693,1.475,34.05,2.021c6.948,0.335,13.927,0.031,20.875,0.352
		c4.122,0.19,8.216,1.518,12.317,1.499c12.438-0.056,24.87-0.677,37.309-0.772c9.766-0.075,19.539,0.223,29.304,0.511
		c4.687,0.14,9.433,0.255,14.025,1.084c4.89,0.886,7.092,4.748,5.623,9.6c-0.921,3.043-2.928,5.74-4.145,8.717
		c-0.567,1.389-0.305,3.094-0.61,4.617c-1.022,5.121-2.269,10.202-3.137,15.348c-0.312,1.853,0.175,3.847,0.346,5.771
		c0.24,2.737,0.609,5.468,0.77,8.211c0.2,3.439,0.243,6.889,0.377,11.086c-4.232,0.69-9.091,2.048-13.98,2.162
		c-9.804,0.228-19.981-1.932-29.347,0.034c-11.799,2.477-23.436,1.047-35.103,1.937c-9.195,0.702-18.473,0.278-27.711,0.438
		c-12.205,0.211-24.381,0.764-36.539,2.094c-5.551,0.606-11.253-0.346-16.876-0.196c-12.307,0.324-24.628,0.583-36.9,1.479
		c-8.885,0.648-17.77,1.908-26.532,3.556c-15.346,2.885-30.501,6.907-45.919,9.25c-11.887,1.808-24.085,2.609-36.088,2.202
		c-5.985-0.203-11.044-3.109-10.59-7.931c0.238-2.522,1.241-5.075,2.353-7.397c4.545-9.483,9.032-19.008,14.045-28.244
		c1.752-3.227,5.545-5.329,7.37-8.535c3.337-5.854,5.769-12.217,8.818-18.245c4.914-9.715,10.132-19.276,15.022-29.003
		c4.604-9.162,8.809-18.527,13.458-27.666c4.008-7.878,8.382-15.569,12.617-23.33c5.904-10.814,11.736-21.67,17.785-32.403
		c3.297-5.851,7.064-11.436,10.435-17.247c1.184-2.044,1.721-4.453,2.722-6.617c5.869-12.686,15.014-23.628,19.335-37.205
		c1.303-4.093,5.099-7.322,7.216-11.237c5.763-10.656,11.075-21.557,16.876-32.191c5.284-9.686,10.803-19.256,16.53-28.686
		c7.229-11.907,14.828-23.589,22.16-35.434c2.935-4.744,5.641-9.633,8.315-14.53C1061.58,300.656,1061.609,299.245,1062.014,297.49
		 M939.775,637.208c2.859,5.434,6.191,4.961,9.897,3.563c1.913-0.72,3.993-1.186,6.03-1.351c8.305-0.672,16.631-1.093,24.934-1.776
		c9.27-0.762,18.506-2.021,27.786-2.464c6.258-0.299,12.575,0.798,18.851,0.652c16.01-0.373,32.013-1.063,48.015-1.693
		c5.087-0.201,10.167-0.576,15.246-0.936c4.55-0.322,9.089-0.828,13.642-1.086c10.366-0.588,20.736-1.089,31.106-1.588
		c2.12-0.103,4.249-0.031,6.374-0.068c6.341-0.109,12.71-0.641,19.015-0.22c4.83,0.321,5.981-3.402,5.423-5.765
		c-1.931-8.169,1.098-15.577,2.426-23.218c0.608-3.493-1.44-4.445-3.663-4.571c-7.901-0.446-15.834-0.749-23.743-0.588
		c-7.299,0.147-14.586,1.425-21.873,1.38c-14.319-0.086-28.642-0.573-42.946-1.215c-14.56-0.652-29.094-1.901-43.656-2.44
		c-4.947-0.184-10.112,0.384-14.884,1.686c-9.905,2.704-19.505,6.547-29.44,9.11c-6.61,1.705-13.661,1.64-20.368,3.062
		c-4.713,0.999-9.194,3.119-13.744,4.832c-2.599,0.978-5.158,2.071-7.676,3.241c-3.366,1.564-6.382-0.021-7.688-2.438
		c-1.23-2.276-1.67-6.131-0.551-8.314c3.688-7.2,8.209-13.979,12.468-20.882c5.459-8.845,11.001-17.64,16.461-26.483
		c5.538-8.973,10.868-18.078,16.576-26.939c4.442-6.899,9.547-13.375,13.918-20.317c2.03-3.227,2.852-7.19,4.507-10.684
		c3.03-6.398,6.22-12.723,9.436-19.032c4.941-9.698,9.822-19.432,14.988-29.011c4.553-8.442,9.697-16.568,14.126-25.07
		c3.029-5.813,4.453-12.581,8.038-17.961c8.83-13.253,13.25-28.742,22.883-41.725c6.708-9.04,9.96-20.582,15.308-30.715
		c4.436-8.407,9.502-16.501,14.62-24.522c3.801-5.955,8.278-11.474,12.183-17.366c3.636-5.489,7.293-11.025,10.219-16.9
		c2.201-4.419,8.757-7.458,5.128-14.04c-8.031-2.497-17.143-1.098-24.033-5.36c-5.344-0.214-10.33-0.309-15.303-0.635
		c-10.123-0.661-20.228-1.67-30.359-2.115c-9.287-0.407-18.604-0.143-27.9-0.412c-3.926-0.113-7.826-1.048-11.755-1.227
		c-6.576-0.297-13.196,0.053-19.737-0.536c-3.972-0.357-7.784-2.514-11.758-2.871c-4.612-0.413-9.353,0.7-13.983,0.371
		c-9.708-0.691-19.377-1.934-29.068-2.878c-14.938-1.453-29.897-2.709-44.813-4.363c-3.541-0.393-6.904-2.787-10.417-2.967
		c-13.706-0.702-27.443-0.744-41.159-1.316c-7.327-0.305-14.632-1.189-21.983-1.815c-0.89,6.907-1.961,13.068-2.413,19.274
		c-0.615,8.424-0.412,8.445,8.151,8.787c1.825,0.073,3.654,0.086,5.481,0.121c14.255,0.274,28.571-0.169,42.748,1.025
		c13.213,1.113,26.218,4.643,39.43,5.858c12.759,1.172,25.242,4.687,38.205,4.086c9.147-0.425,17.885,3.127,27.145,2.944
		c11.647-0.229,23.322,0.523,34.976,1.07c4.961,0.234,9.897,1.022,14.136,1.481c3.254-0.414,6.012-0.895,8.785-1.06
		c1.285-0.077,2.729,0.943,3.893,0.646c10.367-2.642,20.298,0.389,30.309,2.174c4.588,0.817,6.523,4.27,4.735,8.694
		c-1.132,2.8-2.88,5.386-4.581,7.914c-2.646,3.933-5.807,7.55-8.168,11.636c-3.581,6.193-6.125,13.039-10.116,18.926
		c-3.826,5.645-5.685,12.949-12.644,16.346c-0.861,0.421-0.586,3.03-0.984,4.586c-0.346,1.347-0.725,2.74-1.404,3.934
		c-1.536,2.701-3.268,5.29-4.917,7.929c-1.555,2.491-3.142,4.964-4.651,7.484c-3.179,5.303-6.517,10.524-9.399,15.984
		c-1.949,3.69-2.909,7.904-4.876,11.582c-6.609,12.353-13.508,24.55-20.207,36.855c-1.457,2.676-2.005,6.003-3.893,8.259
		c-7.067,8.445-11.531,18.224-16.234,28.052c-5.343,11.166-12.04,21.688-18.205,32.456c-4.26,7.44-9.935,14.383-12.611,22.343
		c-3.645,10.844-12.151,18.901-15.088,30.081c-1.506,5.734-5.723,10.717-8.397,16.195c-2.534,5.191-4.588,10.615-6.976,15.883
		c-2.438,5.381-4.719,10.867-7.614,15.999c-4.348,7.697-8.674,15.495-13.932,22.564c-5.282,7.101-9.42,14.762-13.566,22.475
		c-0.169,0.314,0.169,0.901,0.482,2.319c5.793-0.301,11.739-0.152,17.529-1.03c7.038-1.067,13.88-3.495,20.927-4.418
		C929.588,645.812,936.052,645.379,939.775,637.208"/>
	<path clip-path="url(#SVGID_2_)" fill="#FFFFFF" d="M365.425,671.682c5.485,7.363,11.003,14.932,16.697,22.366
		c5.301,6.92,10.89,13.618,16.147,20.57c2.253,2.979,4.946,6.156,5.657,9.609c0.594,2.888-0.472,7.153-2.435,9.339
		c-6.046,6.726-12.516,13.218-21.379,16.422c-0.761,0.275-1.682,0.603-2.119,1.203c-4.212,5.803-11.581,5.906-17.085,9.454
		c-3.838,2.475-7.93,0.476-10.456-3.113c-8.737-12.42-17.24-25.004-25.922-37.463c-1.609-2.308-3.326-4.786-5.581-6.315
		c-1.581-1.071-4.878-1.675-6.185-0.753c-9.44,6.657-19.651,11.667-30.651,14.943c-16.294,4.854-33.159,4.288-49.2,0.577
		c-15.691-3.629-30.916-10.035-44.162-19.849c-3.437-2.547-6.336-5.86-9.314-8.98c-7.545-7.903-15.695-15.365-22.288-24.005
		c-6.728-8.814-12.547-18.488-17.589-28.384c-8.684-17.042-16.816-34.391-24.452-51.927c-3.644-8.365-5.843-17.395-8.295-26.233
		c-3.07-11.062-5.731-22.237-8.561-33.366c-2.312-9.098-5.454-18.085-6.707-27.327c-1.47-10.841-1.399-21.901-1.801-32.873
		c-0.354-9.685-0.502-19.378-0.607-29.068c-0.033-3.118,0.359-6.24,0.55-9.36c0.794-13.024,1.123-26.098,2.503-39.06
		c1.539-14.463,4.475-28.777,5.988-43.242c1.559-14.913,6.438-28.201,15.16-40.426c7.973-11.174,16.131-21.79,28.666-28.397
		c5.015-2.643,8.879-7.543,13.955-9.98c18.313-8.792,37.472-12.985,57.879-8.683c3.52,0.742,7.277,0.268,10.886,0.688
		c14.043,1.633,28.218,2.665,42.046,5.417c7.346,1.462,14.215,5.73,21.064,9.196c12.585,6.368,22.332,16.413,32.735,25.661
		c13.764,12.24,21.244,28.463,29.121,44.406c7.589,15.36,14.74,30.953,21.529,46.682c2.398,5.553,3.056,11.839,4.686,17.741
		c3.859,13.979,8,27.884,11.67,41.91c1.674,6.396,2.509,13.011,3.718,19.526c1.408,7.595,2.993,15.161,4.163,22.792
		c1.171,7.64,2.354,15.32,2.752,23.023c0.501,9.691,0.508,19.436,0.14,29.135c-0.189,4.96-1.656,9.871-2.554,14.804
		c-0.089,0.487-0.321,0.962-0.335,1.446c-0.2,7.043,0.237,14.17-0.698,21.112c-1.438,10.691-3.811,21.258-5.801,31.875
		c-0.058,0.315-0.407,0.613-0.386,0.902c0.38,5.364-2.28,9.466-4.814,13.972c-5.111,9.086-9.211,18.736-13.889,28.073
		C368.877,667.708,367.196,669.348,365.425,671.682 M361.304,741.084c0.236-0.064,1.119-0.104,1.769-0.514
		c5.41-3.416,10.722-6.991,16.173-10.34c5.759-3.537,6.114-4.308,1.785-9.677c-9.134-11.329-18.413-22.543-27.725-33.726
		c-5.117-6.144-5.082-9.548-0.252-15.902c0.883-1.161,0.551-3.977-0.219-5.535c-2.96-5.998-2.16-9.812,3.401-13.611
		c0.668-0.457,1.583-0.845,1.886-1.497c3.997-8.548,9.744-16.786,11.463-25.788c3.965-20.772,6.311-41.883,8.66-62.929
		c2.147-19.231,1.538-38.514-1.452-57.667c-1.325-8.493-2.371-17.073-4.399-25.404c-3.867-15.885-8.278-31.64-12.601-47.409
		c-2.847-10.392-5.102-21.054-9.121-30.988c-5.255-12.992-12.074-25.346-18.049-38.054c-2.746-5.84-4.152-12.534-7.803-17.679
		c-7.631-10.755-15.266-21.519-25.709-30.132c-11.458-9.451-22.988-18.514-37.889-21.265c-11.729-2.165-23.652-3.366-35.53-4.593
		c-7.713-0.796-15.607-0.205-23.228-1.429c-9.985-1.603-20.006-1.662-28.878,2.555c-11.825,5.621-23.256,12.413-33.896,20.041
		c-5.365,3.848-8.721,10.568-12.787,16.135c-2.838,3.886-6.655,7.693-7.744,12.102c-3.249,13.156-6.061,26.503-7.754,39.939
		c-2.074,16.44-3.206,33.025-4.074,49.583c-0.945,18.035-1.849,36.127-1.445,54.164c0.499,22.287,5.568,43.969,12.039,65.24
		c4.808,15.803,9.912,31.529,15.447,47.09c2.86,8.039,7.04,15.602,10.458,23.451c6.223,14.291,12.753,28.493,22.771,40.536
		c9.924,11.931,20.566,23.273,31.123,34.662c2.074,2.238,5.03,3.868,7.863,5.156c7.08,3.218,14.248,6.278,21.522,9.031
		c8.537,3.23,17.104,6.647,26.601,5.124c3.922-0.629,7.861-1.165,11.802-1.659c11.71-1.47,23.088-3.689,32.992-10.892
		c4.269-3.104,9.168-5.386,13.936-7.726c1.228-0.603,3.135-0.328,4.573,0.084c7.307,2.101,13.403,5.598,17.872,12.327
		C343.144,716.323,352.137,728.267,361.304,741.084"/>
	<path clip-path="url(#SVGID_2_)" fill="#FFFFFF" d="M792.541,717.072c-8.188-1.075-17.014-2.296-25.858-3.367
		c-4.328-0.524-4.79-3.716-4.575-6.85c1.176-17.146,2.383-34.291,3.931-51.404c1.194-13.195,2.799-26.356,4.417-39.508
		c1.2-9.756,3.194-19.434,3.98-29.215c1.31-16.302,1.761-32.671,2.946-48.984c0.414-5.691,2.317-11.268,2.846-16.961
		c0.675-7.277,0.483-14.631,0.972-21.932c0.372-5.554,0.929-11.135,2.041-16.574c0.329-1.61,2.699-3.738,4.352-3.955
		c3.836-0.503,7.806,0,11.72,0.124c6.176,0.196,12.369,0.206,18.522,0.694c4.587,0.364,9.324,0.785,13.61,2.282
		c2.725,0.952,4.411,3.694,3.875,7.577c-1.805,13.077-3.188,26.214-4.607,39.342c-1.424,13.17-3.881,26.376-3.647,39.527
		c0.171,9.628-2.33,18.669-2.858,28.068c-0.545,9.693-2.877,19.279-4.316,28.929c-1.324,8.865-2.381,17.771-3.79,26.622
		c-0.918,5.76-2.495,11.422-3.266,17.195c-0.235,1.772,1.694,3.741,1.814,5.67c0.441,7.215,0.534,14.451,0.779,21.678
		c0.09,2.606,0.13,5.221,0.388,7.813c0.819,8.251-2.88,12.312-11.27,12.47C800.764,716.385,796.986,716.78,792.541,717.072
		 M820.34,492.813c-1.157-0.047-2.356-0.477-3.039-0.061c-4.407,2.692-8.959,2.804-13.851,1.62c-2.646-0.64-5.476-0.522-8.224-0.748
		c-0.119,2.701-0.188,5.405-0.38,8.101c-0.106,1.484-0.458,2.951-0.633,4.434c-1.07,9.128-3.21,18.288-2.962,27.382
		c0.562,20.566-2.584,40.8-4.093,61.172c-0.649,8.777-2.227,17.484-3.286,26.234c-1.479,12.236-3.172,24.458-4.215,36.733
		c-1.127,13.274-1.644,26.601-2.342,39.909c-0.114,2.151,0.307,3.655,3.416,3.439c4.509-0.314,9.121-0.071,13.616,0.507
		c5.771,0.741,6.422,0.339,6.102-5.53c-0.369-6.779-1.388-13.625-0.813-20.33c0.977-11.424,3.048-22.749,4.527-34.134
		c1.068-8.202,1.661-16.475,2.938-24.643c1.747-11.185,4.009-22.287,5.905-33.449c0.667-3.926,1.076-7.912,1.316-11.889
		c0.706-11.688,1.04-23.401,1.945-35.071C817.38,522.134,818.922,507.813,820.34,492.813"/>
	<path clip-path="url(#SVGID_2_)" fill="#FFFFFF" d="M827.731,423.259c-7.549-2.15-15.124-4.223-22.639-6.486
		c-3.751-1.13-7.593-2.236-11.046-4.024c-5.251-2.717-7.314-7.676-7.914-13.373c-1.006-9.53,2.687-18.259,4.588-27.289
		c0.74-3.519,1.428-7.143,2.865-10.401c1.981-4.497,5.272-7.842,10.688-8.149c0.587-0.033,1.475-0.278,1.681-0.693
		c3.813-7.7,11.563-8.744,18.321-8.728c5.93,0.015,12.086,2.949,17.69,5.561c3.438,1.604,6.241,4.889,5.966,9.492
		c-0.038,0.633,0.077,1.412,0.426,1.909c5.429,7.73,7.405,16.977,8.145,25.771c0.924,10.983-0.727,22.282-12.703,28.277
		c-3.774,1.889-7.168,4.524-10.897,6.518c-1.376,0.736-3.213,0.607-4.841,0.873C827.95,422.764,827.842,423.012,827.731,423.259
		 M799.418,392.964c1.139,1.837,1.996,4.738,3.93,6.025c4.126,2.748,8.714,4.876,13.285,6.863c7.06,3.069,13.941,2.983,20.276-2.085
		c3.183-2.546,5.889-9.982,4.923-13.857c-1.575-6.33-2.843-12.754-4.758-18.979c-1.767-5.743-4.105-11.429-11.676-11.409
		c-3.554,0.008-7.212,0.786-10.642,0.182c-5.894-1.038-8.334,3.483-9.448,6.909C802.653,374.775,801.446,383.406,799.418,392.964"/>
	<path clip-path="url(#SVGID_2_)" fill="#FFFFFF" d="M296.706,607.53c-2.05,1.699-3.404,3.366-5.154,4.175
		c-7.306,3.374-8.544,8.857-3.393,14.811c1.209,1.397,1.511,3.586,2.206,5.42c0.321,0.851,0.352,2.267,0.907,2.502
		c6.224,2.641,7.639,7.552,7.96,13.84c0.155,3.042,2.415,6.543,4.745,8.76c2.805,2.666,1.976,4.78,0.764,7.382
		c-3.184,6.836-9.586,8.644-16.089,10.281c-1.064,0.268-2.354,0.139-3.197,0.704c-8.276,5.558-17.113,9.116-27.324,8.733
		c-2.011-0.075-4.054,1.45-6.103,1.505c-6.875,0.188-14.152,1.446-20.533-0.347c-7.032-1.977-14.25-3.566-21.019-7.811
		c-9.561-5.995-17.093-13.891-25.445-21.028c-11.252-9.614-19.268-21.292-23.532-35.618c-2.91-9.779-6.97-19.222-9.744-29.033
		c-3.741-13.233-7.065-26.605-9.955-40.05c-2.392-11.135-3.791-22.48-5.824-33.697c-1.999-11.023-5.691-21.978-5.886-33.011
		c-0.137-7.807-1.477-15.44-1.519-23.19c-0.06-11.01,0.072-22.035-0.505-33.021c-0.377-7.177-0.882-14.464-1.122-21.556
		c-0.423-12.476,1.86-25.054,3.235-37.565c0.184-1.667,1.287-3.856,2.642-4.657c4.603-2.727,4.251-7.404,5.285-11.571
		c0.273-1.104,0.206-2.45,0.829-3.286c4.481-6.009,8.831-12.154,13.8-17.744c2.203-2.479,5.964-3.499,8.626-5.662
		c3.239-2.632,5.976-5.87,9.089-8.671c7.84-7.059,17.566-9.697,27.618-11.518c11.761-2.13,23.744-2.371,35.197,0.375
		c10.174,2.44,20.04,6.746,29.522,11.31c8.306,3.998,16.232,9.028,23.701,14.462c7.988,5.813,15.314,12.471,19.354,22.044
		c2.389,5.659,6.272,10.72,8.398,16.452c6.005,16.194,12.126,32.406,16.795,49.007c1.963,6.979,4.808,13.448,7.186,20.174
		c1.136,3.211,1.973,6.537,2.784,9.851c2.033,8.306,3.883,16.657,5.993,24.942c0.976,3.834,2.416,7.548,3.58,11.336
		c0.337,1.104,0.605,2.275,0.629,3.421c0.207,9.731,3.469,18.784,5.746,28.098c1.732,7.087,1.744,14.625,2.207,21.981
		c0.488,7.764,0.914,15.554,0.794,23.322c-0.115,7.451-0.582,14.943-1.604,22.319c-0.899,6.481-2.854,12.812-4.198,19.238
		c-0.662,3.167-0.649,6.505-1.546,9.589c-3.154,10.841-9.199,19.519-19.491,24.832c-2.933,1.515-5.66,3.481-8.687,4.748
		c-4.154,1.738-7.594,0.712-10.09-3.388c-2.475-4.065-5.603-7.751-7.894-11.907c-2.771-5.028-4.986-10.365-7.392-15.592
		C298.193,611.352,297.48,609.418,296.706,607.53 M240.058,667.414c15.019,1.061,27.742-2.852,40.121-8.441
		c2.734-1.234,4.014-3.084,3.028-5.909c-1.329-3.813-2.297-8.007-4.608-11.171c-5.097-6.977-10.29-13.816-11.988-22.482
		c-0.399-2.03-0.257-5.239,1.006-6.352c9.288-8.179,18.694-16.271,28.598-23.674c2.771-2.071,7.223-2.039,9.617,2.606
		c4.458,8.648,9.101,17.208,13.906,25.669c1.391,2.45,3.243,5.219,5.591,6.285c1.05,0.477,4.774-2.487,5.676-4.583
		c2.903-6.745,6.159-13.643,7.259-20.793c1.979-12.864,3.075-25.938,3.437-38.954c0.31-11.195-0.171-22.533-1.672-33.623
		c-1.566-11.56-4.656-22.923-7.288-34.324c-3.153-13.647-6.327-27.296-9.898-40.837c-1.587-6.016-4.594-11.653-6.224-17.661
		c-5.625-20.722-11.57-41.194-20.823-60.796c-5.79-12.266-14.286-21.66-24.629-28.967c-14.299-10.102-29.861-17.92-48.033-20.085
		c-18.668-2.223-35.184-0.11-48.18,14.872c-0.847,0.976-1.979,1.904-3.167,2.35c-10.371,3.896-14.902,12.396-17.928,22.214
		c-0.516,1.673-1.397,3.515-2.677,4.622c-6.922,5.985-8.234,13.834-8.085,22.35c0.175,9.944,0.087,19.893,0.25,29.837
		c0.062,3.795,0.471,7.586,0.78,11.374c0.685,8.369,1.693,16.726,2.04,25.108c0.419,10.125-0.088,20.311,1.918,30.312
		c0.642,3.199,2.567,6.171,3.025,9.372c1.285,8.99,1.804,18.095,3.196,27.064c1.876,12.09,4.21,24.11,6.494,36.132
		c1.232,6.481,2.354,13.03,4.265,19.324c3.08,10.14,6.426,20.233,10.314,30.087c3.175,8.046,6.523,16.233,11.253,23.393
		c4.172,6.313,10.349,11.307,15.665,16.858C212.948,659.713,225.094,667.777,240.058,667.414"/>
	<path clip-path="url(#SVGID_2_)" fill="#FFFFFF" d="M753.961,4.047c3.714,0.139,7.494-0.112,11.122,0.516
		c4.577,0.794,9.191,1.847,12.961,4.998c1.055,0.879,2.787,1.062,3.63,2.055c3.482,4.109,7.373,8.066,9.891,12.737
		c2.09,3.878,2.494,8.673,3.592,13.076c0.3,1.203,0.438,2.449,0.603,3.682c0.434,3.274,0.517,6.442-0.774,9.671
		c-0.812,2.032-0.257,4.625-1.115,6.625c-1.969,4.595-4.022,9.255-6.813,13.365c-2.312,3.404-5.894,5.921-8.544,9.134
		c-0.726,0.877-0.693,3.204-0.034,4.256c2.964,4.731,5.935,9.515,10.667,12.826c0.804,0.563,1.335,1.568,1.883,2.436
		c1.758,2.78,2.601,6.259,6.02,7.759c0.221,0.096,0.483,0.368,0.514,0.586c0.667,4.973,5.986,6.601,7.75,10.798
		c0.529,1.261,1.356,2.399,2.054,3.589c2.489,4.245,5.152,8.4,7.421,12.759c2.312,4.441-0.885,9.525-5.885,9.651
		c-2.735,0.069-6.363,1.029-8.012-0.329c-2.69-2.214-5.346-5.835-5.767-9.148c-0.809-6.37-5.672-9.846-8.456-14.736
		c-1.851-3.254-3.907-6.431-6.214-9.375c-1.762-2.25-4.694-3.743-5.989-6.168c-2.8-5.251-7.7-8.615-11.016-13.351
		c-0.455-0.65-1.849-1.036-2.732-0.927c-3.57,0.443-7.155,0.944-10.646,1.791c-2.035,0.494-3.055,2.177-3.055,4.444
		c0.001,4.778,0.021,9.565-0.267,14.331c-0.148,2.472-0.828,4.866,0.388,7.287c0.294,0.585-0.138,1.514-0.176,2.289
		c-0.048,0.951-0.312,2.01-0.003,2.843c2.29,6.132,1.216,12.212-0.266,18.25c-0.156,0.631-1.789,1.468-2.519,1.295
		c-3.4-0.807-6.724-1.942-10.077-2.949c-2.346-0.703-3.584-2.779-3.482-5.268c0.072-1.721-0.375-3.456-0.402-5.189
		c-0.042-2.676,0.107-5.353,0.117-8.031c0.011-2.604-0.124-5.209-0.061-7.811c0.062-2.621,0.345-5.235,0.435-7.856
		c0.247-7.232,0.331-14.472,0.704-21.696c0.213-4.127,1.017-8.223,1.274-12.35c0.236-3.809,0.069-7.643,0.139-11.466
		c0.061-3.351,0.277-6.703,0.267-10.053c-0.004-1.34-0.731-2.707-0.607-4.012c0.668-7.015,1.556-14.009,2.254-21.021
		c0.418-4.213,0.621-8.447,0.927-12.671c0.196-2.684,1.588-4.409,4.136-5.29c3.065-1.058,6.067-2.322,9.171-3.246
		c1.575-0.468,3.313-0.384,4.979-0.551C753.949,3.751,753.955,3.898,753.961,4.047 M748.172,75.666
		c2.11-0.253,3.672-0.384,5.213-0.634c7.052-1.143,12.48-5.22,17.582-9.845c6.078-5.514,9.517-12.333,9.585-20.595
		c0.02-2.482-0.944-4.96-1.054-7.457c-0.14-3.23-1.154-6.054-3.03-8.595c-0.891-1.204-1.915-2.322-2.98-3.378
		c-1.849-1.833-3.67-3.72-5.693-5.348c-4.778-3.844-10.593-2.625-16.069-3.099c-2.889-0.25-3.788,1.369-4.119,3.734
		c-0.098,0.698-0.059,1.419-0.039,2.128c0.127,4.962,0.295,9.922,0.391,14.885c0.063,3.242-0.018,6.486,0.046,9.728
		c0.057,2.795,0.604,5.635,0.256,8.37c-0.492,3.873-1.346,7.662,0.104,11.496c0.106,0.279-0.188,0.684-0.19,1.032
		C748.156,70.485,748.168,72.885,748.172,75.666"/>
	<path clip-path="url(#SVGID_2_)" fill="#FFFFFF" d="M397.799,104.064c0.495-7.023,1.158-14.041,1.412-21.074
		c0.125-3.486-0.627-6.994-0.764-10.501c-0.205-5.22-0.356-10.449-0.271-15.67c0.085-5.26,0.614-10.512,0.686-15.772
		c0.03-2.178-0.319-4.473-1.034-6.528c-1.46-4.201-1.735-8.215,0.12-12.38c0.984-2.207,1.515-4.616,2.25-6.934
		c0.028-0.085,0.039-0.185,0.092-0.249c2.351-2.887,5.615-1.047,8.402-1.328c0.781-0.078,2.297,2.594,2.685,4.197
		c0.638,2.634,0.629,5.425,0.896,8.148c0.008,0.087,0.097,0.185,0.074,0.252c-1.742,5.164,0.966,10.114,0.722,15.195
		c-0.149,3.091-0.511,6.17-0.725,9.259c-0.073,1.058,0.001,2.127,0.028,3.191c0.093,3.673,0.198,7.346,0.287,11.02
		c0.004,0.171-0.175,0.414-0.109,0.506c2.255,3.11,0.519,6.545,0.622,9.778c0.221,6.905,2.245,13.81,0.147,20.77
		c-0.484,1.604-0.771,3.804-0.043,5.117c1.173,2.119,0.118,3.49-0.367,5.278c-1.642,6.059-2.937,12.212-4.572,18.274
		c-0.903,3.353-2.257,6.583-3.33,9.893c-0.429,1.326-0.419,2.828-1.005,4.061c-1.682,3.541-3.047,7.424-5.513,10.349
		c-2.537,3.01-5.969,5.551-9.495,7.35c-2.612,1.332-6.062,1.793-9.027,1.501c-5.865-0.579-11.93-0.873-17.147-4.253
		c-0.875-0.567-1.913-1.051-2.518-1.846c-4.492-5.898-7.977-12.337-9.314-19.695c-0.526-2.901-0.291-5.933-0.517-8.897
		c-0.467-6.084-1.143-12.156-1.475-18.246c-0.197-3.605,0.275-7.244,0.12-10.853c-0.133-3.119-1.065-6.22-1.047-9.326
		c0.034-6.239,1.008-12.513,0.586-18.703c-0.362-5.332,1.035-10.34,1.246-15.508c0.147-3.611-0.75-7.273-0.524-10.872
		c0.339-5.36,1.054-10.723,2.065-15.997c0.271-1.418,1.995-3.151,3.414-3.604c1.701-0.543,3.633-0.495,5.48,1.32
		c3.205,3.149,5.053,6.054,2.844,10.593c-0.608,1.247,0.09,3.105,0.097,4.682c0.027,6.203,0.543,12.465-0.144,18.59
		c-0.537,4.792,0.087,9.399,0.153,14.093c0.054,3.729-0.679,7.469-1.069,11.205c-0.064,0.614-0.269,1.233-0.222,1.835
		c0.429,5.537,0.382,11.179,1.517,16.571c0.928,4.41,0.464,8.804,1.081,13.05c0.888,6.095,0.117,12.181,0.995,18.181
		c0.671,4.584,3.099,8.721,6.627,11.409c3.458,2.632,7.982,3.374,12.382,1.552c0.758-0.313,1.609-0.891,1.977-1.582
		c5.771-10.815,9.238-22.384,11.051-34.473c0.144-0.961,0.087-1.952,0.124-2.93C397.766,104.064,397.782,104.064,397.799,104.064"/>
	<path clip-path="url(#SVGID_2_)" fill="#FFFFFF" d="M856.652,31.341c0.212,2.868,0.5,5.731,0.614,8.603
		c0.127,3.173,0.275,6.364,0.079,9.526c-0.165,2.666,1.272,3.653,3.426,3.663c7.548,0.032,15.107,0.094,22.641-0.274
		c4.997-0.244,9.377,2.55,10.381,7.439c0.471,2.294-0.857,3.695-2.61,4.67c-1.767,0.984-3.665,1.744-5.535,2.533
		c-2.972,1.253-5.916,3.455-9.06,0.205c-0.346-0.356-1.373-0.051-2.082-0.058c-1.651-0.02-3.305-0.127-4.951-0.046
		c-2.873,0.141-5.804,0.107-8.588,0.715c-1.718,0.375-3.127,1.571-2.709,4.117c0.438,2.661,0.237,5.46,0.057,8.181
		c-0.434,6.591,0.851,13.228-0.873,19.815c-0.492,1.888,0.608,4.141,0.666,6.237c0.074,2.705-0.157,5.419-0.272,8.129
		c-0.161,3.793-0.563,7.601-0.314,11.365c0.052,0.77,2.477,1.797,3.892,1.956c1.746,0.197,3.574-0.457,5.378-0.618
		c1.588-0.142,3.194-0.062,4.788-0.172c2.735-0.188,5.463-0.543,8.201-0.657c5.99-0.251,11.985-0.413,17.98-0.571
		c1.667-0.044,2.713,0.846,3.51,2.325c0.618,1.146,1.64,2.073,2.461,3.112c2.92,3.691,1.51,8.06-2.99,9.409
		c-1.41,0.421-2.744,1.284-4.166,1.431c-1.758,0.183-3.669,0.146-5.34-0.366c-2.425-0.742-4.643-1.222-7.199-0.386
		c-3.258,1.065-6.605,1.187-10.088,0.449c-1.735-0.367-3.744,0.66-5.647,0.946c-1.165,0.176-2.362,0.183-3.545,0.188
		c-0.523,0.002-1.042-0.244-1.571-0.285c-5.592-0.433-11.183-0.855-16.775-1.262c-3.235-0.234-4.387-2.817-5.271-5.201
		c-0.582-1.566-0.145-3.524-0.096-5.305c0.048-1.845,0.531-3.752,0.205-5.518c-0.744-4.027-1.424-7.864,0.072-11.981
		c2.044-5.623,0.579-11.463,0.15-17.212c-0.05-0.692-0.453-1.553-0.174-2.039c1.552-2.72,1.075-5.605,1.1-8.506
		c0.023-2.566,0.747-5.12,0.845-7.692c0.075-2.018-0.387-4.051-0.512-6.084c-0.114-1.888-0.167-3.786-0.127-5.676
		c0.047-2.207,0.035-4.44,0.382-6.608c0.75-4.689,0.068-9.258-0.472-13.905c-0.517-4.455-0.285-8.996-0.43-13.498
		c-0.078-2.423-0.063-4.873-0.443-7.255c-0.489-3.072,2.886-9.741,5.738-10.982c3.716-1.617,7.36-3.407,11.104-4.951
		c1.101-0.453,2.45-0.258,3.666-0.473c3.529-0.627,7.039-1.368,10.574-1.96c3.855-0.647,7.729-1.186,11.595-1.757
		c4.005-0.592,7.998-1.276,12.021-1.706c2.273-0.243,4.715,0.4,6.865-0.171c3.711-0.986,6.68-0.537,9.371,2.322
		c0.925,0.983,3.255,1.235,3.476,2.168c0.531,2.243,0.348,4.707,0.117,7.048c-0.075,0.759-1.083,1.802-1.868,2.039
		c-2.107,0.638-4.351,1.37-6.494,1.246c-8.622-0.497-17.03,1.125-25.498,2.171c-4.695,0.581-9.384,1.215-14.066,1.894
		c-0.937,0.134-1.812,0.642-2.74,0.871c-1.426,0.35-2.894,0.924-4.31,0.841c-3.05-0.183-4.227,0.704-4.267,3.84
		c-0.016,1.235,0.062,2.47,0.097,3.705C856.896,31.33,856.773,31.336,856.652,31.341"/>
	<path clip-path="url(#SVGID_2_)" fill="#FFFFFF" d="M564.043,142.945c-1.77-0.348-4.904-0.335-7.398-1.593
		c-4.206-2.123-4.572-6.368-4.154-10.618c0.615-6.247,1.416-12.481,1.864-18.74c0.729-10.221,1.174-20.461,1.872-30.684
		c0.275-4.023,1.122-8.014,1.283-12.038c0.077-1.941-1.229-3.926-1.209-5.884c0.044-4.273,0.721-8.539,0.795-12.813
		c0.077-4.501-0.135-9.016-0.443-13.51c-0.171-2.492-1.58-4.123-4.161-4.896c-6.649-1.993-13.309-3.992-19.822-6.378
		c-2.678-0.982-5.263-2.657-7.406-4.561c-3.942-3.504-7.74-7.225-11.186-11.213c-2.422-2.802-1.789-6.248,0.802-8.424
		c2.588-2.172,6.553-2.055,9.092-0.065c5.056,3.964,10.009,8.139,15.453,11.504c3.732,2.308,8.177,3.517,12.384,4.988
		c3.25,1.136,6.594,2.046,9.952,2.821c6.882,1.59,13.031-1.488,19.404-3.215c7.024-1.905,11.812-6.941,16.795-11.694
		c2.924-2.789,5.955-3.352,9.081-1.302c2.712,1.777,3.531,5.472,2.858,8.697c-1.103,5.289-5.112,7.423-9.197,9.699
		c-3.082,1.718-5.955,3.889-9.177,5.252c-4.558,1.93-9.262,3.688-14.07,4.807c-5.171,1.204-6.981,3.288-6.485,8.716
		c0.274,2.999,0.319,6.062,0.052,9.059c-0.459,5.168-1.159,10.218-0.222,15.495c1.478,8.325,1.883,16.703-0.293,25.129
		c-0.812,3.144,0.078,6.704,0.025,10.071c-0.059,3.835-0.389,7.666-0.453,11.501c-0.125,7.577-0.152,15.155-0.2,22.732
		c-0.004,0.616,0.163,1.232,0.232,1.85C570.541,141.465,569.001,143.122,564.043,142.945"/>
	<path clip-path="url(#SVGID_2_)" fill="#FFFFFF" d="M295.093,137.561c3.493,0.462,6.508,0.176,8.67-2.678
		c0.306-0.402,0.574-0.847,0.78-1.308c2.085-4.664,4.078-9.37,6.256-13.99c1.2-2.546,5.154-5.711,8.179-4.544
		c1.852,0.714,3.512,1.926,5.247,2.935c0.121,0.07,0.232,0.341,0.193,0.472c-1.059,3.586,1.112,7.454-0.97,10.95
		c-3.129,5.262-5.711,10.975-9.571,15.629c-2.27,2.738-6.387,4.399-9.992,5.453c-3.811,1.115-7.998,1.182-12.026,1.219
		c-2.131,0.02-4.253-1.082-6.411-1.527c-7.689-1.585-14.445-4.542-18.7-11.691c-1.564-2.629-3.917-4.825-5.255-7.541
		c-1.142-2.319-1.403-5.089-1.941-7.683c-0.32-1.541-0.431-3.126-0.619-4.692c-0.662-5.502-2.129-11.065-1.737-16.491
		c0.362-5.006,0.259-9.823-0.246-14.765c-0.193-1.891,1.194-3.899,1.609-5.906c0.393-1.901,0.353-3.886,0.691-5.801
		c0.6-3.397,1.361-6.766,2.019-10.152c0.709-3.647,1.444-7.291,2-10.962c0.103-0.679-0.655-1.458-0.898-2.229
		c-0.218-0.693-0.6-1.626-0.319-2.109c0.308-0.527,1.293-0.659,1.984-0.96c1.017-0.442,2.333-0.615,3.003-1.366
		c4.342-4.868,9.027-9.274,15.408-11.245c4.264-1.319,8.594-2.624,12.993-3.256c5.129-0.738,9.311,2.099,13.45,4.759
		c2.658,1.708,5.081,3.495,5.879,6.762c6.468,4.594,4.697,12.283,6.787,18.506c0.58,1.725-0.418,3.984-0.716,5.995
		c-0.037,0.245-0.181,0.515-0.356,0.694c-2.157,2.198-8.309,0.72-10.02-1.909c-2.826-4.34-3.087-9.273-4.143-14.057
		c-0.277-1.254-1.165-2.471-2.04-3.473c-1.161-1.332-2.547-2.477-3.899-3.63c-2.387-2.036-5.088-2.232-7.865-0.68
		c-3.357,1.878-6.868,3.525-10.021,5.696c-1.537,1.058-2.714,2.943-3.507,4.701c-1.057,2.342-1.748,4.889-2.295,7.413
		c-0.852,3.922-1.489,7.892-2.144,11.854c-0.686,4.152-1.296,8.317-1.917,12.48c-0.091,0.611-0.051,1.24-0.095,1.86
		c-0.195,2.773-0.138,5.595-0.66,8.306c-0.896,4.665-0.065,9.036,1.152,13.517c1.066,3.931,1.146,8.151,2.401,12.004
		c0.838,2.575,2.532,5.264,4.613,6.96C284.436,134.659,289.176,137.991,295.093,137.561"/>
	<path clip-path="url(#SVGID_2_)" fill="#FFFFFF" d="M642.283,49.933c0.033,4.688,0.158,9.378,0.074,14.064
		c-0.086,4.802-0.378,9.601-0.577,14.401c-0.158,3.819-0.443,7.64-0.422,11.459c0.013,2.108,0.544,4.212,0.835,6.318
		c0.834,6.042,1.393,12.14,4.112,17.757c0.543,1.122,0.768,2.409,1.06,3.64c1.252,5.279,5.609,5.491,9.749,5.89
		c3.959,0.382,6.276-1.555,8.488-4.969c4.193-6.472,5.216-13.799,6.672-20.963c0.813-3.998-0.038-8.319,0.019-12.492
		c0.038-2.875,0.388-5.744,0.525-8.62c0.342-7.146,0.778-14.294,0.879-21.445c0.033-2.335-0.927-4.672-1.305-7.028
		c-1.017-6.36,3.054-7.542,7.26-8.757c1.412-0.408,3.185-0.313,4.593,0.154c3.706,1.227,6.17,7.339,4.803,10.927
		c-0.66,1.732-1.287,3.628-1.27,5.442c0.066,6.41,0.415,12.819,0.661,19.227c0.015,0.352,0.207,0.767,0.08,1.046
		c-2.658,5.834-1.546,11.95-1.31,17.978c0.262,6.7-0.305,13.223-3.143,19.41c-0.282,0.617-0.216,1.392-0.317,2.092
		c-0.411,2.823-1.077,5.441-2.938,7.836c-1.707,2.199-2.586,5.021-4.116,7.383c-3.403,5.253-8.902,6.42-14.587,6.938
		c-5.972,0.543-11.731,0.34-17.667-1.667c-6.245-2.111-9.153-6.195-10.773-11.958c-1.691-6.015-3.805-11.949-4.979-18.064
		c-1.209-6.296-1.641-12.756-2.157-19.164c-0.365-4.544-0.379-9.121-0.387-13.684c-0.002-1.136,0.884-2.267,0.914-3.413
		c0.109-4.051,0.736-8.275-0.162-12.124c-1.222-5.239,1.96-9.681,1.541-14.635c-0.028-0.338,0.522-0.877,0.926-1.079
		c4.513-2.244,9.729-0.69,12.091,3.759c0.662,1.249,0.693,2.832,1.015,4.263C642.407,49.88,642.346,49.907,642.283,49.933"/>
	<path clip-path="url(#SVGID_2_)" fill="#FFFFFF" d="M450.266,120.617c-0.367-6.661-0.699-13.324-1.119-19.981
		c-0.167-2.654-1.187-5.439-0.649-7.91c0.838-3.84,0.179-7.664,0.783-11.5c0.734-4.676,0.55-9.515,0.556-14.285
		c0.008-5.994-0.263-11.988-0.231-17.981c0.005-0.914,0.776-2.144,1.565-2.683c5.557-3.799,11.918-0.833,12.58,5.873
		c0.303,3.072,0.327,6.181,0.321,9.273c-0.015,7.078-0.91,14.264,0.052,21.199c0.768,5.535-0.05,10.932,0.426,16.385
		c0.357,4.088-0.155,8.263-0.429,12.39c-0.204,3.079,0.6,4.445,3.666,5.065c5.086,1.029,10.057,0.644,15.111-0.735
		c4.051-1.104,8.334-1.356,12.513-1.995c0.599-0.092,1.197-0.213,1.789-0.346c2.929-0.665,5.843-1.642,8.808-0.074
		c0.44,0.233,1.12,0.349,1.564,0.183c4.3-1.612,6.563,1.56,8.936,4.007c0.69,0.71,0.59,2.52,0.354,3.729
		c-0.738,3.758-3.819,6.011-7.743,6.329c-7.04,0.574-14.06,1.251-21.08,2.191c-6.271,0.84-12.716,2.136-19.294,0.72
		c-3.729-0.801-7.775-0.127-11.677-0.119c-5.429,0.013-7.625-2.3-7.436-7.833c0.022-0.622,0.047-1.244,0.071-1.866
		C449.89,120.641,450.079,120.628,450.266,120.617"/>
	
		<path clip-path="url(#SVGID_2_)" fill="none" stroke="#FFFFFF" stroke-width="13" stroke-linecap="round" stroke-linejoin="round" stroke-miterlimit="10" d="
		M92.807,100.913c32.148-5.135,64.297-10.27,96.445-15.403"/>
	
		<path clip-path="url(#SVGID_2_)" fill="none" stroke="#FFFFFF" stroke-width="13" stroke-linecap="round" stroke-linejoin="round" stroke-miterlimit="10" d="
		M6.5,157.016c59.467-11.357,119.256-21.033,179.271-29.01"/>
	
		<path clip-path="url(#SVGID_2_)" fill="none" stroke="#FFFFFF" stroke-width="13" stroke-linecap="round" stroke-linejoin="round" stroke-miterlimit="10" d="
		M985.035,53.125c42.181-3.637,84.36-7.273,126.541-10.909"/>
	
		<line clip-path="url(#SVGID_2_)" fill="none" stroke="#FFFFFF" stroke-width="13" stroke-linecap="round" stroke-linejoin="round" stroke-miterlimit="10" x1="973.531" y1="91.821" x2="1240.355" y2="80.439"/>
</g>
</svg>
