<?xml version="1.0" encoding="utf-8"?>
<!-- Generator: Adobe Illustrator 16.0.4, SVG Export Plug-In . SVG Version: 6.00 Build 0)  -->
<!DOCTYPE svg PUBLIC "-//W3C//DTD SVG 1.1//EN" "http://www.w3.org/Graphics/SVG/1.1/DTD/svg11.dtd">
<svg version="1.1" id="Layer_1" xmlns="http://www.w3.org/2000/svg" xmlns:xlink="http://www.w3.org/1999/xlink" x="0px" y="0px"
	 width="117.086px" height="94.339px" viewBox="0 0 117.086 94.339" enable-background="new 0 0 117.086 94.339"
	 xml:space="preserve">
<g>
	<defs>
		<rect id="SVGID_1_" width="117.086" height="94.339"/>
	</defs>
	<clipPath id="SVGID_2_">
		<use xlink:href="#SVGID_1_"  overflow="visible"/>
	</clipPath>
	
		<path clip-path="url(#SVGID_2_)" fill="none" stroke="#FFFFFF" stroke-linecap="round" stroke-linejoin="round" stroke-miterlimit="10" d="
		M47.082,0.502C34.436,0.377,21.799,4.971,12.185,13.186C5.749,18.685,0.46,26.361,0.5,34.825
		c0.025,5.326,2.192,10.508,5.461,14.713s7.591,7.497,12.204,10.16c18.075,10.436,41.4,11.153,60.083,1.847
		c6.605-3.291,12.874-8.036,15.916-14.76c3.928-8.682,1.562-19.407-4.521-26.741C83.561,12.708,74.308,8.505,64.896,7.007
		c-9.41-1.499-19.041-0.517-28.44,1.058"/>
	
		<path clip-path="url(#SVGID_2_)" fill="none" stroke="#FFFFFF" stroke-linecap="round" stroke-linejoin="round" stroke-miterlimit="10" d="
		M58.235,56.425c3.101,7.123,16.413,40.875,58.351,37.125"/>
	
		<path clip-path="url(#SVGID_2_)" fill="none" stroke="#FFFFFF" stroke-linecap="round" stroke-linejoin="round" stroke-miterlimit="10" d="
		M15.28,21.962c1.034,9.606,2.067,19.211,3.101,28.817c-0.043-0.327-0.086-0.652-0.129-0.98"/>
	
		<path clip-path="url(#SVGID_2_)" fill="none" stroke="#FFFFFF" stroke-linecap="round" stroke-linejoin="round" stroke-miterlimit="10" d="
		M29.499,41.956c0.442-4.527,0.885-9.054,1.328-13.581c1.743,4.368,3.487,8.734,5.231,13.102"/>
	
		<path clip-path="url(#SVGID_2_)" fill="none" stroke="#FFFFFF" stroke-linecap="round" stroke-linejoin="round" stroke-miterlimit="10" d="
		M11.339,23.981c1.364-2.387,4.31-3.703,7.027-3.288c2.717,0.414,5.082,2.451,6.059,5.019c0.978,2.57,0.605,5.573-0.82,7.924
		c-1.425,2.35-3.837,4.041-6.49,4.76"/>
	
		<path clip-path="url(#SVGID_2_)" fill="none" stroke="#FFFFFF" stroke-linecap="round" stroke-linejoin="round" stroke-miterlimit="10" d="
		M26.424,38.15c3.488-0.931,6.977-1.863,10.466-2.794"/>
	
		<path clip-path="url(#SVGID_2_)" fill="none" stroke="#FFFFFF" stroke-linecap="round" stroke-linejoin="round" stroke-miterlimit="10" d="
		M40.276,19.92c-2.528,1.835-2.626,5.657-1.516,8.577c1.11,2.921,3.127,5.44,4.137,8.397c1.471,4.31,0.529,9.359-2.397,12.849"/>
	
		<path clip-path="url(#SVGID_2_)" fill="none" stroke="#FFFFFF" stroke-linecap="round" stroke-linejoin="round" stroke-miterlimit="10" d="
		M56.35,43.8l-0.13-20.5c0.999,1.393,2.084,2.582,3.083,3.975c1.298-1.42,2.594-2.84,3.89-4.26
		c0.356,7.092,0.714,14.183,1.071,21.276"/>
	
		<path clip-path="url(#SVGID_2_)" fill="none" stroke="#FFFFFF" stroke-linecap="round" stroke-linejoin="round" stroke-miterlimit="10" d="
		M69.203,40.956c0.696-3.948,1.395-7.896,2.091-11.843c1.177,3.999,2.352,7.999,3.527,11.999"/>
	
		<path clip-path="url(#SVGID_2_)" fill="none" stroke="#FFFFFF" stroke-linecap="round" stroke-linejoin="round" stroke-miterlimit="10" d="
		M78.582,22.965c-0.017,7.2-0.035,14.399-0.052,21.599c2.51-0.997,5.021-1.995,7.532-2.992"/>
	
		<line clip-path="url(#SVGID_2_)" fill="none" stroke="#FFFFFF" stroke-linecap="round" stroke-linejoin="round" stroke-miterlimit="10" x1="69.921" y1="36.163" x2="72.921" y2="35.995"/>
</g>
</svg>
