<?xml version="1.0" standalone="no"?>
<!DOCTYPE svg PUBLIC "-//W3C//DTD SVG 20010904//EN"
 "http://www.w3.org/TR/2001/REC-SVG-20010904/DTD/svg10.dtd">
<svg version="1.0" xmlns="http://www.w3.org/2000/svg"
 width="260.000000pt" height="260.000000pt" viewBox="0 0 260.000000 260.000000"
 preserveAspectRatio="xMidYMid meet">
<metadata>
Created by potrace 1.11, written by Peter Selinger 2001-2013
</metadata>
<g transform="translate(0.000000,260.000000) scale(0.100000,-0.100000)"
fill="#000000" stroke="none">
<path d="M768 2533 c-25 -38 -85 -133 -134 -213 -49 -80 -92 -149 -97 -155
-27 -33 -187 -303 -187 -316 0 -31 27 -53 74 -58 l46 -6 -82 -125 c-272 -419
-256 -388 -229 -421 14 -18 30 -23 76 -26 32 -1 59 -4 61 -5 1 -2 -51 -88
-117 -192 -65 -104 -119 -198 -119 -208 0 -10 9 -27 20 -38 19 -19 33 -20 295
-20 151 0 275 -4 275 -9 0 -4 -8 -19 -18 -32 -38 -50 -102 -161 -106 -182 -8
-44 18 -61 98 -65 l73 -4 1 -162 c0 -224 -1 -214 23 -227 12 -6 67 -11 127
-11 145 0 140 -7 140 209 0 93 1 174 1 181 1 8 25 12 86 12 l85 0 0 -213 c0
-263 -10 -247 148 -247 150 0 142 -14 142 252 l0 208 85 0 c47 0 85 -3 86 -7
0 -5 1 -88 2 -185 2 -220 -4 -211 135 -210 55 0 109 3 120 6 32 10 38 48 37
224 -1 90 1 165 5 167 3 2 35 5 70 6 73 3 102 22 94 63 -2 14 -31 68 -64 120
-33 53 -60 98 -60 101 0 3 124 5 275 5 266 0 276 1 296 21 13 13 19 30 17 43
-3 12 -56 105 -119 205 -63 101 -113 186 -111 189 1 3 27 6 57 5 55 0 74 10
88 49 6 16 -24 65 -231 383 l-91 140 46 6 c46 5 73 27 73 59 0 9 -52 99 -116
201 -64 101 -124 196 -133 211 -9 15 -58 95 -110 178 -97 154 -121 177 -160
153 -8 -5 -76 -107 -151 -226 -74 -118 -138 -218 -141 -221 -3 -4 -28 30 -55
74 -74 121 -103 121 -180 -1 l-51 -82 -89 142 c-49 78 -93 150 -99 159 -109
188 -137 201 -207 95z m195 -294 c64 -102 119 -193 123 -203 4 -10 -3 -31 -18
-54 -86 -129 -249 -397 -253 -415 -8 -34 18 -59 69 -64 26 -3 46 -7 46 -9 0
-1 -72 -113 -160 -248 -88 -135 -160 -253 -160 -264 0 -39 24 -55 86 -57 32
-1 59 -4 58 -6 -9 -34 -17 -49 -27 -50 -7 0 -121 -1 -255 -2 -212 -2 -242 0
-237 13 4 8 56 95 117 193 64 103 110 188 111 203 0 36 -30 53 -90 54 -29 0
-53 2 -53 5 0 3 72 116 160 252 88 135 160 253 160 263 0 39 -32 57 -107 59
-22 1 -22 1 6 44 24 35 94 147 278 440 14 22 26 37 27 35 2 -1 56 -87 119
-189z m941 -23 c69 -109 126 -200 126 -202 0 -2 14 -24 31 -50 25 -36 29 -48
18 -54 -7 -5 -17 -6 -22 -3 -25 16 -87 -24 -87 -56 0 -10 72 -129 160 -264 88
-135 160 -248 160 -251 0 -3 -24 -6 -52 -6 -59 0 -70 -5 -86 -36 -13 -25 6
-66 78 -175 22 -33 40 -62 40 -65 0 -2 27 -45 60 -94 54 -82 57 -90 37 -91
-26 -1 -455 -1 -479 0 -14 1 -34 35 -30 50 1 3 27 6 59 6 96 3 105 44 35 150
-93 141 -272 416 -272 419 0 2 20 6 46 9 50 5 74 28 68 63 -2 13 -65 120 -140
239 -86 137 -134 222 -130 232 15 39 242 391 248 385 4 -4 63 -96 132 -206z
m-1034 -1899 l0 -143 -25 -2 c-14 -1 -26 2 -26 6 -1 4 -3 69 -4 145 l-3 137
29 0 29 0 0 -143z m926 1 l-1 -143 -25 0 -25 0 -3 143 -3 142 30 0 29 0 -2
-142z"/>
</g>
</svg>
