<svg xmlns="http://www.w3.org/2000/svg" xmlns:xlink="http://www.w3.org/1999/xlink" width="101.888" height="69.833" viewBox="0 0 101.888 69.833"><defs><path id="a" d="M0 0h101.888v69.833H0z"/></defs><clipPath id="b"><use xlink:href="#a" overflow="visible"/></clipPath><path clip-path="url(#b)" fill="#FFF" d="M24.333 21.883h.432c.383 0 .647.276.455.744-.683 1.619-1.847 2.398-3.454 2.398-2.219 0-3.658-1.919-3.658-4.449 0-2.639 1.475-4.462 3.754-4.462 1.583 0 2.867 1.08 3.25 2.555.072.288-.06.588-.36.672l-.347.095c-.324.084-.66-.035-.744-.371-.216-.888-.851-1.499-1.799-1.512-1.379-.011-2.243 1.188-2.243 3.011 0 1.727.828 2.986 2.159 2.986.96 0 1.607-.444 1.931-1.259.107-.276.348-.408.624-.408M26.795 20.576c0-2.591 1.451-4.461 3.61-4.461s3.61 1.87 3.61 4.461c0 2.59-1.427 4.449-3.61 4.449-2.181 0-3.61-1.859-3.61-4.449m1.512 0c0 1.727.78 2.998 2.099 2.998 1.319 0 2.099-1.271 2.099-2.998 0-1.703-.803-3.046-2.099-3.046-1.296 0-2.099 1.343-2.099 3.046M36.575 24.929c-.408 0-.576-.276-.576-.576v-7.555c0-.3.192-.588.576-.588h.348c.384 0 .576.288.576.588v6.656h3.454c.3 0 .576.18.576.576v.323c0 .396-.276.576-.576.576h-4.378zM43.427 24.929c-.408 0-.576-.276-.576-.576v-7.555c0-.3.192-.588.576-.588h.348c.384 0 .576.288.576.588v6.656h3.454c.3 0 .576.18.576.576v.323c0 .396-.276.576-.576.576h-4.378zM51.214 17.673v2.015h2.699c.335 0 .599.215.599.588v.287c0 .372-.264.588-.599.588h-2.699v2.314h3.73c.36 0 .6.265.6.576v.312c0 .324-.239.576-.6.576h-4.653c-.408 0-.588-.264-.588-.576v-7.555c0-.312.18-.588.588-.588h4.438c.312 0 .576.215.576.588v.287c0 .36-.265.588-.576.588h-3.515zM63.031 21.883h.433c.384 0 .647.276.456.744-.685 1.619-1.848 2.398-3.454 2.398-2.219 0-3.658-1.919-3.658-4.449 0-2.639 1.475-4.462 3.754-4.462 1.583 0 2.866 1.08 3.25 2.555.072.288-.06.588-.36.672l-.348.095c-.323.084-.659-.035-.743-.371-.216-.888-.852-1.499-1.799-1.512-1.38-.011-2.243 1.188-2.243 3.011 0 1.727.827 2.986 2.159 2.986.959 0 1.607-.444 1.93-1.259.108-.276.349-.408.623-.408M65.471 17.673c-.335 0-.575-.228-.575-.588v-.287c0-.36.24-.588.575-.588h5.625c.336 0 .576.228.576.588v.287c0 .36-.24.588-.576.588h-2.062v6.68a.558.558 0 0 1-.588.576h-.336c-.372 0-.576-.264-.576-.576v-6.68h-2.063zM73.415 16.786c0-.324.191-.576.576-.576h.336c.383 0 .587.252.587.576v7.58c0 .312-.192.564-.587.564h-.324c-.384 0-.588-.252-.588-.564v-7.58zM79.186 24.354c0 .3-.204.576-.587.576h-.336a.557.557 0 0 1-.588-.576v-7.556c0-.312.204-.588.588-.588h4.558c.371 0 .6.205.6.588v.288c0 .384-.24.588-.6.588h-3.635v2.014h2.436c.348 0 .587.192.587.588v.288c0 .384-.263.588-.587.588h-2.436v3.202zM3.49 30.61c1.811 0 2.914 1.115 2.914 2.77s-.995 2.747-2.926 2.747H1.523v2.613c0 .301-.192.589-.576.589h-.36A.571.571 0 0 1 0 38.741v-7.532c0-.336.239-.599.599-.599H3.49zm-1.967 1.463v2.626h1.955c.875 0 1.403-.467 1.403-1.283 0-.827-.528-1.343-1.403-1.343H1.523zM7.548 34.976c0-2.591 1.451-4.461 3.61-4.461s3.61 1.87 3.61 4.461c0 2.59-1.427 4.45-3.61 4.45-2.181-.001-3.61-1.86-3.61-4.45m1.512 0c0 1.727.78 2.998 2.099 2.998 1.319 0 2.099-1.271 2.099-2.998 0-1.703-.803-3.046-2.099-3.046-1.296 0-2.099 1.342-2.099 3.046M16.752 36.355v-5.157c0-.3.18-.588.588-.588h.348c.407 0 .587.288.587.588v5.182c0 1.019.672 1.606 1.655 1.606.996 0 1.643-.588 1.643-1.606v-5.182c0-.3.18-.588.588-.588h.336c.408 0 .588.288.588.588v5.157c0 1.895-1.212 3.07-3.155 3.07-1.967 0-3.178-1.163-3.178-3.07M31.869 38.538c.263.384.011.792-.444.792h-.492a.762.762 0 0 1-.599-.324l-1.956-3.046h-1.355v2.794c0 .3-.18.576-.587.576h-.349c-.407 0-.599-.276-.599-.576v-7.555c0-.3.192-.588.599-.588h2.807c1.703 0 2.842 1.115 2.842 2.686 0 1.272-.791 2.171-1.762 2.471l1.895 2.77zm-4.846-6.465v2.458h1.787c.888 0 1.356-.479 1.356-1.187 0-.755-.48-1.271-1.284-1.271h-1.859zM36.732 36.355v-5.157c0-.3.18-.588.588-.588h.348c.407 0 .587.288.587.588v5.182c0 1.019.672 1.606 1.655 1.606.996 0 1.643-.588 1.643-1.606v-5.182c0-.3.18-.588.588-.588h.336c.408 0 .588.288.588.588v5.157c0 1.895-1.212 3.07-3.155 3.07-1.967 0-3.178-1.163-3.178-3.07M45.468 31.198c0-.3.192-.588.6-.588h.575c.241 0 .456.168.564.36l3.131 5.565-.014-5.337c0-.324.205-.588.564-.588h.36c.384 0 .574.264.574.588v7.543c0 .312-.202.588-.587.588h-.516a.622.622 0 0 1-.527-.323l-3.239-5.756.024 5.504c0 .3-.156.575-.563.575h-.372c-.408 0-.576-.275-.576-.575v-7.556zM55.738 32.073v2.015h2.699c.335 0 .599.215.599.588v.287c0 .372-.264.588-.599.588h-2.699v2.313h3.73c.359 0 .6.266.6.576v.312c0 .324-.24.576-.6.576h-4.653c-.408 0-.588-.265-.588-.576v-7.555c0-.312.18-.588.588-.588h4.438c.312 0 .575.215.575.588v.287c0 .36-.264.588-.575.588h-3.515zM66.215 38.753c0 .3-.204.576-.587.576h-.336a.556.556 0 0 1-.588-.576v-7.556c0-.312.203-.588.588-.588h4.557c.372 0 .6.205.6.588v.288c0 .384-.239.588-.6.588h-3.634v2.014h2.435c.349 0 .587.192.587.588v.288c0 .384-.264.588-.587.588h-2.435v3.202zM70.872 34.976c0-2.591 1.45-4.461 3.609-4.461s3.61 1.87 3.61 4.461c0 2.59-1.427 4.45-3.61 4.45-2.181-.001-3.609-1.86-3.609-4.45m1.511 0c0 1.727.78 2.998 2.099 2.998 1.319 0 2.1-1.271 2.1-2.998 0-1.703-.804-3.046-2.1-3.046-1.295 0-2.099 1.342-2.099 3.046M86.455 38.538c.264.384.012.792-.443.792h-.491a.766.766 0 0 1-.601-.324l-1.955-3.046H81.61v2.794c0 .3-.18.576-.587.576h-.35c-.406 0-.599-.276-.599-.576v-7.555c0-.3.192-.588.599-.588h2.808c1.703 0 2.842 1.115 2.842 2.686 0 1.272-.791 2.171-1.762 2.471l1.894 2.77zm-4.845-6.465v2.458h1.787c.888 0 1.355-.479 1.355-1.187 0-.755-.479-1.271-1.284-1.271H81.61zM89.999 32.073v2.015h2.698c.335 0 .6.216.6.588v.287c0 .372-.265.588-.6.588h-2.698v2.314h3.729c.36 0 .599.265.599.575v.312c0 .323-.238.575-.599.575h-4.654c-.406 0-.587-.264-.587-.575v-7.555c0-.312.181-.588.587-.588h4.438c.312 0 .576.216.576.588v.287c0 .36-.265.588-.576.588h-3.513zm1.595-3.514a.65.65 0 0 1 .516.252l.803.947c.156.18.036.444-.215.444h-.504c-.252 0-.408-.144-.516-.264l-.433-.504-.432.504a.638.638 0 0 1-.515.264h-.504c-.252 0-.372-.264-.217-.444l.805-.947a.647.647 0 0 1 .515-.252h.697zM95.688 32.073c-.335 0-.576-.228-.576-.588v-.287c0-.36.241-.588.576-.588h5.625c.336 0 .576.228.576.588v.287c0 .36-.24.588-.576.588H99.25v6.68a.557.557 0 0 1-.587.576h-.336c-.372 0-.576-.265-.576-.576v-6.68h-2.063zM23.771 53.624c-.396 0-.564-.276-.564-.576v-7.555c0-.3.18-.588.564-.588h2.051c2.542 0 4.233 1.727 4.233 4.377 0 2.579-1.786 4.342-4.209 4.342h-2.075zm2.112-1.452c1.631 0 2.687-1.211 2.687-2.891 0-1.738-1.02-2.927-2.699-2.927h-1.175v5.817h1.187zM32.04 50.649v-5.156c0-.3.18-.588.588-.588h.348c.407 0 .587.288.587.588v5.181c0 1.02.672 1.607 1.655 1.607.996 0 1.643-.588 1.643-1.607v-5.181c0-.3.18-.588.588-.588h.336c.408 0 .588.288.588.588v5.156c0 1.896-1.212 3.07-3.155 3.07-1.967 0-3.178-1.163-3.178-3.07M47.157 52.832c.263.384.011.792-.444.792h-.492a.76.76 0 0 1-.599-.324l-1.956-3.046h-1.355v2.794c0 .301-.18.576-.587.576h-.349c-.407 0-.599-.275-.599-.576v-7.555c0-.3.192-.588.599-.588h2.807c1.703 0 2.842 1.115 2.842 2.686 0 1.272-.791 2.171-1.762 2.472l1.895 2.769zm-4.846-6.464v2.458h1.787c.888 0 1.356-.479 1.356-1.187 0-.756-.48-1.271-1.284-1.271h-1.859zM50.567 51.38l-.708 1.799c-.108.288-.348.444-.6.444h-.492c-.347 0-.575-.276-.431-.647l2.866-7.567c.119-.312.3-.504.683-.504h.372c.384 0 .54.191.66.504l2.89 7.579c.133.336-.035.636-.431.636h-.528c-.264 0-.492-.144-.6-.432l-.671-1.812h-3.01zm.503-1.463h1.968l-.972-2.878-.996 2.878zM58.067 53.624c-.408 0-.588-.276-.588-.576v-7.555c0-.3.18-.588.588-.588h2.471c1.57 0 2.626 1.007 2.626 2.471 0 .491-.275 1.019-.611 1.331.876.324 1.511 1.295 1.511 2.302 0 1.584-1.091 2.615-2.674 2.615h-3.323zm.935-5.194h1.907c.372-.107.721-.527.732-.983.012-.623-.444-1.079-1.092-1.079h-1.548v2.062zm2.352 3.742c.684 0 1.175-.479 1.175-1.175 0-.708-.539-1.188-1.235-1.188h-2.291v2.363h2.351zM66.563 53.624c-.408 0-.576-.276-.576-.576v-7.555c0-.3.192-.588.576-.588h.348c.384 0 .576.288.576.588v6.656h3.454c.3 0 .576.18.576.575v.323c0 .396-.276.576-.576.576h-4.378zM74.351 46.368v2.015h2.699c.335 0 .6.216.6.588v.287c0 .372-.265.588-.6.588h-2.699v2.314h3.73c.36 0 .6.265.6.576v.312c0 .324-.239.576-.6.576h-4.653c-.408 0-.588-.264-.588-.576v-7.555c0-.312.18-.588.588-.588h4.438c.312 0 .576.215.576.588v.287c0 .36-.265.588-.576.588h-3.515zM69.313 7.827a.752.752 0 0 1-.436-.139A33.177 33.177 0 0 0 49.521 1.5a33.22 33.22 0 0 0-18.875 5.85.75.75 0 1 1-.849-1.237A34.712 34.712 0 0 1 49.521 0 34.68 34.68 0 0 1 69.75 6.466a.75.75 0 0 1-.437 1.361M49.52 69.833a34.72 34.72 0 0 1-19.724-6.112.751.751 0 0 1 .849-1.237 33.22 33.22 0 0 0 18.875 5.85c6.981 0 13.675-2.14 19.359-6.187a.749.749 0 1 1 .87 1.221 34.686 34.686 0 0 1-20.229 6.465"/></svg>