<svg xmlns="http://www.w3.org/2000/svg" xmlns:xlink="http://www.w3.org/1999/xlink" width="224.661" height="33.391" viewBox="0 0 224.661 33.391"><defs><path id="a" d="M0 0h224.661v33.391H0z"/></defs><clipPath id="b"><use xlink:href="#a" overflow="visible"/></clipPath><path d="M189.631 25.732c.202-2.097.464-4.066.314-6.063-.021-.272.01-.55.012-.825.012-2.031.137-4.069-.009-6.089-.094-1.291.131-2.54.104-3.809-.014-.596-.071-1.192-.114-1.788-.008-.118-.081-.241-.06-.35.353-1.797-.046-3.583-.063-5.373-.012-1.241.275-1.516 1.479-1.414.628.053 1.256.183 1.866.345 1.549.41 2.314 1.57 2.784 2.999.146.444.376.865.48 1.316.462 2.004-.023 3.868-.914 5.658-.298.598-.635 1.178-.934 1.729.894.59 1.737 1.096 2.524 1.677 1.399 1.032 2.275 2.432 2.65 4.124.146.658.172 1.343.264 2.013.377 2.755-.952 4.768-2.893 6.463-1.982 1.733-4.31 2.147-6.825 1.496-1.118-.289-2.25-.59-3.301-1.055-.898-.396-1.719-.994-2.517-1.581-.543-.399-.576-.864-.244-1.222.397-.43.974-.41 1.435.121 1.018 1.169 2.329 1.581 3.962 1.628m2.078-12.049c-.416.344-.305.753-.256 1.142.043.355.158.708.155 1.06a964.991 964.991 0 0 1-.132 8.842c-.012.559-.054 1.106.286 1.539 2.541.791 6.428-1.947 6.632-5.253.104-1.675-.167-3.278-1.104-4.681-1.301-1.947-3.246-2.671-5.581-2.649m-.117-1.867c.975-.457 1.585-.895 2.027-1.506 1.344-1.857 1.725-3.888.957-6.082-.45-1.289-1.121-2.369-2.642-2.571-.47-.062-.707.109-.671.567.034.436.166.865.18 1.3.04 1.267.045 2.535.058 3.802.004.434-.019.868-.009 1.302.024.974.061 1.949.1 3.188M165.421 19.592c.064 1.148.89 1.853 1.5 2.668.451.603 1.107 1.064 1.495 1.698.549.897.964 1.883 1.375 2.855.149.351-.017.784-.403.878-.249.062-.669-.073-.838-.269-.646-.754-1.228-1.565-1.826-2.36-.981-1.304-1.957-2.612-2.899-3.87-.323 0-.54-.055-.714.008-1.218.447-2.493.434-3.754.479-.631.022-1.266-.126-1.9-.17-.556-.039-1.117-.026-1.674-.062-.562-.036-.89.224-1.108.723a84.311 84.311 0 0 1-1.399 3.04c-.368.75-.788 1.475-1.189 2.209-.076.138-.146.315-.269.385-.19.107-.474.245-.626.174-.159-.075-.304-.385-.291-.583.02-.35.131-.705.262-1.036.337-.851.686-1.699 1.063-2.532.842-1.85 1.761-3.667 2.54-5.543.811-1.948 1.493-3.949 2.233-5.927.383-1.022-.093-1.865-.557-2.713-.688-1.257-1.53-2.46-1.998-3.794-.326-.929-.307-2.07-.128-3.061.198-1.1 1.835-1.722 2.962-1.294.608.231 1.124.625 1.443 1.204.625 1.135 1.075 2.338.958 3.656a35.143 35.143 0 0 1-.462 3.311c-.115.614-.094 1.116.211 1.707 1.086 2.098 2.487 3.988 3.771 5.956.107.166.27.304.353.48.388.829.982 1.445 1.869 1.783m-2.935-.213c-.783-1.075-1.558-1.988-2.155-3.004-.594-1.008-1.035-2.103-2.133-2.981-.518 2.23-1.759 4.055-2.118 6.249 2.149.468 4.2.864 6.406-.264m-4.78-11.033c.194-.481.338-.687.351-.9.044-.747.055-1.497.054-2.246 0-.75-.325-1.387-.794-1.94-.249-.294-.556-.616-1.018-.409-.434.195-.478.573-.426 1.001.187 1.568.909 2.907 1.833 4.494M205.04 25.202c.081 2.352-.396 4.589-.052 6.847.087.572-.184.983-.675 1.071-.504.09-.941-.201-1-.762a21.73 21.73 0 0 1-.104-2.269c.001-.836.051-1.673.092-2.509.039-.795.112-1.589.136-2.384.033-1.114.028-2.229.05-3.344.032-1.553.086-3.105.108-4.658.027-1.872.033-3.745.046-5.617.005-.753 0-1.506 0-2.25 1.289-.852 2.415-.362 3.373.358.745.56 1.288 1.394 1.901 2.123.119.142.177.355.212.545a14.176 14.176 0 0 1-.039 5.349c-.343 1.768-1.283 3.151-2.442 4.437-.638.706-.599.665-.146 1.513.796 1.488 2.055 2.619 2.98 3.997.953 1.419 1.805 2.907 2.664 4.387.117.201.09.551.008.792-.202.593-.796.758-1.21.3a7.491 7.491 0 0 1-1.081-1.562c-1.185-2.281-2.745-4.294-4.387-6.252-.038-.047-.143-.04-.434-.112m.258-3.911c.681-.787 1.229-1.443 1.608-2.229.615-1.281.874-2.668.882-4.059.007-1.135-.085-2.325-.85-3.291-.463-.585-1.086-.922-1.801-1.122-.035 1.83-.259 3.59-.048 5.296.215 1.737-.524 3.467.209 5.405M222.845 15.215l-.346 1.088c-.867.11-1.726.238-2.588.323-.716.071-1.438.07-2.153.138-.7.067-.831.194-.883.882-.046.596-.026 1.197-.032 1.797-.012 1.157-.026 2.313-.026 3.472 0 .192.066.383.103.575 1.048.682 2.184.334 3.259.369 1.063.035 2.135-.109 3.203-.126a1.58 1.58 0 0 1 .883.261c.605.426.502 1.117-.192 1.36-.331.114-.7.181-1.05.175-1.354-.026-2.707-.097-4.061-.136a18.075 18.075 0 0 0-1.435.019c-.237.011-.472.09-.709.108-1.379.103-1.61-.089-1.605-1.503.006-1.555.074-3.109.107-4.663.007-.316-.012-.634-.032-.949-.111-1.636-.088-3.262.179-4.888.088-.539.033-1.115-.04-1.662-.191-1.415-.416-2.825-.414-4.258.001-1.069.166-1.293 1.165-1.418 2.008-.251 4.018-.488 6.029-.694.385-.04.796.049 1.179.145.85.213.846.23.826 1.296-.551.517-1.252.42-1.916.38-1.642-.099-3.269.047-4.895.234-.193.023-.383.088-.709.166-.015.379-.104.774-.033 1.136.349 1.731.575 3.46.314 5.227-.039.264.053.546.082.807.62.429 1.282.262 1.897.224.742-.046 1.483-.197 2.213-.355.642-.139 1.171-.002 1.68.47M172.277 12.199c1.237.373 1.216.372 1.172 1.329a34.656 34.656 0 0 0-.009 2.391c.005.21.126.418.258.824.197-.386.286-.589.399-.778.614-1.023 1.086-2.182 1.885-3.034 1.425-1.518 3.966-2.218 5.742-.458.692.686.726.719.198 1.721-.497.163-.888.009-1.294-.335-1.157-.979-2.681-.743-3.652.414-.688.822-1.074 1.756-1.391 2.747-.387 1.214-.882 2.403-1.155 3.641-.193.877-.084 1.818-.132 2.73-.041.792-.032 1.6-.198 2.369-.096.443-.491.824-.75 1.23-.954-.314-.959-.323-.989-1.175-.105-2.989-.152-5.98-.352-8.963a28.566 28.566 0 0 1-.008-3.336c.022-.415.169-.824.276-1.317M5.493 25.236c.469.28.485.31.393.689a1.6 1.6 0 0 1-2.114 1.129c-.855-.308-1.395-.929-1.691-1.765a4.066 4.066 0 0 1-.171-.82c-.142-1.107-.271-2.218-.409-3.324-.01-.089-.047-.175-.077-.282-.408.01-.533.442-.872.517-.244-.068-.368-.225-.267-.469.095-.232.224-.453.354-.669.154-.257.334-.498.487-.755.308-.513.368-1.068.334-1.671-.08-1.418-.1-2.838-.144-4.257-.016-.511.003-1.025-.057-1.531-.111-.935-.01-1.858.047-2.784.047-.768.134-1.524.593-2.182.322-.459.632-.65 1.274-.167.366.276.634.627.799 1.052.244.631.436 1.272.495 1.951.091 1.048.173 2.103-.047 3.126-.262 1.215-.314 2.486-.897 3.625-.368.717-.654 1.476-.969 2.22-.062.147-.125.308-.129.463-.02.939-.198 1.876.136 2.817.137.385.101.827.161 1.241.097.67.205 1.338.539 1.945.226.41.513.721 1.035.717.276-.004.496-.07.678-.279.165-.19.349-.362.519-.537M2.66 7.687c-.292.688-.456 1.306-.479 1.955-.028.831-.1 1.653.016 2.497.119.867.052 1.756.085 2.634.021.566.076 1.13.125 1.823.315-.319.448-.567.518-.86.191-.809.397-1.615.579-2.426.34-1.512.388-3.023-.067-4.543-.127-.426-.354-.745-.777-1.08" clip-path="url(#b)" fill="#fff"/><path d="M5.493 25.236c.469.28.485.31.393.689a1.6 1.6 0 0 1-2.114 1.129c-.855-.308-1.395-.929-1.691-1.765a4.066 4.066 0 0 1-.171-.82c-.142-1.107-.271-2.218-.409-3.324-.01-.089-.047-.175-.077-.282-.408.01-.533.442-.872.517-.244-.068-.368-.225-.267-.469.095-.232.224-.453.354-.669.154-.257.334-.498.487-.755.308-.513.368-1.068.334-1.671-.08-1.418-.1-2.838-.144-4.257-.016-.511.003-1.025-.057-1.531-.111-.935-.01-1.858.047-2.784.047-.768.134-1.524.593-2.182.322-.459.632-.65 1.274-.167.366.276.634.627.799 1.052.244.631.436 1.272.495 1.951.091 1.048.173 2.103-.047 3.126-.262 1.215-.314 2.486-.897 3.625-.368.717-.654 1.476-.969 2.22-.062.147-.125.308-.129.463-.02.939-.198 1.876.136 2.817.137.385.101.827.161 1.241.097.67.205 1.338.539 1.945.226.41.513.721 1.035.717.276-.004.496-.07.678-.279.165-.19.349-.362.519-.537zM2.66 7.687c-.292.688-.456 1.306-.479 1.955-.028.831-.1 1.653.016 2.497.119.867.052 1.756.085 2.634.021.566.076 1.13.125 1.823.315-.319.448-.567.518-.86.191-.809.397-1.615.579-2.426.34-1.512.388-3.023-.067-4.543-.127-.426-.354-.745-.777-1.08z" clip-path="url(#b)" fill="none" stroke="#fff" stroke-width=".5" stroke-miterlimit="10"/><path d="M141.562 25.082c.507.343.523.377.396.796a1.793 1.793 0 0 1-2.436 1.136c-.94-.396-1.508-1.124-1.787-2.08-.088-.299-.119-.618-.142-.93-.092-1.25-.169-2.5-.255-3.75-.007-.1-.042-.199-.069-.321-.457-.013-.624.463-1.01.527-.268-.093-.397-.275-.271-.542.122-.255.279-.495.438-.729.188-.277.403-.536.593-.814.376-.557.478-1.174.476-1.853-.004-1.593.062-3.186.1-4.778.013-.573.065-1.148.028-1.719-.066-1.054.104-2.082.225-3.116.099-.858.243-1.7.798-2.408.388-.495.748-.691 1.438-.11.394.332.672.742.83 1.228.235.722.411 1.451.437 2.216.037 1.179.064 2.368-.244 3.499-.368 1.347-.504 2.767-1.229 4.008-.454.78-.821 1.614-1.221 2.427-.078.161-.159.336-.173.512-.08 1.051-.337 2.091-.02 3.165.13.439.062.933.104 1.399.067.756.147 1.512.485 2.214.227.475.529.838 1.114.865.311.014.562-.047.777-.271.199-.203.415-.386.618-.571M139.46 5.246c-.368.753-.591 1.435-.655 2.162-.083.928-.214 1.845-.136 2.798.081.979-.05 1.97-.065 2.957-.011.635.016 1.271.028 2.05.371-.339.536-.608.633-.931.264-.896.544-1.786.798-2.684.473-1.673.62-3.364.203-5.094-.118-.486-.352-.858-.806-1.258" clip-path="url(#b)" fill="#fff"/><path d="M141.562 25.082c.507.343.523.377.396.796a1.793 1.793 0 0 1-2.436 1.136c-.94-.396-1.508-1.124-1.787-2.08-.088-.299-.119-.618-.142-.93-.092-1.25-.169-2.5-.255-3.75-.007-.1-.042-.199-.069-.321-.457-.013-.624.463-1.01.527-.268-.093-.397-.275-.271-.542.122-.255.279-.495.438-.729.188-.277.403-.536.593-.814.376-.557.478-1.174.476-1.853-.004-1.593.062-3.186.1-4.778.013-.573.065-1.148.028-1.719-.066-1.054.104-2.082.225-3.116.099-.858.243-1.7.798-2.408.388-.495.748-.691 1.438-.11.394.332.672.742.83 1.228.235.722.411 1.451.437 2.216.037 1.179.064 2.368-.244 3.499-.368 1.347-.504 2.767-1.229 4.008-.454.78-.821 1.614-1.221 2.427-.078.161-.159.336-.173.512-.08 1.051-.337 2.091-.02 3.165.13.439.062.933.104 1.399.067.756.147 1.512.485 2.214.227.475.529.838 1.114.865.311.014.562-.047.777-.271.199-.203.415-.386.618-.571zM139.46 5.246c-.368.753-.591 1.435-.655 2.162-.083.928-.214 1.845-.136 2.798.081.979-.05 1.97-.065 2.957-.011.635.016 1.271.028 2.05.371-.339.536-.608.633-.931.264-.896.544-1.786.798-2.684.473-1.673.62-3.364.203-5.094-.118-.486-.352-.858-.806-1.258z" clip-path="url(#b)" fill="none" stroke="#fff" stroke-width=".5" stroke-miterlimit="10"/><path d="M113.665 10.34c-.34-.089-.687-.169-1.027-.272-.245-.074-.499-.149-.719-.276-.208-.12-.2-.414.014-.507.254-.11.563-.257.809-.2 1.579.364 3.147.776 4.104 2.292.576.913 1.015 1.875 1.155 2.952.07.538.114 1.083.232 1.613.278 1.244-.031 2.41-.328 3.588-.353 1.407-1.295 2.342-2.382 3.202-.789.625-1.691.933-2.67 1.167-.065-.058-.153-.116-.218-.193-.385-.462-.31-.787.23-.989.096-.035.198-.06.3-.065.898-.049 1.619-.56 2.255-1.063.551-.438 1.058-1.021 1.31-1.761.804-2.354.546-4.664-.279-6.986a3.876 3.876 0 0 0-1.415-1.903c-.061-.044-.139-.064-.21-.091-.021-.008-.05.002-.171.011-.032.157-.109.343-.1.526.11 2.196.245 4.392.352 6.588.048.975.048 1.952.065 2.929.002.101-.021.204-.049.3-.081.264-.223.47-.535.469-.259-.001-.533-.245-.55-.561-.029-.542-.016-1.087-.014-1.63.007-1.449.02-2.897.023-4.345.002-.54-.004-1.081-.026-1.621-.041-1.007-.097-2.013-.156-3.174" clip-path="url(#b)" fill="#fff"/><path d="M113.665 10.34c-.34-.089-.687-.169-1.027-.272-.245-.074-.499-.149-.719-.276-.208-.12-.2-.414.014-.507.254-.11.563-.257.809-.2 1.579.364 3.147.776 4.104 2.292.576.913 1.015 1.875 1.155 2.952.07.538.114 1.083.232 1.613.278 1.244-.031 2.41-.328 3.588-.353 1.407-1.295 2.342-2.382 3.202-.789.625-1.691.933-2.67 1.167-.065-.058-.153-.116-.218-.193-.385-.462-.31-.787.23-.989.096-.035.198-.06.3-.065.898-.049 1.619-.56 2.255-1.063.551-.438 1.058-1.021 1.31-1.761.804-2.354.546-4.664-.279-6.986a3.876 3.876 0 0 0-1.415-1.903c-.061-.044-.139-.064-.21-.091-.021-.008-.05.002-.171.011-.032.157-.109.343-.1.526.11 2.196.245 4.392.352 6.588.048.975.048 1.952.065 2.929.002.101-.021.204-.049.3-.081.264-.223.47-.535.469-.259-.001-.533-.245-.55-.561-.029-.542-.016-1.087-.014-1.63.007-1.449.02-2.897.023-4.345.002-.54-.004-1.081-.026-1.621-.041-1.007-.097-2.013-.156-3.174z" clip-path="url(#b)" fill="none" stroke="#fff" stroke-width=".5" stroke-miterlimit="10"/><path d="M7.772 20.688c-.297.017-.5.029-.702.035-.115.004-.258.036-.34-.018-.127-.084-.283-.226-.295-.352-.012-.12.117-.319.234-.365.297-.118.623-.171.994-.264.191-.317.093-.705.051-1.096a53.98 53.98 0 0 1-.23-2.503c-.028-.453.047-.53.482-.604.526-.09 1.056-.163 1.588-.206.718-.058 1.438-.08 2.21-.12l.337.685c-.171.306-.403.232-.602.245-.745.045-1.49.078-2.233.136-.295.024-.585.103-.918.164-.002.275-.03.505-.001.73.086.669.191 1.336.296 2.002.061.389.171.48.558.449.463-.035.925-.09 1.387-.136.621-.062.674-.031 1.007.61-.115.295-.391.268-.638.296l-2.154.244c-.13.471-.065.93-.043 1.385.009.182.05.364.058.547.021.485.161.625.652.562.802-.103 1.602-.23 2.402-.349.069-.01.136-.034.205-.045.411-.064.441-.049.624.363.037.082.059.171.096.282-.421.356-.938.408-1.43.479-.711.1-1.43.145-2.147.207a2.26 2.26 0 0 1-.349-.003c-.818-.056-.893-.126-.957-.954-.038-.483-.049-.97-.076-1.454-.016-.273-.038-.549-.066-.952" clip-path="url(#b)" fill="#fff"/><path d="M7.772 20.688c-.297.017-.5.029-.702.035-.115.004-.258.036-.34-.018-.127-.084-.283-.226-.295-.352-.012-.12.117-.319.234-.365.297-.118.623-.171.994-.264.191-.317.093-.705.051-1.096a53.98 53.98 0 0 1-.23-2.503c-.028-.453.047-.53.482-.604.526-.09 1.056-.163 1.588-.206.718-.058 1.438-.08 2.21-.12l.337.685c-.171.306-.403.232-.602.245-.745.045-1.49.078-2.233.136-.295.024-.585.103-.918.164-.002.275-.03.505-.001.73.086.669.191 1.336.296 2.002.061.389.171.48.558.449.463-.035.925-.09 1.387-.136.621-.062.674-.031 1.007.61-.115.295-.391.268-.638.296l-2.154.244c-.13.471-.065.93-.043 1.385.009.182.05.364.058.547.021.485.161.625.652.562.802-.103 1.602-.23 2.402-.349.069-.01.136-.034.205-.045.411-.064.441-.049.624.363.037.082.059.171.096.282-.421.356-.938.408-1.43.479-.711.1-1.43.145-2.147.207a2.26 2.26 0 0 1-.349-.003c-.818-.056-.893-.126-.957-.954-.038-.483-.049-.97-.076-1.454-.016-.273-.038-.549-.066-.952z" clip-path="url(#b)" fill="none" stroke="#fff" stroke-width=".5" stroke-miterlimit="10"/><path d="M121.314 18.145c-.333-.001-.561.002-.788-.003-.13-.004-.291.023-.381-.042-.137-.102-.302-.269-.309-.412-.006-.134.152-.351.285-.395.341-.114.708-.152 1.13-.233.233-.346.148-.786.124-1.225-.052-.94-.098-1.88-.104-2.819-.004-.509.085-.591.577-.648a20.26 20.26 0 0 1 1.792-.133c.808-.021 1.616-.001 2.483.001l.336.788c-.21.332-.465.235-.69.237-.837.006-1.674-.004-2.51.017-.332.008-.662.079-1.039.127-.019.307-.063.564-.046.817.056.755.132 1.509.209 2.262.045.44.163.549.598.539.521-.012 1.042-.045 1.563-.068.699-.032.757.007 1.091.745-.146.324-.455.276-.733.292-.8.048-1.6.093-2.428.143-.175.52-.13 1.037-.134 1.55-.001.205.034.411.032.614-.006.547.142.712.696.672.905-.066 1.809-.16 2.713-.243.078-.008.153-.03.231-.038.465-.048.497-.028.677.445.037.094.057.194.092.32-.494.374-1.076.402-1.634.449-.802.068-1.61.074-2.417.101a2.437 2.437 0 0 1-.391-.024c-.913-.113-.994-.195-1.014-1.127-.013-.545.004-1.09.004-1.635.001-.311-.007-.621-.015-1.074" clip-path="url(#b)" fill="#fff"/><path d="M121.314 18.145c-.333-.001-.561.002-.788-.003-.13-.004-.291.023-.381-.042-.137-.102-.302-.269-.309-.412-.006-.134.152-.351.285-.395.341-.114.708-.152 1.13-.233.233-.346.148-.786.124-1.225-.052-.94-.098-1.88-.104-2.819-.004-.509.085-.591.577-.648a20.26 20.26 0 0 1 1.792-.133c.808-.021 1.616-.001 2.483.001l.336.788c-.21.332-.465.235-.69.237-.837.006-1.674-.004-2.51.017-.332.008-.662.079-1.039.127-.019.307-.063.564-.046.817.056.755.132 1.509.209 2.262.045.44.163.549.598.539.521-.012 1.042-.045 1.563-.068.699-.032.757.007 1.091.745-.146.324-.455.276-.733.292-.8.048-1.6.093-2.428.143-.175.52-.13 1.037-.134 1.55-.001.205.034.411.032.614-.006.547.142.712.696.672.905-.066 1.809-.16 2.713-.243.078-.008.153-.03.231-.038.465-.048.497-.028.677.445.037.094.057.194.092.32-.494.374-1.076.402-1.634.449-.802.068-1.61.074-2.417.101a2.437 2.437 0 0 1-.391-.024c-.913-.113-.994-.195-1.014-1.127-.013-.545.004-1.09.004-1.635.001-.311-.007-.621-.015-1.074z" clip-path="url(#b)" fill="none" stroke="#fff" stroke-width=".5" stroke-miterlimit="10"/><path d="M146.54 10.505l-.546.441c-.631-.35-.618-.358-.461-.985.141-.565.225-1.146.348-1.717.043-.198.123-.389.196-.579.085-.223.245-.32.484-.249.248.072.298.244.27.48-.103.863-.194 1.729-.291 2.609" clip-path="url(#b)" fill="#fff"/><path d="M146.54 10.505l-.546.441c-.631-.35-.618-.358-.461-.985.141-.565.225-1.146.348-1.717.043-.198.123-.389.196-.579.085-.223.245-.32.484-.249.248.072.298.244.27.48-.103.863-.194 1.729-.291 2.609z" clip-path="url(#b)" fill="none" stroke="#fff" stroke-miterlimit="10"/><path d="M46.055 8.384c.251.086.505.211.718-.068.019-.025.082-.041.109-.029.421.202.824-.061 1.239-.041.371.018.745.023 1.116.011.165-.005.328-.067.531-.112.24.098.542.203.827.343.129.063.217.203.338.289.076.053.176.078.269.103.085.023.187.006.259.047.524.297 1.053.587 1.557.916.227.149.397.383.599.571.106.099.226.182.295.236.16.317.252.654.462.877.284.3.324.662.41 1.015.093.381.165.772.198 1.162.027.318-.011.642-.032.962a6.348 6.348 0 0 1-.077.6c-.009.053-.057.099-.08.151-.051.112-.149.231-.137.337.045.37-.222.606-.341.904-.342.856-.971 1.512-1.538 2.208-.195.239-.479.402-.702.621-.23.226-.45.465-.641.724-.061.081-.036.239-.021.359.038.306.095.608.139.912.023.159.02.322.052.479.069.344.16.683.229 1.027.082.404.362.702.595 1.004.244.318.481.7.948.774.081.013.149.095.23.119.117.033.277.1.353.051.22-.14.414-.325.607-.505.316-.293.532-.656.705-1.048a.21.21 0 0 1 .137-.099c.282-.04.509-.146.613-.435.01-.029.058-.055.092-.062.413-.09.885.407.775.81-.136.496-.257.997-.404 1.489-.042.141-.154.261-.235.39a2.76 2.76 0 0 1-.993.967c-.277.152-.653.178-.981.169a5.145 5.145 0 0 1-1.184-.199 2.539 2.539 0 0 1-.758-.369c-.325-.229-.615-.508-.927-.755-.118-.094-.297-.133-.38-.245a9.162 9.162 0 0 1-.556-.896 3.34 3.34 0 0 1-.238-.54c-.322-.895-.454-1.824-.491-2.772-.017-.438-.094-.474-.513-.372-.175.042-.357.055-.533.096-.107.024-.27.051-.299.122-.07.167-.108.363-.1.544.024.5.19.976.182 1.495-.014.996.052 1.996.152 2.987.031.312.106.621.111.944.005.409-.407.8-.798.876-.306.061-.524-.064-.739-.178-.117-.062-.186-.294-.2-.456-.041-.499-.035-1.001-.066-1.502-.021-.35-.083-.697-.103-1.047-.013-.233.031-.469.023-.702-.028-.833-.067-1.665-.103-2.497-.012-.283-.016-.568-.04-.851-.034-.4-.103-.799-.121-1.199-.027-.585-.022-1.172-.03-1.759 0-.028.023-.065.013-.085-.184-.346-.117-.724-.147-1.091-.019-.242-.105-.484-.091-.722.04-.66-.047-1.303-.148-1.952-.079-.51-.059-1.035-.102-1.551-.036-.44-.086-.88-.155-1.315-.043-.264-.18-.314-.43-.197-.523.244-1.042.497-1.569.733-.305.137-.577-.062-.86-.126-.118-.026-.226-.1-.344-.119-.204-.033-.317-.114-.311-.343.013-.478.377-1.004.932-1.013a.576.576 0 0 0 .299-.114c.588-.412 1.275-.609 1.927-.878.15-.062.324-.065.487-.095l-.01-.085m7.193 5.755a4.473 4.473 0 0 0-.424-1.925c-.108-.225-.293-.413-.447-.615-.069-.091-.135-.191-.224-.259-.426-.321-.86-.632-1.29-.947-.341-.248-.645-.607-1.143-.359-.027.013-.073-.018-.11-.019-.416-.011-.833-.034-1.248-.023-.232.006-.463.062-.691.111-.063.015-.159.085-.163.136a4.582 4.582 0 0 0-.007.75c.088.883.167 1.769.301 2.645.077.51 0 1.026.121 1.533.067.277.024.579.074.863.124.713.171 1.432.128 2.151-.034.574.353.924.928.784.399-.098.789-.228 1.18-.353.158-.051.319-.107.457-.195.333-.212.655-.44.977-.666a.815.815 0 0 0 .213-.2c.22-.333.429-.672.639-1.011.036-.057.059-.122.083-.185.091-.248.146-.517.278-.74.273-.461.391-.948.368-1.476M28.216 23.938c0 .408-.004.867.001 1.326.005.523.008 1.048.035 1.571.01.188.117.371.125.56.019.463.006.926.006 1.394-.564.18-1.053.262-1.513-.074-.08-.059-.159-.176-.163-.269-.016-.345-.105-.69.097-1.033.083-.139.085-.385.021-.541-.213-.518-.092-1.038-.093-1.562 0-.459-.062-.917-.093-1.376-.016-.231-.018-.463-.037-.694-.007-.095-.054-.186-.066-.28-.011-.092-.003-.185.003-.276.002-.037.037-.075.031-.108-.113-.636-.25-1.27-.335-1.909-.044-.331.005-.675.012-1.013 0-.01.003-.02.002-.029l-.12-1.687c-.011-.147-.03-.294-.034-.442-.011-.438-.012-.877-.028-1.316-.006-.183-.051-.364-.062-.547a45.56 45.56 0 0 1-.053-1.279c-.007-.256.014-.512-.001-.766-.016-.278-.061-.553-.089-.83-.018-.181-.01-.367-.049-.543-.032-.146-.114-.281-.184-.444l.092-.377c-.345 0-.671-.046-.977.013-.317.06-.512-.125-.756-.23-.384-.166-.409-.511-.459-.847-.006-.04.024-.087.044-.129.05-.107.105-.214.14-.286.435-.102.877-.217 1.324-.307.238-.048.464-.145.733-.012.167.083.413.005.623-.002.468-.015.939-.068 1.404-.036.404.029.8.162 1.202.233.82.143 1.529.586 2.306.848.291.098.534.353.782.557.291.241.566.504.844.761.049.045.079.109.12.163.243.329.493.653.727.989.08.114.123.254.179.384.015.036.001.099.024.113.278.178.204.499.317.728.131.268.076.534.153.795.146.496.033 1.014-.044 1.52-.007.049-.022.106-.005.147.188.45.009.859-.132 1.273a.38.38 0 0 0-.018.116c-.003.538-.267.993-.469 1.468-.08.188-.138.388-.23.57-.204.402-.505.752-.638 1.194-.024.08-.137.136-.211.198-.171.146-.351.237-.419.517-.043.181-.388.293-.603.426-.367.228-.735.454-1.108.67a4.048 4.048 0 0 1-.493.235c-.31.129-.623.251-.938.368-.055.021-.124.006-.187.009-.083.005-.167.006-.249.018-.157.021-.314.05-.491.08m-.933-12.719l-.036.058c.04.06.098.116.119.183.07.238.246.465.073.738-.044.069-.014.189-.007.286.046.577.101 1.153.139 1.731.007.12-.073.246-.064.365.023.322.09.641.108.963.026.459.026.919.031 1.378.006.529.009 1.058.007 1.587-.001.228-.048.459-.019.682.052.401.165.795.214 1.196.047.389.038.784.069 1.176.026.31.159.379.456.296.093-.026.205.028.308.03.089.001.179-.016.266-.036.081-.021.156-.069.238-.084.163-.029.361.006.488-.075.541-.349 1.146-.653 1.567-1.119.421-.467.669-1.097.959-1.673.154-.307.248-.646.345-.979.064-.221.055-.463.13-.678.195-.557.134-1.128.101-1.692-.014-.229-.212-.447-.228-.678-.044-.601-.411-1.042-.722-1.494-.259-.376-.644-.665-.969-.997-.382-.389-.785-.734-1.367-.763a.356.356 0 0 1-.17-.041c-.38-.248-.786-.283-1.223-.2-.134.025-.287-.032-.429-.061-.129-.026-.256-.065-.384-.099M85.516 22.944c-.518-.028-.538-.047-.602-.568-.069-.56.045-1.108.073-1.662.027-.555.136-1.106.015-1.677-.083-.395.007-.824.018-1.238.004-.197.002-.396.003-.592.002-.476-.001-.951.006-1.426.01-.625.022-1.25.046-1.874.008-.192.067-.382.088-.573.016-.155.06-.335.002-.463-.189-.417-.094-.836-.078-1.259a1.437 1.437 0 0 0-.071-.547c-.152-.406-.062-.775.146-1.116.068-.11.248-.189.387-.209.289-.043.585-.023.876-.052.58-.059 1.156-.144 1.736-.196.491-.043.987-.039 1.478-.084.598-.053 1.064.346 1.614.44.454.077.737.416 1.096.639.065.041.136.076.192.127.151.136.383.158.453.419.041.153.236.265.36.397.191.202.222.452.237.718.024.422.174.828.05 1.267-.12.423-.111.887-.258 1.298-.119.33-.38.611-.588.907-.1.142-.206.289-.34.395-.302.239-.622.455-.936.678-.079.056-.165.102-.248.153-.141.088-.272.207-.426.256-.432.136-.48.246-.281.65.159.323.373.649.413.994.062.517.386.885.589 1.318.216.464.502.896.717 1.361.143.307.16.666.405.94.066.072.04.245.025.368-.02.172-.07.338-.11.506a.244.244 0 0 1-.039.077c-.152.231-.827.335-1.011.137-.182-.199-.372-.411-.478-.653-.143-.329-.209-.692-.311-1.039a1.25 1.25 0 0 0-.087-.216c-.167-.328-.359-.646-.503-.984-.29-.679-.59-1.355-.813-2.058-.129-.404-.384-.499-.733-.619-.482-.165-.926-.09-1.389.01-.102.022-.214.005-.321-.005-.277-.029-.493.146-.494.418-.001.194.023.389.032.582.01.238.035.479.021.715-.025.41-.1.819-.108 1.229-.008.473.012.95.06 1.42.027.259-.35.72-.647.712-.088-.002-.177-.012-.266-.021m4.054-6.818l.001.034c.102-.071.201-.144.305-.212.129-.084.267-.155.391-.247.255-.189.518-.37.751-.585.251-.231.563-.459.681-.754.183-.458.248-.968.318-1.463.048-.338-.143-.588-.448-.716-.044-.019-.117-.049-.119-.078-.022-.335-.321-.44-.531-.578-.293-.193-.51-.537-.912-.54-.455-.003-.909.013-1.363.008-.24-.002-.53-.123-.707-.026-.312.171-.629.094-.935.16-.077.017-.157.017-.235.021-.246.017-.374.133-.367.393.009.387.012.775.004 1.162-.003.129-.095.268-.068.385.114.507.309 1.008-.039 1.503-.019.027-.015.077-.008.115.028.166.072.329.091.495.038.345.066.691.096 1.037.019.225.169.307.363.302.353-.008.699.201 1.064.009.106-.056.27.005.406-.006.117-.009.236-.031.346-.071.308-.11.61-.231.915-.348M43.062 26.093c-.069.094-.125.2-.208.28s-.186.143-.289.195c-.074.037-.193.021-.239.073-.186.208-.312.029-.449-.052-.111-.067-.202-.165-.314-.23-.298-.172-.38-.457-.42-.765-.011-.088.007-.181-.008-.266-.064-.358-.157-.413-.525-.342-.125.024-.254.027-.382.032-.521.019-1.042.04-1.563.05-.551.01-1.103.019-1.654.005-.439-.012-.542.123-.593.562a4.604 4.604 0 0 1-.331 1.236c-.098.233-.329.341-.657.324-.277-.013-.437-.11-.52-.301a1.332 1.332 0 0 1-.105-.672c.044-.32.157-.636.271-.941a.577.577 0 0 0-.351-.763c-.44-.163-.877-.339-1.301-.538-.1-.047-.192-.202-.207-.317-.027-.208.006-.423.018-.635a.254.254 0 0 1 .027-.113c.07-.109.699-.244.825-.191.097.042.209.05.306.094.136.062.261.146.396.21.153.073.308.168.47.189.198.024.204-.179.231-.311.061-.297.09-.6.155-.896.063-.284.157-.561.232-.84.037-.14.057-.283.097-.422.061-.212.144-.418.197-.631.16-.655.274-1.319.568-1.942.204-.433.3-.916.448-1.375.027-.083.067-.162.099-.244.114-.283.229-.554.131-.881-.086-.288.305-.819.541-1.013.286-.235.537-.189.802-.05.243.128.465.299.694.454.095.064.184.135.24.177.09.341.179.651.251.965.041.181.045.37.084.551.023.11.094.21.123.32.107.408.196.821.312 1.227.037.131.149.24.201.369.151.372.291.747.43 1.124.2.546.483 1.08.57 1.644.088.578.447.982.649 1.522.4-.219.763-.403 1.113-.611.409-.243.804-.245 1.191.028.174.123.325.28.499.405.162.117.099.206.017.341-.255.415-.635.707-.981 1.03-.097.09-.237.136-.359.196-.297.148-.6.282-.886.447-.064.037-.108.189-.089.272.043.185.14.354.201.535.052.154.084.315.124.473-.027.007-.055.009-.082.012m-4.486-8.512c-.134.226-.251.418-.366.614-.014.024-.026.06-.019.083.126.434-.172.775-.271 1.156-.168.648-.416 1.277-.626 1.917-.078.238-.159.477-.208.721-.08.398-.118.805-.206 1.201-.04.179.008.253.167.254.506.005 1.011.004 1.517-.009.401-.011.802-.048 1.202-.063.176-.008.356.032.529.011.187-.023.339-.12.306-.353-.02-.141-.025-.29-.076-.42-.201-.506-.416-1.006-.629-1.506-.053-.126-.138-.241-.177-.371-.148-.483-.227-.995-.439-1.447a9.844 9.844 0 0 1-.566-1.617c-.019-.069-.098-.123-.138-.171M74.651 14.04c-.021-.708-.056-1.411-.054-2.114.001-.287.023-.602.143-.852.113-.233.339-.499.569-.566.332-.097.732.249.744.584.013.384-.054.769-.06 1.155-.006.339-.064.662.058 1.022.142.419.098.903.124 1.359.033.575.059 1.15.082 1.725.016.382.024.765.028 1.147.002.218-.094.48-.002.643.171.305-.049.603.078.896.059.137-.011.324.007.483.025.228.085.451.118.678.034.231.056.465.08.696.045.455.19.856.577 1.139.034.025.072.084.066.12-.032.193-.035.347.218.398.166.034.311.176.497.044.049-.036.134-.022.202-.028.314-.026.412-.165.423-.481.006-.197.071-.4.145-.586.307-.763.469-1.544.431-2.376-.024-.515.084-1.036.067-1.553a18.011 18.011 0 0 0-.176-1.899c-.057-.41-.078-.806.002-1.216.042-.215-.01-.447-.013-.672-.004-.495.004-.992-.011-1.487-.006-.169-.079-.334-.097-.503-.045-.422-.076-.846-.111-1.256.406-.057.758-.104 1.046-.145.166.089.302.154.43.233.07.044.171.105.179.169.062.453.12.909.145 1.365.03.537.025 1.075.035 1.612.008.399.004.798.026 1.196.032.569.088 1.135.126 1.704.01.165-.009.332-.01.499-.001.127-.024.264.015.38a.694.694 0 0 1-.003.533c-.063.156-.03.361-.008.54.079.631.011 1.252-.082 1.873-.054.364-.09.729-.152 1.091-.024.146-.117.279-.141.424-.043.268-.058.539-.083.81-.003.028.014.075.002.084-.212.141-.252.395-.385.576-.142.193-.413.288-.615.443-.296.226-.647.213-.986.254-.068.008-.143-.018-.205.002-.479.152-.939.055-1.364-.155-.283-.14-.573-.329-.768-.571-.321-.398-.574-.854-.841-1.293-.052-.085-.037-.21-.057-.316-.121-.664-.29-1.323-.354-1.993-.078-.814-.08-1.64-.093-2.461-.009-.579.04-1.159.022-1.737-.011-.385-.113-.767-.136-1.154-.008-.163.084-.329.122-.463M99.92 21.546c.046-.174.138-.351.13-.521a5.56 5.56 0 0 0-.139-1.069c-.067-.278-.206-.54-.333-.802-.168-.349-.354-.689-.536-1.031-.022-.041-.059-.092-.1-.104-.273-.088-.273-.359-.374-.558-.166-.327-.304-.666-.456-.999-.266-.584-.533-1.166-.798-1.75-.08-.176-.181-.349-.223-.534a4.514 4.514 0 0 1-.101-.797c-.022-.502-.054-1.008-.023-1.509.032-.5.086-1.01.219-1.491.188-.681.509-1.326.677-2.011.154-.631.629-1.03.92-1.555.193-.347.442-.618.753-.853.08-.061.101-.201.149-.305l-.036-.1c.435 0 .871.022 1.304-.008.265-.017.403.153.532.303.297.345.158.834-.269.969-.385.123-.647.385-.873.697-.213.295-.444.579-.621.894-.161.287-.241.618-.39.913-.143.282-.053.652-.342.877-.04.031-.058.103-.07.159-.173.831-.318 1.663-.25 2.519.054.679.223 1.32.529 1.93.127.252.184.541.328.78.174.288.271.613.526.868.204.204.315.511.431.787.149.349.23.724.524 1.003.086.081.083.253.125.382.051.157.082.327.166.464.142.233.271.452.16.739-.023.058-.007.138.008.204.079.336.189.667.236 1.008.028.191-.051.397-.069.6-.036.401-.05.806-.101 1.204-.02.151-.118.291-.179.437-.019.045-.065.104-.051.133.215.404-.311.644-.223 1.017-.388.323-.402.872-.708 1.222-.484.555-1.04 1.046-1.574 1.556-.194.186-.38.396-.677.424-.018.002-.048.014-.052.026-.09.374-.356.262-.616.257-.178-.003-.355.126-.538.18-.33.097-.891-.069-.988-.281-.212-.467-.024-.96.328-1.281.251-.229.496-.162.754-.209.24-.043.488-.057.67-.312.158-.22.445-.343.649-.537a4.848 4.848 0 0 0 1.394-2.359c.103-.399.238-.791.31-1.195.022-.117-.121-.263-.189-.397l.077.016M62.927 25.123c.225.264.428.551.682.782.144.131.21.243.181.425-.032.206-.024.428-.104.613-.178.413-.577.24-.861.215-.398-.037-.788-.161-1.116-.458-.521-.473-.959-1.006-1.383-1.562-.473-.62-.801-1.318-1.089-2.024-.238-.583-.318-1.229-.475-1.846-.076-.301-.185-.594-.244-.896-.033-.175.034-.37 0-.544-.118-.593-.075-1.202-.164-1.785-.09-.582.03-1.138.001-1.707-.021-.398.13-.802.187-1.206.058-.421.077-.848.149-1.266.049-.286.159-.563.242-.843.047-.158.089-.318.145-.472.118-.322.244-.641.369-.96.013-.036.057-.067.057-.099-.011-.375.321-.632.367-.949.067-.459.355-.737.587-1.073.065-.095.09-.218.138-.325.084-.183.081-.42.374-.46.08-.011.119-.221.206-.311.206-.214.399-.515.653-.586.272-.077.653-.007.9.142a.71.71 0 0 1 .329.842c-.051.173-.102.279-.269.378-.202.12-.366.315-.524.498-.177.204-.34.422-.487.648-.141.216-.257.448-.377.676-.154.29-.322.575-.444.878-.097.242-.104.522-.207.761-.325.751-.407 1.547-.492 2.346-.071.667-.164 1.332-.227 2-.019.201.028.409.05.614.017.163.083.301-.031.49-.082.139.025.391.047.591l.178 1.63c.004.039.002.088.024.114.312.388.154.9.365 1.321.325.651.523 1.363.951 1.966.133.188.213.41.333.606.118.192.223.416.394.547.175.135.424.174.64.255l-.055.034M67.216 13.173c.168.035.315.108.443.084.725-.135 1.448-.266 2.185-.11.125.026.236.115.354.175.146.075.322.12.433.229.259.257.491.543.726.823.087.103.168.216.228.336.121.246.229.498.337.75.049.113.075.236.125.35.259.591.49 1.184.489 1.85-.001.667-.058 1.333-.287 1.949-.182.489-.506.932-.792 1.379-.146.227-.368.404-.521.628-.291.428-.751.504-1.194.648-.46.151-.927.175-1.398.163-.464-.009-.939.012-1.317-.353a12.404 12.404 0 0 0-.766-.662c-.14-.114-.298-.208-.45-.306-.752-.486-1.043-1.272-1.303-2.062-.093-.283-.008-.623-.092-.913-.118-.409-.004-.781.09-1.153.154-.608.283-1.232.697-1.741.045-.056.043-.149.078-.217.091-.179.152-.394.292-.522.309-.283.655-.525.994-.775.08-.059.185-.091.283-.123.204-.065.437-.098.366-.427m.989 1.44c-.234.11-.426.185-.601.287-.222.13-.465.251-.634.435-.175.19-.289.443-.395.684-.175.398-.37.798-.469 1.218-.127.543-.229 1.099.076 1.647.083.15.121.306.285.393.033.018.047.076.066.117.053.112.088.239.162.336.121.153.275.28.402.43.381.446.896.569 1.445.629.278.031.482-.116.722-.199.465-.161.824-.381 1.029-.829.085-.186.133-.394.242-.562.311-.481.389-1.027.423-1.571.017-.261-.096-.539-.187-.797-.264-.749-.493-1.504-1.174-2.035-.427-.333-.893-.353-1.392-.44v.257z" clip-path="url(#b)" fill="#fff"/></svg>