<svg xmlns="http://www.w3.org/2000/svg" width="349.893" height="37.9" viewBox="25.83 180.326 349.893 37.9"><path fill="#FFF" d="M176.866 184.027h2.253c1.529.081 3.058.241 4.586.402 1.207.161 2.414.241 3.541.483 1.046.241 2.092.402 3.058 1.046.322.242.724.402 1.046.563 1.046.402 1.771 1.207 2.575 1.851.724.644 1.448 1.207 2.012 1.851.563.644 1.288 1.207 1.529 2.092 0 .081.161.161.241.241.161.161.322.322.483.563.402.805.805 1.69 1.126 2.495.242.644.644 1.368.563 2.092-.081 1.288-.402 2.495-.483 3.782-.241 1.852-1.288 3.299-2.253 4.748-.242.322-.644.482-.885.805-.563.805-1.288 1.367-2.173 1.851-1.448.644-2.896 1.207-4.506 1.528-1.529.322-2.978.322-4.426.162-2.092-.242-4.023-.886-5.874-1.852-.402-.241-.644-.16-.966.08-.563.483-1.368.805-1.77 1.449-.483.644-1.288.965-1.771 1.689-.482.645-1.207.966-1.931 1.287-.402.161-.805-.321-.805-.885.161-1.287.242-2.494.402-3.781.081-.725.161-1.369.322-2.012.161-.645 0-1.127-.563-1.609a35.65 35.65 0 0 1-2.575-2.334c-.644-.644-1.127-1.448-1.609-2.253-.725-1.046-1.207-2.173-1.288-3.541-.081-.483-.161-1.046-.322-1.529-.242-1.287-.161-2.494.402-3.701.402-.885.724-1.851 1.287-2.575.563-.724 1.046-1.448 1.932-1.851.563-.241.965-.724 1.529-1.046.885-.483 1.851-.885 2.816-1.288.968-.32 1.773-.561 2.497-.803zm-3.058 26.555c.081 0 .161 0 .241.08.483-.402 1.046-.725 1.449-1.207.885-.805 1.77-1.689 2.655-2.575a.977.977 0 0 1 1.207-.161c.161.08.322.08.483.161.08 0 .241.081.241.161.161.402.563.482.885.562.161.081.322.081.483.162.805.482 1.689.805 2.655 1.045 1.609.322 3.299.564 4.989.242.563-.08 1.046-.161 1.609-.242.483-.16.966-.402 1.529-.562 1.046-.242 1.931-.805 2.736-1.529.724-.562 1.288-1.287 1.771-2.092.483-.725.965-1.449 1.288-2.253.644-1.69.804-3.38.482-5.07-.161-.644-.482-1.287-.724-1.931-.563-1.287-1.448-2.414-2.333-3.46-.402-.563-1.046-.885-1.529-1.368-.966-.965-2.012-1.77-3.219-2.414-.563-.322-1.126-.724-1.77-.885-.885-.322-1.851-.402-2.816-.644-.966-.161-2.012-.483-2.978-.563-1.287-.161-2.575-.081-3.943-.161a9.601 9.601 0 0 0-3.701.483c-1.046.402-2.253.644-3.138 1.368-.644.482-1.449.805-1.931 1.368-.644.724-1.127 1.529-1.609 2.333-.483.885-.805 1.851-.805 2.897.081.724.161 1.448.322 2.172.161.805.322 1.609.644 2.253.402.885.966 1.689 1.609 2.414.563.644 1.207 1.207 1.851 1.851l1.689 1.689c.242.242.483.563.161.966-.161.241-.161.563-.161.805-.081.805-.081 1.528-.161 2.333-.08.565-.08 1.128-.161 1.772zM303.359 216.938c-.241.161-.482.321-.644.482s-.161.402-.483.322c-.321-.081-.482-.241-.562-.563-.08-.805-.08-1.529-.08-2.334 0-.724-.162-.885-.805-1.046a8.308 8.308 0 0 1-3.139-1.608c-.805-.725-1.529-1.609-2.012-2.576-.482-.885-.645-1.931-.885-2.896-.242-.805-.402-1.689-.402-2.494-.081-.725.08-1.448.08-2.253v-.725c-.08-1.046.08-2.092.402-3.138.241-.885.562-1.77.965-2.575.322-.724.645-1.368 1.127-2.012s1.047-1.207 1.609-1.771c.322-.241.805-.322 1.287-.322.645-.081 1.288-.161 1.932-.081.563.081 1.207.242 1.689.483.805.402 1.609.805 2.334 1.288.725.563 1.448 1.288 1.689 2.253.242 1.126.563 2.173.725 3.299.08.644.08 1.288.161 1.931.08.644.241 1.368.241 2.012 0 .482-.08 1.046-.161 1.529-.08.562-.08 1.126-.161 1.689-.16 2.092-.805 4.023-2.092 5.633-.241.322-.482.725-.885 1.046-.483.402-1.127.724-1.689.966-.402.16-.564.402-.483.805.081.724.161 1.448.241 2.253l.001.403zm-2.091-4.828v-2.333c0-.322 0-.564.402-.564s.725.322.805.725c.08.645.16 1.207.241 1.852.081.321.241.402.483.24.321-.16.562-.402.805-.562 1.126-.885 1.931-2.012 2.252-3.38.242-.966.402-1.931.563-2.978.081-.644.241-1.287.241-1.932 0-1.126-.08-2.252-.241-3.379a32.513 32.513 0 0 0-.724-3.862c-.161-.483-.483-.966-.886-1.368-.482-.482-1.046-.805-1.608-1.126-.483-.241-.967-.402-1.449-.644-.241-.081-.562-.242-.805-.161-.562.081-1.127.322-1.689.483-.08 0-.242.081-.322.081-.241.081-.562.081-.644.241-.402.563-.805 1.126-1.126 1.69-.645 1.126-1.207 2.253-1.369 3.541-.08.483-.24 1.046-.24 1.529-.081.644 0 1.368 0 2.012 0 .482-.081.965-.081 1.448.081.805.081 1.528.241 2.333.161.725.322 1.449.563 2.174.321.885.563 1.77 1.368 2.333.241.161.482.402.725.563.724.561 1.529.883 2.495 1.044zM32.75 189.982c.081-.724-.161-1.207-.402-1.771-.161-.322-.161-.644-.241-.965-.563-.885-1.771-1.046-2.656-.563-1.529.885-1.77 2.414-2.092 3.862-.161.563-.081 1.127-.081 1.69-.081.885-.242 1.771-.322 2.656 0 .885 0 1.77.08 2.655v.322c0 .965-.08 1.931 0 2.897.081 1.528.081 3.058.161 4.506.081 1.046.081 2.093.322 3.138.161.886.563 1.771.724 2.736.081.725.563 1.127.966 1.609.241.322.563.563.805.885.402.402.885.322 1.288.322.563 0 .805-.482 1.046-.805a6.452 6.452 0 0 0 .885-3.219c0-.965-.081-2.012-.081-2.977 0-.725.161-1.449.161-2.174 0-.562-.08-1.045-.08-1.609 0-.724-.081-1.447-.081-2.172 0-1.046-.241-1.368-1.207-1.609-.563-.161-1.046-.402-1.368-.805-.322-.322-.482-.724-.644-1.126-.081-.081.081-.402.241-.483.081-.081.322-.081.483 0 .483.322.966.724 1.529.966.242.161.563.322.885.241.483-.081.805.161 1.288.241.483.081.805-.08 1.046-.402.322-.402.644-.804 1.046-1.126.161-.161.483-.241.563-.161.241.161.483.322.402.805-.161.965-.724 1.529-1.529 1.931-.322.161-.724.322-1.126.563a.614.614 0 0 0-.161.402c0 .966.081 2.012.081 2.978 0 1.932 0 3.781-.081 5.713 0 1.047-.081 2.092-.322 3.059-.322 1.447-1.126 2.574-2.575 3.138-.402.161-.966.08-1.368-.161-.805-.402-1.69-.725-2.253-1.529-.242-.321-.402-.724-.563-1.126-.241-.483-.402-.966-.644-1.448-.644-1.449-.724-3.059-.805-4.587l-.242-4.104c0-.966.081-1.932.081-2.897v-5.069c0-.322.081-.644.161-.966.081-.402.081-.724.081-1.126 0-1.771.241-3.46 1.126-4.989.724-1.368 1.931-2.173 3.541-2.333.724-.081 1.288.322 1.77.724.724.563.966 1.368 1.288 2.172s.483 1.609.483 2.414c0 .563 0 1.126-.161 1.609a.974.974 0 0 1-.563.563c-.402.08-.402-.242-.402-.563-.402-.484-.402-1.208-.483-1.932zM63.408 208.892c0-.483 0-.886.081-1.368v-.644c0-.805-.161-1.609 0-2.414.161-.644-.081-1.368-.081-2.012 0-.402.081-.805.242-1.126.08-.081.322-.161.563-.242l.241.483c.081-.081.161-.081.242-.161 0 .08.081.08.081.08v5.392c0 .805-.081 1.528-.081 2.333 0 .725.081 1.369.161 2.093 0 .081.081.241.161.321.402.725.966 1.449 1.288 2.173.402.966.965 1.851.805 2.978-.161.966-1.046 1.689-2.092 1.127-.563-.242-1.046-.645-1.126-1.368v-.081c-.724-1.046-.402-2.172-.483-3.299-.081-.965-.161-1.851-.885-2.655-.885-1.046-1.529-2.253-2.333-3.38-.644-.965-1.368-1.851-2.012-2.816 0 .161-.08.322-.08.563 0 .563.08 1.207.161 1.771.081 1.77.242 3.46.161 5.23-.081.885.241 1.77.241 2.655 0 1.046.322 2.092-.081 3.138-.08.242-.322.402-.402.563-.161-.241-.402-.402-.402-.644-.161-1.368-.241-2.816-.322-4.185l-.241-5.311c-.081-.966-.242-1.851-.242-2.816 0-1.126.081-2.253.161-3.38 0-.16.241-.321.402-.402.161 0 .402.081.563.161 1.046.725 1.448 1.931 2.092 2.978.644 1.046 1.449 2.012 2.253 3.058.322.402.563.805.885 1.207-.082.081-.002.081.079 0zm2.253 7.805c.081-.805-.322-1.449-.563-2.173-.403.885-.161 1.771.563 2.173zM360.974 194.971V201.972c0 1.046-.08 2.092-.08 3.138v1.449c0 .24-.402.805-.645.724-.16-.081-.402-.241-.482-.483-.402-.724-.08-1.528-.161-2.333 0-.644.081-1.207.081-1.851 0-1.287-.081-2.655 0-3.943.08-1.851.16-3.702.321-5.633 0-.402.322-.805.483-1.207.241-.402.644-.322.965-.081.725.563.805 1.529 1.127 2.334.805 1.77 1.368 3.541 2.092 5.311.402 1.046.886 2.012 1.368 3.058 0-.08.08-.08.08-.161-.08-1.287-.241-2.494-.321-3.782-.081-.885-.241-1.77-.322-2.655a8.464 8.464 0 0 1 0-2.012c0-.402.161-.885.161-1.288s-.161-.805-.161-1.287c0-.242 0-.483.081-.644.161-.563.321-.644.885-.322.322.161.563.322.885.483-.644.805-.16 1.69-.321 2.414v.241c-.322 1.207.08 2.414.161 3.621l.241 3.863c.161 1.609.321 3.219.482 4.747.081.724-.08.886-.644 1.046-.482.161-.724 0-1.046-.644a89.092 89.092 0 0 1-2.012-4.908 208.484 208.484 0 0 0-1.689-4.023c-.242-.644-.563-1.368-.805-2.012-.081-.161-.161-.241-.161-.402-.402.241-.483.241-.563.241zM251.459 202.776v2.173c0 .643-.162 1.367-.242 2.012 0 .805 0 1.609.08 2.414 0 .562.081 1.207.081 1.77v.322c.081.402-.081.725-.483.725-.482.08-.724-.162-.724-.645-.081-.644-.081-1.287-.081-1.932 0-.724-.08-1.447-.08-2.252 0-1.932-.08-3.943.08-5.875 0-.805.322-1.609.645-2.333.241-.483 1.046-.644 1.77-.402.805.322 1.207.965 1.449 1.771.16.644.08 1.287.08 1.931 0 1.288.08 2.575.08 3.862 0 .725 0 1.529.081 2.254.081.724.161 1.367.402 2.012.081.16.402.402.644.402s.645-.242.645-.402c.16-.483.24-1.047.321-1.609.081-1.369.161-2.656.081-4.023 0-1.207-.242-2.414-.322-3.541-.08-.805-.08-1.609-.161-2.333 0-.563.402-.805.886-.644.724.242.724.402.643 1.207-.08.563 0 1.207.081 1.851.081.805.241 1.609.241 2.414v3.059c0 1.528-.08 2.977-.644 4.426-.081.24-.321.402-.483.562-.805.805-1.287.645-2.333.08-.886-.482-1.288-1.207-1.288-2.172 0-.482-.08-.885-.16-1.368s-.08-1.046-.08-1.528c-.081-1.852-.081-3.783.08-5.633 0-.322-.161-.645-.242-1.046 0-.081-.16-.161-.24-.322-.081.08-.242.161-.242.322-.16.563-.241 1.126-.402 1.69-.163.399-.163.56-.163.801zM116.436 213.639c-.081-1.367-.161-2.735-.161-4.104 0-1.529.081-3.058.081-4.586 0-.725-.161-1.449-.161-2.173-.081-1.046-.081-2.012-.081-3.058 0-.563-.08-1.126-.08-1.609v-1.931c-.081-1.207-.161-2.494-.322-3.701 0-.161-.08-.322-.08-.483-.081-.724.322-1.046.965-.885.402.081.724.241 1.046.483.644.483 1.288.965 1.851 1.609.483.563.965 1.207 1.207 1.851.644 1.529.885 3.138.563 4.748-.161.725-.081 1.529-.241 2.253-.081.644-.322 1.288-.563 1.931-.241.805-.563 1.69-.885 2.495-.322.805-.966 1.368-1.609 1.931-.161.081-.322.322-.322.483 0 1.368.081 2.735.081 4.104 0 .08.081.24.081.321.161.563-.081 1.287-.644 1.609-.402.241-.885-.081-.885-.644.078-.242.078-.483.159-.644zm1.287-7.161c.081 0 .161.081.161.081.161-.322.241-.564.402-.886.322-.805.724-1.69.965-2.495.242-.885.242-1.85.483-2.815a7.959 7.959 0 0 0 0-3.38c-.161-.805-.483-1.609-.805-2.333-.161-.322-.483-.644-.805-.885-.322-.322-.724-.563-1.046-.805-.081 0-.081.081-.161.081.161 2.253.483 4.426.483 6.759.001 2.172.242 4.425.323 6.678zM104.285 189.418c-.563.081-1.126 0-1.689.161-.966.322-1.931.161-2.897.161-.805 0-1.69.08-2.495.161-.08 0-.322.161-.322.241 0 .725.081 1.449.161 2.173v.885c.161 1.046.322 2.172.402 3.219.081 1.046.081 2.092.081 3.138.08.966.08 2.012.161 2.978 0 .402.483.402.724.321 1.126-.161 2.333-.321 3.46-.482.322 0 .724 0 .965.161.161.08.161.562.081.805-.081.24-.242.402-.644.402-.965.08-2.011.24-2.977.321-.322 0-.724.081-1.046.081-.402 0-.563.16-.563.562 0 .725 0 1.368-.081 2.092 0 .402-.08.805-.08 1.207-.081.322.08.564.402.645.724.241 1.448.241 2.253.16.965-.16 2.012-.24 2.977-.402.322 0 .563-.321.966-.16.402.16.805.241.644.805 0 .08.081.16.081.241-.322.644-.885.483-1.448.483-.483 0-1.046.08-1.529.16-.644.08-1.207.242-1.851.242-.724 0-1.448-.081-2.172-.162-.402-.08-.805-.16-1.207-.321s-.644-.644-.563-1.126c.081-.564.081-1.207.081-1.771 0-.885.081-1.77.081-2.735v-3.701-3.219c0-.242 0-.402-.081-.644-.322-1.046-.322-2.092-.402-3.138-.081-1.207-.081-2.494-.161-3.701 0-.322 0-.483.322-.644.885-.563 1.851-.482 2.816-.482h2.816c.402 0 .805-.161 1.207-.242.322-.081.724-.161 1.046-.081.241.081.644.161.482.644-.081.241-.001.402-.001.562zM220.801 191.833c-1.287-.241-2.334.724-3.38 1.771-.483.483-1.046.885-1.368 1.609-.644 1.448-1.207 2.977-1.367 4.748-.081 1.126-.242 2.253 0 3.38.241 1.045.482 2.092.724 3.057.081.322.161.725.241 1.047.563 1.367 1.368 2.334 2.414 2.736.322.16.725.321 1.047.402.16.08.321.08.402.08.724-.161 1.528-.322 2.172-.645.563-.24.966-.885 1.047-1.77.08-.402.16-.725.24-1.127.162-1.609.725-3.058.402-4.747-.08-.322-.08-.725-.08-1.127 0-.241 0-.644-.08-.724-.242-.161-.563-.322-.805-.322-.563 0-1.207.081-1.771 0-.161 0-.321-.402-.402-.724-.081-.402.321-.966.644-.966.725-.081 1.529-.322 2.254-.402.482-.081.965 0 1.447.161.322.081.483.965.402 1.368-.08.483-.08 1.046-.08 1.529 0 .724.08 1.448.08 2.173 0 1.287.081 2.494-.321 3.701-.241.644-.322 1.448-.483 2.172-.482 1.852-1.528 2.816-2.816 3.219-.805.242-1.609.242-2.414.322-.16 0-.24 0-.402-.08-.643-.322-1.367-.563-1.931-1.047-.563-.402-1.046-1.045-1.528-1.609-.645-.805-1.047-1.85-1.288-3.057-.081-.402-.241-.725-.321-1.127-.402-1.449-.483-2.978-.402-4.506.08-1.368.24-2.656.482-4.024.08-.644.402-1.126.644-1.689.241-.563.563-1.207.886-1.69a6.914 6.914 0 0 1 1.126-1.448c.483-.402.805-1.046 1.448-1.046.322 0 .563-.483.885-.644 1.047-.402 2.093-.644 3.139-.322h.08c.242 0 .564-.161.564.402 0 .402-.483.805-.725.805h-.402c.078.161-.082.161-.404.161zM247.596 206.316c-.241.322-.402.563-.562.725-.805-.161-.966-.805-.966-1.449 0-.643-.241-.643-.886-.643h-.885c-.725 0-1.368-.081-2.092-.081h-.402c-.725-.081-.725-.081-.725.644 0 .563-.08 1.127-.16 1.689 0 .242-.162.483-.322.564-.161.08-.402.16-.645.08-.08 0-.24-.322-.24-.482-.081-1.288 0-2.576.402-3.863.24-.644.16-1.367.24-2.012.162-.885.322-1.77.483-2.735.081-.644.241-1.207.321-1.851.081-.482.242-.965.322-1.368 0-.241 0-.483.08-.644.081-.563.081-1.046.242-1.609.16-.885.402-1.851.644-2.736.081-.161.161-.482.321-.482.161-.081.402.081.645.161.241.161.402.322.644.483.402.241.563.644.644 1.126.08.563.322 1.126.482 1.771.161.805.322 1.69.483 2.494.241 1.207.482 2.495.724 3.702.242 1.127.482 2.253.805 3.46v.081c.805.805.08 1.931.645 2.816.16.079 0 .159-.242.159zm-3.943-13.598h-.161l-.241.483c-.321 1.77-.644 3.46-1.046 5.23-.242 1.288-.482 2.575-.725 3.862-.08.322-.08.563-.16.885-.081.402.08.564.482.483 1.127-.081 2.253-.161 3.379-.321.242 0 .322-.162.242-.402-.161-.966-.322-1.932-.563-2.897-.241-1.046-.402-2.092-.644-3.218-.081-.322 0-.725-.161-1.046-.241-.483-.161-.965-.241-1.448 0-.404-.081-1.048-.161-1.611zM236.09 200.282c.08.885.08 1.69.08 2.575 0 .724-.161 1.448-.08 2.253.08 1.852.24 3.701.321 5.553v.241c-.241.644.081 1.207.402 1.69-.241.321-.402.724-.724.885-.162.08-.564-.081-.805-.161-.162-.081-.242-.241-.402-.402v-1.851c0-.725-.081-1.529-.081-2.254 0-.482-.081-.965-.081-1.447 0-1.127.081-2.334.081-3.461 0-.805-.081-1.689-.081-2.494 0-.322-.24-.402-.482-.402-.562.08-1.127.161-1.609.241-.08 0-.241.161-.241.241-.241 1.368-.402 2.816-.644 4.185-.161.805-.482 1.528-.644 2.333-.081.162 0 .402-.081.645-.402.965-.805 1.932-1.528 2.736-.241.24-.483.482-.644.724-.242.321-.482.321-.725.081-.08-.162-.16-.483-.08-.645.402-.725.965-1.367 1.287-2.092.563-1.287 1.207-2.494 1.287-3.943 0-.885.322-1.77.483-2.655.08-.482.08-1.046.08-1.609 0-.08-.161-.161-.241-.241-.644-.241-1.287-.322-1.851-.724-.402-.242-.805-.644-.805-1.207 0-.322-.161-.724-.161-1.046.08-.322.161-.724.482-.965.645-.483 1.69-.563 2.334.161l.725.724c.08.08.16.161.16.241.161.402.242.724.402 1.126 0 .081.161.161.242.161.644 0 1.287 0 1.85-.081.242 0 .402-.161.645-.241.482-.081.562 0 .725.482 0 .161.321.322.402.483-.079.16.002.16.002.16zm-5.473-.644c.081-.644-.482-1.529-.965-1.689-.081 0-.161 0-.242.08-.08.161.081 1.046.242 1.127l.965.482zM76.282 202.776c-.241 1.126-.563 2.173-.724 3.299-.161 1.207-.965 2.093-1.368 3.138-.161.242-.402.483-.644.725-.805.725-1.689 1.287-2.736 1.529-.402.08-.885.08-1.046-.242-.161-.24 0-.643.081-1.045 0-.564.081-1.207 0-1.771-.242-1.207-.242-2.414-.161-3.701.081-.885 0-1.851-.081-2.735-.08-1.448-.161-2.978-.161-4.426 0-.161.081-.322.081-.483.08-.322 0-.563-.322-.644a1.138 1.138 0 0 1-.563-.483c-.081-.402.322-.563.644-.563.644 0 1.288 0 1.851.242.644.161 1.207.563 1.77.885 1.851 1.127 2.977 2.736 3.219 4.989.081.402.081.805.081 1.207-.001.079.079.079.079.079zm-5.471-5.713c-.241.885.483 11.99.805 12.552.402-.321.805-.562 1.126-.885.161-.16.161-.482.322-.644.644-.644 1.126-1.288 1.126-2.333 0-.483.241-1.047.402-1.609.241-1.207.241-2.334-.081-3.541-.322-1.046-.966-1.771-1.609-2.575-.643-.482-1.367-.724-2.091-.965zM350.271 191.511h1.368c1.287.081 2.333.805 3.219 1.771.966 1.046 1.689 2.172 1.931 3.621.161 1.449.322 2.897-.16 4.265-.322.885-.725 1.851-1.529 2.413-1.207.886-2.494 1.529-4.104 1.047-1.529-.482-2.736-1.368-3.702-2.736-.562-.885-.644-1.77-.805-2.735-.16-.805-.16-1.609.081-2.333.321-1.046.482-2.092.885-3.058.241-.563.483-1.287 1.127-1.609.241-.08.482-.241.644-.241.643.319.884-.003 1.045-.405zm-2.494 7.322h.08v.161c.322 1.368.725 2.655 2.092 3.46.805.483 1.529.966 2.575.724.966-.24 1.851-.643 2.334-1.608.563-1.127.644-2.334.563-3.541v-.563c0-.241.08-.483 0-.644-.161-.402-.402-.725-.563-1.127-.161-.241-.161-.644-.402-.885-.322-.402-.725-.724-1.127-1.126-.724-.644-1.528-1.127-2.575-.885-.16.081-.321.161-.482.161-.885 0-1.126.563-1.368 1.207-.16.563-.321 1.207-.482 1.771-.242 1.044-.484 1.93-.645 2.895zM339.489 193.442c.08.322.08.483.08.724.081.402-.241.725-.563.563-.885-.322-1.77 0-2.574.081-.081 0-.242.241-.242.402-.08 1.126-.08 2.253-.08 3.46 0 .402-.08.805-.08 1.207 0 .885.08 1.69.16 2.495v1.126c0 1.449 0 2.978.402 4.426.242.966 1.449 1.529 2.334 1.207.241-.08.402-.402.563-.644.402-.724.724-1.448 1.126-2.173.081-.16.322-.322.483-.322.241.081.482.242.563.483.16.644.08 1.207-.402 1.771-.483.562-.805 1.207-1.368 1.77-.241.242-.725.483-1.127.483a7.35 7.35 0 0 1-1.851-.241c-.161 0-.241-.08-.402-.161-.966-.886-1.689-1.931-1.609-3.38.08-1.77-.08-3.621-.161-5.391-.08-1.771-.08-3.541-.08-5.311 0-.242.08-.483.08-.725.081-.322-.08-.402-.402-.402-.402 0-.805.08-1.126.08-.241 0-.483-.161-.644-.402-.161-.241.08-.482.321-.563.483-.242.886-.483 1.448-.402.241 0 .402-.081.402-.402 0-1.126.081-2.333.081-3.46 0-.242.16-.644.321-.725.241-.08.563.081.886.242.08.081.16.241.16.402v3.379c0 .081.242.322.322.322.482 0 .885-.08 1.368-.161.323-.16 1.209.001 1.611.242zM54.798 201.811c-.483.241-.966.402-1.448.644-.161.081-.402.081-.483.161-.161.161-.402.402-.322.562.161.564.322 1.127.563 1.69.322.886.644 1.851.966 2.735 0 .081.081.162.081.242.402.482.402.885.08 1.448-.241.321-.482.402-.885.161-.402-.322-.725-.725-.483-1.368v-.161c-.805-1.046-.966-2.414-1.368-3.621a5.66 5.66 0 0 0-.241-.644c-.081-.483-.241-.724-.805-.483-.402.162-.805.081-1.207.081-.081 0-.241.161-.241.241-.161.482-.322.966-.402 1.449-.081.321 0 .724-.081 1.045-.161 1.047-.242 2.093-.402 3.139 0 .242-.161.482-.241.645a.871.871 0 0 1-.563.24c-.241-.08-.483-.16-.483-.562.081-.563.161-1.047.242-1.529.161-.725.161-1.529.241-2.334.081-.402.081-.805.161-1.207s.161-.805.241-1.126 0-.402-.322-.563a6.804 6.804 0 0 1-1.771-.724c-.161-.081-.161-.563-.161-.805 0-.081.402-.161.563-.161.402.08.885.241 1.288.402.161.08.241.08.402.08.322.081.402-.08.483-.321.241-1.288.482-2.656.724-3.943.081-.402.081-.885.161-1.368.081-.322.161-.724.563-.724s.805.161.966.644c.241.724.482 1.448.644 2.173.322 1.046.563 2.012.805 3.058.081.322.241.402.483.241.402-.161.805-.161 1.207-.482.241-.161.724-.081 1.046 0 .081 0 .081.402.081.644-.002.159-.082.32-.082.401zm-4.104-.162c-.322-.966-.08-1.931-.885-2.736-.242.805-.402 1.61-.563 2.333-.081.402.241.483.563.483.241.082.563.001.885-.08zM324.12 196.982c-.081-.081-.241-.161-.322-.161-.805.08-1.609.08-2.414.161-.321 0-.482.242-.402.563.081.805.241 1.609.241 2.494v1.288l.242 3.138c.08 1.448.16 2.897.241 4.426.563-.081 1.126-.161 1.609-.321.482-.081.885-.322 1.287-.483.483-.161.966-.081 1.127.321.161.483.08.886-.483 1.047-.965.322-1.851.805-2.896.805-.322 0-.725.16-1.046.16-.241 0-.483 0-.725-.08-.402-.08-.563-.322-.482-.725.08-1.287.161-2.654.08-3.942 0-1.368-.241-2.655-.321-4.023-.081-1.368-.081-2.736-.161-4.104 0-1.207-.081-2.414-.081-3.621 0-.805.161-1.609.322-2.414 0-.081.161-.241.241-.241.805-.161 1.609-.483 2.495-.402.562 0 1.126-.161 1.689-.242.08.081.322.242.402.402.08.242.161.563.161.885 0 .081-.322.241-.483.241-.885 0-1.77.081-2.574.081-.483 0-.886.322-.886.805 0 .885.081 1.771.081 2.736.644 0 1.207-.081 1.77-.081.483-.08.966-.08 1.529-.161.08 0 .241.081.241.161.081.242.161.563.081.805-.08 0-.322.241-.563.482zM43.613 202.938c.081.402.161.805.242 1.126.241.805.081 1.69 0 2.495-.081.562-.242 1.126-.563 1.609-.241.402-.563.805-.885 1.207-.161.24-.241.321 0 .562.885.966 1.771 1.932 2.656 2.978.482.563.805 1.126 1.126 1.689-.161.241-.322.402-.483.563-.161.241-.483.322-.644.161-.322-.241-.563-.563-.805-.886-.322-.402-.644-.885-.966-1.287-.402-.482-.805-.965-1.207-1.367-.402-.483-.885-.886-1.288-1.288-.08 0-.08.081-.161.081 0 .724-.081 1.528-.081 2.252 0 .805-.081 1.609-.081 2.334 0 .322-.402.725-.724.725-.483 0-.724-.242-.724-.725.081-1.368.161-2.655.161-4.023 0-.644-.081-1.207-.081-1.851 0-1.046-.081-2.093-.081-3.058 0-1.287-.081-2.575-.081-3.782 0-1.046.242-1.287 1.288-1.207.161 0 .241-.08.402-.08 1.207-.081 1.931.482 2.575 1.448l.483.482-.078-.158zm-3.218 5.954h.241c.322-.241.805-.402 1.046-.724.563-.645.966-1.369 1.046-2.254.161-1.127.161-2.092-.563-3.058-.483-.644-.885-.885-1.609-.724-.161.08-.322.321-.322.482 0 1.287.081 2.574.161 3.781.08.887 0 1.692 0 2.497zM260.793 206.396c0-.24.08-.562.08-.885 0-1.207-.08-2.494-.08-3.701v-3.862c0-.322-.081-.724-.081-1.046 0-.805 0-1.609.081-2.414 0-.563.644-.966 1.207-.885.724.081 1.367.402 1.931.805.402.241.886.322 1.288.563.965.644 1.367 1.609 1.85 2.575.564 1.126.805 2.333.645 3.54-.161 1.288-.563 2.494-1.207 3.701-.322.645-.645 1.288-1.287 1.771-.402.24-.805.562-1.369.402-.24-.081-.562.16-.885.24-.241.081-.482.081-.805.162h-.402c-.725.001-.886-.161-.966-.966zm1.609-.804c1.287.322 2.092-.16 2.654-1.045.322-.483.564-.967.725-1.529.563-1.609.725-3.219.08-4.828-.321-.885-.643-1.69-1.447-2.253-.564-.402-1.127-.805-1.771-.966-.402-.08-.563 0-.483.402 0 .563.081 1.207.081 1.771 0 1.046-.081 2.092.08 3.138s.081 2.172.081 3.298v2.012zM280.507 209.375c-.483.08-.724-.162-.805-.564-.081-.321.241-.805.644-.885 1.207-.08 1.529-.965 1.852-1.932.24-.805.24-1.609 0-2.333-.162-.724-.242-1.528-.564-2.253-.482-1.207-1.126-2.333-1.689-3.46-.644-1.207-1.046-2.495-1.046-3.862v-2.736c0-.322.161-.644.241-1.046.08-.322.08-.644.161-.965.081-.242.161-.483.321-.644.402-.483.645-1.207 1.449-1.287.241 0 .482-.081.725 0 .16 0 .321.161.321.322s-.081.322-.161.482c-.402.483-.805.885-1.207 1.288-.08.081-.08.081-.08.161.08.965-.482 1.77-.402 2.736 0 .965.241 1.931.402 2.896.322 1.449.965 2.736 1.77 4.023.886 1.368 1.127 3.058 1.449 4.667.16.967-.08 1.852-.482 2.736-.162.322-.242.725-.402 1.047-.566.884-1.371 1.528-2.497 1.609zM275.115 198.592c-.241-.322-.562-.402-.885-.241-.161.08-.322 0-.482.08-.482 0-.966.081-1.449.161-.08 0-.16.161-.16.241 0 .885.08 1.69.08 2.575v1.127c0 .321.08.402.402.321.645-.08 1.207-.161 1.851-.161.322 0 .644.081.966.161.08 0 .241.241.241.321 0 .242-.08.483-.08.805 0 0-.081.081-.161.081-.563-.081-1.046 0-1.609 0-.402 0-.725.081-1.046.161-.241.08-.483.241-.402.562v2.736c0 .242-.081.563-.081.805 0 .645.081 1.207.162 1.852 0 .08.24.24.321.24.724-.16 1.368-.321 2.092-.482.725-.241 1.288.161 1.127.885-.081.322-.563.645-1.046.645-.563.08-1.127.16-1.771.241-.483.081-1.046.241-1.528.241-.564.08-.805-.241-.886-.725 0-.321.081-.643 0-.965 0-.966 0-2.012-.081-2.978v-1.207-4.265c0-.725.081-1.529.081-2.253 0-.402 0-.805-.081-1.207 0-.322 0-.483.322-.644.645-.322 1.368-.402 2.092-.482.483-.081.886-.322 1.368-.322.322 0 .805.081.966.322.322.402.161.885-.161 1.126-.001.082-.081.162-.162.243zM154.255 191.108l.482.241c.322.081.402.242.402.483 0 .242-.08.402-.402.483-.322.081-.724.322-.965.563-.242.241-.402.644-.563 1.046l-.241.241c-.081.081-.161.081-.161.161-.241 1.046-.483 2.172-.563 3.219-.081 1.126.161 2.333.885 3.299.242.402.402.805.644 1.207.322.563.805 1.046.965 1.609.322.724.563 1.448.483 2.333 0 .081 0 .242.081.402.483.645.161 1.288 0 1.932-.081.482-.161.966-.402 1.368-.322.563-.644 1.126-1.046 1.609-.402.402-.966.563-1.449.805-.081.081-.402-.081-.482-.161-.081-.16-.161-.482-.081-.644.081-.241.322-.483.563-.644.966-.645 1.449-1.609 1.529-2.816.161-1.529-.322-2.978-1.126-4.266-.483-.804-1.046-1.608-1.529-2.413-.483-.885-.644-1.851-.644-2.897 0-.885-.081-1.771.161-2.655.322-.966.563-1.931 1.288-2.736.322-.322.402-.805.724-1.046.402-.402.966-.644 1.449-.965l-.002.242zM123.275 208.811c0-.08-.081-.08-.081-.08-.563-.322-.322-.885-.241-1.367.161-.886.402-1.771.563-2.656l.482-1.689c.242-1.046.563-2.092.805-3.058.081-.402.242-.725.402-1.046.402-.805.966-1.046 1.851-.805.08 0 .241.081.241.161.483.805 1.368 1.368 1.448 2.495 0 .161.161.402.242.563.322.805.563 1.609.885 2.414.081.16.242.402.402.482.483.16.402.562.402.885s0 .645.081.885c.081.322.242.725.402 1.047.242.402.161.805-.161 1.207-.242.322-.725.402-.966 0-.161-.322-.322-.645-.402-.885-.161-.402-.241-.805-.402-1.207-.081-.162-.402-.322-.563-.322-.885-.08-1.771-.08-2.656-.08-.402 0-.885.08-1.287.16-.081 0-.242.08-.242.161-.161.563-.402 1.126-.402 1.69-.079.804.002.804-.803 1.045zm5.391-4.506c-.08-.16-.08-.322-.161-.482-.402-1.207-.885-2.414-1.288-3.621-.081-.322-.402-.563-.563-.805-.161.322-.483.563-.563.885-.161.483-.322 1.046-.483 1.529-.241.885-.402 1.77-.644 2.736 1.208-.081 2.415-.162 3.702-.242zM138 213.076c-1.046-.482-1.851-1.127-2.414-2.092-.402-.725-.966-1.369-1.288-2.174-.322-.724-.402-1.528-.563-2.333-.161-.886-.322-1.851-.483-2.816-.242-1.609-.242-3.299.081-4.908.161-.885.241-1.771.482-2.656.402-1.287.644-2.655 1.449-3.701.241-.402.805-.563 1.287-.805.161-.081.322.081.563.081-.081.161-.081.402-.161.563-.161.242-.402.483-.563.805-.402.885-.805 1.771-1.046 2.655-.322 1.046-.402 2.092-.563 3.138a12.186 12.186 0 0 0 0 4.828c.241 1.207.402 2.495.724 3.702.242.885.563 1.77 1.046 2.574.402.645 1.046 1.047 1.609 1.609.725.645.725.645 0 1.287.001.082-.079.163-.16.243zM79.26 217.019c.081-.482.402-.805.965-.885.322 0 .725-.081 1.046-.161.081 0 .161-.08.241-.08.724-1.207 1.207-2.414.966-3.782-.081-.483-.322-.886-.644-1.288-.563-.724-1.207-1.447-1.851-2.172-.483-.563-.805-1.287-.966-2.012-.08-.322-.241-.645-.322-.966v-.241c.242-.645.483-1.368.805-2.012.724-1.287 1.69-1.771 3.299-1.529.241 0 .483.242.563.483.081.321-.241.482-.563.563-.242 0-.483-.081-.724 0-.242.08-.644.08-.805.24-.724.886-1.126 1.932-.805 3.139.322 1.047.965 1.689 1.609 2.494.482.645 1.126 1.207 1.448 1.932.322.645.483 1.449.402 2.173-.081.885-.161 1.771-.563 2.655-.482 1.046-1.368 1.609-2.414 1.851-.081 0-.242 0-.322.081-.48.241-.963.16-1.365-.483zM141.943 202.374c.241 1.046 1.126 2.092 2.253 2.173.402 0 .805.08.885-.242.402-.16.805-.241 1.046-.402.322-.16.563-.16.724.242.161.24.322.402.563.724-.402.241-.724.483-1.126.644-.724.322-1.529.645-2.414.563-.805-.081-1.448-.402-1.931-1.046-.402-.563-.885-1.047-1.288-1.609-.563-.644-.563-1.448-.402-2.253.081-.322.081-.644.161-.885.161-.563.241-1.126.482-1.609.161-.402.563-.724.885-1.046.885-.644 1.851-.483 2.897-.402.402 0 1.046.804 1.046 1.287-.081.563-.081 1.207-.241 1.771-.242.804-.966 1.207-1.69 1.529-.643.159-1.206.4-1.85.561zm0-1.368c.322-.08.563-.08.805-.161.402-.161.805-.402 1.207-.644.08 0 .08-.081.08-.081.081-.241.161-.402.242-.644 0-.402.161-.885 0-1.207-.161-.402-.644-.081-.966 0h-.161c-.242.161-.483.241-.724.483-.483.644-.322 1.449-.483 2.254zM311.567 199.477c.08.483.161 1.046.241 1.609 0 .483-.161.966 0 1.368.321.886.08 1.851.402 2.735a1.346 1.346 0 0 0 1.689.805c.886-.321 1.288-.885 1.368-1.85 0-.725.161-1.368.161-2.093v-1.287c0-.483-.081-1.046 0-1.529 0-.161.241-.402.402-.482.08-.081.321 0 .482.08.644.242.563.725.563 1.288 0 .885 0 1.77-.08 2.656-.081.885-.081 1.851-.402 2.655-.242.805-.645 1.689-1.69 2.012-.966.241-1.931.322-2.816-.242-.644-.402-.885-1.126-1.126-1.85-.563-1.771-.322-3.621-.402-5.392 0-.322.161-.483.482-.483.243-.081.485 0 .726 0zM112.01 195.534c-.161.805-.322.965-1.046.724-.644-.161-1.287.161-1.77.402-.724.483-.563 1.609.161 1.931.482.241.885.563 1.287.885.483.402.966.724 1.368 1.126.724.725 1.126 1.689.885 2.736-.161.562-.483 1.207-.805 1.689-.081.16-.483.322-.725.322-.805 0-1.689 0-2.494-.081-.242 0-.402-.241-.563-.402-.322-.402-.161-.805.322-.805.402 0 .805 0 1.207.081 1.207.321 1.529-.242 1.609-1.288.081-.966-.563-1.609-1.288-2.092a12.19 12.19 0 0 0-1.287-.885c-.242-.161-.402-.242-.644-.402-.805-.483-.965-1.288-.885-2.173.08-1.207.965-1.609 1.931-1.931.886-.079 1.69-.159 2.737.163zM372.642 193.684c.644 0 1.207.161 1.689.724.08.161.08.402.161.563-.241 0-.482.081-.725.081-.321-.081-.644-.241-1.046-.241-.321 0-.724.081-.805.563 0 .081-.08.081-.08.161-.322.724-.241.805.563.965.724.161 1.528.322 2.012 1.046.321.402.724.805 1.046 1.207.402.402.321 1.529-.081 1.931-1.046 1.207-2.414 1.368-3.942 1.127-.241-.08-.483-.161-.725-.322-.241-.16-.482-.402-.241-.805.161-.321.644-.563.885-.402.805.402 1.609.402 2.495 0 .563-.242.724-.966.241-1.449-.644-.644-1.287-1.207-2.334-1.126-.402 0-.885-.161-1.207-.402-.805-.563-.885-1.851-.241-2.575.241-.322.483-.563.805-.805.644-.241.805-.322 1.53-.241zM329.913 205.994c-.402-.08-.965-.24-1.609-.402-.402-.08-.402-.402-.241-.724.081-.321.322-.483.725-.402l1.448.241c.241 0 .644-.08.644-.16 0-.322 0-.725-.161-.967-.241-.482-.724-.724-1.287-.885-.644-.241-1.368-.562-1.932-.965-.482-.322-.644-.886-.482-1.368.161-.966.482-1.851 1.448-2.253.644-.322 1.448-.644 2.173 0 .08.081.161.081.241.081.241.081.563.081.483.483-.081.322-.483.563-.805.483-.081 0-.242-.081-.322-.081-.482-.161-.966 0-1.287.402-.322.483-.402 1.288-.081 1.609.241.242.644.322.966.563.644.322 1.368.644 1.932.966.724.402.885 2.092.321 2.736-.725.483-.967.643-2.174.643zM199.879 207.766c-.322-.645-.322-.967 0-1.449.644-.965 1.288-1.851 1.77-2.896.241-.563.321-1.207.402-1.851.081-.563.081-1.127.161-1.69.08-.644.482-.966 1.046-1.126.402.563.241 1.046.161 1.609-.08.644-.08 1.207-.161 1.851-.161.644-.321 1.287-.563 1.851-.16.321-.322.724-.482 1.046l-1.448 1.689c-.323.321-.564.563-.886.966zM168.497 180.326c.081.081.322.161.322.322s0 .322-.161.402c-.402.322-.805.563-1.126.885a10.45 10.45 0 0 0-1.448 1.851c-.563.885-1.046 1.77-1.288 2.736-.081.161-.081.402-.161.483-.161.161-.402.402-.563.402-.322 0-.322-.242-.322-.563 0-1.368.885-2.414 1.368-3.541.322-.724.966-1.288 1.448-1.851.402-.402.966-.725 1.529-1.046.08 0 .241 0 .402-.08zM167.692 185.073c.563.885.483.885-.322 1.529-.241.161-.402.482-.563.724-.081.081-.081.161-.161.161-.805.805-.885 1.931-1.126 2.978-.081.482-.563.965-.966.965-.08 0-.241-.161-.241-.241 0-1.609.402-3.058 1.207-4.426.402-.644.966-1.126 1.609-1.529.242 0 .403-.08.563-.161zM341.742 201.006c.08-.482.08-.805.161-1.207 0-.724.08-1.529 0-2.253 0-.402.241-.563.482-.563s.644.242.644.483c.241 1.207.322 2.414.483 3.541 0 .322-.322.725-.725.805-.321.08-.805-.161-.885-.482.001-.083-.08-.244-.16-.324zM203.178 207.201c-.08.162-.16.322-.321.483-.563.563-1.126 1.126-1.771 1.69-.16.16-.562.16-.804.08-.242-.161-.081-.402.081-.563.241-.241.482-.483.805-.724l.885-.886c.161-.161.322-.321.483-.402.16-.081.321-.161.402-.081.16.001.16.243.24.403zM342.547 192.718c.402.241.724.563 1.126.805-.402.322-.724.805-1.206.966-.322.08-.886-.242-.725-.805 0-.323.08-.886.805-.966z"/><path fill="#FFF" d="M182.418 199.316a4.515 4.515 0 0 1-.563.322c-.242.081-.563.161-.644.081-.241-.161-.483-.483-.483-.805 0-.644 0-1.368.161-2.012.081-.402.402-.885.724-1.207.402-.322.966-.402 1.368-.563.402-.161.724-.402 1.046-.644.322-.242.644-.483.885-.725.805-.644.805-1.207.161-1.931-.482-.563-1.126-.965-1.931-.885-.805.081-1.689.242-2.333.966-.241.241-.322.563-.724.483-.483 0-.805-.322-.644-.885.161-.644.724-.966 1.126-1.368.805-.724 1.77-.804 2.736-.644h.161c.885-.081 1.609.081 2.173.805.483.644 1.126 1.126 1.288 1.931.161.644-.161 1.207-.402 1.69-.563 1.046-1.529 1.69-2.575 2.333-.322.161-.563.322-.885.402-.563.161-.644.644-.644 1.126.08.565-.001 1.047-.001 1.53zM180.728 201.891c.081 0 .242 0 .322-.08.482-.322.805-.161 1.046.241.241.241.483.563.161.886-.563.482-.966.482-1.368.08-.081-.08-.161-.241-.322-.322.161-.242.161-.483.161-.805z"/></svg>