<svg xmlns="http://www.w3.org/2000/svg" width="389.5" height="160" viewBox="55 169.5 389.5 160"><g fill="#FFF"><path d="M332.607 204.214c1.016.08 1.826.469 2.588 1 .111.08.223.159.333.222.921.5 1.636 1.239 2.303 2.041.659.794 1.08 1.723 1.413 2.699.421 1.23.738 2.493.929 3.787.144.992.199 2 .111 3.009a40.735 40.735 0 0 1-.571 3.93c-.31 1.644-1.017 3.065-2.072 4.311a43.691 43.691 0 0 1-1.636 1.802c-.571.587-1.246 1.016-1.977 1.374-.905.445-1.85.746-2.826.96-.715.159-1.43.294-2.199.31-.016.143-.056.27-.048.396.071 1.064-.056 2.112-.317 3.128-.246.953-.723 1.818-1.334 2.588a9.406 9.406 0 0 1-2.922 2.445c-1.223.659-2.532.921-3.89 1.04-1.278.111-2.453-.207-3.597-.754-.198-.095-.381-.214-.563-.317-.056.032-.119.04-.127.071-.19.516-.548.881-.945 1.215-.944.802-1.953 1.493-3.088 1.985a1.467 1.467 0 0 0-.651.556 40.212 40.212 0 0 1-1.778 2.39c-.635.794-1.207 1.636-1.786 2.477-.437.635-.85 1.286-1.255 1.937-.325.516-.611 1.056-.929 1.58-.27.445-.523.906-.833 1.318-.5.667-.754 1.381-.684 2.23.088 1.12.326 7.225.342 9.354.008.865.031 1.738.104 2.604.079.929.429 13.544.492 17.275.016 1.008.119 2.009.166 3.018.024.547.032 1.095.049 1.643.047 1.557.095 3.104.246 4.66.062.611.087 1.23.135 1.85l.381 4.375c.048.596.104 1.184.119 1.778.023 1.056.254 2.088.365 3.128.079.746.143 1.5.222 2.255.096.841.175 1.683.382 2.501.071.285.11.588.11.881.009.811.191 1.58.397 2.35.079.287.079.588.119.897.127.048.246.104.365.151.27.104.556.174.802.325.825.492 1.73.802 2.62 1.144.452.174.937.246 1.405.373.19.047.381.111.571.174.715.238 1.397.588 2.159.611.556.278 1.048.072 1.572-.166.604-.27 1.254-.429 1.882-.643.595-.207 1.183-.151 1.754.087 1.04.429 2.136.556 3.224.754.738.136 1.484.255 2.223.357.326.048.659.048.993.063 1.04.039 2.08.08 3.12.111.364.008.698.087.992.325.381.31.373.755-.056 1.009-.207.127-.444.19-.675.254a1.51 1.51 0 0 1-.461.023c-.881-.063-1.763-.135-2.644-.198-.063-.008-.135-.024-.198-.024-1.318.024-2.588-.309-3.866-.562-.992-.199-1.985-.422-2.93-.826-.611-.262-1.255-.15-1.945.039.088.151.135.271.206.365.294.405.119.905-.373.945a3.952 3.952 0 0 1-1.183-.08c-.627-.143-1.238-.349-1.85-.531-.262-.08-.508-.119-.786-.071-.421.079-.834.016-1.246-.111-.738-.23-1.509-.373-2.231-.659-1.048-.412-2.136-.746-3.096-1.373-.072-.048-.159-.08-.238-.119-.159-.08-.31-.056-.429.063-.857.778-1.882 1.278-2.866 1.834s-2.049.96-3.08 1.421a.962.962 0 0 1-.517.071c-.508-.063-.69-.548-.365-.952.246-.303.563-.517.905-.684.119-.055.246-.103.357-.174.039-.024.055-.111.096-.215-.676-.127-1.318-.238-1.93-.484-.619-.238-1.246-.452-1.93-.698-.111.048-.277.11-.437.198a29.006 29.006 0 0 1-3.708 1.651c-.516.19-1.016.46-1.556.571-.627.127-1.238.311-1.882.373-.571.057-1.135.184-1.699.311-1 .222-2.198.229-3.135-.271-1.009.54-2.104.89-3.176 1.286-.271.104-.549.199-.842.143-.159-.031-.302-.087-.334-.277a.407.407 0 0 1 .159-.421c.087-.063.183-.127.286-.175.619-.302 1.238-.611 1.857-.904.421-.199.85-.382 1.278-.572.143-.063.278-.135.429-.19.325-.127.65-.127.961.048.666.365 1.381.27 2.072.15.69-.119 1.373-.302 2.072-.412.754-.127 1.531-.207 2.198-.691.198-.143.437-.215.659-.317.238-.119.477-.238.715-.365.174-.095.341-.206.523-.294.842-.404 1.691-.785 2.533-1.199.42-.206.833-.412 1.342-.389.047-.143.095-.262.119-.396.047-.246.087-.492.127-.738.047-.342.119-.684.119-1.017 0-.571.016-1.144.087-1.715a3.973 3.973 0 0 0-.048-1.23c-.119-.611-.063-1.23 0-1.842.056-.501.096-1.001.096-1.501.008-2.127.008-4.255-.016-6.383-.008-.826-.064-1.644-.096-2.469-.016-.461-.008-.913-.031-1.373-.032-.866-.08-1.739-.119-2.604-.024-.501-.064-1.009-.057-1.509.024-1.238.072-2.469.104-3.707.023-1.096.056-2.199.04-3.295-.017-1.326-.397-15.49-.429-16.791-.031-1.461-.063-2.93-.104-4.391-.039-1.326-.913-12.575-.953-14.449-.023-1.032-.016-2.056-.023-3.088 0-.04-.023-.087-.055-.174-.088.008-.191-.008-.295.016-1.19.238-2.334.048-3.43-.468-.404-.19-.809-.365-1.198-.587-1.032-.596-1.937-1.358-2.755-2.239-.071-.08-.158-.151-.223-.207-1.65.246-3.255.222-4.811-.333-1.445-.516-2.724-1.294-3.771-2.469-.667-.746-1.27-1.524-1.659-2.461-.373-.897-.548-1.834-.579-2.803-.024-.595-.008-1.191-.024-1.786-.016-.826-.008-1.651.159-2.461.016-.087.016-.175.023-.302-.135-.032-.262-.072-.381-.08-.834-.047-1.611-.246-2.326-.707-.548-.349-1.104-.667-1.588-1.12-.389-.365-.65-.794-.715-1.35a6.896 6.896 0 0 0-.214-1.072c-.128-.468-.151-.945-.167-1.429-.008-.484.039-.961.23-1.414.039-.103.063-.214.104-.349-.088-.103-.168-.214-.263-.294a3.601 3.601 0 0 1-.833-.968 74.046 74.046 0 0 1-1.549-2.636c-.666-1.199-1.023-2.525-1.389-3.843a41.824 41.824 0 0 1-.532-2.191c-.144-.667-.246-1.35-.373-2.025-.214-1.175-.23-2.366-.198-3.557a8.452 8.452 0 0 1 .73-3.247c.523-1.159 1.016-2.342 1.802-3.35.882-1.12 1.826-2.175 3.064-2.898 1.548-.905 3.144-1.667 4.866-2.144.778-.214 1.564-.326 2.366-.207.175.024.35.04.532.032.707-.016 1.413 0 2.119.151.064.016.127-.008.238-.016.008-.104.04-.214.024-.318-.079-.627.048-1.23.167-1.834.023-.135.079-.27.087-.397.024-.841.365-1.596.659-2.358.182-.468.484-.873.825-1.238.611-.659 1.342-1.096 2.159-1.437 1.247-.516 2.533-.611 3.852-.492.389.032.762.222 1.143.341.143.048.277.111.429.167.214-.73.437-1.421.619-2.127a10.899 10.899 0 0 1 1.612-3.509c.476-.69.96-1.374 1.531-1.985.167-.183.326-.381.509-.54 1.46-1.302 2.913-2.596 4.612-3.565a6.924 6.924 0 0 1 1.857-.722c.342-.08.691-.167 1.033-.262 1.65-.429 3.278-.405 4.897.19 1.469.548 2.851 1.247 4.05 2.294.444.389.833.818 1.15 1.318.429.667.842 1.342 1.271 2.017.333.524.532 1.104.723 1.691.111.341.246.69.413 1.008.356.699.563 1.437.675 2.215.063.453.103.905.166 1.397.144-.008.271 0 .397-.023.54-.104 1.056-.087 1.556.167.119.056.246.095.373.135 1.128.333 2.017 1.032 2.724 1.977.373.508.706 1.048 1.04 1.588.277.445.444.945.532 1.469.023.151.079.294.127.492.158-.04.285-.071.404-.111.524-.174 1.04-.143 1.572-.016 1.517.373 2.778 1.175 3.787 2.39.444.54.857 1.104 1.278 1.667.492.675.73 1.461.889 2.271.215 1.08.326 2.167.294 3.271-.04 1.04-.215 2.048-.651 2.993-.124.285-.275.531-.45.88zm-27.358 45.396c.063-.119.063-.174.118-.349-.11.08-.15.175-.246.286a1.822 1.822 0 0 1-.127.246c-.039.063-.11.143-.15.199-.198.302-.381.611-.563.92-.032.056-.017.144-.024.325.357-.5.73-1.253.826-1.365.087-.102.103-.15.166-.262zm-19.895-56.05c.539.207.937.54 1.277.929.127.151.246.333.303.524.127.46-.23.826-.684.714a1.06 1.06 0 0 1-.357-.175 2.49 2.49 0 0 1-.42-.333c-.199-.19-.438-.293-.691-.389-.698-.262-1.412-.357-2.15-.365-.422-.008-.842 0-1.264-.056-.689-.095-1.365-.016-2.031.167a19.019 19.019 0 0 0-4.352 1.826c-.508.286-1 .595-1.404 1.024-.651.683-1.303 1.366-1.834 2.167-.414.627-.691 1.326-1.033 1.993-.666 1.286-.92 2.652-.912 4.097.008.993.119 1.961.277 2.93.104.604.23 1.207.357 1.81.096.445.215.889.31 1.334.254 1.191.587 2.35 1.071 3.453.501 1.144 1.104 2.239 1.668 3.351.135.262.31.5.477.738.071.103.182.167.277.254.08-.071.119-.127.175-.167.271-.238.556-.286.771-.111.262.214.35.532.23.794-.08.167-.168.318-.255.484-.103.198-.222.397-.31.604-.246.619-.198 1.254-.079 1.889.079.429.183.85.246 1.278.048.286.151.508.365.707.571.524 1.238.874 1.929 1.191.143.063.294.104.445.119.508.048 1.016.135 1.516.119a.91.91 0 0 1 .922 1.008c-.04.389-.072.778-.096 1.159-.039.5-.096 1-.104 1.5-.008.754 0 1.508.04 2.263.056 1.159.317 2.263 1.009 3.215.262.365.555.707.857 1.04a7.202 7.202 0 0 0 4.382 2.358c.698.103 1.405.143 2.112.214.039 0 .079-.04.143-.072-.016-.071-.008-.167-.048-.238a3.974 3.974 0 0 1-.421-1.366 24.536 24.536 0 0 1-.183-1.842c-.016-.294.048-.596.111-.881a.656.656 0 0 1 .636-.5c.254.008.508.198.603.468.032.087.04.175.048.27.048.572.104 1.135.135 1.707.048.826.35 1.548.794 2.223.437.675 1.04 1.175 1.636 1.691.81.698 1.723 1.199 2.699 1.587.754.302 1.524.453 2.342.23.23-.063.484-.032.723-.032.15 0 .31.024.461.008.896-.079 1.738-.341 2.5-.833.397-.246.763-.556 1.184-.738.325-.143.571-.318.754-.627a.746.746 0 0 1 .223-.246c.437-.31.706-.746.952-1.214.063-.119.128-.247.198-.357.199-.286.5-.389.746-.27s.39.421.303.762a4.403 4.403 0 0 1-.311.754c-.095.198-.229.381-.341.563.119.222.278.326.468.413.492.222 1.001.381 1.533.389.484.008.977 0 1.461.008.428.008.833-.055 1.238-.206.143-.056.302-.119.444-.111.596.024 1.127-.198 1.675-.389a7.458 7.458 0 0 0 1.215-.532 11.18 11.18 0 0 0 1.238-.802c.357-.262.691-.564 1.024-.874.215-.198.39-.437.484-.746-.071-.087-.127-.183-.214-.254-.382-.342-.588-.794-.794-1.254a1.349 1.349 0 0 1-.096-.469.415.415 0 0 1 .278-.429c.183-.063.356-.032.476.127.111.143.199.302.286.461.215.413.524.738.921.96.405.23.81.468 1.23.675 1.096.548 2.247.81 3.47.635.31-.04.619-.063.921-.127.738-.151 1.469-.357 2.128-.739.81-.468 1.571-1.008 2.199-1.747.841-.984 1.437-2.08 1.58-3.406.031-.27.087-.54.118-.818.04-.341.072-.683.08-1.024.016-.381-.017-.381-.381-.524-.271-.104-.54-.214-.771-.373a.658.658 0 0 1-.246-.786.765.765 0 0 1 .754-.453c.127.016.262.056.39.087.635.167 1.262.167 1.913.087.77-.095 1.524-.262 2.278-.468.778-.215 1.501-.556 2.191-.969.381-.23.746-.5 1.063-.81a24.977 24.977 0 0 0 1.517-1.635c.825-.953 1.445-2.032 1.691-3.295.238-1.183.468-2.374.627-3.572.135-.977.127-1.969.008-2.946a20.14 20.14 0 0 0-.944-4.136c-.183-.532-.397-1.063-.707-1.548-.834-1.318-2.04-2.207-3.303-3.017a.798.798 0 0 0-.119-.056c-.246-.095-.5-.183-.746-.293-.254-.111-.5-.246-.762-.373-.175.238-.326.46-.501.675-.198.246-.421.468-.714.603-.254.111-.477.08-.684-.095-.293-.23-.373-.635-.19-.984.072-.135.19-.254.278-.381.294-.429.611-.842.873-1.294.524-.897.842-1.866.89-2.914a12.99 12.99 0 0 0-.357-3.541 4.335 4.335 0 0 0-.667-1.484c-.35-.5-.723-.984-1.096-1.469a5.823 5.823 0 0 0-2.866-2.009c-.302-.095-.604-.167-.913-.095-.706.159-1.452.183-2.127.508a1.281 1.281 0 0 1-.382.103.37.37 0 0 1-.396-.183c-.096-.159-.104-.365.023-.508a2.12 2.12 0 0 1 .405-.349c.143-.103.294-.175.46-.278-.11-.683-.198-1.334-.563-1.905-.277-.437-.54-.889-.833-1.318-.501-.73-1.159-1.254-1.978-1.548-.143-.056-.293-.103-.429-.175-.412-.206-.857-.222-1.302-.183-.277.024-.373.104-.365.374 0 .397-.063.778-.175 1.151a2.195 2.195 0 0 1-.238.556.6.6 0 0 1-.69.278c-.238-.064-.452-.318-.477-.596-.008-.135.017-.27.032-.405.031-.413.087-.818.095-1.23a11.76 11.76 0 0 0-.119-1.985 7.306 7.306 0 0 0-.619-2.16c-.19-.413-.349-.841-.492-1.27a7.176 7.176 0 0 0-.714-1.541c-.263-.42-.524-.849-.778-1.278a6.04 6.04 0 0 0-1.397-1.636c-.913-.746-1.945-1.247-3.017-1.707-1.517-.651-3.049-.707-4.613-.238a6.135 6.135 0 0 1-.65.151c-.73.111-1.397.405-2.041.786-.865.516-1.715 1.048-2.469 1.731a7.79 7.79 0 0 1-.738.587c-.556.389-1.032.857-1.5 1.35-.803.865-1.453 1.842-2.064 2.85-.167.27-.31.556-.421.85-.382 1.024-.746 2.048-1.12 3.081-.023.055 0 .135 0 .23.111.063.23.111.334.19.238.167.484.318.691.524.254.246.262.571.087.81-.19.262-.517.326-.834.151-.095-.056-.175-.135-.27-.199-.151-.095-.294-.198-.461-.27a61.866 61.866 0 0 0-1.659-.699 2.28 2.28 0 0 0-.643-.151c-1.263-.104-2.469.095-3.621.643-.762.365-1.412.873-1.81 1.651-.302.603-.619 1.214-.659 1.921-.016.293-.096.587-.174.873-.118.665-.078 1.348-.085 2.086zm19.061 53.518c.095-.072.198-.111.263-.191.293-.365.571-.754.873-1.119.437-.548.889-1.072 1.317-1.627.39-.5.746-1.017 1.12-1.524.055-.08.079-.183.127-.318-1.278.056-2.478-.016-3.613-.675-.023.127-.047.214-.047.294.008.365.031.73.031 1.096.008.619-.008 1.23.008 1.85.016.683.057 1.366-.111 2.041-.008.038.016.086.032.173zm-1.62 26.032c.263-.111.199-.318.191-.492-.04-.803-.088-1.596-.119-2.398-.023-.523-.023-1.056-.04-1.58-.04-1.969-.229-3.93-.198-5.898 0-.254-.016-.508-.135-.73-.127-.23-.135-.477-.135-.73v-.754c-.032-1.922-.064-.984-.104-2.906-.008-.229-.262-3.557-.318-3.961-.008-.072-.07-.143-.174-.326-.031.23-.056.334-.056.438-.008.571.317 4.255.317 4.572-.008 1.303-.079 2.604.08 3.906.07.611.087 1.23.11 1.85.04 1.032.024 2.064.087 3.089.096 1.46.223 2.921.191 4.39-.021.546.208 1.014.303 1.53zm-.404-23.23c.056-.079.096-.111.096-.151.055-2.509.104-5.018.15-7.526 0-.023-.016-.047-.023-.063-.008-.016-.032-.024-.048-.04-.46.175-.484.198-.484.659 0 1.508.024 3.017-.008 4.517-.017.802.143 1.588.183 2.382.007.08.087.143.134.222zm1.088 41.236c.056-.072.111-.119.119-.175.039-.271.111-.54.104-.81-.024-.818-.08-1.636-.127-2.461l-.144-2.731c-.008-.104.017-.23-.151-.278-.031.048-.087.096-.087.151-.04 1.206-.087 2.413.071 3.62.056.429.111.857.08 1.294-.032.461.015.914.135 1.39zm.674 7.852c.079-.071.167-.111.167-.15a4.92 4.92 0 0 0 .008-.676 19.43 19.43 0 0 0-.127-1.15c-.08-.588-.159-1.168-.246-1.755-.016-.111-.064-.222-.238-.198-.159.342-.032.69.008 1.04.031.246.079.492.096.738.031.476-.017.952.206 1.405.056.111.023.27.04.404.015.103.046.199.086.342zm4.009-54.462c.302-.333.611-.643.945-.945.46-.413.786-.953 1.119-1.532-.357-.056-.588-.008-.738.341-.104.246-.286.453-.444.659-.405.508-.818 1.008-1.223 1.517l-1.271 1.429c-.611.69-1.215 1.374-1.818 2.072-.135.151-.254.31-.35.492-.039.08-.008.199-.008.342.104-.064.176-.087.207-.135.246-.373.437-.786.881-.968.056-.024.088-.104.127-.151.429-.58.857-1.151 1.286-1.731l1.287-1.39zm-8.082 15.83c-.087.468-.119 2.659-.062 3.208 0 .016.055.031.086.047.017-.023.041-.039.041-.056l.189-2.509c.017-.238-.039-.444-.254-.69zm4.479 41.919c-.088.119-.159.174-.151.223.048.42.103.841.167 1.254.008.055.063.111.15.238.278-.619.095-1.119-.166-1.715z"/><path d="M280.828 213.114c-.651.548-1.318.969-1.723 1.675a1.098 1.098 0 0 1-.215.254c-.174.159-.373.175-.548.071-.222-.127-.341-.333-.286-.563.049-.19.136-.389.246-.556.469-.715 1.128-1.215 1.826-1.659.151-.096.303-.175.453-.27.031-.365-.023-.707-.063-1.04a8.925 8.925 0 0 1 .302-3.858c.301-1.008.675-1.977 1.23-2.866a9.946 9.946 0 0 1 2.23-2.509c.119-.095.254-.183.397-.246.278-.127.532-.04.698.207a.58.58 0 0 1-.063.746c-.071.08-.167.143-.254.222-.325.31-.651.62-.969.929-.913.905-1.517 2.017-1.913 3.247-.143.429-.302.857-.404 1.302-.238 1.08-.215 2.184-.072 3.271.143 1.135.357 2.255.707 3.342.079.254.111.532.135.81.023.317-.127.516-.373.556-.238.04-.469-.095-.548-.389-.214-.817-.571-1.588-.69-2.429.008-.049-.032-.104-.103-.247zM306.845 209.47c.286.143.556.254.794.405.167.103.333.23.444.389.223.325.032.786-.35.841-.183.024-.389-.023-.579-.079-.167-.048-.317-.159-.477-.246-.746-.413-1.532-.564-2.373-.389-.517.103-1.041.207-1.557.317-.484.111-.913.326-1.262.707-.287.317-.588.619-.874.937a4.144 4.144 0 0 0-.929 1.636c-.143.5-.318.992-.492 1.484a1.98 1.98 0 0 1-.175.365c-.183.254-.484.23-.659-.04a.677.677 0 0 1-.087-.524c.183-.874.381-1.747.778-2.541a7.486 7.486 0 0 1 1.127-1.604c1.056-1.167 1.215-1.318 2.779-1.707.857-.214 1.723-.429 2.619-.341a.422.422 0 0 0 .405-.19c.111-.143.214-.294.341-.421 1.128-1.183 2.525-1.635 4.089-1.596.35.008.698.095 1.009.286.262.159.381.405.325.611-.071.246-.31.413-.619.413a.986.986 0 0 1-.263-.032 3.435 3.435 0 0 0-1.579-.048c-.874.167-1.699.5-2.358 1.159-.029.041-.038.089-.077.208zM305.805 190.805c-.199.008-.396.032-.596.032-.135 0-.262-.047-.317-.198a.429.429 0 0 1 .135-.492c.127-.087.271-.167.413-.214.619-.183 1.246-.294 1.897-.167.548.111 1.08.246 1.596.445a6.013 6.013 0 0 1 2.564 1.881c1.032 1.294 1.984 2.636 2.644 4.176.175.397.286.817.357 1.246.063.35.008.683-.071 1.016a.913.913 0 0 1-.144.31c-.158.246-.389.357-.619.301-.222-.055-.404-.262-.404-.556-.008-1.072-.429-1.993-.921-2.897a17.933 17.933 0 0 0-1.922-2.874c-.746-.905-1.699-1.453-2.786-1.763a8.691 8.691 0 0 0-1.104-.23c-.238-.032-.484-.008-.73-.008.008 0 .008-.008.008-.008zM327.375 216.306c0 .381.016.651-.008.929-.023.301-.183.508-.469.595-.27.08-.563-.056-.706-.373a4.569 4.569 0 0 1-.286-.977c-.071-.381-.103-.77-.135-1.159a3.549 3.549 0 0 0-.516-1.54c-.54-.905-1.223-1.675-2.097-2.247-.548-.357-1.127-.5-1.771-.389-.15.023-.31.023-.452-.008a.431.431 0 0 1-.342-.373.441.441 0 0 1 .191-.476c.183-.119.389-.23.595-.286.683-.198 1.366-.167 2.009.151 1.636.81 2.858 2.048 3.589 3.779.222.532.277 1.104.349 1.667.033.262.041.54.049.707zM312.395 224.952c-.056.357-.096.722-.167 1.08a10.859 10.859 0 0 1-.723 2.207c-.135.318-.31.604-.563.842a.828.828 0 0 1-.611.214c-.445-.024-.659-.421-.421-.754.286-.389.452-.842.604-1.294.198-.604.389-1.215.516-1.842.183-.857-.039-1.683-.35-2.477-.087-.223-.293-.397-.452-.588-.127-.159-.277-.302-.381-.468-.104-.159-.056-.365.071-.508.127-.143.278-.23.469-.167.127.04.246.103.356.175.644.413 1.096.984 1.303 1.747.174.602.332 1.197.349 1.833zM289.093 223.657c0-.135-.024-.286.008-.413.048-.167.111-.357.214-.484.238-.278.699-.151.795.214.016.063.023.135.016.207-.135 1.262.46 2.136 1.396 2.826.072.056.151.095.223.151.072.056.143.111.207.175.222.238.27.516.127.746-.151.23-.413.326-.707.23a1 1 0 0 1-.238-.119c-.953-.651-1.707-1.453-1.953-2.66-.055-.286-.079-.587-.127-.874l.039.001z"/><g><path d="M70.139 237.241c0 3.565-2.866 6.462-6.431 6.462-3.533 0-6.399-2.897-6.399-6.462V221.18c0-.698.532-1.063 1.064-1.063.531 0 1.104.365 1.104 1.063v16.061c0 2.398 1.897 4.303 4.231 4.303s4.263-1.938 4.263-4.303V221.18c0-.698.532-1.063 1.064-1.063.531 0 1.104.365 1.104 1.063v16.061zM80.737 226.674c3.032 0 5.065 2.469 5.065 5.335v10.369c0 .73-.532 1.064-1.064 1.064-.531 0-1.063-.333-1.063-1.064v-10.369c0-1.866-1.271-3.167-2.93-3.167-1.834 0-3.43 1.469-3.43 3.167v10.369c0 .73-.563 1.064-1.104 1.064-.532 0-1.063-.333-1.063-1.064v-14.402c0-.698.531-1.063 1.063-1.063.5 0 1 .302 1.063.937.995-.739 2.193-1.176 3.463-1.176zM95.631 243.704c-3.469 0-6.097-3.667-6.097-8.534 0-4.2 2.167-8.503 5.764-8.503 4.033 0 5.533 4.501 5.731 8.034 0 .564-.396 1.032-1.031 1.032h-8.297c.198 3.97 2.303 5.795 3.93 5.795 1.596 0 2.564-.563 3.001-1.762.198-.5.563-.73.969-.73.667 0 1.334.635 1.032 1.469-.834 2.302-2.803 3.199-5.002 3.199zm-.333-14.862c-1.366 0-3.064 1.699-3.501 4.731h7.065c-.428-3.096-1.993-4.731-3.564-4.731zM113.827 229.08h-2.135c-.73 0-1.064-.532-1.064-1.064s.334-1.104 1.064-1.104h2.135v-2.302c0-2.564 2.033-4.732 4.637-4.732 2.604 0 4.637 2.167 4.637 4.732 0 .73-.532 1.063-1.063 1.063-.532 0-1.064-.333-1.064-1.063 0-1.469-1.135-2.564-2.501-2.564-1.365 0-2.501 1.104-2.501 2.564v2.302h3.137c.698 0 1.063.563 1.063 1.104 0 .532-.365 1.064-1.063 1.064h-3.137v13.298c0 .73-.531 1.064-1.063 1.064s-1.063-.333-1.063-1.064V229.08h-.019zM133.532 235.209c0 4.2-2.199 8.503-5.764 8.503s-5.764-4.303-5.764-8.503c0-4.231 2.199-8.535 5.764-8.535s5.764 4.304 5.764 8.535zm-9.368 0c0 4.001 2.001 6.335 3.597 6.335s3.597-2.334 3.597-6.335c0-4.033-2.001-6.367-3.597-6.367s-3.597 2.334-3.597 6.367zM143.227 226.674c1.334 0 2.897.468 3.564 2.064.063.167.104.333.104.469 0 .603-.532 1.064-1.104 1.064-.365 0-.771-.199-.969-.667-.198-.469-.699-.77-1.596-.77-1.167 0-2.699.897-3.835 1.866v11.663c0 .73-.532 1.063-1.063 1.063-.532 0-1.064-.333-1.064-1.063v-14.434c0-.699.532-1.064 1.064-1.064.531 0 1.063.365 1.063 1.064v.23c1.104-.579 2.502-1.485 3.836-1.485zM154.929 243.704c-3.47 0-6.098-3.667-6.098-8.534 0-4.2 2.168-8.503 5.764-8.503 4.033 0 5.534 4.501 5.732 8.034 0 .564-.396 1.032-1.032 1.032h-8.296c.198 3.97 2.302 5.795 3.93 5.795 1.604 0 2.564-.563 3.001-1.762.198-.5.563-.73.969-.73.667 0 1.334.635 1.032 1.469-.834 2.302-2.803 3.199-5.002 3.199zm-2.136-19.427a1.08 1.08 0 0 1-.698.27c-.302 0-.604-.135-.803-.365a1.157 1.157 0 0 1-.27-.699c0-.302.135-.604.365-.834l2.564-2.23c.198-.167.469-.27.698-.27.271 0 .501.103.699.27l2.596 2.23c.23.23.365.532.365.834 0 .23-.104.5-.27.699-.23.23-.5.365-.802.365-.271 0-.532-.103-.73-.27l-1.866-1.636-1.848 1.636zm1.802 4.565c-1.365 0-3.064 1.699-3.501 4.731h7.066c-.436-3.096-2.001-4.731-3.565-4.731zM168.695 241.274c.896 0 1.604-.699 1.604-1.564 0-.699.532-1.064 1.063-1.064.532 0 1.104.365 1.104 1.064 0 2.064-1.698 3.731-3.763 3.731-2.032 0-3.731-1.667-3.731-3.731v-9.535h-1.802c-.73 0-1.064-.532-1.064-1.063 0-.532.334-1.104 1.064-1.104h1.802v-5.264c0-.699.532-1.064 1.063-1.064.532 0 1.104.365 1.104 1.064v5.264h3.43c.699 0 1.032.563 1.032 1.104 0 .532-.333 1.063-1.032 1.063h-3.43v9.535a1.54 1.54 0 0 0 1.556 1.564zM194.188 242.378c0 .73-.563 1.064-1.104 1.064-.396 0-.802-.199-.969-.635-.77.564-1.635.897-2.636.897-3.532 0-5.962-4.231-5.962-8.502 0-4.303 2.43-8.535 5.962-8.535.969 0 1.803.333 2.564.865v-6.367c0-.699.532-1.064 1.064-1.064.531 0 1.063.365 1.063 1.064v21.213h.018zm-2.136-11.639c-.77-1.334-1.698-1.897-2.564-1.897-1.635 0-3.803 2.397-3.803 6.367 0 3.93 2.168 6.335 3.803 6.335.866 0 1.803-.564 2.564-1.897v-8.908zM203.317 243.704c-3.469 0-6.097-3.667-6.097-8.534 0-4.2 2.167-8.503 5.764-8.503 4.033 0 5.533 4.501 5.732 8.034 0 .564-.397 1.032-1.032 1.032h-8.297c.198 3.97 2.303 5.795 3.93 5.795 1.596 0 2.564-.563 3.001-1.762.199-.5.564-.73.969-.73.667 0 1.334.635 1.032 1.469-.834 2.302-2.802 3.199-5.002 3.199zm-.333-14.862c-1.365 0-3.064 1.699-3.501 4.731h7.065c-.428-3.096-1.991-4.731-3.564-4.731z"/></g><g><path d="M57.396 264.131c0-1.953 1.492-2.978 2.977-2.978 1.215 0 2.326.651 2.795 1.866 2.144-1.58 4.564-2.517 7.359-2.517 9.876 0 16.672 11.829 16.672 23.754 0 11.924-6.796 23.849-16.672 23.849-2.699 0-5.033-.929-7.082-2.421v17.696c0 2.048-1.579 2.978-3.072 2.978-1.492 0-2.977-.93-2.977-2.978v-59.249zm6.058 32.503c2.048 3.723 4.66 5.398 7.081 5.398 4.565 0 10.71-6.796 10.71-17.791 0-11.084-6.145-17.697-10.71-17.697-2.421 0-5.033 1.58-7.081 5.217v24.873zM126.324 284.344c0 11.734-6.146 23.754-16.117 23.754-9.963 0-16.116-12.012-16.116-23.754 0-11.829 6.145-23.849 16.116-23.849s16.117 12.02 16.117 23.849zm-26.176 0c0 11.179 5.589 17.696 10.059 17.696s10.06-6.518 10.06-17.696c0-11.273-5.59-17.792-10.06-17.792s-10.059 6.518-10.059 17.792zM150.729 308.09c-6.796 0-14.441-5.216-15.274-12.854-.183-2.144 1.492-3.263 3.072-3.263 1.397 0 2.795.842 2.978 2.699.373 3.914 4.747 7.359 9.225 7.359 4.843 0 8.757-3.818 8.757-7.828 0-12.48-23.937-3.723-23.937-20.769 0-7.638 6.336-12.948 14.347-12.948 8.105 0 12.671 5.398 13.973 11.178.556 2.326-1.215 3.724-2.978 3.724-1.215 0-2.421-.747-2.794-2.326-.842-3.636-3.446-6.519-8.193-6.519-5.312 0-8.384 3.264-8.384 6.892 0 5.216 5.685 5.867 9.591 6.892 7.542 1.865 14.346 4.564 14.346 13.781-.01 7.932-6.996 13.982-14.729 13.982zM192.084 308.09c-6.796 0-14.441-5.216-15.275-12.854-.183-2.144 1.493-3.263 3.073-3.263 1.396 0 2.794.842 2.977 2.699.373 3.914 4.748 7.359 9.226 7.359 4.843 0 8.757-3.818 8.757-7.828 0-12.48-23.937-3.723-23.937-20.769 0-7.638 6.335-12.948 14.346-12.948 8.106 0 12.671 5.398 13.974 11.178.556 2.326-1.215 3.724-2.978 3.724-1.215 0-2.422-.747-2.795-2.326-.842-3.636-3.445-6.519-8.193-6.519-5.311 0-8.384 3.264-8.384 6.892 0 5.216 5.685 5.867 9.591 6.892 7.542 1.865 14.346 4.564 14.346 13.781-.009 7.932-6.996 13.982-14.728 13.982zM225.523 253.198c0 2.049-1.58 2.978-3.072 2.978s-2.978-.929-2.978-2.978v-4.286c0-1.953 1.493-2.978 2.978-2.978s3.072 1.024 3.072 2.978v4.286zm0 51.168c0 2.049-1.58 2.978-3.072 2.978s-2.978-.929-2.978-2.978v-40.235c0-1.953 1.493-2.978 2.978-2.978s3.072 1.024 3.072 2.978v40.235zM245.546 262.916c2.049-1.493 4.375-2.421 7.082-2.421 9.876 0 16.673 11.829 16.673 23.849 0 11.925-6.797 23.754-16.673 23.754-2.795 0-5.216-.929-7.359-2.517-.469 1.215-1.58 1.771-2.699 1.771-1.493 0-3.073-.929-3.073-2.978v-59.241c0-1.953 1.493-2.977 2.978-2.977s3.072 1.024 3.072 2.977v17.783zm0 33.813c2.049 3.723 4.66 5.311 7.082 5.311 4.565 0 10.71-6.709 10.71-17.696 0-11.083-6.145-17.792-10.71-17.792-2.422 0-5.033 1.58-7.082 5.312v24.865zM285.79 253.198c0 2.049-1.58 2.978-3.073 2.978-1.492 0-2.977-.929-2.977-2.978v-4.286c0-1.953 1.492-2.978 2.977-2.978 1.493 0 3.073 1.024 3.073 2.978v4.286zm0 51.168c0 2.049-1.58 2.978-3.073 2.978-1.492 0-2.977-.929-2.977-2.978v-40.235c0-1.953 1.492-2.978 2.977-2.978 1.493 0 3.073 1.024 3.073 2.978v40.235zM325.843 253.198c0 2.049-1.58 2.978-3.072 2.978s-2.978-.929-2.978-2.978v-4.286c0-1.953 1.493-2.978 2.978-2.978 1.492 0 3.072 1.024 3.072 2.978v4.286zm0 51.168c0 2.049-1.58 2.978-3.072 2.978s-2.978-.929-2.978-2.978v-40.235c0-1.953 1.493-2.978 2.978-2.978 1.492 0 3.072 1.024 3.072 2.978v40.235zM352.757 301.294c2.517 0 4.47-1.953 4.47-4.375 0-1.953 1.492-2.977 2.977-2.977 1.493 0 3.073 1.023 3.073 2.977 0 5.772-4.748 10.433-10.527 10.433-5.685 0-10.433-4.66-10.433-10.433v-26.635h-5.033c-2.048 0-2.978-1.493-2.978-2.978 0-1.493.93-3.073 2.978-3.073h5.033v-14.726c0-1.953 1.493-2.977 2.978-2.977 1.492 0 3.072 1.024 3.072 2.977v14.718h9.591c1.953 0 2.89 1.58 2.89 3.072 0 1.493-.929 2.979-2.89 2.979h-9.591v26.635a4.392 4.392 0 0 0 4.39 4.383zM387.967 308.09c-9.686 0-17.045-10.249-17.045-23.849 0-11.734 6.058-23.754 16.116-23.754 11.273 0 15.466 12.575 16.021 22.451 0 1.58-1.12 2.891-2.891 2.891h-23.189c.556 11.082 6.431 16.203 10.987 16.203 4.47 0 7.169-1.58 8.384-4.938.556-1.398 1.58-2.049 2.699-2.049 1.866 0 3.724 1.771 2.89 4.097-2.326 6.439-7.819 8.948-13.972 8.948zm-.929-41.538c-3.819 0-8.566 4.748-9.781 13.227h19.745c-1.207-8.662-5.59-13.227-9.964-13.227zm-3.35-12.02c-.842 0-1.675-.373-2.326-1.023-.468-.557-.746-1.303-.746-1.953 0-.842.373-1.675 1.024-2.326l7.359-6.335c.556-.468 1.302-.746 1.953-.746.842 0 1.675.373 2.238 1.024.469.556.747 1.302.747 1.953 0 .841-.373 1.675-1.024 2.326l-7.359 6.335c-.565.468-1.215.745-1.866.745zM427.464 308.09c-6.796 0-14.441-5.216-15.274-12.854-.183-2.144 1.492-3.263 3.072-3.263 1.397 0 2.795.842 2.978 2.699.373 3.914 4.747 7.359 9.225 7.359 4.843 0 8.757-3.818 8.757-7.828 0-12.48-23.937-3.723-23.937-20.769 0-7.638 6.336-12.948 14.347-12.948 8.105 0 12.671 5.398 13.973 11.178.556 2.326-1.215 3.724-2.978 3.724-1.214 0-2.421-.747-2.794-2.326-.842-3.636-3.446-6.519-8.193-6.519-5.312 0-8.384 3.264-8.384 6.892 0 5.216 5.685 5.867 9.591 6.892 7.542 1.865 14.346 4.564 14.346 13.781-.017 7.932-7.005 13.982-14.729 13.982z"/></g></g></svg>