<!DOCTYPE svg PUBLIC "-//W3C//DTD SVG 1.1//EN" "http://www.w3.org/Graphics/SVG/1.1/DTD/svg11.dtd"><svg xmlns="http://www.w3.org/2000/svg"><symbol id="arrow-next" viewBox="0 0 500 500"><path d="M337.501 354.619a7 7 0 0 1-4.95-11.949l85.669-85.671H64.881a7 7 0 1 1 0-14H418.22l-85.669-85.668a7 7 0 0 1 9.9-9.899l97.618 97.618a7.002 7.002 0 0 1 0 9.9l-97.618 97.619a6.979 6.979 0 0 1-4.95 2.05z"/></symbol><symbol id="arrow-prev" viewBox="0 0 500 500"><path d="M162.5 354.619a6.981 6.981 0 0 1-4.95-2.05l-97.619-97.62a7 7 0 0 1 0-9.9l97.619-97.618a7 7 0 0 1 9.899 9.899L81.78 242.999h353.339a7 7 0 1 1 0 14H81.78l85.669 85.671a6.999 6.999 0 0 1-4.949 11.949z"/></symbol><symbol id="book" viewBox="0 0 500 500"><path d="M427.6 244.4c-.8-1-1.5-2-2.3-3.1-.8-1.1-1.6-2.3-2.5-3.3-1.4-1.6-1.4-2.3.3-3.8 1.2-1.2 2.4-2.5 3.3-3.9 1.6-2.3 1.4-4.2-.8-5.8-1.6-1.2-2.7-2.6-3.7-4.3-1.1-1.7-2.1-3.4-3.3-4.9-3.1-3.9-5.7-8.2-9.2-11.8-3-3-5.5-6.4-8.2-9.6-1.9-2.3-3.9-4.6-5.6-7.1-1.5-2.1-2.6-4.7-4.2-6.7-3-3.6-4.9-7.8-7.2-11.9-1.6-2.9-3.6-5.7-5.6-8.4-1.5-2-3.3-3.7-4.7-5.7-2.2-2.9-4.1-6-6.3-8.8-4.5-5.6-8.1-11.8-11.9-17.9-1.2-1.9-2.5-2.6-4.5-1.8-1.7.8-3.5 1.7-4.9 2.9-3.1 2.7-6.8 4.1-10.6 5.3-2.8.9-5.7 1.8-8.6 2.7-4.3 1.3-8.7 2.2-12.9 3.8-4.1 1.5-8.3 2.3-12.6 2.5-3.6.2-7.2.2-10.8.2-2.8 0-5.7-.2-8.5-.4-4.9-.3-9.8-.3-14.7-.1-4.7.1-9.5-.3-14.2-.3-1.3 0-2.7.3-4 .7-3 1-5.9 2.4-9 3.1-3.2.8-6.2 2.2-9 3.7-2.7 1.4-5.2 3.4-7.7 5.2-.8.6-1.7 1.2-2.3 2l-12 16.5c-1.2 1.7-1.6 1.9-3.7 1.5-4.6-1-9.2-2.3-13.8-3.1-3.3-.6-6.7-1.2-10.1-1.2-7 0-12.9 2.8-18.7 6-4.7 2.6-9 5.9-13.3 9.3-4.7 3.7-9.4 7.3-13.6 11.5-4.8 4.9-9.5 9.9-13.7 15.5-2.5 3.3-5.8 6.1-8.9 8.9-4.5 4.1-9.8 7.2-15.2 10.2-1.6.9-3.2 1.7-4.9 2.4-2.2.9-4.5 1.7-6.8 2.4-2.6.8-5.3 1.4-8 2.1-1.2.3-2.3.6-3.5.8-2 .3-3.3 1.4-3.8 3.4-.1.6-.1 1.4.3 1.9 2.3 3 4.6 6 6.9 8.9.9 1.2 1.8 2.5 2.7 3.7 1.8 2.6 3.5 5.3 5.4 7.8 1.8 2.4 3.7 4.7 5.5 7.2l4.5 6.3c2.2 3.2 4.2 6.5 6.6 9.5 1.4 1.8 2.7 3.7 4 5.6 2 3.1 4.2 6.1 6.2 9.2 1.5 2.4 2.9 4.8 4.3 7.2 1.8 3.1 4.2 6 5.4 9.3 1.5 4.1 4.6 7 6.6 10.7 2 3.7 4.7 6.9 7.1 10.4 3.1 4.6 6.1 9.2 9.1 13.8.5.7.8 1.5 1.1 2.3.2.5.3 1.2.6 1.7 1.6 2.3 3.2 4.7 4.8 7 1.3 1.9 2.3 2 4.7 1.6 3.2-.6 5.5-2.8 8.1-4.4 1.6-.9 2.9-1.1 4.2-.3 2 1.3 4.2 2.5 5.5 4.4 1.4 1.9 3.3 3 4.8 4.6.4.4 1 .6 1.6.7 2.7.7 5.1.3 7.1-1.8 1.2-1.3 2-1.4 3.1-.5 2.9 2.3 6.3 3.4 9.9 4.2 2.3.6 3.6.1 4.9-1.8.7-1 1.2-2.1 2-3 1.9-2.1 3-5.1 6.3-5.7.4-.1.8-.5 1-.8 1.3-1.9 3.2-3.2 4.4-5.2 1.8-3.1 4.2-5.9 6.2-8.9.9-1.5 2.1-2.5 3.4-3.7 1.2-1.1 1.4-3.1 2.4-4.5 1.9-2.9 4-5.6 6-8.4 2.2-3.1 4.3-6.4 6.6-9.5 3.8-4.9 7.9-9.5 11.9-14.3 1-1.2 2-2.4 3.3-3.1 3.4-1.8 6.9-3.5 10.4-5 2-.8 4.1-1.2 6.3-.2 1.6.7 3.6.9 4.9 1.9 1.3 1.1 2.1 2.9 3.1 4.4.8 1.2 1.8 1.8 3.3 1.7.9-.1 1.7-.1 2.6-.2 3.5-.5 6.9-1.2 10.4-1.6 2.3-.3 4.7-.2 6.9-.7 2.4-.4 4.8-1.2 6.6-2.8 1.9-1.7 3.9-3.4 5.5-5.4 2.9-3.6 6.8-5.4 10.9-7 2.6-1 5.4-1.7 8.2-2.2 2.2-.4 4.4-.2 6.7-.2.5 0 1 0 1.5-.1 3.9-.9 7.9-.3 11.8-.2 2.4.1 4.7.9 7 1.4 2.6.5 5.2 1 7.8 1.4 3.1.5 6.2 1.5 9.5 1.3 2-.1 4.1-.3 5.9.2 2.8.8 5.6.6 8.8.9 2-.1 4-.6 5-3.2.5-1.3.8-2.5.5-4-.7-2.7-.5-2.9 2.2-3.9 2.6-1 5.2-1.8 7.8-2.7 1.7-.6 3.4-2.7 3.3-4.4-.1-2.1-.1-4.2-.4-6.2-.5-3.1-.3-6.2.4-9.2.2-.7.7-1.5 1.2-1.9 3.4-2 5.7-5.6 9.5-7.1.3-.1.5-.5.6-.8.8-1.7.8-3.4-.5-5zm-179.2 51.2c-3.2 2.3-5.2 5.5-7.5 8.5-3 4-5.7 8.2-8.5 12.3-.9 1.3-1.6 2.9-2.3 4.3-1.4 2.5-2.7 5-4.1 7.5-2.3 4-4.6 8.1-6.9 12.1-1 1.7-2.3 3.2-3.2 5-1.5 2.9-3.3 5.7-4.8 8.6-2.1 4.2-5.3 7.6-7.7 11.6-.9 1.6-2.5 2.1-4.2 1.5-1.4-.5-2.7-1.1-4.4-1.8.4-.9.7-1.9 1.2-2.5 2.5-2.9 5.2-5.8 7.7-8.7.9-1.1 1.8-2.3 2.6-3.4.7-1 1.4-2 2-3 .2-.4.6-.6.8-1 1.3-2.8 2.6-5.5 3.8-8.3.1-.3.2-.7.4-.9 3.7-2.8 4.5-7.4 6.8-11 1.1-1.7 2.5-3.3 2.4-5.6 0-.1.1-.3.2-.5 1.7-2.2 3.3-4.3 5-6.5 1.2-1.6 2.3-3.2 3.6-4.7 1.5-1.7 3.1-3.2 4.7-4.8 1.7-1.7 3.4-3.4 5.2-5 1.6-1.4 3.6-2.4 5.2-3.8 1.3-1 2.4-2.2 4.6-2.7-1 1.1-1.7 2.1-2.6 2.8zm11.2-14.4c-2.6.5-4.8 1.9-7.2 2.8-3.8 1.4-6.9 3.9-10.1 6.2-4.9 3.4-8.9 7.8-13.2 11.9-2.1 2-3.7 4.5-5.5 6.8-1.4 1.9-2.8 3.7-3.9 5.7-2.1 3.8-3.9 7.8-6 11.7-1.4 2.6-3.2 5.1-4.7 7.7-1.4 2.4-2.7 4.8-4.1 7.2-1.3 2.2-2.6 4.5-4.2 6.5-2.4 3.1-5 6.2-7.5 9.2-1.9 2.3-3.9 4.5-5.9 6.7-.6.6-1.2 1.3-2 1.6-.6.3-1.7.5-2.2.1-3.1-2.3-6.3-4.4-9.1-7.5 2.3-1.6 3.7-4.2 6.8-4.5.4 0 .8-.4 1.1-.7 1.9-2.4 4.8-3.1 7-5 2.2-1.8 4.2-3.9 6.5-5.5 1.9-1.4 3.7-2.7 5.1-4.6.7-1 1.5-1.9 2-3 1.6-3.7 5.2-5.9 7-9.4 1.2-2.4 2.8-4.6 4.2-6.9.3-.5.6-1 1-1.5 2.2-2.2 3.3-4.9 4.5-7.7 1-2.3 2.4-4.6 4-6.6 2.9-3.6 6-7.1 9.4-10.2 4.3-4 9-7.5 14.6-9.9 3.8-1.6 7.6-2.1 11.5-2.1.4 0 .7.2 1.1.3 0 .5-.1.7-.2.7zm16.9-2.7c-2.2-.9-4.3-1.8-6.5-2.7-4.2-1.6-8.5-2.1-13-1.8-2.7.2-5.5-.2-8.2.7-1.5.5-3.2.8-4.6 1.5-3.1 1.5-6.4 2.9-9 5-4 3.2-8.2 6.2-11.8 10-3.9 4.2-7.1 8.8-9.9 13.8-1.8 3.3-4 6.4-6.1 9.6-1.6 2.5-3.1 4.9-4.7 7.4-.7 1-1.4 2-2.1 2.9-1.9 2.7-3.6 5.4-5.7 8-1.5 1.8-3.3 3.2-5 4.8-2 1.9-4 3.8-6.1 5.5-1.5 1.2-3.2 2-4.8 3-.4.3-.9.4-1.3.7-2.7 1.9-5.3 3.8-8 5.7-1.9 1.4-3.7 2.8-5.6 4.1-1.3.9-2.5 1.8-3.9 2.5-1.6.8-3.9 0-5.2-1.8-.7-1-1.3-2-1.8-3.2-1-2.4-2.6-4.3-4-6.3-2.2-3.1-4.2-6.5-6.3-9.7-3.8-5.8-7.7-11.7-11.5-17.5-.5-.8-.9-1.6-1.4-2.5-2.9-5.1-5.5-10.4-8.7-15.2-5.7-8.8-11.5-17.6-17.9-26-1.9-2.5-3.5-5.3-5.3-7.9-.7-1.1-1.3-2.3-2.2-3.2-3.3-3-5.3-6.9-8-10.4-1.8-2.3-3.6-4.6-5.3-7-.5-.7-.9-1.5-1.4-2.4 2.6-1.8 5.3-1.8 7.9-2.3 2.8-.5 5.7-.7 7.8-3 .2-.2.4-.3.7-.3 6.3-1.8 11.6-5.5 16.8-9.4 4.9-3.7 9.3-8 13.7-12.2 1.4-1.3 2.4-2.9 3.6-4.4 3.5-4.2 6.8-8.5 11-12.2 3.9-3.4 7.8-6.7 12.1-9.7 1.7-1.2 2.9-2.9 4.4-4.3.4-.4.9-.8 1.4-1.1 2.3-1.4 4.6-2.7 6.9-4.1 4.4-2.6 9.2-4.1 14.2-5.2 1.6-.3 3.1 0 4.6 0 4.4.2 8.7 1.1 12.8 2.5h.3c3.9-.6 6.8 2 10.1 3.3.3.1.6.3.9.5 4.1 4.2 8.7 8.1 11.9 13.2.6.9 1.4 1.7 2.1 2.6 4.1 5.9 8.1 11.9 12.3 17.9 4 5.7 8.1 11.4 12.1 17.1 2.8 3.9 5.4 8 8.1 12 3.1 4.5 6.3 9.1 9.4 13.6 2.4 3.4 5.1 6.5 7.2 10.1 1.3 2.2 2.9 4.3 4.3 6.4.2.3.4.7.9 1.7-1.3-.1-1.8-.1-2.2-.3zm17.4 2.8c-1.5 2.5-2.6 2.5-4.3.1-1.3-1.8-2.8-3.5-4.3-5-2.7-2.7-4.7-5.9-6.8-9-2.2-3.4-4.8-6.5-7.1-9.8-1.5-2-2.9-4-4.3-6.1-1.9-2.8-3.7-5.6-5.6-8.4-1-1.6-1.8-3.3-3-4.8-2.9-4-5.9-7.8-8.8-11.8-1.7-2.4-3.3-4.8-5-7.2-1.4-2-2.6-4.1-4-6-2.9-3.8-5-8.2-8.5-11.7-1-1-1.4-2.5-2.1-3.8-.5-.8-.9-1.7-1.5-2.4-2.7-3-5.3-6.1-8.1-9-2.1-2.2-4.2-4.2-6.7-6.6.5-.9.9-1.8 1.4-2.6 1.2-2 2.5-3.9 3.7-5.9.3-.5.6-1.1 1.1-1.5 2.4-1.8 3.8-4.4 5.5-6.7 1-1.4 2.2-2.8 3.7-3.5 2.1-1 3.6-2.7 5.9-3.5 2.3-.9 4.4-2.1 7-2.5 1-.1 2.1-.4 2.9-.9 2.2-1.4 4.6-2.1 7-2.2 3.6-.1 7.1-.7 10.8-.2 3.2.4 6.5 0 9.8 0 3.3.1 6.5.4 9.8.4 6.1 0 12.2.8 18.3.4 3.4-.2 6.8-.9 10.2-1 .3 0 .8.1 1-.1 2.2-2.2 5.3-2 8-2.5 3.8-.8 7.3-2.1 10.8-3.4 3.2-1.2 6.5-2.3 9.7-3.4.9-.3 1.7-.8 2.6-1.2 2.5-1.1 5-2.2 7.5-3.4 1-.5 1.7-.2 2.2.6 1.5 2.1 3 4.2 4.4 6.4 2 3 4 6 6.4 8.7 2.1 2.4 3.9 5 5.8 7.6 3.4 4.7 7.3 9 9.9 14.2 3.1 6.2 6.9 11.9 11.1 17.4 3.9 5 8 9.7 12 14.6 1 1.3 1.8 2.7 2.9 4 2 2.4 4.3 4.5 6 7 2.4 3.5 4.3 7.3 6.5 10.9.7 1.2.5 2.1-.5 3-.2.2-.4.4-.6.5-3.9 3.1-7.5 6.6-11.9 9-3.4 1.9-6.9 4-10.5 5.6-3.8 1.7-8.1 1.8-12.2 1.9-8.1.2-16.2.1-24.3 1.3-5.9.9-11.7 2.2-17.5 3.4-1.9.4-3.9.7-5.8 1.3-2.9.9-5.8 1.8-8.5 2.9-3.9 1.7-7.6 3.7-11.4 5.4-4.1 1.8-7.6 4.4-10.8 7.4-4 3.3-7.2 7.5-9.8 12.1zm116.2-9.1c-.1 1.5-.5 2.3-1.9 2.9-2.3 1-4.7 1.7-7.2 2-1.9.2-3.7.7-5.6.8-1.6.1-3.2 0-4.9-.1-2.3-.1-4.7 0-6.9-.4-3.2-.5-6.4-1.4-9.6-2.1-1.8-.4-3.6-.6-5.3-.9-2-.3-3.9-.5-5.9-.8-2.7-.3-5.5-.6-8.2-.9-2.9-.3-5.8-.8-8.7-.7-6.3.3-12.4 1.5-18.1 4.6-2.3 1.2-4.7 2.1-7.1 3.2-2.6 1.2-5.1 2.5-7.6 3.8-3.6 1.9-7.2 4-10.8 5.9-.2-.1-.3-.3-.5-.4.6-.7 1.3-1.4 1.9-2.2 2.2-2.7 5.3-4.3 8.1-6.2 3.1-2.1 6.2-4.5 9.4-6.3 1.9-1 3.6-2.7 6.1-2.4.3 0 .7-.1 1-.3 5.8-3 12.1-3.6 18.5-3.6 2.8 0 5.5-.4 8.3-.5 2.5-.1 5-.2 7.5.1 5.3.6 10.7.3 16 0 2-.1 4 0 6 0 3 .1 5.9-.2 8.7-1.2 1.5-.5 3 .4 4.5-.6 1-.7 2.2-.9 3.3-1.2 2.1-.7 4.2-1.4 6.4-1.9 1.3-.3 1.6.2 1.9 1.6.5 2.7.9 5.2.7 7.8zm9.6-23.5c-2.5 2-5.2 4-7.8 5.8-.9.6-1.9 1.1-3 1.6-1.2.5-2.4 1.1-3.6 1.5-3.3 1.1-6.7 2.2-10.1 3.2-1.5.4-3 .6-4.5.9-1.3.2-2.5.5-3.8.7-.8.1-1.5.3-2.3.3-5.2 0-10.3 0-15.5-.1-.9 0-1.9-.2-2.8-.3-6.3-1-12.5-.5-18.8-.3-6 .2-11.8 1.4-17.7 2.4-1.4.2-2.8 1-4.2 1.2-2.3.3-4 1.5-5.9 2.8-3.5 2.3-7.2 4.3-10.9 6.4-.4.2-.9.2-1.7.3 1.4-2.7 3.5-4.3 5.7-5.5 3.3-1.9 6.8-3.3 10.2-5.2 4.3-2.4 9.2-3.2 13.7-5.1 1.3-.5 2.8-.8 4.2-1.1 3.7-.7 7.2-2.2 11.1-2.3 2.6 0 5.3-.7 7.9-.9 4.6-.4 9.1-.6 13.7-.9 2.1-.1 4.1-.3 6.1-.5.2 0 .3-.1.5-.1 3.8.7 7.5-.4 11.3-.8 2.7-.3 5.4-.9 8.1-1.7 1.2-.3 2-1.5 3.1-2.2l7.8-4.5c1.2-.7 2.4-1.3 3.4-2.2 1-.9 2-.7 2.8 0 1.2 1.2 2.3 2.5 3.4 3.9.8 1.1.3 2.1-.4 2.7z"/><path d="M278.7 173.1c.5 0 1 .2 1.5.1 4.1-.6 8.1-1 12.3-.5 3.2.3 6.4.3 9.5.2 2.2 0 4.5-.2 6.3-.4h1.2c7.5-.8 14.9-1.8 22.2-3.2 1.2-.2 2.4-.7 3.3-1.4 1.8-1.5 4-1.9 6.2-2.2 1.8-.3 3-1.4 3.7-2.9.3-.8.2-2.3-.4-2.8-1.4-1.2-3-2.5-5.1-1.7-1.9.7-3.9 1.3-5.9 2-6.2 2-12.6 2.8-19 3.6-6.9.8-13.8.8-20.6.9-2.8 0-5.5.2-8.3.4-2.1.1-4.1.5-6.2.5-2.1 0-4.3-.6-6.4-.5-2.7.1-5.5.3-8.2.9-1.4.3-2.5 1.1-4.1.8-1.6-.3-3.2.1-4.7 1-2.3 1.3-4.8 2.3-7.2 3.5-.7.4-1.4.9-2 1.6-1.4 1.5-.5 4.8 1.6 5.1 1.4.2 2.8.4 4.1-.8 1.1-1 2.5-1.8 3.9-2.3 3.9-1.2 8-2.1 12.1-2.1 3.5 0 6.9.1 10.2.2zM264.8 188.6c.5-.2.9-.5 1.4-.5 1.8-.2 3.6-.4 5.4-.5 5.9-.1 11.9-.2 17.8-.2 3.6 0 7.3 0 10.8.7 3.3.6 6.5.5 9.7.6 2.7.1 5.5 0 8.2-.2 3.9-.3 7.7-.6 11.6-1.1 2.7-.4 5.4-1 8.1-1.6 4.3-1 8.6-2 12.8-3 .2-.1.5-.2.7-.3 1.4-.8 2.8-1.6 4.3-2.4 1.7-.9 2.6-3.2 1.7-4.8-.9-1.6-3.2-2.1-4.9-1.1-1.5.8-3.1 1.5-4.7 2-1.7.6-3.5.8-5.3 1.4-8.8 2.8-17.8 4-27 4.3-2.8.1-5.7.2-8.5.1-1.9-.1-3.7-.6-5.6-.8-.9-.1-1.9-.3-2.8-.3-2.2-.1-4.5 0-6.7-.1-3.7-.1-7.4-.4-11.1-.5-2.6 0-5.2-.2-7.7.4-5.4 1.2-11.1 1.7-16.2 4.8.2 5 2.1 6.1 6.4 4 .6-.4 1.1-.7 1.6-.9zM302.6 219.9c4.9-.1 9.8 0 14.7-.2 3.4-.1 6.8 0 10.2-.4 5.2-.6 10.4-1.2 15.5-2.6 4-1.1 8.2-1.7 12-3.3 5.4-2.3 11.2-3.3 16.5-6 2.7-1.4 6-1.8 8.2-4.6-1.6-2-3.6-2.4-5.8-1.8l-3 .9c-2.8.7-5.7 1.4-8.5 2.2-5.4 1.5-10.3 4.4-15.9 5.2-4 .6-7.8 2.1-11.8 2.7-5.4.8-10.7 1.9-16.2 1.6-3.3-.2-6.6.4-9.8.2-9.3-.5-18.4.7-27.5 2.4-.3.1-.6.3-.9.4-1.6 1-3.3 1.9-4.9 2.9-.6.4-1.2 1.1-1.2 1.7 0 .9.3 2.1.8 2.5.7.4 2 .3 2.9 0 1.3-.4 2.4-1.6 3.7-1.8 4.1-.8 8.3-1.4 12.5-1.9 2.8-.1 5.7-.1 8.5-.1zM298 204.1c.5-.1 1 .2 1.5.2 2.8-.1 5.7-.2 8.5-.3 1 0 2-.2 3-.2 2 0 3.9.2 5.9.3 1.3 0 2.6-.2 3.9-.3 2.9-.4 5.8-.7 8.7-1.1 3.4-.5 6.8-.9 10.2-1.6 3.3-.6 6.5-1.3 9.8-2.2 2.4-.6 4.5-2 7-2.3 2.6-.3 3.3-2.5 4.7-4.9-1.8-.5-3.1-1.2-4.2-1.1-2.5.4-5 1.1-7.5 2-2.8 1-5.6 2-8.7 2.1-1.6 0-3.4-.2-4.9.2-3 .9-6 1.3-9.2 1.5-2.2.1-4.5.2-6.7.5-2.5.3-4.9.7-7.4.3-1.3-.2-2.8-.2-4.1 0-2.6.5-5.1.5-7.7.5-7.2.1-14.3-.3-21.5-.6-2.9-.1-5.8.4-8.7.5-2.5.1-4.3 1.6-6.2 2.8-1.4.9-1.7 2.6-1 3.8.7 1.2 2.9 1.8 4.2 1.1 2.9-1.5 6.1-2.2 9.2-2.2 7.1.2 14.1 1.8 21.2 1zM313.1 236.1c3.7-.6 7.3-1.1 11-1.6 2.9-.4 6-.1 8.7-.9 5.8-1.7 11.8-1.6 17.6-2.6 5-.8 10-1.4 15-2.2 3.4-.5 6.7-1.3 10.1-1.9 3.2-.5 5.7-1.8 6.6-5.2-2.2-2.5-5-1.7-7.6-1.2-5.5 1-11 2.6-16.7 3-2.7.2-5.5.6-8.2 1-1.2.2-2.4.5-3.5.6-3.7.4-7.4.7-11 1.3-2.3.3-4.5 1.1-6.8 1.4-4.6.6-9.3.8-13.9 1.5s-9.2 1.7-13.6 2.9c-3.6 1-7.2 2.5-10.7 3.9-1.4.5-2.6 1.3-3.8 2.1-1.4 1-1.3 2.7.3 3.5.6.3 1.3.3 2 .2 3.8-.5 7.6-1.3 11.2-3 1-.5 2.1-.9 3.2-1.1 3.4-.6 6.7-1.2 10.1-1.7zM153.1 279.5l6.9-4.5c.6-.4 1.3-.6 1.6-1.2 1.9-3.1 5.1-4.6 8-6.4 2-1.3 2.9-3.3 4.5-4.8.4-.3.3-1.1.5-2-.4-.8-.7-1.9-1.2-2.8-3.7-5.9-8.4-11.1-13-16.3-1.3-1.5-2.9-2.6-4.3-4-1.5-1.5-3-3-4.4-4.6-.5-.6-.6-1.6-1.1-2.2-2-2.3-4-4.4-6.1-6.6-1-1.1-2.3-1.3-3.6-1-1.9.4-3.5 1.3-4.7 3-.5.7-1.2 1.2-1.7 1.9-1 1.4-2.7 1.3-4 2.1-3.5 2.1-6.1 5.2-8.7 8.3-.6.7-1.3 1.5-2.2 1.7-3.8 1-6.8 3.1-9.5 5.9-1.2 1.2-2.7 2.1-4.1 3.1-.8.5-1.7.8-2.6 1.2-2.2 1.1-2.9 3.4-1.6 5.2 1.7 2.5 3.3 5 5.1 7.4 1.9 2.4 3.8 4.8 6 7 1.6 1.6 3.1 3.3 5.2 4.5 1.8 1 3.4 2.1 5.3 2.9 2.6 1 5.1 2.2 6.4 4.8.8 1.6 1.7 3.3 2.4 5 .7 1.7 1.5 2.4 3.5 2 3.3-.7 6.3-2.2 9-4.2 2-1.5 3.9-3.2 6.3-4 .8-.5 1.5-1 2.1-1.4zm-11.8.7c-.7.5-1.6.8-2.5 1.2-1.1-1.4-2.2-2.5-3.1-3.7-1.3-1.8-2.9-3.2-4.8-4.2-2.2-1.1-3.7-3-5.2-4.9-.8-1.1-1.9-2-2.9-2.9-2.5-2.3-5.2-4.5-7.6-6.9-1.4-1.4-2.4-3.1-3.6-4.8 2.9-2.7 5.4-5.5 8.8-7.6 3.2-2 6.5-4.1 9.1-7.1 1.6-1.8 3.8-3.1 5.8-4.6.8-.6 1.7-1.2 2.5-1.8 1-.7 2-1.3 2.8-1.8 2.3 2.1 4.5 3.6 5.9 5.6 1.9 2.7 4.7 4.6 6.2 7.5.5 1 1.4 1.4 2.1 2.1 2.7 2.7 5.5 5.2 7.4 8.5.5.8 1.2 1.4 1.8 2.2 1.1 1.4 2.2 2.8 3.6 4.5-1.1 1-2.1 1.8-3.1 2.5-.9.7-1.9 1.2-2.7 1.9-3.1 3.2-7 5.3-10.6 7.7-1.8 1.2-3.5 2.3-5.6 3.2-1.5.7-2.8 2.3-4.3 3.4zM232.4 245.9c-1.4.2-2.5.3-3.6.4-3.7.5-7.3 1.1-10.7 2.8-3.9 2.1-7.8 4-11.7 6.1-3.3 1.9-6.3 4.2-9.7 5.8-4.8 2.3-9.1 5.3-12.8 9.1-1.1 1.1-2.4 2-3.7 2.8-2 1.3-4.1 2.5-6.1 3.9-1.6 1-3.2 2.1-4.6 3.4-2 1.8-3.8 3.8-5.7 5.6-1.7 1.6-3.6 3-5.1 4.7-2.5 3-6 5.2-7.8 8.9-.2.4-.6.5-1 .8-1.8 1.6-3 3.5-3.8 5.7-.7 1.8-.4 2.9.7 3.4 1.2.5 2.4-.2 3.3-1.8.3-.6.7-1.1 1.2-1.6.9-.9 2-1.6 2.9-2.5 2.6-2.6 4.9-5.5 7.7-7.9 2.9-2.5 5.3-5.4 8.3-7.8 2.2-1.7 4-4 6.4-5.5 1.4-.9 3-1.6 4.4-2.6 2.5-1.7 4.8-3.6 7.2-5.5 1.8-1.4 3.4-2.9 5.3-4.2 3.4-2.2 6.8-4.3 10.3-6.3 3-1.7 6-3.3 9-5 2.2-1.2 4.4-2.3 6.5-3.5 2.2-1.3 4.6-2.4 7.2-2.8 1.7-.2 3.5-.3 5.1-.8 1.2-.4 2.6-1.1 3.4-2.1 1.2-1.1-.8-3.5-2.6-3.5z"/><path d="M218.5 260.9c-3.2 1.8-6.4 3.8-9.6 5.7-.8.5-1.5 1.1-2.2 1.7-2.7 2.2-5 4.9-8.4 6.3-1.6.7-3.3 1.7-4.5 3-3.7 4-8.1 7.2-12.3 10.7-2.7 2.2-5.6 4.1-8 6.6-3.4 3.5-6.9 7-10.4 10.4-3.3 3.2-6.5 6.5-9.1 10.3-.3.5-.6 1-.8 1.6-.3.9-.1 1.7.7 2.3.9.7 1.8.3 2.4-.2 2-1.7 4-3.5 5.9-5.3l2.4-2.4c3.5-3.4 7.2-6.7 10.5-10.3 3.7-4 8.3-6.9 12.4-10.5 2.5-2.1 5-4.3 7.4-6.4 1.7-1.4 3.2-3.3 5.2-4.1 3.6-1.6 6.5-4.1 9.4-6.8 1.4-1.3 3-2.6 4.7-3.6 2.7-1.7 5.7-2.8 7.9-5.3.3-.3.9-.4 1.4-.6 2-.7 2.8-2.2 2.4-4.7-2.7-1-5.1.3-7.4 1.6zM188.4 210.9c-2.6 1.3-5.2 2.7-7.7 4.1-3.5 1.9-6.9 3.8-10.2 6-1.7 1.1-3 2.7-4.5 4.1 1.8 3 3.2 3.5 5.3 2.3 3.4-2.1 6.8-4.3 10.3-6.3 1.8-1.1 3.6-2.2 5.4-3.2 3.6-2 7.4-3.7 11.3-5 2.6-.8 4-2.5 5-4.5 1.5-2.8 1.3-3.1-1-5.3-1.1.9-2.2 1.6-3.3 2.5-2.2 1.9-4.7 3.4-7.5 4.2-1.1.1-2.1.6-3.1 1.1zM162.5 218.4c1.7-1.3 3.8-2.1 5.6-3.1 2.3-1.3 4.7-2.5 6.9-4 3.7-2.6 7.4-5.2 11-8 1.1-.9 2.3-1.4 3.6-1.8 2.8-.7 3.4-1.1 3.5-3.9.1-1-.7-2.1-1.1-3.4-.8.2-1 .3-1.3.4-2.9.4-5.4 1.5-7.3 3.7-.3.4-.7.7-1.2 1-3.3 2.4-6.5 5-10 7.3-2.1 1.4-4.5 2.4-6.7 3.6-2.7 1.4-5.5 2.4-7.7 4.6-1.2 1.2-1.6 2.3-1 3.8 2.1 1.5 3.8 1.3 5.7-.2zM198.6 220.1c-.8.6-1.7 1-2.6 1.5-.9.5-1.9.7-2.8 1.3-3.1 1.9-6.4 3.4-8.8 6.2-.8.9-1.8 1.6-2.7 2.4-1.9 1.7-3.9 3.3-6.2 5.3 1 .8 1.5 1.5 2.1 1.7.8.2 1.8.1 2.5-.2 1.3-.6 2.4-1.6 3.6-2.4 3.4-2.2 6.5-5 10.3-6.9 3.5-1.8 6.8-4 10.1-6 .8-.5 1.5-1.2 2-1.9.9-1.3.5-2.3-1.1-2.6-2.5-.6-4.5.3-6.4 1.6z"/></symbol><symbol id="check" viewBox="0 0 500 500"><title/><path d="M207.418 424.684a34.712 34.712 0 0 1-27.728-13.801l-89.17-117.82c-11.604-15.299-8.585-37.086 6.739-48.69 15.348-11.654 37.135-8.585 48.74 6.737l58.673 77.467 147.52-236.891c10.156-16.271 31.62-21.263 47.94-11.104 16.297 10.133 21.313 31.596 11.131 47.917L236.966 408.263c-6.04 9.759-16.495 15.849-27.95 16.371-.55.05-1.049.05-1.598.05z"/></symbol><symbol id="close" viewBox="0 0 500 500"><path d="M100.208 414.334a14.487 14.487 0 0 1-10.278-4.259c-5.679-5.68-5.679-14.878 0-20.557L389.514 89.924c5.679-5.678 14.878-5.678 20.557 0 5.678 5.679 5.678 14.878 0 20.557L110.486 410.075a14.489 14.489 0 0 1-10.278 4.259z"/><path d="M399.792 414.33c-3.728 0-7.439-1.42-10.277-4.26L89.929 110.486c-5.679-5.679-5.679-14.877 0-20.557 5.679-5.679 14.878-5.679 20.557 0l299.585 299.585c5.678 5.678 5.678 14.877 0 20.556a14.475 14.475 0 0 1-10.279 4.26z"/></symbol><symbol id="eye" viewBox="0 0 500 500"><path d="M249.996 372.276c-88.936 0-172.711-43.503-224.081-116.368a10.202 10.202 0 0 1 0-11.803c51.357-72.867 135.131-116.381 224.081-116.381 88.963 0 172.74 43.514 224.096 116.381a10.252 10.252 0 0 1 0 11.803c-51.37 72.865-135.146 116.368-224.096 116.368zM46.945 250c47.836 63.878 123.197 101.793 203.051 101.793 79.868 0 155.242-37.915 203.065-101.793-47.823-63.865-123.184-101.792-203.065-101.792-79.869 0-155.229 37.926-203.051 101.792z"/><path d="M249.996 333.521c-46.048 0-83.508-37.474-83.508-83.522 0-46.062 37.46-83.536 83.508-83.536 46.062 0 83.536 37.474 83.536 83.536 0 46.049-37.474 83.522-83.536 83.522zm0-146.573c-34.752 0-63.024 28.286-63.024 63.051 0 34.754 28.272 63.039 63.024 63.039 34.767 0 63.053-28.284 63.053-63.039-.001-34.765-28.287-63.051-63.053-63.051z"/></symbol><symbol id="facebook" viewBox="6 6 500 500"><title/><path d="M289.094 145.688h55.156V79.5h-55.156c-42.579 0-77.219 34.64-77.219 77.219v33.094H167.75V256h44.125v176.5h66.188V256h55.156l11.031-66.188h-66.188v-33.094c0-5.979 5.052-11.03 11.032-11.03z"/></symbol><symbol id="instagram" viewBox="6 6 500 500"><title/><path d="M399.406 79.5H112.594C94.392 79.5 79.5 94.392 79.5 112.594v286.812c0 18.202 14.892 33.094 33.094 33.094h286.812c18.202 0 33.094-14.892 33.094-33.094V112.594c0-18.202-14.892-33.094-33.094-33.094zm-77.218 55.156c0-6.067 4.964-11.031 11.031-11.031h44.125c6.067 0 11.031 4.964 11.031 11.031v44.125c0 6.067-4.964 11.031-11.031 11.031h-44.125c-6.067 0-11.031-4.964-11.031-11.031v-44.125zM256 189.812c36.541 0 66.188 29.646 66.188 66.188S292.541 322.188 256 322.188 189.812 292.541 189.812 256s29.647-66.188 66.188-66.188zm132.375 187.532c0 6.067-4.964 11.031-11.031 11.031H134.656c-6.067 0-11.031-4.964-11.031-11.031V233.938h24.269A110.333 110.333 0 0 0 145.687 256c0 60.948 49.365 110.312 110.312 110.312 60.948 0 110.312-49.364 110.312-110.312 0-7.584-.758-14.961-2.206-22.062h24.269v143.406z"/></symbol><symbol id="leaf" viewBox="0 0 500 500"><path d="M387.8 210.2c0-.3.1-.7.1-1 0-.6-.1-1.5-.6-2.1-.5-.5-1.1-.9-1.7-1.2l-.3-.2c-.4-.2-.9-.3-1.3-.3s-.9 0-1.2-.3c-.3-.3-.2-.8-.2-1.1.1-.6.1-1.2.1-1.8 0-1 0-1.9.5-2.8.2-.3.1-.7.1-1v-.3-.5c0-.3 0-.7.1-.8 1.4-1.8 1.3-3.8 1.2-5.7v-.4-.8c0-.4.1-.7.2-1.1.1-.8.3-1.6.2-2.4-.1-1-.4-2-.7-2.9l-.1-.3c-.4-1.2-.9-2.4-1.5-3.6-.2-.4-.7-.6-1.3-.7-2-.5-3.5.5-4.8 1.4-.6.4-1.1.7-1.6 1-.9.4-1.5 1-2.2 1.6-.7.6-1.4 1.2-2.2 1.6-.5.2-.9.4-1.3.7l-.2.1c-.6.4-1.2.8-1.8 1.3-.5.4-1 .7-1.5 1.1-.9.6-2.1.8-3.3 1.1-.6.1-1.1.3-1.7.4-.6.2-1.1.4-1.7.6-.3.1-.5.2-.7.3-.4.2-.9.4-1.3.5-.4.1-.8.1-1.2.2-1 .1-2 .2-2.9.9-.2.2-.6.3-.8.2 0 0-.2-.1-.2-.4v-.4c-.1-.9-.2-1.5.4-1.9.9-.7 1.1-1.7.4-2.8 0-.1-.1-.1-.1-.2-.1-.2-.2-.4-.4-.6-.8-.7-1.5-1.4-2.3-2-.3-.3-.8-.1-1 .1l-.9.6c-.7.4-1.5.9-2 1.9-.6 1.3-1.4 2.5-2.3 3.7-.6.8-1.4 1.4-2.2 2.1-.6.5-1.3 1-1.9 1.6-1.1 1.2-2.3 2.3-3.5 3.4-.4.4-.9.8-1.3 1.2l-.4.4c-.8.8-1.7 1.6-2.5 2.3-.5.4-1 .8-1.6 1.2-1 .8-2.1 1.5-2.9 2.5-.7.9-1.6 1.1-2.7 1.3-.2 0-.4.1-.6.1 0-.1 0-.2.1-.2.2-.7.3-1.3.5-1.8.1-.3.3-.7.6-1 .2-.3.3-.5.5-.8.7-1.3.7-2.5.3-3.6-.5-1.1-1.6-1.9-3-2.2-.8-.2-1.7-.3-2.5.5l-.1.1c-.4.4-.9.8-1.3 1l-.1.1c-1.2.5-2.4 1-2.9 2.5h-.1l-.1.1c-1.5.7-3 1.4-3.7 3.1 0 0-.1.1-.2.1-.1.1-.2.1-.3.2l-1.2.9c-1 .7-2 1.5-2.9 2.3-.8.7-1.6 1.4-2.3 2.1-.4.4-.8.8-1.3 1.2-.5.4-.9.8-1.4 1.2-.5.5-1 .9-1.5 1.4-.4.3-.7.7-1.1 1.1-.7.8-1.3 1.5-2.1 1.8-1.8.8-3.1 1.8-4.3 2.8-1 .8-1.9 1.6-2.9 2.4-1.1.9-2.1 1.8-3.2 2.7-1.9 1.7-3.6 2.9-5.7 3.5-.3.1-1-.2-1.5-.5h-.1v-.2c0-.2.1-.5.1-.7 0-.4 0-.7-.1-1-.7-1.9-.8-3.9-.5-5.9l.3-2.1c0-.3.1-.6.1-1s.1-.8.2-1.2c.1-.4.1-.8.2-1.2.1-.3.1-.6.2-1 0-.3.1-.6.1-.8.1-.4.1-.9.2-1.3.2-.7.3-1.3.5-2l.2-.7c.1-.2.1-.4.2-.6.1-.5.3-1 .5-1.5.2-.6.5-1.2.8-1.8.3-.6.5-1.2.8-1.8.4-1 .8-2 1.1-3l.4-1c.1-.3.2-.5.3-.8.1-.4.3-.9.5-1.3.3-.8.7-1.5 1-2.2.5-1.2 1.1-2.4 1.6-3.7.9-2.2 1.6-4.4 2.3-6.4l.3-.9c.4-1.1.8-2.2.9-3.4 0-.8.3-1.3.7-2.1.4-.8.7-1.6.9-2.4.1-.3.2-.7.4-1 0-.1 0-.1.1-.2 1.1-.7 1.5-1.9 1.8-2.9l.3-.9c.5-1.1.8-2.4 1.1-3.5.1-.6.3-1.1.5-1.7.1-.2.1-.4.2-.6.1-.2.2-.4.2-.6.2-.6.4-1.2.6-1.9.4-1.3.8-2.6 1.4-3.7.6-1.1.9-2.2 1.2-3.4.4-1.4.7-2.6 1.5-3.7.3-.3.2-.7.1-1.1v-.4c0-.9-.1-1.6.6-2.3.5-.5 1-1.5.9-2.3 0-.7.3-1.2.6-1.9.2-.4.4-.7.6-1.1.1-.2.1-.4.2-.5.4-1 .8-2.1.5-3.4.1-.1.2-.2.2-.4.3-.5.6-.9.8-1.5l.2-.7c.4-1.3.8-2.6.8-4v-.2c0-1.2 0-2.2.8-3 .4-.5.9-1.2.8-1.8-.2-.8.2-1.2.9-1.8l.1-.1c.2-.2.3-.4.4-.5 0-.1.1-.1.1-.2l.8-1.1-1.3.3c-.1-.1-.2-.3-.2-.4-.3-.5-.6-.9-.6-1.3 0-.6.2-1.2.5-1.9.1-.4.3-.8.4-1.2.1-.2.2-1-.1-1.6-.5-1.1-1.4-1.8-2.4-2-1-.2-2.1.2-2.9 1.1-1.5 1.6-4.3 2.2-6.4 1.3-.5-.2-1.4-.5-2.3-.4-1.1.2-2.3.5-3.4.7-.5.1-1.1.3-1.6.4-.2.1-.5.1-.7.1-2-.4-3.8.2-5.6 1-2 .8-3.6 1.3-5.2.6-1.1-.4-2.6-1.1-3.4-2.2-.8-1.1-1.3-2.5-1.8-3.8-.1-.4-.3-.7-.4-1-.1-.3-.1-.6 0-1v-.6c0-1.1.2-2.2.5-3.3l.3-1.5v-.2l-.5-1c-.4-.7-.7-1.4-1-2.1 0-.1.1-.1.1-.2l.5-1.4c.3-.9.7-1.9 1-2.8.1-.3 0-.6-.1-.9 0-.1-.1-.2-.1-.2-.3-1.5-.6-3 .1-4.5.4-.9.7-1.8 1-2.7l.3-1.5c.1-.4.1-.8.2-1.2.2-.9.4-2.3-.6-3.6-1.5-1.8-4.3-2.5-6.9-1.7-.1 0-.2.1-.3.1-.5-.4-1.2-.6-1.8-.8-1.1-.3-1.8-.6-2-1.7-.1-.3-.3-.5-.4-.5h-.1l-.1-.1c-.1-.2-.3-.3-.3-.5-.1-.5-.2-1-.3-1.6-.1-.8-.2-1.7-.5-2.5-.1-.6-.4-1.2-.7-1.7-.2-.4-.3-.7-.5-1.1-.1-.3-.2-.7-.3-1.2 0-.2-.1-.3-.1-.5.3-.4.3-.7.3-1.6v-.5c0-1.5.1-3.1.1-4.6v-.6c0-.3.1-.6.1-.9.1-.5.1-.9.1-1.4 0-.5-.1-1-.1-1.5-.1-.7-.2-1.4-.1-2v-.2c.1-.7.2-1.5-.7-2l.3.1.1-.6c.3-2.2-.6-4.1-2.3-4.8-.7-.3-1.5-.4-2.6-.4-.5 0-.7.4-1 .8-.1.1-.1.2-.2.3-.8 1.1-1.7 2.3-2.5 3.4-.1.2-.2.4-.3.5l-.6 1.5-1.8 4.5c-.2.6-.6 1.1-1 1.6-.2.3-.4.6-.6.8-.6.9-.8 2-1 3-.1.4-.2.8-.3 1.3 0 .1-.1.2-.1.4-.1.2-.1.5-.2.7l-1.2 2.4c-.5 1-.9 1.9-1.4 2.9-.2.4-.3.7-.5 1.1-.2.5-.4 1-.6 1.4-.2.3-.5.7-.8 1-.5.6-1 1.2-1.2 1.9-.3 1.1-.8 1.9-1.4 2.8-.5.7-1 1.3-1.5 2-.2.3-.4.6-.7.9l-.3.4c-.2.3-.4.6-.6.8-.2.2-.3.5-.4.7-.2.4-.4.8-.7 1.1-.7.7-1.5 1.4-2.3 2-.3.2-.5.4-.8.7-.5.5-1.4.7-2.3.6-.7-.1-1.3-.3-1.5-.7-.6-.7-1.1-1.4-1.6-2.2-.5-.7-1-1.3-1.5-2-.2-.3-.6-.4-1-.5-.4-.1-.8-.2-1.1-.3-.3-.1-.5-.1-.8-.2-.6-.2-1.3-.3-1.8 0s-.8.9-.9 1.6c-.2.8-.3 1.6-.4 2.2-.1.7-.2 1.4-.4 2.2-.3 1.2-.6 2.4-.5 3.8.1.8 0 1.7-.2 2.6 0 .3-.1.6-.1.9l-.1 1.1c-.2 1.3-.3 2.7-.6 4.1-.1.7-.2 1.3-.2 2 0 .9 0 1.8-.5 2.7-.6 1.1-.7 2.5-.7 3.8 0 2.7-1.7 4.1-3.3 5.5-.2.1-.3.3-.5.4l-2.6-.5h-.5c-.5 0-1 0-1.4-.2-1.1-.4-2.3-1-3.4-1.7-.4-.3-.8-.6-1.2-1-.5-.5-1-1-1.6-1.4-1.1-.6-1.8-1.3-2.4-2.7-.4-.8-.9-1.4-1.5-2.1-.2-.2-.3-.4-.5-.5-1-1.2-1.9-2.3-2.8-3.3-.2-.2-.2-.4-.3-.8-.1-.6-.3-1.4-1.3-1.7-1.3-.5-2.6-.3-3.8.5-.4.3-1 .9-1 1.5v.4c-.1 1.1-.3 2.3 0 3.3.2.9.3 1.7.2 2.6v1c.1 1.2.1 2.2-1 3l-.5.3.4.4c1.1 1 1.3 2 .7 3.3-.3.8-.4 1.8-.4 2.7v.6c0 1.1.1 2.2.3 3.2.2 1.2.4 2.3.2 3.5-.1.9-.1 1.9.1 3s.4 2.3.6 3.4c.1.6.2 1.2.4 1.8V136.5c0 .4-.1.9-.1 1.4-.2 1.6-.4 3.3.8 5 .1.1 0 .3-.1.4-.2.4-.7.7-1 .7-.7 0-1.5 0-2.1.4-1.2.8-1.8 2.1-2.3 3.2-.2.4-.3.8-.5 1.1l-.2.3.2.3c.1.2.3.3.4.5.2.3.4.5.5.7l.2.8c.4 1.4.9 2.8 1.1 4.2.1.5.1 1 .1 1.5.1 1.2.2 2.5.8 3.8.3.6.4 1.3.5 2 .1.5.2 1.1.4 1.6.6 1.7 1.1 3.4 1.7 5.1.4 1.1.7 2.1 1.1 3.2l.2.6c.4 1.1.8 2.3 1.1 3.4.7 3 1.4 6.1 2 8.9.1.3.1.6.1 1s.1.8.2 1.3c.2.7.4 1.5.7 2.2.4 1.2.8 2.5 1 3.8.1 1 .3 1.9.4 2.9.2 1.6.4 3.4.8 5 0 .2.1.3.1.5s0 .4.1.5c.2.9.3 1.7.5 2.6.3 1.8.7 3.6 1 5.5.1.8.2 1.6.2 2.4 0 .7.1 1.3.2 2 0 .3.2.6.3.9.1.2.2.4.2.6.1.9.1 1.8.2 2.7v.2l-.4-.8c-1.1-2.4-2.3-4.9-3.3-7.4-.2-.6-.5-1.2-.7-1.8-1.1-2.7-2.3-5.5-3-8.3-.2-.7-.5-1.3-.7-1.9-.2-.3-.3-.7-.5-1-.1-.3-.2-.6-.2-.9v-.2c-.1-.3-.1-.6-.1-1-.1-.7-.2-1.4-.5-2.1-.3-.7-.7-1.4-1.1-2.1-.5-.8-.9-1.5-1.2-2.3-.1-.4-.3-.7-.4-1.1-.7-2-1.5-4.1-3-5.8-.8-.9-1.2-1.6-1.3-2.3-.3-1.9-1.1-3.1-2.8-4.2-1.9-1.2-3.3-1-4.9-.2-.2.1-.3.2-.5.3-.4.3-1 .6-1.3.4-.3-.1-.5-.5-.6-.8l-.2-.3h-.2c-1-.8-2.1-1.6-3.1-2.5 0 0-.1-.1-.1-.2l-.6-1.7c-.3-.8-.6-1.5-.9-2.3-.1-.1-.1-.3-.1-.4-.1-.5-.3-1.1-.8-1.3-.7-.4-1-1-1.3-1.7l-.2-.3c-.1-.2-.2-.3-.2-.5-.3-.6-.5-1.1-.9-1.6-.3-.4-.7-.8-1-1.2-.4-.4-.7-.8-1-1.2-.6-.9-1.6-1.5-2.7-1.5s-2 .5-2.7 1.4c-.1.2-.2.3-.4.5-2-.7-3.1-2.4-3.8-3.8-.8-1.5-1.8-3.1-3.2-4.4-.1-.1-.1-.2-.2-.3-.2-.5-.5-.9-.8-1.3-.4-.6-.8-1.1-1-1.8-.4-1.6-1.2-3-2.1-4.4-.3-.6-.7-1.1-1-1.7-.1-.2-.2-.5-.3-.8-.3-.7-.6-1.4-1.2-1.8-.7-.4-1-1.1-1.4-1.8-.3-.6-.6-1.1-1.1-1.6-.2-.2-.4-.5-.6-.8-.1-.2-.3-.4-.5-.6-.3-.3-.5-.6-.8-.9-.4-.5-.9-1-1.3-1.6-.1-.1-.2-.3-.3-.4-.7-1-1.6-2.2-3.1-2.3-1.2 0-3.2-.1-3.8 2.1-.1.4-.3.8-.5 1.3l-.3.6-.2.4.4.2c.8.4 1.2 1.1 1.2 2.2 0 1 0 2-.1 3-.1 2-.2 4.1.2 6.1.3 1.8.3 3.6.3 5.4v2.7c0 1 .1 1.9.1 2.9.1 1.4.2 2.8.2 4.2 0 .6.1 1.3.2 1.9.2 1 .3 2 .1 3-.4 1.8-.2 3.6 0 5.3.1.4.1.9.2 1.3.1.6 0 .9-.5 1.1-.5.3-.8.2-1.3-.2-1.3-1.1-2.9-1.5-4.6-1.2-.7.1-1.9.7-2.2 1.5-.9 2.3-1 4.7-.2 7 .3 1.1.5 2 .4 3 0 .5 0 .9-.1 1.4-.1 1.4-.2 2.8-.1 4.2 0 .7.2 1.4.3 2.1l.3 1.2c.1.3 0 .7 0 1.1v.8c0 .2-.1.5 0 .8.1.5.1.9.2 1.4.1.5.2 1 .2 1.5v.9c0 .5 0 1 .1 1.5l.6 1.8c.3.8.5 1.5.7 2.2.3 1.8.5 3.6.7 5.4.1.6.1 1.2.2 1.8-.2 0-.4-.1-.5-.1-.8-.2-1.4-.3-2-.6-2.1-.9-4.2-1.8-6.7-1.6-1.2.1-2.6.9-3.1 1.8-.3.5-.3 1 0 1.4.3.6.3 1.2.4 1.9 0 .9.1 1.8.8 2.8.4.5.4 1.3.5 2.1 0 .5.1 1.1.2 1.6.3 1.4.8 2.8 1.3 4.2l.1.3c.2.5.4 1.1.6 1.6.2.5.4.9.5 1.4.1.2.1.5.2.7 0 .2.1.4.1.7.1.4.2.9.4 1.3l.2.6.3.9c.1.3.3.7.4 1 .1.2.1.5.1.8 0 .3.1.7.2 1.1.2.4.4.9.6 1.3.3.7.7 1.3.7 1.9 0 1.3.5 2.4.9 3.4.2.5.4.9.6 1.4.9 2.7 1.8 5.4 2.7 7.8.6 1.7 1.1 3 1.7 4.4.4.9.9 1.8 1.4 2.6.2.4.5.9.7 1.3l.2.3.6 1.2.3 1.2c.2.7.3 1.5.7 2.2.6 1.1 1.3 2.2 2 3.3.6 1 1.3 2 1.8 3 .7 1.3 1.3 2.6 1.9 3.9.4.8.7 1.5 1.1 2.3.2.4.5.9.9 1.3.5.6.8 1.4.7 2.1 0 .2-.2.6-.5.7-.5.3-1.1.4-1.7.4-.9 0-1.8-.1-2.7-.2-1.6-.2-3.2-.3-4.8-.2-1 .1-2-.1-3.1-.3-1.3-.2-2.6-.5-4-.2-.1 0-.2-.1-.3-.1-.3-.1-.6-.2-.9-.2l-2.4-.6c-.5-.1-1-.1-1.5-.2-.7-.1-1.3-.1-2-.3-1.5-.4-3.1-1.1-5.1-2-.3-.1-.6-.4-.9-.6-.3-.3-.7-.6-1.1-.8-1.3-.6-2.6-1.1-3.8-1.7-.5-.2-.9-.4-1.4-.6-.1-.1-.3-.1-.4-.1-.2 0-.4-.1-.6-.1-.4-.1-.7-.1-1-.2-1.1-.5-2.5-.2-3.5.6-.9.7-1.3 1.7-1.1 2.6.3 1.2.9 2.8 2 3.4 1.4.8 2.3 1.9 3 3.4.1.2.3.4.4.6l.2.2c.1.2.3.4.4.5.3.4.6.7.8 1.1.4.8.9 1.6 1.3 2.5.7 1.3 1.4 2.7 2.1 4 .6 1 1.3 1.8 2 2.7.4.5.9 1 1.3 1.6.3.4.5.8.8 1.2.3.5.7 1.1 1.1 1.6 1 1.2 2 2.4 3.1 3.5.7.8 1.4 1.5 2 2.3.6.7 1.3 1.5 1.9 2.3.8 1 1.6 1.9 2.4 2.9.4.5.9 1 1.4 1.4l.9.9c.9.9.9.9 0 2-.1.1-.2.2-.3.2-.2.1-.4.3-.5.6-.5.9.7 3.3 1.4 3.8.4.2.7.6 1 .9l.3.3.3.3c.2.2.4.5.6.7.4.3.9.6 1.4.9.8.5 1.5.9 2.1 1.4.3.2.5.4.8.6.7.5 1.5 1 1.7 1.9.1.4.7 1.3 1.3 1.1.5-.1.7.1 1.2.6.3.3.6.6 1.1.8.2.1.4.2.7.3.2.1.5.2.7.3.5.2 1 .4 1.5.5.9.3 1.8.6 2.7 1 1.5.6 2.9 1.3 4.1 1.9.2.1.4.3.6.5-.3.2-.5.4-.8.6-.9.8-1.8 1.5-2.6 2.4-.5.6-.4 2.3.2 2.9 1.2 1.1 2.8 2.3 4.4 2.9 2.1.8 4.3 1.4 6.4 2 .7.2 1.3.4 2 .5 2.2.6 4.4 1.2 6.3 1.6.5.1 1 .2 1.4.3.4.1.8.1 1.2.2.6.1 1.1.3 1.7.4.9.2 1.9.5 2.8.6.5.1 1.1.1 1.6.1h1.1l2.4.3 2.4.3c.9.1 1.7.1 2.6.2.7.1 1.5.1 2.2.2.2 0 .3.1.5.1.3.1.6.2 1 .1.9-.1 1.8-.1 2.6-.2l4.2-.3c3.5 0 7 0 10.6.2.8 0 1.8.4 2.4.9.8.7 1.6 1.3 2.9 1.1.7-.1 1.5 0 2.3.1.2 0 .5.1.7.1 2.6.3 5.2.7 7.8 1 .4.1.8.1 1.2.2.5.1 1.1.2 1.6.3.7.1 1.3.1 2 .2-.2.9-.4 1.9-.6 2.8-.2.8-.6 1.6-.7 2.4-.2 1.8.5 3.7-.4 5.4-.1.1.1.3.1.4 0 .8-.1 1.5-.1 2.3 0 .4-.1.7-.1 1.1.1 1.8.2 3.7.2 5.5.1 1.5 0 2.9.1 4.4.1 1.5.4 3.1.6 4.6.2 1.9.4 3.7 1.2 5.5.4.8.4 1.6.6 2.4.6 1.8 1.3 3.6 2.1 5.4.9 1.9 1.4 4 2.8 5.7.2.3.3.6.4 1 .2.5.3 1 .5 1.5.4 1.1.8 2.3 1.2 3.4 0 .1.1.2.1.3.4.8.9 1.7 1.2 2.5.5 1.5.8 3 1.3 4.5.7 2.3 1.6 4.6 2.1 7 .5 1.9 1.2 3.7 1.2 5.6 0 .8.4 1.6.5 2.4.2.9.2 1.9.5 2.8.4 1.5.3 3 .2 4.5-.1 1.2-.2 2.3-.3 3.5 0 .4-.1.8-.3 1.2-.8 1-1.2 2.2-1.5 3.4-.2 1.1-.4 2.1-.6 3.2-.1.7.9 2.7 1.6 2.7 1.6.2 3.2.3 4.8.2 1.2 0 2.4-.3 3.6-.6.5-.1 1.1-.3 1.4-.6 1.2-1.4 1.6-3 1.6-4.8 0-1.3-.1-2.6-.3-3.9-.3-2.4-.6-4.8-1-7.1-.3-1.8-1.4-3.6-1-5.5 0-.1-.1-.3-.2-.4-.3-.7-.7-1.4-.9-2.1-.4-1.6-.7-3.1-1.1-4.7-.3-1.1-.7-2.1-1-3.1-.2-.5-.3-1-.4-1.5-.7-2.1-2.1-4-2.2-6.3 0-.3-.2-.6-.4-.9-.4-1-.9-1.9-1.3-2.9-.5-1.5-.9-3-1.5-4.4-.5-1.3-1.2-2.6-1.9-3.9-.8-1.6-1.5-3.2-2.4-4.7-1-1.8-1.5-3.8-2.1-5.7-.1-.3.1-.7-.1-1-.9-1.2-.7-2.5-1.2-3.8-.4-1 .1-2.1-.8-3-.1-.1-.1-.2-.1-.3 0-.7.1-1.5.1-2.2-.1-1.9-.2-3.7-.4-5.6 0-.5-.2-1.1-.2-1.6-.2-1.6-.3-3.2-.4-4.9-.1-1-.1-2 .1-3 .3-1.8.6-3.6 1-5.5 0-.3.1-.5.1-.8.2-.9.4-1.7.5-2.6 2.3-.1 4.1.8 5.6 1.6l.2.1.2-.1c.2-.1.7 0 1 .1.3 0 .6.1.9.1h.2c1 .1 2 .3 3 .4 2.3.3 4.7.6 7 1 3.4.6 6.3 1.2 9 1.9.9.2 1.9.4 2.8.5 1.7.2 3.3.4 4.7 1.3.2.1.4.1.6.1l.9.2c1.1.3 2.3.5 3.4.8.7.2 1.5.4 2.2.6 1.4.4 2.8.8 4.3 1.1 1.6.3 3.3.5 4.9.6l1 .1c1.2.1 2.3.1 3.3.1h.8c1.4 0 2.8-.2 4.2-.3l.7-.1c.7-.1 1.3-.1 2-.1 2.3-.1 4.7-.2 7-1.3.1-.1.4 0 .6 0h.7c.3 0 .6.1.9 0 1.6-.5 3.3-1 4.9-1.6.8-.3 1.6-.6 2.3-.9.9-.4 1.8-.7 2.7-1.1.9-.3 1.9-.6 2.8-.8s1.9-.5 2.8-.9l4.8-1.8 1-.4 2.1-.9c1.4-.7 2.9-1.3 4.4-1.7 2.4-.5 4.4-1.7 6.2-2.9l.5-.3c.3-.2.5-.4.7-.6.1-.2.3-.3.4-.4.4-.3.9-.6 1.4-.8.7-.4 1.4-.8 2.1-1.3 1-.7 1.9-1.5 2.8-2.3.5-.5 1.1-.9 1.6-1.4.1-.1.3-.2.5-.3.1-.1.3-.1.4-.2.1-.1.3-.2.4-.2.4-.2.8-.4 1.2-.7 1.3-1.1 2.3-2 3.2-2.9.6-.6 1.2-1.3 1.8-1.9.3-.4.7-.8 1-1.2.2-.2.4-.5.6-.7.4-.5.8-1.1 1.3-1.2 1.2-.4 2-1.1 2.7-1.8l.8-.8c2.2-1.8 2.8-4 1.8-6.4-.1-.2-.1-.4-.2-.6-.3-.9-.6-1.8-1.3-2-.5-.1-.9-.5-1.3-.9-.2-.2-.5-.5-.9-.7.1-.2.3-.4.4-.5.4-.4.8-.9 1.1-1.3.7-.8 1.5-1.7 2.2-2.6 1.1-1.5 2.3-3.2 3.7-5.4.9-1.3 1.6-2.8 2.1-3.8.2-.4.3-.8.5-1.2.2-.5.3-.9.5-1.3 1-1.8 1.2-2.8-.6-4.1-.9-.7-2.3-1.1-3.5-1-1.3.1-2.5.4-3.7.6-.4.1-.9.2-1.3.3-.6.1-1.2.3-1.7.4l-.4.1c-.1 0-.2.1-.4.1-.1 0-.2.1-.3.1-1 .1-2 .3-3 .4l-2.4.3c-1 .1-2 .3-3 .4-2.2.3-4.5.7-6.7.9-.6.1-1.3 0-2-.1-.4 0-.8-.1-1.2-.1h-2.9c-1.8.1-3.4.1-5.1-.3-.4-.1-.8-.1-1.2-.1-.3 0-.6 0-.9-.1-.1 0-.3-.1-.5-.3.1 0 .1-.1.2-.1.5-.3.8-.5 1.1-.5 2.2-.2 4-1.1 5.7-2.1.8-.5 1.7-.9 2.6-1.3 1.7-.7 3.3-1.5 4.8-2.3.7-.4 1.4-.7 2.1-1.1l.2-.1c.2-.1.4-.2.5-.3l.7-.5c1.7-1.2 3.5-2.4 5-4.1.8-.9 1.8-1.6 2.9-2.4.7-.5 1.4-.9 2-1.5.9-.8 1.8-1.7 2.6-2.5l.8-.8c.2-.2.4-.5.6-.7.3-.4.6-.8 1-1 1.5-.6 2.6-1.6 3.5-2.6.5-.5 1-1 1.4-1.5.5-.5 1-1.1 1.6-1.6.4-.4.7-.8 1-1.2.6-.7 1.1-1.4 1.8-2 1.6-1.4 2.5-3.2 3.2-4.7.6-1.3 1-2.7 1.3-4.1.1-.4.2-.8.3-1.1.1-.5 0-1-.2-1.4-.2-.7-.5-1.4-.8-2l-.3-.7c-.4-1 .1-1.7 1-2.7.1-.2.3-.3.4-.5 1.9-2.4 3.2-4.9 4.3-7.4l.1-.2c.3-.8.7-1.6 1.3-1.9 1-.6 1.2-1.4 1.5-2.1.1-.2.1-.4.2-.6.4-.9.6-1.8.8-2.6.3-1.1.6-2.1 1.1-3.1.7-1.3 1.7-3 1.2-4.8 0-.1.1-.2.1-.3.9-1.6.8-2.8-.4-4.4-.8-1.1-1.9-1.5-3-1.2 0-.1.1-.2.1-.2.3-.7.6-1.4.8-2.1.3-1 .6-2.1.8-3.2.2-.7.3-1.4.5-2 .1-.3.2-.5.3-.5 1-.6 1.3-1.5 1.5-2.3.2-.5.3-1 .6-1.4.3-.3.1-.9 0-1 1-.8 1.1-1.6 1.2-2.5zm-11.4 15.6c-1.1 1-1.9 2.1-2.6 3.3l-.1.1v.1c-1.5.6-1.2 1.9-1 2.7.3 1.3.9 2.2 1.8 2.7.8.4 1.8.5 2.9.1.6-.2 1.1-.5 1.7-.7.3-.1.6-.3.9-.4v.1c-.1.5-.1.9-.2 1.3-.6 1.4-1.2 2.9-2.1 4.6l-.6 1.2c-.8 1.7-1.6 3.4-2.6 5.1-.5.8-1.1 1.5-1.7 2.2-.5.6-1.1 1.3-1.5 2-1.7 2.6-3.4 5.3-5 8-.6 1-.8 1.8-.6 2.6.2.7.7 1.3 1.6 1.7.5.3.9.7 1 1.3.2.7 0 1.5-.5 2-.4.5-.8 1.1-1.1 1.6-.7 1-1.4 2-2.2 2.9-.9.9-2 1.8-3 2.6-.5.4-1 .8-1.6 1.3-.2.1-.3.3-.4.5l-.3.3c-.3.3-.7.5-1.1.6l-.2.1c-.3.3-.5.7-.7 1.1-.5.9-.8 1.3-1.8 1.3h-.7l.2.7c.2.9-.2 1.1-1 1.6-.3.2-.6.3-.9.6-2 1.7-3.9 3.3-5.9 4.9-.6.5-1 .8-1.5 1.1l-.8.5c-1.3.8-2.7 1.6-4 2.4-1 .5-2.2 1-3.3 1.5-.4.2-.9.4-1.3.6-.4.2-.8.3-1.2.4-.9.3-1.9.7-2.7 1.3-1.2 1.1-2.7 1.5-4.2 1.9-.6.2-1.1.3-1.7.5l-2.4.9c-.5.2-1 .4-1.4.6-.3.1-.6.2-.9.2h-.1-.1c-.2 0-.5-.1-.7.1-.9.7-2 .8-3.2.8-1 0-2 .1-3 .6-1.1.6-2 2-2.4 3.1-.4 1.1.3 2.3 1.7 3 .8.4 1.6.7 2.4.9h.1c1.9.4 3.9.9 5.9 1.2 1.3.2 2.5.3 3.8.4 1 .1 2.1.2 3.1.3h.2c1.2.1 2.4.3 3.4.7 1.3.6 2.4.4 3.6.3.6-.1 1.3-.2 1.9-.1 1 .1 2 .1 3 .2l1.2.1c.2 0 .5 0 .8-.1.8-.4 1.5-.3 2.3.2.4.2.8.1 1.1 0h.1c.2 0 .3-.1.4-.2.1 0 .1-.1.2-.1.9-.1 1.9-.3 2.8-.4 1.7-.2 3.4-.4 5.1-.7 1.3-.2 2.6-.5 3.8-.8.6-.1 1.2-.3 1.8-.4h.2c.1.3-.1.5-.5.9-.2.2-.4.4-.5.7-.6 1.2-1.4 2.3-2.3 3.3-1.9 2.2-3.4 4.3-4.5 6.6l-.1.3c-.5 1.1-1.1 2.3-1.6 3.5-.4 1.1.6 2.6 1.8 3.1.6.3 1.2.6 1.9.9l.5.2-.7.7c-.9.8-1.7 1.6-2.5 2.4-.3.3-.6.6-.9 1-.5.5-.9 1-1.4 1.4-.9.8-1.9 1.6-2.9 2.3-.7.5-1.3 1-2 1.6-.7.6-1.4 1.1-2.1 1.7-1.1.9-2.1 1.8-3.2 2.7-.7.6-1.5 1.1-2.2 1.6-1 .7-2 1.4-3 2.2-1.7 1.4-3.6 1.9-5.8 2.4-.9.2-1.6.7-2.4 1.1-.6.3-1.1.6-1.7.8-2.3.8-4.6 1.7-6.9 2.4-1.1.4-2.3.8-3.4 1.2-.9.3-1.8.6-2.7 1-1.8.7-3.7 1.3-5.6 1.9-2.2.7-4.6 1.2-7.1 1.7-1.2.2-2.4.3-3.5.4-1.1.1-2.2.2-3.3.4-3.2.5-6.4.2-9.5-.1-.5-.1-1.1-.1-1.6-.2-2.6-.2-5.3-.9-7.9-1.6l-1.4-.3c-2.9-.7-5.4-1.4-7.7-2.3-2.2-.8-4.5-1.2-6.7-1.6-1.7-.3-3.5-.6-5.2-1.1-1.7-.5-3.5-1-5.4-1.1-.2 0-.4-.2-.7-.4.4-.1.7-.2 1.1-.2 1.4-.3 2.8-.6 4.1-.8 1.5-.2 3.1-.4 4.6-.5l.8-.1c.7-.1 1.3-.1 2-.1s1.5-.1 2.2-.1c1-.1 2.1-.1 3.1-.2 2.5-.1 5-.2 7.5-1.1.5-.2 1.1-.2 1.8-.1h1.5c1.4-.2 2.9-.5 4.3-.7l1-.2c1.6-.3 3.3-.6 4.9-.9h.1l1.5-.3c.6-.1 1.2-.3 1.8-.4l4.8-.9c.8-.1 1.5-.2 2.3-.4 1.3-.2 2.7-.4 4-.7.8-.2 1.6-.4 2.3-.7l.9-.3c.1 0 .2-.1.3-.1 1.4.2 2.7-.3 3.8-.8.5-.2 1-.4 1.4-.6 1.7-.5 3.4-1.3 5-2.1.5-.2 1-.5 1.5-.7l4.5-2.1 3.6-1.7c1.2-.6 2.4-1.2 3.6-1.7.7-.3 1.5-.6 2.2-1 1.2-.5 2.4-1 3.6-1.6l.7-.3c1.8-.9 3.6-1.8 5.1-3.1l.1-.1c.8-.7 2.4-2.1 1.2-4.1v-.4c0-.4.1-1.4-1-1.4-.8 0-1.8.3-2.5.9-1.4 1.2-3 1.6-4.5 1.8-.8.1-1.6.5-2.3.9-.4.2-.7.4-1.1.5-.2.1-.5.2-.8.2-.2 0-.3.1-.5.1-.3.1-.6.1-.9.2-.7.2-1.5.3-2.1.7-.6.3-1.2.7-1.8 1.1-.5.4-1 .7-1.5 1-.4.2-.9.3-1.4.5-.5.1-.9.3-1.4.5-.8.4-1.6.8-2.3 1.2-.7.4-1.4.8-2.1 1.1-.9.4-1.8.8-2.7 1.1-.4.2-.8.3-1.2.5-.5.2-1 .4-1.5.7-1.1.5-2.3 1-3.5 1.4-1.3.5-2.7.8-4.1 1.1l-.3.1h-.5s0-.1.1-.1c.2-.5.5-.8.7-1.2l.3-.4c.6-.8 1.2-1.6 2-2.1.5-.4 1-1.1 1.1-1.7.1-.7 0-1.7-.5-2.3-.4-.5-1.3-.5-2.2-.4-.9.1-1.6.3-2 .6-1 .7-1.9 1.5-2.7 2.3-.7.8-1.5 1.6-2.2 2.5-1.2 1.5-2.5 3-3.9 4.3-.5.5-1.5.7-2.5.8-.3.1-.7.1-1 .2l-4.5.9-1 .2c-.6.1-1.3.2-2.2.3-.9.1-1.7.2-2.6.3-1.5.1-3 .3-4.4.5-.8.1-1.6.2-2.5.4-.9.1-1.8.3-2.7.4-.5.1-1 0-1.6 0H264c-1.2.1-2.5.2-3.6.3h-.2c-.5.1-1.1.1-1.6.2-.9.1-1.8.2-2.6.3-4.2.2-7.7.8-10.8 1.8-.6.2-1.1.3-1.7.4-.5.1-1.1.2-1.6.3-.5.1-.9.4-1.3.6 0-.3.2-.5.7-.9.1-.1.3-.2.4-.3 1.2-1.2 2.5-2.3 3.8-3.4.4-.3.8-.7 1.2-1 .4-.3.7-.6 1.1-.9.6-.5 1.2-1 1.7-1.5.3-.3.5-.6.7-1 .1-.2.2-.4.3-.5.4-.5.7-1.1 1.1-1.6.7-1.2 1.4-2.3 2.6-3 .5-.3.9-1 1-1.5.2-.7.7-1.2 1.7-1.4 1.4-.3 2.9-.6 4.3-.8.8-.1 1.6-.3 2.4-.4.6-.1 1.1-.2 1.7-.4l1.5-.3c.7-.1 1.5-.2 2.2-.3H269.3c.1 0 .3.1.4 0 .7-.1 3.6-2.6 3.8-3.2.1-.3.2-.8 0-1.2-.1-.3-.4-.5-.8-.6-1.5-2-3.3-1.5-4.8-1.1-.6.1-1.1.3-1.7.3-.6 0-1.3.1-1.9.2-.5.1-.9.1-1.4.2 0 0-.1 0-.2-.1.1-.1.1-.2.2-.3 1.5-2 3.1-4 4.6-6 .7-.9 1.5-1.8 2.3-2.7.9-1 1.8-2 2.8-3 .6-.6 1.2-1.3 1.8-1.9 1-1.1 2-2.1 3-3.2.5-.5.9-1.1 1.2-1.6.6-1 1.1-1.6 2.1-1.6.4 0 .7-.4.8-.7.8-1.3 1.9-2.2 3.2-3.1.7-.5 1.4-1 2.1-1.7.9-.9 1.9-1.8 3-2.8l1.4-1.3c.9-.1 1.6-.8 2.4-1.5.3-.3.7-.6 1-.8 1.1-.8 2.3-1.7 3.4-2.5.9-.7 1.8-1.3 2.7-2 .9-.7 1.9-1.4 2.8-2 1.8-1.3 3.6-2.6 5.4-4 .6-.5 1.2-1 1.8-1.6.9-.8 1.7-1.6 2.7-2.1 2.2-1.2 4.2-2.7 6-4.1 1.2-.9 2.4-1.9 3.7-2.7.7-.5 1.4-1.1 2.1-1.6.4-.3.8-.7 1.2-1 .8-.6 1.7-1.3 2.5-1.9 1.6-1.2 3.2-2.4 4.8-3.7.6-.5 1-1.1 1.4-1.6.2-.2.3-.5.5-.7.1-.1.2-.3.3-.5.1-.2.3-.4.3-.5 1.4-.3 2.3-1.3 3.1-2.2.4-.5.9-1 1.4-1.3.7-.5 1.3-1 1.9-1.6l.7-.7c1.4-1.2 2.8-2.4 4.1-3.7l.5-.5c.9-.8 1.8-1.6 2.6-2.5.6-.7 1.2-1.5 1.7-2.2.3-.4.5-.8.8-1.1.2-.2.4-.5.6-.7.1-.1.2-.2.3-.2.5-.4 1.3-.9 1.2-1.9.1 0 .2-.1.3-.2 1.3-.8 2.8-3.2 2-4.7-.6-1.1-1.8-2.1-2.9-2.4-.5-.2-1.2-.1-1.7.2-.6.3-1.1.9-1.3 1.6 0 .1 0 .1-.1.2-1.6.2-2.4 1.3-3 2.3-.3.5-.6.9-.9 1.2-1.4 1.3-2.6 2.7-3.9 4.1-.8.9-1.6 1.8-2.4 2.6-1.8 1.9-3.5 3.6-5 5l-1.8 1.5c-.5.3-.9.7-1.4 1.1-1.4 1.2-2.9 2.4-4.3 3.7l-2 1.7v-.1-1.5c.2-1.5.5-2.9.8-4.4l.4-2c0-.3.1-.6.2-.8.5-1.5.2-2.7-.9-3.6-.4-.3-1.5-.4-1.9 0l-.5.6c-1.1 1.2-2.2 2.5-3 3.9-.3.6-.3 1.3-.3 2.1v1.3c-.2.9-.5 1.9-.8 2.8-.2.5-.3 1-.5 1.6-.1.4-.2.9-.4 1.3-.4 1.3-.8 2.6-1 3.9-.2 1.3-.7 2.2-1.7 2.9-.6.4-1.3 1-1.8 1.5-.5.4-1.1.9-1.6 1.3l-1.8 1.2c-.7.4-1.5.9-2.2 1.4-1.6 1.2-3.2 2.5-4.8 3.7-1.2.9-2.3 1.8-3.5 2.7-.4.3-.9.6-1.3.9-.7.4-1.4.9-2 1.5-.5.5-1.1.8-1.7 1.1-1.1.6-2.3 1.2-2.8 2.7-1.5.7-2.8 1.7-4 2.7-1.1.9-2.1 1.8-3.3 2.4-.9.5-1.5 1.2-2.1 1.9 0 0 0 .1-.1.1.2-.6.5-1.1.7-1.7.4-.9.8-1.8 1.2-2.8.2-.5.3-1.1.4-1.7.1-.6.2-1.1.4-1.6.2-.6.6-1.2 1-1.8.2-.3.4-.6.6-1 .3-.6.6-1 .2-1.3-.4-.3-.3-.7-.2-1.3 0-.2.1-.4.1-.7 0-1.7-.6-2.6-2.1-2.9-.4-.1-1.1.1-1.3.5-.8 1.1-1.6 2.3-2.3 3.5l-.7 1c0 .1-.1.1-.1.2-.6 1-1 2.1-1.4 3.2-.2.4-.3.9-.5 1.3-.6 1.4-1.3 2.8-1.9 4.2-.3.5-.5 1-.7 1.5-.3.6-.6 1.3-.9 1.9-.7 1.3-1.3 2.6-1.9 4-.3.7-.3 1.6 0 2.3.4 1 .4 1.4-.5 2.2l-.7.7c-1.2 1.2-2.4 2.4-3.3 3.7-1.6 2.5-3.8 4.2-6.2 6l-.3.3c-.1.1-.2.1-.3.3l-1.3 2.1-2.1 3.3c-.3.5-.6.9-1 1.2-.4.4-.8.7-1.2 1-.7.6-1.4 1.2-2 1.8-.5.6-1 1.3-1.4 2-.3.4-.6.9-.9 1.3l-1.2 1.5c-.3.4-.7.8-1 1.2-.6.7-1.1 1.4-1.7 2.2-.5.6-.9 1.2-1.4 1.8-.5.6-1 1.3-1.5 1.9l-.9 1.1c-.2.3-.5.6-.7.9-.4.5-.9 1.1-1.3 1.6-.2.2-.4.5-.6.7-.7.8-1.5 1.7-2.3 2.4-.6.5-1.3.8-2.1 1.3-.2.1-.3.2-.5.3l-.1-2.6c-.1-2.5-.1-4.9-.2-7.3 0-.6 0-1.1-.1-1.7 0-.7-.1-1.5-.1-2.2v-.8c0-.8-.1-1.7.2-2.4.3-.8 0-1.4-.2-1.7 0-.1-.1-.1-.1-.2-.5-1.1-.5-2.3-.5-3.6v-1.9c-.1-.5-.1-1-.2-1.6-.2-1.6-.3-3.2-.4-4.7-.1-2.4-.1-4.9-.1-7.3 0-.8.1-1.6.1-2.3 0-.7.1-1.4.1-2.1v-.5c0-.7.1-1.6-.4-2.2-.4-.5-.3-.9-.2-1.5.1-.4.2-.8.1-1.2-.1-.7-.1-1.5-.1-2.3v-1.7-2.6c0-.7.1-1.5.1-2.2 0-.7.1-1.4.1-2.1v-.6c0-1 .1-2.1 0-3.2-.1-2.9.7-5.4 2.6-7.7.5-.6.9-1.3 1.2-1.9.5-1 .9-2 1.3-3 .5-1.2 1-2.3 1.5-3.4 0 0 .1 0 .2-.1.2-.1.6-.2.7-.4.9-1.4 1.8-2.8 2.7-4.3.3-.4 0-1.1-.2-1.4-.7-.8-3-1.3-4-.9l-.2.1c-1 .5-2 1-2.9 1.7-.5.4-.8.9-1.1 1.5-.2.3-.3.6-.5.8-.1.1-.2.2-.3.2-.1-.1-.2-.3-.2-.4 0-1.5.1-3 .1-4.5 0-1 .1-2 .1-3v-2.7c0-1.2 0-2.4.1-3.6 0-.6 0-1.2.1-1.8.1-2.1.1-4.3.5-6.3.1-.8.1-1.6.1-2.4 0-.9 0-1.8.2-2.7.2-.8.1-1.6.1-2.3v-.9-.4-.1c.7-.7.6-1.5.6-2.2 0-.3-.1-.5 0-.8 0-.4.1-.7.1-1.1.1-.8.2-1.5.3-2.3v-1.1-1.1c.1-.9.3-1.9.4-2.8.2-1.1.4-2.1.5-3.2.1-.7.1-1.4.1-2 0-.5 0-1 .1-1.5v-.1c.1-.8.2-1.6.4-2.3.6-1.7.7-3.5.9-5.2 0-.7.1-1.4.2-2.1.1-.6.1-1.2.1-1.9.1-1.4.2-2.7.6-3.9.5-1.2.6-2.3.8-3.4l.3-1.8c.1-.4.2-.9.3-1.3.3-1.2.6-2.5.7-3.8.1-.9.1-1.9.2-2.8 0-.8 0-1.7.1-2.5.1-.9.3-1.9.6-2.8.1-.4.2-.9.3-1.3l.2-.7c.1-.6.3-1.3.4-2l.3-1.8c.3-2.1.6-4.1 1.4-6.1.3-.7.4-1.5.5-2.2.1-.4.1-.8.2-1.2l.6-2.1c.3-1.1.7-2.3.9-3.5.5-2.8 1-5.5.3-8.3-.3-1.2-.2-2 .4-2.6.4-.5.4-1.8-.1-2.3-.8-.9-1.7-1-2.6-.5-1.5.9-2.1 2-2.3 3.8-.1.6-.3 1.2-.6 1.9-.2.4-.4.9-.5 1.3-.4 1.3-.8 2.7-1.2 4-.5 1.8-1.1 3.7-1.6 5.5-.3 1.1-.8 2.1-1.2 3.2-.2.5-.4 1.1-.6 1.6-.1.2-.2.5-.2.8-.1.5-.1 1-.1 1.5-.1.9-.2 1.9-.3 2.8-.2 1.3-.4 2.5-.7 3.8-.2 1-.4 2-.5 2.9-.1.5-.1.9-.1 1.4 0 .4-.1.7-.1 1.1-.1.4-.1.7-.2 1.1-.1.4-.2.8-.2 1.2-.1.4-.1.9-.1 1.3s0 .8-.1 1.2c-.1.7-.2 1.5-.4 2.2l-.2 1.1c-.1.5-.2 1.1-.3 1.6l-.6 2.4c-.4 1.5-.8 3.1-1.1 4.6-.2.8-.2 1.7-.2 2.5v1.3c0 .4-.1.8-.1 1.2v.1c-.3-.2-.5-.5-.7-1-.1-.1-.1-.2-.2-.4-.9-1.7-1.8-3.5-2.7-5.6-.3-.8-.7-1.6-1-2.3-.3-.7-.5-1.4-.8-2l-.3-.8c-.6-1.3-1.1-2.6-1.9-3.8-.5-.9-1.4-1.7-2.5-2.4-.6-.4-1.9-.4-2.5.1-.6.5-1 1.5-1.1 2.4 0 1.5.7 2.8 1.4 4l.2.3c.1.2.2.4.3.7 0 .1.1.3.1.4.1.3.2.5.3.8.2.6.4 1.3.7 1.9.6 1.3 1.2 3 2 4.5.5 1 1 1.9 1.5 2.8.4.7.8 1.5 1.2 2.2.1.2.1.4.2.7.1.2.1.5.2.7.7 1.8 2 3.4 4 5 .3.2.5.9.4 1.4 0 .8-.2 1.5-.3 2.3-.1.5-.2 1-.2 1.5-.3 2.1-.5 3.9-.6 5.5 0 .6-.1 1.1-.1 1.7 0 .6 0 1.2-.1 1.8 0 .4-.1.8-.3 1.2-.2.6-.3 1.3-.3 1.9.1 1.9-.2 3.8-.4 5.6-.2 1.6-.4 3.3-.4 5v.6c0 1.1 0 2.2-.4 3.2-.3.6-.1 1.2 0 1.8.1.4.1.7.1 1.1-.1.7 0 1.4 0 2.1.1 1.3.1 2.5-.4 3.6-.3.7-.2 1.4-.1 2.2 0 .4.1.8.1 1.1 0 .4-.1.8-.2 1.3-.1.8-.3 1.6-.1 2.4.2 1 0 2-.1 3-.1.5-.2 1-.2 1.6-.1 1.1 0 2.2.1 3.3 0 .6.1 1.1.1 1.7v5.7c0 .1 0 .2.1.3-.6 1.2-.6 2.5-.5 3.7v1.9l-.3 2.1-.2 1.7c0 .2-.1.5 0 .8.3 1.3.1 2.5-.1 3.9l-.1.3c-.2 1.2-.1 2.4 0 3.6 0 .5.1 1.1.1 1.6v2c0 1.2 0 2.3.1 3.5 0 .4.1.8.2 1.2 0 .1.1.3.1.4 0 .1.1.2.1.4 0 .1.1.2.1.2-.6 1.5-.4 3-.3 4.5.1.9.2 1.7.1 2.6V301c-.2-.1-.3-.2-.4-.2l-.2-.3c-.7-.8-1.3-1.6-1.8-2.5-.6-1.1-1.2-2.3-1.8-3.4-.6-1.2-1.2-2.4-1.9-3.6-.6-1-1.2-2-1.9-3l-1.2-1.8c-.2-.3-.3-.6-.5-.9-.2-.3-.3-.6-.5-.9l-.5-.8c-.7-1.2-1.5-2.5-2.3-3.6-.8-1.1-1.8-2.3-2.9-3.5-.7-.7-1.3-1.4-1.6-2.3-.2-.5-.6-1-1.2-1.3-.6-.3-1.2-.3-1.7-.1-.9.4-1.5 1-1.8 1.7-.2.5-.2 1.1.1 1.7.3.7.7 1.3 1.1 1.9.2.4.4.7.6 1v.8c0 .3.1.6.3.9l.3.4c1.3 1.8 2.5 3.5 3.3 5.7.4 1.2 1.1 2.2 1.8 3.2.3.5.7.9 1 1.4.4.7.9 1.5 1.4 2.5.3.6.6 1.1.9 1.7.4.8.8 1.6 1.3 2.4.2.3.4.6.6.8.2.2.4.4.5.7.2.3.3.7.5 1 .2.6.5 1.2.9 1.7s.9 1 1.4 1.5c.6.6 1.2 1.1 1.6 1.8.6.9 1.5 1.3 2.3 1.7.5.2.9.4 1.3.7 1.2 1 1.3 1.5 1.4 3.1.1 1.1.1 2.1 0 3.2 0 1.9-.1 3.9.5 5.9.4 1.6.3 3.3.2 5 0 .4 0 .9-.1 1.3-.1 2.5-.1 4.5 0 6.4 0 .8-.1 1.5-.2 2.4 0 .3-.1.6-.1.9l-.6.1v-.1c-.2-.5-.5-1.4-1.7-1.1-.1-.9-.6-1.4-1.1-1.9l-.6-.6c-1.5-2.3-3.3-4.3-5.5-6.3-.4-.3-.7-.7-1-1.1-.2-.3-.4-.6-.7-.9-.4-.5-.9-1-1.3-1.5-1.2-1.4-2.5-2.9-3.9-4.2-.9-.9-2-1.7-3-2.4-.6-.4-1.1-.8-1.6-1.2-.1-.1-.2-.2-.3-.4-.1-.2-.2-.3-.3-.4-.6-.7-1.3-1.5-2.2-2.2-1.1-.8-2.1-2-3-3.1l-.3-.4c-1.3-1.6-2.7-3.4-4.1-5.4-.1-.2-.2-.4-.2-.7 0-.3-.1-.6-.2-.8-.1-.4-.5-1-1-1.2-.9-.3-1.5-.9-1.8-1.8-.1-.3-.3-.6-.6-.9-1.1-1.1-1.7-2.5-2.4-3.9-.3-.6-.7-1.1-1.1-1.6l-.9-1.2c-.6-1.1-1.2-2.4-1.6-3.8-.1-.5 0-1.1 0-1.8 0-.3.1-.7.1-1 0-.6.1-1.2.1-1.7.1-1.4.2-2.8.2-4.1-.1-2.3-.6-4.7-1-6.8-.1-.7-.9-1.3-1.6-1.4-1.9-.4-2.5.5-2.6 1.1-.3 1.1-.5 2.2-.7 3.2-.1.8-.3 1.5-.4 2.3-.1.2-.3.5-.3.6-.1 0-.4-.1-.4-.2-.6-1-1.1-2-1.6-3-.3-.6-.7-1.3-1-1.9-.3-.6-.6-1.1-1-1.7-.5-.9-1.1-1.9-1.6-2.8-.4-.9-.7-1.8-1-2.7-.1-.4-.2-.7-.4-1.1l-.9-2.7c-.5-1.5-1-3-1.6-4.5-.4-1-.7-2-1.1-3-.5-1.4-1.1-2.9-1.6-4.3-.2-.5-.3-1.1-.4-1.8l-.3-1.5c-.2-.8-.5-1.5-.7-2.2l-.3-.9-.1-.3c-.1-.3-.2-.6-.3-.8-.1-.2-.2-.5-.3-.7-.3-.7-.5-1.4-1-1.9-.4-.4-.4-.9-.4-1.4 0-.5 0-1-.3-1.5-.3-.6-.4-1.2-.6-1.9l-.3-1.2c-.1-.3-.2-.6-.4-.9-.2-.5-.4-1-.4-1.3.2-1.1-.1-2-.4-2.9-.4-1.2-.9-2.5-1.4-3.7-.3-.7-.6-1.5-.9-2.2-.1-.3-.2-.7-.3-1.2 0-.2-.1-.4-.1-.5 0-.3-.1-.5-.1-.8-.1-.4-.2-.7-.3-1.1-.2-1.1-.5-2.1-.9-3.2-.2-.5-.3-1-.4-1.6-.2-1-.4-2-1.1-3-.3-.4-.3-1-.4-1.7 0-.4 0-.8-.1-1.2-.1-.3-.1-.5-.2-.8-.1-.2-.1-.3-.2-.5-.1-.5-.2-.9-.4-1.3-.3-1.2-.7-2.4-.9-3.7-.3-1.6-1-2.2-2.5-2.2-.8 0-1.4.2-1.8.6-.4.4-.6.9-.6 1.6 0 1 .1 2 .2 3v.2c.1 1.4.3 3.2.5 5.1 0 .4.2.7.4 1l.1.2c0 .1.1.2.2.3.3.5.3.6 0 .8-.3.3-.3.9-.1 1.3.3.6.4 1.4.5 2.2.1 1 .2 2.2 1 3.2.1.2.2.6.2 1 0 .3 0 .7.1 1 .1.4.2.9.3 1.3.3 1.2.5 2.5 1.2 3.7.6 1.1.8 2.3 1.1 3.7.1.7.3 1.3.4 2 .2.6.4 1.2.6 1.7.1.3.2.6.3.8.1.2.1.4.2.6l.3 1.5c.3 1.4.6 2.7.9 4.1.1.6.4 1.1.6 1.6.4.7.7 1.4.5 2.2-.1.3.1.6.3.7l.1.1c.1.3.2.5.3.8.3.7.6 1.3.7 2 .2.9.5 1.9.7 2.9.3 1.3.6 2.7 1 4.1.3 1.2.8 2.3 1.3 3.4.3.7.6 1.5.9 2.2v.5c-.3 0-.6-.1-.8-.2-.8-.5-1.6-1.1-2.4-1.6-.4-.2-.7-.5-1.1-.7-.1 0-.1-.1-.2-.1-.6-1.3-1.8-1.9-3-2.5-1-.5-1.9-1-2.4-1.9l-.1-.2h-.2c-.4-.1-.8-.3-1.3-.5-1-.5-2.2-1-3.6-.2-.7.4-1.3 1.3-1.4 2.3-.1.9.1 1.6.7 2.1l.2.1c.2.2.4.3.5.5.6 1.1 1.4 1.7 2.5 2 .5.2 1 .5 1.5.9.2.1.3.2.5.4l.4.3c.7.5 1.5 1.1 2.2 1.7.9.9 2 1.4 3.1 1.9.5.2.9.4 1.3.7.3.2.6.4 1 .7.3.3.7.5 1 .7.5.3 1.1.4 1.7.5.3.1.6.1.9.1.4 0 .7.1 1 .1.6.2 1 .5 1.2 1.1.2.6.5 1 .8 1.5l.6.9c.3.5.5 1.1.7 1.6.3.7.6 1.4 1 2.1.4.8.9 1.5 1.4 2.2.3.5.7 1 1 1.6.6 1.1 1.3 2.2 1.8 3.3.5.9.9 1.9 1.4 2.8.6 1.3 1.2 2.5 1.9 3.8.2.4.5.7.8 1l.5.5c.5.6.9 1.3 1.3 1.9 1.3 2.1 2.7 4.2 4 6.2.5.8 1 1.7 1.6 2.5 1 1.7 2.1 3.5 3.3 5.2.8 1.2 1.8 2.4 2.7 3.5.6.8 1.3 1.5 1.9 2.3.6.8 1.2 1.6 1.7 2.4.5.7.9 1.3 1.4 2 .2.3.5.5.8.7.1.1.3.2.4.3l.5.5.9.9c.5.4 1.1.8 1.6 1.2.3.2.6.4.9.7l.4.3c.4.3.7.6 1.1.9l.5.5c1 .9 2 1.9 2.9 2.9.7.8 1.5 1.7 2.1 2.5l1.5 1.8c.3.3.6.7.9 1l1 1c.5.6 1.1 1.3 1.7 2.2-.9-.4-1.9-.8-2.8-1.3-.7-.3-1.3-.7-2-1.1-.5-.3-1-.6-1.6-.9-.6-.3-1.2-.6-1.8-.5-.9.2-1.7-.2-2.5-.7-.6-.3-1.2-.7-1.9-.8-1.9-.4-4-.9-6.2-1.6-1.2-.4-2.4-.9-3.5-1.3-.4-.2-.9-.4-1.3-.5-1.9-.8-3.9-1.5-5.8-2.3-.3-.1-.5-.2-.7-.4-.4-.2-.9-.5-1.4-.6-1.1-.3-2.3-.5-3.4-.7-.4-.1-.8-.1-1.2-.2h-.3c-.8-1-1.9-1.5-3-2-1.5-.7-2.8-1.3-3.2-3-.1-.5-.5-.9-.9-1.3-.2-.2-.4-.4-.5-.6l-.4-.5c-.5-.8-1.1-1.6-1.5-2.4-.6-1.2-1.3-2.4-3-2.9-.6-.2-1.3-.2-1.8.1-.4.2-.7.6-.9 1.1-.4 1.6-.3 3.1.4 4.5.5.9.9 1.9 1.3 3 .1.2.2.5.3.7l-.3-.1c-.8-.2-1.4-.4-2.1-.5-.3-.1-.7-.1-1-.2-.5-.1-.9-.2-1.4-.3-.2-.1-.5-.3-.7-.5-1.5-2-3.4-3.5-5.7-4.8-.5-.3-.9-.7-1.4-1.1-.4-.3-.8-.7-1.2-1-.6-.4-1.1-.7-1.7-1-.5-.3-1.1-.6-1.6-.9-.4-.3-.8-.6-1.3-1-.3-.2-.5-.5-.8-.7-.4-.4-.9-.7-1.4-.9-.6-.3-1.3-.2-1.7.1-.5.3-.8.9-.8 1.5v.3c0 1 0 2.1.3 3 .3.9.9 1.8 1.7 2.3 1.7 1.2 3.5 2.4 5.2 3.6l3.6 2.4c.3.2.6.5.9.8l.6.6.2.2c.4.4.8.8 1.4 1 .6.3 1.2.8 1.8 1.3.8.7 1.6 1.4 2.8 1.8.1 0 .3.3.5.5s.3.4.5.6c.4.3.8.7 1.3.6 1.1-.2 1.9.2 2.8.9.2.2.6.4 1 .3 1.6-.5 3.2-.1 4.8.3.8.2 1.6.4 2.4.5 1 .1 2.1.3 3.1.4l2.2.3h.2c.7.8 1.6 1 2.4 1.2.3.1.5.1.8.2 1 .3 2 .6 2.8 1.1l2.4 1.2c.5.3 1 .5 1.5.8.5.3 1.1.5 1.7.7 2.2.7 4.3 1.3 6.5 1.9.4.1.7.2 1.1.2h1.1c1.2 1.1 2.6 1.4 3.9 1.6 1 .2 1.9.4 2.7.9 1.6.9 3.2 1.8 4.8 2.6.7.4 1.4.8 2.1 1.1.2.1.4.2.5.3.4.2.7.4 1 .6.5.4 1 .9 1.6 1.3.4.3.8.7 1.1 1 .2.1.3.3.5.4.1.1.2.1.3.2h-.1c-1.1.1-2.1.1-3-.5-.2-.1-.3-.1-.5-.1-.8-.1-1.5-.1-2.3-.2-1.8-.2-3.6-.4-5.5-.4-1.1 0-2.2.1-3.3.2-.7.1-1.4.2-2.1.2-.5 0-.9 0-1.5-.1-.2 0-.5-.1-.7-.1-.6-.1-1.3-.2-1.9-.2-1.5-.2-3.1-.4-4.7-.5-.6-.1-1.3.1-1.9.2-.2 0-.5.1-.7.1-.2 0-.3.1-.5.1-.1 0-.3.1-.4.1-1.5-.6-3-.6-4.4-.6-.9 0-1.7 0-2.5-.1-.7-.1-1.4-.1-2 0-.7 0-1.3.1-2 0-2.1-.3-4-.4-6-.3-.4 0-.9-.2-1.5-.4-.4-.2-.8-.3-1.2-.4-.7-.1-1.5-.2-2.2-.3-.9-.1-1.8-.2-2.6-.4-2.6-.6-5.2-1.3-7.2-1.8-.8-.2-1.1-.4-1-.9 0-.4.2-.5 1.1-.7.8-.1 1.6-.8 2-1.7.5-1 .5-2.1 0-2.9-1.1-1.9-2.6-2.8-4.7-2.9-.6 0-1.3-.3-1.9-.7-.2-.1-.4-.2-.5-.2-1.5-.6-2.7-1.2-3.9-1.9-.5-.3-1-.7-1.3-1.2-.8-1-1.8-1.3-2.7-1.5h-.2c-.4-.1-.8-.2-1.2-.2-1.3-.2-2.4-.4-3.4-1.4-1-1.1-2.3-2.1-3.5-3l-1.5-1.2c-.8-.6-.9-1.1-.5-2 .3-.6.1-1.3-.1-2-.1-.4-.2-.7-.2-1-.1-1.5-1.2-1.9-2.1-2.2h-.1c-.1 0-.1 0-.2-.1-.3-1.3-1.4-1.7-2.3-2l-.2-.1c-.2-.1-.5-.3-.7-.5l-.5-.4c-.7-.6-1.3-1.2-1.9-1.9-.7-.7-1.3-1.6-1.9-2.4l-.3-.3s0-.1-.1-.2c-.1-.2-.2-.6-.5-.7-1-.4-1.5-1.2-2.1-2-.8-1.2-1.7-2.3-2.5-3.4l-.1-.1c-.4-.6-.9-1.2-1.4-1.8-1.6-1.6-2.6-3-3.3-4.4-.6-1.3-1.3-2.6-2-3.8-.3-.6-.6-1.2-1-1.8l.3.1c.8.2 1.5.4 2.2.6l.7.2c1.3.3 2.6.7 3.9.9 1.8.4 3.6.7 5.4 1l1.4.2c.6.1 1.2.2 1.8.2 1.3.1 2.7.2 4 .3l1.9.1c.7 0 1.5.1 2.2.1 1.7.1 3.5.2 5.3.4 1.7.2 3.6.4 5.6.8 1.1.2 2.5-.3 3.6-1.4.9-.9 1.3-2 1.1-3-.2-1-.7-1.9-1.1-2.8-.1-.3-.3-.5-.4-.8-.3-.7-.6-1.3-1-1.9-.4-.8-.9-1.7-1.2-2.5-1.1-2.4-2.4-5.1-4.3-7.6-.7-.9-1.2-1.8-1.4-2.7v-.1c-.3-1.2-.5-2.3-1.4-3.3-.3-.4-.5-1-.7-1.6l-.3-.9-.2-.5c-.3-.8-.7-1.6-1-2.3-.3-.7-.7-1.3-1.1-2-.3-.5-.5-.9-.8-1.4-.5-.9-.9-1.8-1.4-2.7l-.8-1.6v-.1c-.1-1.1-.5-2-.9-2.9l-.6-1.5c-.5-1.6-1.1-3.2-1.7-4.8-.3-.7-.5-1.4-.8-2.1-.1-.2-.1-.4-.2-.5-.1-.3-.2-.5-.3-.8-.1-.3-.3-.6-.4-.9-.2-.4-.3-.8-.5-1.2-.3-.8-.5-1.5-.7-2.2-.3-1.1-.5-2.1-.8-3.4-.2-.7-.3-1.4-.4-2.1-.3-1.4-.6-2.9-1-4.3-.2-.8-.6-1.6-.9-2.4-.2-.6-.5-1.2-.7-1.8-.1-.4-.2-.9-.2-1.5v-.3h.1c.4.1.7.1 1 .2 2.6 1.7 5.5 1.9 8 2 .7 0 1.2-.1 1.6-.5.4-.3.6-.8.6-1.4 0-.3.1-.7.3-1 .1-.3.2-.7.3-1.1.1-.4 0-.9-.1-1.3 0-.2-.1-.4-.1-.6l-.1-.5c-.1-.4-.2-.8-.3-1.3-.1-.3-.1-.6-.1-.9-.1-.5-.1-.9-.2-1.4-.2-.7-.3-1.5-.5-2.2-.2-.9-.5-1.8-.6-2.7-.1-.5-.1-1-.2-1.5 0-.5-.1-1-.2-1.5-.2-1-.4-2-.6-2.9-.2-.9-.4-1.8-.5-2.7-.3-1.5-.5-3.1-.7-4.5 0-.2 0-.4.1-.4 1.2-1.6.6-3.1.1-4.5l-.2-.5c-.1-.2-.1-.4-.1-.6 0-1.4.1-2.8.2-4.3v-.8c.9.6 1.6 1.2 2.3 1.8 2.1 1.7 4.1 1.7 6 .1.2-.1.5-.5.7-1 .7-3 .7-5.9-.1-8.5-.4-1.3-.2-2.3 0-3.6l.1-.3c.1-.5 0-1-.2-1.5-.1-.2-.1-.5-.2-.7-.1-.6-.1-1.3-.2-1.9-.1-.8-.1-1.5-.2-2.3 0-.3-.2-.5-.3-.6l.1-.3c.1-.4.2-.7.2-1v-.6-.2c.3-1.6.1-3.2-.1-4.8-.2-1.1-.3-2.1-.3-3.1 0-.9.1-1.8.2-2.6 0-.4.1-.7.1-1.1v-.2c.1-.3.1-.6 0-.9-.2-.2-.2-.6-.2-1 0-.6 0-1.4-.8-2 0-.2.1-.4.1-.5v-.2c.1 0 .2 0 .3-.1.4-.1.4-.1.5.2.8 1.9 1.7 3.8 2.6 5.6.2.5.6.8.9 1.2.3.3.6.6.7.9.3.5.6 1.1.8 1.7.2.4.3.8.5 1.1.1.3.2.5.4.8.4.9.9 1.9 1.5 2.8.3.4.8.6 1.3.8l.6.3c.3.2.5.3.6.4-.2 1.6 1 2.5 1.8 3.2l.2.2c1.3 1 2 2.3 2.9 3.7l.9 1.5c1 1.5 2.5 2.5 4.5 3 .7.1 1.5-.3 2-.7l.1-.1.6-.6c.1 0 .4.3.7.6.2.2.5.3.7.5.1.1.2.1.3.2.4.3.6.5.5 1.1 0 .8.3 1.6.6 2.3.1.2.2.4.2.6.3.8.7 1.6 1.1 2.5l.7 1.5h.3c.3 0 .6.5.6 1.4 0 .4.1.6.3.8l.6.9c.6.9 1.2 1.7 2 2.5s1.9 1.3 2.6 1.6c2 .8 3.1-.5 4-1.5.2-.2.4-.5.7-.7.2-.2.7-.6.8-.7.2.1.6.4.9 1 .7 1.3 1.4 2.7 2.1 4.3.5 1 .9 2.1 1.3 3.2l.3.8c.1.3.3.7.4 1 .2.5.3.9.5 1.4l.6 1.2c.3.5.5 1.1.7 1.6.2.6.4 1.2.6 1.9.1.4.2.8.4 1.2l.6 1.7 1.8 5.4c1 2.7 2.1 5.5 3.1 8.1.2.4.4.7.6 1.1.1.2.3.5.4.7l.1.3c.3.5.5 1 .6 1.6.4 1.7 1.2 3.1 1.9 4.5.2.3.3.6.5.9.1.2.2.5.2.7.1.2.1.5.2.7.2.5.4.9.6 1.4.1.3.3.6.4.9.3.6.5 1.3.8 1.9.6 1.4 1.2 2.9 1.9 4.3.5 1.2 1.2 2.2 2 3 1.2 1.3 2.6 1 3.8.7.2 0 .5-.1.7-.1.4-.1.9-.2 1.4-.4.7-.3 1.6-.8 1.5-2.1 0-.2 0-.4.2-.7.9-2 .4-3.8-.2-5.7-.2-.6-.3-1.2-.4-1.8-.1-.3-.1-.6-.2-.9-.1-.5-.2-.9-.3-1.4-.2-1-.4-2.1-.6-3.2-.1-.7-.2-1.4-.2-2.2 0-.7-.1-1.3-.2-2-.2-1.5-.4-3.1-.7-4.6-.1-.7-.2-1.5-.3-2.2-.1-.6-.2-1.1-.3-1.7-.2-1.4-.4-2.8-.6-4.3 0-.2 0-.4-.1-.6-.1-1.2-.2-2.5-1-3.7-.2-.3-.2-1-.2-1.6v-1.1c-.1-.8-.2-1.7-.3-2.5l-.3-2.1c-.1-.7-.1-1.3-.2-2s-.1-1.3-.2-2.1c0-.3-.1-.7-.4-1-.7-.8-.7-1.7-.7-2.8v-.8c0-.4-.2-.8-.4-1.2-.1-.1-.1-.2-.2-.3-.1-.1-.1-.2-.2-.3 0-.9-.3-1.7-.6-2.4-.2-.4-.3-.8-.4-1.2-.5-2.1-1-4.2-1.6-6.3-.2-.9-.5-1.8-.8-2.8-.3-.7-.5-1.4-.8-2.1-.4-1-.8-1.9-1.1-2.9-.2-.7-.4-1.4-.5-2.1-.1-.4-.1-.7-.2-1.1 0-.2-.1-.4-.1-.6-.2-1-.4-2.1-1.4-2.9 0-.1-.1-.2-.1-.3.8-.7.4-1.5.1-1.9-.1-.1-.1-.2-.2-.4l-.2-.7c-.3-.7-.5-1.5-.7-2.1 0-.1.2-.3.2-.4 1.5-.2 2.3-1.1 3-2 1.5-2 1.7-4 .7-6.1v-.4-.4-.2c0-.2 0-.4-.1-.7-.1-.3-.2-.7-.4-1-.4-1-.8-1.9-.4-2.9.1-.4 0-.8-.2-1.1 0-.1-.1-.2-.1-.3-.1-.4-.2-.7-.4-1.1-.3-.7-.5-1.4-.4-2 .2-1-.2-1.9-.5-2.8-.4-1-.7-1.9-.2-2.9.2-.4.1-1.2-.2-1.5-.4-.4-.3-.8-.1-1.4 0-.2.1-.3.1-.5.2-.7.1-1.4.1-2v-1c0-.6.1-1.2.1-1.7v-.2c.1-.1.2-.4.1-.6-.3-1-.2-2 0-3 .1-.9.3-1.8.1-2.8 0-.1.2-.4.3-.6.2.1.5.3.6.4l.3.2c.7.7 1.5 1.4 2.1 2.1.6.7 1.2 1.6 1.7 2.3.3.4.6.9.9 1.3.3.4.6.6.9.6.5.1 1.1.2 1.6.4.6.2 1.1.4 1.7.4 1.2.1 2.1.6 3 1.2.5.3 1.1.6 1.7.9l.6.3c1.6.7 3.5 1.4 5.4.7 1.6-.6 3-1.6 4.3-2.7 1.2-.9 1.9-2 2.2-3.3.1-.4.4-.9.7-1.3.4-.5.8-1.1.9-1.8.1-.5.2-.9.4-1.4.4-1 .8-2.2.4-3.5-.1-.4.1-1 .2-1.5.1-.3.2-.6.3-1 0-.1.1-.3.1-.4.1-.5.3-1 0-1.4-.5-.8-.3-1.5-.1-2.3.1-.3.2-.7.2-1 .1-.5.1-.9.1-1.4 0-.4.1-.8.1-1.2.1-1 .3-1.9.5-2.9l.3-1.8V96.8c0-.2.1-.3.1-.4 0 0 .2-.1.5 0l.6.3.2.2c3 2 7.8 2 10.5.1.1-.1.2-.2.3-.4l.3-.3c.3-.3.5-.6.8-.8.6-.6 1.3-1.3 1.8-2l.1-.2c1.7-2.1 3.4-4.3 4.9-6.6l.3-.5c.7-1 1.4-2 1.6-3.4.1-.7.8-1.4 1.5-2l.4-.4c.4-.4.8-.8.4-1.7 0-.1 0-.4.1-.5 1.3-1 1.8-2.4 2.3-3.7.2-.5.4-.9.7-1.4.2-.4.4-.9.6-1.3.1-.4.2-.7.2-1.1 0-.2.1-.4.1-.6.1-.3.2-.6.4-.8.1-.2.3-.3.6-.5.1-.1.3-.2.5-.3.2.2.4.5.4.7v1.2c0 .5-.1 1.1 0 1.6.1.4.1.9.1 1.4 0 1.2 0 2.4.8 3.5.1.1.1.4.1.6v.2c.2 3.9 1.4 6.7 3.6 8.7 1 .9 2.4 1.4 3.7 1.8.5.2.9.3 1.4.5.4.2.9.3 1.3.4.5.1.9.2 1.3.4.9.4 1.2 1.4.8 2.9-.5 1.8-1 3.7-1.4 5.5l-.4 1.8c0 .1-.1.5.1.8.7 1.2.6 2.5.5 3.8 0 .6-.1 1.3 0 1.9.1 1.8.2 3.7.2 5.6 0 2.7.2 5.5 1.8 8 .8 1.2 1.7 2.3 2.7 3.3l.9.9c.8.8 1.4 1.5 2.1 2 .4.3 1.6.8 2.1.3.3-.2.3-.2.7 0l.1.1c2.2 1.3 4.3 1.4 6.6.6 1.3-.5 2.6-.8 4-1.1.4-.1.7-.2 1.1-.2.4-.1.7-.2 1.1-.2 1.3-.3 2.6-.6 3.9-.6.4 0 .7 0 1.1-.1 1.2-.1 2.4-.2 3.5.4.8.4 1.7.4 2.6.5h.7l-.3 1.9c-.2 1-.4 2.1-.6 3.1-.1.4-.2.7-.3 1.1-.1.2-.2.5-.2.7-.3.9-.5 1.8-.8 2.8-.5 1.8-1 3.6-1.6 5.4-1.3 4.1-2.6 8.1-3.9 11.9-.3.8-.6 1.6-1 2.3-.3.6-.6 1.3-.8 1.9-.4 1-.7 2.1-1.1 3.1l-.6 1.8-.1.2c-.8 2.4-1.6 4.7-2.5 7-.1.1-.2.3-.4.4-.1.1-.2.1-.2.2l-.2.2v.2c0 .1.1.2.1.4v.1c-1.6 3-2.7 6.1-3.8 9.3-.4 1.2-.7 2.4-1.1 3.6-.4 1.4-.8 2.8-1.3 4.2-.4 1.2-1 2.4-1.6 3.6-.5 1-.9 2-1.3 3-1 2.4-1.9 4.9-2.7 7.3l-1.4 3.9c-.6 1.6-1.2 3.2-1.7 4.8-.2.6-.3 1.2-.4 1.8-.1.4-.1.7-.2 1-.1.7-.3 1.3-.5 2-.5 1.8-1 3.7-.9 5.7 0 .2-.1.6-.3.9-.1.3-.3.5-.3.8v.1c-.3.9-.6 1.8-.1 2.9.3.8.4 1.8.4 2.9-.1 4 1.8 6.2 5.8 6.6h.3c2.1.2 4.3.4 6.5.5 1 0 2-.4 2.9-.8.6-.3 1.2-.6 1.7-1 .2-.2.5-.3.8-.5.1-.1.4-.2.5-.5.2-1.1 1.1-1.4 2-1.9.6-.3 1.2-.6 1.8-1.1 1.4-1.4 3.1-2.6 4.7-3.8 1.1-.8 2.2-1.6 3.2-2.5 1.9-1.5 3.7-3.2 5.5-4.8l2.7-2.4c2-1.8 4-3.5 6.1-5.3.2-.2.5-.2.6-.2.3 0 .6.2.8.5 1.5 2.2 5 3.6 7.7 2.2.4-.2 1-.3 1.5-.4.6-.1 1.2-.2 1.7-.5.8-.4 1.4-.9 2.1-1.4.2-.2.5-.4.7-.5.3-.2.7-.5 1-.7 1-.7 2-1.5 3-2.3.6-.5 1-1 1.5-1.6.3-.4.7-.8 1-1.1 1.1-1.1 2.2-2.2 3.4-3.2l1.1-1c.4-.4.8-.7 1.1-1.1.8-.8 1.7-1.6 2.5-2.4.3-.3.3-.3.7.1 1.9 1.7 4.3 2.2 7.6 1.7 1.8-.3 3.6-.8 5.4-1.4.6-.2 1.3-.4 1.9-.6 1.8-.5 3.8-1.1 5.8-1.8.4-.1.7-.4 1-.6.2-.2.4-.3.5-.4.7-.4 1.5-.7 2.2-1.1l2.4-1.2c1.2-.7 2.5-1.4 3.7-2.1l.3-.2c.4-.3.8-.5 1.3-.9h.1c0 .6.1 1.1.1 1.6v.8c0 .7.1 1.3 0 1.9 0 .4-.1.8-.3 1.2-.1.3-.2.7-.2 1-.2 1-.3 2-.5 3.1-.3 1.9-.6 3.8-1 5.7-.1.5-.4.9-.7 1.4-.2.4-.5.8-.6 1.2-.4 1.1-.8 2.4-1.2 3.9-.1.5-.1.9-.1 1.4v.3l-.8.7 5 1.7 2-1c.5.6.3 1-.1 1.9-.1.2-.1.3-.2.5-.3.8-.7 1.6-1 2.4-.6 1.3-1.3 2.7-1.6 4.2-.9.9-1.7 2.5-2.7 3.4zM216.6 344.6zM116.4 104.2c-1.6-1.1-3.8-.8-4.9.8-9.9 13.6-16.5 29.7-18.9 46.4-.3 1.9 1 3.7 2.9 4h.5c1.7 0 3.2-1.2 3.5-3 2.3-15.6 8.4-30.5 17.7-43.3 1.1-1.6.8-3.8-.8-4.9zM88.8 119.7c-1.8-.8-3.8 0-4.6 1.8-9.5 21.8-12.6 46.8-8.7 70.2.3 1.7 1.8 2.9 3.4 2.9h.6c1.9-.3 3.2-2.1 2.9-4-3.7-22.1-.8-45.7 8.2-66.3.7-1.7-.1-3.8-1.8-4.6zM395.4 267.5c.6.3 1.2.5 1.8.5 1.2 0 2.4-.6 3-1.7 8.1-13.8 12.7-29.6 13.2-45.6.1-1.9-1.5-3.5-3.4-3.6-1.9-.1-3.5 1.5-3.6 3.4-.5 14.9-4.7 29.5-12.2 42.3-1.1 1.6-.5 3.7 1.2 4.7zM423.7 244.9c-1.8-.5-3.8.5-4.3 2.4-4.3 14.6-13 28.1-24.6 38-1.5 1.3-1.6 3.5-.4 4.9.7.8 1.7 1.2 2.7 1.2.8 0 1.6-.3 2.3-.9 12.5-10.8 22-25.5 26.7-41.4.5-1.7-.6-3.6-2.4-4.2z"/></symbol><symbol id="o2" viewBox="0 0 500 500"><path d="M284.6 411.3c-1.4-.2-2.4-.9-3.3-1.9-.5-.6-1.1-1.1-1.7-1.8-.4.2-.7.4-1 .6-1.1.7-2.2 1.4-3.4 1.9-.8.4-1.6.6-2.4.7-1.4.2-2.5-.6-2.7-1.9-.2-.9-.2-1.9-.2-2.9-.1-1.9-.1-3.9-.2-5.8 0-.2-.1-.3-.1-.6-.3.2-.6.4-.8.6-2.4 2.2-4.9 4.3-7.3 6.5-.9.8-1.8 1.7-2.7 2.5-2.2 1.9-3.1 2-5.5.5-.9-.5-1.7-1.1-2.6-1.7-.5.3-1.1.6-1.6.9-2.5 1.2-4.3 1-6.3-.9-2.6-2.4-5.6-4-8.9-5-.2-.1-.5-.1-.8-.2-.1.3-.2.6-.2.9-.4 2.2-.3 4.4.1 6.7.4 2.4.8 4.7 1.3 7.1 0 .2 0 .3.1.7-1.3-.1-2.5-.2-3.8-.3-.2-.6-.4-1.1-.5-1.6l-1.8-8.4c-.6-3.5-1.2-6.9-1.7-10.4-.1-.7-.3-1.5-.3-2.2-.1-2.2 1.8-3.5 3.8-2.5 1.3.7 2.5 1.5 3.8 2.2 2.2 1.2 4.4 2.3 6.6 3.5.2.1.5.2.8.3 0-.3.1-.5.1-.7.3-9.8 1.3-19.5 2.2-29.2.9-9.1 1-18.3 1-27.5 0-5.5-.3-11-.5-16.6-.2-6.7-.3-13.5.6-20.2.2-1.8.7-3.6 1-5.3.2-.9.2-1.9.4-2.9-2.9-.4-5.6-.9-8.4-1.1-2.7-.3-5.1-1-7.4-2.4-2-1.2-3.8-2.6-5.4-4.3-.6-.6-1.2-1.1-1.9-1.5-1.4-.9-2.9-1.1-4.5-.7-2.7.8-5.4.6-8.1-.3-1.6-.5-11.1-4.9-12.5-5.9-4.6-2.9-7.5-7-9-12.2-.9-3-1.2-6.1-1.7-9.2-.3-2.3-.6-4.6-.9-7-.1-.6-.3-.8-.8-1.1-2.3-1-4.5-2.1-6.7-3.2-1-.5-2-1.2-3-1.9-1.4-1-2.2-2.4-2.3-4.1-.3-4-.7-7.9-1-11.9 0-.6-.2-1.2-.6-1.7-1.8-2.3-3-5-3.9-7.7-.9-2.6-1.8-5.3-2.7-8-.3-.8-.5-1.7-.8-2.5-.5-1.7-.9-3.5-1.5-5.2-1.6-4.5-1.7-9-.9-13.6.9-5.2 2.6-10.2 5.2-14.8 1.8-3.2 3.7-6.4 5.6-9.5 1.1-1.8 2.5-3.5 4.2-4.8 3.4-2.8 7-5.1 11.1-6.5 2.6-.9 5.3-1.1 8.1-.8 3.7.4 7.5.7 11.2 1.1h.6c.1-.4.1-.9.2-1.3.2-2 .3-4 .6-5.9.4-3.1 1.2-6 2.9-8.6 2.7-4.1 6.4-6.6 11.3-7.5 1.4-.3 2.8-.1 4.1.2 2.5.5 5 1 7.5 1.6.2 0 .5.1.8.1l.3-.6c1.5-5 4.4-9.4 7-14 3.1-5.6 7.8-9.5 13.4-12.4 3.4-1.7 6.8-3.1 10.6-3.7 5.8-1 11.3-.2 16.6 2.3 2.8 1.3 5.4 2.9 7.9 4.7 2.7 1.9 4.8 4.3 6.5 7.1 2.5 4.1 4.7 8.3 5.7 13.1.3 1.2.4 2.5.6 3.8.2 1.9.7 2.5 2.6 3.1l.9.3c4.7 1.1 8.3 3.7 11.1 7.5.6.8 1.2 1.7 1.7 2.6.8 1.3 1.9 2 3.4 2.2 3.4.4 6.4 1.7 9.2 3.6 2.4 1.5 4.5 3.3 6.5 5.3 1.7 1.6 2.8 3.6 3.4 5.8 1.5 5.5 1.5 11.1 0 16.6-.4 1.7-1.2 3.3-2 4.8-.5.9-.9 1.8-1.3 2.8.2.2.3.3.5.4 3.7 2.4 7.4 4.8 11.4 6.9 4.4 2.2 7.7 5.6 9.7 10.2 1.3 3 1.9 6.1 2.1 9.4.4 7.2-.4 14.1-2.7 21-1.4 4.1-3.5 7.6-6.8 10.5-1.3 1.2-2.5 2.5-3.9 3.6-1.6 1.2-2.9 2.6-4.4 3.8-2.3 1.9-4.9 3.2-7.7 4.1-2.8.8-5.6 1.2-8.5 1.5-.6.1-1.1.2-1.7.3-.1 1.1-.1 2.1-.2 3.1-.4 3.9-1.2 7.6-3.2 11-3.1 5.5-7.8 9.2-14 10.9-3.5 1-7.1.8-10.6-.1-2.1-.6-4.1-1.3-6.3-2 .1 0 0 0 0 0-1.7 1.8-3.5 3.6-5.1 5.4-1 1.1-1.9 2.4-2.7 3.7-2.5 4-4.9 8.1-7.4 12.1-3 4.9-5.9 9.9-8.6 14.9-.9 1.7-1.4 3.5-1.4 5.5-.3 17-.6 33.9-1 50.9-.1 4.3-.6 8.5-.9 12.8-.1 1.8-.1 3.6-.2 5.5 1.1-.2 1.8-.8 2.4-1.5 1.1-1.2 2.2-2.4 3.4-3.5.4-.4.9-.9 1.3-1.2.9-.7 1.9-.9 2.9-.4 1.1.5 2.1 1.3 2.1 2.7 0 .7-.1 1.4-.4 2-1.1 2.8-1.2 5.8-1.4 8.8 0 .1 0 .2.1.4.3-.1.6-.2.9-.4 1.1-.5 2.2-1.1 3.3-1.6.5-.2 1.1-.4 1.7-.5 1.3-.2 2.5.3 3.2 1.4.4.6.7 1.2.9 1.9.5 1.7.9 3.4 1.5 5 .5 1.4.3 2.6-.7 3.6-1.2-.2-1.9 0-2.6.1zm3.5-132.6c-.1-.3-.2-.6-.3-.8-.9-2.2-1.8-4.5-2.8-6.7-.7-1.7-.2-3 1.5-3.8 1-.5 1.8-.4 2.5.4.5.5.9 1.1 1.2 1.7.5.9.9 1.8 1.4 2.6.6 1.1 1.4 1.8 2.7 2 .6.1.9.4 1.2.8 1.4 2.4 3.7 3.6 6.4 3.9 2.1.3 4.2.2 6.4 0 .6-.1 1.2-.3 1.8-.5 2-.7 3.6-1.9 5.1-3.4 1.6-1.5 3.1-3.1 4.6-4.8.3-.3.4-.8.4-1.2.1-1.2.1-2.3.1-3.5 0-2.4.1-4.7-.4-7.1-.2-.8-.2-1.6-.2-2.3.1-2.1 1.5-3.3 3.6-3.2.5 0 1.1.1 1.6.2 3.7.5 7.4.3 11-1 2.9-1.1 5.6-2.6 8.1-4.3.6-.4 1.1-1 1.6-1.5 1.5-1.6 2.9-3.3 4.4-4.9.4-.5.9-1 1.3-1.5 3-3.6 4.8-7.8 5-12.5.1-1.5.4-3 .7-4.5.5-2.5.5-4.9 0-7.4-.5-2.2-1.3-4.2-2.1-6.2-1.4-3.5-3.9-5.8-7.2-7.5-1.7-.8-3.3-1.8-4.9-2.8-3.1-1.9-6.1-3.9-9.6-4.9-1.1-.3-1.6-1.1-1.5-2.3.1-.7.2-1.4.5-2 1.2-2.7 2.5-5.3 3.8-8 2.4-4.8 2.5-9.7.4-14.6-1-2.4-2.8-4.3-4.8-5.9-1.9-1.6-4.1-2.8-6.5-3.7-2.4-.9-4.7-.7-6.9.7-.2.1-.4.3-.6.4-1.3.6-2.4.3-3.2-1-.5-.8-.5-1.7-.4-2.6.1-.8.3-1.7.4-2.5.2-1.3-.1-2.4-1.2-3.2-1.7-1.3-3.4-2.6-5.1-3.8-1.8-1.2-3.3-1.1-4.5.9-.7 1.2-2 1.5-3.5 1-1.3-.4-1.7-1.1-1.7-2.7 0-1.5.1-3 .1-4.5 0-6.6-1.6-12.7-5.2-18.3-3.2-5-7.4-8.7-13.1-10.5-.7-.2-1.3-.5-2-.7-3.8-1.6-7.7-1.6-11.6-1-2.5.4-5 1.2-7.3 2.2-3.7 1.6-7.1 3.7-9.7 6.8-1.9 2.2-3.6 4.5-5.3 6.9-2.9 4.2-4.1 8.8-3.1 13.9.1.6.1 1.3 0 1.9-.3 1.9-2.3 2.9-4 2-.6-.3-1.1-.7-1.6-1.1-2.2-2-4.8-3-7.8-3.2-.8-.1-1.5-.2-2.3-.4-1.6-.5-3.2-.5-4.6.3-4.5 2.3-7.2 5.9-7.5 11.1-.1 1.1 0 2.3.1 3.4.1 2.2.3 4.4.5 6.7.1 1.2-.3 2.2-1.1 3.1-1.1 1.2-2.6 1.4-3.8.2-1.2-1.2-2.7-1.7-4.4-1.9-3.4-.3-6.8-.6-10.1-1.1-2.2-.3-4.2 0-6.2.9-.3.1-.6.3-.9.4-3.9 1.8-7.5 4.1-10.2 7.5-4 5.1-7.2 10.8-9.4 17-1.8 5.1-2.1 10.3-.8 15.6.9 3.6 1.9 7.3 3.3 10.8 1.1 2.8 2.4 5.5 3.9 8.1.7 1.2 1.6 2.2 2.9 2.9.6.3 1.1.7 1.7 1.1 1.3 1.1 1.6 2 .9 3.5-.4.8-.8 1.6-1.3 2.3-.9 1.4-1.2 2.9-1.1 4.6.1 1.8.7 3.4 1.3 5 .2.5.7.9 1.2 1.1 2.8 1.1 5.6 2.3 8.7 2.9.7.1 1.4.4 2 .6.9.4 1.5 1.1 1.5 2.1.1.6.1 1.2 0 1.8-.1 1.1-.2 2.1-.4 3.2-.6 3.8-.3 7.5.9 11.1 1.9 5.9 5.5 10.3 11.2 12.9 3.2 1.5 6.7 2.4 10.1 3.3.4.1.8 0 1.1-.4 0-.5-.1-1-.1-1.5-.1-.9-.2-1.8-.2-2.8 0-1.2.2-2.3 1-3.3 1-1.3 2.3-1.4 3.5-.2.9.8 1.2 1.9 1.3 3.1.2 2 1.1 3.6 2.5 4.9.9.8 1.8 1.5 2.7 2.2.9.8 1.9 1.5 2.8 2.3 2 1.9 4.2 3.3 6.9 4.1 2.3.7 4.7.9 7 .9 3.1-.1 5.6-1.5 7.2-4.2.4-.8.7-1.6 1.1-2.4.2-.4.3-.8.5-1.2 1-1.9 3.3-2.2 4.8-.7.3.3.6.7.9 1.1 1.3 1.7 2.9 2.9 4.9 3.6 2.5.9 5.1 1.2 7.7.9 1.1-.1 2.2-.3 3.3-.6 2.9-.7 5.7-1.4 8.5-2.3 2.7-.4 4.9-2.1 6.8-4zM256 402.5c.7-.5 1.3-.9 1.8-1.4.4-.3.7-.6 1-.9.5-.6.9-1.3.9-2.1.1-.8.1-1.6.2-2.4.5-7.6.9-15.1 1.7-22.7.2-1.4.1-2.9 0-4.3-.1-3.2-.3-6.4-.3-9.6 0-5.1.2-10.2.3-15.3.2-6.9.5-13.8.8-20.7.1-1.6.3-3.2 1.1-4.6 2.3-4.4 4.5-8.8 7.2-12.9 1.7-2.6 3.2-5.3 4.7-8 1-1.9 1.8-3.8 2.7-5.8-.3-.1-.5-.1-.7-.1-1.9 0-3.3.9-4 2.7-1.1 2.5-2.2 5-3.4 7.4-.9 2-2.6 3-4.7 3.2-1.3.2-2.3-.4-2.9-1.6-.5-.9-.6-1.9-.6-2.9-.1-2.4-.1-4.7-.1-7.1 0-.7-.3-1-.8-1.3-1.1-.5-2.1-1-3.1-1.6-1.1-.6-2.3-1.1-3.4-1.7-1 1.1-2 2.1-2.9 3.2-.8 1-1.3 2.1-1.5 3.4l-.6 5.1c-.8 7.4-.5 14.8.1 22.2.7 8.8.8 17.5.3 26.3-.6 10.7-1.6 21.3-2.6 32-.5 5.4-.9 10.7-.1 16.1.1.5.1 1 .2 1.6.7-.6 1.2-1 1.7-1.4.5-.4 1-.8 1.5-1.1 1.1-.7 2.1-.5 2.9.6.4.5.7 1.2 1 1.8.5 1.1 1 2.5 1.6 3.9zM63.8 214.3c-.1-.9-.1-1.8-.2-2.6-.4-2.8-.9-5.6-1.4-8.4-.4-2.8-.3-5.7.1-8.5.2-1.8.6-3.6.9-5.3.4-2.6 1.7-4.7 3.8-6.3 1.4-1 2.9-1.9 4.4-2.8.8-.5 1.8-.9 2.6-1.4 1-.6 2-.6 3 .1.7.5 1.3.9 2 1.4.7.6 1.3 1.3 1.5 2.3.4 1.7-.8 3.2-2.5 3.1-.5 0-.9-.1-1.4 0-2.6 0-4.4 1.2-5.2 3.7-.4 1-.8 2-1.3 2.9-1.4 2.5-1.8 5.2-1.6 7.9.2 2.6.6 5.3.8 7.9.2 2.5.7 4.8 1.4 7.2.2.6.4 1.3.7 1.9 1.5 2.7 4.7 3.5 7.5 1.9.7-.4 1.3-.9 1.9-1.4 1.2-.9 2.5-1 3.8-.8 1.1.2 1.6.9 1.3 2-.2.7-.4 1.4-.8 2-2.5 4-6.2 5.9-10.9 5.8-2.8-.1-4.9-1.6-6.3-4-1.1-1.9-2-4-3-6-.2-.3-.4-.6-.7-.9-.1-.7-.3-1.2-.4-1.7zM360.4 141.2c-3.3 1-6.7 1.2-10 0-1.6-.6-2.7-1.7-3.5-3.2-3.1-6.1-4.4-12.6-4.6-19.4-.1-2.8.5-5.5.9-8.2.3-1.7.7-3.3 1.1-5 .6-2.5 1.8-4.6 3.3-6.6.7-.9 1.4-1.9 2-3 .9-1.6 2.1-3 3.4-4.3 1.3-1.2 2.8-1.9 4.6-1.9 1.3 0 2.5-.5 3.7-.9.9-.3 1.8-.7 2.7-.8 2.7-.4 5 .5 6.7 2.6 1 1.2 1.8 2.6 2.5 4 1.6 2.8 1.9 5.9 2.3 9 .5 3.8.4 7.6-.4 11.4-.8 4-1.6 8-2.5 12-.2 1.1-.6 2.2-1.2 3-1.7 2.5-3.5 5-5.3 7.4-1.5 2-3.5 3.2-5.7 3.9zm-10.9-12.3c.5 1.3 1.1 2.5 1.6 3.8.7 1.6 2 2.5 3.8 2.5 2.1 0 4.1-.5 6.1-1.4 1.2-.6 2.4-1.2 3.2-2.3.9-1.2 1.7-2.5 2.5-3.8.8-1.3 1.2-2.7 1.5-4.2.3-1.8.7-3.6 1-5.4l1.2-8.1c.2-2 .2-4-.1-6-.4-2.7-1.2-5.1-3-7.2-1-1.2-2.2-1.7-3.7-1.6-1.9.2-3.7.5-5.6.8-1.1.2-2.1.6-2.7 1.5-1.4 1.8-2.8 3.6-4.1 5.5-1.5 2.3-2.5 4.8-2.7 7.6-.1 2.2-.3 4.5-.4 6.7-.3 3.9.2 7.8 1.4 11.6zM88.8 209.4c-.7-3.9-1.2-7.8-1.6-11.7 0-.5 0-1.1.1-1.6.6-3.8 1.3-7.6 1.7-11.3.2-1.9 1.1-3.3 2.5-4.5 1.8-1.5 3.8-2.5 5.9-3.2.9-.3 1.7-.2 2.4.2 1.2.8 2.3 1.5 3.4 2.4.9.7 1.7 1.6 2.6 2.4.7.6 1.2 1.4 1.6 2.3 1 2.4 2.3 4.8 3.1 7.4 1.6 5 2.4 10.1.7 15.4-.2.7-.3 1.4-.3 2.1 0 1.8-.3 3.5-1.2 5.1-1 1.8-2 3.6-3.1 5.3-.2.4-.7.7-1.1.9-1.7.8-3.4 1.5-5.2 2.2-.9.4-1.9.4-2.8.1-3.1-.9-5.5-2.9-6.5-6-.7-2.5-1.4-5-2.2-7.5zm7.1-26.9c-.7 1.9-1.5 3.5-2 5.3-.5 2-.8 4.1-1.1 6.2-.3 2.2-.4 4.4 0 6.6.2 1.4.6 2.9.9 4.3.8 3 1.5 6 2.3 9.1.4 1.5 1.5 2.3 3 2.5 2.7.3 5.1-1.4 5.7-4 .3-1 .6-2 1-3 1-2.6 1.5-5.2 1.3-8-.1-3.6-1.2-7-2.6-10.4-.9-2.3-2.3-4.2-4.4-5.6-.5-.3-.9-.8-1.4-1.1-.7-.8-1.6-1.3-2.7-1.9zM394 104.9l3.6-.6c1.3-.2 2.7-.5 4-.7.5-.1 1.1-.1 1.6 0 2.1.5 2.9 1.4 3.1 3.6.1.7 0 1.4-.1 2.2-.8.3-1.6.7-2.4.8l-15 1.8c-1.7.2-3.3 0-4.9-.6-2.5-.9-3.3-3.2-1.6-5.3.6-.8 1.3-1.4 2-2 1.3-1.1 2.7-2.2 4-3.4 1.5-1.4 2.7-2.9 3.5-4.8.4-.9.7-1.9 1.1-3.1-.4.1-.7.1-.9.1-.7.3-1.4.6-2.2.8-.5.2-1.1.3-1.6.4-.6.1-1.2-.1-1.7-.6-1.5-1.4-1.4-4.5.6-5.4 2-1 4.1-1.8 6.4-1.9.8 0 1.6.1 2.4.2 3.1.5 4.1 3.3 3.8 5.4-.3 2-.9 3.9-1.9 5.6-1.2 2-2.4 4-3.5 5.9-.5.7-.8 1-.3 1.6zM408.7 151.6c-.6-.5-1-.8-1.3-1-2.5-1.8-5.2-3.2-8.1-4.3-.5-.2-1-.4-1.5-.7-1.1-.7-1.6-2-1.2-3.2.4-1.2 1.6-2 2.9-1.9.4 0 .8.2 1.2.3 7 2.6 13 6.7 17.9 12.3 1.4 1.6 1.4 3-.1 4.5-3.5 3.7-6.1 7.9-7.7 12.7v.1c-.4 1.6-2.1 2.7-3.7 2.1-1.6-.6-2.2-2.1-1.6-4 1.2-3.5 2.8-6.8 4.9-9.8.3-.4.5-.8.9-1.4-1.5 0-2.8 0-4 .1-15 1-28.7 5.6-41.1 14-.4.3-.8.6-1.3.8-1.3.7-2.9.3-3.7-.9-.8-1.2-.6-2.8.5-3.7.6-.5 1.3-.9 1.9-1.4 12.6-8.3 26.5-13.1 41.6-14.4 1 0 2.1-.1 3.5-.2zM131.6 237.5c-3.2-1.3-6.5-2.4-9.9-2.8-.7-.1-1.3-.1-2-.3-1.5-.4-2.4-1.8-2.1-3.2.2-1.4 1.4-2.4 2.9-2.4.4 0 .9 0 1.3.1 7.3 1 14.1 3.6 20.1 7.9.2.1.4.3.6.4 1.3 1.1 1.5 2.4.8 3.9-1 1.9-2 3.9-2.8 5.9-1 2.5-1.7 5-1.9 7.7-.1.7-.1 1.3-.3 2-.3 1.7-1.6 2.7-3.2 2.5-1.5-.2-2.6-1.5-2.5-3.1 0-.9.1-1.8.3-2.7.5-3.1 1.2-6.2 2.5-9.2l.4-1.2c-.7.2-1.3.3-1.9.5-15.6 4.4-28.9 12.5-39.9 24.4-.4.4-.7.8-1.1 1.1-1.1 1-2.8 1-3.9 0s-1.2-2.6-.4-3.9c.3-.4.6-.7.9-1.1 11.2-12.2 24.7-20.7 40.6-25.5.5-.2 1.1-.3 1.6-.5-.1-.3-.1-.4-.1-.5zM124.2 175.3c-.5.2-1 .3-1.5.5-1 .4-1.6 1-2 2.1-.4 1.2-1.1 1.7-2.3 1.7-1 0-1.6-.4-2-1.4-.5-1.3-.3-2.6.5-3.6 1.6-1.8 3.3-3.5 5.6-4.5.6-.2 1.2-.4 1.8-.5 1.2-.2 2.2.3 3 1.1 2.1 1.9 3.2 4.3 3.1 7.1-.1 4-1.1 7.7-3.8 10.8-.5.6-.8 1.3-.6 2.2 1.3-.2 2.6-.5 3.8-1.2 2.7-1.4 5.2-.7 7.4 1.5 1.2 1.2.9 2.7-.6 3.5-.5.3-1.1.5-1.7.6-4.6.8-9.1 2.4-13.5 3.8-.8.3-1.6.5-2.5.6-.7.1-1.4.1-2 0-1.2-.2-1.9-1.1-2-2.3-.1-1.2.3-2.3 1.2-3.1 1.1-1 2-2.2 2.8-3.5 1.3-2.2 2.6-4.3 4.3-6.2.8-.9 1.4-2.1 1.8-3.2.9-2.1.6-4.1-.8-6z"/><path d="M194.4 213.7c-1.1 1.6-2.6 2.9-3.2 4.8-.4 1.1-1 1.9-2.3 2-1.2 0-1.9-.9-2.3-1.9-.8-1.8-.6-3.6.5-5.2 1.2-1.7 2.5-3.5 3.9-5 1.2-1.3 1.8-2.6 1.8-4.4.1-8.4 3.1-15.7 8.4-22.1 1.2-1.5 2.8-2.5 4.6-3.1 1.7-.6 3.4-.9 5.2-1 1.4 0 2.4.9 2.4 2.3 0 .7-.2 1.3-.3 2.1-1.1.4-2.3.9-3.5 1.2-2.3.5-4.1 1.6-5.5 3.3-1.3 1.6-2.3 3.4-3 5.2-.7 1.6-1.3 3.3-1.9 5-1.8 5.1-1.1 9.9 1.7 14.4.7 1 1.4 2.1 2 3.1.2.2.3.5.4.7 1.2 2.1.7 3.7-1.4 4.8-1.2.6-2.3.5-3.3-.5-.7-.7-1.3-1.6-1.9-2.4-.6-.9-1.2-1.8-1.8-2.6 0-.2-.3-.4-.5-.7zM285.3 170c-.7-1.9-1.2-3.8-2-5.6-1.3-3.1-3.4-5.7-5.9-7.9-2.3-2-5-3.1-8.1-3.2-.7 0-1.5 0-2.2-.1-1-.1-1.6-.6-2-1.5-.3-1-.1-1.8.6-2.5 2.2-1.9 4.8-2.9 7.6-1.8 6.4 2.6 11.6 6.7 14.9 12.8 2.1 3.8 3 7.9 3.1 12.2 0 .4 0 .7-.1 1.1-.4 1.8-2.3 2.7-3.9 1.8-.4-.2-.7-.6-.9-1-.3-.5-.4-1-.5-1.5-.2-.9-.5-1.9-.7-2.8h.1zM260.7 198.5c2.9-.7 5.8-.8 8.7-.6.3 0 .6.1.9.1 1.8.4 2.7 2.1 2 3.8-.3.7-.8 1.1-1.6 1.3-1.2.2-2.4.4-3.7.5-4.6.6-9 1.9-12.8 4.8-1.6 1.2-3 2.6-4.1 4.3-1.1 1.7-1.7 3.7-1.9 5.7-.1.6-.1 1.1-.3 1.7-.2 1-.8 1.5-1.8 1.8-1 .2-1.8-.1-2.4-.8-1.7-2.4-2.5-5-1.1-7.7 3.3-6.4 8.1-11.2 14.9-13.8 1.2-.5 2.2-.8 3.2-1.1zM272.4 262.3h-3.2c-.9 0-1.8 0-2.7.1-1 .1-2 .4-3 .5-2 .2-3.8-.3-5.5-1.4-1.7-1.2-3.3-2.5-4.9-3.8-.7-.6-.9-1.4-.7-2.2.2-.7.5-1.3.9-1.9.7-.9 1.5-1 2.6-.5.3.1.5.3.8.5 3.5 2.4 7.4 3.1 11.5 2.5 3.2-.5 6.2-1.4 9.1-2.7.6-.3 1.3-.5 1.9-.6 1-.2 1.7.3 1.9 1.4.1 1.1.1 2.1-.7 3-1 1.1-2 2.1-3.3 2.8-1.4.7-2.9 1.7-4.7 2.3zM319.5 221c-.3-1.5-.5-3.2-.9-4.8-.2-1-.4-1.9-.8-2.9-.9-2.1-2.6-3.5-4.8-4.1-.7-.2-1.5-.5-2.1-.9-.9-.6-1.2-1.5-1.1-2.6.1-1 .6-1.8 1.5-2.1.4-.1.9-.2 1.4-.2 1 .1 2 .3 3 .5 2.5.6 4.4 2 5.7 4.2 1.7 2.9 3.2 6 3.4 9.4.1 1.6.1 3.3-.1 5-.1 1.1-.9 1.8-1.8 2.3-.9.4-2.4-.4-2.8-1.4-.3-.7-.4-1.5-.6-2.4z"/></symbol><symbol id="play" viewBox="0 0 500 500"><path d="M396.605 236.936L117.403 87.423a14.803 14.803 0 0 0-14.614.349 14.845 14.845 0 0 0-7.208 12.721v299.015c0 5.213 2.74 10.042 7.208 12.725a14.833 14.833 0 0 0 14.614.348l279.202-149.503a14.843 14.843 0 0 0 7.813-13.07 14.844 14.844 0 0 0-7.813-13.072zM125.231 374.75V125.253l232.955 124.753L125.231 374.75z"/></symbol><symbol id="question" viewBox="0 0 500 500"><path d="M241.144 427.868h-.06c-8.995-.018-17.44-3.537-23.782-9.915-6.341-6.372-9.826-14.829-9.808-23.817.03-18.522 15.139-33.596 33.674-33.596 18.624.048 33.686 15.182 33.65 33.738-.037 18.522-15.145 33.59-33.674 33.59zm.047-48.968c-8.451 0-15.325 6.85-15.336 15.271a15.252 15.252 0 0 0 4.459 10.835c2.887 2.894 6.718 4.495 10.794 4.501l.036 9.181v-9.181c8.428 0 15.302-6.85 15.313-15.266.013-8.438-6.838-15.317-15.266-15.341zM301.893 97.152c-15.814-15.892-36.818-24.747-59.208-24.996a8.66 8.66 0 0 0-.955-.018c-25.916 0-50.08 11.612-66.325 31.875-3.168 3.956-2.534 9.736 1.422 12.909a9.158 9.158 0 0 0 5.738 2.015 9.18 9.18 0 0 0 7.171-3.437c12.737-15.893 31.678-25.002 51.993-25.002.013.002.029.001.045.001.033 0 .065.005.099.005 17.776.043 34.475 6.999 47.002 19.599 12.54 12.6 19.412 29.328 19.377 47.109-.036 17.77-6.993 34.457-19.593 46.996-12.562 12.497-29.226 19.377-46.942 19.377h-.155c-2.307.12-4.776.956-6.503 2.672a9.21 9.21 0 0 0-2.702 6.49l-.191 85.948c-.006 5.08 4.183 9.812 9.18 9.198 5.056 0 9.169-4.095 9.182-9.162l.167-77.252c19.21-2.008 37.032-10.441 50.91-24.26 16.077-16 24.959-37.295 25.007-59.966.048-22.68-8.725-44.024-24.719-60.101z"/></symbol><symbol id="recyc" viewBox="0 0 500 500"><path d="M180.7 207.1c.5.3 1.1.4 1.7.4 1.4 0 2.8-.8 3.5-2.2 7.8-16 17.3-31.4 28.1-46 3.1-4.1 6.2-8 10.4-10.6 4.3-2.7 9.7-3.5 13.6-2.1 3.5 1.3 6.3 4.2 8.7 7.2 13.3 15.7 24 28.4 31.8 45.8-.9.3-1.9.6-3 .9-3.8 1.1-8 2.4-11.3 4.7-2.3 1.6-3.3 4.4-2.6 6.8.5 1.6 1.6 2.7 2.2 3.2 5.7 5.2 12.3 11.2 19.5 16 1.6 1.1 3.5 2.2 5.8 2.7.7.1 1.4.2 2.1.2 2.4 0 4.7-.9 6.2-2.4 1.3-1.3 1.9-2.8 2.2-3.8 2.9-7.8 6.3-16.6 6.2-25.7 0-1.1 0-4.2-2.4-6.2-3-2.7-7.2-1.6-8.8-1.2-3 .8-6 1.6-8.9 2.5-8.3-18.9-20-32.7-33.3-48.5-3-3.6-6.7-7.6-12-9.5-6.2-2.2-13.9-1.2-20.3 2.7-5.4 3.3-9.1 8-12.5 12.5-11.2 14.9-20.9 30.8-28.9 47.2-.8 2.2 0 4.5 2 5.4zm116.1-4.7c.7-.2 1.1-.3 1.5-.3v.3c.1 7.7-2.9 15.4-5.7 22.9-.1.4-.4 1-.5 1.1-.1.1-.6.2-1.2.1-1-.2-2-.9-3.1-1.6-6.3-4.3-12-9.3-17.5-14.3 2.1-1.1 4.9-1.9 7.5-2.6 1.1-.3 2.2-.7 3.2-1 5.2-1.7 10.5-3.2 15.8-4.6zM188.2 343.1c-4.8-.3-13.4-.5-21.8-.7-8.2-.2-16.8-.4-21.4-.7-4-.3-8.3-.8-10.2-2.9-1.3-1.4-1.4-3.9-.4-7.8 3-11.4 19.9-58.5 27.1-72.2.8-1.4 1.1-1.7 1.2-1.7.1 0 .7-.1 2.9.4 3.3.7 6.5 1.4 9.8 2.2 2.1.5 4.3 1 6.4 1.4.7.1 1.7.4 2.8.4 1.1 0 2.3-.2 3.5-.9 1.8-1.1 4.4-3.8 1.6-9.8-1.9-3.9-2.3-8.3-2.8-13-.4-4-.9-8.1-2.2-12.1-1.2-3.5-3.1-5.7-5.7-6.6-4.3-1.4-8.5 1.6-11.8 4-.7.5-1.4 1-2 1.4l-22.1 14.4c-1.8 1.2-5.5 3.6-5.4 7.8 0 .8.2 1.5.7 2.2 2.2 3.1 6.1 4 8.5 4.6l7.9 1.8c-7.6 14.3-24.6 61.9-27.8 73.9-.7 2.7-2.6 9.8 2.1 15 3.8 4.2 10 5 15.4 5.4 4.8.3 13.4.5 21.8.7 8.2.2 16.8.4 21.4.7h.3c2 0 3.7-1.6 3.8-3.6.1-2.3-1.5-4.1-3.6-4.3zm-39.7-97.3c-.5-.1-1-.2-1.4-.4.1 0 .1-.1.2-.1l22.1-14.4c.7-.5 1.5-1 2.3-1.6 1.2-.9 3.8-2.7 4.8-2.9.1.2.4.6.8 1.6 1.1 3.3 1.5 6.8 1.9 10.6.5 4.8 1.1 9.8 3.2 14.7-1.8-.4-3.5-.8-5.3-1.2-3.3-.7-6.6-1.5-9.8-2.2-1.6-.3-3-.5-4.2-.5h-.1c-.5-.4-1-.7-1.6-.8l-12.9-2.8zM308.1 246.7c-.3-2.1-2.2-3.6-4.3-3.4-2.1.3-3.6 2.2-3.4 4.3.3 2.4 6.5 29.1 18.5 79.5 1 4.2.1 8.6-2.5 12-2.6 3.5-6.5 5.6-10.8 5.8-4.6.3-30.7 1.4-46.8 2.1-.2 0-.4-.1-.6 0-.4 0-1.4 0-2.4-.1-2.4-.1-4.3-.1-5.9-.1l-.6-13c-.1-2.5-.4-9.1-6-10.6-3.7-1-7.1 1.5-9.4 3.2-.5.4-1 .7-1.3.9-4.9 2.9-10 5.7-14.9 8.5-2.5 1.4-5.1 2.8-7.6 4.3-1.4.8-3.2 1.8-4.4 3.8-1.6 2.7-1.2 6.3 1 9.1 1.5 1.9 3.5 3.2 5.3 4.3l23.8 14.9c1.1.7 3.4 2.1 6 2.1.7 0 1.5-.1 2.2-.4 1.3-.4 2.4-1.2 3.4-2.4 3.4-3.9 3.1-8.9 3-12.2 0-.6-.1-1.3-.2-2.1-.1-.5-.2-1.4-.2-2.1 12.5-.5 50.5-2.1 56.1-2.5 6.6-.4 12.6-3.7 16.5-8.9 3.9-5.3 5.3-12 3.8-18.4-16.1-67.5-18.2-77.4-18.3-78.6zm-66.4 119.9c-.3 0-.8-.2-1.8-.9l-23.8-14.9c-1.3-.8-2.6-1.6-3.3-2.5-.1-.2-.2-.4-.3-.5.3-.3 1-.7 1.4-.9 2.5-1.4 5-2.8 7.6-4.3 5-2.8 10.1-5.6 15.1-8.5.6-.4 1.3-.8 2-1.3s2-1.4 2.8-1.8c.2.6.4 1.7.4 3.3l.8 17.3v.4c-.4 2-.1 4.3.2 6.3.1.6.2 1.1.2 1.5-.1 2.9-.1 5.3-1.3 6.8zM169.7 175.3c.6.3 1.1.4 1.7.4 1.4 0 2.8-.8 3.4-2.1 5.3-10.6 12-20.6 19.9-29.5 1.4-1.6 1.2-4-.4-5.4-1.6-1.4-4-1.2-5.4.4-8.3 9.4-15.4 19.9-21 31.2-.8 1.8-.1 4.1 1.8 5zM171.7 139.5c.6.4 1.3.6 2 .6 1.3 0 2.6-.7 3.3-1.9 5.1-8.4 14-14.6 23.7-16.4 2.1-.4 3.5-2.4 3.1-4.5-.4-2.1-2.4-3.5-4.5-3.1-11.8 2.2-22.6 9.7-28.8 20-1.2 1.9-.6 4.2 1.2 5.3zM355 314c-.5-2.1-2.6-3.3-4.7-2.8s-3.3 2.6-2.8 4.7c4.6 18-1.3 38.7-14.8 51.5-1.5 1.5-1.6 3.9-.1 5.5.8.8 1.8 1.2 2.8 1.2 1 0 1.9-.4 2.7-1.1 15.6-14.8 22.2-38 16.9-59zM371.9 356.7c-1.9-.9-4.2-.1-5.1 1.8-3.9 8.1-9.9 15.2-17.3 20.3-1.7 1.2-2.2 3.6-1 5.4.7 1.1 1.9 1.7 3.2 1.7.8 0 1.5-.2 2.2-.7 8.5-5.9 15.4-14 19.8-23.3.9-2 .1-4.3-1.8-5.2z"/><path d="M291.3 321.6c-.8.4-2 .5-3.3.7l-9.8.9c-2.1.2-3.7 2.1-3.5 4.2.2 2 1.9 3.5 3.8 3.5h.4l9.8-.9c1.8-.2 4.1-.4 6.3-1.6 3-1.7 5.1-4.9 5.7-8.8.4-2.9 0-5.7-.4-8.5-1.9-11.1-4.7-22.2-8.3-33-.7-2-2.8-3.1-4.9-2.5-2 .7-3.1 2.8-2.5 4.9 3.4 10.4 6.1 21.1 8 31.9.4 2.2.7 4.2.4 6-.1 1.5-.8 2.7-1.7 3.2z"/></symbol><symbol id="sprout" viewBox="0 0 500 500"><path d="M459.6 312.5c-1.5-1-3.5-.6-4.4.9-39.5 60.1-106.4 89.9-166.5 74.2-11.8-3.1-18.7-8.2-21.8-15.9 15.9 5 33.4 7.2 47.6 7.2 7.5 0 14.1-.6 19.1-1.8 1.7-.4 2.8-2.1 2.4-3.9-.4-1.7-2.1-2.8-3.9-2.4-14.7 3.5-56.1 1.9-82.8-13.6-4.3-2.5-9.1-5.6-12.6-10.4-3.1-4.2-4.9-9.4-4.9-14.3 1.5.7 3.1 1.4 4.8 2 29.8 11.3 54.5 17.4 77.6 19.2h.2c1.7 0 3.1-1.3 3.2-3 .1-1.8-1.2-3.3-3-3.4-22.5-1.7-46.6-7.6-75.8-18.8-14.1-5.3-17-11.3-17-16v-.1c0-1.1.2-2.1.4-3 1.1-4.6 4-8.3 17.8-5.1 7.3 1.7 14.1 3.8 20.7 5.9 21.1 6.7 41 13 72.7 2 .2-.1.4-.1.5-.2.1 0 .1-.1.2-.1.1-.1.2-.1.3-.2l.2-.2c.1-.1.2-.2.2-.3 0-.1.1-.1.1-.2.1-.1.1-.2.2-.3 0-.1.1-.1.1-.2.1-.1.1-.2.1-.3 0-.1.1-.1.1-.2v-.1-.2-.4-.3-.3c0-.1-.1-.2-.1-.4v-.2c0-.1-.1-.2-.2-.3 0-.1-.1-.2-.1-.2-.1-.1-.1-.2-.2-.3l-.2-.2c-.1-.1-.2-.2-.3-.2l-.2-.2c-.1-.1-.2-.1-.3-.2-.1 0-.1-.1-.2-.1s-.2-.1-.3-.1c-.1 0-.2-.1-.3-.1h-.1c-.3-.1-33.6-7.8-49-14.4-3.7-1.6-7.5-3.4-10.4-6.5-3-3.3-4.6-8-4.1-12 1.1-8.9 10.6-10.9 15.5-10.8 13.6.5 32.7 5.7 48 9.8 3.4.9 6.6 1.8 9.6 2.6l2.7.7c19.7 5.2 49.6 13.2 77.5-22.8 1.1-1.4.8-3.4-.6-4.5s-3.4-.8-4.5.6c-25.3 32.7-51.6 25.7-70.7 20.6l-2.8-.7c-3-.8-6.2-1.6-9.5-2.6-11.8-3.2-25.8-7-38.1-8.9.2-.3.3-.7.4-1 .3-1.7-.8-3.4-2.5-3.7-.5-.3-1.3-1.8-1.8-2.8-1.3-2.4-2.9-5.4-6.2-6-1.5-.3-2.9.1-3.8.4-.3.1-.5.2-.8.2-1.4.3-3.3-.7-5.3-1.7-3.2-1.6-7.2-3.7-11.4-1.3-1.1.6-2.1 1.5-2.9 2.3-.5.5-1.3 1.2-1.6 1.3-.3 0-1.2-.6-1.7-1-.9-.6-2-1.3-3.3-1.8.3-14 .4-28.6.3-43.5 2.4-1.2 4.8-2.5 7.2-3.8l.3.6c2.3 3.8 5.8 6.8 10 8.3.4.1.8.2 1.1.2 1.3 0 2.5-.8 3-2.1.6-1.7-.2-3.5-1.9-4.1-2.8-1-5.2-3.1-6.7-5.6-.1-.1-.2-.2-.2-.3 2.1-1.2 4.3-2.4 6.4-3.6 0 1 .5 2 1.4 2.6l7.7 5.1c.5.4 1.2.5 1.8.5 1 0 2.1-.5 2.7-1.4 1-1.5.6-3.5-.9-4.4l-7.7-5.1s-.1 0-.1-.1c2-1.2 4-2.4 5.9-3.6.2.2.4.5.6.7 3.6 2.8 7.5 5 11.8 6.7.4.1.8.2 1.2.2 1.3 0 2.5-.8 3-2 .6-1.7-.2-3.5-1.8-4.2-3.2-1.3-6.2-2.9-9-4.9 2.4-1.6 4.8-3.1 7.2-4.7.4.5.8.8 1.4 1 3.6 1.3 7 3.1 10 5.3.6.4 1.2.6 1.9.6 1 0 2-.5 2.6-1.3 1-1.4.7-3.4-.7-4.5-2.9-2.1-6-3.8-9.3-5.2 4.9-3.4 9.8-6.9 14.6-10.5 1.4-1.1 1.7-3.1.6-4.5s-3.1-1.7-4.5-.6c-2.8 2.1-5.7 4.2-8.5 6.2l-.1-15.4c0-1.8-1.4-3.2-3.2-3.2-1.8 0-3.2 1.5-3.2 3.2l.2 18.5c0 .4.1.8.2 1.2-3.2 2.2-6.4 4.4-9.7 6.5v-.2c-.2-5.2-.2-10.4.2-15.6.1-1.8-1.2-3.3-3-3.4-1.8-.1-3.3 1.2-3.4 3-.4 5.4-.5 10.9-.2 16.4.1 1.2.8 2.3 1.9 2.8l-10.2 6.3v-.9c-.9-4.2-.9-8.6-.1-12.8.3-1.7-.8-3.4-2.5-3.8-1.7-.3-3.4.8-3.8 2.5-1 5-.9 10.3.1 15.3.2 1 .9 1.8 1.8 2.2-5.3 3-10.6 6-15.9 8.8-.1-9.7-.2-19.4-.4-29.1l8.9-7.6c1.3-1.2 1.5-3.2.3-4.5-1.2-1.3-3.2-1.5-4.5-.3l-4.6 4c.7-1.2.5-2.7-.4-3.8 0-1.3-.1-2.5-.1-3.8 4-3 8.4-5.6 13-7.6 1.6-.7 2.3-2.6 1.6-4.2-.7-1.6-2.6-2.3-4.2-1.6-3.7 1.6-7.2 3.6-10.6 5.8l-.3-10.1 9.6-6.8c1.4-1 1.8-3 .8-4.5-1-1.4-3-1.8-4.5-.8l-6.2 4.4c-.1-3.2-.3-6.4-.4-9.5l10-9c1.3-1.2 1.4-3.2.2-4.5-1.2-1.3-3.2-1.4-4.5-.2l-6.1 5.5c-.1-2.3-.2-4.5-.3-6.7l7.9-8.8c1.2-1.3 1.1-3.4-.3-4.5-1.3-1.2-3.3-1.1-4.5.3l-3.6 4.1c-.2-3.4-.4-6.7-.6-9.9-.1-1.8-1.7-3.1-3.4-3-1.8.1-3.1 1.6-3 3.4.3 3.9.5 7.8.7 11.9l-8.8-7.5c-1.4-1.1-3.4-1-4.5.4s-1 3.4.4 4.5L247.1 99c.2 2.9.3 5.7.4 8.7l-11.8-9.5c-1.4-1.1-3.4-.9-4.5.5s-.9 3.4.5 4.5l13 10.5c.6.5 1.3.7 2 .7.4 0 .7-.1 1.1-.2.2 4.5.4 9.1.6 13.8l-12.9-11.5c-1.3-1.2-3.4-1.1-4.5.3-1.2 1.3-1.1 3.4.3 4.5l16.6 14.7.9.6c.1 3.1.2 6.3.3 9.5-4.6-3-9.4-6-14.1-8.7-1.5-.9-3.5-.4-4.4 1.2-.9 1.5-.4 3.5 1.2 4.4 6 3.5 11.8 7.2 17.6 11 .2 7.1.3 14.2.4 21.3l-13-6.4c0-.3 0-.7-.1-1.1-1.1-3.2-1.4-6.7-.9-10.1.2-1.8-1-3.4-2.8-3.6-1.8-.2-3.4 1-3.6 2.8-.4 2.7-.3 5.6.1 8.3l-5.3-2.6c.3-.6.4-1.2.3-1.9-.5-3.4-.7-6.8-.6-10.2.1-1.8-1.3-3.3-3.1-3.3-1.8-.1-3.3 1.3-3.3 3.1-.1 3.1 0 6.2.4 9.2l-5.7-2.8c.2-.6.3-1.3.1-2-1-3.8-1.4-7.8-1.2-11.7.1-1.8-1.2-3.3-3-3.4-1.8-.1-3.3 1.2-3.4 3-.2 3.6 0 7.3.7 10.8l-2.5-1.3c-1.6-.8-3.5-.1-4.3 1.4-.8 1.6-.1 3.5 1.4 4.3l3.4 1.7c-3.5 1.7-6.8 4.1-9.4 7-1.2 1.3-1.1 3.3.2 4.5.6.6 1.4.8 2.2.8.9 0 1.7-.4 2.4-1 3.2-3.5 7.4-6 12-7.2.2-.1.4-.1.6-.2l3.2 1.6c-3.4 1.8-6.4 4.5-8.6 7.8-1 1.5-.5 3.5 1 4.4.5.3 1.1.5 1.7.5 1.1 0 2.1-.5 2.7-1.5 2.3-3.6 6-6.2 10.1-7.1.3-.1.6-.2.8-.3l4.9 2.4c-3.3 1.8-6.4 4-9.2 6.7-1.3 1.2-1.4 3.2-.1 4.5.6.7 1.5 1 2.3 1 .8 0 1.6-.3 2.2-.9 3.5-3.2 7.4-5.8 11.8-7.6.1 0 .2-.1.3-.1l3.9 1.9c-3.1 2.2-5.8 4.9-8.1 7.9-1 1.4-.7 3.4.7 4.5.6.4 1.2.6 1.9.6 1 0 2-.5 2.6-1.3 2.3-3.2 5.3-5.9 8.7-7.9.3-.2.5-.4.7-.6l3.8 1.9c.4.2.9.3 1.3.3.2 20.9.2 41.7-.2 61.1-.1 0-.1.1-.2.1-.6.2-1.2.4-1.7.5-1.3.3-3 0-4.8-.4-3.5-.7-7.8-1.5-11.4 2-.2.2-.4.4-.5.6-3.7.1-7.2.5-10 1.3-5.1-.2-7.2 2.3-10.7 7-.7.9-1.4 1.9-2.2 2.9-13.4 1.5-29.8 5.9-43.3 9.6-3.4.9-6.6 1.8-9.5 2.6l-2.8.7c-19.2 5.1-45.4 12.1-70.7-20.6-1.1-1.4-3.1-1.7-4.5-.6s-1.7 3.1-.6 4.5c27.9 36 57.7 28.1 77.5 22.8l2.7-.7c3-.8 6.2-1.7 9.6-2.6 15.3-4.2 34.4-9.3 48-9.8 4.9-.1 14.3 1.9 15.5 10.8.5 4-1.1 8.7-4.1 12-2.9 3.2-6.7 5-10.4 6.5-15.4 6.6-48.7 14.3-49 14.4h-.1c-.1 0-.2.1-.3.1-.1 0-.2.1-.3.1-.1 0-.2.1-.3.2-.1.1-.2.1-.3.2-.1.1-.2.1-.2.2-.1.1-.2.1-.2.2-.1.1-.1.2-.2.2-.1.1-.1.2-.2.3 0 .1-.1.2-.1.2-.1.1-.1.2-.2.3v.2c0 .1-.1.2-.1.4v1.3c0 .1 0 .2.1.2 0 .1.1.2.1.3 0 .1.1.1.1.2.1.1.1.2.2.3 0 .1.1.1.1.2.1.1.2.2.2.3l.2.2c.1.1.2.1.3.2.1 0 .1.1.2.1.2.1.3.2.5.2 11.6 4 22 5.9 32.5 5.9 5.8 0 11.6-.6 17.6-1.8 1.1 4.8 4.4 9 9.7 12.6 0 .1-.1.2-.1.3-.4 3.4-.1 7 .8 10.4-14.8 4-28.5 6.5-41.7 7.5-1.8.1-3.1 1.7-3 3.4.1 1.7 1.5 3 3.2 3h.2c13.8-1 28-3.6 43.5-7.9.8 1.7 1.8 3.3 2.9 4.8 4 5.4 9.1 8.9 13.7 11.7-27 13.8-64.4 11.8-77.9 8.6-1.7-.4-3.5.7-3.9 2.4-.4 1.7.7 3.5 2.4 3.9 6.5 1.5 15.6 2.5 25.7 2.5 12.5 0 26.6-1.5 39.7-5.2-3.5 6.2-10.1 10.5-20.5 13.2-60.1 15.7-127-14.1-166.5-74.2-1-1.5-3-1.9-4.4-.9-1.5 1-1.9 3-.9 4.4 33.7 51.3 86.7 81.2 139.3 81.2 11.5 0 22.9-1.4 34.2-4.4 8.8-2.3 21.1-6.9 26.1-19.8.3-.6.3-1.3.1-1.9 4.6-1.7 9.1-3.7 13.1-6 .1 0 .1-.1.2-.1 3.3 1.6 6.7 3 10.2 4.3-1.3.8-1.8 2.4-1.3 3.9 5.1 13 17.4 17.5 26.1 19.8 11.2 2.9 22.7 4.4 34.2 4.4 52.6 0 105.6-30 139.3-81.2.8-2.2.4-4.2-1.1-5.2zm-264-.8c-4.9-.2-10.3-.9-16.2-2.2 4.6-1.2 10.2-2.6 15.8-4.3-.5 2.9-.3 5 .4 6.5zm84.2-2.6c1.9-3.3 3.9-6.6 5.7-9.9 10.2 3.9 24.5 7.8 34.5 10.3-15.7 3.6-28.1 2.5-40.2-.4z"/></symbol><symbol id="squares" viewBox="0 0 500 500"><path d="M111.103 313.135h75.763v75.763h-75.763zM212.119 212.119h75.762v75.762h-75.762zM111.103 212.119h75.763v75.762h-75.763zM212.119 111.103h75.762v75.763h-75.762zM111.103 111.103h75.763v75.763h-75.763zM313.135 313.135h75.763v75.763h-75.763zM212.119 313.135h75.762v75.763h-75.762zM313.135 111.103h75.763v75.763h-75.763zM313.135 212.119h75.763v75.762h-75.763z"/></symbol><symbol id="team" viewBox="0 0 500 500"><path d="M206 352.5c-.2-1.8-.5-3.6-1.3-5.3-.7-1.4-1.7-2.5-3.3-2.9-1.4-.4-2.8-.5-4.2-.3-4.3.6-8.5 1.2-12.8 1.8-.3 0-.7.1-1.1.1v-.3c0-3.1-.1-6.1-.1-9.2 0-3.6-.1-7.2 0-10.8 0-3.2.1-6.5.2-9.7.1-3.7.2-7.4.3-11.2.1-3.7.3-7.3.3-11 0-4.2-.1-8.3-.1-12.5 0-1.6.8-2.4 2.4-2.2 2.5.3 5 .6 7.6.9 1.5.1 2.9.2 4.4.2 1.4 0 2.6-.6 3.2-2 .3-.6.4-1.3.5-2 .2-2.1.3-4.2.4-6.3.1-3 .3-6.1.3-9.1 0-3.8 0-7.5-.1-11.3-.1-4-.3-8-.4-12.1-.1-3.5-.3-6.9-.4-10.4-.1-2-1.2-3.2-3.1-3.5-1.9-.3-3.5.6-4.1 2.5-.4 1.3-.4 2.7-.3 4.1.3 2.4.6 4.9.9 7.3.4 4.6.6 9.2.5 13.8 0 3.3-.1 6.6-.1 9.9 0 2.7-.1 5.5-.1 8.2 0 2.3-1.2 3.5-3.4 3.3-1-.1-1.9-.3-2.9-.5-4-.6-8-1.3-12-1.9-2.5-.3-5-.3-7.5.2-2 .3-4 .7-6 .6-1.8-.1-3.6-.1-5.4-.2-.7 0-1.3 0-2-.1 0-.1-.1-.1-.1-.1.1-2.7.1-5.4.2-8.1.1-3.4.2-6.8.4-10.1.1-1.8.3-3.6.6-5.4.6-3.4 1.1-6.7 1.3-10.2.1-2 .2-4 .2-6s0-4.1-.1-6.1c0-.9-1.1-2-1.9-2.1-1.4-.2-2.8.6-3.4 1.9-.3.6-.5 1.1-.6 1.7-.3 1.9-.7 3.9-.9 5.8-.3 3-.6 6.1-.9 9.1l-.6 6.9c-.2 3-.4 6.1-.7 9.1-.2 2.7-.4 5.3-.6 8-.2 2.9-.4 5.8-.7 8.7-.1 1.7.4 2.6 2 3.1 1.4.5 2.3 1.5 2.4 3 .1.8 0 1.7 0 2.5 0 2.1-.1 4.3-.2 6.4-.1 2.1-.1 4.3-.2 6.4-.1 2.1-.1 4.2-.2 6.3-.1 2.4-.1 4.7-.2 7.1-.1 2.1-.1 4.2-.2 6.3-.1 2.4-.1 4.7-.2 7.1-.1 2.1-.1 4.3-.2 6.4l-.3 6.3c-.1 1.9-.2 3.9-.3 5.8-.1 1.1-.1 2.3-.3 3.4-.2 1.1-.9 1.9-1.9 2.2-.6.2-1.2.3-1.9.3-2.7.1-5.4.3-8.1 1-3.6 1-7 2.4-10.3 3.9-1.3.6-2.2 2.2-2 3.7.3 2.6 1.6 4.7 3.4 6.6.8.9 1.8 1.4 3 1.6.4 0 .8.2 1.2.2 3 .6 5.9.9 9 .8 4.9-.2 9.8-1.1 14.6-2 1.9-.3 3.4-1.3 3.9-3.2.3-1 .4-2 .5-3 .1-2.3-.5-4.5-1.8-6.4-1.2-1.8-1.3-3.9-1.3-5.9 0-1.9.1-3.7.1-5.6 0-2.2.1-4.4.1-6.7s.1-4.6.1-6.9c0-2.3.1-4.5.1-6.8s.1-4.5.1-6.8c0-2.2.1-4.5.1-6.7s.1-4.5.1-6.7c0-2.4.1-4.7.1-7.1 0-2.5.1-4.9.1-7.4 0-1 0-2.1.3-3 .2-1.1.8-1.7 2.1-1.8 3.3-.2 6.6-.6 9.9-.9 1.2-.1 2.3-.2 3.5-.3 0 .4 0 .7.1 1 .2 3.1.3 6.3.2 9.4-.1 2.2-.1 4.4-.1 6.6 0 2.3-.1 4.5-.1 6.8s-.1 4.5-.1 6.8c0 2.2-.1 4.5-.1 6.7 0 2.3-.1 4.6-.1 6.9 0 2.3-.1 4.5-.1 6.8s-.1 4.5-.1 6.8-.1 4.5-.1 6.8c0 2.5-.1 4.9-.1 7.4 0 2-.1 4-.2 6-.1 1.3-.2 2.6-.2 3.8 0 2.1 1 3.4 3 4.2 1.6.6 3.3.7 5 .8 2 .2 4 .4 6 .7 2.5.4 5 .9 7.6.9 3.7-.1 6.9-1.4 9.5-4 .8-.8 1-1.8.9-2.8-.2-2.1-.4-4-.6-6zm-51.9 1.9c0 .1-.2.3-.3.3-4 1-7.9 2.3-12 2.9-1.4.2-2.6-.1-3.9-.5-.8-.2-1.7-.5-2.5-.8-.2-.8.1-1.2.8-1.6 2.3-1.3 4.7-1.8 7.3-2.2 2.5-.3 4.9-.3 7.4-.3.7 0 1.4 0 2 .1.9.3 1.4 1.2 1.2 2.1zm44.9 1.5c-.1 1.3-.8 2-2.1 2.2-1.2.2-2.4.2-3.6.3h-.7v-.6c-1-.1-2.1-.1-3.1-.2-1.6-.2-3.3-.3-4.9-.7-1.3-.3-2.1-1.3-2.4-2.7-.1-.6.1-1 .7-1.2.3-.1.6-.2 1-.3 4.2-.6 8.4-1.2 12.6-1.7h.5c1.2-.1 1.9.4 2 1.6 0 1.1.1 2.2 0 3.3zM188.3 152.6c1.3-.2 2.1-1.1 2.3-2.4v-.6c-.2-1.6-1.6-2.6-3.3-2.3-5.7.9-11.5 1.6-17.3 1.9-2.2.1-4.4.1-6.6.2-1.5.1-2.6 1.4-2.5 2.9.1 1.4 1.3 2.6 2.7 2.6 4.4-.2 8.8-.3 13.2-.7 3.8-.5 7.6-1.1 11.5-1.6z"/><path d="M350.7 227.9c0-4-.4-7.9-1.4-11.8-1.6-6.3-4.6-11.8-9.2-16.4-5.4-5.2-12.1-7.5-19.4-8.3-.6-.1-1.3-.1-2-.2l.6-1.2c.4-1 1-1.6 1.9-2.1 3.8-2.3 7-5.2 9.4-8.9 2-3.1 3.3-6.5 3.9-10.2.2-1.4.3-2.8.4-4.3.1-.8 0-1.6 0-2.4.7-.2 1.5-.3 2.2-.5 1.9-.5 3.3-1.6 4.1-3.4.3-.8.3-1.7.3-2.5.1-2.5.2-4.9.1-7.4 0-2.4-1.2-3.6-3.5-4-1.4-.2-2.9-.4-4.3-.7-.2 0-.4-.2-.6-.4-.4-.6-.8-1.3-1.3-1.9-4.1-5.5-9.3-9.6-15.9-12-2.9-1.1-6-1.6-9.1-1.5-6.5.3-12 2.8-16.4 7.5-3.1 3.2-5.3 7-6.8 11.2-.1.3-.3.5-.6.7l-3.3 1.2c-1 .4-1.8 1.1-2.1 2.1-.1.2-.2.5-.2.7-.1.7-.2 1.4-.3 2 0 .4-.1.7 0 1.1 0 2.7 0 5.3.1 8 .1 1.9 1.6 3.4 3.6 3.4 1.4.1 2.8.2 4.3.3 0 .1 0 .3.1.4.2 1.1.2 2.3.5 3.4 1.9 7.5 6.2 13.4 12.7 17.6 1.2.7 1.9 1.7 2.3 2.9.5 1.6.5 1.9-1 2.6-.9.5-1.9.7-2.8 1-2.1.6-4.3 1.1-6.5 1.2-2.6.1-5.1.8-7.3 2.2-1.9 1.2-3.6 2.6-5.1 4.3.1-3.3.2-6.6.2-9.8 0-3.3-.4-6.7-1.2-9.9-1.3-5.3-3.8-10-7.8-13.8-4.6-4.4-10.2-6.4-16.4-7-.5-.1-1.1-.1-1.6-.2.2-.4.4-.7.5-1 .3-.8.9-1.3 1.6-1.8 3.2-1.9 5.9-4.4 7.9-7.5 1.7-2.6 2.8-5.5 3.3-8.6.2-1.2.3-2.4.3-3.6v-2c.6-.1 1.3-.2 1.9-.4 1.6-.4 2.8-1.3 3.4-2.9.3-.7.3-1.4.3-2.1.1-2.1.1-4.2.1-6.2s-1-3-3-3.4l-3.6-.6c-.2 0-.4-.2-.5-.3-.4-.5-.7-1.1-1.1-1.6-3.5-4.7-7.9-8.1-13.4-10.1-2.5-.9-5-1.4-7.7-1.2-5.5.3-10.1 2.4-13.9 6.3-2.6 2.7-4.5 5.9-5.8 9.4-.1.3-.2.5-.5.6-.9.3-1.9.7-2.8 1-.9.3-1.5.9-1.8 1.8-.1.2-.1.4-.2.6l-.3 1.7v.9c0 2.2 0 4.5.1 6.7.1 1.6 1.4 2.8 3 2.9 1.2.1 2.4.2 3.6.2 0 .1 0 .2.1.4.1 1 .2 1.9.4 2.9 1.6 6.3 5.2 11.3 10.7 14.8 1 .6 1.6 1.4 2 2.5.5 1.3.4 1.6-.8 2.2-.7.4-1.6.6-2.4.8-1.8.5-3.6.9-5.5 1-2.2.1-4.3.6-6.2 1.8-3 1.9-5.4 4.5-7.3 7.5-2 3.3-3 6.9-3.9 10.5-.5 1.8-.9 3.7-1.2 5.6-.4 2.1-.7 4.3-.9 6.4 0 .4-.1.8-.1 1.2-5.2-4.6-11.5-6.6-18.4-7.4-.6-.1-1.3-.1-2-.2l.6-1.2c.4-1 1-1.6 1.9-2.1 3.8-2.3 7-5.2 9.4-8.9 2-3.1 3.3-6.5 3.9-10.2.2-1.4.3-2.8.4-4.3.1-.8 0-1.6 0-2.4.7-.2 1.5-.3 2.2-.5 1.9-.5 3.3-1.6 4.1-3.4.3-.8.3-1.7.3-2.5.1-2.5.2-4.9.1-7.4 0-2.4-1.2-3.6-3.5-4-1.4-.2-2.9-.4-4.3-.7-.2 0-.4-.2-.6-.4-.4-.6-.8-1.3-1.3-1.9-4.1-5.5-9.3-9.6-15.9-12-2.9-1.1-6-1.6-9.1-1.5-6.5.3-12 2.8-16.4 7.5-3.1 3.2-5.3 7-6.8 11.2-.1.3-.3.5-.6.7l-3.3 1.2c-1 .4-1.8 1.1-2.1 2.1-.1.2-.2.5-.2.7-.1.7-.2 1.4-.3 2 0 .4-.1.7 0 1.1 0 2.7 0 5.3.1 8 .1 1.9 1.6 3.4 3.6 3.4 1.4.1 2.8.2 4.3.3 0 .1 0 .3.1.4.2 1.1.2 2.3.5 3.4 1.9 7.5 6.2 13.4 12.7 17.6 1.2.7 1.9 1.7 2.3 2.9.5 1.6.5 1.9-1 2.6-.9.5-1.9.7-2.8 1-2.1.6-4.3 1.1-6.5 1.2-2.6.1-5.1.8-7.3 2.2-3.6 2.3-6.5 5.3-8.6 8.9-2.3 3.9-3.5 8.2-4.6 12.5-.6 2.2-1 4.4-1.4 6.6-.4 2.5-.8 5.1-1 7.6-.3 2.8-.4 5.6-.6 8.4-.1 2.5-.2 5.1-.2 7.6 0 4.4.2 8.7.3 13.1.1 1.9.7 3.5 2.5 4.3 1.9.9 2.5.6 3.6-.7.5-.6 1-1.3 1.5-2 .2-.2.3-.5.3-.8.1-1.3.1-2.6.1-3.9v-8.7c0-3.2.1-6.4.2-9.6.1-2.5.3-5.1.6-7.6.4-2.8.9-5.6 1.4-8.4.1-.8.3-1.7.7-2.4.3-.5.4-1.1.3-1.7-.3-2.1 0-4.1.8-6 1.3-3.1 3.1-6 5.2-8.6 2.2-2.7 5.1-4.2 8.6-4.4 1.2-.1 2.5 0 3.7-.3 3.3-.7 6.6-1.2 9.9-1.4 2.2-.1 4.3 0 6.4.5.4.1.8.2 1.2.2 1.2.1 2.3-.2 3.4-.6.7-.3 1.5-.6 2.3-.8 4-.8 7.8-.2 11.5 1.6 2 1 3.8 2.3 5 4.2.8 1.4 1.6 2.8 2.3 4.2 3.3 6.4 4.8 13.1 4.2 20.3-.2 1.9-.2 3.9-.2 5.8-.1 2.2-.1 4.3-.2 6.5s-.1 4.4-.2 6.6c-.1 2.1-.2 4.1-.2 6.2-.1 1.9-.2 3.8-.2 5.6 0 1.4.3 2.8 1.6 3.7.9.7 2 1.1 3 1.7h.4c1.2-.7 2.3-1.6 2.9-2.8.8-1.5.9-3.1.9-4.7 0-2.2-.2-4.4-.2-6.6 0-4 .2-8 .3-11.9 0-1.6.1-3.3.1-4.9.1.1.2.1.4.2 1.2.4 1.9 1.3 2 2.5.1.7 0 1.4 0 2.1 0 1.8-.1 3.6-.1 5.4 0 1.8-.1 3.6-.1 5.4 0 1.8-.1 3.5-.1 5.3 0 2-.1 4-.1 6 0 1.8-.1 3.5-.1 5.3 0 2-.1 4-.1 6 0 1.8-.1 3.6-.2 5.4-.1 1.8-.1 3.6-.2 5.3-.1 1.6-.1 3.3-.2 4.9-.1 1-.1 1.9-.3 2.9-.1.9-.7 1.6-1.6 1.8-.5.2-1 .2-1.6.3-2.3.1-4.6.2-6.8.8-3 .8-5.9 2-8.7 3.3-1.1.5-1.8 1.9-1.7 3.1.3 2.2 1.3 4 2.8 5.6.7.7 1.5 1.2 2.6 1.3.3 0 .7.1 1 .2 2.5.5 5 .8 7.6.7 4.2-.2 8.3-.9 12.4-1.7 1.6-.3 2.8-1.1 3.3-2.7.2-.8.4-1.7.4-2.5 0-2-.4-3.8-1.5-5.4-1-1.5-1.1-3.3-1.1-5 0-1.6.1-3.1.1-4.7 0-1.9.1-3.8.1-5.6 0-1.9.1-3.9.1-5.8s.1-3.8.1-5.7c0-1.9.1-3.8.1-5.7 0-1.9.1-3.8.1-5.7 0-1.9.1-3.8.1-5.7 0-2 0-4 .1-6 0-2.1 0-4.1.1-6.2 0-.9 0-1.7.2-2.6.2-.9.7-1.5 1.8-1.5 2.8-.2 5.6-.5 8.4-.7 1-.1 2-.2 3-.2v.9c.2 2.7.2 5.3.1 8-.1 1.8-.1 3.7-.1 5.6 0 1.9-.1 3.8-.1 5.8 0 1.9-.1 3.8-.1 5.7 0 1.9-.1 3.8-.1 5.7 0 1.9-.1 3.9-.1 5.8s-.1 3.8-.1 5.7c0 1.9-.1 3.8-.1 5.7 0 1.9-.1 3.8-.1 5.8 0 2.1-.1 4.1-.1 6.2 0 1.7-.1 3.4-.2 5.1 0 1.1-.2 2.2-.2 3.2 0 1.8.8 2.9 2.6 3.5 1.4.5 2.8.5 4.3.7 1.7.2 3.4.3 5 .6 2.1.4 4.2.8 6.4.8 3.1-.1 5.8-1.1 8-3.4.7-.7.9-1.5.8-2.4-.1-1.7-.3-3.4-.5-5-.2-1.5-.4-3.1-1.1-4.5-.6-1.2-1.5-2.1-2.8-2.5-1.2-.4-2.4-.4-3.6-.2l-10.8 1.5c-.3 0-.6.1-.9.1v-.2c0-2.6 0-5.2-.1-7.8 0-3-.1-6.1 0-9.1 0-2.7.1-5.5.2-8.2.1-3.1.2-6.3.3-9.4l.3-9.3c0-3.5-.1-7-.1-10.6 0-1.3.7-2 2-1.8 2.1.2 4.3.5 6.4.7 1.2.1 2.5.2 3.7.2 1.2 0 2.2-.5 2.7-1.7.2-.5.4-1.1.4-1.7.2-1.8.3-3.6.4-5.3.1-2.6.2-5.1.2-7.7 0-3.2 0-6.4-.1-9.5-.1-3.4-.2-6.8-.4-10.2-.1-2.9-.2-5.9-.4-8.8-.1-1.7-1-2.7-2.6-3-1.6-.2-2.9.5-3.5 2.1-.4 1.1-.3 2.3-.2 3.5.2 2.1.5 4.1.7 6.2.4 3.9.5 7.7.4 11.6 0 2.8-.1 5.6-.1 8.3 0 2.3-.1 4.6-.1 6.9 0 1.9-1 2.9-2.9 2.8-.8 0-1.6-.3-2.4-.4-3.4-.5-6.7-1.1-10.1-1.6-2.1-.3-4.2-.2-6.3.1-1.7.3-3.4.6-5.1.5-1.5 0-3-.1-4.5-.2H225v-.1c0-2.3.1-4.6.1-6.9.1-2.9.2-5.7.3-8.6.1-1.5.3-3 .5-4.5.5-2.8.9-5.7 1.1-8.6.1-1.7.1-3.4.1-5.1 0-1.7 0-3.4-.1-5.1 0-.8-.9-1.7-1.6-1.8-1.2-.2-2.4.5-2.9 1.6-.2.5-.4 1-.5 1.5-.3 1.6-.6 3.3-.8 4.9-.3 2.6-.5 5.1-.7 7.7-.2 1.9-.3 3.9-.5 5.8-.2 2.6-.4 5.1-.6 7.7-.1.9-.1 1.7-.2 2.6-.2-1.7-.5-3.4-1-5.1-.8-3.3-2-6.3-3.7-9.2 0-.9 0-1.9.1-2.8.1-2.2.3-4.3.5-6.4.3-2.4.8-4.7 1.2-7.1.1-.7.3-1.4.6-2 .2-.4.3-.9.2-1.4-.3-1.7 0-3.4.6-5 1.1-2.6 2.6-5 4.4-7.2 1.9-2.3 4.3-3.5 7.2-3.7 1-.1 2.1 0 3.1-.2 2.8-.6 5.5-1 8.4-1.2 1.8-.1 3.6 0 5.4.5.3.1.7.2 1 .2 1 .1 2-.2 2.9-.5.6-.2 1.3-.5 1.9-.7 3.4-.7 6.6-.1 9.7 1.3 1.7.8 3.2 1.9 4.2 3.6.7 1.2 1.3 2.3 1.9 3.5 2.8 5.4 4 11.1 3.5 17.1-.1 1.6-.1 3.3-.2 4.9-.1 1.8-.1 3.7-.2 5.5-.1 1.9-.1 3.7-.2 5.6-.1 1.7-.1 3.5-.2 5.2v1c-.3 1-.5 1.9-.8 2.9-.6 2.2-1 4.4-1.4 6.6-.4 2.5-.8 5.1-1 7.6-.3 2.8-.4 5.6-.6 8.4-.1 2.5-.2 5.1-.2 7.6 0 4.4.2 8.7.3 13.1.1 1.9.7 3.5 2.5 4.3 1.9.9 2.5.6 3.6-.7.5-.6 1-1.3 1.5-2 .2-.2.3-.5.3-.8.1-1.3.1-2.6.1-3.9v-8.7c0-3.2.1-6.4.2-9.6.1-2.5.3-5.1.6-7.6.4-2.8 2.4-16.5 3.1-18.5 1.3-3.1 3.1-6 5.2-8.6 2.2-2.7 5.1-4.2 8.6-4.4 1.2-.1 2.5 0 3.7-.3 3.3-.7 6.6-1.2 9.9-1.4 2.2-.1 4.3 0 6.4.5.4.1.8.2 1.2.2 1.2.1 2.3-.2 3.4-.6.7-.3 1.5-.6 2.3-.8 4-.8 7.8-.2 11.5 1.6 2 1 3.8 2.3 5 4.2.8 1.4 1.6 2.8 2.3 4.2 3.3 6.4 4.8 13.1 4.2 20.3-.2 1.9-.2 3.9-.2 5.8-.1 2.2-.1 4.3-.2 6.5s-.1 4.4-.2 6.6c-.1 2.1-.2 4.1-.2 6.2-.1 1.9-.2 3.8-.2 5.6 0 1.4.3 2.8 1.6 3.7.9.7 2 1.1 3 1.7h.4c1.2-.7 2.3-1.6 2.9-2.8.8-1.5.9-3.1.9-4.7 0-2.2-.2-4.4-.2-6.6 0-4 .2-8 .3-11.9.3-3 .4-7.1.4-11.1zm-197.5-70c0-1.2.1-2.3 0-3.4 0-.7.3-1 .9-1.2.8-.3 1.5-.6 2.2-1 1.6-.8 2.5-2.2 3-4 .5-1.9 2.1-4.8 3-5.9.2.2.3.4.5.6 1.3 1.4 3.5 1.6 5 .4 1.5-1.2 1.8-3.4.6-5-.3-.4-.6-.9-.9-1.3 1.5-1 3-1.7 4.6-2.1l.3 4.5c.1 1.8 1.4 3.2 3.1 3.5 1.7.3 3.4-.7 4-2.5.2-.6.2-1.4.1-2.1 0-1.2-.2-2.4-.3-3.6 0-.1 0-.2.1-.4 1.5.5 2.9.9 4.3 1.3-.2.6-.3 1.1-.4 1.5-.5 1.9.3 3.7 2.1 4.4 1.7.7 3.6.1 4.6-1.6 0-.1.1-.1.1-.2.2.1.3.2.4.3 2.3 2.1 4.3 4.5 5.8 7.3.6 1.2 1.6 1.8 2.9 2 1.2.2 2.4.4 3.7.6 0 .8 0 1.7-.1 2.5-.1 1.2-.1 1.2-1.2 1.3-6.9.9-13.8 1.9-20.8 2.8-5.6.7-11.3 1.2-17 1.3-2.6 0-5.3-.1-7.9-.1-.7.2-1.6.1-2.7.1zm32.3 22.2c-3.8 1.7-7.8 2.1-11.9 1-5.2-1.4-8.6-4.7-10.3-9.7l-.3-.6c-.8-1.6-1.2-3.3-1.4-5v-.3c11.6 0 23-1.7 34.5-3.3.2 1 .3 1.9.2 2.9-.1 2-.7 3.9-1.7 5.7-.3.6-.5 1.3-.8 1.9-1.8 3.4-4.7 5.8-8.3 7.4zm61.8 118.6c.3-.1.5-.2.8-.2 3.6-.5 7.1-1 10.7-1.5h.4c1 0 1.6.4 1.7 1.4.1.9.1 1.8 0 2.7-.1 1.1-.7 1.7-1.8 1.9-1 .2-2 .2-3 .3h-.6v-.5c-.9-.1-1.7-.1-2.6-.2-1.4-.1-2.8-.2-4.1-.6-1.1-.3-1.8-1.1-2-2.3-.2-.5 0-.8.5-1zm-24.3 1.1c0 .1-.2.2-.3.3-3.4.9-6.7 1.9-10.2 2.5-1.1.2-2.2-.1-3.3-.4-.7-.2-1.4-.4-2.1-.7-.2-.7.1-1 .7-1.3 1.9-1.1 4-1.5 6.1-1.8 2.1-.3 4.1-.3 6.2-.3.6 0 1.2 0 1.7.1.9.1 1.4.8 1.2 1.6zm-.8-166c0-1 .1-1.9 0-2.9 0-.6.2-.8.8-1 .6-.2 1.3-.5 1.9-.8 1.4-.7 2.1-1.9 2.6-3.4.5-1.6 1.8-4.1 2.6-5 .1.2.3.4.4.5 1.1 1.2 3 1.4 4.2.3 1.3-1.1 1.5-2.9.5-4.2-.3-.4-.5-.7-.7-1.1 1.2-.8 2.5-1.4 3.9-1.8.1 1.3.2 2.6.3 3.8.1 1.5 1.2 2.7 2.6 3 1.5.2 2.9-.6 3.4-2.1.2-.5.1-1.2.1-1.7 0-1-.1-2-.2-3v-.3c1.2.4 2.4.8 3.7 1.1-.1.5-.2.9-.3 1.3-.4 1.6.3 3.1 1.8 3.7 1.4.6 3 0 3.9-1.3 0-.1.1-.1.1-.2.1.1.3.2.4.3 2 1.8 3.6 3.8 4.9 6.1.5 1 1.3 1.5 2.4 1.7 1 .2 2 .3 3.1.5v2.1c-.1 1-.1 1-1.1 1.1-5.8.8-11.7 1.6-17.5 2.4-4.8.6-9.5 1-14.3 1.1-2.2 0-4.4 0-6.7-.1-1.1 0-1.9 0-2.8-.1zm27.3 18.7c-3.2 1.4-6.6 1.8-10.1.9-4.4-1.2-7.3-3.9-8.7-8.2-.1-.2-.1-.4-.2-.5-.7-1.3-1-2.8-1.2-4.3v-.2c9.8 0 19.4-1.4 29.1-2.8.2.8.2 1.6.2 2.4-.1 1.7-.6 3.3-1.5 4.8-.3.5-.4 1.1-.7 1.6-1.4 3-3.9 5-6.9 6.3zm35 6.5c0-1.2.1-2.3 0-3.4 0-.7.3-1 .9-1.2.8-.3 1.5-.6 2.2-1 1.6-.8 2.5-2.2 3-4 .5-1.9 2.1-4.8 3-5.9.2.2.3.4.5.6 1.3 1.4 3.5 1.6 5 .4 1.5-1.2 1.8-3.4.6-5-.3-.4-.6-.9-.9-1.3 1.5-1 3-1.7 4.6-2.1l.3 4.5c.1 1.8 1.4 3.2 3.1 3.5 1.7.3 3.4-.7 4-2.5.2-.6.2-1.4.1-2.1 0-1.2-.2-2.4-.3-3.6 0-.1 0-.2.1-.4 1.5.5 2.9.9 4.3 1.3-.2.6-.3 1.1-.4 1.5-.5 1.9.3 3.7 2.1 4.4 1.7.7 3.6.1 4.6-1.6 0-.1.1-.1.1-.2.2.1.3.2.4.3 2.3 2.1 4.3 4.5 5.8 7.3.6 1.2 1.6 1.8 2.9 2 1.2.2 2.4.4 3.7.6 0 .8 0 1.7-.1 2.5-.1 1.2-.1 1.2-1.2 1.3-6.9.9-13.8 1.9-20.8 2.8-5.6.7-11.3 1.2-17 1.3-2.6 0-5.3-.1-7.9-.1-.7.2-1.7.1-2.7.1zm32.3 22.1c-3.8 1.7-7.8 2.1-11.9 1-5.2-1.4-8.6-4.7-10.3-9.7l-.3-.6c-.8-1.6-1.2-3.3-1.4-5v-.3c11.6 0 23-1.7 34.5-3.3.2 1 .3 1.9.2 2.9-.1 2-.7 3.9-1.7 5.7-.3.6-.5 1.3-.8 1.9-1.9 3.4-4.7 5.9-8.3 7.4z"/><path d="M337.2 353.6c-.2-1.8-.5-3.6-1.3-5.3-.7-1.4-1.7-2.5-3.3-2.9-1.4-.4-2.8-.5-4.2-.3-4.3.6-8.5 1.2-12.8 1.8-.3 0-.7.1-1.1.1v-.3c0-3.1-.1-6.1-.1-9.2 0-3.6-.1-7.2 0-10.8 0-3.2.1-6.5.2-9.7.1-3.7.2-7.4.3-11.2.1-3.7.3-7.3.3-11 0-4.2-.1-8.3-.1-12.5 0-1.6.8-2.4 2.4-2.2 2.5.3 5 .6 7.6.9 1.5.1 2.9.2 4.4.2 1.4 0 2.6-.6 3.2-2 .3-.6.4-1.3.5-2 .2-2.1.3-4.2.4-6.3.1-3 .3-6.1.3-9.1 0-3.8 0-7.5-.1-11.3-.1-4-.3-8-.4-12.1-.1-3.5-.3-6.9-.4-10.4-.1-2-1.2-3.2-3.1-3.5-1.9-.3-3.5.6-4.1 2.5-.4 1.3-.4 2.7-.3 4.1.3 2.4.6 4.9.9 7.3.4 4.6.6 9.2.5 13.8 0 3.3-.1 6.6-.1 9.9 0 2.7-.1 5.5-.1 8.2 0 2.3-1.2 3.5-3.4 3.3-1-.1-1.9-.3-2.9-.5-4-.6-8-1.3-12-1.9-2.5-.3-5-.3-7.5.2-2 .3-4 .7-6 .6-1.8-.1-3.6-.1-5.4-.2-.7 0-1.3 0-2-.1 0-.1-.1-.1-.1-.1.1-2.7.1-5.4.2-8.1.1-3.4.2-6.8.4-10.1.1-1.8.3-3.6.6-5.4.6-3.4 1.1-6.7 1.3-10.2.1-2 .2-4 .2-6s0-4.1-.1-6.1c0-.9-1.1-2-1.9-2.1-1.4-.2-2.8.6-3.4 1.9-.3.6-.5 1.1-.6 1.7-.3 1.9-.7 3.9-.9 5.8-.3 3-.6 6.1-.9 9.1l-.6 6.9c-.2 3-.4 6.1-.7 9.1-.2 2.7-.4 5.3-.6 8-.2 2.9-.4 5.8-.7 8.7-.1 1.7.4 2.6 2 3.1 1.4.5 2.3 1.5 2.4 3 .1.8 0 1.7 0 2.5 0 2.1-.1 4.3-.2 6.4-.1 2.1-.1 4.3-.2 6.4-.1 2.1-.1 4.2-.2 6.3-.1 2.4-.1 4.7-.2 7.1-.1 2.1-.1 4.2-.2 6.3-.1 2.4-.1 4.7-.2 7.1-.1 2.1-.1 4.3-.2 6.4l-.3 6.3c-.1 1.9-.2 3.9-.3 5.8-.1 1.1-.1 2.3-.3 3.4-.2 1.1-.9 1.9-1.9 2.2-.6.2-1.2.3-1.9.3-2.7.1-5.4.3-8.1 1-3.6 1-7 2.4-10.3 3.9-1.3.6-2.2 2.2-2 3.7.3 2.6 1.6 4.7 3.4 6.6.8.9 1.8 1.4 3 1.6.4 0 .8.2 1.2.2 3 .6 5.9.9 9 .8 4.9-.2 9.8-1.1 14.6-2 1.9-.3 3.4-1.3 3.9-3.2.3-1 .4-2 .5-3 .1-2.3-.5-4.5-1.8-6.4-1.2-1.8-1.3-3.9-1.3-5.9 0-1.9.1-3.7.1-5.6 0-2.2.1-4.4.1-6.7s.1-4.6.1-6.9c0-2.3.1-4.5.1-6.8s.1-4.5.1-6.8c0-2.2.1-4.5.1-6.7s.1-4.5.1-6.7c0-2.4.1-4.7.1-7.1 0-2.5.1-4.9.1-7.4 0-1 0-2.1.3-3 .2-1.1.8-1.7 2.1-1.8 3.3-.2 6.6-.6 9.9-.9 1.2-.1 2.3-.2 3.5-.3 0 .4 0 .7.1 1 .2 3.1.3 6.3.2 9.4-.1 2.2-.1 4.4-.1 6.6 0 2.3-.1 4.5-.1 6.8s-.1 4.5-.1 6.8c0 2.2-.1 4.5-.1 6.7 0 2.3-.1 4.6-.1 6.9 0 2.3-.1 4.5-.1 6.8s-.1 4.5-.1 6.8-.1 4.5-.1 6.8c0 2.5-.1 4.9-.1 7.4 0 2-.1 4-.2 6-.1 1.3-.2 2.6-.2 3.8 0 2.1 1 3.4 3 4.2 1.6.6 3.3.7 5 .8 2 .2 4 .4 6 .7 2.5.4 5 .9 7.6.9 3.7-.1 6.9-1.4 9.5-4 .8-.8 1-1.8.9-2.8-.1-2.1-.4-4-.6-6zm-51.8 1.9c0 .1-.2.3-.3.3-4 1-7.9 2.3-12 2.9-1.4.2-2.6-.1-3.9-.5-.8-.2-1.7-.5-2.5-.8-.2-.8.1-1.2.8-1.6 2.3-1.3 4.7-1.8 7.3-2.2 2.5-.3 4.9-.3 7.4-.3.7 0 1.4 0 2 .1.9.3 1.4 1.2 1.2 2.1zm44.8 1.5c-.1 1.3-.8 2-2.1 2.2-1.2.2-2.4.2-3.6.3h-.7v-.6c-1-.1-2.1-.1-3.1-.2-1.6-.2-3.3-.3-4.9-.7-1.3-.3-2.1-1.3-2.4-2.7-.1-.6.1-1 .7-1.2.3-.1.6-.2 1-.3 4.2-.6 8.4-1.2 12.6-1.7h.5c1.2-.1 1.9.4 2 1.6.1 1.1.1 2.2 0 3.3zM319.5 153.7c1.3-.2 2.1-1.1 2.3-2.4v-.6c-.2-1.6-1.6-2.6-3.3-2.3-5.7.9-11.5 1.6-17.3 1.9-2.2.1-4.4.1-6.6.2-1.5.1-2.6 1.4-2.5 2.9.1 1.4 1.3 2.6 2.7 2.6 4.4-.2 8.8-.3 13.2-.7 3.9-.5 7.7-1.1 11.5-1.6zM251.8 129.3c1.1-.1 1.8-.9 2-2v-.5c-.2-1.4-1.4-2.2-2.8-2-4.9.8-9.7 1.3-14.6 1.6-1.9.1-3.7.1-5.6.2-1.2.1-2.2 1.1-2.1 2.4 0 1.2 1.1 2.2 2.3 2.2 3.7-.2 7.4-.3 11.1-.6 3.2-.3 6.5-.8 9.7-1.3z"/></symbol><symbol id="youtube" viewBox="0 0 192 192"><style>.st0{fill:#fff}</style><path class="st0" d="M180.3 53.4c-2-7.6-8-13.6-15.6-15.7C151 34 96 34 96 34s-55 0-68.8 3.7c-7.6 2-13.5 8-15.6 15.7C8 67.2 8 96 8 96s0 28.8 3.7 42.6c2 7.6 8 13.6 15.6 15.7C41 158 96 158 96 158s55 0 68.8-3.7c7.6-2 13.5-8 15.6-15.7C184 124.8 184 96 184 96s0-28.8-3.7-42.6zM78 122.2V69.8L124 96l-46 26.2z"/></symbol></svg>