<svg xmlns="http://www.w3.org/2000/svg" xmlns:xlink="http://www.w3.org/1999/xlink" width="1230.86" height="949.19" viewBox="0 0 1230.86 949.19"><defs><path id="a" d="M0 0h1230.859v949.19H0z"/></defs><clipPath id="b"><use xlink:href="#a" overflow="visible"/></clipPath><path clip-path="url(#b)" fill="#FFF" d="M369.527 831.463c2.193-3.688.022-6.695-1.9-9.833-1.375-2.245-2.902-4.532-3.618-7.015-1.246-4.323-2.541-8.224-5.819-11.79-2.86-3.113-4.164-7.734-5.872-11.809-3.508-8.373-6.859-16.811-10.195-25.253-.722-1.829-.973-3.842-1.678-5.678-1.112-2.899-2.425-5.721-3.36-7.894-.664-6.411-1.239-12.428-1.93-18.431-.337-2.917-.454-5.968-1.43-8.684-3.69-10.261-1.402-21.202-3.889-31.605-.711-2.973-.015-6.274-.005-9.426.033-10.175-.029-20.35.096-30.523.09-7.387.402-14.771.646-22.154.185-5.575.293-11.156.658-16.72.601-9.164.706-18.437 2.284-27.441 1.494-8.515 4.536-16.769 7.041-25.094 2.417-8.034 4.789-16.097 7.625-23.985 1.727-4.803 4.225-9.338 6.506-13.929 2.398-4.827 4.933-9.585 7.44-14.357 3.515-6.688 5.743-14.718 10.9-19.724 7.701-7.478 10.337-18.735 20.364-24.407 6.32-3.575 11.071-9.835 17.213-13.837 7.208-4.696 14.798-9.427 22.906-11.919 6.227-1.913 13.513-.381 20.96-.381.515-.635 1.454-2.33 2.877-3.349.936-.67 3.509-.861 3.745-.417 1.788 3.374 4.599 2.594 7.36 2.263 7.815-.94 14.567.845 20.553 6.425 2.01 1.874 5.786 1.905 8.786 2.653 6.539 1.633 11.182 5.57 14.31 11.451.528.993 1.012 2.269 1.886 2.779 7.779 4.543 9.925 13.285 14.995 19.831 1.412 1.823 3.14 3.451 4.288 5.422 5.981 10.266 12.1 20.466 17.614 30.98 3.679 7.015 6.447 14.509 9.587 21.805 2.258 5.246 4.543 10.483 6.647 15.79 1.181 2.978 1.94 6.122 3.028 9.141 3.562 9.878 7.332 19.687 10.684 29.635.816 2.419-.015 5.349.529 7.912.949 4.474 2.502 8.814 3.56 13.269.631 2.653.763 5.421 1.189 8.127.484 3.079 1.037 6.146 1.574 9.217.308 1.764.672 3.52.957 5.287.208 1.288-.167 3.164.565 3.795 5.106 4.396 3.205 10.157 3.739 15.593.524 5.335 2.435 10.529 3.691 15.796.836 3.512 1.965 7.005 2.306 10.568.723 7.553 2.224 15.314 1.207 22.688-1.589 11.528 2.16 22.995-1.447 34.623-2.866 9.238-3.667 19.229-4.462 28.962-.626 7.666.386 15.452.212 23.176-.081 3.553-1.117 7.116-1.972 10.613-1.553 6.354-3.538 12.612-4.869 19.011-.808 3.884 1.554 6.268 5.332 7.035 5.15 1.047 10.334 1.921 15.485 2.964a9.244 9.244 0 0 1 3.165 1.317c8.066 5.321 16.253 6.559 25.888 3.648 7.545-2.278 15.217-5.591 23.817-3.688 3.101.687 6.994-1.226 10.274-2.564 4.576-1.868 8.824-4.536 13.386-6.446 4.991-2.09 13.572 1.511 15.992 6.34 1.887 3.765-1.862 13.462-6.052 15.533-5.687 2.812-11.258 5.938-17.151 8.227-3.568 1.386-7.684 1.307-11.5 2.134-6.196 1.341-12.337 2.941-18.529 4.302-1.411.31-2.953-.033-4.412.125-4.934.535-9.857 1.158-14.783 1.757-.48.059-.982.336-1.426.254-8.625-1.588-17.774-1.957-25.67-5.29-5.006-2.112-9.771-3.367-14.936-4.141-6.446-.963-8.46.057-9.536 6.321-.505 2.936-1.71 4.218-4.102 5.923-3.078 2.193-5.679 5.657-7.303 9.127-1.727 3.691-4.883 5.551-7.299 8.303-7.208 8.212-17.173 11.257-26.532 15.369-7.464 3.28-15.267 5.819-23.013 8.404-2.634.879-5.565.845-8.345 1.315-16.114 2.728-32.178 1.961-48.182-.833-1.869-.326-3.561-1.654-5.337-2.515-4.973-2.409-10.311-4.275-14.843-7.337-9.164-6.192-19.037-11.625-25.534-21.147-1.242-1.82-3.426-2.991-5.145-4.497-6.743-5.902-11.87-13.122-17.303-20.188-4.006-5.211-6.798-10.838-9.834-16.483-.875-1.629-2.785-2.701-4.654-4.426m193.361-24.215c1.988-9.794 4.554-19.753 5.929-29.873 1.747-12.854 2.541-25.838 3.721-38.769.491-5.38 2.031-10.96 1.142-16.111-1.999-11.587 1.85-23.517-2.646-34.94-.989-2.514.614-5.931.182-8.806-.958-6.359-1.239-13.255-4.051-18.786-3.085-6.069-4.521-11.729-3.553-18.259.086-.583-.412-1.245-.602-1.88-2.157-7.209-4.663-14.337-6.357-21.652-1.623-7.01-2.158-14.267-3.632-21.318-1.163-5.56-2.569-11.161-4.727-16.39-1.732-4.196-5.878-7.211-4.746-12.79.404-1.996-1.674-4.52-2.686-6.771-.858-1.908-2.009-3.705-2.685-5.671-1.594-4.626-2.457-9.575-4.557-13.941-5.049-10.505-10.316-20.938-16.144-31.024-3.017-5.222-8.657-9.137-10.879-14.558-2.92-7.122-7.857-11.997-12.993-17.098-1.83-1.817-2.644-4.963-4.703-6.188-7.564-4.498-14.563-11.293-24.741-7.792-.755.26-1.968-.309-2.782-.799-6.19-3.729-13.102-2.474-19.75-3.352-8.168-1.079-10.925 6.312-16.788 8.679-3.921 1.582-7.109 5.249-10.287 8.333-3.678 3.569-8.949 5.104-11.24 10.636-1.873 4.524-5.766 8.182-8.544 12.37-2.66 4.009-6.225 7.966-7.128 12.407-.622 3.058.276 6.259-2.582 8.738-1.816 1.577-3.989 3.128-4.996 5.185-4.302 8.786-8.551 17.626-12.178 26.703-2.313 5.791-3.516 12.025-5.191 18.069-1.628 5.873-4.151 11.691-4.564 17.653-.395 5.703-2.849 11.782.7 17.475.438.704.053 1.96-.046 2.952-.606 6.088-1.43 12.161-1.826 18.262-.817 12.579-1.652 25.166-2.007 37.764-.227 8.035-.046 16.136.736 24.131 1.109 11.324 2.912 22.582 4.475 33.86 1.004 7.236.172 14.594 4.175 21.573 2.665 4.646 2.666 10.764 4.249 16.105 1.167 3.936 2.853 7.732 4.506 11.505 3.231 7.374 6.495 14.738 9.948 22.009 2.46 5.182 5.321 10.171 7.88 15.308 3.801 7.629 6.364 16.219 11.567 22.705 4.707 5.866 7.066 13.907 14.483 17.55.267.131.385.539.617.774 4.816 4.911 9.096 10.576 14.612 14.51 5.569 3.972 9.259 10.298 16.593 12.212 6.186 1.613 11.814 5.549 18.025 6.851 14.662 3.073 29.392 1.255 43.957-1.502 4.112-.778 8.45-1.58 12.059-3.528 6.081-3.285 11.771-7.344 17.408-11.382 2.534-1.815 4.776-4.188 6.682-6.668.858-1.116.319-3.203.841-4.7 1.96-5.616 3.723-11.35 6.27-16.702 2.717-5.706-.501-7.632-4.702-9.896-11.132-5.997-21.272-13.118-26.391-25.442-.458-1.103-1.739-1.856-2.614-2.796-1.341-1.439-3.406-2.695-3.864-4.383-2.18-8.037-11.119-11.767-12.555-20.169-.025-.146-.173-.29-.297-.396-4.966-4.198-5.998-10.065-6.531-16.022-.15-1.682.335-3.716 1.234-5.147 3.818-6.072 11.453-8.534 18.303-6.001 1.247.463 3 1.576 3.167 2.607 1.069 6.64 3.391 12.552 8.218 17.409.724.728.608 2.229 1.08 3.285.603 1.352 1.243 2.745 2.155 3.893 5.092 6.412 10.542 12.56 15.337 19.182 3.94 5.441 7.314 11.178 16.314 10.807M956.163 786.445c5.937-2.249 12.065-4.1 17.765-6.845 7.706-3.71 15.062-8.143 22.622-12.164.963-.512 2.318-.229 3.381-.618 3.034-1.107 6.027-2.335 9.009-3.583 7.722-3.233 15.191-7.352 23.191-9.57 13.673-3.794 27.777-6.015 41.513-9.607 21.601-5.651 43.606-6.745 65.716-6.657 6.403.025 12.804 1.648 19.199 2.585 2.629.385 5.229 1.196 7.861 1.291 10.121.367 19.118 4.55 28.557 7.49 7.101 2.212 12.986 6.996 21.136 7.589 5.016.365 9.777 6.508 14.231 10.525.978.88.298 3.759.115 5.692-.089.935-.818 1.803-1.224 2.715-1.389 3.124-2.605 8.846-4.169 8.94-7.342.445-15.312 2.939-21.897-3.17-1.581-1.467-3.913-2.131-5.916-3.133-1.739-.87-3.513-1.671-5.25-2.545-2.697-1.356-5.32-3.788-8.072-3.934-8.896-.471-17.01-3.05-25.247-6.269-9.866-3.856-20.376-4.091-30.83-1.875-.634.135-1.321.434-1.911.309-17.345-3.666-34.039.9-50.818 4.074-8.726 1.65-17.565 3.128-25.995 5.806-11.025 3.504-21.513 8.721-32.566 12.105-14.676 4.494-27.294 12.975-40.909 19.499-5.523 2.646-11.331 4.881-16.415 8.211-5.2 3.408-9.587 8.033-14.491 11.922-3.085 2.445-6.478 4.502-9.71 6.764-1.06.741-2.447 1.365-3.008 2.407-4.444 8.252-12.691 12.134-19.766 17.323-1.986 1.458-5.31 3.564-6.737 2.841-3.88-1.965-7.581-4.86-10.373-8.205-2.142-2.563-1.975-6.143 1.091-8.92 1.524-1.382 2.873-3.172 3.736-5.039 3.536-7.653 7.033-15.184 13.02-21.479 2.635-2.771 3.515-7.186 5.281-10.811 1.108-2.274 1.88-5.063 3.679-6.586 4.941-4.182 8.32-9.179 11.214-14.96 4.95-9.887 10.748-19.349 16.218-28.975 2.77-4.873 5.546-9.743 8.43-14.547 1.021-1.701 2.128-3.496 3.619-4.741 3.081-2.572 6.25-4.902 5.507-9.622-.063-.401.345-.92.621-1.325 4.94-7.26 10.383-14.231 14.711-21.839 4.456-7.831 7.736-16.324 11.723-24.433 1.647-3.353 3.444-6.74 5.772-9.627 9.624-11.936 15.782-25.774 22.374-39.41 1.845-3.816 4.611-7.174 6.705-10.883 1.5-2.658 3.678-5.563 3.644-8.334-.087-7.188 6.866-9.786 8.946-15.448 1.684-4.584 3.585-9.161 6.014-13.381 4.999-8.69 10.568-17.052 15.613-25.717 4.027-6.916 7.597-14.098 11.426-21.13 2.684-4.93 5.102-10.058 8.287-14.646 4.419-6.367 9.906-12.016 14.091-18.516 4.903-7.615 8.881-15.825 13.293-23.761 2.292-4.122 4.655-8.205 7.649-13.474-3.3.777-5.507.882-7.308 1.791-9.819 4.956-20.41 5.038-31.02 5.506-5.415.238-10.792 1.349-16.186 2.077-1.633.22-3.257.514-4.892.715-5.886.725-11.761 1.645-17.669 2.041-3.028.203-6.136-.452-9.179-.9-2.759-.406-5.464-1.387-8.224-1.541-9.536-.531-19.086-.809-28.63-1.199-.489-.02-1.243-.026-1.417-.314-3.16-5.245-8.787-5.193-13.767-6.811-5.278-1.715-10.224-4.432-15.386-6.536a20.232 20.232 0 0 0-5.796-1.382c-8.024-.699-10.188-2.786-11.272-11.14-.277-2.131-.713-4.242-1.171-6.919 8.869-3.751 17.862-5.199 27.192-1.922 8.807 3.093 17.433 6.739 26.335 9.508 4.481 1.394 9.396 1.43 14.123 1.993 10.471 1.248 20.974 2.455 31.508 1.147 13.592-1.687 27.098-4.497 40.729-5.293 13.119-.766 23.831-7.758 35.771-11.457 6.888-2.133 13.467-5.574 19.775-9.148 4.169-2.362 7.543-6.094 11.397-9.051 6.911-5.305 11.929-5.632 18.68-.326 2.137 1.679 3.665 5.059 4.033 7.851.596 4.523 1.741 9.577-2.996 13.122-4.46 3.337-8.556 7.239-13.276 10.131-6.437 3.943-8.551 10.824-12.517 16.451-6.366 9.029-12.978 17.89-19.15 27.048-4.297 6.377-7.908 13.213-12.062 19.691-3.434 5.355-6.801 10.843-10.936 15.634-5.718 6.624-8.041 14.736-11.631 22.358-3.408 7.233-8.258 13.783-12.377 20.69-3.38 5.67-6.664 11.399-9.906 17.149-6.457 11.452-12.892 22.917-19.226 34.437-.677 1.23-.433 2.936-.955 4.29a51.568 51.568 0 0 1-3.005 6.405c-2.544 4.598-5.215 9.125-7.821 13.688-4.828 8.454-9.688 16.889-14.457 25.376-5.808 10.337-12.052 20.471-17.166 31.144-6.41 13.381-12.992 26.436-22.482 38.082-6.307 7.738-10.958 16.845-16.171 25.448-4.426 7.301-8.631 14.737-12.841 22.167-.754 1.329-1.058 2.915-1.568 4.382l1.261 1.308z"/><path clip-path="url(#b)" fill="#FFF" d="M760.485 694.956c.566-10.88 1.539-21.758 1.576-32.64.033-9.546-1.098-19.09-1.488-28.645-.203-5.011.07-10.04.151-15.062.02-1.153.303-2.322.176-3.452-1.054-9.358-2.32-18.698-3.206-28.071-.353-3.739.543-7.609.086-11.323-1.104-8.984-2.51-17.939-4.115-26.85-.785-4.354-2.685-8.519-3.366-12.88-.881-5.638-1.045-11.387-1.527-17.088-.286-3.384-.512-6.775-.919-10.146-.217-1.792-1.188-3.57-1.087-5.311.458-7.755.974-15.517 1.88-23.229.629-5.364 8.541-9.312 13.409-6.706 3.892 2.082 9.06 3.092 9.57 8.916 7.297 3.27 4.746 8.597 2.931 13.811-.204.586-.049 1.327.041 1.982 1.241 9.073 2.67 18.125 3.704 27.222.993 8.734 1.468 17.525 2.397 26.268.416 3.904.929 7.912 2.224 11.583 1.794 5.087-.584 10.789 3.303 15.779 1.364 1.751-1.151 6.166-1.08 9.347.213 9.521-1.162 19.739 1.892 28.333 2.63 7.4 3.18 13.556 1.938 20.952-1.218 7.255.521 15.111-1.272 22.132-1.862 7.285-.378 13.692.928 20.463.304 1.576.459 3.301.157 4.854-1.657 8.543-3.273 17.104-5.288 25.567-3.271 13.731-9.474 26.252-17.029 38.06-3.335 5.212-7.393 9.992-11.436 14.698-.962 1.119-3.219 1.066-4.819 1.705-7.132 2.847-14.03 6.675-21.42 8.361-6.911 1.576-14.335 1.153-21.532 1.127-4.371-.018-8.746-.902-13.104-1.509-1.039-.145-2.116-.584-2.993-1.166-.787-.521-1.227-1.935-1.983-2.076-9.493-1.788-14.11-10.489-21.572-15.182-4.716-2.965-9.069-6.896-12.625-11.191-2.918-3.525-5.948-8.123-6.231-12.425-.608-9.226-1.495-18.245-4.153-27.136-1.408-4.712-2.184-9.635-2.963-14.508-.844-5.281-1.895-10.615-1.896-15.926-.002-8.3.812-16.6 1.262-24.9.195-3.62.203-7.258.565-10.858.242-2.397 1.069-4.729 1.432-7.12.217-1.441.162-2.953.026-4.414-.635-6.865-1.285-13.729-2.039-20.581-.463-4.208-1.3-8.38-1.657-12.595-.726-8.555-1.456-17.119-1.785-25.695-.405-10.592-.533-21.199-.538-31.8-.005-9.103 3.705-13.338 11.446-13.669 4.821-.207 15.151 9.782 13.366 14.011-2.741 6.497.407 12.289.369 18.377-.056 8.883 2.445 17.861 1.78 26.642-.967 12.778 4.16 24.837 2.871 37.617-.519 5.122 1.907 10.53 2.894 15.825.203 1.092.293 2.4-.113 3.379-3.353 8.058-1.31 16.561-2.215 24.81-.304 2.774-1.331 5.568-1.117 8.282.513 6.527 1.191 13.088 2.479 19.499a822.571 822.571 0 0 0 8.502 37.761c.551 2.201 3.132 3.911 4.818 5.811 7.501 8.449 16.898 14.23 27.681 16.854 10.219 2.487 20.282.938 28.822-6.121 9.018-7.452 13.44-17.596 16.763-28.424.672-2.193 2.104-4.158 2.742-6.357 1.408-4.86 2.533-9.803 3.773-14.71-.465-.087-.925-.176-1.386-.262M870.479 529.322c.901 11.619 1.504 20.209 2.249 28.788.802 9.231 1.887 18.441 2.539 27.684.255 3.613-.701 7.312-.45 10.925.432 6.188 1.554 12.324 2.053 18.51.391 4.859.098 9.771.434 14.639.61 8.869 1.615 17.711 2.155 26.583.342 5.601-.062 11.247.242 16.853.266 4.936 1.373 9.832 1.504 14.764.107 4.037-.677 8.098-1.062 12.148-.195 2.058-.277 4.132-.616 6.165-.226 1.364-.466 3.042-1.357 3.867-.585.541-2.341-.264-3.581-.334-1.718-.096-3.604-.533-5.138-.008-5.741 1.97-9.852.005-13.06-5.106-4.882-7.78-5.104-15.846-3.897-24.566.809-5.851.122-11.896.275-17.852.133-5.122.895-10.254.674-15.351-.23-5.386-1.796-10.728-1.883-16.104-.159-9.709.406-19.429.555-29.146.068-4.574.09-9.169-.273-13.722-.288-3.605-1.337-7.143-1.799-10.741-1.179-9.17-2.666-18.331-3.191-27.544-.554-9.709-.085-19.476-.164-29.215-.047-5.745 4.995-6.72 8.51-8.526 2.627-1.35 5.563-.396 8.957 1.24 9.208 4.436 4.681 12.837 6.324 16.049M202.251 586.088c-1.988.131-3.975.283-5.965.382-.795.04-1.932.299-2.341-.111-6.666-6.68-16.061-7.661-24.156-11.152-7.867-3.396-16.751-4.427-25.176-6.545-1.112-.28-2.165-.823-3.22-1.301-10.66-4.813-21-10.666-32.092-14.066-6.346-1.946-11.393-5.541-17.132-8.151-6.256-2.845-12.799-5.314-18.516-9.025-8.607-5.589-17.97-8.906-27.6-12.006-6.867-2.21-13.27-5.882-20.154-8.02-5.225-1.623-10.931-2.77-16.333-2.473-6.449.352-6.172-5.665-9.41-8.204-.554-.435.47-3.71 1.528-5.089.734-.956 2.855-1.428 4.219-1.219 4.857.745 9.643 1.942 14.479 2.843a849.561 849.561 0 0 0 18.072 3.141c4.661.761 9.37 1.242 14.011 2.099 12.408 2.292 23.795 7.067 34.349 14.021 2.175 1.433 5.216 1.477 7.705 2.521 9.565 4.019 19.02 8.297 28.615 12.238 4.225 1.735 8.758 2.706 13.024 4.355 6.545 2.528 12.889 5.593 19.484 7.974 8.141 2.94 16.371 5.701 24.708 8.017 10.77 2.991 20.824 7.482 30.525 12.938 4.093 2.301 6.012 5.407 5.218 10.177-.801 4.817-3.924 6.646-8.353 6.926-1.82.114-3.652.02-5.479.02l-.01-.29zM24.771 695.05c7.416 0 14.84.222 22.245-.059 8.619-.326 17.215-1.418 25.831-1.559 6.099-.099 12.227 1.322 18.32 1.165 6.981-.179 13.937-1.351 20.903-2.091 1.306-.14 2.732-.689 3.9-.353 8.785 2.544 17.641 2.054 26.645 1.624 7.023-.334 14.117 1.131 21.195 1.524 4.586.255 9.298.606 13.775-.147 5.584-.94 10.801-.924 16.124 1.114 5.321 2.038 6.304 5.521 5.749 11.08-.701 7.007-4.078 6.903-9.853 7.451-22.812 2.164-45.589.166-68.36.676-9.197.206-18.531-2.313-27.673 1.021-1.53.558-3.564-.418-5.369-.441-13.725-.173-27.455-.53-41.176-.33-9.225.136-18.435 1.127-27.656 1.658-6.25.361-11.727-1.195-16.056-6.167-3.85-4.423-3.235-10.875 2.118-12.67 6.213-2.082 12.8-3.047 19.225-4.497.038.334.074.668.113 1.001M82.816 929.327c-1.559-3.459-4.088-6.67-4.195-9.96-.113-3.496.99-8.586 3.445-10.332 9.361-6.66 19.398-12.396 29.352-18.186 5.743-3.34 11.835-6.075 17.722-9.175 2.835-1.492 5.599-3.132 8.329-4.812 8.787-5.411 17.354-11.213 26.367-16.213 8.625-4.785 17.68-8.801 26.592-13.057 2.674-1.277 5.458-2.365 8.27-3.301 3.231-1.073 6.555-1.862 9.826-2.813 1.236-.36 2.748-.503 3.604-1.307 4.888-4.595 12.385-1.546 16.232 2.993 2.314 2.731 2.581 5.945-.357 7.88-7.111 4.685-14.423 9.122-21.951 13.096-8.24 4.351-17.24 7.375-25.145 12.225-11.767 7.217-22.676 15.822-34.33 23.243-5.531 3.521-11.975 5.589-17.937 8.459-7.376 3.551-14.761 7.099-21.982 10.949-3.68 1.963-6.767 5.153-10.559 6.755-4.321 1.824-9.128 2.495-13.283 3.556M226.321 949.178c-2.633-.583-6.552-.646-9.482-2.379-1.967-1.164-2.336-4.817-3.774-7.139-1.76-2.84-1.752-4.539 1.108-7.091 6.015-5.369 11.238-11.612 17.024-17.255 3.72-3.627 7.777-6.926 11.835-10.184 6.227-5 12.255-10.379 19.032-14.506 3.148-1.916 8.69-2.872 11.642-1.35 3.344 1.726 6.737 5.552 6.195 10.971-.847 8.469-7.179 12.273-12.985 16.607-10.715 7.999-20.893 16.588-29.022 27.286-2.816 3.706-6.237 5.201-11.573 5.04M91.287 615.224c2.288-3.185 4.065-5.736 5.923-8.229 3.507-4.706 6.39-4.502 10.893-1.129 3.783 2.833 8.465 4.534 12.879 6.436 3.154 1.359 6.462 2.489 9.808 3.251 11.755 2.677 23.564 5.113 35.337 7.714 6.822 1.508 11.693 8.146 10.918 14.684-.345 2.911-7.134 8.249-10.546 7.925-3.651-.347-7.358-.812-10.868-1.825-12.502-3.61-25.335-6.308-36.606-13.389-4.426-2.781-9.198-5.01-13.82-7.479-.706-.377-1.548-1.105-2.16-.963-6.413 1.505-8.488-3.677-11.758-6.996M125.939 791.651c.431-.677.988-2.428 2.184-3.255 3.053-2.11 6.18-4.579 9.654-5.536 13.208-3.638 26.573-6.705 39.863-10.051 3.987-1.004 7.878-2.42 11.891-3.288 3.968-.857 7.498.034 9.511 4.045 1.725 3.438 4.268 6.202-.408 10.24-5.853 5.055-12.444 7.255-19.528 9.406-10.817 3.284-21.578 6.938-31.988 11.324-10.741 4.527-20.817-.76-21.179-12.885M853.094 453.917c-8.205-.098-13.093-5.25-17.229-11.466-3.485-5.241-2.304-16.878 2.125-21.726 11.086-12.134 25.445-11.099 36.485 1.377 5.676 6.414 4.939 12.758 3.701 19.799-.082.465-.295 1.107-.647 1.296-7.856 4.224-14.711 10.749-24.435 10.72M643.396 239.504c-1.539-2.516-3.564-5.008-4.699-7.856-2.222-5.577-3.794-11.412-5.928-17.028-1.815-4.775-4.044-9.393-6.089-14.082-1.502-3.442-2.396-7.36-4.641-10.22-3.7-4.713-4.729-10.222-6.661-15.562-2.09-5.78-4.347-12.087-8.406-16.398-3.798-4.034-3.901-9.282-7.22-13.315-3.313-4.026-4.864-9.285-9.533-12.64-1.777-1.277-1.583-5.128-2.59-7.687-1.152-2.926-2.641-5.72-5.013-8.086.211 5.47.489 10.938.617 16.41.258 10.949.522 21.9.615 32.852.069 8.087-.504 16.196-.092 24.26.353 6.917 1.833 13.771 2.531 20.681.242 2.399-.542 4.883-.555 7.331-.056 10.927-.239 21.862.108 32.78.183 5.775 1.693 11.502 1.995 17.283.308 5.891-.015 11.826-.275 17.732-.263 5.946-1.4 11.701.183 17.847 1.321 5.128.035 10.867.585 16.267.674 6.625-2.126 13.697 2.568 19.918.685.908-.478 3.086-.512 4.682-.131 6.106-.581 12.249-.093 18.313.504 6.26 1.628 12.522 3.078 18.641 2.464 10.399-5.323 19.076-15.748 16.949-1.414-.288-2.694-1.723-3.823-2.842-6.825-6.764-3.924-15.885-5.473-23.892-1.411-7.296-.872-14.966-2.258-22.269-1.202-6.337-.615-12.543-.742-18.815-.105-5.204-.523-10.402-.712-15.606-.089-2.446.076-4.901.055-7.352-.092-11.065-.09-22.133-.362-33.193-.159-6.436-.929-12.856-1.137-19.292-.287-8.876-.022-17.776-.523-26.636-.396-7-1.763-13.941-2.374-20.937-.439-5.038-1.016-10.214-.344-15.167 1.231-9.072.526-17.873-.558-26.911-1.192-9.934-.547-20.084-.792-30.137-.056-2.294-.483-4.579-.813-7.533 2.473-2.242 1.457-20.476-1.726-26.227.835-4.361 2.275-7.883 2.008-11.271-.664-8.467-2.666-16.845-3.085-25.31-.492-9.965-.491-20.054.639-29.935.322-2.813 5.223-5.217 8.214-7.565 1.672-1.312 3.735-2.124 6.045-3.395 7.059 2.151 9.919 7.801 11.517 15.448 1.458 6.979 5.087 13.489 7.557 20.278 1.507 4.143 2.414 8.507 3.988 12.621 1.725 4.506 4.059 8.776 5.831 13.266 1.067 2.702 1.568 5.627 2.456 8.948l3.033-.41c.124.552.359 1.03.314 1.48-.414 4.083.676 6.89 3.866 10.242 4.185 4.399 6.304 10.766 9.306 16.289 3.443 6.338 6.9 12.668 10.318 19.02 3.149 5.852 6.342 11.683 9.356 17.604 4.867 9.555 9.611 19.172 14.383 28.774.505 1.016.866 2.105 1.267 3.171 3.217 8.564 6.426 17.132 9.638 25.699l1.366.086c1.603-3.775 3.659-7.429 4.716-11.352 2.122-7.888 3.571-15.955 5.544-23.887 1.406-5.652 3.222-11.203 4.832-16.806.135-.471.154-.993.139-1.489-.203-6.686-.535-13.371-.604-20.059-.073-6.968.24-13.941.132-20.907-.116-7.307-1.235-14.667-.651-21.901.829-10.282-3.898-19.439-4.69-29.396-.721-9.045-3.076-17.986-5.073-26.891-.736-3.286-2.314-6.445-3.915-9.443-.538-1.008-2.337-1.342-3.294-1.845-1.468-4.873-3.189-9.849-4.439-14.939-1.26-5.134 1.411-12.039 7.039-14.416 1.348-.569 2.544-1.627 3.93-1.944 2.549-.584 6.118-4.081 6.945 1.985.074.548 1.652.846 2.481 1.346 3.122 1.879 5.758 3.831 7.022 7.801 1.447 4.543 4.661 8.502 6.33 13.002 2.079 5.605 3.353 11.507 4.997 17.274.502 1.762 1.19 3.476 1.595 5.257.409 1.795.658 3.638.823 5.475.304 3.366-.248 7.013.871 10.061 3.093 8.428 6.032 16.728 3.776 25.888-.146.591-.173 1.459.153 1.883 3.498 4.551 3.656 9.478 3.173 15.093-.66 7.659.207 15.443.275 23.175.021 2.414-.742 4.854-.576 7.242.195 2.784 1.017 5.525 2.163 8.176-.131 2.322-3.938 2.724-2.332 7.312 1.334 3.814-1.093 8.956-1.891 13.502-1.356 7.738-2.235 15.604-4.247 23.169-2.383 8.966-5.756 17.668-8.691 26.488-.257.771-.839 1.702-.614 2.322 2.246 6.215-2.351 10.594-4.047 15.751-3.13 9.507-7.143 19.246-4.604 29.227 1.959 7.704 6.427 14.767 9.763 22.123.79 1.743 1.775 3.453 2.219 5.287 1.185 4.912 1.551 10.107 3.358 14.755 1.261 3.243 4.361 5.772 6.646 8.617.675.841 1.868 1.611 1.971 2.512.74 6.42.954 12.912 1.94 19.288.857 5.557 2.565 10.979 3.77 16.489.347 1.588.551 3.32.302 4.905-.794 5.057-2.615 10.09-2.518 15.103.074 3.763-3.375 4.343-3.88 6.41-1.167 4.776-5.54 6.248-7.802 9.476-2.622 3.742-5.838 3.577-9.253 4.433-5.867 1.472-11.603 1.707-17.419-.216-8.183-2.707-12.97-8.782-17.221-15.879-1.894-3.163-2.903-6.238-3.738-9.717-1.481-6.175-4.306-12.073-5.368-18.292-1.18-6.902-1.861-14.108-1.268-21.053 1.336-15.65 3.538-31.229 5.511-46.819.49-3.868.823-7.945 2.325-11.456 2.9-6.78-1.609-11.635-3.447-17.219-1.284-3.913-2.463-7.859-3.819-12.204m27.44 65.621l-1.677.475c-.29 4.562-.618 9.123-.861 13.688-.388 7.31-1.247 14.65-.857 21.922.203 3.808 2.61 7.508 4.092 11.229.319.799 1.484 1.61 1.34 2.188-1.414 5.701 1.883 9.735 4.82 13.825.838 1.167 2.424 1.798 3.667 2.674.753-1.367 2.18-2.751 2.143-4.096-.156-5.637 2.109-11.01.313-16.95-2.688-8.885-3.699-18.265-6.134-27.241-1.65-6.076-4.522-11.82-6.846-17.714M331.446 71.259c1.938-1.885 3.749-3.928 5.847-5.615 2.909-2.34 5.436-5.921 10.154-3.827.466.207 1.524-.919 1.895-1.159 2.572 2.242 4.836 4.71 7.562 6.461 3.265 2.097 6.285 3.687 6.055 8.53-.108 2.268.419 5.572 4.273 6.169.77.118 1.368 2.662 1.688 4.164 1.85 8.706 3.599 17.433 5.362 26.156.196.972.455 1.988.359 2.95-.623 6.273 4.813 11.738 2.396 18.229 5.509 9.754 5.028 20.92 7.436 31.405 2.19 9.539 5.224 18.923 6.798 28.554 1.852 11.332 6.049 22.22 5.847 33.995-.065 3.796 2.714 7.588 3.907 11.469 1.849 6.014 4.527 12.039 4.892 18.175.473 7.969 4.614 14.481 6.414 21.835.716 2.923 1.263 5.908 2.239 8.744 2.762 8.032 5.557 16.06 8.692 23.951.693 1.744 2.839 2.91 3.809 4.786 1.345 1.612 2.667 3.244 4.043 4.829.832.958 2.347 1.74 2.526 2.779 1.383 8.024 7.883 9.753 14.136 11.476 7.131 1.965 14.397 3.453 21.62 5.077 4.522 1.017 3.561 4.958 4.361 7.951.346 1.293.493 2.639.759 4.123l-10.077 11.022-.589-1.31c-2.377.154-4.941-.206-7.089.576-3.697 1.345-6.776 2.166-10.47-.533-2.028-1.481-5.387-1.011-8.023-1.818-3.642-1.116-7.368-2.233-10.71-4.005-10.981-5.823-17.141-16.513-24.398-25.835-4.035-5.184-5.83-12.189-8.271-18.514a460.927 460.927 0 0 1-8.364-23.649c-1.058-3.261-1.116-6.835-2.018-10.161-3.918-14.446-8.357-28.762-11.855-43.306-2.298-9.553-3.143-19.448-4.962-29.128-1.121-5.963-3.23-11.747-4.23-17.723-1.938-11.568-6.354-22.518-7.154-34.459-.556-8.313-3.968-16.452-6.269-24.623-1.207-4.291-2.767-8.482-4.168-12.719l-2.144.093c-2.61 6.964-5.367 13.875-7.789 20.904-2.768 8.034-4.513 16.505-8.037 24.172-3.586 7.802-10.278 13.968-18.795 15.154-4.698.654-10.275-2.659-14.986-5.092-5.077-2.622-9.421-6.634-14.419-9.448-7.395-4.163-15.085-7.805-23.743-12.227.594 4.527.346 8.31 1.632 11.468 6.058 14.878 6.585 30.972 10.658 46.261 1.938 7.272 4.717 14.356 6.167 21.712 1.858 9.43 2.103 19.2 4.252 28.546 2.42 10.523.441 20.986 1.213 31.432.522 7.056 1.217 14.119 2.312 21.104.508 3.239-2.248 7.344 2.184 9.733.106.057-.057.624-.105.952-1.081 7.403-2.34 14.787-3.206 22.215-1.347 11.543-4.263 22.496-10.617 32.398-1.111 1.731-1.869 3.903-2.096 5.949-.847 7.616-7.854 10.106-12.151 14.768-3.75 4.069-8.168 7.596-12.634 10.9-2.273 1.682-5.243 2.526-8.005 3.414-2.27.73-4.687 1.039-7.061 1.386-.902.132-2.45.169-2.706-.297-1.85-3.382-3.742-6.797-5.028-10.412-1.073-3.017.37-5.126 3.431-6.633 2.312-1.138 4.257-3.185 6.097-5.087 3.89-4.02 7.345-8.491 11.446-12.269 7.261-6.688 9.051-15.607 11.087-24.566.874-3.845 2.797-7.492 3.36-11.358.912-6.269 1.553-12.65 1.465-18.971-.097-6.913-.291-14.041-2.046-20.651-1.583-5.966.057-11.564-.424-17.265-.945-11.194-2.327-22.352-3.625-33.514-.609-5.238-.975-10.57-2.284-15.645-1.947-7.549-4.723-14.88-6.953-22.362-.815-2.735-1.228-5.618-1.56-8.463-.765-6.573-1.011-13.228-2.15-19.73-.938-5.356-3.137-10.479-4.274-15.813-1.736-8.14-2.999-16.38-4.563-24.557-.284-1.486-.659-3.288-1.66-4.243-3.676-3.504-6.353-10.54-3.905-14.448 1.488-2.377 5.1-3.618 7.973-4.879 2.839-1.246 5.953-1.856 8.937-2.777 4.041-1.246 7.006-.482 10.548 2.541 3.154 2.69 8.399 2.766 12.417 4.645 7.104 3.322 13.941 7.209 20.958 10.725 5.982 2.998 12.201 5.546 16.831 10.739.333.373 3.554-.715 3.991-1.739 2.071-4.859 3.762-9.893 5.366-14.936 2.601-8.177 4.984-16.423 7.566-24.606.537-1.703 1.454-3.308 2.348-4.871 2.457-4.295 6.161-8.31 2.145-13.746-.251-.34 1.918-3.571 3.009-3.6 3.513-.09 3.712-1.836 3.501-4.544-.203-2.6-.044-5.228-.044-7.844l1.693.36M808.652 147.703c0 8.691-.027 17.381.01 26.072.025 6.249.035 12.502.253 18.746.114 3.296.856 6.572.955 9.868.122 4.091-.221 8.194-.185 12.291.029 3.149 1.465 6.84.271 9.327-2.216 4.612-.679 8.968-.466 13.271.461 9.3 2.173 18.531 2.806 27.83.479 7.031 3.942 14.65-2.744 20.805-.117.109-.264.283-.255.418.521 8.139-6.379 6.086-10.596 7.53-.941.321-3.25-.548-3.422-1.241-1.035-4.199-4.44-3.518-7.166-3.544-3.333-.033-3.731-1.892-3.689-4.401.036-2.056.14-4.111.179-6.166.067-3.572.332-7.158.109-10.713-.395-6.279-1.085-12.54-1.672-18.806-.086-.92-.399-1.83-.401-2.745-.009-4.552-.024-9.107.111-13.656.091-3.096.543-6.182.624-9.278.183-6.99.509-13.994.252-20.973-.192-5.233-1.503-10.422-1.746-15.656-.174-3.743.871-7.527.894-11.295.064-10.407-.373-20.823-.047-31.217.09-2.876 1.904-5.83 3.384-8.494 1.562-2.813 3.909-3.906 7.423-2.721 3.244 1.093 7.35.395 10.068 2.096 3.798 2.376 4.841 7.113 5.05 12.652M485.317 197.456c-1.065 2.102-2.94 4.206-2.474 5.141 2.909 5.827.706 14.168 7.516 17.426-.197 3.415-.551 6.662-.528 9.905.026 3.844-2.667 6.736-6.489 7.68-3.698.913-7.203 2.61-10.278 3.768-1.896-1.684-3.112-3.462-4.766-4.09-3.638-1.382-6.663-2.561-5.828-7.555.259-1.546-2.007-3.374-2.16-5.156-.339-3.934.4-7.989-.157-11.872-.907-6.331-2.769-12.521-3.722-18.85-.872-5.788-.879-11.703-1.637-17.514-.516-3.951-1.242-7.983-2.652-11.681-1.61-4.223-2.639-8.442-2.451-12.897.469-11.091-.128-22.007-3.108-32.825-.428-1.551 2.6-4.873 4.755-6.151 4.979-2.955 10.439-2.483 15.459.231.929.501 1.069 2.656 1.37 4.09 1.911 9.117 3.738 18.251 5.665 27.364.335 1.583 1.018 3.091 1.529 4.638 1.697 5.136.799 10.539 1.572 15.739 1.427 9.597 3.217 19.149 5.184 28.651.335 1.618 2.304 2.898 3.2 3.958M779.62 35.906l-3.925-1.421c5.79-5.719 10.44-12.242 16.728-16.099 11.14-6.835 21.004-3.386 27.576 8.2.975 1.718.668 4.206.806 6.347.181 2.786.217 5.581.304 8.372.019.641.22 1.418-.06 1.903-2.565 4.456-4.343 9.912-8.066 13.02-4.881 4.072-10.48 8.769-18.096 6.226-2.404-.803-4.88-1.493-7.378-1.904-7.136-1.175-6.102-9.048-10.372-12.697-1.027-.879-.067-4.372.369-6.585.342-1.73 1.29-3.341 2.114-5.362M436.74 33.399c-1.149-3.227-2.688-7.631-4.284-12.015-2.57-7.055.563-13.206 5.066-17.466 3.865-3.659 9.967-5.026 15.779-2.936 1.189.428 2.876 1.068 3.214 2.011 2.132 5.947 7.266 10.927 5.759 18.1-.399 1.901.778 4.283.063 5.941-2.11 4.901-8.914 7.333-14.554 6.402-3.407-.561-6.989-.062-11.043-.037"/></svg>