<svg xmlns="http://www.w3.org/2000/svg" width="466.149" height="320.813" viewBox="22.864 98.708 466.149 320.813"><path fill="#FFF" d="M202.625 377.093c-28.349 0-56.507-4.376-83.143-13.317-24.353-8.182-43.759-18.646-59.361-31.964-18.455-15.792-31.012-36.149-35.388-57.078-8.751-42.237 15.221-81.05 30.441-100.266 38.433-49.277 119.673-69.444 152.778-75.723.952-.19 1.712.381 1.903 1.332s-.38 1.712-1.332 1.902c-32.724 6.279-113.014 26.256-150.875 74.582-14.84 18.835-38.242 56.697-29.68 97.603 4.186 20.167 16.362 39.764 34.247 55.175 15.221 13.128 34.247 23.402 58.219 31.393 82.192 27.588 179.414 10.845 247.717-42.428 28.92-22.641 46.804-47.184 52.702-73.25 8.371-36.53-7.991-78.577-40.525-104.833-28.349-22.831-68.112-34.437-111.872-32.725-42.237 1.712-82.192 15.221-115.868 27.968-.761.38-1.712-.19-2.093-.952-.38-.761.19-1.712.951-2.093 33.866-12.938 74.011-26.446 116.819-28.349 44.521-1.902 84.855 9.894 113.965 33.486 33.486 27.017 50.229 70.396 41.477 108.067-6.088 26.636-24.163 51.94-53.843 75.152-46.804 36.721-107.307 56.318-167.239 56.318z"/><path fill="#FFF" d="M428.653 419.521c-49.658 0-105.594-20.357-153.159-89.041l-1.331-1.902c-.571-.761-.381-1.712.38-2.283.762-.571 1.713-.381 2.283.38l1.332 1.903c53.844 77.435 124.049 104.071 208.714 78.767.951-.19 1.712.19 2.093 1.142.19.951-.19 1.713-1.142 2.093-17.884 5.136-37.861 8.941-59.17 8.941z"/><g fill="#FFF"><path d="M175.799 297.184c.38-.57 0-1.141-.381-1.712-.19-.38-.571-.761-.571-1.142-.19-.761-.38-1.332-.951-1.902s-.761-1.332-.951-1.902c-.571-1.332-1.142-2.854-1.712-4.186-.19-.381-.19-.571-.19-.951a9.178 9.178 0 0 0-.571-1.332c-.19-1.142-.19-2.094-.38-3.045 0-.57 0-.951-.19-1.521-.571-1.713-.19-3.615-.571-5.327-.19-.571 0-1.142 0-1.522v-5.137c0-1.332 0-2.474.19-3.805 0-.951 0-1.903.19-2.854.19-1.522.19-3.044.38-4.566s.761-2.854 1.142-4.186c.38-1.331.761-2.664 1.332-3.995l1.142-2.283c.381-.761.761-1.712 1.332-2.474.571-1.142.951-2.473 1.902-3.424 1.332-1.332 1.712-3.234 3.425-4.186 1.142-.571 1.903-1.712 2.854-2.283 1.142-.761 2.473-1.522 3.805-2.093 1.142-.38 2.283 0 3.615 0 0-.19.19-.38.571-.571.19-.19.571-.19.571 0 .38.571.761.381 1.332.381 1.332-.19 2.473.19 3.424 1.142.381.38.952.38 1.522.38 1.142.19 1.902.951 2.473 1.902 0 .19.19.381.38.381 1.332.761 1.712 2.283 2.474 3.424.19.381.571.571.761.952.952 1.712 2.093 3.424 3.044 5.327.571 1.142 1.142 2.473 1.712 3.615.38.951.761 1.712 1.142 2.664.19.57.38.951.57 1.522.571 1.712 1.332 3.234 1.712 4.946.19.381 0 .951 0 1.332l.571 2.283c.19.381.19.951.19 1.332 0 .57.19.951.19 1.521 0 .381.19.57.19.951 0 .19 0 .571.19.571.951.761.571 1.712.571 2.663s.38 1.713.571 2.664c.19.57.38 1.142.38 1.713.19 1.331.38 2.663.19 3.805-.19 1.902.38 3.805-.19 5.898-.571 1.521-.571 3.234-.761 4.946-.19 1.331 0 2.663 0 3.995 0 .57-.19 1.142-.381 1.713-.19 1.141-.571 2.092-.761 3.234-.19.57.19 1.141.951 1.141.951.191 1.712.381 2.664.571.19 0 .38.19.571.19 1.332.951 2.664 1.142 4.376.57 1.332-.38 2.664-.951 3.996-.57.571.19 1.141-.19 1.712-.381l2.283-1.141c.761-.381 2.283.189 2.664 1.141.381.571-.38 2.283-.951 2.664-.951.381-1.902.951-2.854 1.332-.571.189-1.332.189-1.902.38-1.142.19-2.093.571-3.044.761h-.761c-.761 0-1.712.191-2.474.381h-.19c-1.522-.189-3.044-.381-4.376-.951-.761-.381-1.712-.57-2.474-.761-1.142-.19-1.522 0-1.522 1.142 0 .57-.38.761-.761.951a2.958 2.958 0 0 0-1.141 1.521c-.381.571-.761.951-1.142 1.332-1.142 1.332-2.854 1.902-4.566 2.664-1.332.57-2.664.951-3.805 1.332-.38.189-.951.189-1.332.189-2.664.381-5.518.381-8.181-.189-.381 0-.571-.191-.952-.381-.761-.381-1.712-.762-2.473-1.332-1.522-1.142-3.234-1.902-4.376-3.615-.19-.38-.571-.57-.951-.761-1.142-.951-2.093-2.283-2.854-3.425-.761-.951-1.142-1.902-1.712-2.854-1.331-.379-1.521-.568-1.902-.759zm32.724-4.186c.381-1.712.761-3.424.952-5.137.38-2.093.38-4.376.571-6.469 0-.951.38-1.902.19-2.664-.38-1.902.38-3.994-.38-5.897-.19-.38.19-.951 0-1.522-.19-1.141-.19-2.283-.761-3.234s-.761-1.902-.571-3.044c0-.19 0-.19-.19-.38-.381-1.143-.761-2.474-1.142-3.615-.19-1.142-.38-2.474-.571-3.615-.19-.951-.38-1.902-.761-2.854-.38-.762-.951-1.142-.761-2.093 0-.381-.19-.761-.381-1.142-.19-.381-.38-.57-.38-.952-.19-.761-.38-1.712-.761-2.283a69.443 69.443 0 0 0-2.664-5.328c-.571-.951-1.522-1.522-1.902-2.473a8.425 8.425 0 0 0-2.283-2.854c-.38-.38-.38-.761-.761-.951-1.332-.761-2.473-1.903-4.186-1.332-.19 0-.38 0-.38-.19-1.142-.571-2.283-.381-3.425-.571-1.332-.19-1.902 1.142-2.854 1.522-.571.19-1.141.951-1.712 1.332-.571.57-1.522.951-1.903 1.712-.38.761-.951 1.332-1.522 2.093-.38.761-1.142 1.332-1.142 2.093-.19.571 0 1.142-.38 1.522-.381.19-.761.571-.761.951-.761 1.522-1.522 3.044-2.093 4.566-.38.951-.571 2.093-.951 3.044-.19.951-.761 1.902-.761 3.044 0 .952-.571 1.903.19 3.044v.571c-.19.951-.19 2.093-.381 3.044-.19 2.093-.19 4.186-.38 6.469 0 1.332 0 2.664.19 3.996.19 1.902.571 3.805.761 5.707.19 1.142 0 2.474.761 3.615.38.761.38 1.902.761 2.664.19.57.571 1.331.761 1.902.571 1.332 1.142 2.473 1.712 3.805.38.951.951 1.713 1.332 2.664.571 1.332 1.141 2.664 1.902 3.805.761.951 1.142 2.283 2.474 3.045l.19.189c.761.762 1.522 1.713 2.474 2.474.951.761 1.522 1.712 2.854 2.093.952.19 1.903.951 3.044 1.142 2.473.571 4.947.19 7.42-.19.761-.189 1.522-.189 2.093-.57.952-.57 1.903-1.332 2.854-1.902l1.142-1.143c.19-.189 0-.57.19-.761.38-.951.571-1.902 1.141-2.854.381-.951 0-1.332-.761-1.712-1.903-.951-3.615-2.283-4.376-4.377 0-.189-.38-.38-.38-.38-.19-.19-.571-.381-.571-.761-.381-1.332-1.903-1.902-2.093-3.426-.761-.76-.952-1.712-1.142-2.663 0-.19 0-.571.19-.951.571-.951 1.903-1.522 3.044-.951.19 0 .571.19.571.38.19 1.143.571 2.094 1.332 2.854.19.19.19.38.19.571.19.189.19.38.38.57.951 1.142 1.712 2.093 2.664 3.234.001.763.571 1.715 2.093 1.524zM274.924 289.574c.951-.381 2.093-.762 3.045-1.143 1.331-.57 2.473-1.331 3.805-2.092.189 0 .381 0 .57-.19.571-.19.951-.381 1.522-.571 1.331-.57 2.474-1.332 3.995-1.712 2.283-.571 4.757-.951 7.04-1.712 3.614-.951 7.42-1.143 11.034-1.143 1.143 0 2.094.191 3.235.381.38 0 .951.19 1.331.19 1.713 0 3.234.761 4.757 1.331 1.142.381 2.283 1.143 3.615 1.332.761 0 1.712 1.143 2.473 1.713.19.19 0 .57 0 .951 0 .19-.189.381-.189.381-.19.57-.381 1.521-.762 1.521-1.331 0-2.663.571-3.614-.57-.19-.19-.571-.381-.951-.57-.381-.191-.571-.191-.952-.381-.38-.19-.951-.571-1.331-.571-1.522 0-2.854-.57-4.187-1.142-1.712-.57-3.425-.761-5.137-.381h-.38c-2.854-.57-5.708.191-8.562.762-1.521.19-3.044.57-4.375.951-1.903.57-3.615 1.521-5.518 2.093-2.474.761-4.566 2.283-6.85 3.234-.951.381-1.902.761-2.854 1.332s-1.713 1.331-2.475 2.093l-1.711 1.142c-.191.19-.381.19-.571.38-.761 1.332-2.093 2.094-3.425 2.854-.381.19-.951.571-1.142.571-.571-.381-1.332-.762-1.712-1.332-.381-.381-.381-.951.189-1.522.19-.19.571-.571.571-.761.571-1.332 1.142-2.474 2.283-3.615.38-.381.571-1.142.951-1.902l.571-1.142c.76-.761 1.331-1.522 1.902-2.474.761-1.713 1.902-3.234 2.663-4.947.381-.76.952-1.712 1.332-2.473.19-.381.38-.57.571-.762.57-.38 1.141-.76.951-1.712 0 0 0-.19.189-.19.762-1.141 1.713-2.473 2.474-3.614.761-1.332 1.332-2.854 1.903-4.187.189-.57.57-1.141.951-1.712 1.712-2.093 2.663-4.376 3.805-6.659.381-.57.762-1.141 1.142-1.902.19-.381.571-.951.571-1.332 0-1.141 1.141-1.712 1.521-2.664.19-.76.57-1.521.951-2.282.762-1.522 1.713-2.854 2.664-4.376.761-1.142 1.332-2.474 1.902-3.615.381-.761.951-1.712 1.332-2.473.761-1.142 1.712-2.093 2.473-3.044l2.283-3.995c.381-.761.762-1.332 1.332-2.283-.57.19-.951.19-1.142.38-1.712.761-3.425.761-5.327.952-.951 0-1.902.19-2.664.38-.189 0-.57 0-.761.19-.951.19-1.902.19-3.044.381-.57 0-.951 0-1.521-.19-.381 0-.951-.19-1.332-.19-1.522 0-3.234-.19-4.757-.19h-.19c-.57-.951-1.521-.951-2.283-1.142-.951-.38-1.712-.761-2.663-1.142-.381-.19-.571-.19-.952-.19-1.331-.19-1.712-.38-1.902-1.902 0-.38-.189-.761-.189-1.142 1.521-.571 3.044-.951 4.566-.38 1.521.571 2.854 1.142 4.375 1.522.762.19 1.522.19 2.474.38 1.712.19 3.614.381 5.327.19 2.283-.19 4.566-.761 6.85-.951 2.283-.19 3.995-1.332 6.088-1.903 1.142-.38 2.283-.951 3.425-1.522.761-.38 1.332-.951 1.902-1.522 1.142-.952 2.093-.952 3.234 0 .381.19.571.761.762 1.332.19.761.38 1.712-.571 2.283-.761.571-1.521 1.142-2.283 1.712-1.142.761-1.521 1.902-2.093 2.854-1.142 1.522-2.282 3.044-3.234 4.566-.761 1.142-1.331 2.283-2.093 3.234-.57.952-1.142 1.903-1.902 2.664-.951 1.142-1.332 2.474-1.902 3.805-.571 1.142-1.332 2.283-2.094 3.424l-1.712 2.854c-1.142 1.902-2.093 3.806-3.234 5.897-.19.191 0 .571-.19.762-.189.381-.381.761-.57 1.142-.381.761-.951 1.522-1.332 2.282-.762 1.522-1.713 2.854-2.474 4.377-.951 1.712-2.093 3.424-2.854 5.327-1.142 2.282-2.283 4.376-3.806 6.469-1.141 1.331-1.902 2.854-2.663 4.376-.761 1.141-1.522 2.473-2.093 3.805-.19.19-.19.571-.19.762-.187-.19-.187-.19-.187 0z"/><path d="M242.009 274.163c.19-1.903.19-3.615.19-5.518 0-1.522-.19-3.234-.19-4.757v-2.473-.571c-.19-1.522-.381-3.234-.571-4.757v-1.902c-.19-1.521-.381-3.044-.761-4.566-.19-.761-.38-1.522-.571-2.093-.19-.952-.19-1.903-.19-2.854 0-.571 0-1.142-.19-1.712 0-.38-.19-.571-.19-.951 0-1.332.19-2.664.381-3.996.19-.951 1.522-1.522 2.283-1.142.571.381 1.522.571 1.712 1.522 1.142.571.761 1.522.571 2.283v.38l.571 4.566c.191 1.522.19 3.044.38 4.376 0 .57.19 1.332.381 1.902.38.951-.19 1.902.571 2.664.19.381-.19.951-.19 1.521 0 1.522-.19 3.426.38 4.757.381 1.332.571 2.283.381 3.614-.19 1.143 0 2.475-.19 3.806-.38 1.142 0 2.283.19 3.425v.762c-.19 1.521-.571 2.854-.952 4.375-.571 2.283-1.522 4.377-2.854 6.469-.571.951-1.332 1.713-1.903 2.474-.19.19-.571.19-.761.381-1.141.57-2.283 1.142-3.615 1.331-1.142.191-2.473.191-3.615.191-.761 0-1.522-.191-2.283-.191-.19 0-.38-.189-.571-.189s-.19-.381-.38-.381c-1.522-.381-2.474-1.713-3.615-2.473-.761-.571-1.522-1.143-2.093-1.903-.571-.571-.951-1.331-1.142-2.093-.19-1.521-.19-3.044-.761-4.566-.19-.761-.381-1.712-.571-2.473-.19-.951-.381-1.713-.381-2.664 0-1.332.19-2.854.19-4.186 0-.57 0-1.142.19-1.902 0-.381.19-.762.19-1.143v-.76c-.19-1.143-.19-2.283-.38-3.426 0-.761-.19-1.332-.19-2.092-.19-1.522-.19-2.854-.38-4.377v-5.327c0-1.522.571-2.283 1.903-2.283.761 0 2.473 1.712 2.283 2.283-.38 1.141 0 2.093 0 3.043 0 1.522.381 3.045.381 4.566-.19 2.094.761 4.186.571 6.279 0 .951.38 1.712.571 2.663v.571c-.571 1.332-.19 2.854-.381 4.186 0 .381-.19.951-.19 1.332 0 1.141.19 2.283.38 3.234.38 2.092.951 4.186 1.522 6.469 0 .38.571.57.761.951 1.332 1.521 2.854 2.473 4.756 2.854 1.712.381 3.425.19 4.947-.951 1.522-1.332 2.283-3.045 2.854-4.756.19-.381.38-.762.38-1.143.19-.761.38-1.712.571-2.473l-.38-.186zM260.465 246.004c.189 1.903.189 3.425.38 4.947.19 1.522.38 3.045.38 4.757 0 .57-.189 1.142 0 1.902 0 .951.191 2.093.381 3.044v2.474c.19 1.522.19 3.044.381 4.566v2.854c0 .761.19 1.712.19 2.474 0 .761-.19 1.332-.19 2.093 0 .38 0 .761-.19.951 0 .19 0 .571-.19.571h-1.521c-.951.38-1.713 0-2.283-.951-.762-1.332-.951-2.664-.57-4.187.189-.951 0-2.093 0-3.044s.189-1.713.189-2.664-.381-1.902-.381-2.663v-4.946-2.283c0-.571-.189-1.143-.38-1.902l-.571-4.567v-4.947c0-.951.762-1.142 1.522-1.522.38-.19.951 0 1.522.19 1.901.951 1.139 2.473 1.331 2.853zM147.451 255.708H146.119c-1.142-1.142-2.664-1.332-3.995-1.903-1.332-.57-2.854-.761-4.186-1.141-.19 0-.38-.19-.571-.19-1.712-.761-3.615-1.712-5.518-2.474-1.141-.38-1.902-.951-2.854-1.332-1.142-.57-2.093-.951-3.044-1.522-1.522-.951-3.044-1.522-4.756-2.093-1.142-.38-2.283-.951-3.425-1.332-.951-.19-1.902-.381-2.854-.381-1.142 0-.952-.951-1.522-1.332 0 0 0-.571.19-.951.19-.19.571-.19.761-.19.761.19 1.712.38 2.473.571.951.19 2.093.38 3.044.571.761.19 1.522.19 2.283.38 2.093.38 3.996 1.142 5.898 2.283.381.19.952.19 1.332.38 1.522.761 3.234 1.332 4.756 2.093.761.381 1.522.381 2.283.761 1.142.38 2.093.951 3.234 1.332 1.332.57 2.854.951 4.186 1.331 1.903.571 3.615 1.332 5.137 2.094.761.38.951.951.951 1.712-.19.761-.571 1.142-1.332 1.142-.379.191-.759.191-1.139.191zM117.58 274.163h3.805c1.522 0 2.854-.19 4.376-.19.951 0 2.093.19 3.044.19 1.142 0 2.283-.19 3.615-.381.19 0 .381-.19.571 0 1.522.381 3.044.381 4.566.19 1.142 0 2.473.19 3.615.19.761 0 1.522.19 2.283 0 .951-.19 1.903-.19 2.664.19.951.38 1.142.951.951 1.902-.19 1.142-.761 1.142-1.712 1.332-3.805.381-7.801 0-11.606.189-1.522 0-3.044-.38-4.756.191h-7.992c-1.522 0-3.044.189-4.756.189-1.142 0-1.902-.189-2.664-.951-.571-.762-.571-1.902.38-2.093 1.333-.757 2.474-.948 3.616-.948 0-.19 0-.19 0 0zM127.283 313.736c-.19-.57-.761-1.141-.761-1.712s.19-1.522.571-1.712c1.522-1.143 3.234-2.094 4.947-3.045.951-.57 2.093-.951 3.044-1.521.571-.19.952-.571 1.332-.762 1.522-.951 2.854-1.902 4.376-2.663l4.566-2.283c.38-.19.951-.38 1.332-.571.571-.189 1.142-.38 1.712-.57.19 0 .38 0 .571-.19.761-.761 2.093-.19 2.664.571a.92.92 0 0 1 0 1.332c-1.142.761-2.473 1.521-3.805 2.283-1.332.76-2.854 1.331-4.186 2.092-1.903 1.143-3.805 2.664-5.898 3.996-.952.57-2.093.951-3.044 1.521a35.893 35.893 0 0 0-3.805 1.902c-.571.381-1.142.952-1.712 1.143-.382-.191-1.143 0-1.904.189zM151.636 316.971c-.38-.189-1.142-.189-1.522-.38-.381-.19-.381-.761-.571-1.142-.38-.57-.38-.762.19-1.142l2.854-2.854c.571-.57 1.332-1.141 2.093-1.712 1.142-.761 2.093-1.712 3.234-2.474.571-.381 1.522-.57 1.903-.189.571.38 1.142.951 1.142 1.902-.19 1.521-1.142 2.093-2.283 2.854-1.902 1.332-3.615 2.854-4.947 4.566-.571.381-1.142.761-2.093.571zM128.805 260.654c.38-.57.761-.951.951-1.332.571-.761 1.142-.761 1.903-.189.571.57 1.522.761 2.093 1.141l1.712.571c1.902.38 3.995.951 5.898 1.332 1.142.19 1.902 1.331 1.902 2.474 0 .57-1.142 1.332-1.712 1.332-.571 0-1.332-.191-1.903-.381-2.093-.571-4.376-1.142-6.278-2.283-.761-.381-1.522-.762-2.283-1.332-.19 0-.19-.19-.38-.19-.952.189-1.332-.572-1.903-1.143zM134.703 290.335c0-.19.19-.38.38-.571.571-.38.952-.761 1.712-.951 2.283-.57 4.566-1.141 6.659-1.712.761-.19 1.332-.381 2.093-.571.761-.189 1.332 0 1.522.762.381.57.761 1.141 0 1.712-.951.761-2.093 1.142-3.234 1.522-1.902.57-3.615 1.141-5.327 1.902-2.092.951-3.805 0-3.805-2.093zM257.61 233.257c-1.332 0-2.283-.951-2.854-1.903-.57-.951-.38-2.854.381-3.615 1.902-2.093 4.376-1.903 6.088.19.952 1.141.762 2.093.571 3.424 0 0 0 .19-.19.19-1.141.763-2.473 1.714-3.996 1.714zM222.032 197.108c-.19-.38-.57-.761-.761-1.332-.38-.951-.571-1.903-.951-2.854-.381-.761-.761-1.522-.952-2.473-.19-.571-.38-1.332-.761-1.712-.571-.761-.761-1.712-1.142-2.664-.38-.952-.761-2.093-1.332-2.854s-.571-1.522-1.142-2.283-.761-1.522-1.522-2.093c-.38-.19-.19-.951-.38-1.332-.19-.571-.38-.951-.761-1.332 0 .951 0 1.902.19 2.854 0 1.902 0 3.615.19 5.517v4.186c0 1.142.38 2.283.38 3.424v6.85c0 .951.38 1.902.38 2.854v3.044c0 .951-.19 1.903 0 3.044.19.952 0 1.903.19 2.664.19 1.142-.38 2.283.38 3.425.19.19 0 .571 0 .761 0 .951-.19 2.093 0 3.044 0 1.142.19 2.093.571 3.234.38 1.712-.951 3.234-2.664 2.854-.19 0-.38-.38-.571-.571-1.142-1.142-.571-2.664-.951-3.996-.19-1.142-.19-2.473-.38-3.805-.19-1.141-.19-2.093-.19-3.234 0-.951 0-1.712-.19-2.664v-1.332-5.518c0-1.142-.19-2.093-.19-3.234v-4.566c0-1.142-.381-2.283-.381-3.615 0-.761-.19-1.712 0-2.474.19-1.522 0-3.044 0-4.566-.19-1.712 0-3.425-.19-5.137 0-.38 0-.761-.19-1.332.38-.381.19-3.425-.38-4.376.19-.761.38-1.332.38-1.903-.19-1.522-.38-2.854-.571-4.186 0-1.712 0-3.425.19-5.137 0-.38.951-.951 1.332-1.332.19-.19.571-.381.951-.571 1.142.38 1.712 1.332 1.903 2.664.19 1.142.951 2.283 1.332 3.425.19.761.381 1.522.761 2.093.38.761.761 1.522.951 2.283.19.38.19.951.381 1.522h.571v.19c0 .761.19 1.142.571 1.712.761.761 1.141 1.903 1.522 2.664.571 1.142 1.142 2.093 1.712 3.234.571.952 1.142 1.903 1.522 3.044.761 1.522 1.712 3.234 2.473 4.947 0 .19.19.38.19.571.571 1.522 1.142 2.854 1.712 4.376h.19c.19-.571.571-1.332.761-1.903.38-1.332.571-2.664.951-3.995.19-.952.571-1.903.761-2.854v-.19c0-1.142 0-2.283-.19-3.425v-3.615c0-1.142-.19-2.473-.19-3.615.19-1.712-.571-3.234-.761-4.947-.19-1.522-.571-3.044-.951-4.566-.19-.571-.381-1.142-.571-1.522 0-.19-.381-.19-.571-.38-.19-.761-.571-1.712-.761-2.474-.19-.951.19-2.093 1.142-2.473.19-.19.38-.19.571-.38.38-.19.951-.761 1.142.38 0 0 .19.19.38.19.571.381.952.571 1.142 1.332.19.761.761 1.522 1.142 2.283.38.951.571 1.902.761 2.854 0 .38.19.571.19.951s.19.571.19.951c0 .571 0 1.142.19 1.712.571 1.332.951 2.854.571 4.376v.38c.571.761.571 1.522.571 2.474-.19 1.332 0 2.664 0 3.995 0 .381-.19.761-.19 1.142s.19.951.38 1.332c0 .38-.571.38-.38 1.142.19.571-.19 1.522-.38 2.283-.19 1.332-.381 2.664-.761 3.996-.38 1.522-.951 3.044-1.522 4.566 0 .19-.19.38-.19.38.38 1.142-.38 1.712-.761 2.664-.571 1.522-1.142 3.234-.761 4.947.38 1.332 1.142 2.473 1.712 3.805.19.38.38.571.38.951.19.761.19 1.712.571 2.474.19.571.761.951 1.142 1.522.19.19.38.19.38.38.19 1.142.19 2.093.381 3.234l.57 2.854v.761c-.19.761-.38 1.712-.38 2.473 0 .571-.571.761-.571 1.142-.19.761-.951 1.142-1.332 1.522-.381.571-.952.571-1.522.761-.951.19-1.902.38-2.854 0-1.332-.381-2.283-1.522-2.854-2.664-.38-.571-.571-1.142-.571-1.712-.19-.951-.761-2.093-.951-3.044-.19-1.141-.381-2.473-.19-3.615.19-2.664.571-5.327.951-7.991 0-.571.19-1.332.381-1.903.571-1.142-.19-1.902-.571-2.854-.379-.757-.569-1.328-.95-2.089zm4.757 11.035h-.19c0 .761-.19 1.522-.19 2.283 0 1.142-.19 2.473-.19 3.615 0 .571.38 1.332.761 1.903 0 .19.19.19.19.38-.19.951.38 1.712.761 2.283.19.19.38.38.571.38.19-.19.38-.38.38-.761 0-.951.38-1.902 0-2.854-.38-1.522-.571-3.044-.951-4.566-.382-.76-.762-1.712-1.142-2.663zM169.33 168.569l.952-.951c.571-.381.951-.952 1.712-.571 0 0 .19-.19.38-.19.38.38.761.761 1.332 1.142s1.142.571.952 1.522c0 .38 0 .951.761.951.19 0 .19.381.19.761.38 1.522.571 2.854.951 4.376v.571c-.19 1.142.761 1.902.38 3.044.952 1.712.761 3.615 1.332 5.327.38 1.522.951 3.234 1.142 4.757.38 1.902.951 3.805.951 5.708 0 .571.38 1.332.571 1.903.38.951.761 2.093.761 3.044 0 1.332.761 2.474 1.142 3.615.19.57.19.951.38 1.522.38 1.332.951 2.664 1.522 3.995.19.381.571.571.571.761.19.19.38.571.761.761l.38.381c.19 1.332 1.332 1.712 2.473 1.902 1.142.381 2.474.571 3.615.952.761.19.571.761.761 1.332 0 .19 0 .38.19.761-.571.571-1.142 1.142-1.712 1.902 0 0 0-.19-.19-.19-.381 0-.761 0-1.142.19-.571.19-1.142.38-1.712 0-.381-.19-.952-.19-1.332-.38-.571-.19-1.332-.38-1.902-.761-1.903-.951-2.854-2.854-4.186-4.376-.761-.951-.951-2.093-1.332-3.044-.571-1.332-.951-2.664-1.332-3.996-.19-.571-.19-1.142-.38-1.712-.571-2.474-1.332-4.947-2.093-7.23-.38-1.522-.571-3.234-.761-4.947-.19-.951-.571-1.903-.761-3.044-.381-1.903-1.142-3.806-1.142-5.898 0-1.332-.761-2.854-1.142-4.186-.19-.761-.38-1.522-.761-2.093h-.38c-.38 1.142-.951 2.283-1.332 3.615-.38 1.332-.761 2.854-1.332 3.996-.571 1.332-1.712 2.283-3.234 2.473-.761.19-1.712-.38-2.474-.951-.951-.38-1.522-1.142-2.473-1.522-1.332-.761-2.473-1.332-3.996-2.093.19.761 0 1.332.19 1.902.951 2.474 1.142 5.327 1.712 7.801.38 1.142.761 2.473.951 3.615.38 1.522.38 3.234.761 4.756.38 1.712 0 3.615.19 5.328 0 1.142.19 2.473.381 3.615 0 .571-.381 1.332.38 1.712v.19c-.19 1.332-.38 2.473-.571 3.805a14.35 14.35 0 0 1-1.712 5.517c-.19.381-.38.571-.38.952-.19 1.332-1.332 1.712-2.093 2.473-.571.761-1.332 1.332-2.093 1.903-.381.19-.952.38-1.332.571-.38.19-.761.19-1.142.19h-.38c-.381-.571-.571-1.142-.761-1.712-.19-.571 0-.951.571-1.141.38-.19.761-.571.951-.952.571-.761 1.332-1.522 1.903-2.093 1.142-1.142 1.522-2.664 1.902-4.186.19-.571.381-1.332.571-1.903.19-1.142.19-2.093.19-3.234s0-2.283-.38-3.424c-.19-.952 0-1.903 0-2.854l-.571-5.708c-.19-.951-.19-1.712-.381-2.664-.38-1.332-.761-2.473-1.141-3.805v-1.142c-.19-1.142-.19-2.283-.38-3.425-.19-.951-.571-1.712-.761-2.664-.381-1.332-.571-2.854-.761-4.186 0-.19-.19-.571-.19-.761-.571-.57-1.142-1.712-.571-2.473.19-.38.952-.571 1.332-.761.571-.19.951-.38 1.522-.38.761-.19 1.142 0 1.712.38.571.381 1.332.381 2.093.761 1.142.571 2.283 1.142 3.615 1.903.952.57 2.093.951 2.854 1.902 0 0 .571-.19.761-.38.38-.761.571-1.712.951-2.474.38-1.332.761-2.854 1.332-4.186 0-.38.19-.571.38-.761.38-.761.951-1.332.38-2.283 0 0 .38-.571.571-.571.571 0 .571-.381.571-.761v-1.332c-.378-.189-.188-.189-.188-.189zM250 181.507v7.61c0 .571.19 1.142.19 1.712v2.093c0 .571.19 1.142 0 1.522-.381.761-.19 1.522 0 2.283 0 1.522.38 3.044.38 4.756 0 1.142.762 2.474-.38 3.425 0 1.332-1.142.951-1.712 1.332-.19 0-.571 0-.571-.19-.19-.761-.761-.571-1.142-.571-.571 0-.571-.38-.571-.761v-.951-1.902c0-1.142-.19-2.093-.19-3.234v-.381-2.283c0-.571 0-.952.19-1.522v-3.615c0-.951-.19-1.712-.38-2.664 0-.571.19-1.332.19-1.903v-5.327c0-.571.381-.951.571-1.522.19-.38.571-.571 1.332-.38.571.19 1.332 0 1.712.38.191.38.381 1.142.381 2.093zM195.396 189.878c-.19.38-.57.761-.38.951.571.951.19 2.473 1.332 2.854v1.712c0 .571-.381 1.142-1.142 1.332l-1.712.571c-.38-.19-.571-.571-.761-.761-.571-.19-1.141-.38-.951-1.332 0-.19-.38-.571-.38-.951v-2.093c-.19-1.141-.38-2.093-.571-3.234-.19-.951-.19-1.902-.19-3.044 0-.761-.19-1.332-.38-1.902-.19-.761-.38-1.522-.38-2.093 0-1.902 0-3.805-.571-5.517 0-.19.38-.761.761-.952.761-.571 1.712-.38 2.664 0 .19 0 .19.381.19.761.38 1.522.571 3.044.951 4.566 0 .19.19.57.19.761.38.951.19 1.712.19 2.664.19 1.712.571 3.234.951 4.756-.382.571-.001.951.189.951zM245.244 162.671c-.19-.19-.381-.19-.571-.19.951-.951 1.712-2.093 2.854-2.664 1.902-1.142 3.615-.571 4.756 1.332.189.38.189.761.189 1.141V164.002c-.38.761-.76 1.712-1.331 2.283-.761.761-1.712 1.522-3.044 1.142-.381-.19-.761-.19-1.332-.38-1.142-.19-.951-1.522-1.712-2.093-.19-.19 0-.761 0-1.141-.19-.571 0-.761.191-1.142zM187.215 162.291c-.19-.571-.381-1.332-.761-2.093-.38-1.142.19-2.283.951-3.044.571-.571 1.712-.761 2.664-.571.19 0 .571.19.571.38.381.952 1.142 1.903.952 3.044 0 .38.19.761 0 .951-.381.761-1.522 1.332-2.474 1.142-.572.001-1.333.191-1.903.191z"/></g></svg>