<svg xmlns="http://www.w3.org/2000/svg" xmlns:xlink="http://www.w3.org/1999/xlink" width="977.862" height="1128.5" viewBox="0 0 977.862 1128.5"><defs><path id="a" d="M0-.003h977.862V1128.5H0z"/></defs><clipPath id="b"><use xlink:href="#a" overflow="visible"/></clipPath><path clip-path="url(#b)" fill="#FFF" d="M973.004 1101.329c-3.582-.521-7.302-.193-10.955-.088-15.283.44-30.562 1.198-45.849 1.358-23.958.251-48.057-1.508-71.846.528-33.623 2.878-67.163.465-100.721 1.389-1.896.052-3.388-.123-4.587-.578-13.712 3.389-27.408 3.844-41.622 2.054-17.613 1.025-77.096 3.629-80.736 3.9-17.866 1.338-35.601 3.98-53.674 2.776-11.906-.793-23.938.488-35.913.531-20.284.071-40.572.066-60.853-.242-10.295-.156-20.574-1.188-30.869-1.57-14.634-.545-29.332-.201-43.9-1.448-15.59-1.334-31.092-2.701-46.775-1.886-7.272.378-14.641-.226-21.917-.91-24.542-2.304-49.056-1.145-73.61-.243-13.531.496-59.384-1.174-64.097-.764-10.258.89-20.541 1.75-30.828 1.991-20.273.475-40.577.001-60.828.868-28.565 1.222-56.917 6.099-85.623 5.229-3.524-.105-6.588.61-7.801 5.34 8.095 6.89 17.727 7.896 27.848 7.202 11.62-.795 23.252-1.446 34.859-2.387 19.869-1.612 39.7-3.892 59.693-1.899 2.944.293 5.973-.364 8.967-.468 6.285-.218 12.575-.328 18.862-.542 6.614-.225 13.229-.451 19.838-.802 9.265-.492 18.519-1.41 27.787-1.547 5.609-.082 11.229 1.371 16.851 1.432 14.924.161 29.852-.111 44.778-.11 14.941.001 29.885-.048 44.822.258 9.267.189 18.517 1.251 27.785 1.471 16.568.394 33.219-.47 49.701.859 24.9 2.007 49.733 4.161 74.738 2.756 1.955-.109 3.943.456 5.922.62 9.249.765 18.504 2.143 27.75 2.092 13.267-.073 26.604-2.417 39.77-1.582 19.612 1.244 39.03 1.536 58.636-.341 21.764-2.083 43.658-2.847 65.503-4.028 19.862-1.074 39.73-2.066 59.605-2.83 6.945-.267 13.93.518 20.885.351 12.871-.31 25.73-1.284 38.601-1.386 10.945-.086 21.916 1.288 32.839.92 21.875-.736 43.713-2.577 65.588-3.259 11.904-.371 23.856 1.116 35.781 1.021 18.924-.152 37.841-1.045 56.767-1.365 5.115-.087 9.113-1.907 12.14-5.752 3.022-3.845 1.457-8.227-3.312-8.919"/><path clip-path="url(#b)" fill="#FFF" d="M177.249 1075.761c2.009-1.106 3.671-3.218 5.769-3.726 15.124-3.667 25.008-15.576 37.179-23.76 10.19-6.852 18.976-15.794 28.678-24.061 1.088 1.366 1.794 2.45 2.688 3.346 6.522 6.542 7.67 6.612 16.28 2.182 2.173-1.119 4.659-1.629 8.045-2.769.087 6.068 1.035 11.164.078 15.872-4.616 22.695-10.113 45.214-14.48 67.953-.076.399-.163.782-.254 1.155a1657.814 1657.814 0 0 1 15.929-3.413c.32-1.083.691-2.148.945-3.235 3.853-16.452 8.148-32.861 10.768-49.524 2.036-12.943 1.83-26.239 2.679-40.335 13.319-6.704 26.398-9.396 38.255-1.376 2.721 18.308 4.998 35.358 7.921 52.298.948 5.493 3.607 10.689 5.445 16.034 1.461 4.248 4.404 27.896 5.926 32.369 4.277-.734 8.554-1.474 12.834-2.191l3.724-.626c-1.02-2.944-3.541-25.274-4.556-28.22-3.212-9.327-7.329-18.461-9.378-28.037-2.249-10.508-2.589-21.424-3.933-33.74 3.32 2.03 5.679 3.582 8.136 4.958 4.921 2.756 9.757 5.726 14.884 8.04 6.331 2.857 12.919 5.144 19.399 7.667 11.974 4.662 23.888 9.49 35.96 13.883 4.351 1.583 9.127 2.411 13.004-1.586 1.112-7.129-.086-13.19-4.597-19.286-6.655-8.993-12.151-18.858-17.952-28.465-3.509-5.813-7.251-11.687-5.493-19.884 4.069.384 7.634.747 11.205 1.046 2.646.221 5.337.728 7.94.455 6.743-.706 9.028-3.906 6.295-10.152-2.495-5.698-5.703-11.33-9.683-16.081-7.673-9.157-11.389-20.136-15.132-30.987-3.98-11.54-6.268-23.653-9.971-35.303-2.513-7.908-6.356-15.384-9.276-23.176-1.293-3.452-1.774-7.209-3.126-12.965 7.456 2.633 12.723 4.36 17.887 6.354 5.151 1.987 10.132 3.702 14.586-2.102l-5.63-21.79c10.615-6.079 11.332-12.464 1.772-19.6-4.218-3.148-6.995-6.642-8.723-11.633a62.684 62.684 0 0 0-7.107-14.246c-7.884-11.762-12.728-24.532-14.366-38.566-.149-1.274-.511-2.553-.963-3.758-5.066-13.54-10.182-27.062-15.257-40.6-1.222-3.262-2.338-6.566-3.85-10.836 4.1.821 6.949 1.557 9.844 1.931 4.478.579 9.756 3.024 12.934-1.778 3.09-4.668.937-9.542-1.913-13.946-1.803-2.787-3.414-5.705-5.009-8.619-4.134-7.552-8.299-15.088-12.29-22.715-5.352-10.23-10.162-20.768-15.955-30.735-3.97-6.831-8.38-13.02-10.884-20.937-5.865-18.539-14.103-36.336-15.238-56.171-.21-3.66-1.038-7.781-5.414-8.59-4.506-.833-8.854.611-11.109 4.91-2.606 4.966-4.766 10.193-6.774 15.438-3.973 10.385-2.987 23.283-15.17 29.457-.54.273-.915.972-1.248 1.541-4.344 7.44-8.76 14.842-12.978 22.354-11.856 21.109-23.448 42.36-37.574 62.111-6.307 8.819-11.957 18.107-17.775 26.985 6.575 9.217 8.239 9.719 17.327 5.102 5.415-2.751 10.72-5.718 16.782-8.968-7.669 15.563-14.927 30.382-22.269 45.159-3.539 7.123-7.263 14.153-10.853 21.251-4.481 8.856-8.765 17.816-13.401 26.592-5.371 10.167-11.031 20.182-16.655 30.426 9.869 6.403 17.823-1.716 27.315-1.567-1.505 3.244-2.514 5.596-3.665 7.873-5.214 10.312-10.787 20.456-15.591 30.954-3.049 6.665-.579 9.998 6.74 10.611 1.625.136 3.952-.754 4.805.05 5.461 5.143 12.207 5.324 20.454 4.68-1.987 4.22-3.214 7.203-4.749 10.02-7.602 13.933-15.206 27.866-22.969 41.71-5.836 10.408-12.096 20.58-17.84 31.037a1348.244 1348.244 0 0 0-20.404 38.632c-1.569 3.09-3.922 7.463-.106 10.003 3.001 1.997 7.373 2.676 11.104 2.586 2.738-.065 5.396-2.389 8.14-3.588 2.576-1.127 5.22-2.1 10.146-4.061-2.578 5.587-3.972 8.875-5.581 12.054-8.379 16.569-16.85 33.091-25.197 49.676-1.754 3.484-2.225 7.011 1.378 9.901 3.512 2.815 7.262 3.196 11.158 1.048m18.765-46.697c4.897-9.426 10.479-18.496 15.762-27.721.33-.576.824-1.145.907-1.76.73-5.399 4.881-11.493-.1-16.02-4.712-4.283-9.991-.075-14.766 1.944-3.264 1.38-6.44 2.969-11.686 5.409 4-8.684 6.706-15.601 10.253-22.057 9.415-17.134 19.232-34.048 28.817-51.09 9.256-16.459 18.432-32.963 27.606-49.467.474-.851.851-1.902.832-2.851-.05-2.471.543-6.263-.734-7.116-2.401-1.607-6.025-2.27-8.977-1.924-3.043.354-5.892 2.378-8.642 3.589-.525-4.812.323-9.801-1.779-12.463-1.841-2.332-6.992-2.053-11.149-3.037 1.39-8.271 8.273-13.841 11.882-21.162 2.771-5.622 6.493-10.772 9.353-16.357 2.954-5.767.049-10.095-6.32-9.435-2.864.298-5.699 1.587-8.373 2.808-2.956 1.352-5.713 3.141-10.811 6.003 3.401-7.254 5.656-12.464 8.242-17.505 6.496-12.666 13.21-25.221 19.704-37.888 5.755-11.223 11.906-22.295 16.835-33.878 5.683-13.353 13.385-26.085 14.379-41.143.143-2.153 1.405-4.234 2.205-6.511-5.216-4.391-8.46-1.527-12.2 1.771-3.108 2.739-7.035 4.551-12.617 8.031 1.74-3.649 2.267-5.359 3.257-6.738 15.323-21.344 31.287-42.338 42.37-66.3 4.358-9.424 10.99-16.717 17.639-24.992 10.08 36.495 31.46 67.279 46.18 101.852-1.821.424-3.589.844-5.361 1.246-8.194 1.857-10.192 5.275-7.34 13.454 4.577 13.119 9.597 26.086 14.008 39.259 2.74 8.184 5.246 16.521 6.903 24.976 3.586 18.294 11.159 35.113 21.299 50.228 7.659 11.416 7.627 23.429 9.605 36.994-6.787-1.48-12.178-3.04-17.68-3.761-7.177-.941-10.398 2.405-10.194 9.649.36 12.906 5.79 24.51 9.524 36.522 4.818 15.501 10.381 30.771 15.196 46.273 3.144 10.121 6.381 20.047 13.618 28.157 1.516 1.697 2.548 3.826 4.738 7.195-3.296-.267-5.489.069-7.166-.708-2.04-.945-3.867-2.631-5.389-4.35-2.629-2.969-6.238-3.762-8.961-1.883-2.334 1.61-4.265 5.108-4.606 7.981-.456 3.841.634 7.914 1.362 11.832.667 3.592 1.719 7.114 2.624 10.663 2.71 10.619 5.085 21.275 14.094 29.006 3.053 2.619 4.835 6.717 8.455 11.96-9.163-.49-14.578-4.434-20.461-6.902-5.768-2.421-11.635-4.632-17.282-7.307-5.039-2.386-9.817-5.321-14.75-7.939-6.439-3.417-12.877-6.84-19.402-10.091-2.358-1.175-5.111-1.577-7.432-2.808-21.427-11.364-41.58-6.521-61.263 4.646-1.732.983-3.297 2.262-5.009 3.286-4.157 2.486-7.765 2.256-11.752-1.078-6.425-5.375-10.041-5.531-16.633-.518-8.443 6.421-17.325 12.631-24.392 20.409-9.637 10.604-21.749 16.951-35.038 23.172 3.508-7.865 6.65-15.924 10.616-23.555"/><path clip-path="url(#b)" fill="#FFF" d="M282.153 959.521c-4.067 3.934-7.229 7.355-10.789 10.296-2.243 1.855-4.924 3.508-7.684 4.352-9.496 2.902-14.79-.777-15.462-10.735-.379-5.633-.117-11.308-.157-16.965-.051-7.13 1.081-8.183 9.613-8.854 5.748 5.768 4.62 13.447 5.636 22.466 5.481-4.662 10.06-8.568 14.653-12.457 2.012-1.705 3.833-3.829 6.134-4.957 3.546-1.739 6.819-1.668 9.364 2.498 2.192 3.588 5.317 6.607 8.308 10.214 4.455-2.182 8.153-4.417 12.15-5.75 1.718-.573 5.224.113 5.856 1.313 1.016 1.93 1.38 5.782.169 7.035-5.756 5.962-11.815 11.227-21.319 11.007-7.361-.171-11.103-5.203-16.472-9.463M302.723 782.789c5.826-3.474 10.579-6.404 15.426-9.17 4.951-2.824 7.238-.395 8.521 4.665-4.54 4.819-8.667 10.055-13.679 14.226-3.385 2.815-7.834 4.873-12.137 5.933-5.652 1.393-10.444-.565-12.724-6.694-.801-2.149-2.2-4.079-3.297-6.056-4.838.861-9.522 2.021-14.273 2.441-4.087.359-6.319-2.149-5.638-6.235.982-5.883 1.984-11.824 3.756-17.497 1.721-5.506 6.483-6.965 10.829-3.068 2.776 2.488 4.949 3.366 8.642 3.054 7.73-.657 8.553.25 11.319 8.026.556 1.563 1.12 3.126 1.622 4.708.487 1.534.897 3.095 1.633 5.667M332.158 882.384c-1.09 4.797-2.029 8.937-2.971 13.078-8.67 3.564-10.124 3.762-15.363-2.843-5.526-6.966-10.298-14.581-14.886-22.22-2.335-3.888-.374-8.058 4.099-9.532 2.671-.88 5.682-.728 8.449-1.028l6.565 15.937c3.424-3.238 5.728-6.822 8.93-8.034 2.999-1.134 6.948.245 11.739.615.491-.426 1.775-2.217 3.487-2.844 1.848-.678 4.847-1.102 5.958-.1 1.101.994 1.186 4.192.482 5.921-2.801 6.872-9.188 9.123-16.489 11.05M301.312 666.401c4.01 4.344 6.896 4.008 10.1.777 3.946-3.979 8.254-7.631 12.652-11.113 2.116-1.678 4.796-2.644 7.094-3.865 4.873 4.778 4.641 8.683 1.082 12.888-7.248 8.562-14.656 16.854-24.695 22.405-3.02 1.671-5.398 2.001-8.181.04-3.063-2.156-4.427-4.934-3.108-8.559 1.347-3.7 2.927-7.315 5.056-12.573M565.728 1075.761c2.009-1.106 3.671-3.218 5.77-3.726 15.124-3.667 25.008-15.576 37.179-23.76 10.189-6.852 18.976-15.794 28.678-24.061 1.088 1.366 1.794 2.45 2.688 3.346 6.521 6.542 7.67 6.612 16.279 2.182 2.174-1.119 4.659-1.629 8.046-2.769.087 6.068 1.034 11.164.077 15.872-4.615 22.695-10.112 45.214-14.479 67.953-.077.399-.163.782-.254 1.155a1651.33 1651.33 0 0 1 15.929-3.413c.32-1.083.691-2.148.945-3.235 3.853-16.452 8.147-32.861 10.768-49.524 2.035-12.943 1.83-26.239 2.679-40.335 13.319-6.704 26.398-9.396 38.256-1.376 2.721 18.308 4.998 35.358 7.921 52.298.947 5.493 3.606 10.689 5.444 16.034 1.461 4.248 4.404 27.896 5.927 32.369 4.276-.734 8.554-1.474 12.834-2.191l3.724-.626c-1.02-2.944-3.541-25.274-4.556-28.22-3.212-9.327-7.329-18.461-9.378-28.037-2.249-10.508-2.59-21.424-3.934-33.74 3.32 2.03 5.679 3.582 8.136 4.958 4.921 2.756 9.758 5.726 14.885 8.04 6.331 2.857 12.919 5.144 19.398 7.667 11.975 4.662 23.888 9.49 35.96 13.883 4.352 1.583 9.127 2.411 13.004-1.586 1.112-7.129-.086-13.19-4.597-19.286-6.655-8.993-12.151-18.858-17.952-28.465-3.509-5.813-7.251-11.687-5.493-19.884 4.068.384 7.635.747 11.205 1.046 2.646.221 5.337.728 7.94.455 6.743-.706 9.027-3.906 6.295-10.152-2.495-5.698-5.703-11.33-9.684-16.081-7.673-9.157-11.389-20.136-15.132-30.987-3.98-11.54-6.268-23.653-9.971-35.303-2.513-7.908-6.356-15.384-9.276-23.176-1.293-3.452-1.773-7.209-3.126-12.965 7.456 2.633 12.724 4.36 17.888 6.354 5.15 1.987 10.132 3.702 14.586-2.102l-5.63-21.79c10.614-6.079 11.332-12.464 1.771-19.6-4.218-3.148-6.995-6.642-8.723-11.633a62.767 62.767 0 0 0-7.107-14.246c-7.885-11.762-12.728-24.532-14.366-38.566-.148-1.274-.512-2.553-.963-3.758-5.065-13.54-10.182-27.062-15.257-40.6-1.222-3.262-2.338-6.566-3.85-10.836 4.1.821 6.949 1.557 9.844 1.931 4.478.579 9.756 3.024 12.934-1.778 3.091-4.668.938-9.542-1.913-13.946-1.803-2.787-3.413-5.705-5.009-8.619-4.134-7.552-8.299-15.088-12.29-22.715-5.352-10.23-10.162-20.768-15.955-30.735-3.97-6.831-8.38-13.02-10.884-20.937-5.865-18.539-14.103-36.336-15.237-56.171-.211-3.66-1.038-7.781-5.414-8.59-4.507-.833-8.854.611-11.109 4.91-2.606 4.966-4.766 10.193-6.774 15.438-3.974 10.385-2.986 23.283-15.17 29.457-.54.273-.915.972-1.248 1.541-4.344 7.44-8.76 14.842-12.978 22.354-11.856 21.109-23.448 42.36-37.574 62.111-6.307 8.819-11.957 18.107-17.775 26.985 6.575 9.217 8.239 9.719 17.327 5.102 5.415-2.751 10.721-5.718 16.782-8.968-7.669 15.563-14.927 30.382-22.269 45.159-3.539 7.123-7.264 14.153-10.854 21.251-4.48 8.856-8.765 17.816-13.4 26.592-5.371 10.167-11.031 20.182-16.655 30.426 9.869 6.403 17.823-1.716 27.314-1.567-1.505 3.244-2.514 5.596-3.665 7.873-5.214 10.312-10.786 20.456-15.591 30.954-3.049 6.665-.579 9.998 6.739 10.611 1.625.136 3.953-.754 4.806.05 5.461 5.143 12.207 5.324 20.454 4.68-1.987 4.22-3.214 7.203-4.749 10.02-7.602 13.933-15.206 27.866-22.969 41.71-5.836 10.408-12.096 20.58-17.84 31.037a1345.723 1345.723 0 0 0-20.404 38.632c-1.568 3.09-3.923 7.463-.105 10.003 3.001 1.997 7.373 2.676 11.104 2.586 2.738-.065 5.396-2.389 8.14-3.588 2.576-1.127 5.221-2.1 10.146-4.061-2.578 5.587-3.972 8.875-5.581 12.054-8.379 16.569-16.85 33.091-25.197 49.676-1.754 3.484-2.225 7.011 1.378 9.901 3.511 2.815 7.261 3.196 11.157 1.048m18.764-46.697c4.897-9.426 10.479-18.496 15.763-27.721.33-.576.824-1.145.907-1.76.729-5.399 4.881-11.493-.101-16.02-4.712-4.283-9.991-.075-14.767 1.944-3.264 1.38-6.439 2.969-11.686 5.409 3.999-8.684 6.706-15.601 10.253-22.057 9.415-17.134 19.232-34.048 28.816-51.09 9.257-16.459 18.433-32.963 27.606-49.467.475-.851.852-1.902.832-2.851-.05-2.471.543-6.263-.733-7.116-2.401-1.607-6.025-2.27-8.978-1.924-3.044.354-5.892 2.378-8.642 3.589-.525-4.812.323-9.801-1.779-12.463-1.841-2.332-6.991-2.053-11.148-3.037 1.39-8.271 8.272-13.841 11.882-21.162 2.771-5.622 6.493-10.772 9.353-16.357 2.954-5.767.05-10.095-6.319-9.435-2.864.298-5.699 1.587-8.373 2.808-2.956 1.352-5.713 3.141-10.812 6.003 3.401-7.254 5.656-12.464 8.241-17.505 6.497-12.666 13.211-25.221 19.705-37.888 5.755-11.223 11.906-22.295 16.835-33.878 5.683-13.353 13.385-26.085 14.379-41.143.144-2.153 1.405-4.234 2.205-6.511-5.216-4.391-8.46-1.527-12.2 1.771-3.107 2.739-7.035 4.551-12.617 8.031 1.74-3.649 2.268-5.359 3.258-6.738 15.322-21.344 31.287-42.338 42.369-66.3 4.358-9.424 10.99-16.717 17.64-24.992 10.08 36.495 31.46 67.279 46.18 101.852-1.821.424-3.589.844-5.36 1.246-8.194 1.857-10.192 5.275-7.341 13.454 4.577 13.119 9.598 26.086 14.009 39.259 2.739 8.184 5.245 16.521 6.902 24.976 3.586 18.294 11.159 35.113 21.299 50.228 7.659 11.416 7.627 23.429 9.605 36.994-6.787-1.48-12.178-3.04-17.68-3.761-7.178-.941-10.398 2.405-10.194 9.649.36 12.906 5.79 24.51 9.524 36.522 4.817 15.501 10.381 30.771 15.195 46.273 3.145 10.121 6.381 20.047 13.618 28.157 1.516 1.697 2.548 3.826 4.738 7.195-3.296-.267-5.49.069-7.166-.708-2.04-.945-3.867-2.631-5.39-4.35-2.629-2.969-6.237-3.762-8.961-1.883-2.334 1.61-4.266 5.108-4.605 7.981-.456 3.841.634 7.914 1.361 11.832.668 3.592 1.72 7.114 2.625 10.663 2.709 10.619 5.084 21.275 14.094 29.006 3.052 2.619 4.835 6.717 8.455 11.96-9.163-.49-14.578-4.434-20.461-6.902-5.769-2.421-11.636-4.632-17.282-7.307-5.039-2.386-9.817-5.321-14.75-7.939-6.439-3.417-12.877-6.84-19.402-10.091-2.357-1.175-5.11-1.577-7.432-2.808-21.427-11.364-41.58-6.521-61.263 4.646-1.732.983-3.298 2.262-5.01 3.286-4.156 2.486-7.765 2.256-11.752-1.078-6.425-5.375-10.041-5.531-16.633-.518-8.443 6.421-17.325 12.631-24.392 20.409-9.638 10.604-21.749 16.951-35.038 23.172 3.511-7.865 6.652-15.924 10.618-23.555"/><path clip-path="url(#b)" fill="#FFF" d="M670.631 959.521c-4.066 3.934-7.229 7.355-10.789 10.296-2.242 1.855-4.924 3.508-7.684 4.352-9.496 2.902-14.79-.777-15.462-10.735-.379-5.633-.117-11.308-.157-16.965-.051-7.13 1.081-8.183 9.613-8.854 5.748 5.768 4.62 13.447 5.636 22.466 5.481-4.662 10.061-8.568 14.653-12.457 2.012-1.705 3.833-3.829 6.134-4.957 3.546-1.739 6.819-1.668 9.364 2.498 2.191 3.588 5.316 6.607 8.308 10.214 4.455-2.182 8.153-4.417 12.15-5.75 1.718-.573 5.224.113 5.855 1.313 1.017 1.93 1.38 5.782.169 7.035-5.756 5.962-11.814 11.227-21.318 11.007-7.361-.171-11.103-5.203-16.472-9.463M691.202 782.789c5.825-3.474 10.577-6.404 15.426-9.17 4.951-2.824 7.237-.395 8.521 4.665-4.54 4.819-8.667 10.055-13.679 14.226-3.385 2.815-7.835 4.873-12.137 5.933-5.652 1.393-10.444-.565-12.725-6.694-.801-2.149-2.2-4.079-3.297-6.056-4.838.861-9.521 2.021-14.272 2.441-4.087.359-6.319-2.149-5.639-6.235.982-5.883 1.984-11.824 3.756-17.497 1.722-5.506 6.483-6.965 10.829-3.068 2.776 2.488 4.949 3.366 8.643 3.054 7.729-.657 8.553.25 11.318 8.026.557 1.563 1.12 3.126 1.622 4.708.488 1.534.898 3.095 1.634 5.667M720.637 882.384c-1.091 4.797-2.029 8.937-2.972 13.078-8.67 3.564-10.124 3.762-15.363-2.843-5.525-6.966-10.298-14.581-14.886-22.22-2.335-3.888-.374-8.058 4.1-9.532 2.671-.88 5.682-.728 8.448-1.028 2.378 5.771 4.352 10.562 6.565 15.937 3.424-3.238 5.728-6.822 8.93-8.034 2.999-1.134 6.948.245 11.739.615.491-.426 1.775-2.217 3.487-2.844 1.848-.678 4.847-1.102 5.958-.1 1.101.994 1.186 4.192.481 5.921-2.8 6.872-9.186 9.123-16.487 11.05M689.791 666.401c4.01 4.344 6.896 4.008 10.1.777 3.946-3.979 8.254-7.631 12.652-11.113 2.115-1.678 4.796-2.644 7.094-3.865 4.873 4.778 4.641 8.683 1.082 12.888-7.248 8.562-14.656 16.854-24.695 22.405-3.02 1.671-5.398 2.001-8.181.04-3.063-2.156-4.427-4.934-3.108-8.559 1.345-3.7 2.926-7.315 5.056-12.573M606.506 1039.296c-2.457 3.752-5.108 7.388-7.981 10.795.142.214.272.418.423.636-.314-.017-.615-.047-.92-.073-1.689 1.972-3.441 3.874-5.29 5.658a16.674 16.674 0 0 1-6.272 3.826c6.32 2.481 12.647 4.942 19.025 7.263 3.87 1.408 8.118 2.145 11.565-1.41.988-6.341-.076-11.729-4.089-17.15-2.281-3.086-4.409-6.287-6.461-9.545M579.07 1002.478c-1.043 0-2.051-.108-3.025-.292.174.881.355 1.758.518 2.627.592 3.196 1.528 6.328 2.333 9.483.414 1.624.821 3.247 1.249 4.859a151.534 151.534 0 0 0 8.119-14.663c.628-1.304 1.217-2.621 1.823-3.936a110.76 110.76 0 0 0 .944-2.425c.181-.485.349-.975.52-1.463-3.144 3.523-7.752 5.81-12.481 5.81M584.147 836.725c-7.013-10.459-11.318-21.815-12.774-34.297-.133-1.134-.454-2.27-.857-3.342-4.506-12.041-9.055-24.064-13.566-36.104-1.087-2.902-2.079-5.84-3.426-9.636 3.646.729 6.181 1.385 8.756 1.717 3.98.515 8.676 2.688 11.502-1.582 2.746-4.152.833-8.486-1.701-12.402-1.604-2.479-3.036-5.073-4.454-7.665-3.676-6.715-7.38-13.417-10.929-20.2-4.762-9.096-9.037-18.467-14.189-27.331-3.53-6.074-7.452-11.577-9.679-18.618-5.215-16.486-12.541-32.312-13.552-49.951-.187-3.254-.923-6.92-4.814-7.64-4.005-.739-7.873.544-9.878 4.367-2.318 4.415-4.239 9.063-6.024 13.729-3.533 9.233-2.655 20.704-13.49 26.194-.481.243-.814.863-1.11 1.37-3.863 6.617-7.791 13.199-11.542 19.879-10.542 18.771-20.85 37.669-33.413 55.233-5.609 7.842-10.632 16.102-15.806 23.996 5.847 8.197 7.327 8.643 15.408 4.538 4.815-2.446 9.533-5.085 14.924-7.976-6.821 13.842-13.275 27.019-19.803 40.158-3.148 6.334-6.459 12.587-9.652 18.899-3.985 7.876-7.794 15.844-11.916 23.646-.148.278-.299.555-.448.832.445.761.825 1.557 1.104 2.412 1.033 1.966 1.506 4.085 1.421 6.357.085 2.271-.388 4.391-1.421 6.356-.666 2.046-1.803 3.816-3.412 5.311l-.667.667-.187.186a16.48 16.48 0 0 1-7.28 4.244l-3.823.513-.099.18c8.777 5.693 15.85-1.526 24.291-1.395-1.338 2.886-2.235 4.977-3.26 7.001-4.635 9.17-9.592 18.192-13.864 27.527-2.711 5.927-.515 8.891 5.992 9.436 1.447.121 3.516-.671 4.275.044 4.856 4.573 10.855 4.735 18.189 4.161-1.767 3.753-2.857 6.407-4.223 8.911-5.948 10.899-11.911 21.79-17.955 32.635 2.798 5.315 3.904 11.357 3.307 17.282 4.23-7.443 8.477-14.879 12.674-22.341 8.231-14.636 16.392-29.312 24.55-43.99.421-.756.756-1.69.739-2.535-.044-2.195.483-5.567-.652-6.327-2.135-1.43-5.359-2.018-7.983-1.712-2.707.316-5.24 2.114-7.685 3.192-.467-4.278.287-8.715-1.581-11.083-1.638-2.074-6.219-1.825-9.916-2.7 1.237-7.354 7.357-12.31 10.566-18.818 2.465-5 5.774-9.58 8.318-14.546 2.627-5.13.043-8.979-5.621-8.391-2.547.265-5.068 1.411-7.445 2.497-2.629 1.201-5.081 2.792-9.614 5.338 3.024-6.451 5.03-11.084 7.329-15.566 5.777-11.265 11.748-22.429 17.523-33.692 5.117-9.981 10.586-19.826 14.971-30.127 5.053-11.873 11.902-23.196 12.787-36.587.126-1.915 1.248-3.765 1.961-5.79-4.641-3.904-7.523-1.357-10.85 1.575-2.764 2.436-6.256 4.047-11.22 7.142 1.548-3.246 2.016-4.767 2.896-5.993 13.626-18.979 27.822-37.648 37.68-58.958 3.876-8.38 9.771-14.864 15.685-22.225 8.964 32.454 27.976 59.83 41.068 90.574-1.62.377-3.193.751-4.769 1.106-7.287 1.652-9.063 4.692-6.527 11.965 4.069 11.666 8.534 23.198 12.457 34.912 2.437 7.277 4.665 14.691 6.14 22.21 3.188 16.268 25.722 65.501 27.48 77.564-6.034-1.317-10.829-2.703-15.722-3.345-6.382-.838-9.247 2.139-9.066 8.581.32 11.478 5.148 21.797 8.471 32.478 3.721 11.971 7.939 23.788 11.791 35.719 2.07-4.25 5.068-7.981 8.943-10.827-1.869-6.927-3.5-13.937-5.672-20.769-2.234-7.032-5.651-13.68-8.249-20.61-1.148-3.069-1.577-6.41-2.78-11.528 6.632 2.341 11.314 3.878 15.907 5.649 4.581 1.769 9.011 3.292 12.972-1.869-1.651-6.376-14.897-55.919-17.511-59.815M556.262 1048.236c3.325 1.501 6.731 2.822 10.149 4.117-2.188-4.265.874-8.585 2.66-13.058-.162-.076-3.526-1.129-3.688-1.205-4.48-2.122-8.729-4.732-13.115-7.061-5.728-3.039-11.452-6.083-17.255-8.973-2.098-1.046-4.546-1.404-6.608-2.498-19.055-10.104-36.978-5.799-54.479 4.132-1.542.874-2.933 2.011-4.455 2.922-3.697 2.21-6.906 2.006-10.45-.959-5.714-4.778-8.93-4.918-14.791-.46-7.295 5.547-14.945 10.928-21.138 17.571-1.203 3.496-3.541 6.546-7.027 8.793-1.678 1.082-3.584 1.739-5.563 2.036-5.883 3.953-12.328 7.174-19.123 10.354 2.042-4.581 7.965-14.399 10.025-18.971-.461-.366-.908-.75-1.318-1.167-2.215-2.257-8.205.489-9.929-2.171-.071-.109-.131-.22-.198-.329-5.668 11.154-11.349 22.3-16.974 33.476-1.559 3.099-1.979 6.235 1.225 8.806 3.123 2.505 6.458 2.843 9.923.933 1.786-.983 3.265-2.861 5.13-3.313 13.449-3.262 22.238-13.851 33.062-21.128 9.062-6.094 16.875-14.045 25.503-21.396.967 1.215 1.595 2.178 2.39 2.975 5.8 5.818 6.821 5.881 14.478 1.939 1.931-.994 4.142-1.447 7.154-2.461.077 5.395.92 9.928.068 14.115-4.104 20.181-8.993 40.207-12.876 60.428-.068.356-.145.695-.226 1.027 4.717-1.031 9.438-2.05 14.166-3.035.284-.963.614-1.91.841-2.876 3.425-14.631 7.245-29.224 9.575-44.041 1.809-11.511 1.628-23.335 2.382-35.869 11.844-5.962 23.474-8.356 34.019-1.223 2.42 16.278 4.445 31.441 7.044 46.506.844 4.886 3.208 9.506 4.844 14.259 1.299 3.778 3.916 24.806 5.268 28.785 3.804-.654 7.607-1.312 11.413-1.949l3.312-.557c-.907-2.618-3.148-22.476-4.052-25.095-2.855-8.294-6.517-16.417-8.34-24.933-2-9.344-2.301-19.051-3.497-30.005 2.951 1.807 5.05 3.185 7.235 4.409 4.377 2.453 8.676 5.093 13.236 7.15"/><path clip-path="url(#b)" fill="#FFF" d="M477.421 981.156c-3.618 3.497-6.43 6.541-9.595 9.156-1.995 1.648-4.379 3.118-6.833 3.868-8.444 2.581-13.152-.69-13.75-9.546-.338-5.01-.103-10.057-.139-15.087-.045-6.34.961-7.276 8.547-7.873 5.113 5.128 4.109 11.957 5.013 19.978 4.873-4.146 8.945-7.619 13.029-11.079 1.791-1.516 3.41-3.403 5.457-4.407 3.153-1.546 6.063-1.484 8.327 2.221 1.949 3.192 4.728 5.877 7.387 9.084 3.962-1.939 7.25-3.928 10.805-5.113 1.528-.511 4.646.101 5.207 1.169.904 1.715 1.229 5.141.151 6.256-5.119 5.301-10.507 9.981-18.959 9.789-6.545-.152-9.874-4.627-14.647-8.416M495.714 823.993c5.182-3.089 9.406-5.695 13.718-8.153 4.402-2.512 6.436-.353 7.578 4.147-4.037 4.286-7.708 8.942-12.165 12.65-3.011 2.504-6.968 4.334-10.793 5.275-5.025 1.239-9.287-.502-11.316-5.952-.711-1.912-1.956-3.628-2.931-5.386-4.302.766-8.468 1.797-12.693 2.17-3.634.321-5.62-1.911-5.013-5.544.873-5.231 1.763-10.515 3.34-15.56 1.53-4.896 5.764-6.193 9.629-2.729 2.468 2.212 4.402 2.994 7.685 2.716 6.875-.584 7.607.222 10.066 7.138.495 1.391.997 2.78 1.443 4.186.431 1.367.797 2.754 1.452 5.042M521.89 912.56c-.971 4.267-1.807 7.947-2.643 11.63-7.711 3.17-9.004 3.347-13.663-2.526-4.914-6.195-9.157-12.966-13.236-19.761-2.076-3.457-.332-7.166 3.645-8.476 2.375-.783 5.053-.647 7.513-.916l5.838 14.173c3.047-2.879 5.096-6.066 7.942-7.144 2.667-1.009 6.178.217 10.439.546.436-.378 1.577-1.971 3.101-2.529 1.644-.603 4.31-.979 5.298-.088.98.884 1.055 3.729.429 5.264-2.491 6.113-8.171 8.114-14.663 9.827M494.459 720.493c3.565 3.862 6.132 3.563 8.98.691 3.509-3.538 7.34-6.786 11.251-9.883 1.882-1.492 4.265-2.351 6.309-3.437 4.333 4.249 4.128 7.722.963 11.461-6.445 7.611-13.032 14.985-21.96 19.924-2.687 1.485-4.801 1.779-7.275.035-2.724-1.917-3.938-4.388-2.764-7.611 1.196-3.289 2.602-6.504 4.496-11.18"/><path clip-path="url(#b)" fill="none" stroke="#FFF" stroke-width="13" stroke-linecap="round" stroke-linejoin="round" stroke-miterlimit="10" d="M19.693 273.224c6.021-11.962 23.983-16.909 33.764-7.76-3.589-18.371-6.848-38.766 2.976-54.7 8.357-13.554 25.95-20.666 41.379-16.729 15.429 3.939 27.46 18.614 28.297 34.515 7.916-14.406 22.817-25.624 39.25-26.035 16.433-.412 33.119 12.027 34.647 28.394 5.03-12.009 22.249-14.799 33.491-8.231 11.241 6.568 17.318 19.345 20.802 31.889 2.059 7.409 3.442 15.306 1.5 22.747-4.53 17.363-24.486 25.279-42.13 28.546-22.331 4.134-45.121 4.999-67.815 5.855l-51.979 1.96c-22.349.843-96.465 3.822-74.182-40.451zM573.494 127.221c6.021-11.962 23.983-16.909 33.765-7.76-3.589-18.371-6.847-38.766 2.977-54.7 8.357-13.554 25.95-20.666 41.379-16.728 15.429 3.939 27.46 18.614 28.298 34.515 7.914-14.406 22.816-25.624 39.25-26.035 16.433-.412 33.118 12.027 34.646 28.394 5.03-12.009 22.249-14.799 33.491-8.231 11.24 6.568 17.316 19.345 20.802 31.889 2.059 7.409 3.441 15.306 1.499 22.747-4.529 17.363-24.485 25.28-42.13 28.546-22.33 4.134-45.12 5-67.814 5.855l-51.979 1.96c-22.35.842-96.466 3.821-74.184-40.452z"/><path clip-path="url(#b)" fill="none" stroke="#FFF" stroke-width="13" stroke-linecap="round" stroke-linejoin="round" stroke-miterlimit="10" d="M627.053 50.356c-5.802-14.034-14.468-26.923-27.439-34.431-53.255-30.819-105.417 19.236-94.807 73.353 2.973 15.165 8.592 30.406 19.644 41.207 11.84 11.57 28.624 16.35 45.308 15.453"/></svg>