<svg xmlns="http://www.w3.org/2000/svg" xmlns:xlink="http://www.w3.org/1999/xlink" width="2444.189" height="347.637" viewBox="0 0 2444.189 347.637"><defs><path id="a" d="M0 0h2444.191v347.637H0z"/></defs><clipPath id="b"><use xlink:href="#a" overflow="visible"/></clipPath><path clip-path="url(#b)" fill="#FFF" d="M285.31 170.629c-2.428 3.504-3.243 6.35-2.308 10.75 1.949 9.163 2.526 18.677 2.946 28.078.208 4.644 1.695 9.484-1.442 14.235-1.056 1.602 1.314 5.241 1.606 8.002.588 5.568.824 11.172 1.208 16.762.033.488.292 1.092.095 1.448-4.452 8.098.074 15.827.854 23.721.511 5.177.324 10.424.838 15.601.828 8.352 2.313 16.504 8.314 23.087 2.661 2.919 4.917 6.208 7.325 9.354 2.602 3.4 5.914 3.027 7.981.197 3.382-4.627 7.707-9.669 8.324-14.923.722-6.152 3.32-11.634 4.016-17.647 1.116-9.648 2.908-19.237 3.625-28.91.57-7.699-.345-15.497-.055-23.232.441-11.709 1.598-23.395 1.941-35.105.128-4.377-.454-9.103-2.137-13.062-.797-1.873-4.874-2.609-7.604-3.344-6.036-1.626-12.212-2.739-18.233-4.411-5.304-1.473-5.299-6.574-5.595-10.599-.128-1.748 2.565-4.697 4.558-5.365 2.712-.908 6.719-1.288 8.865.109 5.533 3.602 11.224 1.787 16.864 2.006 2.944.114 5.901.291 8.836.134 4.048-.218 8.174-.32 12.095-1.219 3.977-.911 7.656-3.104 11.63-4.049 3.874-.922 8.057-1.755 11.922-1.247 8.33 1.093 12.432 10.462 8.1 17.628-.626 1.033-1.933 1.989-3.106 2.305-7.671 2.056-15.4 3.891-23.09 5.88-2.01.52-5.392.985-5.643 2.059-.721 3.097-.265 6.494-.088 9.766.2 3.696.99 7.396.841 11.069-.491 12.127-1.939 24.256-1.658 36.354.116 5.01.915 9.769-.372 14.85-.783 3.091.774 6.699.526 10.019-.341 4.572-1.349 9.099-2.173 13.628-.228 1.251-.97 2.406-1.214 3.656-.928 4.765-1.74 9.551-2.612 14.325-.864 4.737-1.792 9.462-2.612 14.203-2.098 12.135-8.912 20.861-20.448 24.567-11.566 3.716-21.26 3.908-30.804-8.894-3.958-5.309-7.995-10.56-11.82-15.963-.9-1.268-.785-3.237-1.648-4.551-4.944-7.534-2.909-16.21-4.092-24.338-1.281-8.786-2.205-17.636-2.902-26.489-.464-5.902-.247-11.858-.354-17.792-.191-10.48-.375-20.963-.604-31.443-.12-5.561-.222-11.122-.523-16.674-.379-6.965-1.135-13.91-1.396-20.877-.329-8.814-.262-17.642-.499-26.461-.069-2.617-.76-5.216-.86-7.835-.344-9.065-.584-18.136-.787-27.207-.047-2.092.278-4.19.309-6.288.222-15.162.343-30.327.685-45.487.055-2.42 1.322-4.794 1.563-7.234.365-3.693.317-7.426.451-11.142.029-.818-.129-1.721.157-2.443 3.462-8.737 6.373-17.769 10.706-26.057 3.217-6.156 8.664-10.147 16.385-11.342 6.686-1.036 12.957-.253 18.879 1.828 4.164 1.463 8.251 4.628 11.082 8.089 5.435 6.645 10.175 13.899 14.782 21.167 3.592 5.667 7.04 11.535 9.59 17.711 1.438 3.485.809 7.791 1.325 11.698.904 6.852 2.104 13.665 2.912 20.527.35 2.964-.149 6.019.057 9.01.316 4.602.598 9.243 1.452 13.762 1.447 7.662-.137 15.057-1.392 22.485-1.065 6.312-3.481 7.383-9.368 4.516-6.982-3.401-6.685-3.326-4.821-10.705.859-3.401.679-7.202.303-10.752-1.062-10.017-2.473-19.999-3.741-29.995-.956-7.536-1.13-15.28-3.083-22.548-1.763-6.563-5.01-12.871-8.449-18.8-3.196-5.511-7.242-10.607-11.436-15.431-2.332-2.682-5.495-5-8.751-6.362-1.55-.647-4.36 1.039-6.305 2.173-2.983 1.738-4.776 4.251-6.631 7.518-4.526 7.97-4.606 16.469-5.717 24.928-1.428 10.872-3.447 21.743-3.698 32.65-.086 3.719 2.42 7.683 1.983 12.237-.938 9.78-1.378 19.65-1.251 29.473.086 6.68 1.611 13.332 2.217 20.021.217 2.39-.15 4.899-.639 7.274-1.198 5.821-2.477 11.565 3.813 15.363M1308.439 243.218c4.824-4.931 9.699-8.1 16.308-6 8.201 2.604 3.499 10.957 6.428 14.676-3.161 5.078-6.047 9.618-8.837 14.215-4.885 8.051-13.651 11.893-22.831 9.742-11.042-2.588-19.99-8.144-27.397-17.075-4.616-5.566-6.738-11.2-6.812-18.081-.011-1.104-.64-2.213-1.036-3.301-4.003-11.017-5.432-22.37-4.385-34.028.453-5.024-2.384-7.674-7.364-7.312-4.617.335-9.28-.035-13.915.15-3.586.146-7.154.689-10.735 1.011-.893.078-1.923.259-2.681-.078-7.263-3.228-8.311-2.777-9.881 4.491l3.075 1.09c-.017.566.079 1.117-.051 1.179-2.71 1.265-3.122 3.356-2.604 6.095 1.44 7.587 3.027 15.169 3.948 22.828.616 5.11.181 10.346.231 15.527.037 3.891.231 7.786.113 11.672a233.577 233.577 0 0 1-.871 14.19c-.32 3.488-2.121 5.514-5.969 4.901-.819-.131-1.659-.138-2.489-.199-9.364-.681-12.579-4.39-11.77-13.403.489-5.46 1.333-10.95 1.142-16.396-.528-15.116-1.757-30.207-2.201-45.324-.178-6.055.636-12.202 1.578-18.215 2.724-17.381.961-34.714.064-52.083-.474-9.185-.092-18.413-.49-27.603-.299-6.905-1.042-13.806-1.933-20.664-.593-4.562 2.313-10.186 6.871-11.05 12.019-2.278 24.061-5.513 36.173-5.894 9.875-.312 20.265.804 29.456 6.284 4.492 2.678 9.518 5.33 14.567 5.999 6.819.903 11.515 5.035 16.646 8.427 9.369 6.19 15.705 15.262 20.968 24.996 1.275 2.356 1.605 5.369 1.828 8.124.789 9.731 1.584 19.477 1.811 29.23.057 2.361-2.042 4.782-3.181 7.16-2.639 5.508-4.627 11.482-8.106 16.396-5.07 7.16-12.557 11.565-20.942 14.268-4.025 1.297-8.457 1.949-11.915 4.14-1.85 1.173-3.178 5.223-2.711 7.568.955 4.8 1.15 9.562 1.675 14.324 1.146 10.385 4.32 20.564 6.967 30.749.393 1.503 2.29 2.784 3.749 3.798 2.026 1.412 4.237 2.598 6.479 3.649 2.081.976 5.229 2.967 6.294 2.218 3.389-2.389 6.352-5.695 4.944-10.652-.178-.625-.159-1.305-.208-1.739m-89.838-67.165c5.284.383 9.808.604 14.305 1.069 3.584.372 7.174 1.68 10.694 1.466 11.396-.693 22.863-1.278 34.091-3.17 5.479-.921 11.656-3.514 15.404-7.392a38.26 38.26 0 0 0 9.619-17.243c3.43-13.408 2.669-25.708-6.431-36.284-5.979-6.948-12.56-13.396-22.382-15.664-7.105-1.64-13.991-4.729-20.588-7.966-9.67-4.746-19.574-4.217-29.57-2.389-7.826 1.431-7.784 1.723-7.985 10.079-.071 2.995-.234 6.001-.069 8.987 1.067 19.363 2.263 38.721 3.288 58.086.183 3.436-.233 6.901-.376 10.421M617.417 320.345c-5.402 3.45-11.253 3.293-15.603-.41-2.936-2.5-4.12-7.375-5.385-11.409-.796-2.538-.307-5.483-.371-8.248-.037-1.606-.509-3.413.049-4.791 2.125-5.243.04-10.17-.539-15.253-.568-4.984-.751-10.042-.713-15.063.051-6.608.833-13.223.665-19.817-.224-8.861-1.302-17.701-1.52-26.561-.106-4.287 1.056-8.591 1.391-12.905.496-6.362.79-12.739 1.11-19.113.074-1.49.253-3.109-.213-4.465-1.808-5.271-.845-10.34-.172-15.696.582-4.63-1.298-9.538-1.868-14.349-1.021-8.599-1.94-17.21-2.779-25.829-.929-9.535-1.578-19.098-2.613-28.619-1.258-11.568-3.085-23.08-4.064-34.666-.405-4.794.496-9.766 1.353-14.558.25-1.398 2.344-2.524 3.692-3.656 6.217-5.23 12.239-4.187 19.334-.902 10.575 4.897 20 11.69 27.022 20.24 4.501 5.479 11.19 10.626 11.954 19.173.38 4.251 2.921 8.263 3.916 12.515 2.394 10.226 5.5 20.439 6.386 30.823 1.164 13.653-.594 27.247-3.241 40.879-1.782 9.177-7.135 16.755-8.455 26.048-1.104 7.757-4.187 15.448-7.598 22.595-2.882 6.035-7.493 11.244-11.663 17.289 5.665 6.029 11.303 13.564 18.438 19.209 7.829 6.189 10.992 15.124 16.478 22.646 4.051 5.556 6.149 12.68 11.974 16.72 1.237 2.087 2.635 4.1 3.658 6.287.723 1.546 1.208 3.312 1.317 5.011.157 2.43-.125 4.888-.24 7.836-2.365.537-5.25 1.44-8.203 1.818-10.305 1.315-10.35-2.695-14.278-9.504-4.954-8.584-9.294-17.62-15.109-25.577-6.36-8.703-14.036-16.456-21.307-24.471-1.201-1.321-3.265-1.859-4.93-2.76-.443 1.666-1.335 3.354-1.255 4.995.643 13.287.696 26.674 2.556 39.8.962 6.793 1.994 13.098-.079 19.745-.43 1.375.541 3.188.905 4.993m-3.634-105.341l2.82.481c2.452-5.208 4.98-10.382 7.314-15.643.799-1.803.905-3.909 1.68-5.728 5.245-12.285 9.758-24.783 11.707-38.082.711-4.859 2.256-9.719 2.142-14.55-.191-8.073-.896-16.216-2.339-24.157-1.484-8.17-4.379-16.073-6.144-24.204-1.295-5.968-3.907-10.668-9.261-13.747-.497-.285-.82-1.021-1.039-1.616-2.99-8.134-10.457-10.974-17.559-15.962.14 6.435-.168 11.59.444 16.633 1.463 12.064 3.739 24.04 4.929 36.127.659 6.677-.739 13.545-.249 20.257.523 7.159 1.305 14.524 3.539 21.282 3.555 10.751 1.636 21.261 1.081 31.996-.46 8.933.567 17.939.935 26.913M2132.683 204.78c2.204 7.632 4.475 15.247 6.594 22.903 2.771 10.006 5.362 20.059 8.147 30.061 1.755 6.309 2.38 13.516 5.979 18.558 3.4 4.762 1.739 8.935 2.171 13.33.565 5.749-3.567 9.901-10.7 11.474-2.674.589-8.55-3.13-9.617-6.7-2.162-7.226-3.871-14.586-5.869-21.864-1.166-4.25-2.656-8.413-3.762-12.677-1.203-4.643-1.867-9.437-3.253-14.017-1.332-4.404-3.51-8.549-4.907-12.938-1.59-4.983-2.975-10.064-3.955-15.199-.513-2.673-1.056-4.299-4.176-4.317-9.556-.061-19.11-.302-29.884-.494.503 5.263 1.327 9.599 1.22 13.912-.121 4.845-1.082 9.669-1.686 14.501-.119.962-.407 1.922-.385 2.878.115 4.832.213 9.669.509 14.492.135 2.198.759 4.361 1.069 6.556.176 1.251.321 2.542.217 3.793-.62 7.412 1.59 15.588-6.257 20.976-4.562 3.132-11.2 1.568-13.603-3.575-2.854-6.114-3.639-11.934-2.703-19.116 1.805-13.861 1.649-28.087 1.084-42.114-.535-13.301-.992-26.432 1.43-39.638 1.144-6.24.804-12.774.901-19.177.117-7.767-.209-15.542.007-23.303.369-13.292.939-26.579 1.577-39.861.228-4.745 1.328-9.037 4.148-13.343 3.891-5.941 9.969-5.054 15.161-6.605 10.445-3.122 21.253-4.905 32.173-4.246 4.785.288 9.93 1.458 14.101 3.72 9.527 5.17 19.444 10.233 27.558 17.242 9.814 8.479 17.85 19.072 17.475 33.272-.125 4.743-1.319 9.504-2.425 14.163-2.046 8.634-4.335 17.211-6.653 25.777-.375 1.383-1.187 2.821-2.198 3.831-6.935 6.934-14.006 13.729-20.967 20.637-2.322 2.306-4.449 4.808-6.665 7.22-.619-.04-1.238-.076-1.856-.112m4.682-29.354c4.516-4.357 7.719-9.26 8.84-15.623 1.444-8.2 3.766-16.256 5.006-24.481 1.025-6.802-4.017-11.13-7.806-16.01-6.228-8.02-15.021-12.741-23.548-16.966-9.096-4.507-19.725-3.701-29.668-1.358-7.954 1.875-10.409 4.806-10.38 10.373.021 3.867.127 7.734.223 11.6.28 11.358 1.093 22.733.711 34.068-.34 10.099 1.96 20.221-.547 30.326-.651 2.626.487 5.09 4.312 5.208 7.039.216 14.075 1.367 21.09 1.197 4.724-.114 10.178-.646 13.94-3.088 6.501-4.222 11.941-10.076 17.827-15.246M27.084 260.482c.364 6.038.705 10.732.912 15.434.159 3.604.048 7.22.238 10.82.35 6.584-.484 13.098 1.768 19.749 1.961 5.795 2.46 12.392 2.031 18.525-.154 2.203-4.663 5.16-7.618 5.813-2.965.655-6.736-.6-9.64-2.048-1.754-.876-3.087-3.57-3.632-5.698-1.176-4.587-1.722-9.337-2.621-14.584 5.446-2.017 1.361-7.454 1.417-11.136.172-11.241-1.268-22.5-1.849-33.764-.433-8.358-.449-16.737-.755-25.104a608.867 608.867 0 0 0-.959-18.568c-.585-8.68-1.409-17.345-1.909-26.029-.213-3.711.571-7.506.142-11.175-1.319-11.285-3.204-22.504-4.45-33.796-.484-4.393.295-8.913.241-13.372-.072-5.899-.974-11.712.494-17.683 1.538-6.255 6.772-9.539 13.094-8.373 6.266 1.158 12.749 1.245 19.15 1.466 1.167.041 2.39-1.518 3.791-2.478 2.927 3.432 6.338 4.505 10.877 3.097 1.794-.556 4.259.855 6.366 1.536 8.221 2.654 17.61 3.685 24.362 8.445 11.684 8.236 23.677 17.263 26.592 33.013.03.164.009.369.101.485 7.739 9.811.039 20.452 1.742 30.412 1.017 5.951-3.335 8.779-4.343 13.074-2.934 12.512-12.808 19.062-21.063 27.081-2.359 2.291-4.749 4.768-7.587 6.305-6.606 3.576-13.518 6.584-20.254 9.927-2.847 1.412-5.565 3.085-9.46 5.267 9.11 8.946 17.413 16.936 25.523 25.115 6.363 6.417 12.486 13.074 18.721 19.619 5.76 6.046 11.075 12.626 17.441 17.948 4.722 3.946 3.9 8.392 2.64 12.51-.877 2.865-4.094 5.173-6.618 7.311-1.374 1.165-3.467 1.918-5.273 1.997-1.376.061-3.068-.964-4.144-2.002-.974-.938-.945-3.106-1.976-3.767-6.69-4.279-9.349-11.984-14.741-17.133-5.664-5.408-10.248-11.564-15.369-17.337-7.488-8.441-16.038-15.95-24.258-23.728-2.444-2.313-5.299-4.194-9.124-7.174m38.251-47.175c1.58-1.361 4.615-4.186 7.866-6.731 5.737-4.497 10.615-9.374 11.307-17.255.304-3.46.804-7.172 2.336-10.202 3.905-7.719 1.131-15.412-1.336-21.99-4.102-10.935-14.314-17.699-24.384-22.029-11.889-5.112-25.196-6.272-38.389-5.892-3.274.095-4.032 1.659-3.962 4.31.158 5.861.218 11.732.626 17.578.379 5.416.124 11.192 1.979 16.122 3.707 9.854 3.298 20.055 3.017 29.969-.283 9.943-.219 19.719 1.672 29.414.537 2.746 2.93 5.319 6.384 3.296 3.36-1.968 8.463-1.162 10.013-6.178.142-.461 1.472-.799 2.242-.782 7.645.153 13.286-4.226 20.629-9.63M444.622 274.09c-.857 6.065-.247 11.901-2.607 16.046-3.48 6.11-2.101 12.167-2.719 18.272-.811 8.021-6.639 12.159-14.344 10.377-5.355-1.239-9.042-6.535-6.615-11.248 3.219-6.247 2.444-13.062 4.323-19.428 1.396-4.728 2.46-9.56 3.519-14.38.913-4.153.002-6.664-4.982-7.804-5.245-1.2-10.302-3.661-15.103-6.207-4.29-2.277-6.682-6.666-5.379-11.276.61-2.158 4.404-4.598 6.906-4.773 3.948-.277 8.055 1.107 12.033 2.054 2.957.704 5.815 1.825 9.679 3.07 1.91-12.76 3.665-24.485 5.413-36.212.097-.654.049-1.336.191-1.979 3.156-14.331 6.606-28.604 9.38-43.008 1.361-7.069 1.114-14.436 2.268-21.559.88-5.426 3.266-10.606 4.155-16.031.756-4.622.662-9.46.338-14.161-.308-4.486-1.399-8.916-2.148-13.386 2.329-1.227 5.404-2.956 8.574-4.489 4.013-1.942 12.039 1.511 14.632 6.668 2.79 5.548 5.156 11.319 7.538 17.063 3.151 7.602 6.605 15.125 9.042 22.958 1.896 6.092 2.454 12.604 3.563 18.936.254 1.449.061 3.02.527 4.38 4.086 11.933 8.781 23.682 12.289 35.777 3.505 12.089 5.939 24.495 8.66 36.802 1.028 4.648 2.614 6.123 7.19 4.469 6.739-2.435 13.279-5.423 20.212-8.303 2.01 1.703 4.678 3.485 6.741 5.806 4.38 4.931 1.721 14.261-4.462 16.892-5.383 2.289-10.761 4.631-15.918 7.37-1.026.546-1.835 3.279-1.393 4.525 3.157 8.904 7.396 17.488 9.808 26.568 1.677 6.312 5.996 12.846 1.849 19.875-2.93 4.965-9.164 6.741-13.587 2.9-4.59-3.986-8.74-7.708-9.391-15.506-.83-9.939-5.256-19.725-9.038-29.217-2.026-5.084-7.225-1.998-10.09-.767-7.552 3.242-14.843 2.979-22.51 1.156-2.459-.586-5.214.189-7.757-.179-3.672-.528-7.243-1.839-10.919-2.241-3.213-.348-6.514.095-9.868.19m21.809-129.682l-1.292.113c-.885 5.325-1.845 10.639-2.636 15.978-1.053 7.115-1.822 14.274-2.994 21.37-1.581 9.565-3.421 19.091-5.166 28.63-.785 4.296-1.667 8.575-2.403 12.88-1.419 8.289-3.071 16.559-3.901 24.91-.178 1.795 2.402 4.333 4.302 5.714 1.45 1.054 3.823.988 5.808 1.134 11.942.884 23.844 4.25 35.844-.403 3.63-1.406 4.198-3.342 3.36-6.317-1.95-6.934-4.064-13.821-6.198-20.7-.965-3.109-2.265-6.115-3.192-9.233-1.845-6.203-3.452-12.479-5.327-18.675-.899-2.972-2.508-5.748-3.241-8.749-3.36-13.749-6.45-27.564-9.838-41.305-.474-1.922-2.057-3.572-3.126-5.347M1953.226 63.147c-3.621 1.688-7.125 4.444-10.862 4.813-6.297.623-12.754-.624-19.125-.452-12.17.329-24.322 1.292-36.491 1.629-8.692.24-17.402-.136-26.104-.183-2.793-.015-5.587.2-8.381.213-5.896.026-11.797.076-17.69-.06-2.74-.064-3.8.889-3.934 3.724-.457 9.697-1.345 19.376-1.728 29.076-.337 8.515-.122 17.053-.337 25.576-.134 5.257-.601 10.505-.949 15.756-.594 8.949-1.666 17.894-1.724 26.846-.099 15.125.502 30.253.654 45.381.03 3.042 1.086 3.492 3.934 3.259 7.055-.578 14.17-.45 21.221-1.056 6.6-.564 13.187-2.564 19.709-2.285 4.14.178 8.826 2.612 12 5.45 2.43 2.172-2.314 11.414-5.421 13.875-4.565 3.618-9.492 1.225-14.203 1.658-9.848.908-19.76 1.146-29.603 2.102-3.142.306-6.189 1.905-9.183 3.146-.721.299-1.438 1.5-1.505 2.337-.373 4.74.168 9.673-.954 14.205-1.771 7.161 1.034 15.398-5.293 21.556-2.849 2.775-5.989 4.019-9.384 2.567-3.854-1.648-7.889-3.503-7.832-9.082.058-5.614-.996-11.259-.715-16.848.216-4.333 1.423-8.7 2.742-12.879 3.966-12.573 2.744-25.647 3.668-38.47.884-12.291-.073-24.713-.201-37.079a42.552 42.552 0 0 1 .166-3.975c.759-9.267 1.862-18.52 2.208-27.801.258-6.972-.791-13.988-.615-20.969.137-5.383 1.489-10.722 1.917-16.112a757.427 757.427 0 0 0 1.754-29.469c.033-.827-1.802-2.285-2.953-2.508-4.379-.849-8.84-1.262-13.257-1.929-7.808-1.18-10.352-4.377-9.572-11.893.5-4.822 5.718-8.324 11.964-7.766 12.615 1.125 25.207 2.536 37.833 3.495 3.553.27 7.195-.966 10.788-.916 14.22.198 28.441 1.045 42.648.804 7.191-.121 14.318-2.389 21.533-3.079 10.046-.961 20.234-2.746 29.951 2.055.939.464 2.303.413 3.383.189 6.675-1.378 11.108 2.812 9.854 9.198-.368 1.878.037 3.907.089 5.901M848.699 176.835c-4.635 2.412-.768 7.39-1.036 11.203-.419 5.921.04 11.302-4.328 16.427-2.518 2.954-2.31 8.071-4.283 11.694-2.207 4.052-5.494 7.516-8.311 11.237-1.033 1.363-2.086 2.714-3.096 4.096-.564.772-.944 1.713-1.606 2.379-1.86 1.868-4.373 3.312-5.649 5.497-5.003 8.57-14.026 9.721-22.136 12.607-6.448 2.294-12.822 4.856-19.389 6.735-8.32 2.382-16.719 4.72-25.241 6.102-8.295 1.344-16.782 1.641-25.201 1.989-2.332.098-4.795-1.08-7.066-1.999-1.816-.734-3.407-2.01-5.141-2.968-3.319-1.832-5.396-3.927-5.673-8.362-.2-3.18-3.088-6.19-5.091-9.851 5.828-2.794 5.204-8.746 4.584-13.668-1.154-9.16 1.105-17.921 1.521-26.87.443-9.502 1.303-19.014 1.148-28.508-.126-7.714-1.8-15.391-2.196-23.115-.341-6.65-.326-13.406.528-19.985.312-2.407 3.638-4.337 5.318-6.678 1.881-2.621 3.632-3.412 7.316-3.14 8.459.624 17.029-.498 25.547-.373 9.841.144 19.731.375 29.499 1.467 11.268 1.261 22.342 3.749 32.623 8.958 2.476 1.255 5.743 1.298 7.805 2.949 4.673 3.737 8.298 8.982 13.303 12.065 8.443 5.198 8.329 14.231 11.641 21.763 1.247 2.842 2.995 5.461 4.61 8.349M727.242 142.23c.768 6.834 2.157 13.368 2.104 19.891-.132 16.841 2.464 33.629.048 50.554-1.248 8.74-.61 17.797-.228 26.686.091 2.127 2.167 5.368 4.018 5.966 3.659 1.179 7.949 1.7 11.708 1.015 9.369-1.705 18.642-4.029 27.847-6.502 7.526-2.021 14.96-4.438 22.306-7.045 2.784-.988 5.365-2.783 7.764-4.576 8.418-6.289 14.859-14.293 18.735-24.036 2.218-5.573 3.679-11.501 4.892-17.391.374-1.812-1.778-4.026-1.787-6.059-.05-11.844-6.126-20.022-15.489-26.26-1.77-1.179-3.892-1.817-5.814-2.779-12.727-6.367-26.051-10.348-40.419-10.173-8.821.108-17.641.225-26.46.37-2.761.046-5.519.2-9.225.339M2431.974 31.579c-2.429 1.118-4.78 2.47-7.301 3.312-8.453 2.822-16.933 5.575-25.476 8.108-2.803.83-5.903.649-8.707 1.472-1.053.307-2.34 2.149-2.35 3.301-.079 8.929.126 17.86.252 26.789.012.828-.146 1.755.165 2.464 3.062 6.971.627 14.117.79 21.176.118 5.098.647 10.195.555 15.284-.057 3.016-1.182 5.997-1.439 9.027-.51 6.003-1.004 12.027-1.035 18.045-.028 5.539.972 11.097.752 16.617-.193 4.848-1.972 9.637-2.137 14.484-.469 13.804.475 27.725-.977 41.405-1.041 9.813-.141 19.39 1.098 28.791.804 6.104-1.078 13.329 4.158 18.641.469.476.713 1.764.41 2.316-2.412 4.407-4.092 9.923-7.796 12.684-2.816 2.099-8.558 1.611-12.438.435-2.283-.693-4.609-4.85-4.942-7.68-.978-8.326-.885-16.773-1.376-25.163-.469-8.026-1.316-16.031-1.657-24.062-.171-4.036.474-8.102.65-12.16.532-12.22 1.071-24.439 1.505-36.664.454-12.8.262-25.558 2.472-38.34 1.464-8.463.038-17.404.158-26.128.071-5.234.728-10.458.918-15.693.075-2.08-.681-4.196-.565-6.269.41-7.427 2.441-14.755.035-22.314-.759-2.387.649-5.429.925-8.186.569-5.714-.742-6.957-6.324-7.568-11.121-1.218-21.164-5.937-31.177-10.471-4.899-2.217-10.477-4.474-13.781-8.377-8.563-10.117-12.838-11.686-.264-26.855 3.215 2.407 6.691 4.617 9.703 7.342 7.605 6.879 16.894 10.698 26.086 14.654 1.973.849 4.504.352 6.765.593 1.093.116 2.485.161 3.182.825 4.755 4.528 10.272 3.692 15.879 2.56 6.785-1.373 13.931-1.84 20.267-4.347 8.34-3.3 16.849-6.853 23.179-13.813 4.05-4.453 14.927-5.341 19.828-1.836 3.681 2.632 1.837 6.168 1.213 9.122-1.193 5.645-3.356 10.961-8.336 14.61-.836.613-1.173 1.906-1.74 2.885-.377-.338-.752-.677-1.127-1.016M1055.696 222.631c.805 6.968 1.814 13.92 2.357 20.907.546 7.028.023 14.184 1.086 21.111 1.045 6.815-.822 13.026-1.872 19.469-.319 1.958-.283 3.979-.363 5.972-.033.812.423 1.923.039 2.402-6.01 7.519-4.215 17.353-7.693 25.559-1.936 4.565-4.542 8.859-7.008 13.184-2.061 3.615-4.063 7.332-6.656 10.544-1.572 1.947-4.256 2.974-6.381 4.497-4.34 3.11-14.376.556-16.603-4.265-1.164-2.521 2.795-10.69 5.85-13.388 2.077-1.833 3.475-4.442 5.137-6.734 2.409-3.327 4.82-6.655 7.15-10.038.891-1.293 1.932-2.655 2.268-4.129 1.955-8.564 4.412-17.095 5.359-25.782.976-8.951 1.182-18.139.344-27.093-1.09-11.641-2.809-23.339-5.698-34.646-1.613-6.314-6.295-11.809-9.32-17.811-3.445-6.835-6.263-14.001-9.945-20.698-4.211-7.659-9.71-14.652-13.485-22.496-4.239-8.81-7.366-18.181-10.607-27.438-1.911-5.46-3.191-11.149-4.576-16.78-.473-1.924-.404-3.981-.576-5.978-.069-.798.123-1.724-.217-2.377-5.509-10.608-2.337-21.514-1.485-32.427.411-5.243.511-10.358 2.191-15.469 2.614-7.955 4.334-16.203 6.94-24.161 2.65-8.087 6.887-15.39 11.906-22.337 4.949-6.853 14.439-7.567 18.49-.78.585.981.955 2.659.516 3.582-1.912 4.035-2.425 8.906-6.941 11.498-1.031.592-1.439 2.438-1.926 3.782-3.771 10.413-8.944 20.589-10.842 31.339-2.119 12.003-4.288 24.475-.837 36.867.784 2.817.202 6.017.996 8.83.988 3.504 2.823 6.761 4.161 10.175 1.635 4.172 2.833 8.541 4.75 12.572 4.094 8.614 8.472 17.096 12.838 25.578 7.032 13.665 14.393 27.168 21.128 40.977 3.625 7.432 6.265 15.347 9.261 23.079.333.86.084 1.946.105 2.926.053-.006.106-.015.159-.023M1483.802 272.693c6.682-1.096 12.639-2.051 18.587-3.056 3.708-.627 7.391-1.421 11.107-1.977 5.419-.812 10.138-2.919 14.13-6.748.702-.674 2.426-1.239 3.09-.85 6.674 3.913 15.117 5.683 18.1 14.817-5.335 6.845-13.528 9.048-21.496 11.105-7.521 1.939-15.326 2.788-23.011 4.094-10.604 1.801-21.192 3.724-31.832 5.298-4.07.601-9.939-6.402-9.873-10.748.101-6.688-.327-13.388-.163-20.074.193-7.95.855-15.89 1.169-23.84.306-7.794.412-15.597.649-23.395.04-1.316.3-2.627.476-3.939 1.008-7.553 2.386-15.082 2.924-22.668.479-6.756-.228-13.589.052-20.369.351-8.473 1.87-16.947 1.635-25.385-.417-14.976 2.5-29.668 2.833-44.554.12-5.408.945-10.826.723-16.209-.233-5.574-1.842-11.104-1.942-16.668-.11-6.156.807-12.33 1.278-18.496.324-4.25.652-8.5.962-12.527 2.043-1.263 4.077-2.52 6.356-3.931 12.611 5.056 10.792 8.973 10.31 20.93-.213 5.266.291 10.56.131 15.832-.297 9.778-.98 19.545-1.23 29.324-.146 5.725.479 11.471.324 17.196-.257 9.489-1.112 18.966-1.253 28.455-.137 9.223.771 18.473.386 27.676-.48 11.506-1.827 22.976-2.768 34.463-.545 6.665-1.116 13.329-1.506 20.003-.478 8.162-1.023 16.332-1.078 24.502-.049 6.909.564 13.82.93 21.739M1621.706 231.036c-2.855-2.89-5.698-5.792-8.568-8.667-2.003-2.006-2.94-3.796-.364-6.316.948-.931 1.121-3.249.8-4.755-.584-2.733-1.476-5.525-2.877-7.92-.88-1.504-2.772-2.881-4.476-3.348-4.928-1.354-9.978-2.281-15.001-3.261-5.843-1.142-7.262 1.243-9.927 6.643-4.199 8.511-5.186 19.618-16.279 23.521-3.627 1.275-7.385 3.472-10.566-.179-3.122-3.58-3.912-8.078-2.176-12.595 1.111-2.889 3.031-5.458 4.237-8.32 4.99-11.84 9.869-23.727 14.745-35.615 3.733-9.103 4.997-18.892 9.232-28.03 5.441-11.743 8.508-24.605 12.361-37.058 1.512-4.883 6.52-7.564 11.268-5.533 1.211.518 2.577.669 3.806 1.153 3.146 1.237 5.743 2.668 6.382 6.727.612 3.884 2.604 7.528 3.59 11.379 2.912 11.363 5.482 22.815 8.475 34.157 1.801 6.833 4.443 13.448 6.158 20.299 2.233 8.925 4.117 17.951 5.71 27.011.393 2.241-1.459 4.815-1.312 7.175.176 2.821 1.397 5.574 2.155 8.36 1.14 4.181 2.57 8.312 3.327 12.562.89 5.001-3.435 5.968-6.736 7.469-1.758.8-3.68 1.23-5.508 1.887-3.986 1.426-6.327-.157-8.456-6.746m-26.068-55.397c5.373.808 10.17 1.527 15.923 2.393-2.998-10.293-5.604-19.234-8.207-28.174l-2.427.157-5.289 25.624M2293.594 207.434c-2.578 4.456-4.37 9.71-7.906 13.193-6.455 6.362-14.806 4.679-22.94 3.439-5.007-.762-10.188-.467-15.289-.403-.772.01-1.938 1.215-2.228 2.096-2.654 8.084-.09 15.872 1.959 23.565.258.97 3.768 1.602 5.727 1.503 7.395-.379 14.775-1.07 22.152-1.748 7.972-.731 15.922-1.752 23.907-2.236 1.625-.098 4.158 1.209 4.908 2.603 3.288 6.112-2.576 16.42-9.252 18.53-10.117 3.197-20.126-.443-30.154.522-5.897.569-11.821.951-17.743 1.14-4.232.135-8.556.264-12.703-.423-5.895-.973-9.008-6.712-8.996-13.713.02-12.163-.443-24.325-.635-36.488-.144-8.979-.214-17.959-.248-26.939-.029-7.578-.16-15.163.125-22.732.254-6.744.989-13.472 1.58-20.201.069-.786.354-1.966.9-2.236 6.16-3.049 6.339-10.541 10.891-14.493 1.646-1.429 5.354-.836 8.069-.588 2.937.269 5.792 1.307 8.715 1.828 1.591.283 3.273.034 4.873.29 9.22 1.474 18.403 3.181 27.646 4.489 4.583.648 9.3.338 13.89.954 4.745.637 9.174 5.253 8.823 8.849-.662 6.799-4.057 10.348-10.967 11.253-8.73 1.142-17.2-1.32-25.746-2.83-5.621-.994-11.426-.995-17.156-1.298-3.318-.176-6.65-.068-10.45-.089-.17 3.386-.418 7.556-.581 11.728-.329 8.43-.272 16.893-1.025 25.282-.584 6.485 1.193 9.735 7.595 10.303 13.562 1.204 27.145 2.177 40.719 3.246.512.535 1.026 1.07 1.54 1.604M1998.086 162.354c3.798 6.316 6.764 11.273 9.753 16.217 2.702 4.47 6.346 8.638 7.869 13.476 1.34 4.258.854 9.33.24 13.917-1.615 12.018-4.75 23.716-11.475 33.944-2.993 4.554-6.88 8.873-11.253 12.087-6.265 4.604-13.77 5.937-21.667 5.205-7.62-.707-15.282-1.016-22.935-1.309-10.456-.4-20.734-8.384-24.651-20.537-3.44-10.682-4.86-21.836-1.482-32.824 2.956-9.614 7.044-18.724 13.722-26.609 3.708-4.379 7.927-7.382 13.188-9.265.679-.243 1.142-1.062 1.729-1.584 2.07-1.836 4.149-3.659 6.227-5.486 1.535-1.348 2.982-2.822 4.644-3.995 1.166-.823 2.582-1.602 3.959-1.756 3.565-.397 7.17-.521 10.763-.598 4.105-.089 8.047-.024 11.617 2.889 3.303 2.698 7.217 4.645 9.752 6.228m-30.196 15.084c-2.219.191-4.884-.389-6.206.687-4.346 3.531-8.374 7.505-12.181 11.626-1.927 2.088-3.906 4.688-4.481 7.354-1.435 6.653-2.193 13.465-3.006 20.239-.602 5.022 4.06 16.37 7.501 17.254 9.512 2.443 18.936 6.192 28.987 1.239 6.516-3.211 10.17-8.497 12.658-14.74 1.641-4.116 2.628-8.572 3.302-12.971.456-2.974.855-6.645-.45-9.077-4.318-8.049-9.487-15.639-14.201-23.482-2.97-4.943-6.391-1.875-9.621-.65-.942.356-1.531 1.639-2.302 2.521M171.118 263.672c5.735-1.844 10.462-3.405 15.224-4.852.888-.269 1.922-.118 2.886-.075 6.937.306 13.871.67 20.81.911 1.098.039 2.669-.068 3.239-.757 2.046-2.474 3.858-1.736 6.07-.327 2.642 1.685 6.14 2.507 8.03 4.747 1.842 2.185 2.121 5.687 3.375 9.481-.864.533-2.187 1.787-3.74 2.228-5.802 1.649-11.621 3.422-17.557 4.323-2.419.366-5.112-1.701-7.764-2.083-3.237-.466-6.578-.565-9.845-.366-2.604.159-5.191.907-7.739 1.573-2.305.603-5.561-1.122-6.739 2.633-.063.2-1.854.048-2.747-.237-3.939-1.259-7.411-1.104-10.774 1.871-.79.7-4.252.03-4.83-.968-2.361-4.083-5.294-8.408-5.768-12.882-.818-7.706.176-15.59.14-23.399-.019-4.443-.571-8.886-1.621-13.301 2.265-2.855.584-5.63.004-9.102-1.858-11.129-2.342-22.484-3.468-33.741-.373-3.718-.968-7.424-1.671-11.095-.979-5.11-2.161-10.184-3.239-15.274-.102-.483-.278-1.102-.078-1.472 2.626-4.844 5.137-9.768 8.11-14.393.745-1.158 3.004-1.797 4.607-1.879 12.373-.634 24.759-1.018 37.135-1.599 5.44-.255 10.868-1.063 16.301-1.057 2.12.003 4.549 1.162 6.262 2.521 1.499 1.189 3.416 4.579 3.045 4.963-2.634 2.72.683 7.914-5.159 9.636-8.133 2.399-16.056 1.431-24.129 1.228-4.9-.123-9.813.199-14.72.373-2.612.094-5.221.425-7.832.423-3.873-.003-6.07 2.069-5.576 5.827a1911.94 1911.94 0 0 0 4.227 30.355c.437 2.962 1.988 4.875 5.46 4.246 8.269-1.498 16.638-2.562 24.8-4.505 6.726-1.603 16.923 3.464 16.83 10.187-.043 3.057-3.911 7.446-7.062 8.729-4.101 1.669-9.249.586-13.887 1.163-6.191.771-12.352 1.874-18.463 3.139-1.218.253-3.084 1.893-3.075 2.875.127 12.764.541 25.523.928 39.932M1137.863 169.856c.623-6.224 1.267-12.445 1.855-18.673.156-1.639.382-3.327.154-4.933-.5-3.51.183-8.065-5.912-7.366-.58.067-2.378-2.884-2.024-3.466 3.108-5.093 6.295-10.197 10.061-14.804 1.803-2.207 4.555-4.378 8.089-1.701 3.008 2.278 6.346 4.122 9.539 6.158l-1.648 1.307c.299 1.997.61 3.991.888 5.99.108.774.41 1.658.165 2.324-1.978 5.385-.588 10.458 1.212 15.529.202.57.298 1.37.054 1.874-3.906 8.051-3.629 16.379-3.299 25.17.385 10.239-1.415 20.62-2.884 30.852-1.037 7.225-3.904 13.846-8.932 19.489-8.867 9.953-20.169 13.395-32.99 12.812-2.39-.108-4.949-1.047-7.043-2.267-8.14-4.741-16.764-9.317-20.399-18.679-1.542-3.97-3.619-8.106-2.24-13.097.736-2.659-1.241-5.974-1.575-9.039a1791.698 1791.698 0 0 1-3.463-34.694c-.464-5.215.561-10.835-1.057-15.605-1.952-5.758-.625-10.542 1.096-15.634 1.01-2.986 7.653-6.223 11.122-5.517 4.389.894 5.692 3.647 5.918 8.822.56 12.787.593 25.734 2.796 38.272 1.861 10.59 4.751 20.869 4.285 31.825-.142 3.329.948 7.392 5.627 8.898 2.554.822 3.787 3.748 7.065 4.74 6.521 1.975 11.139 2.01 15.38-3.255 4.833-5.998 7.581-12.791 6.551-20.908-.41-3.219.848-6.633 1.211-9.972.403-3.715.815-7.441.867-11.169.015-1.116-1.161-2.25-1.792-3.376l1.323.093"/><path clip-path="url(#b)" fill="#FFF" d="M2330.545 76.047c-4.166 3.702-7.969 7.235-11.969 10.528-1.016.837-2.862 1.571-3.984 1.229-6.333-1.93-13.57-1.575-18.502-7.243-1.279-1.471-3.17-2.403-4.749-3.62-6.348-4.894-12.683-9.803-19.614-15.166-1.882 1.679-4.598 3.82-6.979 6.283-9.181 9.489-20.46 15.531-32.707 19.881-2.719.965-5.937 1.337-8.778.94-3.669-.515-8.748-.277-8.896-5.867-.212-8.021 2.204-10.697 8.897-11.733 8.235-1.272 14.229-6.658 20.268-11.749 5.017-4.229 9.768-8.78 14.548-13.283 2.736-2.576 6.072-4.929 7.758-8.112 2.733-5.165 7.52-6.237 12.159-7.443 1.995-.52 5.769.276 6.552 1.685 2.048 3.69 5.777 6.363 5.986 11.441.113 2.739 3.229 5.496 5.301 7.986 6.002 7.219 13.865 11.609 22.753 14.248 3.163.939 5.654 2.16 6.943 5.672.609 1.664 3.005 2.673 5.013 4.323"/></svg>