<svg id="Layer_1" xmlns="http://www.w3.org/2000/svg" xmlns:xlink="http://www.w3.org/1999/xlink" viewBox="0 0 498.2 78.7"><style>.st0{clip-path:url(#SVGID_2_);fill:#fff}.st1{stroke-width:.25}.st1,.st2{clip-path:url(#SVGID_2_);fill:none;stroke:#fff;stroke-miterlimit:10}</style><defs><path id="SVGID_1_" d="M0 0h498.2v78.7H0z"/></defs><clipPath id="SVGID_2_"><use xlink:href="#SVGID_1_" overflow="visible"/></clipPath><path class="st0" d="M292 61.4c-.3-.9-.7-1.7-1.1-2.5-1.1-2.6-2-5.3-2.8-8-.4-1.4-1.2-2.6-1.7-3.9-.1-.3-.1-.6-.2-.9-.1-1.4-.7-2.1-1.1-2.7-.3-.6-1.1-2.3-1.2-2.7-.1-.3-.3-1.1-.4-1.7-.5-2-1.2-3.9-2.1-5.7-.4-.7-.5-1.6-.9-2.3l-1.4-.2-1.8.1-.9 2.1c.1.7.6 1.2.8 1.9.4 1 .5 2.1 1.3 2.8v.2c.5 1.6.9 3.2 1.5 4.8.4 1.1.9 2.1 1.3 3.2.3.8.5 1.5.8 2.3.8 2.2 1.5 4.5 2.3 6.7.2.6.3 1.3.5 1.9.3.9.8 1.8 1.1 2.8.5 1.3.9 2.7 1.4 4 .2.4.5 1 .9 1.1.7.1 1.4.3 2.2-.1 1-.7 1.9-2.1 1.5-3.2M377.7 52c-.1-.6-.4-1.3-.6-1.9-.2-.6-.5-2.4-.6-3.9-.1-1.1-.2-2.1-.3-3.2-.2-1.4-.7-2.7-.9-4.1-.1-.8 0-1.6 0-2.4-.1-1.8-.2-3.7-.3-5.5l-.3-4.8c-.1-1.1-.4-2.2-.5-3.3 0-.4.2-.9.2-1.3-.2-2-.5-4-.8-6 0-.3-.2-.7 0-1 .6-1-.1-1.7-.4-2.5 0-.1-.1-.2-.2-.4l-.2-.1v-.1l-.1-1.2-.3-1.2-.2-.7.1-.8-.7-1.8h-2.1l-1.3.5-.4 1.2-.2 1.7.2 1.7-.3 1.2h.1c-.1.5-.2 1-.3 1.3.3.6.6 1 .7 1.5.2.6.2 1.2.3 1.9.1 1 .3 1.9.4 2.9.1.9.1 1.8.1 2.6.1 1.5.2 2.9.4 4.4.1.6.3 1.3.3 1.9l.3 4.5c0 .5.1 1 .2 1.5.2 1.9.5 3.9.7 5.8v.1c0 1.2-.1 2.4.1 3.5.4 2.2 1 4.4 1.5 6.5 0 .1-.1.3-.1.4v1c.1.3.2.6.3 1 .1.8.1 1.6.2 2.4.2 1.6.5 3.2.5 4.7.1 1.8-.2 3.6.6 5.4.2.5.3 1.4 0 1.9-.6 1.2-.3 2.4-.2 3.6 0 .3.3.7.6.9 1.6 1.1 3.3.7 5.2 0-.1-1.6-.1-3.2-.2-4.8-.1-.6-.5-1.3-.5-1.9-.2-1.8-.3-3.6-.4-5.4-.1-1.5-.1-2.9-.2-4.3-.1.1-.3-2.8-.4-3.4"/><path class="st0" d="M300 30l-1.9-.2-.7.4c-.1.3-.2.6-.3.8-.5 1.5-1.1 3-1.6 4.5v.1c-.4.9-.9 1.7-1.2 2.6-.5 1.8-.9 3.6-1.3 5.3 0 .1-.2.2-.2.2-.1.2-.2.5-.3.7-.1.3-.1.6-.1.8-.2.6-.5 1.2-.7 1.8-.4 1.2-.8 2.5-1.3 3.7-.6 1.4-1.5 2.6-1.5 4.2 0 .5-.3 1.1-.7 1.4-.9.7-1.1 1.7-1.4 2.6-.1.2 0 .6.1.9.8 1.4 2.2 1.7 3.8 1.9.5-1.2 1.1-2.4 1.6-3.6.2-.5.1-1.1.3-1.6.5-1.4 1.1-2.8 1.7-4.1.5-1.1 1-2.2 1.4-3.2 0-.1.9-2.3 1.1-2.8.1-.5.2-1.1.2-1.6.1-.5.5-1.9 1-3.1l.9-2.4c.3-1.1.5-2.2.8-3.3.2-.6.6-1.2.8-1.8.3-.6.5-1.2.8-1.8l-.2-1.7-1.1-.7zM484.3 48.9c.3-.7 1-2.6 1-3 .1-.3.2-1.3.3-1.9.3-2.2.9-4.3 1.7-6.4.3-.8.4-1.8.7-2.6.7-1.5.8-3.1 1.3-4.6.9-2.6 1.7-5.2 2.5-7.8 0-.1.1-.2.1-.3l.6-1.9.3-1.7.3-1.3.8-1.2 1.8-1 .2.1c.2.3.5.3.8.4l.3.1.9.8-.2 1.6-.6 1.5.1 1.4-.3 1.1c-.1.1-.1.2-.2.3-.5 1.3-.9 2.6-1.3 3.9-.4 1.5-.7 3.1-1.2 4.6-.7 1.9-1.3 3.8-1.6 5.8-.1.7-.5 1.4-.7 2.1-.3 1.1-.3 2.3-1.1 3.2v.3c-.4 1.8-.7 3.5-1.1 5.3-.3 1.2-.7 2.4-1.1 3.5-.2.8-.4 1.7-.6 2.5l-1.8 7.5c-.2.7-.2 1.4-.4 2.1-.3 1-.7 2.1-.9 3.1-.4 1.5-.7 3-1.1 4.5-.1.5-.5 1.1-.9 1.3-.7.2-1.5.5-2.3.1-1.1-.5-2.1-1.9-1.9-3.1.2-1 .6-1.9.9-2.8.9-2.9 1.7-5.9 2.3-8.9.3-1.6 1.1-2.9 1.5-4.4.1-.3.1-.7.1-1-.1-1.7.5-2.5.8-3.2"/><path class="st1" d="M484.3 48.9c.3-.7 1-2.6 1-3 .1-.3.2-1.3.3-1.9.3-2.2.9-4.3 1.7-6.4.3-.8.4-1.8.7-2.6.7-1.5.8-3.1 1.3-4.6.9-2.6 1.7-5.2 2.5-7.8 0-.1.1-.2.1-.3l.6-1.9.3-1.7.3-1.3.8-1.2 1.8-1 .2.1c.2.3.5.3.8.4l.3.1.9.8-.2 1.6-.6 1.5.1 1.4-.3 1.1c-.1.1-.1.2-.2.3-.5 1.3-.9 2.6-1.3 3.9-.4 1.5-.7 3.1-1.2 4.6-.7 1.9-1.3 3.8-1.6 5.8-.1.7-.5 1.4-.7 2.1-.3 1.1-.3 2.3-1.1 3.2v.3c-.4 1.8-.7 3.5-1.1 5.3-.3 1.2-.7 2.4-1.1 3.5-.2.8-.4 1.7-.6 2.5l-1.8 7.5c-.2.7-.2 1.4-.4 2.1-.3 1-.7 2.1-.9 3.1-.4 1.5-.7 3-1.1 4.5-.1.5-.5 1.1-.9 1.3-.7.2-1.5.5-2.3.1-1.1-.5-2.1-1.9-1.9-3.1.2-1 .6-1.9.9-2.8.9-2.9 1.7-5.9 2.3-8.9.3-1.6 1.1-2.9 1.5-4.4.1-.3.1-.7.1-1-.1-1.7.5-2.5.8-3.2z"/><path class="st0" d="M451.5 59c.6-.8 1.3-1.4 2-2.1 2-2.3 4-4.6 5.8-7.1.9-1.3 2.2-2.2 3.2-3.4.2-.3.4-.6.5-.9.6-1.4 1.5-1.9 2.1-2.4.6-.5 2-1.9 2.2-2.3.2-.2.7-1.1 1.1-1.6.6-.9 1.2-1.7 1.9-2.6l1.5-1.2 1-.1.9.5 1.1 1.3-.3 1.6-.5.9-.1.1c-.1 0-.1.2-.1.2-1.1 1.4-2.1 2.9-3.3 4.3-.8 1-1.7 1.8-2.5 2.8-.6.7-1.1 1.4-1.6 2l-4.8 6-1.2 1.8c-.7.8-1.5 1.6-2.2 2.4-1 1.2-1.9 2.4-2.9 3.6-.3.4-.9.8-1.3.8-.7-.1-1.5-.2-2.2-.9-.7-1-1-2.7-.3-3.7"/><path class="st1" d="M451.5 59c.6-.8 1.3-1.4 2-2.1 2-2.3 4-4.6 5.8-7.1.9-1.3 2.2-2.2 3.2-3.4.2-.3.4-.6.5-.9.6-1.4 1.5-1.9 2.1-2.4.6-.5 2-1.9 2.2-2.3.2-.2.7-1.1 1.1-1.6.6-.9 1.2-1.7 1.9-2.6l1.5-1.2 1-.1.9.5 1.1 1.3-.3 1.6-.5.9-.1.1c-.1 0-.1.2-.1.2-1.1 1.4-2.1 2.9-3.3 4.3-.8 1-1.7 1.8-2.5 2.8-.6.7-1.1 1.4-1.6 2l-4.8 6-1.2 1.8c-.7.8-1.5 1.6-2.2 2.4-1 1.2-1.9 2.4-2.9 3.6-.3.4-.9.8-1.3.8-.7-.1-1.5-.2-2.2-.9-.7-1-1-2.7-.3-3.7z"/><path class="st0" d="M475 36.8c.4.9.5 1.9.8 2.8.8 3 1.8 5.9 3 8.7.6 1.5.7 3 1.2 4.5.1.3.3.6.5.9.9 1.3.8 2.3.9 3 .1.7.6 2.7.8 3.1.1.3.5 1.2.8 1.8.4 1 .8 1.9 1.2 2.9l.2 1.9-.4 1-.9.5-1.7.2-1.2-1.1-.5-.9v-.2c0-.1-.1-.1-.1-.2-.6-1.7-1.3-3.4-1.9-5.1-.4-1.2-.7-2.4-1-3.6-.3-.8-.6-1.7-.8-2.5-.8-2.4-1.7-4.8-2.5-7.3-.2-.7-.6-1.3-.9-2-.3-1-.6-2.1-.9-3.1-.5-1.5-1.1-2.9-1.5-4.4-.1-.5-.2-1.2.1-1.5.5-.6 1-1.2 1.9-1.3.8.1 2.4.7 2.9 1.9"/><path class="st1" d="M475 36.8c.4.9.5 1.9.8 2.8.8 3 1.8 5.9 3 8.7.6 1.5.7 3 1.2 4.5.1.3.3.6.5.9.9 1.3.8 2.3.9 3 .1.7.6 2.7.8 3.1.1.3.5 1.2.8 1.8.4 1 .8 1.9 1.2 2.9l.2 1.9-.4 1-.9.5-1.7.2-1.2-1.1-.5-.9v-.2c0-.1-.1-.1-.1-.2-.6-1.7-1.3-3.4-1.9-5.1-.4-1.2-.7-2.4-1-3.6-.3-.8-.6-1.7-.8-2.5-.8-2.4-1.7-4.8-2.5-7.3-.2-.7-.6-1.3-.9-2-.3-1-.6-2.1-.9-3.1-.5-1.5-1.1-2.9-1.5-4.4-.1-.5-.2-1.2.1-1.5.5-.6 1-1.2 1.9-1.3.8.1 2.4.7 2.9 1.9z"/><path class="st0" d="M450.8 46.5c.1-.6.3-1.1.4-1.7.1-.5.3-2.1.3-3.5 0-.9 0-1.9.1-2.8.1-1.2.5-2.5.6-3.7.1-.7-.1-1.4-.1-2.1v-4.9-4.2c0-1 .2-2 .3-3 0-.4-.2-.8-.2-1.1.1-1.8.2-3.6.4-5.3 0-.3.1-.7 0-.9-.5-.8 0-1.5.2-2.3 0-.1.1-.2.2-.3l.2-.1v-.1l.1-1.1.2-1.1.2-.6-.2-.7.6-1.6 1.8-.1 1.2.4.4 1 .2 1.5-.1 1.5.3 1h-.1c.1.5.2.9.3 1.2-.2.5-.5.9-.6 1.4-.1.5-.1 1.1-.1 1.7-.1.9-.2 1.7-.2 2.6V20c0 1.3-.1 2.6-.1 3.9 0 .6-.2 1.1-.2 1.7v4.1c0 .5-.1.9-.1 1.4-.1 1.7-.2 3.5-.3 5.2v.1c0 1 .2 2.1.1 3.1-.2 2-.6 3.9-1 5.9 0 .1.1.2.1.3 0 .3.1.6 0 .8 0 .3-.2.6-.2.9 0 .7 0 1.4-.1 2.1-.1 1.4-.2 2.8-.2 4.2 0 1.6.4 3.2-.2 4.8-.2.5-.2 1.2.1 1.7.6 1 .4 2.1.3 3.2 0 .3-.2.6-.5.8-1.4 1.1-2.9.8-4.7.3 0-1.4-.1-2.9 0-4.3 0-.6.3-1.1.4-1.7.1-1.6 0-3.2 0-4.8v-3.8c.1-.2.2-2.8.2-3.4"/><path class="st1" d="M450.8 46.5c.1-.6.3-1.1.4-1.7.1-.5.3-2.1.3-3.5 0-.9 0-1.9.1-2.8.1-1.2.5-2.5.6-3.7.1-.7-.1-1.4-.1-2.1v-4.9-4.2c0-1 .2-2 .3-3 0-.4-.2-.8-.2-1.1.1-1.8.2-3.6.4-5.3 0-.3.1-.7 0-.9-.5-.8 0-1.5.2-2.3 0-.1.1-.2.2-.3l.2-.1v-.1l.1-1.1.2-1.1.2-.6-.2-.7.6-1.6 1.8-.1 1.2.4.4 1 .2 1.5-.1 1.5.3 1h-.1c.1.5.2.9.3 1.2-.2.5-.5.9-.6 1.4-.1.5-.1 1.1-.1 1.7-.1.9-.2 1.7-.2 2.6V20c0 1.3-.1 2.6-.1 3.9 0 .6-.2 1.1-.2 1.7v4.1c0 .5-.1.9-.1 1.4-.1 1.7-.2 3.5-.3 5.2v.1c0 1 .2 2.1.1 3.1-.2 2-.6 3.9-1 5.9 0 .1.1.2.1.3 0 .3.1.6 0 .8 0 .3-.2.6-.2.9 0 .7 0 1.4-.1 2.1-.1 1.4-.2 2.8-.2 4.2 0 1.6.4 3.2-.2 4.8-.2.5-.2 1.2.1 1.7.6 1 .4 2.1.3 3.2 0 .3-.2.6-.5.8-1.4 1.1-2.9.8-4.7.3 0-1.4-.1-2.9 0-4.3 0-.6.3-1.1.4-1.7.1-1.6 0-3.2 0-4.8v-3.8c.1-.2.2-2.8.2-3.4z"/><path class="st0" d="M397.1 7.1c-.7.2-1.3.3-1.9.5-.4 1-.8 2-1.2 3.1-.6 1.5-1.3 3-1.7 4.6-.4 1.4-.4 2.9-.8 4.4-.4 1.4-1 2.7-1.4 4-1.2 3.7-3.1 7.2-4.1 11.1-.6 2.2-1.6 4.2-2.4 6.3-.6 1.7-.9 3.5-1.6 5.2-.7 1.9-1.6 3.7-2.5 5.5-.1.3-.3.6-.4 1-.7 2-1.3 3.9-2 5.9-.7 2-1.5 3.9-2.1 5.9-.6 1.7-1 3.4-1.5 5.1-.3 1.1.6 3.3 1.7 3.5.3 0 .5.1.8.1l1.3-.5 1.4-1.2.9-2.1.3-1.1c.5-2 .9-3.8 1.4-5.6.6-2.1 1.4-4.1 2.1-6.1.6-1.7 1.3-3.3 1.9-5 1.1-2.8 2.3-5.6 3.3-8.5.8-2.3 1.3-4.7 2-7 .8-2.4 1.7-4.7 2.5-7.1.5-1.4.8-2.9 1.2-4.4.8-2.5 1.7-4.9 2.6-7.3.4-1.3.7-2.7 1.2-4 1.1-3.2 1.9-4-1-6.3M94.4 47.4c.6 2 1.3 4 1.9 6 .8 2.6 1.6 5.3 2.4 7.9.5 1.7.7 3.6 1.7 4.9.9 1.2.5 2.3.7 3.5.2 1.5-.9 2.6-2.7 3.1-.7.2-2.3-.8-2.6-1.7-.6-1.9-1.1-3.8-1.7-5.7-.3-1.1-.8-2.2-1.1-3.3-.4-1.2-.6-2.5-1-3.7-.4-1.2-1-2.2-1.4-3.4-.5-1.3-.9-2.6-1.2-4-.2-.7-.3-1.1-1.1-1.1-2.5.1-5.1.1-7.9.1.2 1.4.4 2.5.4 3.7 0 1.3-.2 2.6-.3 3.8 0 .3-.1.5-.1.8.1 1.3.1 2.6.3 3.8.1.6.2 1.1.3 1.7.1.3.1.7.1 1-.1 2 .6 4.1-1.5 5.6-1.2.9-2.9.5-3.6-.8-.8-1.6-1.1-3.1-.9-5 .4-3.7.2-7.4-.1-11.1-.3-3.5-.5-7 0-10.5.3-1.7.1-3.4.1-5.1 0-2.1-.2-4.1-.2-6.2 0-3.5 0-7 .1-10.6 0-1.3.3-2.4 1-3.6 1-1.6 2.6-1.4 4-1.9 2.7-.9 5.6-1.5 8.5-1.4 1.3 0 2.6.3 3.8.9 2.6 1.3 5.2 2.5 7.4 4.3 2.7 2.2 4.9 4.9 4.9 8.7 0 1.3-.3 2.5-.5 3.8l-1.5 6.9c-.1.4-.3.8-.5 1-1.8 1.9-3.6 3.7-5.4 5.6-.6.6-1.1 1.3-1.7 2h-.6m1-7.8c1.2-1.2 2-2.5 2.2-4.2.3-2.2.9-4.3 1.1-6.5.2-1.8-1.2-2.9-2.2-4.2-1.7-2.1-4.1-3.2-6.4-4.3-2.4-1.1-5.2-.8-7.9-.1-2.1.6-2.7 1.4-2.7 2.8 0 1 .1 2 .2 3.1.2 3 .5 6 .5 9 0 2.7.7 5.3.1 8-.2.7.2 1.3 1.2 1.3 1.9 0 3.7.2 5.6.1 1.2-.1 2.7-.3 3.7-.9 1.7-1.1 3.1-2.7 4.6-4.1M44.4 14.2c-.9.6-1.7 1.4-2.7 1.6-1.6.4-3.4.3-5 .5-3.2.5-6.3 1.1-9.5 1.6-2.3.3-4.6.5-6.9.8-.7.1-1.5.2-2.2.3-1.5.2-3.1.4-4.6.6-.7.1-1 .4-.9 1.1.2 2.6.3 5.1.5 7.7.2 2.2.5 4.5.7 6.7l.3 4.2c.1 2.4.1 4.8.4 7.1.5 4 1.1 7.9 1.7 11.9.1.8.4.9 1.1.7 1.8-.4 3.7-.6 5.5-1 1.7-.4 3.4-1.1 5.1-1.2 1.1-.1 2.4.4 3.3 1 .7.5-.2 3.1-1 3.8-1.1 1.1-2.5.6-3.7.9-2.6.6-5.1.9-7.7 1.5-.8.2-1.6.7-2.3 1.1-.2.1-.3.4-.3.7.1 1.3.4 2.5.2 3.8-.2 1.9.8 4-.7 5.8-.7.8-1.4 1.3-2.4 1-1.1-.3-2.2-.7-2.4-2.1-.2-1.5-.6-2.9-.7-4.4-.1-1.1.1-2.3.3-3.5.6-3.4-.1-6.8-.3-10.2-.2-3.3-.8-6.5-1.3-9.7 0-.3-.1-.7-.1-1-.1-2.5-.1-4.9-.3-7.4-.2-1.8-.7-3.6-.8-5.5-.1-1.4 0-2.9 0-4.3-.1-2.6-.3-5.2-.5-7.8 0-.2-.5-.5-.9-.6-1.2-.1-2.4 0-3.5-.1-2 .1-2.8-.7-2.8-2.7 0-1.3 1.2-2.4 2.9-2.4l10-.3c.9 0 1.9-.5 2.8-.6 3.7-.4 7.5-.7 11.2-1.2 1.9-.3 3.7-1.1 5.6-1.5 2.6-.6 5.2-1.4 7.9-.4.3.1.6 0 .9-.1 1.7-.6 3 .4 2.9 2.1 0 .5.1 1 .2 1.5M196.1 12.8c-.7.2-1.3.6-2 .7-2.3.6-4.6 1.1-6.9 1.6-.8.2-1.6 0-2.3.2-.3.1-.7.5-.7.8-.2 2.4-.3 4.7-.5 7.1 0 .2-.1.5 0 .7.7 1.9-.1 3.7-.2 5.6-.1 1.3 0 2.7-.2 4-.1.8-.4 1.6-.6 2.3-.3 1.6-.5 3.1-.7 4.7-.1 1.5 0 2.9-.2 4.4-.2 1.3-.7 2.5-.9 3.8-.4 3.6-.5 7.3-1.1 10.9-.5 2.6-.4 5.1-.3 7.6.1 1.6-.6 3.5.7 5 .1.1.2.5.1.6-.7 1.1-1.3 2.5-2.3 3.2-.8.5-2.3.2-3.3-.1-.6-.2-1.1-1.4-1.1-2.1-.1-2.2.1-4.4.2-6.7 0-2.1 0-4.3.1-6.4 0-1.1.3-2.1.4-3.2l1.2-9.6c.4-3.4.6-6.7 1.5-10.1.6-2.2.4-4.6.6-6.9.1-1.4.4-2.7.6-4.1.1-.5-.1-1.1 0-1.7.3-1.9 1-3.8.5-5.9-.1-.6.3-1.4.4-2.1.3-1.5 0-1.8-1.5-2.1-2.9-.6-5.5-2-8-3.4-1.2-.7-2.7-1.4-3.5-2.5-2-2.8-3.1-3.4.5-7.1.8.7 1.7 1.4 2.4 2.1 1.9 2 4.2 3.2 6.6 4.4.5.3 1.2.2 1.8.3.3.1.7.1.8.3 1.2 1.3 2.6 1.2 4.1 1 1.8-.2 3.7-.2 5.4-.7 2.3-.7 4.6-1.4 6.4-3.2 1.2-1.1 4-1.1 5.3-.1.9.8.4 1.7.1 2.4-.4 1.5-1.1 2.8-2.5 3.7-.2.1-.4.5-.5.7l-.4-.1zM131.7 46.9c-.6 1.2-1.1 2.6-2 3.6-1.6 1.7-3.9 1.4-6 1.1-1.3-.1-2.7 0-4 .1-.2 0-.5.3-.6.6-.6 2.2.1 4.2.8 6.2.1.3 1 .4 1.5.3 2-.2 3.9-.4 5.8-.7 2.1-.3 4.2-.6 6.3-.8.4 0 1.1.3 1.3.6.9 1.6-.5 4.4-2.3 5-2.6 1-5.3.1-8 .5-1.6.2-3.1.4-4.7.5-1.1.1-2.3.2-3.4 0-1.6-.2-2.5-1.7-2.5-3.5-.1-3.2-.4-6.4-.5-9.6-.1-2.4-.2-4.7-.3-7.1-.1-2-.2-4-.2-6 0-1.8.1-3.6.2-5.4 0-.2.1-.5.2-.6 1.6-.9 1.6-2.9 2.7-3.9.4-.4 1.4-.3 2.1-.2.8 0 1.5.3 2.3.4.4.1.9 0 1.3 0 2.5.3 4.9.6 7.4.9 1.2.1 2.5 0 3.7.1 1.3.1 2.5 1.3 2.4 2.2-.1 1.8-1 2.8-2.8 3.1-2.3.4-4.6-.2-6.8-.5-1.5-.2-3-.1-4.5-.2-.9 0-1.8.1-2.8.1v3.1c0 2.2.1 4.5 0 6.7-.1 1.7.4 2.6 2.1 2.6 3.6.2 7.2.3 10.8.4.3.1.4.2.5.4M57.9 33.4c1.2 1.5 2.1 2.7 3.1 3.9.9 1.1 1.9 2.1 2.5 3.3.5 1.1.5 2.4.5 3.6 0 3.2-.5 6.4-1.9 9.3-.6 1.3-1.5 2.6-2.6 3.5-1.5 1.4-3.4 2-5.5 2.1-2 .1-4 .2-6.1.4-2.8.2-5.7-1.5-7.1-4.6-1.3-2.7-2-5.6-1.5-8.6.5-2.6 1.2-5.1 2.7-7.4.8-1.3 1.8-2.2 3.2-2.9.2-.1.3-.3.4-.5.5-.5 1-1.1 1.5-1.6.4-.4.7-.8 1.1-1.2.3-.3.6-.5 1-.6.9-.2 1.9-.4 2.8-.5 1.1-.2 2.1-.3 3.1.4s2 1.1 2.8 1.4m-7.5 5c-.6.1-1.3.1-1.6.4-1 1.1-2 2.2-2.8 3.5-.4.6-.9 1.4-.9 2.1-.2 1.8-.1 3.6-.1 5.4 0 1.3 1.6 4.2 2.5 4.3 2.6.3 5.2 1 7.6-.6 1.6-1.1 2.4-2.6 2.8-4.3.3-1.1.4-2.3.4-3.5 0-.8 0-1.8-.4-2.4-1.4-2-3-3.8-4.5-5.7-.9-1.2-1.7-.3-2.5.1-.2.1-.3.4-.5.7M271.4 32.6c-.2-2.3-.2-4.6-.6-6.9-.7-3.9-1.6-7.7-2.6-11.6-.8-3.4-3.2-5.8-5.8-7.8-2.5-1.9-5.3-3.3-8.1-4.6-1.9-.9-4-1.5-6-1.7-2.2-.2-4.6.1-6.8.3-1.5.2-3.3.3-4.4 1.2-2.1 1.7-4.1 3.8-5.7 6-1.6 2.1-2.8 4.5-3.9 7-1.3 2.9-2.4 5.9-3.3 9-1 3.5-1.7 7.2-1.3 10.9.1.8 0 1.7 0 2.5-.1 2.6-.5 5.2-.3 7.8.2 2.9.8 5.9 1.5 8.7.8 3.4 1.5 7 3.2 10.1 1.8 3.3 4.2 6.6 7.1 9.1 3.1 2.7 6.9 4.7 11.1 5.7.1 0 .2.1.4.1 2.5.4 5.6.4 9-.8.1-.1.2-.1.4-.2 2.1-.9 4.1-2 5.9-3.4 1.2-.9 2.1-2.3 3-3.5 4.6-5.7 6.7-12.5 7.4-19.7.2-1.9.3-3.9.5-5.8.2-1.8.5-3.6.4-5.4-.4-2.3-.9-4.6-1.1-7m-5.1 15.5c-.6 3.4-1.2 6.9-2 10.3-1.1 4.9-4 8.8-8 11.9-.3.2-.6.5-.9.7-6.2 5.3-9.6 2-12.2.9-1.9-.7-3.7-1.6-5.3-3-.8-.7-1.6-1.4-2.4-2-2.8-2-3.8-5.1-4.9-8.1-.9-2.5-1.6-5-2.1-7.6-.5-2.7-.8-5.4-.9-8.1-.1-1.6.2-3.3.2-5 .1-2.4-.1-4.7.1-7.1.1-1.8.6-3.6.9-5.4.7-4.5 2.6-8.5 4.9-12.3 1.2-2.1 2.6-4.1 4-6 .4-.6 1.5-.7 2.3-1 .4-.1.8-.2 1.3-.3 2-.5 3.9-1.2 5.9-1.6.9-.2 1.9.3 2.8.6 1.7.6 3.5 1.2 5 2.2 2 1.2 3.9 2.4 5.5 4 1.3 1.3 2.6 3.1 3 4.8 1.1 4.4 1.8 9 2.4 13.5.5 3.9.8 7.8.9 11.8.3 2.3-.1 4.6-.5 6.8M324.4 27.7c-.4-.2-.8-.5-1.1-.5-2.8.1-5.5.3-8.3.5-1.1.1-1.6.8-1.4 1.9.4 2.8.7 5.6.9 8.4.1 1.4 0 2.9.1 4.4.2 3.6.6 7.1.8 10.7.3 4.8.5 9.7.7 14.9 2-.4 3.8-.6 5.6-1 1.5-.4 2.9-1.1 4.4-1.7 1.6-.6 3.2-.2 3.7 1 .7 1.5.2 3-1.6 3.5-3.2 1-6.3 2.7-9.8 2.7-1.2 0-2.4.5-3.6.6-.8.1-1.7-.1-2.6-.3-1.3-.3-1.8-1.1-1.7-2.5.2-4.5.4-9 .3-13.5-.1-4.5-.8-9.1-1-13.6-.3-4.7-.3-9.3-.5-14-.1-4.1-.3-8.1-.2-12.2.1-2.7.6-5.5 1-8.2 0-.3.5-.7.9-.8 2.8-.7 5.4-1.7 8.4-1.5 1.9.1 3.8-.6 5.8-.9.4.4 1.1.9 1.3 1.5.4.9.5 1.9.5 2.9 0 .3-1 .7-1.6.7-3 .1-5.9.2-8.9.2-1.7 0-2.9 1.1-2.9 2.8 0 3 .2 6 .3 9.3 2.3-.1 4.2-.2 6.1-.4 1.7-.1 3.4-.4 5.1-.5.3 0 .7.4.8.6.2.9.5 1.9.3 2.7-.4.8-1.2 1.5-1.8 2.3M342.4 26.2c1.6.1 3.2.1 4.8.2 1.8 0 3.4.3 4.9 1.4.6.4 1.2.8 1.9 1.1 1.9 1.1 3.3 2.8 3.7 4.8.4 1.6-.1 3.3-.8 4.8-.5 1.1-.8 2.2-1.4 3.2-.8 1.3-1.6 2.6-3.1 3.2-.9.3-1.1 1.2-.5 1.9.7.8 1.3 1.6 2 2.3 1.8 1.9 2.8 4.3 4 6.5.7 1.2 1.4 2.4 2.2 3.6.4.7.3 1.4-.1 2-.6 1-1.8 1.2-2.8.5-.4-.3-.8-.6-.9-1.3-.1-.8-.6-1.6-1-2.4-.4-1-.9-1.9-1.4-2.9-.8-1.7-1.7-3.2-3.3-4.2-.3-.2-.4-.7-.6-1-.6-.9-1.2-1.8-1.9-2.6-.2-.2-.5-.4-.8-.3-1.8.2-3.6.4-5.5.6-.5.1-1 0-1.5.2-.2.1-.5.3-.5.5-.2 1.4-.5 2.7-.6 4.1-.2 1.5-.2 2.9-.3 4.4-.1.8-.2 1.7-.3 2.5-.1.6-1.2 1.8-1.7 1.9-.7.1-1.9-.6-2.2-1.3-.1-.2-.2-.4-.1-.6.1-.9.3-1.9.5-2.8.2-1.4.4-2.8.5-4.3.1-1.7.5-3.4.6-5.1.1-1.4.1-2.8.2-4.2l.3-5.1c.1-2 .2-3.9.4-5.9.1-1 .4-1.9.5-2.9.1-.7.2-1.4.5-2 .2-.4.6-.8 1-.8.8-.1 1.6.1 2.3.1.2 0 .6-.1 1-.1m1.4 3.6c0-.1 0-.1 0 0-.7 0-1.4 0-2 .1-.3 0-.7.2-.8.4-.2.7-.3 1.5-.4 2.2-.1 1.7-.2 3.4-.3 5.2-.1 1.8-.1 3.6-.1 5.4 0 .6.4.9 1 .8.7-.1 1.3 0 2-.1 1.3-.1 2.6-.2 3.8-.5 1-.2 1.9-.7 2.8-1.1.8-.3 1.5-.7 1.9-1.6.6-1.4 1.2-2.8 2.1-4 .8-1.1 0-2.1-.1-3.2 0-.6-1-1.3-1.7-1.8-1.2-.8-2.4-1.5-4-1.4-1.4.1-2.8-.3-4.2-.4M400.2 54.9c.2-2.7.3-5.5.5-8.2.1-.8.4-1.7 1-2.3.5-.5 1.5-1 2.2-.9.9.1 1.4.9 1.3 1.9-.2 1.4-.4 2.7-.6 4.1-.6 3.4-.6 6.8.4 10.2.5 1.9 0 3-1.8 3.7-1.9.8-3.5-.2-3.5-2.3 0-2.1.2-4.1.4-6.2h.1zM401.7 28.6c.3-1.7 3.4-3.8 5.1-3.3.6.2 1.4 1.1 1.5 1.8.3 1.6-.4 3-1.5 4.2-.8 1-2.2 1.3-3.2.7-1.1-.7-2.1-2.4-1.9-3.4M439.6 18c-1.5 0-2.9-.2-4.2.1-2.5.6-4.9 0-7.4 0-2.1 0-4.2 0-6.4.1-.3 0-.8.4-.8.6 0 1.8 0 3.6.1 5.4 0 .8-.1 1.5-.1 2.3.2 2.7.5 5.4.5 8.2.1 2.6-.2 5.3-.2 7.9 0 2.5-.1 5 0 7.6 0 1.1 1.1 1 1.8 1 2.9-.1 5.9-.5 8.8-.6.8 0 1.8.1 2.4.6.4.3.3 1.4.1 2-.2.6-.7 1-1.7 1-2.5 0-5.1.3-7.6.4h-2.7c-1 0-1.5.4-1.5 1.4-.1 1.7-.3 3.5-.5 5.2-.1 1-.2 2-.4 3-.2.9.1 1.4.9 1.7 1.8.7 3.7.9 5.6.7 2.5-.2 5.1-.4 7.7-.5.8 0 1.5-.7 2.6-.3 1.1.4 1.9.7 1.6 2.1 0 .2.1.4.2.6-1 1.5-2.4 1.1-3.8 1.1-1.3-.1-2.6.1-4 .2-1.6.1-3.1.4-4.7.4-1.8-.1-3.7-.4-5.5-.7-1.1-.2-2.1-.6-3.1-1-1.1-.4-1.4-1.8-1.2-2.9.3-1.4.4-2.9.5-4.4.2-2.3.4-4.5.6-6.8l.6-9.3c.2-2.7.3-5.4.4-8.1 0-.5 0-1.1-.2-1.6-.7-2.7-.5-5.4-.5-8.1 0-3.1.1-6.3.1-9.4 0-.7.2-1.2.9-1.6 2.3-1.2 4.7-.9 7.1-.8 2.4.1 4.7.4 7.1.4 1 0 2-.4 3-.5.9-.1 1.9-.2 2.7 0 .7.2 1.7.5 1.1 1.7.1 0 .1.5.1.9"/><path class="st2" d="M439.6 18c-1.5 0-2.9-.2-4.2.1-2.5.6-4.9 0-7.4 0-2.1 0-4.2 0-6.4.1-.3 0-.8.4-.8.6 0 1.8 0 3.6.1 5.4 0 .8-.1 1.5-.1 2.3.2 2.7.5 5.4.5 8.2.1 2.6-.2 5.3-.2 7.9 0 2.5-.1 5 0 7.6 0 1.1 1.1 1 1.8 1 2.9-.1 5.9-.5 8.8-.6.8 0 1.8.1 2.4.6.4.3.3 1.4.1 2-.2.6-.7 1-1.7 1-2.5 0-5.1.3-7.6.4h-2.7c-1 0-1.5.4-1.5 1.4-.1 1.7-.3 3.5-.5 5.2-.1 1-.2 2-.4 3-.2.9.1 1.4.9 1.7 1.8.7 3.7.9 5.6.7 2.5-.2 5.1-.4 7.7-.5.8 0 1.5-.7 2.6-.3 1.1.4 1.9.7 1.6 2.1 0 .2.1.4.2.6-1 1.5-2.4 1.1-3.8 1.1-1.3-.1-2.6.1-4 .2-1.6.1-3.1.4-4.7.4-1.8-.1-3.7-.4-5.5-.7-1.1-.2-2.1-.6-3.1-1-1.1-.4-1.4-1.8-1.2-2.9.3-1.4.4-2.9.5-4.4.2-2.3.4-4.5.6-6.8l.6-9.3c.2-2.7.3-5.4.4-8.1 0-.5 0-1.1-.2-1.6-.7-2.7-.5-5.4-.5-8.1 0-3.1.1-6.3.1-9.4 0-.7.2-1.2.9-1.6 2.3-1.2 4.7-.9 7.1-.8 2.4.1 4.7.4 7.1.4 1 0 2-.4 3-.5.9-.1 1.9-.2 2.7 0 .7.2 1.7.5 1.1 1.7.1 0 .1.5.1.9z"/><path class="st0" d="M158.6 53.7c-.7-1.3-1.1-2.6-1.9-3.7-1.6-2-3.4-3.8-5-5.7-.9-1-1.7-2.1-2.6-3.2-.4-.5-1.1-1-1.4-1.6-.9-1.9-1.6-3.9-2.4-5.8-1-2.5.1-4.9.5-7.4.3-2.2 1.6-3.9 2.7-5.6.5-.8 1.1-1.5 1.6-2.2 1.2-1.7 3-2.5 4.9-3 .4-.1 1.4.5 1.5.9.1.6-.1 1.6-.5 1.9-1.4 1-2.5 2.3-3.4 3.9-.8 1.5-2 2.8-2.5 4.4-.9 2.7-1.2 5.5 0 8.3 1.4 3.4 3.8 6.1 6.3 8.7 1.8 1.9 3.2 3.9 4.5 6.1 1.6 2.9 2.1 5.8 1.3 8.9-.6 2.4-1.6 4.8-3.5 6.6-1.1 1.1-2.3 2.3-3.5 3.3-2 1.7-4.6 2.3-7 3.2-.7.3-1.4.6-2.1.7-.6 0-1.4-.1-1.9-.5-1.2-.8-1.1-2.5.3-3 2.1-.8 4.2-1.3 6.3-2.2 1-.4 1.9-1 2.6-1.8 1.5-1.7 3.1-3.5 4-5.5.9-1.7.9-3.7 1.2-5.7"/></svg>