<svg xmlns="http://www.w3.org/2000/svg" width="500" height="280.357" viewBox="0 109.821 500 280.357"><path opacity=".7" d="M0 109.821v280.357h500V109.821H0zm250 246.786c-55.607 0-100.714-45.107-100.714-100.715 0-55.607 45.107-100.714 100.714-100.714s100.714 45.107 100.714 100.714c0 55.608-45.107 100.715-100.714 100.715z"/><path fill="#FFF" d="M250 359.821h-.071v-.356h.714v.356H250zm-1.857 0h-.714v-.356h.714v.356zm4.286-.036v-.356c.25 0 .464 0 .714-.036v.357c-.214.035-.464.035-.714.035zm-6.786-.035c-.25 0-.464-.035-.714-.035v-.357c.25 0 .464.035.714.035v.357zm9.322-.035v-.357c.25 0 .464-.036.714-.036l.036.357c-.286 0-.536 0-.75.036zm-11.822-.108c-.25 0-.464-.036-.714-.036l.036-.356c.25 0 .464.035.714.035l-.036.357zm14.322-.036l-.036-.356c.25 0 .464-.036.714-.036l.036.356c-.25 0-.5 0-.714.036zm-16.822-.178c-.25-.035-.464-.035-.714-.071l.036-.356c.25.035.464.035.714.07l-.036.357zm19.322-.036l-.036-.357c.25-.035.464-.035.714-.071l.036.356c-.25.036-.5.036-.714.072zm-21.822-.214c-.25-.035-.464-.071-.714-.071l.036-.356c.25.035.464.07.714.07l-.036.357zm24.286-.072l-.036-.356c.25-.036.465-.072.715-.072l.035.357a4.472 4.472 0 0 1-.714.071zm-26.75-.214c-.25-.036-.464-.072-.714-.107l.036-.357c.25.036.464.072.714.107l-.036.357zm29.25-.107l-.036-.357c.25-.035.465-.071.715-.107l.035.357c-.25.036-.5.072-.714.107zm-31.75-.285c-.25-.036-.464-.072-.714-.107l.071-.357c.25.035.464.071.714.107l-.071.357zm34.214-.108l-.072-.357c.25-.035.464-.071.714-.107l.072.357c-.25.035-.464.071-.714.107zm-36.679-.322a4.75 4.75 0 0 1-.714-.143l.071-.357c.25.036.464.107.714.144l-.071.356zm39.143-.106l-.072-.357c.25-.036.465-.106.715-.143l.071.356c-.25.036-.464.108-.714.144zm-41.607-.394c-.25-.035-.464-.106-.714-.143l.071-.357c.25.036.464.107.714.144l-.071.356zm44.071-.106l-.071-.357c.25-.036.465-.106.715-.143l.07.356c-.25.036-.5.072-.714.144zm-46.5-.429c-.25-.071-.464-.107-.714-.179l.072-.356c.214.07.464.106.678.178l-.036.357zm48.929-.143l-.071-.357c.214-.071.464-.107.679-.179l.071.357c-.214.072-.429.107-.679.179zm-51.357-.464c-.214-.071-.464-.107-.679-.178l.107-.357c.214.071.464.107.679.178l-.107.357zm53.786-.143l-.107-.357c.214-.071.464-.107.679-.178l.107.356c-.215.036-.429.108-.679.179zm-56.215-.535c-.214-.072-.464-.144-.679-.215l.107-.357c.214.072.464.143.678.215l-.106.357zm58.643-.18l-.107-.356c.215-.071.465-.144.679-.214l.106.356a2.432 2.432 0 0 1-.678.214zM218.571 355c-.214-.071-.464-.143-.678-.215l.107-.356c.214.071.464.143.679.214l-.108.357zm63.429-.179l-.107-.356c.215-.072.465-.144.679-.215l.107.321c-.214.108-.464.179-.679.25zm-65.821-.606c-.214-.072-.464-.144-.679-.25l.107-.322c.214.072.464.143.679.25l-.107.322zm68.178-.215l-.107-.321c.215-.071.465-.144.679-.25l.106.321a3.772 3.772 0 0 1-.678.25zm-70.536-.643c-.214-.072-.464-.179-.678-.25l.143-.322c.214.072.464.18.679.25l-.144.322zm72.894-.214l-.144-.321c.214-.071.429-.179.679-.25l.143.321a3.85 3.85 0 0 1-.678.25zm-75.251-.678c-.214-.072-.429-.18-.679-.286l.143-.321c.214.107.428.178.678.25l-.142.357zm77.607-.215l-.143-.321c.214-.071.429-.179.643-.286l.144.322c-.215.106-.43.178-.644.285zm-79.928-.75c-.214-.107-.429-.179-.643-.285l.143-.322c.214.107.428.179.643.286l-.143.321zm82.214-.215l-.143-.32c.214-.107.428-.18.643-.286L292 351c-.215.107-.429.179-.643.285zm-84.5-.785c-.214-.107-.428-.215-.643-.285l.143-.322c.214.107.429.215.643.286l-.143.321zm86.786-.25l-.143-.321c.215-.107.429-.214.643-.286l.143.322c-.215.106-.429.178-.643.285zm-89.072-.821l-.643-.321.143-.322.643.322-.143.321zm91.322-.25l-.143-.321.643-.322.143.322c-.215.107-.429.213-.643.321zm-93.572-.894l-.643-.32.178-.322.643.322-.178.32zm95.786-.214l-.179-.321.643-.321.179.321a2.7 2.7 0 0 0-.643.321zm-98-.964a5.99 5.99 0 0 1-.643-.357l.179-.321c.214.106.428.214.643.356l-.179.322zm100.214-.25l-.179-.322c.215-.106.429-.214.607-.356l.179.321c-.178.143-.393.25-.607.357zm-102.392-.964c-.214-.107-.429-.25-.607-.357l.179-.32c.214.106.429.25.607.356l-.179.321zm104.571-.25l-.179-.321c.214-.106.394-.25.607-.356l.179.32a5.419 5.419 0 0 0-.607.357zm-106.75-1.036c-.214-.107-.393-.25-.607-.393l.178-.286c.214.143.393.25.607.356l-.178.323zm108.893-.25l-.178-.322c.214-.106.393-.25.606-.393l.179.286c-.215.179-.393.287-.607.429zm-111-1.107c-.214-.143-.393-.25-.607-.393l.179-.286c.214.144.393.25.607.394l-.179.285zM306.75 343l-.179-.285c.215-.144.393-.25.607-.394l.214.286c-.249.143-.428.286-.642.393zm-115.214-1.143c-.214-.143-.393-.286-.607-.393l.214-.286c.178.143.393.286.607.393l-.214.286zm117.285-.25l-.214-.286c.179-.143.393-.286.571-.393l.214.286c-.178.143-.356.286-.571.393zM189.5 340.429c-.179-.144-.393-.286-.571-.429l.214-.285c.178.143.393.285.571.428l-.214.286zm121.393-.25l-.214-.286c.179-.143.393-.285.571-.428l.214.285a7.58 7.58 0 0 0-.571.429zm-123.429-1.214c-.179-.144-.393-.286-.571-.43l.214-.285c.179.143.393.285.572.429l-.215.286zm125.429-.286l-.214-.286c.179-.143.393-.285.571-.428l.214.285a7.58 7.58 0 0 0-.571.429zm-127.429-1.25a7.789 7.789 0 0 0-.571-.429l.214-.285c.179.143.357.285.572.428l-.215.286zm129.393-.286l-.215-.285c.179-.143.357-.286.571-.429l.215.286c-.178.142-.392.285-.571.428zm-131.321-1.286c-.179-.143-.357-.322-.536-.465l.214-.285c.179.143.357.321.536.464l-.214.286zm133.25-.286l-.215-.286c.179-.143.357-.32.536-.464l.214.286a3.486 3.486 0 0 1-.535.464zm-135.179-1.356c-.178-.144-.357-.322-.536-.465l.25-.285c.179.143.357.32.536.464l-.25.286zm137.107-.286l-.25-.286c.179-.143.357-.321.536-.464l.25.25c-.179.178-.357.356-.536.5zm-138.964-1.394c-.179-.178-.357-.32-.536-.5l.25-.25c.179.18.357.322.536.5l-.25.25zm140.821-.285l-.25-.25c.179-.179.357-.321.536-.5l.25.25a6.633 6.633 0 0 1-.536.5zm-142.642-1.429c-.179-.179-.357-.321-.5-.5l.25-.25c.178.179.357.321.5.5l-.25.25zm144.464-.286l-.25-.25c.179-.178.357-.32.5-.5l.25.25c-.179.18-.322.358-.5.5zm-146.25-1.464c-.179-.179-.322-.356-.5-.5l.25-.25.5.5-.25.25zm148.036-.286l-.25-.25c.179-.178.321-.356.5-.5l.25.25a3.33 3.33 0 0 0-.5.5zm-149.786-1.5c-.179-.178-.322-.356-.5-.535l.25-.25c.178.179.321.357.5.535l-.25.25zm151.5-.32l-.25-.25c.179-.18.321-.357.5-.536l.25.25c-.179.178-.322.356-.5.536zm-153.214-1.536c-.143-.179-.322-.357-.464-.536l.25-.25c.143.179.321.357.464.536l-.25.25zm154.928-.286l-.25-.25c.143-.178.321-.357.464-.535l.286.25a6.81 6.81 0 0 0-.5.535zm-156.571-1.572c-.143-.179-.321-.356-.464-.536l.286-.214c.143.179.322.357.464.536l-.286.214zm158.214-.321l-.286-.215c.144-.178.322-.356.465-.535l.285.215c-.178.142-.321.356-.464.535zm-159.821-1.607c-.143-.178-.286-.357-.464-.571l.286-.214c.143.178.286.357.464.535l-.286.25zm161.428-.322l-.286-.214c.143-.179.286-.357.465-.572l.285.215c-.178.179-.321.393-.464.571zm-163-1.642c-.143-.179-.286-.394-.428-.571l.286-.215c.143.179.286.393.429.572l-.287.214zm164.536-.322l-.285-.215c.143-.178.285-.393.429-.571l.285.214c-.143.18-.286.358-.429.572zm-166.036-1.642c-.143-.18-.286-.394-.428-.572l.286-.214c.143.179.286.393.429.571l-.287.215zm167.572-.358l-.286-.215c.144-.178.286-.393.429-.571l.286.214c-.144.18-.287.358-.429.572zm-169.036-1.678a5.618 5.618 0 0 1-.393-.571l.286-.215c.143.179.286.393.393.572l-.286.214zm170.5-.358l-.285-.214c.143-.179.285-.393.393-.572l.286.215a3.197 3.197 0 0 0-.394.571zm-171.929-1.714c-.143-.215-.25-.393-.393-.607l.286-.215c.143.215.25.394.393.607l-.286.215zm173.322-.392L336.5 313c.143-.215.25-.393.393-.607l.286.179c-.143.249-.25.463-.393.643zm-174.679-1.68c-.143-.214-.25-.393-.393-.606l.286-.179c.143.215.25.393.393.607l-.286.178zm176.036-.428l-.285-.179c.143-.214.25-.394.393-.607l.286.179c-.144.215-.251.429-.394.607zm-177.357-1.714c-.107-.214-.25-.393-.357-.607l.321-.178c.107.214.25.393.357.607l-.321.178zM339.464 309l-.321-.179c.107-.214.25-.393.357-.606l.321.178c-.107.178-.25.392-.357.607zM159.5 307.25c-.107-.215-.25-.429-.357-.607l.321-.178c.107.214.25.428.357.606l-.321.179zm181.214-.429l-.321-.179c.107-.214.25-.428.357-.607l.321.18c-.107.178-.214.392-.357.606zm-182.428-1.786l-.321-.643.321-.178.321.643-.321.178zm183.643-.428l-.321-.179.321-.644.321.18-.321.643zm-184.786-1.786l-.322-.643.322-.144.321.644-.321.143zm185.928-.428l-.321-.143.321-.643.321.143c-.106.215-.213.429-.321.643zm-187.035-1.786l-.321-.643.321-.144.321.644-.321.143zm188.143-.5l-.321-.143c.106-.215.214-.43.285-.644l.321.144a4.954 4.954 0 0 1-.285.643zM155 298.321c-.107-.214-.179-.429-.286-.643l.321-.144c.107.215.179.43.286.644l-.321.143zm190.25-.5l-.321-.143c.107-.214.179-.429.285-.644l.322.144c-.107.215-.215.429-.286.643zM154 296.035c-.107-.214-.179-.428-.286-.643l.321-.143c.107.215.179.429.286.643l-.321.143zm192.214-.5l-.321-.143c.107-.214.179-.428.286-.678l.321.143c-.107.214-.179.464-.286.678zm-193.178-1.82c-.071-.215-.179-.43-.25-.68l.321-.143c.072.215.179.429.25.679l-.321.144zm194.107-.536l-.321-.144c.071-.214.179-.428.25-.678l.321.143a3.86 3.86 0 0 1-.25.679zm-194.964-1.786c-.072-.214-.179-.464-.25-.678l.321-.107c.071.214.179.464.25.678l-.321.107zm195.857-.572l-.322-.106c.072-.215.144-.465.25-.68l.322.107a8.295 8.295 0 0 0-.25.679zM151.321 289c-.071-.215-.143-.465-.214-.679l.322-.106c.071.214.143.464.214.678l-.322.107zm197.536-.535l-.321-.107c.071-.215.143-.465.214-.679l.357.106c-.107.215-.178.43-.25.68zm-198.286-1.822c-.071-.214-.143-.464-.214-.678l.357-.107c.071.214.143.464.214.678l-.357.107zm199.036-.572l-.357-.106c.071-.215.143-.465.214-.68l.357.107c-.071.215-.142.429-.214.679zm-199.75-1.856a4.735 4.735 0 0 1-.178-.68l.357-.106c.071.214.143.464.179.679l-.358.107zm200.464-.572l-.357-.107c.072-.214.144-.464.179-.678l.357.107c-.071.214-.107.464-.179.678zm-201.142-1.822c-.072-.214-.107-.464-.179-.679l.357-.071c.072.214.107.464.179.679l-.357.071zm201.785-.606l-.356-.072c.071-.214.106-.464.179-.678l.356.07a4.74 4.74 0 0 0-.179.68zm-202.357-1.822a5.156 5.156 0 0 1-.143-.714l.357-.071c.036.25.107.464.143.678l-.357.107zm202.929-.608l-.357-.07c.035-.215.107-.465.143-.68l.357.072c-.036.214-.072.464-.143.678zm-203.465-1.856c-.036-.25-.107-.464-.143-.714l.357-.072c.036.25.107.465.143.715l-.357.071zm204-.572l-.357-.072c.036-.25.107-.464.144-.714l.356.071a5.2 5.2 0 0 0-.143.715zm-204.5-1.892a5.027 5.027 0 0 0-.143-.715l.357-.071c.036.25.071.464.143.714l-.357.072zm204.965-.572l-.357-.071c.035-.25.071-.464.107-.714l.356.071c-.035.214-.071.464-.106.714zM147.143 272c-.036-.25-.072-.465-.107-.715l.357-.035c.036.25.071.465.107.715l-.357.035zm205.786-.607l-.357-.071c.036-.25.071-.464.107-.714l.357.035a20.74 20.74 0 0 1-.107.75zm-206.143-1.858c-.036-.25-.071-.464-.107-.714l.357-.036c.036.25.071.465.107.715l-.357.035zm206.5-.606l-.357-.036c.035-.25.071-.464.071-.714l.357.036c-.036.25-.036.464-.071.714zM146.5 267.035c-.036-.25-.036-.464-.071-.714l.357-.036c.036.25.036.465.071.715l-.357.035zm207.071-.606l-.357-.036c.036-.25.036-.464.072-.714l.356.036c-.035.25-.071.5-.071.714zm-207.321-1.894c-.036-.25-.036-.464-.071-.714l.357-.036c.036.25.036.465.071.715l-.357.035zm207.536-.606l-.357-.036c.035-.25.035-.464.035-.714l.357.036c0 .25 0 .5-.035.714zm-207.715-1.894c0-.25-.036-.464-.036-.714l.357-.036c0 .25.036.465.036.715l-.357.035zm207.893-.606l-.356-.036c0-.25.035-.464.035-.714H354c-.036.286-.036.536-.036.75zm-208-1.894c0-.25 0-.464-.036-.714h.357c0 .25 0 .464.036.714h-.357zm208.107-.606h-.357c0-.25 0-.464.036-.714h.357c-.036.25-.036.5-.036.714zm-208.178-1.894v-.714h.357v.714h-.357zm208.214-.606h-.357v-.858h.357v.858zm-207.857-1.894h-.357v-.714h.357v.714zm207.5-.75v-.714h.357v.714h-.357zm-207.429-1.75h-.357c0-.25 0-.464.036-.714h.357c-.036.25-.036.464-.036.714zm207.322-.75c0-.25-.035-.464-.035-.714h.356c0 .25.036.464.036.714h-.357zm-207.214-1.749l-.357-.036c0-.25.036-.464.036-.714l.357.036c-.001.249-.036.464-.036.714zm207.107-.715c0-.25-.036-.464-.036-.714l.357-.036c0 .25.035.464.035.714l-.356.036zm-206.929-1.785l-.357-.036c.036-.25.036-.464.071-.714l.357.036c-.035.249-.035.499-.071.714zm206.714-.715c-.035-.25-.035-.464-.071-.714l.357-.036c.035.25.035.464.071.714l-.357.036zm-206.464-1.75l-.357-.036c.036-.25.036-.464.071-.714l.357.036c-.035.25-.071.464-.071.714zm206.214-.75c-.035-.25-.071-.464-.071-.714l.357-.036c.035.25.071.464.071.714l-.357.036zm-205.928-1.75l-.357-.036c.036-.25.071-.464.107-.714l.357.036c-.036.25-.071.5-.107.714zm205.607-.714c-.036-.25-.071-.464-.107-.714l.357-.036c.036.25.071.464.107.714l-.357.036zm-205.25-1.75l-.357-.071c.036-.25.071-.464.107-.714l.357.071c-.036.25-.071.5-.107.714zm204.893-.714c-.035-.25-.071-.464-.106-.714l.356-.072c.036.25.071.464.107.714l-.357.072zm-204.5-1.75l-.357-.072c.036-.25.071-.464.143-.714l.357.072c-.036.25-.072.5-.143.714zm204.071-.714a4.878 4.878 0 0 0-.143-.714l.357-.072c.035.25.107.464.143.714l-.357.072zm-203.571-1.715l-.357-.071c.036-.25.107-.464.143-.714l.357.071c-.072.214-.107.464-.143.714zm203.071-.75c-.035-.25-.106-.464-.143-.714l.357-.071c.035.25.107.464.143.714l-.357.071zm-202.535-1.714l-.357-.071c.072-.25.107-.464.179-.714l.357.071c-.072.25-.144.5-.179.714zm202-.714c-.071-.214-.107-.464-.179-.679l.357-.071c.071.214.106.464.179.679l-.357.071zM149.5 229.821l-.357-.071c.071-.214.107-.464.178-.679l.357.107c-.071.179-.107.429-.178.643zm200.821-.714c-.071-.214-.107-.464-.179-.678l.357-.107c.071.214.107.464.179.679l-.357.106zm-200.178-1.678l-.357-.107c.071-.214.143-.464.214-.678l.357.107c-.071.213-.143.428-.214.678zm199.5-.715c-.071-.214-.143-.464-.214-.679l.357-.107c.071.214.143.464.214.678l-.357.108zm-198.786-1.678l-.357-.107c.071-.214.143-.464.214-.679l.357.107a17.1 17.1 0 0 0-.214.679zm198.072-.715c-.071-.214-.143-.464-.215-.678l.357-.107c.071.214.143.464.215.679l-.357.106zm-197.286-1.678l-.322-.107c.072-.214.143-.464.214-.679l.321.107c-.07.215-.142.465-.213.679zm196.5-.679c-.071-.214-.143-.464-.25-.679l.321-.107c.072.214.144.464.25.678l-.321.108zm-195.679-1.678l-.321-.107c.071-.214.178-.464.25-.679l.321.107c-.071.214-.178.429-.25.679zm194.822-.679c-.072-.214-.179-.428-.25-.678l.321-.143c.071.214.179.429.25.679l-.321.142zm-193.929-1.678l-.321-.143c.071-.214.179-.429.25-.679l.321.143c-.071.25-.178.464-.25.679zm193.036-.643c-.071-.214-.179-.429-.25-.679l.321-.143c.107.214.179.429.286.679l-.357.143zm-192.107-1.679l-.321-.143c.107-.214.179-.429.286-.679l.321.143c-.108.251-.179.465-.286.679zm191.143-.643c-.107-.214-.179-.429-.286-.643l.321-.143c.107.214.179.428.286.643l-.321.143zm-190.143-1.643l-.321-.143c.107-.214.214-.429.286-.643l.321.143c-.108.179-.179.429-.286.643zm189.143-.642c-.107-.214-.215-.429-.286-.643l.321-.143c.107.214.215.428.286.643l-.321.143zm-188.108-1.643l-.321-.143.321-.643.322.143-.322.643zm187.072-.607l-.321-.643.321-.143c.107.214.215.428.321.643l-.321.143zm-185.964-1.643l-.322-.179.322-.643.321.179-.321.643zm184.821-.572l-.321-.643.321-.178.321.643-.321.178zm-183.643-1.643l-.321-.179c.107-.214.214-.428.357-.643l.321.179c-.143.215-.25.429-.357.643zm182.5-.571a3.422 3.422 0 0 0-.357-.607l.321-.178c.107.214.215.428.357.643l-.321.142zm-181.286-1.607l-.321-.178c.107-.214.25-.429.357-.607l.322.179c-.108.177-.25.392-.358.606zm180.036-.536c-.107-.214-.25-.393-.357-.607l.321-.179c.107.214.25.429.357.607l-.321.179zm-178.786-1.643l-.321-.179c.107-.214.25-.393.357-.607l.322.178c-.108.215-.215.43-.358.608zm177.536-.5c-.107-.214-.25-.393-.357-.607l.286-.178c.143.214.25.393.356.607l-.285.178zm-176.214-1.607l-.286-.178c.143-.214.25-.393.393-.607l.286.179c-.143.213-.25.392-.393.606zm174.893-.5c-.144-.214-.25-.393-.394-.607l.286-.179c.143.214.25.393.393.607l-.285.179zM163.75 198l-.286-.214c.143-.214.25-.393.393-.607l.286.214c-.107.214-.25.428-.393.607zm172.143-.5c-.143-.179-.25-.393-.393-.571l.286-.214c.143.178.285.393.393.607l-.286.178zm-170.714-1.571l-.286-.214c.143-.179.286-.393.428-.572l.286.214c-.143.214-.286.393-.428.572zm169.285-.465c-.143-.179-.285-.393-.428-.572l.285-.214c.143.178.286.393.429.571l-.286.215zm-167.821-1.535l-.286-.214c.143-.179.286-.393.429-.572l.286.214c-.143.179-.286.357-.429.572zM333 193.464c-.143-.179-.286-.393-.429-.572l.286-.214c.143.178.285.393.429.571l-.286.215zm-164.821-1.535l-.286-.214c.143-.179.286-.393.428-.572l.286.214c-.143.214-.286.393-.428.572zm163.285-.465a8.083 8.083 0 0 1-.428-.571l.285-.214c.143.178.286.357.429.571l-.286.214zm-161.75-1.5l-.286-.214c.143-.179.286-.357.464-.536l.286.214a5.854 5.854 0 0 1-.464.536zm160.215-.428c-.143-.179-.321-.357-.465-.536l.286-.214c.143.179.321.357.464.536l-.285.214zm-158.608-1.465l-.286-.25c.143-.178.321-.357.464-.536l.286.25a5.854 5.854 0 0 1-.464.536zm156.965-.428c-.144-.178-.322-.357-.465-.536l.286-.25c.143.179.321.357.464.536l-.285.25zM173 186.179l-.25-.25c.143-.179.321-.357.464-.536l.25.25a3.602 3.602 0 0 1-.464.536zm153.643-.393c-.143-.179-.321-.357-.5-.536l.25-.25c.179.179.321.357.5.536l-.25.25zm-151.964-1.429l-.25-.25c.178-.178.321-.357.5-.536l.25.25c-.179.179-.322.358-.5.536zm150.25-.393c-.179-.179-.321-.357-.5-.5l.25-.25c.179.179.321.357.5.5l-.25.25zm-148.5-1.393l-.25-.25.5-.5.25.25c-.179.179-.358.322-.5.5zm146.75-.392l-.5-.5.25-.25c.179.178.357.321.5.5l-.25.25zm-144.965-1.358l-.25-.25c.179-.178.357-.321.536-.5l.25.25c-.214.179-.393.322-.536.5zm143.179-.392c-.179-.179-.356-.322-.535-.5l.25-.25c.179.178.356.321.535.5l-.25.25zm-141.357-1.322l-.25-.25c.179-.178.357-.321.536-.464l.25.25c-.179.143-.358.321-.536.464zm139.535-.357c-.179-.143-.357-.321-.535-.464l.25-.25c.178.143.356.321.535.464l-.25.25zm-137.678-1.286l-.25-.286c.178-.143.357-.322.536-.464l.25.286c-.179.143-.358.286-.536.464zm135.786-.393c-.179-.143-.357-.321-.536-.464l.215-.286c.179.143.356.321.535.464l-.214.286zm-133.893-1.25l-.214-.286c.179-.143.357-.321.536-.464l.214.286a6.133 6.133 0 0 1-.536.464zm132-.357a6.332 6.332 0 0 1-.536-.464l.214-.286c.179.143.357.286.572.464l-.25.286zm-130.072-1.214l-.214-.286c.179-.143.357-.286.571-.429l.214.286c-.178.143-.356.286-.571.429zm128.107-.321c-.179-.143-.393-.286-.571-.429l.214-.286c.179.143.394.286.572.429l-.215.286zm-126.107-1.179l-.214-.286c.179-.143.393-.286.571-.429l.214.286c-.214.143-.392.286-.571.429zm124.107-.357c-.179-.143-.393-.286-.571-.429l.214-.286c.179.143.394.286.572.428l-.215.287zm-122.107-1.107L189.5 171c.179-.143.393-.286.571-.429l.214.286c-.178.143-.392.286-.571.429zm120.107-.357a5.509 5.509 0 0 0-.571-.393l.214-.286c.179.143.394.286.572.429l-.215.25zm-118.071-1.072l-.214-.286c.214-.143.393-.25.607-.393l.214.286c-.214.107-.393.25-.607.393zm116-.357c-.214-.143-.393-.25-.607-.393l.215-.286c.214.143.393.25.606.393l-.214.286zm-113.929-1.036l-.178-.286c.214-.143.393-.25.607-.393l.179.286c-.179.143-.393.25-.608.393zm111.822-.321c-.214-.143-.393-.25-.607-.393l.18-.286c.214.143.393.25.606.393l-.179.286zm-109.714-1l-.179-.322c.214-.107.393-.25.607-.357l.179.321c-.179.108-.393.215-.607.358zm107.606-.322c-.214-.107-.393-.25-.606-.357l.179-.321c.214.107.393.25.607.357l-.18.321zm-105.464-.964l-.178-.321c.214-.107.428-.25.607-.357l.179.321c-.179.143-.393.25-.608.357zm103.322-.286c-.214-.107-.428-.25-.607-.357l.18-.321c.214.107.428.25.606.357l-.179.321zm-101.143-.928l-.179-.322c.214-.107.429-.214.643-.357l.179.321c-.214.144-.429.251-.643.358zm98.929-.286l-.644-.321.18-.321.643.321-.179.321zm-96.715-.893l-.179-.321.643-.322.178.322-.642.321zm94.501-.285l-.644-.322.144-.321.643.321-.143.322zm-92.286-.822l-.143-.321.643-.321.143.321-.643.321zm90.036-.286l-.644-.321.144-.321.643.321-.143.321zm-87.786-.785l-.143-.321c.214-.107.429-.214.643-.286l.143.321c-.215.107-.429.214-.643.286zm85.536-.25c-.215-.107-.43-.179-.644-.286l.144-.321c.214.107.428.178.643.286l-.143.321zm-83.251-.75l-.143-.321c.214-.107.429-.179.643-.286l.143.321a5.102 5.102 0 0 1-.643.286zm80.929-.25c-.214-.107-.428-.179-.678-.286l.143-.321c.214.107.428.178.678.286l-.143.321zm-78.643-.679l-.143-.321c.214-.071.429-.179.679-.25l.143.321a3.86 3.86 0 0 0-.679.25zm76.321-.286c-.214-.071-.429-.179-.679-.25l.143-.321c.215.071.465.179.68.25l-.144.321zm-74-.642l-.107-.322c.214-.071.464-.178.679-.25l.107.322a3.86 3.86 0 0 1-.679.25zm71.679-.25c-.215-.072-.465-.179-.679-.25l.107-.322c.214.072.464.179.679.25l-.107.322zm-69.321-.572l-.107-.321c.214-.071.464-.143.679-.214l.107.322c-.215.035-.465.142-.679.213zm66.928-.25c-.215-.071-.465-.143-.679-.214l.106-.357c.215.071.465.143.68.214l-.107.357zm-64.536-.536l-.107-.357c.214-.071.464-.143.679-.214l.107.357c-.25.072-.464.143-.679.214zm62.179-.214c-.215-.071-.465-.143-.679-.214l.107-.357c.214.071.464.143.679.214l-.107.357zm-59.821-.536l-.107-.357c.214-.071.464-.143.679-.214l.107.357a2.148 2.148 0 0 1-.679.214zm57.428-.178a4.762 4.762 0 0 0-.679-.179l.106-.357c.215.072.465.143.68.179l-.107.357zm-55-.464l-.107-.357c.214-.071.464-.107.679-.178l.071.356a5.861 5.861 0 0 0-.643.179zm52.572-.215c-.214-.071-.464-.107-.679-.179l.071-.357c.214.071.464.107.679.178l-.071.358zm-50.143-.393l-.071-.357c.214-.071.464-.107.714-.179l.071.357c-.25.072-.5.108-.714.179zm47.714-.178c-.215-.072-.465-.107-.679-.143l.071-.357c.25.036.465.107.715.143l-.107.357zm-45.286-.393l-.071-.357c.25-.036.464-.107.714-.143l.072.357c-.25.036-.5.107-.715.143zm42.857-.143c-.25-.036-.464-.107-.714-.143l.071-.357c.25.036.464.107.714.143l-.071.357zm-40.428-.357l-.072-.357c.25-.036.464-.072.714-.143l.071.357a4.973 4.973 0 0 1-.713.143zm37.964-.107c-.25-.036-.465-.072-.715-.107l.072-.357c.25.036.464.071.714.143l-.071.321zm-35.5-.322l-.071-.357c.25-.036.464-.071.714-.107l.071.357c-.25.036-.464.072-.714.107zm33.036-.107c-.25-.036-.464-.071-.714-.107l.036-.357c.25.036.464.071.714.107l-.036.357zm-30.572-.25l-.036-.357c.25-.036.464-.071.714-.107l.036.357c-.214.036-.464.072-.714.107zm28.108-.107c-.25-.036-.464-.071-.714-.107l.035-.357c.25.036.465.071.715.107l-.036.357zm-25.608-.214l-.036-.357c.25-.036.464-.036.714-.071l.036.357c-.249.035-.499.035-.714.071zm23.144-.072c-.25-.036-.465-.036-.715-.071l.035-.357c.25.036.465.036.715.071l-.035.357zm-20.679-.178l-.036-.357c.25-.036.464-.036.714-.071l.036.357c-.214.035-.464.035-.714.071zm18.179-.072c-.25-.036-.465-.036-.715-.071l.035-.357c.25.036.465.036.715.071l-.035.357zm-15.679-.142l-.036-.358c.25 0 .464-.036.714-.036l.036.357c-.25.037-.464.037-.714.037zm13.179-.036c-.25 0-.465-.036-.715-.036l.035-.357c.25 0 .465.036.715.036l-.035.357zm-10.679-.072v-.357c.25 0 .464-.036.714-.036v.357c-.25.001-.5.001-.714.036zm8.179-.035c-.25 0-.465 0-.715-.036v-.357c.25 0 .465 0 .715.036v.357zm-5.679-.036v-.357h.714V152a2.37 2.37 0 0 0-.714 0zm3.179-.036h-.715v-.357h.715v.357z"/></svg>