<svg xmlns="http://www.w3.org/2000/svg" xmlns:xlink="http://www.w3.org/1999/xlink" width="117.086" height="94.339" viewBox="0 0 117.086 94.339"><defs><path id="a" d="M0 0h117.086v94.339H0z"/></defs><clipPath id="b"><use xlink:href="#a" overflow="visible"/></clipPath><path clip-path="url(#b)" fill="none" stroke="#FFF" stroke-linecap="round" stroke-linejoin="round" stroke-miterlimit="10" d="M47.082.502C34.436.377 21.799 4.971 12.185 13.186 5.749 18.685.46 26.361.5 34.825c.025 5.326 2.192 10.508 5.461 14.713s7.591 7.497 12.204 10.16c18.075 10.436 41.4 11.153 60.083 1.847 6.605-3.291 12.874-8.036 15.916-14.76 3.928-8.682 1.562-19.407-4.521-26.741-6.082-7.336-15.335-11.539-24.747-13.037-9.41-1.499-19.041-.517-28.44 1.058M58.235 56.425c3.101 7.123 16.413 40.875 58.351 37.125"/><path clip-path="url(#b)" fill="none" stroke="#FFF" stroke-linecap="round" stroke-linejoin="round" stroke-miterlimit="10" d="M15.28 21.962l3.101 28.817-.129-.98M29.499 41.956l1.328-13.581 5.231 13.102"/><path clip-path="url(#b)" fill="none" stroke="#FFF" stroke-linecap="round" stroke-linejoin="round" stroke-miterlimit="10" d="M11.339 23.981c1.364-2.387 4.31-3.703 7.027-3.288 2.717.414 5.082 2.451 6.059 5.019.978 2.57.605 5.573-.82 7.924-1.425 2.35-3.837 4.041-6.49 4.76M26.424 38.15l10.466-2.794M40.276 19.92c-2.528 1.835-2.626 5.657-1.516 8.577 1.11 2.921 3.127 5.44 4.137 8.397 1.471 4.31.529 9.359-2.397 12.849M56.35 43.8l-.13-20.5c.999 1.393 2.084 2.582 3.083 3.975l3.89-4.26 1.071 21.276M69.203 40.956c.696-3.948 1.395-7.896 2.091-11.843 1.177 3.999 2.352 7.999 3.527 11.999M78.582 22.965l-.052 21.599 7.532-2.992M69.921 36.163l3-.168"/></svg>