<svg xmlns="http://www.w3.org/2000/svg" xmlns:xlink="http://www.w3.org/1999/xlink" width="1246.86" height="770.278" viewBox="0 0 1246.86 770.278"><defs><path id="a" d="M0 0h1246.855v770.278H0z"/></defs><clipPath id="b"><use xlink:href="#a" overflow="visible"/></clipPath><path clip-path="url(#b)" fill="#FFF" d="M488.943 245.968c1.405 21.833 5.729 99.529 6.546 114.314.694 12.575 1.198 25.173 1.302 37.764.087 10.628-1.688 21.388-.554 31.863 1.838 16.976.438 33.977 1.869 50.892.926 10.962 2.751 21.849 3.65 32.812.732 8.922.552 17.915 1.027 26.862.403 7.604 1.023 15.202 1.795 22.778 1.527 15 3.284 29.977 4.833 44.974 1.215 11.763 2.584 23.492 6.435 34.749 3.182 9.3 5.998 18.78 9.975 27.737 3.612 8.138 10.272 13.239 19.249 15.596 5.77 1.515 11.011 4.967 16.744 6.728 7.704 2.366 15.714 5.682 23.479 5.407 9.607-.34 19.833-2.661 27.758-8.611 7.398-5.555 14.312-12.02 17.626-21.521 2.82-8.083 7.25-15.591 10.403-23.576 2.066-5.232 3.128-10.861 4.633-16.312 1.446-5.235 2.94-10.459 4.282-15.721.318-1.242.04-2.623.17-3.927.243-2.428.631-4.841.873-7.269.339-3.403.675-6.81.884-10.223.999-16.365 2.415-32.72 2.796-49.1.376-16.188-.517-32.401-.462-48.602.042-12.368.782-24.733 1.019-37.104.056-2.959-.767-5.926-.989-8.903a194.577 194.577 0 0 1-.53-11.427c-.231-14.27-.39-28.54-.59-42.81-.129-9.206-.122-18.417-.474-27.613-.263-6.79-1.11-13.555-1.513-20.342-.717-12.09-5.336-93.871-4.98-103.479.165-4.468 2.155-7.809 7.609-8.1 3.212-.171 6.344-1.624 9.54-2.375 1.765-.414 3.858-1.277 5.34-.715 6.354 2.414 11.401-.427 16.607-3.3 4.76-2.626 10.763-1.34 12.698 2.551.36.725.961 1.644.778 2.278-2.858 9.839 11.353 82.512 12.173 94.642.484 7.182.894 14.378.993 21.572.138 10.024-.303 20.059.015 30.074.156 4.982 1.53 9.918 2.176 14.897.253 1.949-.17 3.981.039 5.941 1.94 18.159 1.604 36.292.706 54.527-.788 16.014.178 32.117.455 48.18.219 12.794.915 25.588.735 38.374-.123 8.744-1.552 17.461-2.101 26.208-.621 9.9-.519 19.857-1.455 29.722-.998 10.527-1.738 21.279-4.538 31.395-6.265 22.647-12.984 45.234-21.025 67.297-4.198 11.518-11.045 22.218-17.723 32.629-4.164 6.495-9.841 12.195-15.545 17.491-12.55 11.652-26.397 20.895-44.388 21.959-12.071.715-24.082 2.688-36.153 3.097-9.267.313-18.334-1.928-26.963-5.713-6.151-2.699-12.624-4.673-18.751-7.421-4.861-2.18-9.827-4.509-14.012-7.726-6.478-4.979-12.738-10.386-18.333-16.325-5.541-5.884-10.138-12.656-15.163-19.028-.615-.779-1.559-1.39-1.927-2.258-3.123-7.373-6.414-14.691-9.128-22.216-2.697-7.476-4.711-15.193-7.153-22.764-3.903-12.104-5.437-24.586-6.334-37.203-.607-8.543-1.558-17.06-2.255-25.597-1.207-14.78-2.417-29.561-3.465-44.354-.627-8.852-.864-17.729-1.43-26.585-.595-9.291-1.642-18.561-2.011-27.857-.502-12.661-.204-25.357-.892-38.005-.619-11.365-2.174-22.678-3.193-34.024-1.081-12.04-1.883-24.106-3.069-36.135-.648-6.57-2.037-13.068-2.687-19.639-.229-2.324 1.214-4.791 1.094-7.151-.968-18.983-2.149-37.954-3.203-56.932-.165-2.976.062-5.972-.025-8.955-.276-9.435-3.202-19.161-3.414-28.962-.155-7.094-.066-14.194-.33-21.283-.317-8.469 7.47-16.351 15.67-16.879 8.291-.534 16.486-2.422 24.761-3.395 4.269-.501 8.673-.768 12.918-.282 3.831.439 6.878 2.515 6.183 7.355-.234 1.629-.012 3.324.002 4.989-.36.023-.721.044-1.082.065m-16.553 3.844c-8.503.933-16.259 1.758-24.007 2.642-4.001.456-5.452 2.095-4.802 6.668 1.252 8.797 6.508 54.775 6.968 61.231.574 8.071 1.769 16.1 2.29 24.173.481 7.449.196 14.948.666 22.398.583 9.236 1.709 18.436 2.37 27.667.247 3.449-.537 6.981-.198 10.412 2.091 21.124 5.682 42.093 5.382 63.456-.13 9.228 1.334 18.468 1.858 27.715 1.527 26.908 2.871 53.826 4.458 80.731.387 6.568 2.237 13.127 2.01 19.641-.541 15.511 1.484 30.68 4.285 45.834 3.091 16.722 7.403 33.045 15.181 48.284 2.25 4.409 4.268 8.975 6.922 13.129 2.244 3.513 5.925 6.188 7.803 9.835 6.043 11.736 16.375 18.67 26.931 25.515 9.742 6.316 20.447 10.262 31.733 12.466 6.05 1.181 12.311 1.837 18.467 1.772 5.733-.059 11.434-1.809 17.182-2.066 11.573-.521 22.132-3.235 31.819-10.099 10.603-7.51 19.703-16.488 27.982-26.286 7.455-8.821 12.433-19.156 15.999-30.191 1.763-5.454 4.383-10.629 6.21-16.066 1.301-3.87 1.846-7.987 2.87-11.958 1.132-4.388 2.2-8.812 3.698-13.078 2.295-6.536 5.935-12.764 7.194-19.462 1.903-10.11 2.422-20.5 3.205-30.796.728-9.6 1-19.232 1.541-28.846.249-4.426.993-8.846.933-13.261-.19-14.071-.651-28.139-1.015-42.207-.009-.329-.121-.655-.128-.983-.176-7.1-.448-14.199-.485-21.3-.034-6.868-.067-13.753.333-20.604.599-10.197-3.647-20.582 1.173-30.629.311-.645-.088-1.614-.113-2.435-.253-7.938-.384-15.881-.775-23.812-.463-9.381-1.1-18.754-1.759-28.125-.372-5.279-1.32-10.544-1.338-15.817-.031-9.176 1.232-18.413.541-27.518-1.026-13.49-3.398-26.874-4.986-40.327-1.418-12.004-2.706-24.027-3.767-36.066-1.193-13.525-4.494-2.497-5.983-8.928-.271-1.171-1.9-2.493-3.159-2.858-1.826-.528-3.885-.275-5.846-.307-4.916-.082-9.104 2.427-8.984 5.749.312 8.644 3.393 48.514 4.132 60.316.372 5.937-.278 11.933-.018 17.881.168 3.828 2.104 7.768 1.541 11.391-.74 4.743-.002 9.043.979 13.488.181.811.29 1.646.329 2.475.499 10.522 1.003 21.046 1.446 31.571.124 2.934.227 5.888.033 8.812-.354 5.336-1.348 10.659-1.326 15.985.036 8.095.789 16.184 1.084 24.281.198 5.423.156 10.856.174 16.285.026 7.597-.065 15.194.026 22.79.128 10.566.567 21.132.517 31.697-.041 8.632-.736 17.262-.895 25.896-.157 8.464.597 16.983-.111 25.39-1.367 16.232-3.043 32.468-5.431 48.576-1.758 11.858-4.682 23.559-7.436 35.246-1.093 4.636-2.967 9.116-4.786 13.545-2.237 5.448-4.221 11.13-7.343 16.059-4.549 7.184-9.707 14.045-15.202 20.541-3.496 4.131-7.561 8.316-12.26 10.792-13.33 7.023-27.807 8.957-42.534 5.728-9.757-2.141-19.18-5.764-28.869-8.27-10.822-2.8-20.918-6.779-29.011-14.811-1.263-1.254-2.936-2.297-3.72-3.802-7.646-14.691-13.999-29.902-16.524-46.387-2.26-14.755-4.097-29.576-6.075-44.374-1.206-9.024-2.327-18.061-3.485-27.091-.583-4.561-1.462-9.106-1.688-13.685-.589-11.995-.645-24.019-1.371-36.003-.96-15.833-2.467-31.633-3.523-47.461-.614-9.205-1.015-18.436-1.136-27.66-.161-12.377.036-24.758.089-37.138.029-6.622.453-13.269.016-19.859-.457-6.882-2.068-13.684-2.584-20.565-1.1-14.71-1.919-29.444-2.652-44.178-.336-6.766-.418-46.773-1.003-54.197-.476-6.06-1.315-12.093-2.042-18.557M1062.014 297.49c-8.462-.339-16.174-.714-23.89-.942-15.345-.455-30.693-.803-46.037-1.246-7.717-.224-15.445-.352-23.141-.898-9.072-.643-18.134-1.546-27.167-2.603-12.161-1.424-24.28-3.201-36.44-4.65-18.432-2.195-36.861-4.456-55.334-6.252-9.036-.878-18.182-.554-27.251-1.184-6.322-.439-10.947-6.033-11.114-12.343-.132-4.968-.884-9.952-.625-14.891.578-11.03 1.353-22.069 2.69-33.026.265-2.172 3.138-5.153 5.308-5.672 2.532-.604 6.148-.667 7.808 3.403.696 1.71 3.435 3.417 5.409 3.635 9.156 1.009 18.495.778 27.526 2.365 9.208 1.62 18.381.649 27.503 1.431 16.521 1.416 32.964 3.685 49.46 5.402 7.059.734 14.168.946 21.251 1.451 10.741.765 21.486 1.48 32.213 2.398 10.99.941 21.941 2.459 32.946 3.059 10.264.558 20.579.143 30.868.351 4.948.1 10.049-.524 14.562 2.658.987.696 2.894.017 4.366.11 6.345.397 12.688.845 19.031 1.279.996.069 2.009.337 2.981.226 10.319-1.179 20.18 1.077 30.1 3.541 7.035 1.747 14.286 2.627 22.082 4.007-.202 5.053.571 9.494-.699 13.24-4.854 14.304-9.815 28.662-21.457 39.36-1.866 1.714-3.156 4.108-4.519 6.307-3.632 5.853-7.41 11.638-10.657 17.702-3.61 6.742-6.617 13.803-10.064 20.636-.941 1.868-2.842 3.263-3.734 5.144-1.517 3.19-1.656 8.162-4.037 9.564-4.343 2.558-4.251 6.627-6.026 10.082-1.842 3.586-4.03 6.993-5.921 10.556-5.253 9.901-12.711 18.534-16.142 29.523-2.03 6.504-4.951 12.795-8.079 18.87-2.439 4.736-6.048 8.858-8.709 13.498-2.694 4.695-4.661 9.805-7.321 14.521-2.374 4.208-5.413 8.039-7.835 12.223-.903 1.561-.524 3.838-1.357 5.468-4.739 9.271-9.639 18.464-14.546 27.65-3.822 7.157-7.406 14.473-11.697 21.342-4.734 7.577-10.235 14.67-15.234 22.087-1.986 2.944-3.377 6.283-5.292 9.281-3.079 4.817-6.448 9.449-9.538 14.261-1.836 2.857-3.334 5.932-5.061 8.863-1.79 3.039-3.722 5.993-5.486 9.046-.581 1.004-.838 2.194-1.243 3.3 1.05.104 2.147.46 3.146.278 10.598-1.936 21.284-3.529 31.732-6.091 8.249-2.021 16.119-5.553 24.317-7.841 4.062-1.134 8.507-1.475 12.743-1.31 11.358.44 22.693 1.475 34.05 2.021 6.948.335 13.927.031 20.875.352 4.122.19 8.216 1.518 12.317 1.499 12.438-.056 24.87-.677 37.309-.772 9.766-.075 19.539.223 29.304.511 4.687.14 9.433.255 14.025 1.084 4.89.886 7.092 4.748 5.623 9.6-.921 3.043-2.928 5.74-4.145 8.717-.567 1.389-.305 3.094-.61 4.617-1.022 5.121-2.269 10.202-3.137 15.348-.312 1.853.175 3.847.346 5.771.24 2.737.609 5.468.77 8.211.2 3.439.243 6.889.377 11.086-4.232.69-9.091 2.048-13.98 2.162-9.804.228-19.981-1.932-29.347.034-11.799 2.477-23.436 1.047-35.103 1.937-9.195.702-18.473.278-27.711.438-12.205.211-24.381.764-36.539 2.094-5.551.606-11.253-.346-16.876-.196-12.307.324-24.628.583-36.9 1.479-8.885.648-17.77 1.908-26.532 3.556-15.346 2.885-30.501 6.907-45.919 9.25-11.887 1.808-24.085 2.609-36.088 2.202-5.985-.203-11.044-3.109-10.59-7.931.238-2.522 1.241-5.075 2.353-7.397 4.545-9.483 9.032-19.008 14.045-28.244 1.752-3.227 5.545-5.329 7.37-8.535 3.337-5.854 5.769-12.217 8.818-18.245 4.914-9.715 10.132-19.276 15.022-29.003 4.604-9.162 8.809-18.527 13.458-27.666 4.008-7.878 8.382-15.569 12.617-23.33 5.904-10.814 11.736-21.67 17.785-32.403 3.297-5.851 7.064-11.436 10.435-17.247 1.184-2.044 1.721-4.453 2.722-6.617 5.869-12.686 15.014-23.628 19.335-37.205 1.303-4.093 5.099-7.322 7.216-11.237 5.763-10.656 11.075-21.557 16.876-32.191a714.21 714.21 0 0 1 16.53-28.686c7.229-11.907 14.828-23.589 22.16-35.434 2.935-4.744 5.641-9.633 8.315-14.53.601-1.103.63-2.514 1.035-4.269M939.775 637.208c2.859 5.434 6.191 4.961 9.897 3.563a22.49 22.49 0 0 1 6.03-1.351c8.305-.672 16.631-1.093 24.934-1.776 9.27-.762 18.506-2.021 27.786-2.464 6.258-.299 12.575.798 18.851.652 16.01-.373 32.013-1.063 48.015-1.693 5.087-.201 10.167-.576 15.246-.936 4.55-.322 9.089-.828 13.642-1.086 10.366-.588 20.736-1.089 31.106-1.588 2.12-.103 4.249-.031 6.374-.068 6.341-.109 12.71-.641 19.015-.22 4.83.321 5.981-3.402 5.423-5.765-1.931-8.169 1.098-15.577 2.426-23.218.608-3.493-1.44-4.445-3.663-4.571-7.901-.446-15.834-.749-23.743-.588-7.299.147-14.586 1.425-21.873 1.38-14.319-.086-28.642-.573-42.946-1.215-14.56-.652-29.094-1.901-43.656-2.44-4.947-.184-10.112.384-14.884 1.686-9.905 2.704-19.505 6.547-29.44 9.11-6.61 1.705-13.661 1.64-20.368 3.062-4.713.999-9.194 3.119-13.744 4.832a111.09 111.09 0 0 0-7.676 3.241c-3.366 1.564-6.382-.021-7.688-2.438-1.23-2.276-1.67-6.131-.551-8.314 3.688-7.2 8.209-13.979 12.468-20.882 5.459-8.845 11.001-17.64 16.461-26.483 5.538-8.973 10.868-18.078 16.576-26.939 4.442-6.899 9.547-13.375 13.918-20.317 2.03-3.227 2.852-7.19 4.507-10.684 3.03-6.398 6.22-12.723 9.436-19.032 4.941-9.698 9.822-19.432 14.988-29.011 4.553-8.442 9.697-16.568 14.126-25.07 3.029-5.813 4.453-12.581 8.038-17.961 8.83-13.253 13.25-28.742 22.883-41.725 6.708-9.04 9.96-20.582 15.308-30.715 4.436-8.407 9.502-16.501 14.62-24.522 3.801-5.955 8.278-11.474 12.183-17.366 3.636-5.489 7.293-11.025 10.219-16.9 2.201-4.419 8.757-7.458 5.128-14.04-8.031-2.497-17.143-1.098-24.033-5.36-5.344-.214-10.33-.309-15.303-.635-10.123-.661-20.228-1.67-30.359-2.115-9.287-.407-18.604-.143-27.9-.412-3.926-.113-7.826-1.048-11.755-1.227-6.576-.297-13.196.053-19.737-.536-3.972-.357-7.784-2.514-11.758-2.871-4.612-.413-9.353.7-13.983.371-9.708-.691-19.377-1.934-29.068-2.878-14.938-1.453-29.897-2.709-44.813-4.363-3.541-.393-6.904-2.787-10.417-2.967-13.706-.702-27.443-.744-41.159-1.316-7.327-.305-14.632-1.189-21.983-1.815-.89 6.907-1.961 13.068-2.413 19.274-.615 8.424-.412 8.445 8.151 8.787 1.825.073 3.654.086 5.481.121 14.255.274 28.571-.169 42.748 1.025 13.213 1.113 26.218 4.643 39.43 5.858 12.759 1.172 25.242 4.687 38.205 4.086 9.147-.425 17.885 3.127 27.145 2.944 11.647-.229 23.322.523 34.976 1.07 4.961.234 9.897 1.022 14.136 1.481 3.254-.414 6.012-.895 8.785-1.06 1.285-.077 2.729.943 3.893.646 10.367-2.642 20.298.389 30.309 2.174 4.588.817 6.523 4.27 4.735 8.694-1.132 2.8-2.88 5.386-4.581 7.914-2.646 3.933-5.807 7.55-8.168 11.636-3.581 6.193-6.125 13.039-10.116 18.926-3.826 5.645-5.685 12.949-12.644 16.346-.861.421-.586 3.03-.984 4.586-.346 1.347-.725 2.74-1.404 3.934-1.536 2.701-3.268 5.29-4.917 7.929-1.555 2.491-3.142 4.964-4.651 7.484-3.179 5.303-6.517 10.524-9.399 15.984-1.949 3.69-2.909 7.904-4.876 11.582-6.609 12.353-13.508 24.55-20.207 36.855-1.457 2.676-2.005 6.003-3.893 8.259-7.067 8.445-11.531 18.224-16.234 28.052-5.343 11.166-12.04 21.688-18.205 32.456-4.26 7.44-9.935 14.383-12.611 22.343-3.645 10.844-12.151 18.901-15.088 30.081-1.506 5.734-5.723 10.717-8.397 16.195-2.534 5.191-4.588 10.615-6.976 15.883-2.438 5.381-4.719 10.867-7.614 15.999-4.348 7.697-8.674 15.495-13.932 22.564-5.282 7.101-9.42 14.762-13.566 22.475-.169.314.169.901.482 2.319 5.793-.301 11.739-.152 17.529-1.03 7.038-1.067 13.88-3.495 20.927-4.418 6.653-.874 13.117-1.307 16.84-9.478M365.425 671.682c5.485 7.363 11.003 14.932 16.697 22.366 5.301 6.92 10.89 13.618 16.147 20.57 2.253 2.979 4.946 6.156 5.657 9.609.594 2.888-.472 7.153-2.435 9.339-6.046 6.726-12.516 13.218-21.379 16.422-.761.275-1.682.603-2.119 1.203-4.212 5.803-11.581 5.906-17.085 9.454-3.838 2.475-7.93.476-10.456-3.113-8.737-12.42-17.24-25.004-25.922-37.463-1.609-2.308-3.326-4.786-5.581-6.315-1.581-1.071-4.878-1.675-6.185-.753-9.44 6.657-19.651 11.667-30.651 14.943-16.294 4.854-33.159 4.288-49.2.577-15.691-3.629-30.916-10.035-44.162-19.849-3.437-2.547-6.336-5.86-9.314-8.98-7.545-7.903-15.695-15.365-22.288-24.005-6.728-8.814-12.547-18.488-17.589-28.384-8.684-17.042-16.816-34.391-24.452-51.927-3.644-8.365-5.843-17.395-8.295-26.233-3.07-11.062-5.731-22.237-8.561-33.366-2.312-9.098-5.454-18.085-6.707-27.327-1.47-10.841-1.399-21.901-1.801-32.873-.354-9.685-.502-19.378-.607-29.068-.033-3.118.359-6.24.55-9.36.794-13.024 1.123-26.098 2.503-39.06 1.539-14.463 4.475-28.777 5.988-43.242 1.559-14.913 6.438-28.201 15.16-40.426 7.973-11.174 16.131-21.79 28.666-28.397 5.015-2.643 8.879-7.543 13.955-9.98 18.313-8.792 37.472-12.985 57.879-8.683 3.52.742 7.277.268 10.886.688 14.043 1.633 28.218 2.665 42.046 5.417 7.346 1.462 14.215 5.73 21.064 9.196 12.585 6.368 22.332 16.413 32.735 25.661 13.764 12.24 21.244 28.463 29.121 44.406 7.589 15.36 14.74 30.953 21.529 46.682 2.398 5.553 3.056 11.839 4.686 17.741 3.859 13.979 8 27.884 11.67 41.91 1.674 6.396 2.509 13.011 3.718 19.526 1.408 7.595 2.993 15.161 4.163 22.792 1.171 7.64 2.354 15.32 2.752 23.023.501 9.691.508 19.436.14 29.135-.189 4.96-1.656 9.871-2.554 14.804-.089.487-.321.962-.335 1.446-.2 7.043.237 14.17-.698 21.112-1.438 10.691-3.811 21.258-5.801 31.875-.058.315-.407.613-.386.902.38 5.364-2.28 9.466-4.814 13.972-5.111 9.086-9.211 18.736-13.889 28.073-.994 1.986-2.675 3.626-4.446 5.96m-4.121 69.402c.236-.064 1.119-.104 1.769-.514 5.41-3.416 10.722-6.991 16.173-10.34 5.759-3.537 6.114-4.308 1.785-9.677-9.134-11.329-18.413-22.543-27.725-33.726-5.117-6.144-5.082-9.548-.252-15.902.883-1.161.551-3.977-.219-5.535-2.96-5.998-2.16-9.812 3.401-13.611.668-.457 1.583-.845 1.886-1.497 3.997-8.548 9.744-16.786 11.463-25.788 3.965-20.772 6.311-41.883 8.66-62.929 2.147-19.231 1.538-38.514-1.452-57.667-1.325-8.493-2.371-17.073-4.399-25.404-3.867-15.885-8.278-31.64-12.601-47.409-2.847-10.392-5.102-21.054-9.121-30.988-5.255-12.992-12.074-25.346-18.049-38.054-2.746-5.84-4.152-12.534-7.803-17.679-7.631-10.755-15.266-21.519-25.709-30.132-11.458-9.451-22.988-18.514-37.889-21.265-11.729-2.165-23.652-3.366-35.53-4.593-7.713-.796-15.607-.205-23.228-1.429-9.985-1.603-20.006-1.662-28.878 2.555-11.825 5.621-23.256 12.413-33.896 20.041-5.365 3.848-8.721 10.568-12.787 16.135-2.838 3.886-6.655 7.693-7.744 12.102-3.249 13.156-6.061 26.503-7.754 39.939-2.074 16.44-3.206 33.025-4.074 49.583-.945 18.035-1.849 36.127-1.445 54.164.499 22.287 5.568 43.969 12.039 65.24 4.808 15.803 9.912 31.529 15.447 47.09 2.86 8.039 7.04 15.602 10.458 23.451 6.223 14.291 12.753 28.493 22.771 40.536 9.924 11.931 20.566 23.273 31.123 34.662 2.074 2.238 5.03 3.868 7.863 5.156 7.08 3.218 14.248 6.278 21.522 9.031 8.537 3.23 17.104 6.647 26.601 5.124a347.318 347.318 0 0 1 11.802-1.659c11.71-1.47 23.088-3.689 32.992-10.892 4.269-3.104 9.168-5.386 13.936-7.726 1.228-.603 3.135-.328 4.573.084 7.307 2.101 13.403 5.598 17.872 12.327 8.259 12.435 17.252 24.379 26.419 37.196M792.541 717.072c-8.188-1.075-17.014-2.296-25.858-3.367-4.328-.524-4.79-3.716-4.575-6.85 1.176-17.146 2.383-34.291 3.931-51.404 1.194-13.195 2.799-26.356 4.417-39.508 1.2-9.756 3.194-19.434 3.98-29.215 1.31-16.302 1.761-32.671 2.946-48.984.414-5.691 2.317-11.268 2.846-16.961.675-7.277.483-14.631.972-21.932.372-5.554.929-11.135 2.041-16.574.329-1.61 2.699-3.738 4.352-3.955 3.836-.503 7.806 0 11.72.124 6.176.196 12.369.206 18.522.694 4.587.364 9.324.785 13.61 2.282 2.725.952 4.411 3.694 3.875 7.577-1.805 13.077-3.188 26.214-4.607 39.342-1.424 13.17-3.881 26.376-3.647 39.527.171 9.628-2.33 18.669-2.858 28.068-.545 9.693-2.877 19.279-4.316 28.929-1.324 8.865-2.381 17.771-3.79 26.622-.918 5.76-2.495 11.422-3.266 17.195-.235 1.772 1.694 3.741 1.814 5.67.441 7.215.534 14.451.779 21.678.09 2.606.13 5.221.388 7.813.819 8.251-2.88 12.312-11.27 12.47-3.783.072-7.561.467-12.006.759m27.799-224.259c-1.157-.047-2.356-.477-3.039-.061-4.407 2.692-8.959 2.804-13.851 1.62-2.646-.64-5.476-.522-8.224-.748-.119 2.701-.188 5.405-.38 8.101-.106 1.484-.458 2.951-.633 4.434-1.07 9.128-3.21 18.288-2.962 27.382.562 20.566-2.584 40.8-4.093 61.172-.649 8.777-2.227 17.484-3.286 26.234-1.479 12.236-3.172 24.458-4.215 36.733-1.127 13.274-1.644 26.601-2.342 39.909-.114 2.151.307 3.655 3.416 3.439 4.509-.314 9.121-.071 13.616.507 5.771.741 6.422.339 6.102-5.53-.369-6.779-1.388-13.625-.813-20.33.977-11.424 3.048-22.749 4.527-34.134 1.068-8.202 1.661-16.475 2.938-24.643 1.747-11.185 4.009-22.287 5.905-33.449.667-3.926 1.076-7.912 1.316-11.889.706-11.688 1.04-23.401 1.945-35.071 1.113-14.355 2.655-28.676 4.073-43.676"/><path clip-path="url(#b)" fill="#FFF" d="M827.731 423.259c-7.549-2.15-15.124-4.223-22.639-6.486-3.751-1.13-7.593-2.236-11.046-4.024-5.251-2.717-7.314-7.676-7.914-13.373-1.006-9.53 2.687-18.259 4.588-27.289.74-3.519 1.428-7.143 2.865-10.401 1.981-4.497 5.272-7.842 10.688-8.149.587-.033 1.475-.278 1.681-.693 3.813-7.7 11.563-8.744 18.321-8.728 5.93.015 12.086 2.949 17.69 5.561 3.438 1.604 6.241 4.889 5.966 9.492-.038.633.077 1.412.426 1.909 5.429 7.73 7.405 16.977 8.145 25.771.924 10.983-.727 22.282-12.703 28.277-3.774 1.889-7.168 4.524-10.897 6.518-1.376.736-3.213.607-4.841.873-.111.247-.219.495-.33.742m-28.313-30.295c1.139 1.837 1.996 4.738 3.93 6.025 4.126 2.748 8.714 4.876 13.285 6.863 7.06 3.069 13.941 2.983 20.276-2.085 3.183-2.546 5.889-9.982 4.923-13.857-1.575-6.33-2.843-12.754-4.758-18.979-1.767-5.743-4.105-11.429-11.676-11.409-3.554.008-7.212.786-10.642.182-5.894-1.038-8.334 3.483-9.448 6.909-2.655 8.162-3.862 16.793-5.89 26.351M296.706 607.53c-2.05 1.699-3.404 3.366-5.154 4.175-7.306 3.374-8.544 8.857-3.393 14.811 1.209 1.397 1.511 3.586 2.206 5.42.321.851.352 2.267.907 2.502 6.224 2.641 7.639 7.552 7.96 13.84.155 3.042 2.415 6.543 4.745 8.76 2.805 2.666 1.976 4.78.764 7.382-3.184 6.836-9.586 8.644-16.089 10.281-1.064.268-2.354.139-3.197.704-8.276 5.558-17.113 9.116-27.324 8.733-2.011-.075-4.054 1.45-6.103 1.505-6.875.188-14.152 1.446-20.533-.347-7.032-1.977-14.25-3.566-21.019-7.811-9.561-5.995-17.093-13.891-25.445-21.028-11.252-9.614-19.268-21.292-23.532-35.618-2.91-9.779-6.97-19.222-9.744-29.033a647.48 647.48 0 0 1-9.955-40.05c-2.392-11.135-3.791-22.48-5.824-33.697-1.999-11.023-5.691-21.978-5.886-33.011-.137-7.807-1.477-15.44-1.519-23.19-.06-11.01.072-22.035-.505-33.021-.377-7.177-.882-14.464-1.122-21.556-.423-12.476 1.86-25.054 3.235-37.565.184-1.667 1.287-3.856 2.642-4.657 4.603-2.727 4.251-7.404 5.285-11.571.273-1.104.206-2.45.829-3.286 4.481-6.009 8.831-12.154 13.8-17.744 2.203-2.479 5.964-3.499 8.626-5.662 3.239-2.632 5.976-5.87 9.089-8.671 7.84-7.059 17.566-9.697 27.618-11.518 11.761-2.13 23.744-2.371 35.197.375 10.174 2.44 20.04 6.746 29.522 11.31 8.306 3.998 16.232 9.028 23.701 14.462 7.988 5.813 15.314 12.471 19.354 22.044 2.389 5.659 6.272 10.72 8.398 16.452 6.005 16.194 12.126 32.406 16.795 49.007 1.963 6.979 4.808 13.448 7.186 20.174 1.136 3.211 1.973 6.537 2.784 9.851 2.033 8.306 3.883 16.657 5.993 24.942.976 3.834 2.416 7.548 3.58 11.336.337 1.104.605 2.275.629 3.421.207 9.731 3.469 18.784 5.746 28.098 1.732 7.087 1.744 14.625 2.207 21.981.488 7.764.914 15.554.794 23.322-.115 7.451-.582 14.943-1.604 22.319-.899 6.481-2.854 12.812-4.198 19.238-.662 3.167-.649 6.505-1.546 9.589-3.154 10.841-9.199 19.519-19.491 24.832-2.933 1.515-5.66 3.481-8.687 4.748-4.154 1.738-7.594.712-10.09-3.388-2.475-4.065-5.603-7.751-7.894-11.907-2.771-5.028-4.986-10.365-7.392-15.592-.859-1.869-1.572-3.803-2.346-5.691m-56.648 59.884c15.019 1.061 27.742-2.852 40.121-8.441 2.734-1.234 4.014-3.084 3.028-5.909-1.329-3.813-2.297-8.007-4.608-11.171-5.097-6.977-10.29-13.816-11.988-22.482-.399-2.03-.257-5.239 1.006-6.352 9.288-8.179 18.694-16.271 28.598-23.674 2.771-2.071 7.223-2.039 9.617 2.606a720.79 720.79 0 0 0 13.906 25.669c1.391 2.45 3.243 5.219 5.591 6.285 1.05.477 4.774-2.487 5.676-4.583 2.903-6.745 6.159-13.643 7.259-20.793 1.979-12.864 3.075-25.938 3.437-38.954.31-11.195-.171-22.533-1.672-33.623-1.566-11.56-4.656-22.923-7.288-34.324-3.153-13.647-6.327-27.296-9.898-40.837-1.587-6.016-4.594-11.653-6.224-17.661-5.625-20.722-11.57-41.194-20.823-60.796-5.79-12.266-14.286-21.66-24.629-28.967-14.299-10.102-29.861-17.92-48.033-20.085-18.668-2.223-35.184-.11-48.18 14.872-.847.976-1.979 1.904-3.167 2.35-10.371 3.896-14.902 12.396-17.928 22.214-.516 1.673-1.397 3.515-2.677 4.622-6.922 5.985-8.234 13.834-8.085 22.35.175 9.944.087 19.893.25 29.837.062 3.795.471 7.586.78 11.374.685 8.369 1.693 16.726 2.04 25.108.419 10.125-.088 20.311 1.918 30.312.642 3.199 2.567 6.171 3.025 9.372 1.285 8.99 1.804 18.095 3.196 27.064 1.876 12.09 4.21 24.11 6.494 36.132 1.232 6.481 2.354 13.03 4.265 19.324 3.08 10.14 6.426 20.233 10.314 30.087 3.175 8.046 6.523 16.233 11.253 23.393 4.172 6.313 10.349 11.307 15.665 16.858 10.651 11.122 22.797 19.186 37.761 18.823M753.961 4.047c3.714.139 7.494-.112 11.122.516 4.577.794 9.191 1.847 12.961 4.998 1.055.879 2.787 1.062 3.63 2.055 3.482 4.109 7.373 8.066 9.891 12.737 2.09 3.878 2.494 8.673 3.592 13.076.3 1.203.438 2.449.603 3.682.434 3.274.517 6.442-.774 9.671-.812 2.032-.257 4.625-1.115 6.625-1.969 4.595-4.022 9.255-6.813 13.365-2.312 3.404-5.894 5.921-8.544 9.134-.726.877-.693 3.204-.034 4.256 2.964 4.731 5.935 9.515 10.667 12.826.804.563 1.335 1.568 1.883 2.436 1.758 2.78 2.601 6.259 6.02 7.759.221.096.483.368.514.586.667 4.973 5.986 6.601 7.75 10.798.529 1.261 1.356 2.399 2.054 3.589 2.489 4.245 5.152 8.4 7.421 12.759 2.312 4.441-.885 9.525-5.885 9.651-2.735.069-6.363 1.029-8.012-.329-2.69-2.214-5.346-5.835-5.767-9.148-.809-6.37-5.672-9.846-8.456-14.736-1.851-3.254-3.907-6.431-6.214-9.375-1.762-2.25-4.694-3.743-5.989-6.168-2.8-5.251-7.7-8.615-11.016-13.351-.455-.65-1.849-1.036-2.732-.927-3.57.443-7.155.944-10.646 1.791-2.035.494-3.055 2.177-3.055 4.444.001 4.778.021 9.565-.267 14.331-.148 2.472-.828 4.866.388 7.287.294.585-.138 1.514-.176 2.289-.048.951-.312 2.01-.003 2.843 2.29 6.132 1.216 12.212-.266 18.25-.156.631-1.789 1.468-2.519 1.295-3.4-.807-6.724-1.942-10.077-2.949-2.346-.703-3.584-2.779-3.482-5.268.072-1.721-.375-3.456-.402-5.189-.042-2.676.107-5.353.117-8.031.011-2.604-.124-5.209-.061-7.811.062-2.621.345-5.235.435-7.856.247-7.232.331-14.472.704-21.696.213-4.127 1.017-8.223 1.274-12.35.236-3.809.069-7.643.139-11.466.061-3.351.277-6.703.267-10.053-.004-1.34-.731-2.707-.607-4.012.668-7.015 1.556-14.009 2.254-21.021.418-4.213.621-8.447.927-12.671.196-2.684 1.588-4.409 4.136-5.29 3.065-1.058 6.067-2.322 9.171-3.246 1.575-.468 3.313-.384 4.979-.551.001.149.007.296.013.445m-5.789 71.619c2.11-.253 3.672-.384 5.213-.634 7.052-1.143 12.48-5.22 17.582-9.845 6.078-5.514 9.517-12.333 9.585-20.595.02-2.482-.944-4.96-1.054-7.457-.14-3.23-1.154-6.054-3.03-8.595-.891-1.204-1.915-2.322-2.98-3.378-1.849-1.833-3.67-3.72-5.693-5.348-4.778-3.844-10.593-2.625-16.069-3.099-2.889-.25-3.788 1.369-4.119 3.734-.098.698-.059 1.419-.039 2.128.127 4.962.295 9.922.391 14.885.063 3.242-.018 6.486.046 9.728.057 2.795.604 5.635.256 8.37-.492 3.873-1.346 7.662.104 11.496.106.279-.188.684-.19 1.032-.019 2.397-.007 4.797-.003 7.578M397.799 104.064c.495-7.023 1.158-14.041 1.412-21.074.125-3.486-.627-6.994-.764-10.501-.205-5.22-.356-10.449-.271-15.67.085-5.26.614-10.512.686-15.772.03-2.178-.319-4.473-1.034-6.528-1.46-4.201-1.735-8.215.12-12.38.984-2.207 1.515-4.616 2.25-6.934.028-.085.039-.185.092-.249 2.351-2.887 5.615-1.047 8.402-1.328.781-.078 2.297 2.594 2.685 4.197.638 2.634.629 5.425.896 8.148.008.087.097.185.074.252-1.742 5.164.966 10.114.722 15.195-.149 3.091-.511 6.17-.725 9.259-.073 1.058.001 2.127.028 3.191.093 3.673.198 7.346.287 11.02.004.171-.175.414-.109.506 2.255 3.11.519 6.545.622 9.778.221 6.905 2.245 13.81.147 20.77-.484 1.604-.771 3.804-.043 5.117 1.173 2.119.118 3.49-.367 5.278-1.642 6.059-2.937 12.212-4.572 18.274-.903 3.353-2.257 6.583-3.33 9.893-.429 1.326-.419 2.828-1.005 4.061-1.682 3.541-3.047 7.424-5.513 10.349-2.537 3.01-5.969 5.551-9.495 7.35-2.612 1.332-6.062 1.793-9.027 1.501-5.865-.579-11.93-.873-17.147-4.253-.875-.567-1.913-1.051-2.518-1.846-4.492-5.898-7.977-12.337-9.314-19.695-.526-2.901-.291-5.933-.517-8.897-.467-6.084-1.143-12.156-1.475-18.246-.197-3.605.275-7.244.12-10.853-.133-3.119-1.065-6.22-1.047-9.326.034-6.239 1.008-12.513.586-18.703-.362-5.332 1.035-10.34 1.246-15.508.147-3.611-.75-7.273-.524-10.872.339-5.36 1.054-10.723 2.065-15.997.271-1.418 1.995-3.151 3.414-3.604 1.701-.543 3.633-.495 5.48 1.32 3.205 3.149 5.053 6.054 2.844 10.593-.608 1.247.09 3.105.097 4.682.027 6.203.543 12.465-.144 18.59-.537 4.792.087 9.399.153 14.093.054 3.729-.679 7.469-1.069 11.205-.064.614-.269 1.233-.222 1.835.429 5.537.382 11.179 1.517 16.571.928 4.41.464 8.804 1.081 13.05.888 6.095.117 12.181.995 18.181.671 4.584 3.099 8.721 6.627 11.409 3.458 2.632 7.982 3.374 12.382 1.552.758-.313 1.609-.891 1.977-1.582 5.771-10.815 9.238-22.384 11.051-34.473.144-.961.087-1.952.124-2.93a.834.834 0 0 0 .05.001M856.652 31.341c.212 2.868.5 5.731.614 8.603.127 3.173.275 6.364.079 9.526-.165 2.666 1.272 3.653 3.426 3.663 7.548.032 15.107.094 22.641-.274 4.997-.244 9.377 2.55 10.381 7.439.471 2.294-.857 3.695-2.61 4.67-1.767.984-3.665 1.744-5.535 2.533-2.972 1.253-5.916 3.455-9.06.205-.346-.356-1.373-.051-2.082-.058-1.651-.02-3.305-.127-4.951-.046-2.873.141-5.804.107-8.588.715-1.718.375-3.127 1.571-2.709 4.117.438 2.661.237 5.46.057 8.181-.434 6.591.851 13.228-.873 19.815-.492 1.888.608 4.141.666 6.237.074 2.705-.157 5.419-.272 8.129-.161 3.793-.563 7.601-.314 11.365.052.77 2.477 1.797 3.892 1.956 1.746.197 3.574-.457 5.378-.618 1.588-.142 3.194-.062 4.788-.172 2.735-.188 5.463-.543 8.201-.657 5.99-.251 11.985-.413 17.98-.571 1.667-.044 2.713.846 3.51 2.325.618 1.146 1.64 2.073 2.461 3.112 2.92 3.691 1.51 8.06-2.99 9.409-1.41.421-2.744 1.284-4.166 1.431-1.758.183-3.669.146-5.34-.366-2.425-.742-4.643-1.222-7.199-.386-3.258 1.065-6.605 1.187-10.088.449-1.735-.367-3.744.66-5.647.946-1.165.176-2.362.183-3.545.188-.523.002-1.042-.244-1.571-.285-5.592-.433-11.183-.855-16.775-1.262-3.235-.234-4.387-2.817-5.271-5.201-.582-1.566-.145-3.524-.096-5.305.048-1.845.531-3.752.205-5.518-.744-4.027-1.424-7.864.072-11.981 2.044-5.623.579-11.463.15-17.212-.05-.692-.453-1.553-.174-2.039 1.552-2.72 1.075-5.605 1.1-8.506.023-2.566.747-5.12.845-7.692.075-2.018-.387-4.051-.512-6.084a69.795 69.795 0 0 1-.127-5.676c.047-2.207.035-4.44.382-6.608.75-4.689.068-9.258-.472-13.905-.517-4.455-.285-8.996-.43-13.498-.078-2.423-.063-4.873-.443-7.255-.489-3.072 2.886-9.741 5.738-10.982 3.716-1.617 7.36-3.407 11.104-4.951 1.101-.453 2.45-.258 3.666-.473 3.529-.627 7.039-1.368 10.574-1.96 3.855-.647 7.729-1.186 11.595-1.757 4.005-.592 7.998-1.276 12.021-1.706 2.273-.243 4.715.4 6.865-.171 3.711-.986 6.68-.537 9.371 2.322.925.983 3.255 1.235 3.476 2.168.531 2.243.348 4.707.117 7.048-.075.759-1.083 1.802-1.868 2.039-2.107.638-4.351 1.37-6.494 1.246-8.622-.497-17.03 1.125-25.498 2.171a679.239 679.239 0 0 0-14.066 1.894c-.937.134-1.812.642-2.74.871-1.426.35-2.894.924-4.31.841-3.05-.183-4.227.704-4.267 3.84-.016 1.235.062 2.47.097 3.705l-.369.016M564.043 142.945c-1.77-.348-4.904-.335-7.398-1.593-4.206-2.123-4.572-6.368-4.154-10.618.615-6.247 1.416-12.481 1.864-18.74.729-10.221 1.174-20.461 1.872-30.684.275-4.023 1.122-8.014 1.283-12.038.077-1.941-1.229-3.926-1.209-5.884.044-4.273.721-8.539.795-12.813.077-4.501-.135-9.016-.443-13.51-.171-2.492-1.58-4.123-4.161-4.896-6.649-1.993-13.309-3.992-19.822-6.378-2.678-.982-5.263-2.657-7.406-4.561-3.942-3.504-7.74-7.225-11.186-11.213-2.422-2.802-1.789-6.248.802-8.424 2.588-2.172 6.553-2.055 9.092-.065 5.056 3.964 10.009 8.139 15.453 11.504 3.732 2.308 8.177 3.517 12.384 4.988 3.25 1.136 6.594 2.046 9.952 2.821 6.882 1.59 13.031-1.488 19.404-3.215 7.024-1.905 11.812-6.941 16.795-11.694 2.924-2.789 5.955-3.352 9.081-1.302 2.712 1.777 3.531 5.472 2.858 8.697-1.103 5.289-5.112 7.423-9.197 9.699-3.082 1.718-5.955 3.889-9.177 5.252-4.558 1.93-9.262 3.688-14.07 4.807-5.171 1.204-6.981 3.288-6.485 8.716.274 2.999.319 6.062.052 9.059-.459 5.168-1.159 10.218-.222 15.495 1.478 8.325 1.883 16.703-.293 25.129-.812 3.144.078 6.704.025 10.071-.059 3.835-.389 7.666-.453 11.501-.125 7.577-.152 15.155-.2 22.732-.004.616.163 1.232.232 1.85.43 3.827-1.11 5.484-6.068 5.307M295.093 137.561c3.493.462 6.508.176 8.67-2.678a6.68 6.68 0 0 0 .78-1.308c2.085-4.664 4.078-9.37 6.256-13.99 1.2-2.546 5.154-5.711 8.179-4.544 1.852.714 3.512 1.926 5.247 2.935.121.07.232.341.193.472-1.059 3.586 1.112 7.454-.97 10.95-3.129 5.262-5.711 10.975-9.571 15.629-2.27 2.738-6.387 4.399-9.992 5.453-3.811 1.115-7.998 1.182-12.026 1.219-2.131.02-4.253-1.082-6.411-1.527-7.689-1.585-14.445-4.542-18.7-11.691-1.564-2.629-3.917-4.825-5.255-7.541-1.142-2.319-1.403-5.089-1.941-7.683-.32-1.541-.431-3.126-.619-4.692-.662-5.502-2.129-11.065-1.737-16.491.362-5.006.259-9.823-.246-14.765-.193-1.891 1.194-3.899 1.609-5.906.393-1.901.353-3.886.691-5.801.6-3.397 1.361-6.766 2.019-10.152.709-3.647 1.444-7.291 2-10.962.103-.679-.655-1.458-.898-2.229-.218-.693-.6-1.626-.319-2.109.308-.527 1.293-.659 1.984-.96 1.017-.442 2.333-.615 3.003-1.366 4.342-4.868 9.027-9.274 15.408-11.245 4.264-1.319 8.594-2.624 12.993-3.256 5.129-.738 9.311 2.099 13.45 4.759 2.658 1.708 5.081 3.495 5.879 6.762 6.468 4.594 4.697 12.283 6.787 18.506.58 1.725-.418 3.984-.716 5.995a1.355 1.355 0 0 1-.356.694c-2.157 2.198-8.309.72-10.02-1.909-2.826-4.34-3.087-9.273-4.143-14.057-.277-1.254-1.165-2.471-2.04-3.473-1.161-1.332-2.547-2.477-3.899-3.63-2.387-2.036-5.088-2.232-7.865-.68-3.357 1.878-6.868 3.525-10.021 5.696-1.537 1.058-2.714 2.943-3.507 4.701-1.057 2.342-1.748 4.889-2.295 7.413-.852 3.922-1.489 7.892-2.144 11.854-.686 4.152-1.296 8.317-1.917 12.48-.091.611-.051 1.24-.095 1.86-.195 2.773-.138 5.595-.66 8.306-.896 4.665-.065 9.036 1.152 13.517 1.066 3.931 1.146 8.151 2.401 12.004.838 2.575 2.532 5.264 4.613 6.96 4.392 3.578 9.132 6.91 15.049 6.48M642.283 49.933c.033 4.688.158 9.378.074 14.064-.086 4.802-.378 9.601-.577 14.401-.158 3.819-.443 7.64-.422 11.459.013 2.108.544 4.212.835 6.318.834 6.042 1.393 12.14 4.112 17.757.543 1.122.768 2.409 1.06 3.64 1.252 5.279 5.609 5.491 9.749 5.89 3.959.382 6.276-1.555 8.488-4.969 4.193-6.472 5.216-13.799 6.672-20.963.813-3.998-.038-8.319.019-12.492.038-2.875.388-5.744.525-8.62.342-7.146.778-14.294.879-21.445.033-2.335-.927-4.672-1.305-7.028-1.017-6.36 3.054-7.542 7.26-8.757 1.412-.408 3.185-.313 4.593.154 3.706 1.227 6.17 7.339 4.803 10.927-.66 1.732-1.287 3.628-1.27 5.442.066 6.41.415 12.819.661 19.227.015.352.207.767.08 1.046-2.658 5.834-1.546 11.95-1.31 17.978.262 6.7-.305 13.223-3.143 19.41-.282.617-.216 1.392-.317 2.092-.411 2.823-1.077 5.441-2.938 7.836-1.707 2.199-2.586 5.021-4.116 7.383-3.403 5.253-8.902 6.42-14.587 6.938-5.972.543-11.731.34-17.667-1.667-6.245-2.111-9.153-6.195-10.773-11.958-1.691-6.015-3.805-11.949-4.979-18.064-1.209-6.296-1.641-12.756-2.157-19.164-.365-4.544-.379-9.121-.387-13.684-.002-1.136.884-2.267.914-3.413.109-4.051.736-8.275-.162-12.124-1.222-5.239 1.96-9.681 1.541-14.635-.028-.338.522-.877.926-1.079 4.513-2.244 9.729-.69 12.091 3.759.662 1.249.693 2.832 1.015 4.263-.063.025-.124.052-.187.078M450.266 120.617c-.367-6.661-.699-13.324-1.119-19.981-.167-2.654-1.187-5.439-.649-7.91.838-3.84.179-7.664.783-11.5.734-4.676.55-9.515.556-14.285.008-5.994-.263-11.988-.231-17.981.005-.914.776-2.144 1.565-2.683 5.557-3.799 11.918-.833 12.58 5.873.303 3.072.327 6.181.321 9.273-.015 7.078-.91 14.264.052 21.199.768 5.535-.05 10.932.426 16.385.357 4.088-.155 8.263-.429 12.39-.204 3.079.6 4.445 3.666 5.065 5.086 1.029 10.057.644 15.111-.735 4.051-1.104 8.334-1.356 12.513-1.995a26.623 26.623 0 0 0 1.789-.346c2.929-.665 5.843-1.642 8.808-.074.44.233 1.12.349 1.564.183 4.3-1.612 6.563 1.56 8.936 4.007.69.71.59 2.52.354 3.729-.738 3.758-3.819 6.011-7.743 6.329-7.04.574-14.06 1.251-21.08 2.191-6.271.84-12.716 2.136-19.294.72-3.729-.801-7.775-.127-11.677-.119-5.429.013-7.625-2.3-7.436-7.833.022-.622.047-1.244.071-1.866l.563-.036"/><path clip-path="url(#b)" fill="none" stroke="#FFF" stroke-width="13" stroke-linecap="round" stroke-linejoin="round" stroke-miterlimit="10" d="M92.807 100.913c32.148-5.135 64.297-10.27 96.445-15.403M6.5 157.016a3211.153 3211.153 0 0 1 179.271-29.01M985.035 53.125l126.541-10.909M973.531 91.821l266.824-11.382"/></svg>