<svg xmlns="http://www.w3.org/2000/svg" xmlns:xlink="http://www.w3.org/1999/xlink" width="117.086" height="94.339" viewBox="0 0 117.086 94.339"><defs><path id="a" d="M0 0h117.086v94.339H0z"/></defs><clipPath id="b"><use xlink:href="#a" overflow="visible"/></clipPath><path clip-path="url(#b)" fill="none" stroke="#FFF" stroke-linecap="round" stroke-linejoin="round" stroke-miterlimit="10" d="M47.082.502C34.436.377 21.799 4.971 12.185 13.186 5.749 18.685.46 26.361.5 34.825c.025 5.326 2.192 10.508 5.461 14.713s7.591 7.497 12.204 10.16c18.075 10.436 41.4 11.153 60.083 1.847 6.605-3.291 12.874-8.036 15.916-14.76 3.928-8.682 1.562-19.407-4.521-26.741-6.082-7.336-15.335-11.539-24.747-13.037-9.41-1.499-19.041-.517-28.44 1.058M58.235 56.425c3.101 7.123 16.413 40.875 58.351 37.125M15.572 21.51c1.412 8.16 3.278 17.62 4.689 25.78"/><path clip-path="url(#b)" fill="none" stroke="#FFF" stroke-linecap="round" stroke-linejoin="round" stroke-miterlimit="10" d="M12.802 24.674c1.267-1.714 2.64-3.511 4.626-4.282 1.987-.77 4.823-.298 5.255 2.083.807 4.445-4.604 5.858-5.591 6.496 2.59-1.368 12.013-4.833 17.618 2.683 2.032 2.727 2.694 6.605 1.142 9.631-.937 1.827-2.601 3.209-4.446 4.111-1.846.901-7.013 1.894-11.145 1.894M39.41 33.804l-.854-8.877c1.061-.581 2.021-.822 3.23-.785.988.03 2.075.354 2.563 1.214.577 1.015.037 2.369-.885 3.084-.923.715-3.119.949-4.266 1.161M42.578 29.179l3.625 5.5M48.85 41.339a352.696 352.696 0 0 1 3.754-21.162l5.631 21.458M45.31 37.241c5.104 1.998 11.129 1.464 15.802-1.399M63.389 26.269l2.882 17.127a163.164 163.164 0 0 0 3.042-16.427c.066-.508.131-1.036-.026-1.524-.155-.488-.596-.925-1.107-.903-.698.029-1.106.932-.841 1.578.267.646.974 1.01 1.663 1.117 1.362.213 2.75-.377 3.804-1.265 1.053-.889 1.827-2.055 2.588-3.204M74.832 33.591c-.576 1.833.251 4.023 1.923 4.969 1.671.947 4.014.503 5.181-1.022.608-.795.893-1.805.923-2.805.034-1.133-.27-2.314-1.032-3.154-2.144-2.363-6.134-.732-6.995 2.012z"/></svg>