<svg xmlns="http://www.w3.org/2000/svg" xmlns:xlink="http://www.w3.org/1999/xlink" width="117.086" height="94.339" viewBox="0 0 117.086 94.339"><defs><path id="a" d="M0 0h117.086v94.339H0z"/></defs><clipPath id="b"><use xlink:href="#a" overflow="visible"/></clipPath><path clip-path="url(#b)" fill="none" stroke="#FFF" stroke-linecap="round" stroke-linejoin="round" stroke-miterlimit="10" d="M47.082.502C34.436.377 21.799 4.971 12.185 13.186 5.749 18.685.46 26.361.5 34.825c.025 5.326 2.192 10.508 5.461 14.713s7.591 7.497 12.204 10.16c18.075 10.436 41.4 11.153 60.083 1.847 6.605-3.291 12.874-8.036 15.916-14.76 3.928-8.682 1.562-19.407-4.521-26.741-6.082-7.336-15.335-11.539-24.747-13.037-9.41-1.499-19.041-.517-28.44 1.058M58.235 56.425c3.101 7.123 16.413 40.875 58.351 37.125"/><path clip-path="url(#b)" fill="none" stroke="#FFF" stroke-linecap="round" stroke-linejoin="round" stroke-miterlimit="10" d="M10.827 28.796c-.656 1.59-.667 3.389-.331 5.076.23 1.15.626 2.286 1.319 3.233.692.947 1.706 1.692 2.86 1.901 1.442.261 2.956-.355 3.989-1.394s1.624-2.453 1.895-3.892c.351-1.865.176-3.877-.776-5.519-2.275-3.919-7.235-3.576-8.956.595zM23.668 37.905l.376-14.41a159.832 159.832 0 0 1 3.64 13.553c-.703-4.851-.939-9.77-.703-14.666M35.459 24.073l-.333 11.167 4.539-.386M41.623 40.669a141.755 141.755 0 0 0 3.44-16.401 110.317 110.317 0 0 0 2.825 15.889M39.68 30.423a12.739 12.739 0 0 0 8.725.789M52.688 25.945c-1.605 1.102-2.616 3.021-2.616 4.967 0 1.947 1.01 3.866 2.615 4.968M55.054 21.269l.239 18.91M59.912 20.531l.621 19.647M65.383 33.531l-1.896.579-.617-7.522c.887-.394 1.479-.938 2.365-1.332M54.898 27.491l5.165-1.496M63.314 29.985l1.477-.443M71.908 41.979a248.134 248.134 0 0 1 .214-18.319c1.183-.891 2.97-.575 4.069.415 1.102.99 1.562 2.551 1.495 4.03-.062 1.412-.586 2.828-1.583 3.83-.998 1.001-2.492 1.534-3.873 1.231M76.265 40.618l2.747-7.019a53.566 53.566 0 0 0 1.746 7.061M84.645 29.158c-1.232.184-2.006 1.548-1.959 2.792.047 1.246.701 2.377 1.369 3.429.668 1.051 1.384 2.124 1.584 3.354.318 1.96-.922 4.059-2.792 4.727M77.239 38.397l2.364.304M43.086 19.465a2919.4 2919.4 0 0 0 1.208-3.14 9.89 9.89 0 0 1 1.459 2.807"/></svg>